<?xml version="1.0" encoding="utf-8"?>
<!-- Generator: Adobe Illustrator 21.0.0, SVG Export Plug-In . SVG Version: 6.00 Build 0)  -->
<svg version="1.1" id="Capa_1" xmlns="http://www.w3.org/2000/svg" xmlns:xlink="http://www.w3.org/1999/xlink" x="0px" y="0px"
	 viewBox="0 0 1366 768" style="enable-background:new 0 0 1366 768;" xml:space="preserve">
<g>
	<path d="M718.5,276.1c-19.4-12.8-43.1-15.6-65.8-12.4c-20.2,2.8-42,10.4-57.2,24.5c-14.8,13.7-23.4,33.8-27.4,53.3
		c-4.1,20.1-5,42.1,2.7,61.5c8.2,20.7,23.7,38.2,43.1,49.1c11.3,6.4,24.2,10.9,36.8,14.4c12.6,3.5,25.9,5.5,38.9,4.6
		c12.9-0.9,26.1-4.2,37-11.2c9.3-6,17.7-13.8,24.7-22.4c15.2-18.7,24-42.7,26.1-66.6C781,329.3,756.2,291.8,718.5,276.1z
		 M742.2,411.6c-8.2,15-22.7,29.6-39.4,34.5c-22.1,6.5-45,0.2-65.7-7.9c-16.4-6.4-30.7-17.1-39.9-32.3c-9-14.8-10.7-30.7-9-47.8
		c1.5-15.5,6.5-32.2,15.8-45.6c4.6-6.7,10.7-11.7,18.2-15.7c8.7-4.6,17.9-7.8,27.6-9.9c19.6-4.2,40.5-2.6,57.5,8.7
		c1,0.7,2.1,1.1,3.2,1.3c0.3,0.1,0.6,0.2,0.9,0.4c0.6,0.2,1.5,0.7,1.4,0.6c1.4,0.6,2.8,1.3,4.1,2.1c2.9,1.6,5.8,3.3,8.5,5.2
		c0.7,0.5,1.5,1,2.2,1.6c0.1,0.1,0.2,0.2,0.3,0.2c0.1,0.1,0.3,0.2,0.4,0.4c1.3,1,2.5,2.1,3.7,3.2c2.6,2.4,5.1,4.9,7.4,7.6
		c2.2,2.6,3.1,3.9,5.4,7.4c1.9,3,4.1,7.2,5.2,9.7c2.5,5.9,4.7,14.8,5.2,20.8C756.6,375.2,751.4,394.8,742.2,411.6z"/>
	<path d="M541.1,484.7c-19.6,18.2-39.2,36.4-58.8,54.6c-10.6,9.9,5.3,25.7,15.9,15.9c19.6-18.2,39.2-36.4,58.8-54.6
		C567.6,490.8,551.7,474.9,541.1,484.7z"/>
	<path d="M652.6,539.1c-6.5,0-10.8,5.2-11.2,11.2c-2.1,26.7-4.1,53.4-6.2,80c-0.5,6.1,5.5,11.2,11.2,11.2c6.5,0,10.8-5.2,11.2-11.2
		c2.1-26.7,4.1-53.4,6.2-80C664.2,544.3,658.3,539.1,652.6,539.1z"/>
	<path d="M774.8,481.6c-4-4.6-11.8-4.1-15.9,0c-4.6,4.6-4,11.3,0,15.9c17.5,20.3,34.9,40.5,52.4,60.8c4,4.6,11.8,4.1,15.9,0
		c4.6-4.6,4-11.3,0-15.9C809.8,522.2,792.3,501.9,774.8,481.6z"/>
	<path d="M927.7,408.2c-26.5-3.9-53-7.7-79.4-11.6c-6-0.9-12.1,1.5-13.8,7.8c-1.5,5.3,1.8,12.9,7.8,13.8c26.5,3.9,53,7.7,79.4,11.6
		c6,0.9,12.1-1.5,13.8-7.8C937,416.7,933.7,409.1,927.7,408.2z"/>
	<path d="M801.4,293.5c22.1-15.1,44.2-30.2,66.3-45.2c5-3.4,7.2-9.9,4-15.4c-2.9-5-10.3-7.5-15.4-4c-22.1,15.1-44.2,30.2-66.3,45.2
		c-5,3.4-7.2,9.9-4,15.4C789,294.4,796.4,296.9,801.4,293.5z"/>
	<path d="M626.1,218.9c1.3,5.9,8.2,9.4,13.8,7.8c6.1-1.7,9.2-7.9,7.8-13.8c-5.8-26.1-11.6-52.2-17.4-78.4c-1.3-5.9-8.2-9.4-13.8-7.8
		c-6.1,1.7-9.2,7.9-7.8,13.8C614.5,166.7,620.3,192.8,626.1,218.9z"/>
	<path d="M531,340.1c1.5-5.5-1.9-12.7-7.8-13.8c-26.3-5-52.6-9.9-78.9-14.9c-6-1.1-12.1,1.7-13.8,7.8c-1.5,5.5,1.9,12.7,7.8,13.8
		c26.3,5,52.6,9.9,78.9,14.9C523.2,349,529.3,346.2,531,340.1z"/>
</g>
</svg>
