<svg xmlns="http://www.w3.org/2000/svg" viewBox="0 0 200 100"><path d="M83.4,58.29c.32,0,.64,0,1,0q53.79,0,107.58,0c.94,0,1.29.17,1.22,1.19-.11,1.41,0,2.84,0,4.27,0,.56-.18.76-.72.7a5.12,5.12,0,0,0-.68,0H85.33c-.64,0-1.28,0-1.93-.07-.06-.07-.15-.13-.16-.23a23.07,23.07,0,0,1,0-5.57C83.24,58.43,83.34,58.36,83.4,58.29Z" style="fill:#e83d46"/><path d="M83.4,58.29v6c-.57,0-1.15,0-1.73,0l-74,0c-.65,0-.9-.12-.87-.83,0-1.55,0-3.1,0-4.66,0-.51.15-.7.66-.65s.84,0,1.26,0H82.52Z" style="fill:#1a5c98"/><path d="M24.16,29.12c-.38.36-.62.57-.84.79q-4.63,4.64-9.26,9.26a3.9,3.9,0,0,1-2.71.4.44.44,0,0,1-.18-.2,3.14,3.14,0,0,1,.51-2.87q4.8-4.8,9.61-9.6a6.08,6.08,0,0,1,.75-.59c-.34-.42-.65-.28-.91-.29-3.08,0-6.15,0-9.22,0-.76,0-1-.23-.89-.93a11.24,11.24,0,0,0,0-1.74c0-.53.2-.66.69-.66H26.82c.52,0,.65.2.65.68q0,7.77,0,15.53c0,.55-.18.7-.72.72-2.59.1-2.59.11-2.59-2.44Z" style="fill:#fefefe"/><path d="M74.37,35.74c0,1.17,0,2.33,0,3.5,0,.41,0,.7-.54.84a17,17,0,0,1-7.39.56,7.38,7.38,0,0,1-6.52-7,11.14,11.14,0,0,1,.86-6.34A7.92,7.92,0,0,1,67.45,23a13.27,13.27,0,0,1,6,.67c.39.14.84.26.43.76s0,1.5-1.15,1.08a10.24,10.24,0,0,0-5.89-.59,6.14,6.14,0,0,0-4.78,5.76,11,11,0,0,0,.09,3.09A5.84,5.84,0,0,0,68,39a15.11,15.11,0,0,0,3.67-.27c.46-.08.64-.25.63-.74q0-2,0-4.08c0-.53-.12-.74-.69-.71-.87.05-1.75,0-2.62,0s-.62-.46-.61-.89-.18-.91.6-.89c1.55,0,3.1,0,4.66,0,.55,0,.72.16.71.72,0,1.19,0,2.39,0,3.58Z" style="fill:#fefefe"/><path d="M47.11,31.8c0-2.62,0-5.24,0-7.86,0-.58.07-.86.77-.85,2.75,0,5.5.05,8.25,0,.81,0,.76.39.77,1s0,.86-.75.84c-2.07-.05-4.14,0-6.21,0-.53,0-.74.11-.73.69,0,1.42,0,2.84,0,4.27,0,.56.17.7.71.69,1.91,0,3.82,0,5.73,0,.76,0,.8.31.82.91s-.13.9-.84.88c-1.85,0-3.69,0-5.54,0-.64,0-.91.1-.88.82.06,1.69,0,3.37,0,5.05,0,.6.16.77.76.76,2,0,4.08,0,6.11,0,.71,0,.85.21.85.86s-.1,1-.89.93c-2.65-.07-5.31,0-8,0-.73,0-1-.13-1-.94C47.15,37,47.11,34.42,47.11,31.8Z" style="fill:#fefefe"/><path d="M178.41,31.64c0-2.62,0-5.24,0-7.86,0-.64.12-.9.84-.89q4.08.06,8.15,0c.62,0,.86.13.81.8s0,1-.83,1c-2-.07-4,0-6,0-.7,0-.86.21-.84.87.05,1.33.05,2.65,0,4,0,.62.15.83.8.82,1.87,0,3.75,0,5.63,0,.74,0,.82.28.82.9s-.13.91-.84.89c-1.84-.06-3.69,0-5.53,0-.65,0-.91.11-.88.83.05,1.68,0,3.37,0,5,0,.6.16.77.76.76,2,0,4.07,0,6.11,0,.88,0,.76.44.82,1s-.23.79-.82.78c-2.69,0-5.37,0-8.06,0-.71,0-.93-.16-.92-.91C178.44,36.88,178.41,34.26,178.41,31.64Z" style="fill:#fefefe"/><path d="M88.92,40.78a11.62,11.62,0,0,1-4-.53c-.47-.17-.88-1.75-.53-2.06s.49.05.71.12a11.24,11.24,0,0,0,5.63.54,2.73,2.73,0,0,0,2.45-2.26,2.57,2.57,0,0,0-1.56-3c-.85-.45-1.78-.77-2.67-1.15-.56-.24-1.14-.45-1.67-.74a4.66,4.66,0,0,1-2.66-5.38A4.58,4.58,0,0,1,88.85,23a12.64,12.64,0,0,1,5.45.62c.74.25.45.65.27,1s0,1.15-.92.81a8.45,8.45,0,0,0-4.84-.58,2.47,2.47,0,0,0-2.18,2,2.68,2.68,0,0,0,1.38,3A20.87,20.87,0,0,0,90.84,31c.72.3,1.43.61,2.11,1a4.18,4.18,0,0,1,2.33,4.32,4.28,4.28,0,0,1-2.71,3.81A7.53,7.53,0,0,1,88.92,40.78Z" style="fill:#fefefe"/><path d="M104.41,32.72c0,2.36,0,4.72,0,7.08,0,.77-.32.85-.92.79s-1.21.26-1.2-.81c0-4.66,0-9.32,0-14,0-.73-.15-1-.94-1-1.33.07-2.66,0-4,0-.77,0-.63-.45-.61-.88s-.22-.91.58-.9q6,0,11.94,0c.84,0,.62.5.65.95s0,.86-.68.83c-1.33-.06-2.66,0-4,0-.71,0-.95.13-.93.89C104.44,28.06,104.41,30.39,104.41,32.72Z" style="fill:#fefefe"/><path d="M170.25,32.63c0,2.23,0,4.46,0,6.69,0,.78-.09,1.14-1,1.11s-1.08-.21-1.08-1.08c.05-4.55,0-9.11.05-13.67,0-.89-.25-1.09-1.08-1-1.29.07-2.59,0-3.88,0-.77,0-.62-.46-.61-.88s-.18-.9.6-.9c4,0,7.95,0,11.93,0,.83,0,.61.52.65,1s0,.84-.7.81c-1.36-.05-2.72,0-4.07,0-.64,0-.83.17-.82.81C170.28,27.84,170.25,30.24,170.25,32.63Z" style="fill:#fefefe"/><path d="M78.57,31.74c0-2.62.05-5.24,0-7.85,0-1,.59-.77,1.12-.78s1-.19,1,.75q-.08,8,0,16c0,1.07-.66.67-1.15.73s-1,.07-1-.8C78.62,37.1,78.57,34.42,78.57,31.74Z" style="fill:#fefefe"/><path d="M178.44,50.17c0-1,0-2.07,0-3.1,0-.5.14-.69.66-.67,1,0,2,0,3,0,.28,0,.61-.08.6.4s-.35.37-.61.37c-.46,0-.91,0-1.36,0-1.37,0-1.31,0-1.39,1.37-.05.9.14,1.33,1.13,1.16a6.77,6.77,0,0,1,1.35,0c.29,0,.7-.16.68.4s-.45.35-.72.36a17,17,0,0,1-1.75,0c-.46,0-.67.07-.69.62-.06,2.11-.08,2.08,2,2.13.44,0,1.3-.44,1.29.4s-.84.32-1.26.33c-1,0-2.23.45-2.77-.19s-.14-1.79-.16-2.72C178.43,50.76,178.44,50.47,178.44,50.17Z" style="fill:#fefefe"/><path d="M72.2,50.2c0-1,0-2.07,0-3.11,0-.46.07-.71.63-.69,1,0,2.07,0,3.1,0,.26,0,.52,0,.53.37s-.22.41-.5.41c-.75,0-1.49,0-2.23,0-.45,0-.61.1-.63.59-.08,1.94-.1,1.91,1.88,2,.41,0,1.23-.44,1.22.36s-.81.35-1.23.37c-1.87.05-1.82,0-1.87,1.87,0,.77.23.94.92.88s1.3,0,1.94,0c.29,0,.5,0,.5.4s-.27.38-.53.38c-1.06,0-2.13,0-3.2,0-.46,0-.53-.2-.53-.59C72.21,52.34,72.2,51.27,72.2,50.2Z" style="fill:#fefefe"/><path d="M11.8,53.05a6.43,6.43,0,0,0,2.38.35c.69-.08,1.27-.34,1.4-1.11a1.25,1.25,0,0,0-.89-1.43c-.56-.25-1.14-.46-1.68-.74a2,2,0,0,1-1.19-2.23,2,2,0,0,1,1.8-1.63,4.83,4.83,0,0,1,2.2.19c.27.07.5.18.36.54s-.26.37-.58.24A3.48,3.48,0,0,0,13.88,47c-.57.08-1.06.31-1.16,1a1.21,1.21,0,0,0,.69,1.37c.61.29,1.24.53,1.86.82a2,2,0,0,1,1.19,2.2,2,2,0,0,1-1.65,1.68,5.71,5.71,0,0,1-2.4,0C11.78,54,11.56,53.67,11.8,53.05Z" style="fill:#fefefe"/><path d="M172.22,53.06a7.63,7.63,0,0,0,2.17.35c.76,0,1.44-.23,1.62-1.09s-.37-1.24-1-1.54-1.14-.46-1.68-.74a2,2,0,0,1-1-2.12,1.85,1.85,0,0,1,1.58-1.61,4.85,4.85,0,0,1,2.48.16c.23.07.41.19.3.49s-.21.42-.56.29a3.31,3.31,0,0,0-1.62-.25c-.62.06-1.15.26-1.28,1a1.21,1.21,0,0,0,.75,1.42c.61.29,1.24.54,1.85.83a1.89,1.89,0,0,1,1.13,2.14A1.92,1.92,0,0,1,175.36,54a5.49,5.49,0,0,1-2.58,0C172.17,53.94,172,53.62,172.22,53.06Z" style="fill:#fefefe"/><path d="M22.61,51.26c0,.74,0,1.49,0,2.23,0,.47-.4.68-.55.45-.42-.67-.68-.19-1,0a2.07,2.07,0,0,1-3.21-1.81c0-1,0-2.07,0-3.1,0-.31-.08-.66.44-.68s.46.32.46.65v3c0,.77.26,1.32,1.12,1.41a1.5,1.5,0,0,0,1.79-1.1A16.42,16.42,0,0,0,21.77,49c0-.3-.1-.67.43-.66s.39.4.4.68C22.62,49.77,22.61,50.52,22.61,51.26Z" style="fill:#fefefe"/><path d="M62.78,51.15c0-.77,0-1.55,0-2.32,0-.18-.05-.42.22-.45s.41,0,.43.09c.19.67.44.24.71.08a2.07,2.07,0,0,1,3.38,1.75c0,1,0,2,0,3,0,.29.13.67-.41.69s-.43-.35-.43-.65c0-1,0-1.94,0-2.91,0-.78-.22-1.41-1.15-1.49a1.51,1.51,0,0,0-1.81,1.21A18.59,18.59,0,0,0,63.59,53c0,.33.34,1-.42.93s-.34-.64-.37-1A16.09,16.09,0,0,1,62.78,51.15Z" style="fill:#fefefe"/><path d="M146.88,51.18V48.85c0-.17-.07-.41.2-.47s.44-.07.5.15c.14.51.3.25.56.09,1.75-1.13,3.42-.29,3.48,1.75,0,1,0,2.06,0,3.1,0,.35-.09.54-.49.52s-.37-.27-.37-.53c0-1,0-2,0-3,0-.77-.19-1.42-1.12-1.52a1.52,1.52,0,0,0-1.85,1.28,18.84,18.84,0,0,0-.1,3.19c0,.28.06.58-.41.58s-.42-.29-.42-.58Z" style="fill:#fefefe"/><path d="M42.19,51.17V48.84c0-.18-.06-.42.21-.46s.42,0,.43.08c.18.64.42.28.71.1a2.07,2.07,0,0,1,3.39,1.72c0,1,0,2.07,0,3.1,0,.28.07.59-.39.61s-.45-.32-.45-.64c0-1,0-2,0-3,0-.75-.26-1.35-1.14-1.41s-1.54.16-1.79,1.1A17.13,17.13,0,0,0,43,53.32c0,.29.14.68-.42.67s-.39-.41-.39-.69C42.18,52.59,42.19,51.88,42.19,51.17Z" style="fill:#fefefe"/><path d="M79.55,54.16A3.69,3.69,0,0,1,78.16,54c-.38-.07-.45-.33-.39-.65.08-.52.4-.15.57-.1a4.06,4.06,0,0,0,1.73.13c.37-.07.77-.19.84-.67a.81.81,0,0,0-.56-.91l-1.59-.71a1.46,1.46,0,0,1-1-1.59c.1-.76.65-1.05,1.31-1.24a3.77,3.77,0,0,1,2.18.15c.19.06.45.15.28.48s-.23.36-.52.27A3.4,3.4,0,0,0,79.4,49c-.36.06-.72.16-.81.58s.2.66.53.82.95.4,1.42.61c.76.33,1.37.8,1.24,1.74s-.86,1.3-1.71,1.45A3,3,0,0,1,79.55,54.16Z" style="fill:#fefefe"/><path d="M35.34,48.33c-.7,1.84-1.37,3.51-2,5.2-.14.39-.37.45-.72.47s-.56-.21-.68-.53c-.63-1.66-1.26-3.31-1.9-5,.61-.37.9-.11,1.1.48.46,1.34,1,2.66,1.5,4.12a22.83,22.83,0,0,1,1-2.69C34.07,49.69,33.74,48.37,35.34,48.33Z" style="fill:#fefefe"/><path d="M127.3,51.5c0-.52,0-1,0-1.55s.08-1-.65-.83c-.11,0-.27,0-.32-.14a.28.28,0,0,1,.23-.36c.77-.08.71-.64.78-1.2a1.73,1.73,0,0,1,2.32-1.52c.2.06.58,0,.45.44s-.26.37-.57.3c-.6-.11-1.11,0-1.29.69s-.21,1.17.75,1c.23,0,.6-.17.63.33s-.37.46-.65.42c-.72-.09-.87.23-.84.88.05,1.06,0,2.13,0,3.2,0,.3.21.76-.4.79s-.42-.44-.44-.74C127.28,52.66,127.3,52.08,127.3,51.5Z" style="fill:#fefefe"/><path d="M49.38,51.24c0,1.77.75,2.38,2.5,2.06.21,0,.51-.31.61.14s-.14.5-.45.62a2.55,2.55,0,0,1-3.45-1.83,3.37,3.37,0,0,1,.73-3.43A2.65,2.65,0,0,1,52,48.29c.23.06.56,0,.46.45s-.29.38-.65.32C50.05,48.75,49.36,49.37,49.38,51.24Z" style="fill:#fefefe"/><path d="M83.76,51.27c0,1.76.75,2.34,2.53,2,.2,0,.51-.3.59.17,0,.31-.11.45-.39.57A2.61,2.61,0,0,1,83,52.4c-.58-2,.19-3.79,1.82-4.17a3.46,3.46,0,0,1,1.72.08c.25.07.42.15.32.45s-.17.43-.47.34c0,0-.06,0-.1,0C84.34,48.84,83.73,49.36,83.76,51.27Z" style="fill:#fefefe"/><path d="M153.14,51.23c0-2.33,1.58-3.62,3.63-2.94.26.09.52.12.4.5s-.28.37-.59.28c-.86-.26-1.75-.27-2.21.63a3.07,3.07,0,0,0,.07,3.06c.48.78,1.29.72,2.09.56.21,0,.51-.33.64.07s-.13.56-.49.68C154.76,54.71,153.15,53.44,153.14,51.23Z" style="fill:#fefefe"/><path d="M167.93,50v3.39c0,.32.07.66-.46.64s-.39-.33-.39-.6v-7c0-.29-.06-.59.4-.6s.44.35.44.66C167.93,47.64,167.93,48.8,167.93,50Z" style="fill:#fefefe"/><path d="M95.48,50c0,1.13,0,2.25,0,3.38,0,.3.11.67-.43.66s-.41-.31-.41-.59v-7c0-.27-.07-.59.39-.61s.46.33.46.64Z" style="fill:#fefefe"/><path d="M117.7,49.11a2.15,2.15,0,0,1,1.78-1c.26,0,.53,0,.5.38s-.16.38-.48.41a1.79,1.79,0,0,0-1.89,2c0,.74,0,1.49,0,2.23,0,.31.28.85-.43.83s-.37-.51-.38-.79c0-1.32,0-2.65,0-4,0-.29-.27-.76.29-.86S117.41,48.88,117.7,49.11Z" style="fill:#fefefe"/><path d="M137.48,49.12a2.28,2.28,0,0,1,1.79-1c.25,0,.54-.06.52.36s-.13.4-.47.43a1.81,1.81,0,0,0-1.9,2c0,.81,0,1.62,0,2.42,0,.3,0,.58-.42.57s-.4-.32-.4-.6c0-1.38,0-2.77,0-4.15,0-.3-.27-.77.28-.87S137.23,48.87,137.48,49.12Z" style="fill:#fefefe"/><path d="M104.1,49.12a2.15,2.15,0,0,1,1.7-1c.23,0,.57-.11.58.3s-.11.47-.5.5a1.78,1.78,0,0,0-1.87,2c0,.84,0,1.68,0,2.52,0,.26,0,.51-.36.53s-.47-.2-.47-.54c0-1.41,0-2.83,0-4.25,0-.28-.22-.7.23-.83S103.81,48.88,104.1,49.12Z" style="fill:#fefefe"/><path d="M159.38,51.2c0,.77,0,1.54,0,2.32,0,.31-.08.47-.43.47s-.42-.19-.42-.48c0-1.55,0-3.09,0-4.64,0-.27,0-.51.38-.52s.48.19.47.53C159.37,49.65,159.38,50.43,159.38,51.2Z" style="fill:#fefefe"/><path d="M57.88,47.66c.87-1.89.87-1.89,2-1.74C59.36,46.62,59,47.42,57.88,47.66Z" style="fill:#fefefe"/><path d="M54.3,46.21a.52.52,0,0,1,.47.6c0,.31-.15.58-.5.57s-.55-.29-.52-.64A.5.5,0,0,1,54.3,46.21Z" style="fill:#fff"/><path d="M159.48,46.76c0,.34-.16.61-.51.62s-.56-.28-.53-.63.17-.56.53-.54S159.43,46.49,159.48,46.76Z" style="fill:#fff"/><path d="M142,26.94c-1.5-3.08-4.84-4.58-8.62-4a7,7,0,0,0-5.81,4.53,12.56,12.56,0,0,0-.7,4.86,10.33,10.33,0,0,0,1,4.42c1.57,3.11,4.28,4.07,7.57,4a7.24,7.24,0,0,0,6.91-4.86,11.08,11.08,0,0,0,.62-3.12A11.57,11.57,0,0,0,142,26.94ZM140,36a5,5,0,0,1-4.9,3c-2.33,0-4.26-.74-5.22-3a10.27,10.27,0,0,1,0-8.39c.92-2.15,3-3.14,5.71-2.95a5.06,5.06,0,0,1,4.74,3.8,10.23,10.23,0,0,1,.43,3.31A9.83,9.83,0,0,1,140,36Z" style="fill:#fefefe"/><path d="M40.05,33.56c-.3-.48-.43-.72.25-1,2.29-1.1,3.12-2.91,2.7-5.62-.31-2-1.68-3.25-4.09-3.64a54.76,54.76,0,0,0-6-.17c-.76-.05-1,.19-1,.95,0,5.05,0,10.1,0,15.15,0,1.45,0,1.43,1.46,1.41.5,0,.67-.14.66-.65,0-1.23,0-2.46,0-3.69,0-.93-.41-2.18.17-2.7s1.85-.1,2.82-.17a.88.88,0,0,1,.9.54c.95,1.65,2.07,3.23,2.85,5A2.61,2.61,0,0,0,44,40.58l.31-.08C42.85,38.13,41.46,35.83,40.05,33.56Zm-5.63-1.91c-.42,0-.35-.3-.35-.55V28.2c0-.91,0-1.81,0-2.72,0-.41,0-.66.56-.64a22.66,22.66,0,0,1,3.86.21,2.76,2.76,0,0,1,2.46,2.88,3,3,0,0,1-2.1,3.4A15,15,0,0,1,34.42,31.65Z" style="fill:#fefefe"/><path d="M120.67,33.6c-.34-.55-.41-.79.28-1.11,2.23-1.05,3.06-2.87,2.66-5.56-.29-2-1.67-3.28-4-3.66a53.67,53.67,0,0,0-6.59-.17c-.48,0-.5.25-.5.61,0,5.41,0,10.81,0,16.22,0,1.1.78.56,1.24.64s.92.12.89-.68c-.06-1.91,0-3.82,0-5.73,0-.56.09-.83.73-.78a15.09,15.09,0,0,0,2.23,0,.93.93,0,0,1,1,.59c.93,1.63,2,3.17,2.81,4.87a2.57,2.57,0,0,0,3.47,1.61C123.47,38.15,122.09,35.86,120.67,33.6Zm-5.56-2c-.45,0-.44-.25-.44-.56,0-1,0-1.94,0-2.91,0-.8.06-1.62,0-2.42s.25-1,1-.92a22.38,22.38,0,0,1,3.47.21,2.76,2.76,0,0,1,2.44,2.9,3,3,0,0,1-2.11,3.39A15.31,15.31,0,0,1,115.11,31.65Z" style="fill:#fefefe"/><path d="M162.09,39.52Q159,31.6,155.87,23.67c-.22-.58-.48-.81-1.1-.78s-1,.05-1.31.78c-1.43,3.77-2.94,7.51-4.42,11.26-.71,1.79-1.41,3.58-2.16,5.46a5.08,5.08,0,0,1,.89,0c1,.19,1.42-.26,1.7-1.18.39-1.29,1-2.53,1.41-3.8a.88.88,0,0,1,1-.68c1.84,0,3.69,0,5.53,0a.85.85,0,0,1,1,.69c.53,1.46,1.11,2.9,1.67,4.34.11.29.16.64.61.62s1.12,0,1.76,0C162.26,40,162.18,39.76,162.09,39.52ZM151.93,33c.81-2.52,2-4.87,2.69-7.56l2.8,7.56Z" style="fill:#fefdfd"/><path d="M29.31,50.66c-.29-2.4-2.07-3.22-4.16-1.78V46.46c0-.32.06-.67-.46-.64s-.36.37-.37.63c0,2.29,0,4.58,0,6.87,0,.23-.15.55.22.65s.35-.13.48-.33c.26-.42.41,0,.57.14a2.29,2.29,0,0,0,3.62-1.59A4.9,4.9,0,0,0,29.31,50.66Zm-.88.34c0,1.73-.61,2.5-1.8,2.4a1.33,1.33,0,0,1-1.22-.81,3.85,3.85,0,0,1,0-2.85,1.35,1.35,0,0,1,1.41-.81,1.42,1.42,0,0,1,1.4.85A2.54,2.54,0,0,1,28.43,51Z" style="fill:#fdfdfd"/><path d="M189.09,48.39a1.91,1.91,0,0,0-1.66-1.85,14,14,0,0,0-2.5-.14c-.51,0-.69.14-.67.65,0,1.07,0,2.13,0,3.2s0,2.13,0,3.19c0,.33.05.55.47.56s.46-.22.45-.54c0-.62,0-1.23,0-1.84,0-.42.12-.59.55-.55a4.53,4.53,0,0,0,1.9-.23A2.2,2.2,0,0,0,189.09,48.39ZM186,50.29c-.86,0-.86,0-.86-1.64.24-.47-.6-1.57.89-1.48s2.13.51,2.13,1.53S187.51,50.29,186,50.29Z" style="fill:#fdfdfd"/><path d="M113.61,46.53a14.91,14.91,0,0,0-2.5-.13c-.51,0-.68.15-.66.66,0,1,0,2.06,0,3.1v3.29c0,.33.06.54.47.55s.45-.23.44-.55c0-.61,0-1.23,0-1.84,0-.43.14-.58.56-.54a4.38,4.38,0,0,0,1.9-.24,2.18,2.18,0,0,0,1.47-2.35A1.94,1.94,0,0,0,113.61,46.53Zm-1.42,3.78c-1.52,0-.5-1.11-.86-1.59.21-.62-.48-1.66,1-1.55s2.12.53,2.09,1.57S113.67,50.26,112.19,50.31Z" style="fill:#fdfdfd"/><path d="M124.24,48.39a2.34,2.34,0,0,0-2.88.65,3.82,3.82,0,0,0-.16,4,3,3,0,0,0,3.49.94c.36-.11.76-.23.6-.69s-.53-.09-.77,0c-1.26.28-2.18.07-2.62-.68a1.08,1.08,0,0,1-.21-1c.15-.29.53-.11.8-.13s.71,0,1.07,0h1.55c.25,0,.4,0,.45-.35A2.78,2.78,0,0,0,124.24,48.39Zm.31,2.08c-.12.44-.6.14-.91.21a2.81,2.81,0,0,1-.58,0,2.54,2.54,0,0,1-.39,0c-.32-.06-.81.21-1-.16a1.13,1.13,0,0,1,.47-1.19A1.39,1.39,0,0,1,124,49.2,1.15,1.15,0,0,1,124.55,50.47Z" style="fill:#fcfcfc"/><path d="M144.2,48.46a2.4,2.4,0,0,0-2.93.45A3.84,3.84,0,0,0,141,53a2.93,2.93,0,0,0,3.36,1c.41-.11,1-.18.76-.75s-.59-.05-.88,0c-1.27.25-2.15,0-2.56-.82s-.25-1,.58-1h2.63c.2,0,.42.06.51-.28A3.07,3.07,0,0,0,144.2,48.46Zm.17,2c-.11.52-.64.16-1,.25a1.93,1.93,0,0,1-.48,0,2.57,2.57,0,0,1-.48,0c-.32-.07-.78.23-.93-.2a1.11,1.11,0,0,1,.39-1,1.4,1.4,0,0,1,1.83-.31A1.17,1.17,0,0,1,144.37,50.43Z" style="fill:#fcfcfc"/><path d="M133.78,48.39a2.37,2.37,0,0,0-2.89.63,3.87,3.87,0,0,0-.19,4,3,3,0,0,0,3.48,1c.36-.11.77-.21.64-.68s-.52-.11-.76-.06c-.95.16-1.88.31-2.58-.58a1.12,1.12,0,0,1-.27-1.09c.16-.34.58-.12.88-.15s.64,0,1,0h1.55c.23,0,.41,0,.47-.33A2.85,2.85,0,0,0,133.78,48.39Zm.3,2c-.08.66-.67.18-1,.31a1.54,1.54,0,0,1-.48,0,1.61,1.61,0,0,1-.38,0c-.34-.09-.87.25-1-.23a1.21,1.21,0,0,1,.54-1.17,1.4,1.4,0,0,1,1.54-.22A1.22,1.22,0,0,1,134.08,50.37Z" style="fill:#fcfcfc"/><path d="M39.51,48.46a2.39,2.39,0,0,0-2.93.45,3.87,3.87,0,0,0-.35,4,2.9,2.9,0,0,0,3.42,1.11c.4-.1,1-.17.75-.74s-.59-.05-.88,0c-1.26.25-2.15,0-2.56-.82s-.25-1,.59-1h2.62c.21,0,.42,0,.51-.29A3,3,0,0,0,39.51,48.46Zm.18,1.94c-.1.59-.63.17-.95.28a1.55,1.55,0,0,1-.48,0,3.74,3.74,0,0,1-.58,0c-.29,0-.7.2-.86-.17s.11-.68.31-1a1.45,1.45,0,0,1,2-.39A1.25,1.25,0,0,1,39.69,50.4Z" style="fill:#fcfcfc"/><path d="M90.5,48.16c-1.61,0-2.61,1.13-2.62,2.94s1,3.06,2.6,3.08,2.64-1.12,2.65-3S92.12,48.15,90.5,48.16Zm1.43,4.44a1.46,1.46,0,0,1-1.53.8A1.5,1.5,0,0,1,89,52.5a3.13,3.13,0,0,1-.23-1.42c0-1.51.73-2.3,2-2.14a1.43,1.43,0,0,1,1.16.76A3.25,3.25,0,0,1,91.93,52.6Z" style="fill:#fdfdfd"/><path d="M58.64,48.16c-1.61,0-2.6,1.13-2.61,3s1,3.06,2.6,3.07,2.64-1.1,2.64-3S60.28,48.15,58.64,48.16Zm1.68,3.76A1.6,1.6,0,0,1,58.6,53.4,1.63,1.63,0,0,1,57,51.8c0-.22,0-.45,0-.67,0-.79.08-1.57.9-2a1.66,1.66,0,0,1,2.43,1.08A3.57,3.57,0,0,1,60.32,51.92Z" style="fill:#fdfdfd"/><path d="M54.69,51.22V49c0-.31.09-.67-.45-.65s-.4.32-.4.6v4.44c0,.28-.07.59.4.6s.45-.33.45-.64Z" style="fill:#fdfdfd"/><path d="M101.47,53.05c0-1.1,0-2.2,0-3.3A1.58,1.58,0,0,0,100,48a3.12,3.12,0,0,0-1.71.2c-.25.11-.82.05-.59.65s.56.14.79.07a2.4,2.4,0,0,1,1.52-.07,1,1,0,0,1,.64,1.17c-.06.51-.5.23-.78.29a16.06,16.06,0,0,0-1.71.29,1.65,1.65,0,0,0-1.18,2A1.6,1.6,0,0,0,98.69,54a2.22,2.22,0,0,0,1.87-.9c.3.22.13.77.63.69S101.46,53.31,101.47,53.05Zm-2.54.35c-.7,0-1.11-.32-1.12-1s.76-1.28,2.2-1.29c.44-.08.65.09.63.62A1.65,1.65,0,0,1,98.93,53.4Z" style="fill:#fafafa"/><path d="M165.17,53.17c0-1.1,0-2.2,0-3.29a1.53,1.53,0,0,0-1.31-1.66,3.52,3.52,0,0,0-2.08.23c-.26.11-.59.15-.39.6s.41.18.63.11a2.62,2.62,0,0,1,1.61-.17,1,1,0,0,1,.72,1.14c0,.61-.53.3-.82.35a8.33,8.33,0,0,0-1.79.34,1.67,1.67,0,0,0-1.07,2,1.57,1.57,0,0,0,1.66,1.33,2.23,2.23,0,0,0,2-.92c.25.29.14.81.63.71S165.17,53.44,165.17,53.17Zm-.83-1.45a1.63,1.63,0,0,1-1.73,1.68c-.7,0-1.1-.35-1.09-1.07s.79-1.27,2.22-1.26C164.22,51,164.37,51.22,164.34,51.72Z" style="fill:#fafafa"/><path d="M15.5,75.2H15V71.75L13.85,74.1h-.31l-1.11-2.35V75.2h-.49v-4h.72l1.07,2.23,1-2.23h.74Z" style="fill:#fff"/><path d="M17.08,71.7h-.57v-.53h.57Zm0,3.5h-.5v-3H17Z" style="fill:#fff"/><path d="M20.55,75.2h-.5V73.49c0-.14,0-.27,0-.39a.84.84,0,0,0-.09-.28.42.42,0,0,0-.2-.17.93.93,0,0,0-.32-.05,1,1,0,0,0-.44.1,2.14,2.14,0,0,0-.43.26V75.2H18v-3h.51v.33a2,2,0,0,1,.49-.3,1.19,1.19,0,0,1,.52-.11.92.92,0,0,1,.74.29,1.24,1.24,0,0,1,.25.84Z" style="fill:#fff"/><path d="M22.07,71.7H21.5v-.53h.57Zm0,3.5h-.51v-3H22Z" style="fill:#fff"/><path d="M25.18,74.34a.81.81,0,0,1-.34.67,1.43,1.43,0,0,1-.93.26,2,2,0,0,1-.61-.08,2.64,2.64,0,0,1-.46-.17v-.57h0a2,2,0,0,0,.54.29,1.64,1.64,0,0,0,.56.11,1.09,1.09,0,0,0,.52-.11.38.38,0,0,0,.19-.34.34.34,0,0,0-.11-.27.82.82,0,0,0-.39-.15l-.28-.06-.31-.07a1,1,0,0,1-.57-.31.75.75,0,0,1-.16-.5.85.85,0,0,1,.08-.35.78.78,0,0,1,.23-.29,1.24,1.24,0,0,1,.38-.2,1.72,1.72,0,0,1,.52-.07,2.64,2.64,0,0,1,.55.06,2.56,2.56,0,0,1,.45.16v.54h0a2.29,2.29,0,0,0-.47-.24,1.83,1.83,0,0,0-.55-.1.92.92,0,0,0-.46.11.38.38,0,0,0-.08.6,1,1,0,0,0,.37.15l.31.06.29.06a1.16,1.16,0,0,1,.54.28A.72.72,0,0,1,25.18,74.34Z" style="fill:#fff"/><path d="M27.46,75.17l-.31.07-.3,0a.89.89,0,0,1-.69-.25,1.1,1.1,0,0,1-.24-.79v-1.6h-.35V72.2h.35v-.86h.5v.86h1v.42h-1V74c0,.16,0,.28,0,.37a.57.57,0,0,0,.08.25.41.41,0,0,0,.16.16.82.82,0,0,0,.32,0,1.18,1.18,0,0,0,.25,0l.2-.06h0Z" style="fill:#fff"/><path d="M30.59,73.75H28.38a1.15,1.15,0,0,0,.08.48.82.82,0,0,0,.23.34.91.91,0,0,0,.33.2,1.42,1.42,0,0,0,.42.06,1.71,1.71,0,0,0,.62-.12,1.43,1.43,0,0,0,.44-.24h0V75a5.34,5.34,0,0,1-.52.18,2.1,2.1,0,0,1-.56.07,1.61,1.61,0,0,1-1.17-.4,1.53,1.53,0,0,1-.42-1.15,1.69,1.69,0,0,1,.4-1.17,1.37,1.37,0,0,1,1.06-.43,1.2,1.2,0,0,1,.94.35,1.43,1.43,0,0,1,.33,1Zm-.49-.38a1,1,0,0,0-.2-.62.79.79,0,0,0-.61-.22.86.86,0,0,0-.64.24.93.93,0,0,0-.27.6Z" style="fill:#fff"/><path d="M33.23,72.75h0l-.22,0h-.25a1,1,0,0,0-.45.1,1.88,1.88,0,0,0-.42.27V75.2h-.51v-3h.51v.44a2.69,2.69,0,0,1,.53-.34,1.1,1.1,0,0,1,.47-.1h.19l.18,0Z" style="fill:#fff"/><path d="M34.24,71.7h-.57v-.53h.57Zm0,3.5h-.5v-3h.5Z" style="fill:#fff"/><path d="M37.77,73.7a1.64,1.64,0,0,1-.38,1.16,1.27,1.27,0,0,1-1,.42,1.3,1.3,0,0,1-1-.42A1.68,1.68,0,0,1,35,73.7a1.7,1.7,0,0,1,.37-1.16,1.3,1.3,0,0,1,1-.42,1.27,1.27,0,0,1,1,.42A1.66,1.66,0,0,1,37.77,73.7Zm-.52,0a1.39,1.39,0,0,0-.23-.87.86.86,0,0,0-1.27,0,1.74,1.74,0,0,0,0,1.73.84.84,0,0,0,1.27,0A1.38,1.38,0,0,0,37.25,73.7Z" style="fill:#fff"/><path d="M42.92,75.2h-.5v-.31a2.08,2.08,0,0,1-.46.29,1.22,1.22,0,0,1-.51.1,1,1,0,0,1-.85-.41,1.87,1.87,0,0,1-.32-1.15,2.06,2.06,0,0,1,.11-.68,1.43,1.43,0,0,1,.29-.5,1.31,1.31,0,0,1,.43-.32,1.24,1.24,0,0,1,.5-.1,1.34,1.34,0,0,1,.42,0,1.93,1.93,0,0,1,.39.15V71h.5Zm-.5-.74V72.74a2.78,2.78,0,0,0-.37-.13,1.9,1.9,0,0,0-.35,0,.82.82,0,0,0-.66.29,1.31,1.31,0,0,0-.24.84,1.53,1.53,0,0,0,.18.82.67.67,0,0,0,.59.27,1.19,1.19,0,0,0,.44-.09A2.5,2.5,0,0,0,42.42,74.46Z" style="fill:#fff"/><path d="M46.43,73.75H44.22a1.34,1.34,0,0,0,.08.48.93.93,0,0,0,.23.34.91.91,0,0,0,.33.2,1.42,1.42,0,0,0,.42.06,1.71,1.71,0,0,0,.62-.12,1.32,1.32,0,0,0,.44-.24h0V75a4.56,4.56,0,0,1-.52.18,2,2,0,0,1-.56.07,1.61,1.61,0,0,1-1.17-.4,1.53,1.53,0,0,1-.42-1.15,1.65,1.65,0,0,1,.41-1.17,1.35,1.35,0,0,1,1-.43,1.2,1.2,0,0,1,.94.35,1.43,1.43,0,0,1,.33,1Zm-.49-.38a.91.91,0,0,0-.2-.62.75.75,0,0,0-.6-.22.88.88,0,0,0-.65.24.93.93,0,0,0-.27.6Z" style="fill:#fff"/><path d="M51.81,75.2H49.17v-4h2.64v.47H49.7v1.1h2.11v.47H49.7v1.49h2.11Z" style="fill:#fff"/><path d="M55.05,75.2h-.51v-.31a2,2,0,0,1-.45.29,1.27,1.27,0,0,1-.52.1,1,1,0,0,1-.85-.41,1.87,1.87,0,0,1-.32-1.15,2.06,2.06,0,0,1,.11-.68,1.45,1.45,0,0,1,.3-.5,1.18,1.18,0,0,1,.42-.32,1.29,1.29,0,0,1,.51-.1,1.42,1.42,0,0,1,.42,0,1.66,1.66,0,0,1,.38.15V71h.51Zm-.51-.74V72.74l-.36-.13a2,2,0,0,0-.36,0,.82.82,0,0,0-.66.29,1.31,1.31,0,0,0-.23.84,1.53,1.53,0,0,0,.18.82.65.65,0,0,0,.58.27,1.15,1.15,0,0,0,.44-.09A2.14,2.14,0,0,0,54.54,74.46Z" style="fill:#fff"/><path d="M58.53,75.2H58v-.33a2.47,2.47,0,0,1-.49.31,1.19,1.19,0,0,1-.51.1,1,1,0,0,1-.74-.28,1.27,1.27,0,0,1-.26-.85v-2h.5v1.71a2.21,2.21,0,0,0,0,.39.62.62,0,0,0,.09.28.48.48,0,0,0,.18.17.79.79,0,0,0,.34,0,1.06,1.06,0,0,0,.43-.1,1.9,1.9,0,0,0,.43-.26V72.2h.51Z" style="fill:#fff"/><path d="M61.74,75a3,3,0,0,1-.48.19,1.51,1.51,0,0,1-.48.07,1.68,1.68,0,0,1-.6-.1,1.16,1.16,0,0,1-.46-.29,1.31,1.31,0,0,1-.3-.48,1.87,1.87,0,0,1-.11-.7,1.58,1.58,0,0,1,.4-1.15,1.42,1.42,0,0,1,1.07-.42,1.79,1.79,0,0,1,.51.07,3,3,0,0,1,.45.18v.56h0a2.39,2.39,0,0,0-.48-.28,1.36,1.36,0,0,0-.48-.09.83.83,0,0,0-.68.29,1.28,1.28,0,0,0-.25.84,1.24,1.24,0,0,0,.25.84.85.85,0,0,0,.68.29,1.1,1.1,0,0,0,.31,0l.29-.1.2-.12.16-.11h0Z" style="fill:#fff"/><path d="M64.72,75.2h-.5v-.32L64,75a1.79,1.79,0,0,1-.22.13l-.29.1a1.51,1.51,0,0,1-.39,0,1,1,0,0,1-.68-.26,1,1,0,0,1-.14-1.24,1,1,0,0,1,.42-.33,2.27,2.27,0,0,1,.66-.17c.25,0,.53,0,.82-.06v-.08a.65.65,0,0,0-.06-.29.46.46,0,0,0-.17-.17.88.88,0,0,0-.26-.09l-.32,0a2.47,2.47,0,0,0-.44.05,3.6,3.6,0,0,0-.5.16h0v-.52l.43-.08a2.56,2.56,0,0,1,.55-.05,2.29,2.29,0,0,1,.55.05,1,1,0,0,1,.41.18.72.72,0,0,1,.25.32,1.14,1.14,0,0,1,.09.48Zm-.5-.74v-.83l-.54,0a2.59,2.59,0,0,0-.5.07.92.92,0,0,0-.35.2.46.46,0,0,0-.14.36.47.47,0,0,0,.16.38.71.71,0,0,0,.48.13,1.09,1.09,0,0,0,.48-.1A1.87,1.87,0,0,0,64.22,74.46Z" style="fill:#fff"/><path d="M67.92,75a3,3,0,0,1-.48.19,1.57,1.57,0,0,1-.49.07,1.63,1.63,0,0,1-.59-.1,1.2,1.2,0,0,1-.47-.29,1.31,1.31,0,0,1-.3-.48,2.1,2.1,0,0,1-.11-.7,1.58,1.58,0,0,1,.41-1.15A1.4,1.4,0,0,1,67,72.13a1.75,1.75,0,0,1,.51.07,2.75,2.75,0,0,1,.46.18v.56h0a1.94,1.94,0,0,0-.48-.28,1.36,1.36,0,0,0-.48-.09.84.84,0,0,0-.68.29,1.28,1.28,0,0,0-.24.84,1.29,1.29,0,0,0,.24.84.85.85,0,0,0,.68.29,1.1,1.1,0,0,0,.31,0l.29-.1.21-.12.15-.11h0Z" style="fill:#fff"/><path d="M69.11,71.7h-.57v-.53h.57Zm0,3.5h-.5v-3h.5Z" style="fill:#fff"/><path d="M72.63,73.7a1.68,1.68,0,0,1-.37,1.16,1.29,1.29,0,0,1-1,.42,1.28,1.28,0,0,1-1-.42,1.69,1.69,0,0,1-.38-1.16,1.71,1.71,0,0,1,.38-1.16,1.28,1.28,0,0,1,1-.42,1.29,1.29,0,0,1,1,.42A1.7,1.7,0,0,1,72.63,73.7Zm-.52,0a1.33,1.33,0,0,0-.23-.87.86.86,0,0,0-1.27,0,1.74,1.74,0,0,0,0,1.73.78.78,0,0,0,.64.29.76.76,0,0,0,.63-.29A1.38,1.38,0,0,0,72.11,73.7Zm0-3-.73,1H71l.48-1Z" style="fill:#fff"/><path d="M75.92,75.2h-.5V73.49c0-.14,0-.27,0-.39a.84.84,0,0,0-.09-.28.42.42,0,0,0-.2-.17.93.93,0,0,0-.32-.05,1,1,0,0,0-.44.1,2.14,2.14,0,0,0-.43.26V75.2h-.51v-3h.51v.33a2,2,0,0,1,.49-.3,1.19,1.19,0,0,1,.52-.11.92.92,0,0,1,.74.29,1.24,1.24,0,0,1,.25.84Z" style="fill:#fff"/></svg>