<svg xmlns="http://www.w3.org/2000/svg" viewBox="0 0 47.1 20"><path d="M3.2,0A3.15,3.15,0,0,1,5.48.87h0L4.79,2a2.54,2.54,0,0,0-1.53-.63A1.67,1.67,0,0,0,1.54,3.15,1.75,1.75,0,0,0,3.26,5a2.45,2.45,0,0,0,1.62-.77l.77,1.11h0a3.33,3.33,0,0,1-2.45,1A3.09,3.09,0,0,1,0,3.18,3.12,3.12,0,0,1,3.2,0Z" style="fill:#fff"/><path d="M9.34,0a3.11,3.11,0,0,1,3.19,3.16A3.15,3.15,0,0,1,9.34,6.39a3.15,3.15,0,0,1-3.2-3.23A3.11,3.11,0,0,1,9.34,0Zm0,5A1.73,1.73,0,0,0,11,3.16a1.65,1.65,0,1,0-3.29,0A1.74,1.74,0,0,0,9.34,5Z" style="fill:#fff"/><path d="M13.51.12H15.1L16.87,3c.25.41.54,1,.54,1h0s-.07-.66-.07-1V.13h1.57V6.27H17.34L15.56,3.4a10,10,0,0,1-.53-1h0s.07.66.07,1V6.27H13.51V.12Z" style="fill:#fff"/><path d="M20.94,4.36h0A2.54,2.54,0,0,0,22.42,5c.31,0,.64-.12.64-.5,0-.73-2.77-.7-2.77-2.61A2,2,0,0,1,22.47,0a2.8,2.8,0,0,1,2,.7h0l-.64,1.23h0a2.31,2.31,0,0,0-1.36-.55c-.31,0-.66.14-.66.49,0,.77,2.78.64,2.78,2.59A2,2,0,0,1,22.4,6.39a3.18,3.18,0,0,1-2.25-.88h0Z" style="fill:#fff"/><path d="M25.55.12H29.6V1.41H27.14V2.53h2V3.82h-2V5h2.59V6.27H25.55V.12Z" style="fill:#fff"/><path d="M30.47,3.89H32v.34a.9.9,0,0,0,.13.52.49.49,0,0,0,.45.23c.32,0,.55-.21.55-.67v-3H31.44V0h3.2V4.35a2.09,2.09,0,0,1-4.17,0Z" style="fill:#fff"/><path d="M39.07,0a3.11,3.11,0,0,1,3.19,3.16,3.2,3.2,0,1,1-6.39,0A3.11,3.11,0,0,1,39.07,0Zm0,5a1.74,1.74,0,0,0,1.65-1.85,1.65,1.65,0,1,0-3.3,0A1.74,1.74,0,0,0,39.07,5Z" style="fill:#fff"/><path d="M.49,8.48h2.2A3.16,3.16,0,0,1,5.9,11.6a2.91,2.91,0,0,1-3.2,3H.49V8.48Zm2.14,4.85a1.59,1.59,0,0,0,1.7-1.79,1.58,1.58,0,0,0-1.7-1.77H2v3.56h.62Z" style="fill:#fff"/><path d="M6.39,8.48h4.05V9.76H8v1.11h2v1.29H8v1.16h2.6v1.29H6.39V8.48Z" style="fill:#fff"/><path d="M16.12,8.35a3,3,0,0,1,2.21.88h0l-.67,1.14h0a2.4,2.4,0,0,0-1.48-.63,1.63,1.63,0,0,0-1.66,1.76,1.72,1.72,0,0,0,1.66,1.86,2.35,2.35,0,0,0,1.57-.76h0l.75,1.1h0a3.19,3.19,0,0,1-2.38,1,3,3,0,0,1-3.1-3.2A3.08,3.08,0,0,1,16.12,8.35Z" style="fill:#fff"/><path d="M19.17,8.35h1.51v4a1,1,0,0,0,.84,1c.77.09,1.3-.26,1.3-1v-4h1.51v4a2.37,2.37,0,0,1-2.58,2.41,2.37,2.37,0,0,1-2.58-2.41v-4Z" style="fill:#fff"/><path d="M25.31,8.48h2.11a3.19,3.19,0,0,1,1.18.14,1.79,1.79,0,0,1,1.12,1.79,1.87,1.87,0,0,1-.91,1.68h0a2.56,2.56,0,0,1,.23.37l1.18,2.15H28.57l-1.08-2.07h-.7v2.07H25.31Zm2.13,2.78a.7.7,0,0,0,.77-.76c0-.46-.17-.73-.92-.73h-.5v1.49h.65Z" style="fill:#fff"/><path d="M31.51,12.71h0a2.49,2.49,0,0,0,1.47.64c.31,0,.65-.12.65-.49,0-.74-2.78-.71-2.78-2.61A2,2,0,0,1,33,8.35a2.84,2.84,0,0,1,2,.7h0l-.64,1.24h0A2.37,2.37,0,0,0,33,9.75c-.3,0-.65.13-.65.48,0,.78,2.78.64,2.78,2.59A2,2,0,0,1,33,14.74a3.18,3.18,0,0,1-2.25-.88h0Z" style="fill:#fff"/><path d="M39.07,8.35a3.11,3.11,0,0,1,3.19,3.16,3.2,3.2,0,1,1-6.39,0A3.11,3.11,0,0,1,39.07,8.35Zm0,5a1.74,1.74,0,0,0,1.65-1.85,1.65,1.65,0,1,0-3.3,0A1.74,1.74,0,0,0,39.07,13.36Z" style="fill:#fff"/><path d="M42.75,14.74h0A14.69,14.69,0,0,0,45,7a12.41,12.41,0,0,0-2.29-7h1.68a11.66,11.66,0,0,1,2.25,7,13.34,13.34,0,0,1-2.25,7.72H42.75Z" style="fill:#fff"/></svg>