<svg xmlns="http://www.w3.org/2000/svg" viewBox="0 0 150 100"><path d="M82.6,32.19a6.31,6.31,0,0,0-.94-.69.68.68,0,0,0-1,.09c-.45.5-.94,1-1.38,1.59-2.13,2.27-4.11,4.54-6.13,6.91-1.09-1-2.13-1.92-3.21-2.81s-1.44-1-2.52.1c-.55.54-.65.93-.2,1.58A26,26,0,0,0,69,41.38c1.18,1.48,2.32,3,3.51,4.5a.79.79,0,0,0,1.33,0c.1-.15.2-.25.3-.4l8.3-11.56a5.29,5.29,0,0,0,.34-.55A.85.85,0,0,0,82.6,32.19Z" style="fill:#fff"/><path d="M74.68,24.38A14.23,14.23,0,1,0,89.11,38.61,14.27,14.27,0,0,0,74.68,24.38Zm-.09,26.68a12.45,12.45,0,1,1,12.75-12.6A12.37,12.37,0,0,1,74.59,51.06Z" style="fill:#fff"/><path d="M96.12,38.86c-.49-.69-1-1.39-1.48-2a1.84,1.84,0,0,1-.2-1.88c.35-.79.69-1.58,1-2.37A2.71,2.71,0,0,0,94.1,29c-.74-.39-1.49-.74-2.23-1.08a1.83,1.83,0,0,1-1.18-1.63c0-.79-.15-1.63-.2-2.42a2.8,2.8,0,0,0-2.86-2.72c-.84.05-1.68.05-2.52.1a1.87,1.87,0,0,1-1.83-1l-1.34-2a2.7,2.7,0,0,0-3.85-.89c-.74.4-1.43.84-2.17,1.24a1.86,1.86,0,0,1-1.83,0c-.74-.4-1.48-.84-2.22-1.24A2.73,2.73,0,0,0,68,18.2c-.44.65-.89,1.34-1.33,2a1.79,1.79,0,0,1-1.88,1,11.76,11.76,0,0,0-1.17-.2H62.28a2.77,2.77,0,0,0-2.76,2.62c-.05.84-.1,1.63-.2,2.47a1.88,1.88,0,0,1-1.19,1.68c-.84.39-1.63.74-2.42,1.18a2.79,2.79,0,0,0-1.18,3.51c.34.79.64,1.63,1,2.43a1.91,1.91,0,0,1-.25,2c-.5.64-1,1.29-1.48,2a2.86,2.86,0,0,0,.49,3.9c.64.55,1.24,1.09,1.88,1.58a2,2,0,0,1,.74,2.08c-.1.89-.25,1.73-.35,2.57a2.7,2.7,0,0,0,2.23,3c.79.15,1.58.35,2.37.5a1.85,1.85,0,0,1,1.53,1.38c.25.79.54,1.53.79,2.32a2.7,2.7,0,0,0,3.36,1.88c.84-.2,1.63-.44,2.47-.69a1.82,1.82,0,0,1,2,.49l1.83,1.68a2.68,2.68,0,0,0,3.85,0c.6-.54,1.19-1.08,1.78-1.68a1.86,1.86,0,0,1,2.08-.54c.79.25,1.58.49,2.42.69a2.69,2.69,0,0,0,3.31-1.78c.25-.74.54-1.53.79-2.32A1.9,1.9,0,0,1,89,52.5c.74-.15,1.48-.35,2.22-.5a2.71,2.71,0,0,0,2.27-3.06,21.77,21.77,0,0,0-.34-2.52,1.91,1.91,0,0,1,.79-2.13c.59-.44,1.18-1,1.78-1.48A2.73,2.73,0,0,0,96.12,38.86Zm-1.84,3.76c-.55.47-1.1,1-1.66,1.39a1.76,1.76,0,0,0-.73,2,20.87,20.87,0,0,1,.32,2.34,2.54,2.54,0,0,1-2.12,2.86c-.69.14-1.38.32-2.07.46A1.77,1.77,0,0,0,86.5,53c-.23.73-.51,1.47-.74,2.16a2.51,2.51,0,0,1-3.08,1.66c-.79-.19-1.52-.42-2.26-.65a1.72,1.72,0,0,0-1.93.51c-.56.55-1.11,1.06-1.66,1.57a2.51,2.51,0,0,1-3.59,0l-1.71-1.57a1.69,1.69,0,0,0-1.84-.46c-.78.23-1.52.46-2.3.64a2.51,2.51,0,0,1-3.13-1.75c-.23-.73-.51-1.42-.74-2.16a1.72,1.72,0,0,0-1.43-1.29c-.73-.14-1.47-.32-2.21-.46a2.52,2.52,0,0,1-2.07-2.81c.09-.78.23-1.57.32-2.39a1.84,1.84,0,0,0-.69-1.94c-.6-.46-1.15-1-1.75-1.47a2.67,2.67,0,0,1-.46-3.64c.46-.64.92-1.24,1.38-1.84a1.74,1.74,0,0,0,.23-1.84c-.32-.74-.59-1.52-.92-2.26A2.61,2.61,0,0,1,57,29.73c.74-.41,1.47-.74,2.25-1.1a1.75,1.75,0,0,0,1.11-1.57c.09-.78.14-1.52.18-2.3a2.59,2.59,0,0,1,2.58-2.44h1.26a7.81,7.81,0,0,1,1.09.18,1.67,1.67,0,0,0,1.75-.92c.42-.64.83-1.29,1.24-1.89a2.54,2.54,0,0,1,3.6-.83c.69.37,1.38.79,2.07,1.15a1.69,1.69,0,0,0,1.7,0c.69-.36,1.34-.78,2-1.15a2.52,2.52,0,0,1,3.59.83c.41.65.83,1.25,1.24,1.89a1.75,1.75,0,0,0,1.71.92c.78,0,1.56,0,2.35-.09a2.62,2.62,0,0,1,2.67,2.53c0,.74.13,1.52.18,2.26a1.72,1.72,0,0,0,1.11,1.52c.69.32,1.38.64,2.07,1a2.53,2.53,0,0,1,1.24,3.36c-.27.74-.6,1.48-.92,2.21a1.72,1.72,0,0,0,.18,1.75c.47.6.93,1.25,1.39,1.89A2.54,2.54,0,0,1,94.28,42.62Z" style="fill:#fff"/><path d="M87.6,78.89h-1v-2h1a.86.86,0,0,1,.93,1,.88.88,0,0,1-.93,1m.14-4H83.91v8.17h2.7V80.94h1.13c2.13,0,3.35-1.15,3.35-3.13s-1.22-2.92-3.35-2.92m-16.31,0v8.17h7V81H74.14V80H78v-2H74.14v-1h4.21v-2Zm-6.05,2.9,1-2.05a6.9,6.9,0,0,0-3.56-1c-2.12,0-3.49,1-3.49,2.66,0,2.87,4.23,2.17,4.23,3.23,0,.29-.26.42-.65.42a6,6,0,0,1-3.12-1.27l-1,2a7,7,0,0,0,4.09,1.31c1.84,0,3.44-.8,3.44-2.62,0-3-4.23-2.32-4.23-3.35,0-.24.2-.34.5-.34a7.46,7.46,0,0,1,2.81,1" style="fill:#fff"/><path d="M92.09,68.14l.69-1.29a4.76,4.76,0,0,0-2.37-.65c-1.36,0-2.24.69-2.24,1.77,0,1.72,2.59,1.53,2.59,2,0,.1-.12.15-.32.15a3.65,3.65,0,0,1-1.88-.63l-.64,1.3a4.29,4.29,0,0,0,2.49.73c1.41,0,2.32-.68,2.32-1.73,0-1.72-2.65-1.53-2.65-2,0-.1.11-.17.29-.17a4.42,4.42,0,0,1,1.72.56m-7.3-.26c.47,0,.77.39.77,1s-.3,1-.77,1-.77-.39-.77-1,.3-1,.77-1m0-1.66a2.64,2.64,0,1,0,2.88,2.62,2.59,2.59,0,0,0-2.88-2.62m-6.44,3.64c-.46,0-.76-.39-.76-1s.3-1,.76-1,.76.39.76,1-.3,1-.76,1m.76-5.38v2.34a1.76,1.76,0,0,0-1.35-.6,2.3,2.3,0,0,0-2.29,2.6,2.35,2.35,0,0,0,2.34,2.65,1.67,1.67,0,0,0,1.3-.58v.51h2.1V64.48Zm-6,1.72a1.8,1.8,0,0,0-1.55.82V66.3h-2.1v5.1h2.1V68.87c0-.49.26-.82.67-.82a.62.62,0,0,1,.61.7V71.4H75V68.14a1.79,1.79,0,0,0-1.83-1.94M66,67.88c.46,0,.76.39.76,1s-.3,1-.76,1-.77-.39-.77-1,.3-1,.77-1m0-1.66a2.64,2.64,0,1,0,2.88,2.62A2.58,2.58,0,0,0,66,66.22m-8.44-1.36V71.4h2.16V69.27h2.9V67.63h-2.9V66.5h3.1V64.86Z" style="fill:#fff"/></svg>