<?xml version="1.0" standalone="no"?>
<!DOCTYPE svg PUBLIC "-//W3C//DTD SVG 1.1//EN" "http://www.w3.org/Graphics/SVG/1.1/DTD/svg11.dtd" >
<svg xmlns="http://www.w3.org/2000/svg">
<metadata>Generated by IcoMoon</metadata>
<defs>
<font id="icomoon" horiz-adv-x="1024">
<font-face units-per-em="1024" ascent="960" descent="-64" />
<missing-glyph horiz-adv-x="1024" />
<glyph unicode="&#x20;" horiz-adv-x="512" d="" />
<glyph unicode="&#xe900;" d="M630.056 151.483c205.808 0 258.889 112.815 273.335 144.529 94.942 208.428-4.502 442.927-256.739 442.927z" />
<glyph unicode="&#xe901;" d="M630.056 141.539c42.599 0.067 85.804 4.636 126.589 17.335 29.43 9.138 57.852 22.509 82.578 41.054 18.881 14.177 35.41 30.707 49.251 49.856 8.533 11.759 15.723 24.391 21.837 37.56 14.043 30.236 24.928 61.951 31.311 94.673 6.719 34.335 9.004 69.678 5.577 104.55-3.36 33.73-11.624 66.587-25.331 97.629-13.035 29.363-31.311 56.508-53.753 79.555-23.315 23.853-51.267 43.271-81.705 56.911-34.738 15.656-71.962 24.256-109.925 27.145-9.877 0.739-19.822 1.142-29.766 1.142-5.375 0-9.944-4.569-9.944-9.944s4.569-9.944 9.944-9.944c10.079 0 20.157-0.403 30.236-1.142 4.771-0.403 9.541-0.873 14.312-1.411 1.209-0.134 2.419-0.269 3.628-0.47 0.134 0 1.613-0.202 0.47-0.067-1.277 0.202 0.672-0.067 0.941-0.134 2.352-0.336 4.771-0.672 7.122-1.075 17.739-2.889 35.208-7.19 52.141-13.102 4.166-1.411 8.265-2.956 12.363-4.636 0.873-0.336 1.747-0.739 2.62-1.075 0.672-0.269 2.822-1.209 1.008-0.403 2.083-0.941 4.166-1.814 6.249-2.755 7.458-3.427 14.782-7.122 21.904-11.221 7.055-4.031 13.976-8.399 20.628-13.102 1.545-1.075 3.091-2.217 4.636-3.36 0.739-0.538 1.411-1.075 2.15-1.613 0.403-0.336 0.806-0.605 1.209-0.941 2.016-1.478-1.008 0.806 0.067-0.067 3.091-2.419 6.114-4.905 9.071-7.458 11.96-10.213 22.912-21.569 32.79-33.865 0.538-0.672 1.075-1.344 1.613-2.016 0.538-0.739 1.68-2.217 0.47-0.605 1.277-1.68 2.553-3.36 3.763-5.039 2.285-3.091 4.435-6.249 6.585-9.474 4.233-6.383 8.197-13.035 11.893-19.754 3.763-6.921 7.19-13.976 10.348-21.165 0.336-0.806 0.672-1.613 1.075-2.419 0.739-1.68 0 0-0.134 0.336 0.202-0.47 0.403-0.941 0.605-1.411 0.739-1.881 1.478-3.696 2.217-5.577 1.478-3.763 2.822-7.525 4.099-11.355 5.107-14.984 8.936-30.371 11.624-45.959 0.336-2.016 0.672-4.099 1.008-6.114 0.134-0.873 0.269-1.814 0.403-2.688 0.067-0.538 0.134-1.008 0.202-1.545 0.202-1.478-0.336 2.486 0-0.067 0.47-4.031 0.941-8.063 1.344-12.027 0.739-8.265 1.209-16.596 1.344-24.861 0.269-16.731-0.672-33.529-2.822-50.125-0.067-0.538-0.134-1.075-0.202-1.613 0.269 2.15 0.067 0.672 0 0.202-0.134-1.075-0.336-2.15-0.47-3.292-0.336-2.217-0.672-4.367-1.008-6.585-0.672-4.233-1.478-8.466-2.352-12.699-1.747-8.735-3.83-17.335-6.182-25.936s-5.039-17.067-7.929-25.533c-1.545-4.435-3.158-8.802-4.838-13.102-0.739-1.949-1.478-3.83-2.285-5.711-0.47-1.075-0.873-2.15-1.344-3.292-0.202-0.538-0.47-1.075-0.672-1.613 0.538 1.344 0.067 0.202-0.202-0.47-5.778-13.438-12.094-26.541-19.956-38.904-2.285-3.628-4.703-7.19-7.19-10.616-0.672-0.873-1.277-1.814-1.949-2.688-0.336-0.47-0.739-0.941-1.075-1.411-1.008-1.344-0.873-0.941 0.134 0.202-1.68-1.881-3.091-3.964-4.703-5.846-6.988-8.332-14.581-16.193-22.778-23.383-2.217-1.949-4.502-3.897-6.786-5.778-1.142-0.941-2.285-1.881-3.494-2.755-1.881-1.478 1.277 0.941-0.134-0.067-0.739-0.538-1.478-1.075-2.15-1.613-5.308-3.964-10.818-7.727-16.529-11.221-5.98-3.696-12.162-7.19-18.478-10.348-3.427-1.747-6.921-3.427-10.415-5.039-1.68-0.739-3.427-1.545-5.107-2.285-2.15-0.941 0.873 0.336-0.739-0.336-1.075-0.403-2.15-0.873-3.158-1.277-16.126-6.518-32.924-11.49-49.923-15.252-9.541-2.083-19.15-3.83-28.892-5.241-0.672-0.067-1.277-0.202-1.949-0.269 1.613 0.202-0.067 0-0.336-0.067-1.344-0.202-2.688-0.336-3.964-0.47-2.688-0.336-5.443-0.605-8.13-0.873-5.443-0.538-10.885-1.008-16.328-1.344-11.423-0.739-22.912-1.075-34.402-1.142-5.375 0-9.944-4.569-9.944-9.944 0.067-5.577 4.636-10.146 10.012-10.146v0z" />
<glyph unicode="&#xe902;" d="M727.080 705.209c-95.412 65.109-233.155 40.517-319.765-10.952s-121.818-184.844-113.823-285.228c7.593-95.009 77.673-178.931 165.694-215.483s179.2-60.002 267.557-24.256c46.833 18.948 104.147 78.278 126.858 123.431 111.471 221.598-10.213 368.613-126.522 412.489z" />
<glyph unicode="&#xe903;" d="M732.12 713.81c-55.836 37.963-125.783 46.161-191.429 37.023-31.647-4.367-62.757-12.901-92.254-25.13-27.347-11.355-54.022-25.062-75.994-45.22-44.145-40.584-68.939-99.914-80.966-157.699-6.182-29.699-9.34-60.136-8.936-90.44 0.403-31.043 5.107-61.615 16.529-90.574 23.92-60.943 70.484-112.008 127.664-143.588 15.79-8.735 32.454-15.521 49.184-22.039 19.284-7.525 38.904-14.312 58.86-19.889 38.635-10.751 79.152-17.067 119.332-13.976 36.821 2.822 74.112 12.699 105.222 33.058 28.086 18.41 52.947 42.264 73.844 68.468 9.743 12.162 18.948 24.928 26.473 38.635 9.34 17.067 17.067 35.276 23.987 53.485 12.498 33.193 20.897 67.998 23.383 103.408 4.031 57.046-9.071 114.763-39.576 163.343-26.003 41.39-63.496 75.725-106.767 98.369-9.944 5.241-20.225 9.81-30.774 13.774-5.039 1.881-10.885-2.083-12.229-6.988-1.545-5.577 1.881-10.348 6.921-12.229 2.486-0.941 4.972-1.949 7.391-2.956 2.217-0.873-2.083 0.873 0.067-0.067 0.403-0.202 0.806-0.336 1.209-0.538 1.478-0.605 2.889-1.277 4.3-1.949 4.972-2.285 9.944-4.703 14.782-7.324 9.81-5.241 19.284-11.087 28.355-17.47 2.15-1.545 4.3-3.091 6.45-4.703 0.605-0.403 1.142-0.873 1.747-1.344 0.336-0.269 2.352-1.814 0.269-0.202 1.142-0.873 2.285-1.814 3.427-2.688 4.636-3.696 9.138-7.525 13.506-11.557 8.735-7.996 16.932-16.529 24.525-25.6 1.814-2.15 3.561-4.367 5.308-6.585 0.269-0.336 1.814-2.419 0.336-0.403 0.47-0.605 0.941-1.209 1.411-1.814 1.075-1.411 2.15-2.889 3.225-4.367 3.494-4.838 6.854-9.877 10.012-14.917 6.652-10.683 12.363-21.837 17.403-33.327 1.075-2.486-0.739 1.881 0.269-0.605 0.336-0.739 0.605-1.545 0.941-2.285 0.605-1.545 1.209-3.024 1.814-4.569 1.209-3.091 2.285-6.249 3.36-9.34 2.083-6.114 3.897-12.363 5.443-18.612 1.68-6.719 3.091-13.506 4.233-20.359 0.269-1.747 0.538-3.494 0.806-5.241 0.134-0.739 0.202-1.478 0.336-2.217 0.269-1.747-0.269 2.419 0.067-0.47 0.47-3.897 0.873-7.727 1.209-11.624 1.209-14.715 1.209-29.564 0.134-44.279-0.269-3.628-0.605-7.257-1.008-10.885-0.202-2.016-0.47-4.031-0.739-5.98-0.403-3.292 0.269 1.949-0.202-1.411-0.134-1.008-0.269-2.016-0.47-3.024-1.277-8.332-2.822-16.596-4.703-24.794-7.996-34.94-20.628-69.275-37.896-100.519-3.494-6.383-7.391-12.498-11.49-18.478-2.016-2.956-4.099-5.846-6.249-8.668-0.605-0.806-1.209-1.613-1.814-2.352-1.949-2.62 1.142 1.411-0.873-1.142-1.277-1.613-2.486-3.158-3.763-4.771-10.415-12.834-21.703-24.928-33.797-36.149-12.162-11.288-22.711-19.889-36.351-28.624-5.846-3.763-11.893-7.257-18.142-10.28-1.545-0.739-3.091-1.411-4.636-2.15-2.553-1.142 1.881 0.672-0.672-0.269-1.008-0.403-2.016-0.806-3.024-1.209-4.972-1.949-10.012-3.696-15.118-5.308-75.389-23.719-154.070-4.703-226.1 23.45-16.193 6.316-29.699 11.96-45.422 20.762-6.786 3.83-13.371 7.929-19.754 12.229-3.024 2.016-5.98 4.166-8.869 6.316-3.964 2.889-5.107 3.83-8.936 6.921-12.027 9.81-23.248 20.561-33.529 32.185-10.213 11.557-18.142 22.173-26.541 35.88-4.031 6.518-7.727 13.237-11.154 20.157-1.68 3.36-3.225 6.719-4.771 10.213-0.403 0.873-0.806 1.814-1.142 2.688 0.605-1.411 0 0.067-0.134 0.336-0.873 2.083-1.68 4.233-2.486 6.383-5.443 14.312-9.474 29.161-11.893 44.279-1.008 5.98-1.68 13.102-2.217 20.897-0.403 6.652-0.605 13.371-0.672 20.090-0.067 14.379 0.605 28.758 2.083 43.070 0.336 3.561 0.806 7.055 1.209 10.616 0.403 3.091-0.269-2.016 0.134 1.075 0.134 0.739 0.202 1.545 0.336 2.285 0.269 2.016 0.605 4.031 0.941 6.047 1.209 7.458 2.553 14.849 4.166 22.173 3.091 14.446 6.988 28.691 11.759 42.667 2.285 6.786 4.838 13.506 7.525 20.090 0.067 0.134 1.277 2.956 0.403 1.075 0.336 0.873 0.739 1.68 1.075 2.553 0.739 1.68 1.478 3.36 2.285 5.039 1.545 3.36 3.091 6.652 4.771 9.944 6.316 12.632 13.573 24.794 21.904 36.216 1.008 1.411 2.083 2.822 3.158 4.233 1.747 2.352-1.209-1.478 0.605 0.739 0.336 0.47 0.739 0.941 1.075 1.344 2.352 2.956 4.771 5.846 7.324 8.668 4.435 4.905 9.071 9.676 13.909 14.11 2.553 2.285 5.107 4.502 7.794 6.652 0.538 0.47 3.628 2.822 2.016 1.613 1.613 1.209 3.158 2.352 4.771 3.494 5.443 3.83 11.087 7.257 16.865 10.482 6.383 3.628 12.901 6.988 19.486 10.146 3.091 1.478 6.249 2.956 9.34 4.367 1.747 0.739 3.494 1.545 5.241 2.285 2.889 1.209-1.747-0.739 1.142 0.47 1.008 0.403 2.083 0.873 3.091 1.277 14.379 5.778 29.094 10.751 44.010 14.715 59.465 15.924 123.7 18.142 182.022-4.905 3.696-1.478 5.241-2.15 9.541-4.099 3.292-1.545 6.585-3.158 9.877-4.905 6.854-3.628 13.438-7.66 19.822-11.96 4.435-3.024 11.019-0.873 13.64 3.561 2.822 5.039 0.873 10.683-3.561 13.707v0z" />
<glyph unicode="&#xe904;" d="M704.235 655.824c-21.031 14.245-45.69 23.719-70.686 28.153-27.347 4.771-54.291 4.502-81.705 0.739-23.315-3.225-46.295-9.474-68.065-18.478-22.778-9.407-44.682-20.493-62.959-37.359-34.201-31.58-54.022-77.741-63.362-122.625-9.608-46.093-11.893-97.293 5.644-141.841 19.082-48.445 55.164-89.163 100.72-114.36 12.834-7.122 26.473-12.632 40.181-17.94 14.379-5.577 28.96-10.616 43.809-14.715 29.967-8.265 61.749-13.17 92.792-10.549 29.43 2.486 59.196 10.146 84.057 26.608 21.569 14.245 40.852 32.386 57.046 52.544 7.996 10.012 15.723 20.359 21.904 31.58 7.525 13.841 13.707 28.556 19.284 43.271 9.676 25.734 15.723 52.678 17.671 80.16 3.091 44.279-7.525 89.768-31.177 127.462-20.493 32.655-49.991 60.069-84.124 78.009-8.466 4.435-17.268 8.197-26.138 11.624-4.972 1.881-12.363 0.403-16.798-2.217-4.502-2.62-8.802-7.794-10.012-13.035-1.277-5.577-1.008-11.826 2.217-16.798 3.225-5.039 7.458-7.861 13.035-10.012 2.285-0.873 4.569-1.747 6.786-2.688-1.747 0.739-3.494 1.478-5.174 2.217 15.723-6.719 30.505-15.454 44.078-25.869-1.478 1.142-2.956 2.285-4.435 3.427 13.438-10.415 25.6-22.509 36.015-36.015-1.142 1.478-2.285 2.956-3.427 4.435 9.81-12.766 18.007-26.742 24.323-41.524-0.739 1.747-1.478 3.494-2.217 5.174 6.45-15.387 10.818-31.58 13.102-48.176-0.269 1.949-0.538 3.83-0.806 5.778 2.486-18.814 2.217-37.829-0.269-56.643 0.269 1.949 0.538 3.83 0.806 5.778-3.427-24.794-10.616-48.848-20.292-71.895 0.739 1.747 1.478 3.494 2.217 5.174-7.525-17.806-16.26-34.402-28.086-49.722 1.142 1.478 2.285 2.956 3.427 4.435-12.901-16.596-27.75-31.714-44.346-44.548 1.478 1.142 2.956 2.285 4.435 3.427-9.272-7.122-19.15-13.573-29.967-18.276 1.747 0.739 3.494 1.478 5.174 2.217-14.446-6.114-29.766-10.079-45.287-12.162 1.949 0.269 3.83 0.538 5.778 0.806-18.343-2.352-36.821-1.949-55.164 0.403 1.949-0.269 3.83-0.538 5.778-0.806-34.469 4.636-67.662 15.992-99.645 29.363 1.747-0.739 3.494-1.478 5.174-2.217-16.462 6.988-31.916 16.059-46.026 26.944 1.478-1.142 2.956-2.285 4.435-3.427-14.11 10.952-26.809 23.584-37.762 37.694 1.142-1.478 2.285-2.956 3.427-4.435-10.012 12.968-18.343 27.145-24.794 42.196 0.739-1.747 1.478-3.494 2.217-5.174-5.846 13.841-9.877 28.355-11.96 43.271 0.269-1.949 0.538-3.83 0.806-5.778-3.024 23.047-2.083 46.765 0.941 69.812-0.269-1.949-0.538-3.83-0.806-5.778 3.36 24.525 9.541 48.647 19.15 71.492-0.739-1.747-1.478-3.494-2.217-5.174 6.719 15.857 15.118 30.975 25.6 44.615-1.142-1.478-2.285-2.956-3.427-4.435 7.458 9.541 15.857 18.276 25.466 25.667-1.478-1.142-2.956-2.285-4.435-3.427 12.834 9.81 27.549 17.134 42.331 23.45-1.747-0.739-3.494-1.478-5.174-2.217 22.778 9.608 46.765 16.193 71.223 19.553-1.949-0.269-3.83-0.538-5.778-0.806 20.292 2.688 40.92 3.024 61.212 0.336-1.949 0.269-3.83 0.538-5.778 0.806 15.857-2.15 31.311-6.114 46.093-12.296-1.747 0.739-3.494 1.478-5.174 2.217 9.541-4.099 18.679-9.004 27.28-14.849 9.474-6.383 24.525-2.083 29.766 7.794 5.711 10.818 2.15 22.778-7.929 29.631v0z" />
<glyph unicode="&#xe905;" d="M669.228 583.727c-29.766 20.090-66.587 23.651-101.325 18.746-14.715-2.083-29.027-6.047-42.734-11.691-15.387-6.383-29.9-13.774-42.264-25.13-22.24-20.493-35.41-50.595-41.524-79.689-6.316-29.967-7.996-63.496 3.36-92.523 12.632-32.386 36.283-59.733 66.856-76.598 8.332-4.569 17.268-8.13 26.138-11.624 9.138-3.561 18.478-6.786 27.952-9.407 19.217-5.308 39.71-8.533 59.599-6.854 19.687 1.613 39.643 6.518 56.307 17.47 14.11 9.205 26.877 20.897 37.359 34.066 5.51 6.854 10.885 13.841 15.051 21.569 4.905 8.936 8.869 18.545 12.498 28.086 6.316 16.664 10.146 34.201 11.49 52.006 2.217 29.228-4.905 59.532-20.561 84.393-13.506 21.434-32.857 39.643-55.366 51.402-5.846 3.091-11.96 5.644-18.142 7.996-4.972 1.881-12.363 0.403-16.798-2.217-4.502-2.62-8.802-7.794-10.012-13.035-1.277-5.577-1.008-11.826 2.217-16.798 3.225-5.039 7.458-7.861 13.035-10.012 1.478-0.538 2.889-1.142 4.3-1.747-1.747 0.739-3.494 1.478-5.174 2.217 9.676-4.166 18.814-9.541 27.213-15.992-1.478 1.142-2.956 2.285-4.435 3.427 8.332-6.45 15.79-13.841 22.308-22.173-1.142 1.478-2.285 2.956-3.427 4.435 6.316-8.197 11.557-17.067 15.521-26.608-0.739 1.747-1.478 3.494-2.217 5.174 3.897-9.474 6.585-19.284 7.996-29.43-0.269 1.949-0.538 3.83-0.806 5.778 1.545-11.624 1.411-23.315-0.067-34.872 0.269 1.949 0.538 3.83 0.806 5.778-2.083-15.521-6.585-30.572-12.632-45.086 0.739 1.747 1.478 3.494 2.217 5.174-4.703-11.019-10.079-21.367-17.335-30.908 1.142 1.478 2.285 2.956 3.427 4.435-8.063-10.348-17.335-19.822-27.683-27.885 1.478 1.142 2.956 2.285 4.435 3.427-5.913-4.502-12.162-8.601-18.948-11.557 1.747 0.739 3.494 1.478 5.174 2.217-8.802-3.628-18.007-6.047-27.481-7.391 1.949 0.269 3.83 0.538 5.778 0.806-11.826-1.545-23.651-1.277-35.477 0.269 1.949-0.269 3.83-0.538 5.778-0.806-21.367 3.024-41.928 10.012-61.749 18.343 1.747-0.739 3.494-1.478 5.174-2.217-10.079 4.3-19.486 9.877-28.153 16.529 1.478-1.142 2.956-2.285 4.435-3.427-8.936 6.921-16.865 14.849-23.786 23.719 1.142-1.478 2.285-2.956 3.427-4.435-6.182 8.13-11.355 16.865-15.32 26.205 0.739-1.747 1.478-3.494 2.217-5.174-3.628 8.802-6.182 17.94-7.458 27.347 0.269-1.949 0.538-3.83 0.806-5.778-1.747 14.043-1.209 28.422 0.605 42.465-0.269-1.949-0.538-3.83-0.806-5.778 2.083 15.521 5.98 30.707 12.094 45.153-0.739-1.747-1.478-3.494-2.217-5.174 4.166 9.676 9.272 18.948 15.723 27.347-1.142-1.478-2.285-2.956-3.427-4.435 4.636 5.913 9.81 11.288 15.723 15.924-1.478-1.142-2.956-2.285-4.435-3.427 8.063 6.182 17.268 10.818 26.541 14.782-1.747-0.739-3.494-1.478-5.174-2.217 14.245 5.98 29.228 10.146 44.615 12.229-1.949-0.269-3.83-0.538-5.778-0.806 12.632 1.613 25.466 1.814 38.098 0.134-1.949 0.269-3.83 0.538-5.778 0.806 9.877-1.411 19.553-3.897 28.758-7.727-1.747 0.739-3.494 1.478-5.174 2.217 5.846-2.553 11.423-5.577 16.731-9.138 9.474-6.383 24.525-2.15 29.766 7.794 5.711 11.087 2.217 23.047-7.861 29.9v0z" />
<glyph unicode="&#xe906;" d="M630.795 505.986c-13.573 8.936-29.9 10.213-45.489 7.929-12.968-1.949-26.003-7.458-35.746-16.328-9.407-8.668-15.454-21.703-18.007-34.066-2.62-13.035-3.427-27.481 1.68-40.046 5.846-14.245 15.588-26.406 29.296-33.797 13.506-7.324 30.908-12.699 46.295-11.288 16.596 1.478 31.11 8.668 41.726 21.703 10.415 12.834 16.126 27.952 17.604 44.346 1.209 13.237-2.553 28.153-10.348 38.971-8.399 11.624-18.814 19.553-32.252 24.727-4.972 1.949-12.363 0.403-16.798-2.217-4.502-2.62-8.802-7.794-10.012-13.035-1.277-5.577-1.008-11.826 2.217-16.798 3.225-5.039 7.458-7.861 13.035-10.012 0.403-0.134 0.806-0.336 1.209-0.47-1.747 0.739-3.494 1.478-5.174 2.217 3.494-1.478 6.652-3.36 9.676-5.644-1.478 1.142-2.956 2.285-4.435 3.427 2.755-2.217 5.241-4.636 7.458-7.391-1.142 1.478-2.285 2.956-3.427 4.435 2.083-2.755 3.83-5.644 5.241-8.802-0.739 1.747-1.478 3.494-2.217 5.174 1.411-3.427 2.419-6.921 2.889-10.616-0.269 1.949-0.538 3.83-0.806 5.778 0.47-4.099 0.403-8.197-0.134-12.296 0.269 1.949 0.538 3.83 0.806 5.778-0.806-5.241-2.285-10.213-4.3-15.051 0.739 1.747 1.478 3.494 2.217 5.174-1.68-3.83-3.494-7.324-6.047-10.616 1.142 1.478 2.285 2.956 3.427 4.435-2.755-3.427-5.778-6.518-9.205-9.272 1.478 1.142 2.956 2.285 4.435 3.427-2.15-1.613-4.435-3.091-6.921-4.166 1.747 0.739 3.494 1.478 5.174 2.217-3.158-1.209-6.316-2.016-9.608-2.486 1.949 0.269 3.83 0.538 5.778 0.806-4.031-0.47-8.063-0.336-12.094 0.202 1.949-0.269 3.83-0.538 5.778-0.806-7.055 1.075-13.841 3.36-20.493 6.114 1.747-0.739 3.494-1.478 5.174-2.217-3.628 1.545-6.988 3.561-10.146 5.913 1.478-1.142 2.956-2.285 4.435-3.427-2.822 2.285-5.375 4.771-7.66 7.593 1.142-1.478 2.285-2.956 3.427-4.435-2.217 2.822-4.031 5.913-5.51 9.205 0.739-1.747 1.478-3.494 2.217-5.174-1.277 3.024-2.15 6.114-2.62 9.34 0.269-1.949 0.538-3.83 0.806-5.778-0.605 4.838-0.47 9.676 0.134 14.513-0.269-1.949-0.538-3.83-0.806-5.778 0.739 5.308 2.016 10.482 4.031 15.454-0.739-1.747-1.478-3.494-2.217-5.174 1.411 3.36 3.158 6.518 5.308 9.474-1.142-1.478-2.285-2.956-3.427-4.435 1.613 2.083 3.36 3.897 5.443 5.577-1.478-1.142-2.956-2.285-4.435-3.427 2.889 2.15 6.047 3.83 9.34 5.241-1.747-0.739-3.494-1.478-5.174-2.217 4.905 2.016 9.944 3.427 15.118 4.166-1.949-0.269-3.83-0.538-5.778-0.806 4.367 0.538 8.668 0.605 12.968 0.067-1.949 0.269-3.83 0.538-5.778 0.806 3.292-0.47 6.45-1.277 9.608-2.486-1.747 0.739-3.494 1.478-5.174 2.217 2.15-0.941 4.166-2.016 6.182-3.292 9.541-6.316 24.458-2.217 29.766 7.794 5.913 10.751 2.486 22.912-7.66 29.631v0z" />
<glyph unicode="&#xe907;" d="M587.12 432.546v0c4.166-0.806 8.802-0.067 12.901 2.486 8.063 5.039 10.885 15.118 6.182 22.576-2.553 4.031-6.786 6.383-11.423 6.921v0.067l-448.168 76.733-8.197-29.766 448.706-79.017z" />
<glyph unicode="&#xe908;" d="M153.398 532.93c-12.834 24.928-25.6 49.856-38.434 74.784-1.411-2.486-2.889-4.972-4.3-7.458 26.541-2.486 53.485-7.458 78.749-16.193 10.146-3.494 19.687-8.466 26.608-16.865 6.316-7.593 10.952-16.798 15.051-25.802 4.435-9.81 8.197-20.157 10.146-30.774 1.142-6.316 10.751-3.628 9.608 2.62-1.881 10.146-5.51 19.956-9.541 29.497-4.233 9.877-9.138 19.62-15.656 28.22-15.521 20.561-42.532 26.339-66.385 31.647-15.992 3.561-32.252 6.047-48.58 7.593-4.031 0.403-5.846-4.435-4.3-7.458 12.834-24.928 25.6-49.856 38.434-74.784 2.956-5.778 11.557-0.739 8.601 4.972v0z" />
<glyph unicode="&#xe909;" d="M185.18 525.002c-5.644 15.588-11.288 31.244-16.999 46.833-2.15 5.98-11.759 3.427-9.608-2.62 5.644-15.588 11.288-31.244 16.999-46.833 2.15-5.98 11.826-3.427 9.608 2.62v0z" />
<glyph unicode="&#xe90a;" d="M211.99 520.769c-3.36 13.707-6.719 27.414-10.079 41.121-1.545 6.249-11.154 3.561-9.608-2.62 3.36-13.707 6.719-27.414 10.079-41.121 1.545-6.249 11.154-3.628 9.608 2.62v0z" />
<glyph unicode="&#xe90b;" d="M141.304 518.618c-19.889-19.754-39.71-39.509-59.599-59.263-2.553-2.553-1.478-7.525 2.217-8.332 14.11-3.158 28.422-5.51 42.801-7.122 13.909-1.545 28.086-2.688 42.062-2.15 11.893 0.47 23.786 2.822 33.865 9.407 8.802 5.778 16.596 13.17 23.651 20.964 7.794 8.601 15.252 17.94 20.829 28.153 3.091 5.644-5.51 10.683-8.601 5.039-4.435-8.197-10.146-15.656-16.193-22.711-6.585-7.593-13.707-14.984-21.837-20.897-8.735-6.316-18.545-9.205-29.228-9.81-13.035-0.739-26.272 0.269-39.307 1.478-15.252 1.478-30.371 3.964-45.287 7.257 0.739-2.755 1.478-5.577 2.217-8.332 19.889 19.754 39.71 39.509 59.599 59.263 4.367 4.502-2.688 11.557-7.19 7.055v0z" />
<glyph unicode="&#xe90c;" d="M173.086 515.326c-10.213-13.102-20.426-26.205-30.639-39.307-1.68-2.15-2.016-4.972 0-7.055 1.68-1.747 5.375-2.15 7.055 0 10.213 13.102 20.426 26.205 30.639 39.307 1.68 2.15 2.016 4.972 0 7.055-1.68 1.747-5.375 2.083-7.055 0v0z" />
<glyph unicode="&#xe90d;" d="M199.156 510.085c-7.458-12.027-14.849-23.987-22.308-36.015-3.36-5.443 5.241-10.482 8.601-5.039 7.458 12.027 14.849 23.987 22.308 36.015 3.36 5.443-5.241 10.482-8.601 5.039v0z" />
<glyph unicode="&#xe90e;" d="M512.202 573.984c-9.272 124.304 111.336 125.178 153.264 121.482 35.343-3.091 68.804-21.233 92.523-47.572 83.049-92.187 27.28-206.413-1.545-258.62-47.169-85.401-130.083-144.731-216.693-189.682l-3.36 2.62c-92.321 31.58-196.67 94.807-256 172.212-36.283 47.303-94.875 135.122-26.473 238.665 19.553 29.631 49.923 52.477 84.393 60.808 40.92 9.877 154.809 18.41 171.742-74.045z" />
<glyph unicode="&#xe90f;" d="M525.102 573.984c-0.538 7.794-0.672 15.588-0.202 23.45 0.134 1.68 0.269 3.292 0.403 4.972 0.067 0.806 0.202 1.613 0.269 2.419 0.202 2.016-0.47-2.956 0.067 0.538 0.47 3.158 1.075 6.249 1.814 9.34 0.739 3.024 1.545 6.047 2.553 9.004 0.47 1.411 1.008 2.822 1.545 4.233 0.269 0.605 0.538 1.277 0.739 1.881 0.067 0.202-1.209-2.755-0.672-1.545 0.202 0.403 0.336 0.806 0.538 1.209 2.285 5.107 5.039 9.944 8.197 14.513 0.336 0.538 0.739 1.008 1.075 1.545 0.336 0.403 1.747 2.285 0.269 0.403-1.411-1.814 0-0.067 0.336 0.403 0.47 0.538 0.873 1.075 1.344 1.613 1.68 2.016 3.494 3.897 5.375 5.711 1.814 1.814 3.763 3.494 5.711 5.174 0.47 0.403 0.941 0.739 1.344 1.142 1.613 1.344-2.419-1.814-0.739-0.605 1.142 0.806 2.217 1.613 3.36 2.419 4.099 2.822 8.399 5.308 12.834 7.525 1.142 0.538 2.285 1.142 3.427 1.613 0.538 0.269 1.075 0.47 1.613 0.739s2.822 1.209 0.605 0.269c-2.352-1.008 0.134 0.067 0.605 0.202 0.538 0.202 1.075 0.403 1.613 0.605 1.142 0.47 2.352 0.873 3.561 1.277 9.205 3.292 18.814 5.577 28.489 7.122 1.209 0.202 2.352 0.336 3.561 0.538 2.352 0.336-2.083-0.269-1.277-0.134 0.605 0.067 1.277 0.134 1.881 0.269 2.285 0.269 4.636 0.538 6.988 0.739 4.435 0.403 8.869 0.672 13.371 0.806 7.593 0.269 15.252 0.134 22.845-0.336 1.545-0.067 3.158-0.202 4.703-0.336 0.672-0.067 1.344-0.134 2.016-0.134 0.941-0.067 1.881-0.202 2.822-0.269 0.538-0.067 1.075-0.134 1.613-0.202-1.814 0.202-1.075 0.134 0.269-0.067 9.004-1.344 17.873-3.696 26.406-6.921 1.008-0.403 2.016-0.739 3.024-1.142 0.672-0.269 1.344-0.538 2.016-0.806-0.134 0.067-1.949 0.873-0.605 0.269 2.083-1.008 4.233-1.949 6.316-2.956 4.166-2.083 8.265-4.367 12.229-6.854s7.794-5.174 11.557-7.996c-1.747 1.344 0.067-0.067 0.806-0.672 0.806-0.672 1.68-1.344 2.486-2.083 1.814-1.478 3.561-3.024 5.241-4.636 3.427-3.158 6.719-6.518 9.81-10.012 1.68-1.881 3.292-3.763 4.905-5.711 0.739-0.873 1.411-1.747 2.15-2.688 0.067-0.134 1.277-1.613 0.403-0.47s0.538-0.739 0.672-0.941c5.577-7.458 10.549-15.32 14.849-23.517 0.941-1.814 1.881-3.628 2.755-5.51 0.403-0.941 0.873-1.814 1.277-2.755 0.202-0.47 0.403-0.941 0.605-1.411 1.008-2.285-0.538 1.344 0.067-0.134 1.545-3.83 2.956-7.66 4.233-11.557 2.553-7.861 4.502-15.992 5.778-24.189 0.134-0.941 0.269-1.881 0.403-2.755 0.403-2.553-0.269 2.217 0-0.269 0.269-2.15 0.47-4.3 0.672-6.518 0.336-3.964 0.538-7.996 0.605-11.96 0.134-7.727-0.269-15.521-1.008-23.181-0.202-1.949-0.538-3.897-0.672-5.846 0 0 0.403 2.688 0.134 1.209-0.067-0.47-0.134-0.873-0.202-1.344-0.134-1.008-0.336-2.083-0.47-3.091-0.605-3.83-1.344-7.593-2.083-11.355-1.545-7.391-3.427-14.715-5.577-21.972-2.083-6.854-4.367-13.64-6.854-20.359-1.209-3.292-2.553-6.585-3.83-9.81-0.269-0.739-0.605-1.478-0.941-2.217-0.941-2.217 1.008 2.352 0.067 0.202-0.739-1.68-1.411-3.36-2.15-4.972-11.423-25.734-25.062-50.797-41.524-73.642-1.344-1.881-2.688-3.763-4.099-5.577-0.672-0.873-1.277-1.68-1.949-2.553-0.873-1.142 0.269 0.403 0.403 0.47-0.47-0.538-0.873-1.142-1.344-1.68-2.822-3.628-5.778-7.19-8.735-10.683-5.98-7.055-12.229-13.841-18.679-20.493-12.834-13.17-26.541-25.466-40.785-37.023-1.68-1.344-3.36-2.688-5.039-4.031-0.873-0.672-1.68-1.344-2.553-2.016-1.545-1.209 1.613 1.209 0.067 0.067-0.538-0.47-1.142-0.873-1.68-1.344-3.696-2.822-7.458-5.644-11.221-8.399-7.458-5.375-14.984-10.616-22.711-15.656-15.521-10.213-31.446-19.822-47.706-28.892-7.996-4.435-16.059-8.802-24.256-13.035 5.174-0.672 10.415-1.344 15.588-2.016-2.889 2.285-5.51 4.636-9.004 5.913-4.099 1.545-8.332 2.889-12.43 4.435-7.794 2.889-15.521 5.913-23.248 9.138-0.403 0.202-3.696 1.545-0.806 0.336-1.008 0.403-1.949 0.806-2.956 1.277-1.949 0.873-3.897 1.68-5.846 2.553-3.897 1.747-7.861 3.494-11.759 5.308-8.197 3.83-16.328 7.861-24.391 12.027-31.714 16.462-62.219 35.41-90.641 57.113-0.269 0.202-3.225 2.486-0.873 0.672-0.605 0.47-1.142 0.873-1.747 1.344-1.747 1.344-3.427 2.688-5.174 4.099-3.696 2.956-7.324 5.98-10.885 9.004-6.585 5.577-12.968 11.288-19.217 17.201-12.363 11.691-24.055 24.122-34.805 37.291-1.277 1.545-2.553 3.158-3.763 4.771-0.336 0.47-1.478 1.949 0.134-0.202-0.403 0.538-0.806 1.008-1.209 1.545-1.747 2.352-3.561 4.636-5.308 6.988-3.494 4.703-6.854 9.474-10.146 14.312-7.458 10.952-14.312 22.375-20.225 34.201-1.411 2.822-2.755 5.644-4.031 8.533-0.336 0.806-0.739 1.613-1.075 2.352-0.269 0.672-1.68 3.292-0.067 0.134-0.941 1.814-1.545 3.83-2.285 5.711-2.553 6.719-4.838 13.506-6.652 20.426-0.941 3.561-1.747 7.122-2.486 10.683-0.336 1.814-0.672 3.628-1.008 5.443-0.134 0.941-0.269 1.814-0.47 2.755-0.067 0.605-0.202 1.209-0.269 1.881 0.269-1.881 0.269-2.083 0.067-0.605-0.873 7.66-1.344 15.252-1.209 22.98 0.067 3.83 0.269 7.593 0.672 11.355 0.202 1.814 0.269 3.696 0.605 5.51-0.605-3.36 0 0.067 0.134 0.605 0.202 1.344 0.47 2.755 0.672 4.099 1.545 8.466 3.763 16.865 6.585 24.995 0.739 2.15 1.545 4.3 2.352 6.383 0.403 1.075 0.873 2.15 1.277 3.225-1.075-2.62 0.403 1.008 0.538 1.209 2.15 4.838 4.435 9.541 6.988 14.177 4.569 8.466 9.676 16.596 15.387 24.323 2.083 2.822-1.68-2.016 0.538 0.672 0.672 0.806 1.344 1.613 2.016 2.419 1.344 1.613 2.688 3.158 4.099 4.703 2.822 3.091 5.778 6.114 8.802 8.936 3.091 2.822 6.249 5.577 9.541 8.13-2.419-1.881 0.336 0.269 0.739 0.538 0.806 0.605 1.68 1.209 2.553 1.814 1.68 1.209 3.427 2.352 5.174 3.494 3.494 2.285 7.122 4.367 10.818 6.316 1.814 0.941 3.696 1.881 5.577 2.755 0.941 0.47 1.881 0.873 2.822 1.277 1.344 0.605 1.277 0.538-0.202-0.067 0.672 0.269 1.277 0.538 1.949 0.806 6.383 2.486 12.901 4.502 19.62 5.98 3.561 0.806 7.122 1.478 10.683 2.083 2.016 0.336 4.031 0.605 6.047 0.941-5.107-0.806-0.873-0.134 0.269 0 1.277 0.134 2.553 0.269 3.83 0.403 9.676 1.008 19.418 1.478 29.094 1.277 5.241-0.067 10.415-0.336 15.656-0.806 1.344-0.134 2.62-0.269 3.964-0.403 0.672-0.067 1.344-0.134 1.949-0.202 1.478-0.202 2.217-1.008-0.806 0.134 2.486-0.941 5.913-0.873 8.601-1.411 5.241-1.008 10.482-2.285 15.588-3.83 2.419-0.739 4.905-1.545 7.257-2.419 1.142-0.403 2.285-0.873 3.427-1.344 2.62-1.008-0.672 0-0.605 0.269 0-0.134 2.217-1.008 2.419-1.075 4.838-2.217 9.474-4.771 13.909-7.727 1.075-0.739 2.217-1.478 3.292-2.285 0.134-0.134 1.613-1.008 1.613-1.209 0 0.269-2.62 2.15-0.538 0.336 2.217-1.881 4.367-3.763 6.45-5.846 1.747-1.747 3.427-3.561 5.039-5.51 0.47-0.538 0.873-1.075 1.277-1.613 1.613-2.016-1.814 2.553-0.336 0.403 0.941-1.344 1.881-2.62 2.822-4.031 1.545-2.419 3.024-4.905 4.3-7.458 0.538-1.075 1.075-2.217 1.613-3.292 0.336-0.672 0.538-1.411 0.941-2.016-1.949 3.292-0.269 0.605 0.134-0.403 2.352-6.047 4.031-12.363 5.174-18.679 1.209-6.652 9.608-11.019 15.857-9.004 7.122 2.285 10.348 8.735 9.004 15.857-4.972 26.877-19.553 50.192-41.928 65.848-19.62 13.707-43.54 19.822-67.057 22.375-20.897 2.285-41.928 1.142-62.623-2.016-28.892-4.435-55.231-16.395-77.606-35.276-14.11-11.96-25.802-26.541-35.343-42.331-10.415-17.268-18.746-36.149-23.45-55.769-7.929-32.722-5.913-67.057 4.703-98.906 8.869-26.742 22.845-51.402 39.173-74.314 18.612-26.138 39.777-49.991 63.765-71.357 54.828-48.848 119.735-86.543 188.002-113.218 7.593-2.956 15.32-5.778 23.047-8.466-1.881 1.075-3.763 2.217-5.711 3.292 1.142-0.873 2.217-1.747 3.36-2.62 4.771-3.763 10.012-4.905 15.588-2.016 34.066 17.671 67.192 37.359 98.1 60.136 31.177 22.98 60.405 48.781 85.132 78.749 20.561 24.928 37.493 52.208 51.603 81.235 13.102 26.944 24.055 55.366 29.43 84.93 6.249 34.066 5.711 69.678-6.316 102.534-13.774 37.694-40.315 71.357-75.053 91.784-17.403 10.28-36.619 16.999-56.643 19.687-8.601 1.142-17.268 1.613-25.869 1.747-19.553 0.269-39.374-1.613-58.322-6.518-21.703-5.644-42.801-15.79-58.725-31.916-19.486-19.754-28.624-46.228-30.438-73.508-0.538-7.794-0.403-15.656 0.202-23.45 0.47-6.719 5.577-13.237 12.901-12.901 6.585 0.605 13.438 6.047 12.968 13.237v0z" />
<glyph unicode="&#xe910;" d="M634.893 516.132c0.941-7.391-4.771-14.782-12.632-16.328-6.45-1.277-12.834 4.166-13.304 12.43-0.47 7.794 0.941 15.723 9.407 18.814 6.585 2.419 15.454-6.114 16.529-14.917z" />
<glyph unicode="&#xe911;" d="M428.548 508.674c0.941-7.391-4.771-14.782-12.632-16.328-6.45-1.277-12.834 4.166-13.304 12.43-0.47 7.794 0.941 15.723 9.407 18.814 6.585 2.419 15.454-6.047 16.529-14.917z" />
<glyph unicode="&#xe912;" d="M411.616 435.973c22.24-32.050 54.694-58.39 93.934-65.445 34.133-6.114 69.006 2.62 95.614 25.13 15.723 13.304 27.011 30.774 34.604 49.789 1.68 4.3-1.881 9.407-5.98 10.549-4.905 1.344-8.869-1.68-10.549-5.98-0.134-0.336-1.277-3.091-0.739-1.881-0.403-0.941-0.806-1.814-1.209-2.688-0.941-2.016-1.949-4.031-2.956-5.98-1.881-3.628-3.964-7.122-6.249-10.482-1.075-1.68-2.285-3.292-3.427-4.905-0.134-0.202-1.008-1.277-0.067-0.134-0.269-0.336-0.47-0.605-0.739-0.941-0.739-0.941-1.478-1.814-2.217-2.688-2.486-2.956-5.174-5.711-7.929-8.399-1.344-1.277-2.822-2.553-4.233-3.83-0.672-0.605-1.344-1.142-2.016-1.68-0.403-0.336-0.806-0.605-1.209-0.941 0.941 0.739 0.202 0.134-0.336-0.269-3.024-2.217-6.114-4.3-9.272-6.182-3.292-1.949-6.652-3.696-10.146-5.308-0.47-0.202-0.873-0.403-1.344-0.605 0.134 0.067 1.277 0.538 0.336 0.134-0.806-0.336-1.613-0.672-2.419-0.941-1.814-0.672-3.696-1.344-5.577-1.949-3.628-1.142-7.324-2.15-11.019-2.889-1.814-0.336-3.628-0.672-5.443-0.941-1.545-0.269 1.142 0.134-1.008-0.134-1.008-0.134-1.949-0.202-2.956-0.336-7.66-0.672-15.32-0.47-22.912 0.403-1.68 0.202-0.336 0.067 0 0-0.538 0.067-1.008 0.134-1.545 0.202-0.873 0.134-1.747 0.269-2.688 0.47-2.016 0.403-4.099 0.806-6.114 1.277-3.83 0.941-7.66 2.016-11.355 3.36-4.771 1.68-6.182 2.217-10.348 4.233-3.763 1.814-7.458 3.763-11.087 5.98-4.233 2.553-8.332 5.308-12.229 8.265 0.873-0.672-0.269 0.202-0.403 0.269-0.605 0.47-1.142 0.941-1.747 1.411-1.075 0.873-2.083 1.747-3.091 2.62-1.949 1.68-3.897 3.427-5.778 5.241-8.13 7.727-14.984 15.924-21.165 24.861-2.62 3.83-7.525 5.577-11.759 3.091-3.897-2.217-5.846-7.929-3.225-11.759v0z" />
<glyph unicode="&#xe913;" d="M719.353 259.057c-37.426 47.84-74.851 95.748-112.277 143.588-0.403 0.538-0.873 1.008-1.344 1.478 28.892 27.414 48.647 67.326 51.67 105.289 3.292 40.852-1.814 82.914-29.9 113.823-18.612 20.493-41.524 28.825-65.041 41.659-25.13 13.707-56.508 17.94-85.132 17.537-20.292-0.336-32.386-7.391-51.402-14.513-45.757-17.134-87.080-62.824-92.724-111.336-17.335-83.385 12.901-119.601 40.046-141.102s34.201-27.481 67.528-37.090c39.777-11.423 80.496-16.731 119.467-2.889 3.561 1.277 6.988 2.688 10.415 4.3 1.075-3.024 2.755-5.98 4.838-8.668 37.426-47.84 37.426-157.43 98.167-157.43 23.248 0 37.762 6.182 45.623 13.841 9.541 9.205 7.458 22.039 0.067 31.513zM551.24 400.899c-32.454-11.96-66.587-7.996-99.914 1.142-27.952 7.66-33.932 12.565-56.844 30.303-22.912 17.671-48.58 47.572-35.007 117.451 4.166 40.651 38.232 79.286 76.262 94.135 15.857 6.182 25.869 12.229 42.801 12.699 23.92 0.672 50.192-2.553 71.357-13.707 19.822-10.482 39.038-17.134 54.828-34.066 23.786-25.533 28.556-60.674 26.205-94.807-3.024-46.564-35.948-96.957-79.689-113.151z" />
<glyph unicode="&#xe914;" d="M689.453 255.765c-37.426 47.84-74.851 95.748-112.277 143.588-0.403 0.538-0.873 1.008-1.344 1.478 28.892 27.414 48.647 67.326 51.67 105.289 3.292 40.852-1.814 82.914-29.9 113.823-18.612 20.493-41.524 28.825-65.041 41.659-25.13 13.707-56.508 17.94-85.132 17.537-20.292-0.336-32.386-7.391-51.402-14.513-45.757-17.134-87.080-62.824-92.724-111.336-17.335-83.385 12.901-119.601 40.046-141.102s34.201-27.481 67.528-37.090c39.777-11.423 80.496-16.731 119.467-2.889 3.561 1.277 6.988 2.688 10.415 4.3 1.075-3.024 2.755-5.98 4.838-8.668 37.426-47.84 74.851-95.748 112.277-143.588 7.458-9.541 23.719-7.727 31.58 0 9.541 9.205 7.391 22.039 0 31.513zM521.407 397.606c-32.454-11.96-66.587-7.996-99.914 1.142-27.952 7.66-33.932 12.565-56.844 30.303s-48.58 47.639-35.007 117.518c4.166 40.651 38.232 79.286 76.262 94.135 15.857 6.182 25.869 12.229 42.801 12.699 23.92 0.672 50.192-2.553 71.357-13.707 19.822-10.482 39.038-17.134 54.828-34.066 23.786-25.533 28.556-60.674 26.205-94.807-3.091-46.631-36.015-97.092-79.689-113.218z" />
<glyph unicode="&#xe915;" d="M545.327 557.052c-33.327 22.778-81.436 14.177-111.74-3.83-30.236-18.007-42.532-64.571-39.777-99.712 2.62-33.193 27.145-62.488 57.919-75.255s62.623-20.964 93.464-8.466c16.395 6.652 36.418 27.347 44.346 43.137 38.904 77.405-3.628 128.739-44.212 144.126z" />
<glyph unicode="&#xe916;" d="M551.576 567.803c-21.636 14.581-48.378 17.403-73.642 13.841-11.288-1.613-22.308-4.636-32.857-9.004-11.087-4.569-21.636-10.012-30.438-18.276-16.328-15.252-25.802-37.359-30.236-58.86-4.636-22.442-5.644-47.236 3.091-68.804 9.272-23.047 26.473-42.465 48.244-54.492 12.498-6.921 26.675-11.96 40.517-15.723 14.245-3.897 29.363-6.249 44.145-5.039 14.11 1.209 28.489 4.771 40.449 12.565 10.549 6.854 19.956 15.656 27.817 25.466 16.664 20.762 26.339 47.572 28.422 74.045 3.158 41.121-19.082 80.831-55.635 99.914-4.166 2.15-8.466 4.031-12.834 5.644-6.114 2.352-13.976-2.553-15.32-8.735-1.613-7.122 2.15-12.834 8.735-15.32 0.806-0.269 1.68-0.806 2.486-0.941-0.134 0-2.956 1.277-1.142 0.47 0.403-0.202 0.806-0.336 1.209-0.538 1.68-0.739 3.292-1.545 4.905-2.419 3.427-1.814 6.719-3.83 9.944-6.114 0.672-0.47 1.344-1.008 2.083-1.478 2.62-1.949-1.209 1.075 0.336-0.269 1.613-1.344 3.225-2.688 4.771-4.099 2.956-2.688 5.778-5.577 8.332-8.668 0.672-0.806 1.277-1.613 1.949-2.352 1.008-1.209-1.478 2.016-0.538 0.672 0.269-0.403 0.605-0.806 0.941-1.277 1.277-1.814 2.553-3.628 3.696-5.51 0.672-1.075 6.585-10.751 5.913-11.288 0 0-1.142 2.956-0.336 0.739 0.202-0.538 0.403-1.008 0.605-1.545 0.336-0.873 0.672-1.814 1.008-2.688 0.739-2.285 1.478-4.569 2.016-6.854 0.538-2.217 1.008-4.502 1.411-6.719 0.067-0.47 0.538-3.83 0.336-1.814-0.202 1.881 0-0.067 0.067-0.538 0.067-0.739 0.134-1.478 0.202-2.217 0.403-4.972 0.47-10.012 0.134-14.984-0.067-1.344-0.202-2.62-0.336-3.897-0.067-0.672-0.134-1.344-0.202-2.016 0.269 2.755 0.134 0.873 0 0.269-0.47-2.956-1.008-5.846-1.68-8.735-1.344-5.846-3.091-11.624-5.241-17.335-0.538-1.478-1.142-3.024-1.747-4.502-0.538-1.344-0.067-0.134 0.067 0.134-0.336-0.739-0.672-1.545-1.008-2.285-1.344-2.956-2.688-5.913-4.3-8.802-1.142-2.083-2.419-4.099-3.763-6.114-0.605-0.941-1.277-1.814-1.949-2.755-0.403-0.538-0.806-1.075-1.142-1.545 1.747 2.419-0.269-0.336-0.538-0.605-3.494-4.3-7.324-8.332-11.355-12.094-1.881-1.747-3.83-3.427-5.846-5.107-0.269-0.269-2.016-1.545-0.739-0.605 1.277 1.008-0.403-0.269-0.739-0.538-1.142-0.873-2.352-1.68-3.561-2.486-2.016-1.344-4.099-2.553-6.249-3.628-0.336-0.202-0.806-0.336-1.142-0.538-1.478-0.941 2.62 0.941 0.47 0.202-1.814-0.672-3.561-1.344-5.443-1.949-3.158-1.008-6.383-1.814-9.676-2.486-0.806-0.134-1.613-0.269-2.419-0.403-0.403-0.067-2.419-0.269-0.336-0.067-1.613-0.202-3.225-0.336-4.838-0.47-3.225-0.202-6.518-0.269-9.743-0.134-1.613 0.067-3.225 0.134-4.905 0.269-0.806 0.067-1.613 0.134-2.419 0.202-0.269 0-3.427 0.47-2.016 0.202 1.277-0.202-0.739 0.134-0.806 0.134-0.806 0.134-1.613 0.269-2.419 0.403-1.613 0.269-3.225 0.605-4.905 0.941-3.494 0.739-6.921 1.613-10.348 2.62-6.585 1.881-13.035 4.166-19.351 6.585-1.613 0.605-3.225 1.277-4.838 1.949-0.403 0.134-2.889 1.277-1.209 0.47 1.545-0.672-0.403 0.202-0.739 0.336-2.553 1.142-5.039 2.419-7.458 3.83-2.15 1.209-4.233 2.486-6.249 3.897-0.941 0.672-1.881 1.277-2.822 1.949-0.538 0.403-1.075 0.806-1.613 1.142 2.419-1.747-0.202 0.202-0.605 0.47-4.031 3.292-7.861 6.921-11.355 10.885-0.873 1.008-1.747 1.949-2.553 2.956-0.403 0.538-0.806 1.008-1.209 1.545 0.269-0.336 1.478-2.016 0.202-0.202-1.545 2.083-3.024 4.233-4.367 6.45s-2.62 4.502-3.763 6.786c-0.605 1.142-1.142 2.352-1.68 3.494-0.134 0.269-0.739 1.747-0.134 0.269 0.672-1.68-0.336 0.873-0.47 1.209-1.814 4.838-3.225 9.877-4.099 14.917-0.134 0.605-0.269 1.277-0.336 1.949 0.134-2.822 0.134-1.075 0.067-0.403-0.134 1.209-0.202 2.419-0.336 3.628-0.134 2.486-0.269 4.905-0.269 7.391 0 4.838 0.202 9.608 0.672 14.446 0.134 1.209 0.269 2.419 0.403 3.696 0.202 1.814-0.336-2.352-0.067-0.538 0.067 0.47 0.134 0.941 0.202 1.411 0.403 2.755 0.941 5.51 1.545 8.265 1.075 4.905 2.352 9.743 3.964 14.446 0.739 2.217 1.545 4.367 2.419 6.518 1.142 2.956-0.739-1.613 0.538 1.277 0.538 1.277 1.142 2.486 1.747 3.696 2.15 4.3 4.569 8.466 7.324 12.363 0.538 0.806 2.016 3.763 0.672 1.008 0.47 0.941 1.545 1.881 2.217 2.688 1.478 1.747 3.091 3.36 4.771 4.972 0.806 0.806 1.68 1.545 2.553 2.285 0.269 0.202 0.941 0.941 1.344 1.075-0.202-0.067-2.352-1.68-0.47-0.403s3.763 2.553 5.778 3.696c2.083 1.209 4.233 2.352 6.45 3.427 1.142 0.538 2.217 1.075 3.36 1.613 0.605 0.269 1.142 0.538 1.747 0.739 2.15 0.941-1.344-0.538 0.067 0.067 4.905 1.881 9.743 3.628 14.782 5.039 5.174 1.411 10.415 2.419 15.723 3.292 1.881 0.269-2.15-0.202-0.336-0.067 0.672 0.067 1.344 0.134 2.016 0.202 1.344 0.134 2.688 0.269 4.031 0.336 2.822 0.202 5.711 0.269 8.601 0.269 2.486 0 5.039-0.134 7.525-0.336 1.344-0.134 2.688-0.269 3.964-0.403 1.478-0.134-0.739 0.067-0.806 0.134 1.008-0.202 1.949-0.336 2.956-0.47 5.308-0.941 10.28-2.486 15.32-4.3 0.538-0.202 2.217-0.941-0.202 0.134 0.605-0.269 1.209-0.538 1.814-0.806 1.209-0.538 2.419-1.142 3.561-1.747 2.352-1.277 4.703-2.688 6.921-4.166 5.443-3.628 14.043-1.209 17.067 4.502 3.36 6.316 1.344 13.17-4.502 17.067v0z" />
<glyph unicode="&#xe917;" d="M354.301 336.059c-21.77-20.225-43.607-40.449-65.377-60.674-4.771-4.435-4.838-13.17 0-17.671 5.107-4.703 12.498-4.771 17.671 0 21.77 20.225 43.607 40.449 65.377 60.674 4.771 4.435 4.838 13.17 0 17.671-5.107 4.703-12.565 4.703-17.671 0v0z" />
<glyph unicode="&#xe918;" d="M465.705 263.089c-2.285-29.631-4.569-59.263-6.854-88.894-0.538-6.518 6.114-12.766 12.498-12.498 7.19 0.336 11.96 5.51 12.498 12.498 2.285 29.631 4.569 59.263 6.854 88.894 0.538 6.518-6.114 12.766-12.498 12.498-7.257-0.336-11.96-5.51-12.498-12.498v0z" />
<glyph unicode="&#xe919;" d="M596.393 321.814c19.418-22.509 38.837-45.018 58.255-67.528 4.3-4.972 13.304-4.703 17.671 0 4.838 5.308 4.569 12.363 0 17.671-19.418 22.509-38.837 45.018-58.255 67.528-4.3 4.972-13.304 4.703-17.671 0-4.838-5.308-4.569-12.363 0-17.671v0z" />
<glyph unicode="&#xe91a;" d="M688.983 409.902c29.43-4.3 58.86-8.533 88.29-12.834 6.45-0.941 13.707 1.613 15.32 8.735 1.344 5.913-1.814 14.312-8.735 15.32-29.43 4.3-58.86 8.533-88.29 12.834-6.45 0.941-13.707-1.613-15.32-8.735-1.344-5.913 1.814-14.312 8.735-15.32v0z" />
<glyph unicode="&#xe91b;" d="M643.561 548.586c24.525 16.731 49.117 33.529 73.642 50.259 5.375 3.696 8.332 11.154 4.502 17.067-3.427 5.375-11.288 8.399-17.067 4.502-24.525-16.731-49.117-33.529-73.642-50.259-5.375-3.696-8.332-11.154-4.502-17.067 3.494-5.375 11.288-8.466 17.067-4.502v0z" />
<glyph unicode="&#xe91c;" d="M472.894 638.085c-6.45 29.027-12.901 58.054-19.351 87.080-1.411 6.383-9.138 10.683-15.32 8.735-6.719-2.15-10.213-8.533-8.735-15.32 6.45-29.027 12.901-58.054 19.351-87.080 1.411-6.383 9.138-10.683 15.32-8.735 6.719 2.15 10.213 8.466 8.735 15.32v0z" />
<glyph unicode="&#xe91d;" d="M334.413 512.168c-29.228 5.51-58.457 11.019-87.685 16.529-6.383 1.209-13.774-1.747-15.32-8.735-1.411-6.114 1.881-14.043 8.735-15.32 29.228-5.51 58.457-11.019 87.685-16.529 6.383-1.209 13.774 1.747 15.32 8.735 1.344 6.114-1.881 14.043-8.735 15.32v0z" />
</font>
</defs>
</svg>
