<svg width="85" height="84" viewBox="0 0 85 84" fill="none" xmlns="http://www.w3.org/2000/svg">
<path d="M69.5579 76.8203C62.383 83.7715 50.2297 85.3813 39.9067 82.8935C28.8516 80.2593 28.9248 65.2593 20.4321 56.4057C10.7681 46.5276 3.30036 46.3813 0.518273 33.8691C-1.38526 25.0886 2.12895 16.8203 8.20561 10.9667C14.868 4.52763 23.5803 0.43007 32.1462 0.0642159C45.7637 -0.52115 64.433 2.77153 74.6828 15.0642C84.9326 27.3569 87.0557 43.0886 83.1754 55.7471C80.9059 63.2106 75.6345 70.9667 69.5579 76.8203Z" fill="#EDF9FF"/>
<path d="M44.7394 12.9413H9.96338V15.7218H44.7394V12.9413Z" fill="#1EB5FC"/>
<path d="M44.7394 19.8925H9.96338V22.6729H44.7394V19.8925Z" fill="#1EB5FC"/>
<path d="M44.7394 26.8438H9.96338V29.6242H44.7394V26.8438Z" fill="#1EB5FC"/>
<path d="M44.7394 33.7949H9.96338V36.5754H44.7394V33.7949Z" fill="#1EB5FC"/>
<path d="M33.2451 40.7462H10.0366V43.5267H33.2451V40.7462Z" fill="#1EB5FC"/>
<path d="M72.8531 43.0876L70.8764 41.112L51.3286 60.7218L43.4216 52.8925L63.0426 33.2827L61.0659 31.3071L40.2002 52.1608L34.7825 68.3315C34.636 68.8437 35.0021 69.4291 35.5146 69.4291C35.5878 69.4291 35.661 69.4291 35.8075 69.3559L51.9875 63.9413L72.8531 43.0876ZM38.736 65.4779L42.1038 55.4535L48.7661 62.112L38.736 65.4779Z" fill="#1EB5FC"/>
<path d="M38.736 65.4779L48.7661 62.112L42.1037 55.4535L38.736 65.4779ZM44.2269 61.0876L42.6162 61.5998L43.1287 59.9901L44.2269 61.0876Z" fill="white"/>
<path d="M71.5353 22.0144C71.3888 21.8681 71.1692 21.7949 70.9496 21.7949C70.7299 21.7949 70.5103 21.8681 70.3638 22.0144L62.8229 29.551L74.6102 41.3315L82.2243 33.7218C82.5172 33.4291 82.5172 32.9169 82.2243 32.551L71.5353 22.0144ZM74.6102 37.4535L66.7764 29.551L71.0228 25.3071L78.8565 33.1364L74.6102 37.4535Z" fill="#1EB5FC"/>
<path d="M50.3768 46.0145L53.1589 43.2341V39.2828L50.3768 42.0633V46.0145Z" fill="#1EB5FC"/>
<path d="M52.7928 66.2828L50.3768 67.0877V71.9901H4.47239V5.25839H50.3768V38.5511L53.1589 35.7706V2.47791H1.69031V74.7706H53.1589V66.2096L52.7928 66.2828Z" fill="#1EB5FC"/>
<path d="M53.1589 62.8437V58.8925L51.3285 60.7217L50.3768 59.7705V64.5266L51.9875 63.9412L53.1589 62.8437Z" fill="#1EB5FC"/>
<path d="M70.9538 25.3476L66.7087 29.5902L74.5776 37.4545L78.8226 33.2119L70.9538 25.3476Z" fill="white"/>
<path d="M20.4328 66.5022L12.5258 58.5266L14.5026 56.6242L20.4328 62.551L33.3914 49.673L35.3682 51.5754L20.4328 66.5022Z" fill="#1EB5FC"/>
</svg>
