<svg width="31" height="21" viewBox="0 0 31 21" fill="none" xmlns="http://www.w3.org/2000/svg">
<path d="M5.5424 10.5212C6.38786 10.5212 7.04543 9.86364 7.04543 9.01818C7.04543 8.73636 6.85756 8.45454 6.57574 8.45454C6.29392 8.45454 6.0121 8.73636 6.0121 9.01818C6.0121 9.3 5.73028 9.58182 5.44847 9.58182C5.16665 9.58182 4.97877 9.3 4.97877 9.01818C4.97877 8.73636 4.79089 8.45454 4.50907 8.45454C4.22725 8.45454 3.94543 8.73636 3.94543 9.01818C3.94543 9.86364 4.69695 10.5212 5.5424 10.5212Z" fill="#1EB5FC"/>
<path d="M6.48178 11.4606C6.19996 11.4606 6.01208 11.6485 6.01208 11.9303C6.01208 12.7758 6.66966 13.4333 7.51512 13.4333C8.36057 13.4333 9.01815 12.7758 9.01815 11.9303C9.01815 11.6485 8.83027 11.4606 8.54845 11.4606C8.26663 11.4606 8.07875 11.6485 8.07875 11.9303C8.07875 12.2121 7.79693 12.4939 7.51512 12.4939C7.2333 12.4939 6.95148 12.3061 6.95148 11.9303C6.95148 11.7424 6.7636 11.4606 6.48178 11.4606Z" fill="#1EB5FC"/>
<path d="M9.48789 10.5212C10.3333 10.5212 10.9909 9.86364 10.9909 9.01818C10.9909 8.73636 10.803 8.54848 10.5212 8.54848C10.2394 8.54848 10.0515 8.73636 10.0515 9.01818C10.0515 9.3 9.76971 9.58182 9.48789 9.58182C9.20608 9.58182 8.92426 9.39394 8.92426 9.01818C8.92426 8.73636 8.73638 8.45454 8.45456 8.45454C8.17274 8.45454 7.98486 8.73636 7.98486 9.01818C7.98486 9.86364 8.64244 10.5212 9.48789 10.5212Z" fill="#1EB5FC"/>
<path d="M13.903 5.07273C13.6212 5.35455 13.2455 5.44848 12.7758 5.44848C12.4939 5.44848 12.1182 5.44848 11.7424 5.44848C11.6485 5.44848 11.5545 5.44848 11.3667 5.44848C11.0848 5.44848 10.803 5.44848 10.4273 5.44848H6.6697C6.85758 4.97879 7.04545 4.50909 7.04545 3.94545C7.04545 3.47576 6.95152 3.00606 6.76364 2.6303L6.85758 2.53636L7.04545 2.25455C7.04545 2.25455 7.42121 1.78485 8.45455 1.59697C9.58182 1.40909 11.4606 1.59697 14.5606 2.81818C14.4667 4.03939 14.2788 4.79091 13.903 5.07273ZM11.9303 10.9909C11.8364 11.9303 11.3667 12.9636 10.6152 13.7152C9.7697 14.5606 8.64242 15.0303 7.51515 15.0303C6.38788 15.0303 5.16667 14.5606 4.32121 13.7152C3.5697 12.9636 3.1 12.0242 3.00606 10.9909C3.00606 10.897 3.00606 8.73636 3.00606 7.42121C3.19394 7.42121 3.28788 7.42121 3.47576 7.42121C4.41515 7.42121 5.26061 7.04545 5.91818 6.38788H10.4273C10.7091 6.38788 10.9909 6.38788 11.2727 6.38788C11.4606 6.38788 11.6485 6.38788 11.8364 6.38788C12.0242 6.85758 12.0242 10.803 11.9303 10.9909ZM10.9909 17.4727C12.4939 17.4727 13.7152 18.6 13.903 20.0091H8.17273L8.92424 17.4727H10.9909ZM7.51515 18.6939L6.95152 16.9091C6.85758 16.7212 6.6697 16.5333 6.48182 16.5333V15.9697C6.85758 15.9697 7.13939 15.9697 7.51515 15.9697C7.89091 15.9697 8.17273 15.9697 8.54848 15.8758V16.4394C8.36061 16.4394 8.17273 16.6273 8.07879 16.8152L7.51515 18.6939ZM1.03333 20.0091C1.31515 18.6 2.53636 17.4727 3.94545 17.4727H6.10606L6.85758 20.0091H1.03333ZM4.32121 3.85151C4.69697 3.47576 5.26061 3.1 5.7303 2.91212C5.91818 3.28788 6.01212 3.66364 6.01212 4.03939C6.01212 5.44848 4.88485 6.57576 3.47576 6.57576C3.28788 6.57576 3.19394 6.57576 3.00606 6.57576C3.1 5.44848 3.5697 4.60303 4.32121 3.85151ZM15.5 2.53636V1.50303C15.5 1.22121 15.3121 1.03333 15.0303 1.03333C14.7485 1.03333 14.5606 1.22121 14.5606 1.50303V1.78485C8.26667 -0.751515 6.48182 1.22121 6.10606 1.69091C5.16667 1.87879 4.32121 2.44242 3.5697 3.1C2.72424 3.94545 2.16061 5.16667 2.06667 6.38788C2.06667 6.6697 2.06667 10.897 2.06667 11.0848C2.16061 12.3061 2.72424 13.5273 3.66364 14.3727C4.22727 14.9364 4.88485 15.3121 5.54242 15.5939V16.4394H4.03939C1.87879 16.4394 0 18.2242 0 20.4788C0 20.7606 0.187879 20.9485 0.469697 20.9485H7.51515H14.4667C14.7485 20.9485 14.9364 20.7606 14.9364 20.4788V20.3848C14.8424 18.2242 13.1515 16.4394 10.897 16.4394H9.39394V15.5939C10.0515 15.3121 10.7091 14.9364 11.2727 14.3727C12.1182 13.5273 12.6818 12.3061 12.8697 11.0848C12.8697 10.897 12.8697 7.13939 12.8697 6.48182C13.5273 6.38788 14.0909 6.29394 14.5606 5.82424C15.2182 5.26061 15.5 4.22727 15.5 2.53636Z" fill="#1EB5FC"/>
<path d="M22.5455 10.5212C22.8273 10.5212 23.0152 10.3333 23.0152 10.0515C23.0152 9.20606 22.3576 8.54848 21.5122 8.54848C20.6667 8.54848 20.0092 9.20606 20.0092 10.0515C20.0092 10.3333 20.197 10.5212 20.4789 10.5212C20.7607 10.5212 20.9485 10.3333 20.9485 10.0515C20.9485 9.7697 21.2304 9.48788 21.5122 9.48788C21.794 9.48788 22.0758 9.67576 22.0758 10.0515C21.9819 10.2394 22.2637 10.5212 22.5455 10.5212Z" fill="#1EB5FC"/>
<path d="M24.9879 12.0242C24.9879 11.7424 24.8 11.5545 24.5182 11.5545C24.2364 11.5545 24.0485 11.7424 24.0485 12.0242C24.0485 12.3061 23.7667 12.5879 23.4848 12.5879C23.203 12.5879 22.9212 12.4 22.9212 12.0242C22.9212 11.7424 22.7333 11.5545 22.4515 11.5545C22.1697 11.5545 21.9818 11.7424 21.9818 12.0242C21.9818 12.8697 22.6394 13.5273 23.4848 13.5273C24.3303 13.5273 24.9879 12.8697 24.9879 12.0242Z" fill="#EB5E54"/>
<path d="M24.4243 10.5212C24.7061 10.5212 24.894 10.3333 24.894 10.0515C24.894 9.7697 25.1758 9.48788 25.4576 9.48788C25.7394 9.48788 26.0213 9.67576 26.0213 10.0515C26.0213 10.3333 26.3031 10.5212 26.491 10.5212C26.7728 10.5212 26.9607 10.3333 26.9607 10.0515C26.9607 9.20606 26.3031 8.45454 25.4576 8.45454C24.6122 8.45454 23.9546 9.11212 23.9546 9.95757C23.9546 10.2394 24.1425 10.5212 24.4243 10.5212Z" fill="#1EB5FC"/>
<path d="M24.1425 20.0091L24.894 17.4727H27.0546C28.5576 17.4727 29.7788 18.6 29.9667 20.0091H24.1425ZM23.4849 18.6939L22.9212 16.9091C22.8273 16.7212 22.6394 16.5333 22.4515 16.5333V15.9697C22.8273 15.9697 23.1091 15.9697 23.4849 15.9697C23.8606 15.9697 24.1425 15.9697 24.5182 15.8758V16.4394C24.3303 16.4394 24.1425 16.6273 24.0485 16.8152L23.4849 18.6939ZM17.0031 20.0091C17.2849 18.6 18.5061 17.4727 19.9152 17.4727H22.0758L22.8273 20.0091H17.0031ZM20.2909 13.7152C19.5394 12.9636 19.0697 12.0242 18.9758 10.9909C18.9758 10.897 18.9758 8.26667 18.9758 7.04545C19.6334 7.60909 20.5728 7.98485 21.5122 7.98485C22.9212 7.98485 24.2364 7.23333 24.894 6.01212C25.5515 6.85758 26.5849 7.42121 27.7122 7.42121C27.8061 7.42121 27.9 7.42121 27.9 7.42121C27.9 8.73636 27.9 10.803 27.9 10.897C27.8061 11.8364 27.3364 12.8697 26.5849 13.6212C25.8334 14.5606 24.6122 15.0303 23.4849 15.0303C22.3576 15.0303 21.2303 14.5606 20.2909 13.7152ZM18.5061 3.47576C17.9425 3.47576 17.4728 3.00606 17.4728 2.44242C17.4728 1.87879 17.9425 1.40909 18.5061 1.40909C19.0697 1.40909 19.5394 1.87879 19.5394 2.44242C19.5394 3.00606 19.0697 3.47576 18.5061 3.47576ZM20.2909 3.85152C21.1364 3.00606 22.3576 2.53636 23.4849 2.53636C23.8606 2.53636 24.2364 2.53636 24.5182 2.6303C24.3303 3.1 24.2364 3.5697 24.2364 4.03939C24.2364 4.32121 24.2364 4.60303 24.3303 4.88485C23.9546 6.10606 22.8273 7.04545 21.5122 7.04545C20.5728 7.04545 19.7273 6.57576 19.1637 5.82424C19.3515 5.07273 19.7273 4.41515 20.2909 3.85152ZM25.4576 3.00606C25.9273 3.19394 26.3031 3.47576 26.6788 3.85152C27.4303 4.60303 27.9 5.54242 27.994 6.48182C27.9 6.48182 27.9 6.48182 27.8061 6.48182C26.397 6.48182 25.2697 5.35455 25.2697 3.94545C25.2697 3.66364 25.3637 3.28788 25.4576 3.00606ZM28.4637 1.50303C29.0273 1.50303 29.497 1.97273 29.497 2.53636C29.497 3.1 29.0273 3.5697 28.4637 3.5697C27.9 3.5697 27.4303 3.1 27.4303 2.53636C27.5243 1.97273 27.9 1.50303 28.4637 1.50303ZM31 20.3848C30.9061 18.2242 29.2152 16.4394 26.9606 16.4394H25.4576V15.5939C26.1152 15.3121 26.7728 14.9364 27.3364 14.3727C28.1818 13.5273 28.7455 12.3061 28.9334 11.0848C28.9334 10.803 28.9334 6.57576 28.9334 6.38788C28.8394 5.7303 28.6515 5.07273 28.3697 4.50909H28.4637C29.5909 4.50909 30.4364 3.5697 30.4364 2.53636V0.469697C30.4364 0.187879 30.2485 0 29.9667 0C29.6849 0 29.497 0.187879 29.497 0.469697V0.751515C29.2152 0.563636 28.8394 0.469697 28.4637 0.469697C27.4303 0.469697 26.4909 1.31515 26.4909 2.34848C25.6455 1.78485 24.6122 1.40909 23.4849 1.40909C22.3576 1.40909 21.3243 1.69091 20.4788 2.34848C20.3849 1.31515 19.5394 0.469697 18.5061 0.469697C17.3788 0.469697 16.5334 1.40909 16.5334 2.44242C16.5334 3.5697 17.4728 4.41515 18.5061 4.41515H18.6C18.3182 4.97879 18.1303 5.63636 18.0364 6.29394C18.0364 6.57576 18.0364 10.803 18.0364 10.9909C18.1303 12.2121 18.694 13.4333 19.6334 14.2788C20.197 14.8424 20.8546 15.2182 21.5122 15.5V16.3455H20.0091C17.8485 16.3455 15.9697 18.1303 15.9697 20.3848C15.9697 20.6667 16.1576 20.8545 16.4394 20.8545H23.4849H30.4364C30.8122 20.9485 31 20.7606 31 20.3848C31 20.4788 31 20.4788 31 20.3848Z" fill="#1EB5FC"/>
</svg>
