<svg width="31" height="32" viewBox="0 0 31 32" fill="none" xmlns="http://www.w3.org/2000/svg">
<path d="M4.10117 25.8132H5.18677V26.8988L3.49805 28.5875V28.4669V27.5019H2.53307H2.41245L4.10117 25.8132ZM5.54864 24.8482H3.7393L0 28.5875H2.53307V31.1206L6.27237 27.3813V25.572L17.8521 13.9922L17.0078 13.2685L5.54864 24.8482Z" fill="#EB5E54"/>
<path d="M17.3695 11.2179C16.0427 11.2179 14.8364 12.3035 14.8364 13.751C14.8364 13.9922 14.8364 14.2335 14.957 14.4747L15.8014 13.6304C15.8014 12.9066 16.5251 12.1829 17.2489 12.1829C18.0932 12.1829 18.6963 12.9066 18.6963 13.6304C18.6963 14.4747 18.0932 15.0778 17.2489 15.0778L16.4045 15.9222C16.6458 16.0428 16.887 16.0428 17.1283 16.0428C18.4551 16.0428 19.6613 14.9572 19.6613 13.5097C19.9026 12.3035 18.817 11.2179 17.3695 11.2179Z" fill="#1EB5FC"/>
<path d="M17.3695 7.47859C13.9921 7.47859 11.0972 10.2529 11.0972 13.751C11.0972 15.0778 11.459 16.284 12.1828 17.249L12.9065 16.5253C12.424 15.6809 12.0621 14.7159 12.0621 13.751C12.1828 10.856 14.4746 8.44357 17.3695 8.44357C20.2645 8.44357 22.5563 10.7354 22.5563 13.6303C22.5563 16.5253 20.2645 18.8171 17.3695 18.8171C16.2839 18.8171 15.319 18.4552 14.5952 17.9728L13.8715 18.6965C14.8365 19.4202 16.0427 19.7821 17.3695 19.7821C20.747 19.7821 23.6419 17.0078 23.6419 13.5097C23.6419 10.2529 20.8676 7.47859 17.3695 7.47859Z" fill="#1EB5FC"/>
<path d="M17.3696 3.7393C11.8209 3.7393 7.47852 8.20234 7.47852 13.6304C7.47852 15.9222 8.32287 18.0934 9.64972 19.7821L10.3735 19.0584C9.16723 17.4903 8.4435 15.6809 8.4435 13.6304C8.4435 8.68483 12.424 4.70428 17.3696 4.70428C22.3151 4.70428 26.2956 8.68483 26.2956 13.6304C26.2956 18.5759 22.3151 22.5564 17.3696 22.5564C15.319 22.5564 13.389 21.8327 11.9416 20.6265L11.2178 21.3502C12.9065 22.677 15.0777 23.5214 17.3696 23.5214C22.9182 23.5214 27.2606 19.0584 27.2606 13.6304C27.2606 8.20234 22.9182 3.7393 17.3696 3.7393Z" fill="#1EB5FC"/>
<path d="M17.3696 0C9.89101 0 3.73926 6.15175 3.73926 13.6304C3.73926 17.0078 4.94548 20.144 6.99607 22.4358L7.7198 21.7121C5.91046 19.5409 4.70424 16.6459 4.70424 13.6304C4.70424 6.63424 10.3735 0.964981 17.3696 0.964981C24.3657 0.964981 30.035 6.63424 30.035 13.6304C30.035 20.6265 24.3657 26.2957 17.3696 26.2957C14.2334 26.2957 11.4591 25.2101 9.2879 23.2802L8.56416 24.1245C10.9766 26.1751 13.9922 27.3813 17.3696 27.3813C24.9688 27.3813 31 21.2296 31 13.751C31 6.27237 24.9688 0 17.3696 0Z" fill="#1EB5FC"/>
</svg>
