<svg width="32" height="33" viewBox="0 0 32 33" fill="none" xmlns="http://www.w3.org/2000/svg">
<path d="M12.2 17.3H6.40002V18.5H12.2V17.3Z" fill="#EB5E54"/>
<path d="M23.7 17.3H17.9V18.5H23.7V17.3Z" fill="#EB5E54"/>
<path d="M9.30002 26H6.40002V27.2H9.30002V26Z" fill="#EB5E54"/>
<path d="M20.8 26H17.9V27.2H20.8V26Z" fill="#EB5E54"/>
<path d="M12.2 20.2H6.40002V21.4H12.2V20.2Z" fill="#EB5E54"/>
<path d="M23.7 20.2H17.9V21.4H23.7V20.2Z" fill="#EB5E54"/>
<path d="M12.2 23.1H6.40002V24.3H12.2V23.1Z" fill="#EB5E54"/>
<path d="M23.7 23.1H17.9V24.3H23.7V23.1Z" fill="#EB5E54"/>
<path d="M23.4 11.5C23.4 11.6 23.4 11.6 23.3 11.7C23.2 12 23 12.3 22.9 12.6H26V28.8H17.9C16.9 28.8 16.1 29.2 15.6 29.6V14.9H14.4V29.7C13.9 29.2 13.2 28.9 12.1 28.9H4.00002V12.7H7.10002C6.90002 12.4 6.80002 12.1 6.70002 11.7C6.70002 11.6 6.70002 11.6 6.70002 11.5H2.90002V30H12.1C14.3 30 14.4 32.1 14.4 32.3H15.6C15.6 32.2 15.7 30 17.9 30H27.1V11.5H23.4Z" fill="#1EB5FC"/>
<path d="M21.7 8.6V10.6C21.7 11.8 20.5 13 19.4 13H10.6C9.49995 13 8.39995 11.9 8.39995 10.7V8.6L7.19995 8.2V10.6C7.19995 10.9 7.29995 11.2 7.29995 11.5C7.39995 11.9 7.59995 12.3 7.89995 12.7C8.49995 13.6 9.49995 14.1 10.6 14.1H14.4H15.6H19.4C20.4 14.1 21.4 13.5 22.1 12.7C22.4 12.4 22.6 12 22.7 11.5C22.8 11.2 22.9 10.9 22.9 10.5V8.2L21.7 8.6Z" fill="#1EB5FC"/>
<path d="M29.4 12.1C29.2 12.1 29 11.9 29 11.7C29 11.5 29.2 11.3 29.4 11.3C29.6 11.3 29.8 11.5 29.8 11.7C29.8 11.9 29.7 12.1 29.4 12.1ZM15 8.6L2.6 4.9L15 1.2L27.4 4.9L15 8.6ZM30 10.2V4.9C30 4.8 30 4.8 30 4.7C30 4.7 30 4.7 30 4.6C30 4.6 30 4.5 29.9 4.5C29.9 4.5 29.9 4.5 29.8 4.4L29.7 4.3C29.7 4.3 29.7 4.3 29.6 4.3L15.2 0C15.1 0 15.1 0 15 0C14.9 0 14.9 0 14.8 0L0.4 4.4C0.2 4.4 0 4.7 0 4.9C0 5.1 0.2 5.4 0.4 5.5L14.8 9.8C14.9 9.8 14.9 9.8 15 9.8C15.1 9.8 15.1 9.8 15.2 9.8L28.9 5.7V10.2C28.3 10.4 27.9 11 27.9 11.6C27.9 12.5 28.6 13.2 29.5 13.2C30.4 13.2 31.1 12.5 31.1 11.6C31 11 30.6 10.4 30 10.2Z" fill="#EB5E54"/>
</svg>
