<svg width="26" height="34" viewBox="0 0 26 34" fill="none" xmlns="http://www.w3.org/2000/svg">
<path d="M23.3867 12.7851V13.9091H24.3729V20.0909H23.3867V21.2149H25.5V12.7851H23.3867Z" fill="#EB5E54"/>
<path d="M3.9447 1.12397H18.7375V3.09091H3.9447V1.12397ZM2.81763 4.21488H19.8646V0H2.81763V4.21488Z" fill="#1EB5FC"/>
<path d="M3.9447 30.9091H18.7375V32.876H3.9447V30.9091ZM2.81763 34H19.8646V29.7851H2.81763V34Z" fill="#1EB5FC"/>
<path d="M11.9751 9.97521V6.7438H21.6961V16.438H18.5967V17.562H21.6961V27.2562H11.9751V24.1653H10.8481V27.2562H1.12707V17.562H4.22652V16.438H1.12707V6.7438H10.8481V9.83471H11.9751V9.97521ZM0 28.2397H22.6823V5.61983H0V28.2397Z" fill="#1EB5FC"/>
<path d="M11.9753 17.562H7.04431V16.438H10.8482V12.7851H11.9753V17.562Z" fill="#F15D53"/>
</svg>
