<svg width="94" height="93" viewBox="0 0 94 93" fill="none" xmlns="http://www.w3.org/2000/svg">
<path d="M84.7816 19.4285C92.1412 26.1992 94.4962 38.3424 92.5827 48.8665C90.5957 60.1266 75.5086 60.9361 67.1188 69.9883C57.6986 80.2181 57.993 87.7248 45.5554 91.2573C36.8712 93.686 28.4077 90.595 22.1521 84.8546C15.3078 78.599 10.6713 69.9883 9.78815 61.4513C8.38985 47.8362 10.6713 28.9222 22.4465 17.883C34.2218 6.84369 49.8975 3.75269 62.8503 6.91728C70.4306 8.75716 78.5996 13.688 84.7816 19.4285Z" fill="#EDF9FF"/>
<path d="M27.5246 0V2.50224L37.3128 20.6802C37.6071 21.269 37.7543 21.9314 37.7543 22.5937C37.7543 22.9617 37.6807 23.4033 37.6071 23.7712C37.1656 25.2431 36.0616 26.2735 34.5897 26.6415C33.1178 27.0094 31.6459 26.5679 30.542 25.5375L27.5246 21.5634V37.4599C27.5246 39.8886 25.5375 41.9492 23.0353 41.9492C22.3729 41.9492 21.7842 41.8021 21.269 41.5813C20.9746 43.7155 19.1347 45.4082 16.8533 45.4082C14.6454 45.4082 12.8056 43.7155 12.4376 41.5813C11.9224 41.8021 11.2601 41.9492 10.6713 41.9492C8.24266 41.9492 6.18199 39.9622 6.18199 37.4599V34.7369C5.66683 34.9577 5.07807 35.1049 4.48931 35.1049C2.06066 35.1049 0 33.1178 0 30.6156V4.6365L1.5455 3.091V0H4.26852V4.19492L2.72302 5.74042V30.542C2.72302 31.4987 3.45897 32.2347 4.41571 32.2347C5.37245 32.2347 6.1084 31.4987 6.1084 30.542V20.0179H8.83142V30.542V37.3863C8.83142 38.3431 9.56737 39.079 10.5241 39.079C11.4808 39.079 12.2168 38.3431 12.2168 37.3863V20.0179H14.9398V37.4599V40.9189C14.9398 41.8757 15.6758 42.6116 16.6325 42.6116C17.5892 42.6116 18.3252 41.8757 18.3252 40.9189V37.4599V20.0179H21.3426V37.4599C21.3426 38.4167 22.0786 39.1526 23.0353 39.1526C23.992 39.1526 24.728 38.4167 24.728 37.4599V17.9572V13.3943L27.451 17.0005L32.5291 23.7712C32.9706 24.1392 33.5594 24.0656 33.7802 23.992C34.001 23.9184 34.5897 23.6976 34.8105 22.9617C34.8841 22.5937 34.8841 22.2257 34.7369 21.9314L24.728 3.23819V0" fill="#1EB5FC"/>
<path d="M51.443 57.6988H44.3043V55.1965C43.8627 55.2701 43.4212 55.3437 42.906 55.3437C42.4644 55.3437 41.9493 55.2701 41.5077 55.1965V60.4954H51.3694V57.6988H51.443Z" fill="#1EB5FC"/>
<path d="M84.1935 37.092C82.1329 37.092 80.2194 37.9016 78.6739 39.2263V23.4033H65.6475V26.4943L66.3099 26.8623C68.0026 27.8926 69.0329 29.6589 69.0329 31.5724C69.0329 34.5898 66.6043 37.092 63.5133 37.092C60.4959 37.092 57.9936 34.5898 57.9936 31.5724C57.9936 29.5853 59.024 27.819 60.7167 26.8623L61.379 26.4943V23.4033H41.5819V35.5465C42.0235 35.4729 42.4651 35.3993 42.9802 35.3993C43.4218 35.3993 43.937 35.4729 44.3785 35.5465V26.1263H57.4785C56.1538 27.5982 55.3442 29.5853 55.3442 31.646C55.3442 36.2089 59.024 39.8886 63.5869 39.8886C68.1498 39.8886 71.8295 36.2089 71.8295 31.646C71.8295 29.5853 71.02 27.6718 69.6953 26.1263H75.9509V43.274H79.0419L79.4098 42.6117C80.4402 40.919 82.2065 39.8886 84.1199 39.8886C87.1373 39.8886 89.6396 42.3909 89.6396 45.4083C89.6396 48.4257 87.2109 50.9279 84.1199 50.9279C82.1329 50.9279 80.3666 49.8976 79.4098 48.2049L79.0419 47.5425H75.9509V51.6639C76.0981 52.179 76.2452 52.7678 76.2452 53.3566V54.0189C77.1284 54.0189 77.9379 54.2397 78.7475 54.5341V51.5167C80.2194 52.8414 82.2065 53.6509 84.2671 53.6509C88.83 53.6509 92.5098 49.9712 92.5098 45.4083C92.4362 40.8454 88.7564 37.092 84.1935 37.092Z" fill="#1EB5FC"/>
<path d="M53.2093 90.7427V88.2405L43.4212 70.0624C43.1268 69.4737 42.9796 68.8113 42.9796 68.149C42.9796 67.781 43.0532 67.3394 43.1268 66.9715C43.5683 65.4996 44.6723 64.4692 46.1442 64.1012C47.6161 63.7333 49.088 64.1748 50.1919 65.2052L53.2093 69.1793V53.2828C53.2093 50.8541 55.1964 48.7934 57.6986 48.7934C58.361 48.7934 58.9497 48.9406 59.4649 49.1614C59.7593 47.0272 61.5992 45.3345 63.8806 45.3345C66.0885 45.3345 67.9283 47.0272 68.2963 49.1614C68.8115 48.9406 69.4738 48.7934 70.0626 48.7934C72.4912 48.7934 74.5519 50.7805 74.5519 53.2828V56.0058C75.0671 55.785 75.6558 55.6378 76.2446 55.6378C78.6732 55.6378 80.7339 57.6249 80.7339 60.1271V86.1062L79.1884 87.6517V90.6691H76.4654V86.4742L78.0109 84.9287V60.1271C78.0109 59.1704 77.2749 58.4344 76.3182 58.4344C75.3615 58.4344 74.6255 59.1704 74.6255 60.1271V70.6512H71.9025V60.1271V53.2828C71.9025 52.326 71.1665 51.5901 70.2098 51.5901C69.2531 51.5901 68.5171 52.326 68.5171 53.2828V70.7248H65.7941V53.2828V49.8238C65.7941 48.867 65.0581 48.1311 64.1014 48.1311C63.1447 48.1311 62.4087 48.867 62.4087 49.8238V53.2828V70.7248H59.6857V53.2828C59.6857 52.326 58.9497 51.5901 57.993 51.5901C57.0363 51.5901 56.3003 52.326 56.3003 53.2828V72.7855V77.3484L53.5773 73.7422L48.0577 66.9715C47.6161 66.6035 47.0273 66.6771 46.8065 66.7507C46.5857 66.8243 45.997 67.045 45.7762 67.781C45.7026 68.149 45.7026 68.517 45.8498 68.8113L55.9323 87.5045V90.7427" fill="#1EB5FC"/>
<path d="M5.59323 42.6117C5.81402 42.3173 6.0348 42.0229 6.25559 41.7285C5.15166 40.6246 4.48931 39.1527 4.48931 37.46V36.7976C3.60616 36.7976 2.79662 36.6504 2.06067 36.2825V43.274H5.15166L5.59323 42.6117Z" fill="#1EB5FC"/>
<path d="M44.6723 37.0921C42.6116 37.0921 40.6981 37.9016 39.1526 39.2263V24.3601C38.7111 25.832 37.6807 27.0831 36.4296 27.8191V43.3477H39.5206L39.8886 42.6853C40.9189 40.9926 42.6852 39.9623 44.5987 39.9623C47.6161 39.9623 50.1183 42.4645 50.1183 45.4819C50.1183 48.4993 47.6897 51.0016 44.5987 51.0016C42.6116 51.0016 40.8453 49.9712 39.8886 48.2785L39.5206 47.6162H36.4296V57.9195H26.1263V61.0105L26.7886 61.3785C28.4813 62.4088 29.5117 64.1751 29.5117 66.0886C29.5117 69.106 27.083 71.6082 23.992 71.6082C20.9746 71.6082 18.4724 69.106 18.4724 66.0886C18.4724 64.1015 19.5027 62.3352 21.1954 61.3785L21.8578 61.0105V57.9195H4.78369V51.6639C6.25559 52.9886 8.24266 53.7982 10.3033 53.7982C14.3511 53.7982 17.6628 50.8544 18.3988 47.0274C17.8836 47.1746 17.3685 47.2482 16.8533 47.2482C16.4117 47.2482 15.9702 47.1746 15.6022 47.0274C14.9398 49.3089 12.8792 51.0016 10.3769 51.0016C8.38985 51.0016 6.62357 49.9712 5.66683 48.2785L5.15166 47.3954H2.06067V60.4217H17.9572C16.6325 61.8937 15.823 63.8807 15.823 65.9414C15.823 70.5043 19.5027 74.184 24.0656 74.184C28.6285 74.184 32.3083 70.5043 32.3083 65.9414C32.3083 63.8807 31.4987 61.9672 30.174 60.4217H39.1526V51.4431C40.6245 52.7678 42.6116 53.5774 44.6723 53.5774C49.2352 53.5774 52.9149 49.8976 52.9149 45.3347C52.9149 40.8454 49.2352 37.0921 44.6723 37.0921Z" fill="#1EB5FC"/>
</svg>
