<svg width="64" height="58" viewBox="0 0 64 58" fill="none" xmlns="http://www.w3.org/2000/svg">
<path d="M31.1744 53.8759C30.8289 54.0832 30.4834 54.1522 30.1379 54.1522C29.3087 54.1522 28.9632 53.5997 28.9632 52.7017C28.9632 51.8729 29.3778 51.3203 30.207 51.3203C30.6216 51.3203 30.898 51.3894 31.1053 51.5966L30.898 52.011C30.7598 51.942 30.4834 51.8038 30.207 51.8038C29.7233 51.8038 29.516 52.1492 29.516 52.7017C29.516 53.3234 29.7233 53.6687 30.207 53.6687C30.4143 53.6687 30.5525 53.5997 30.6907 53.5997V53.1162H30.3452V52.7017H31.2435V53.8759H31.1744Z" fill="#8F8F8F"/>
<path d="M32.8327 53.0468C32.8327 52.5633 32.6945 52.4252 32.4181 52.4252C32.1417 52.4252 32.0035 52.5633 32.0035 53.0468C32.0035 53.5303 32.1417 53.6684 32.4181 53.6684C32.6945 53.7375 32.8327 53.5303 32.8327 53.0468ZM33.3855 53.0468C33.3855 53.7375 33.04 54.0829 32.4872 54.0829C31.8653 54.0829 31.5889 53.7375 31.5889 53.0468C31.5889 52.4942 31.9344 52.0107 32.4872 52.0107C33.04 52.0107 33.3855 52.4942 33.3855 53.0468Z" fill="#8F8F8F"/>
<path d="M34.3529 53.5303C34.422 53.6685 34.5602 53.7376 34.6984 53.7376C34.9056 53.7376 35.1129 53.5994 35.1129 53.1159C35.1129 52.6324 34.9747 52.4943 34.6984 52.4943C34.5602 52.4943 34.422 52.5633 34.3529 52.6324V53.5303ZM34.2838 52.287C34.3529 52.1489 34.5602 52.0108 34.8365 52.0108C35.3202 52.0108 35.6657 52.3561 35.6657 53.0468C35.6657 53.7376 35.2511 54.0829 34.7674 54.0829C34.4911 54.0829 34.3529 53.9448 34.2147 53.8066L34.1456 54.0138H33.8692V51.251H34.422V51.9417L34.2838 52.287Z" fill="#8F8F8F"/>
<path d="M35.9422 52.0798V52.4252L36.1495 52.4943V54.0829H36.7023V52.0798H35.9422ZM36.1495 51.7345H36.7023V51.251H36.1495V51.7345Z" fill="#8F8F8F"/>
<path d="M38.0152 52.4252C37.7388 52.4252 37.6697 52.6324 37.6697 52.9087H38.3607C38.3607 52.6324 38.2916 52.4252 38.0152 52.4252ZM37.6697 53.185C37.6697 53.5303 37.877 53.6684 38.1534 53.6684C38.3607 53.6684 38.5679 53.5994 38.7061 53.5303L38.8443 53.8757C38.7061 53.9447 38.4298 54.0829 38.0843 54.0829C37.4624 54.0829 37.1169 53.6685 37.1169 53.0468C37.1169 52.4252 37.3933 52.0107 38.0152 52.0107C38.637 52.0107 38.8443 52.4252 38.8443 52.9777V53.185H37.6697Z" fill="#8F8F8F"/>
<path d="M40.4336 52.494C40.3645 52.494 40.2954 52.494 40.1572 52.494C40.019 52.494 39.8808 52.5631 39.8117 52.6322V54.0827H39.2589V52.0796H39.6044C39.6044 52.1487 39.6735 52.2868 39.6735 52.3559C39.7426 52.2177 39.8808 52.0796 40.1572 52.0796C40.2954 52.0796 40.3645 52.0796 40.3645 52.0796C40.4336 52.2177 40.4336 52.3559 40.4336 52.494Z" fill="#8F8F8F"/>
<path d="M41.9538 54.0827V52.9084C41.9538 52.6322 41.8156 52.494 41.6083 52.494C41.4701 52.494 41.3319 52.5631 41.2628 52.6322V54.1517H40.71V52.1487H41.0555L41.1246 52.3559C41.2628 52.2177 41.4701 52.0796 41.7465 52.0796C42.2302 52.0796 42.4374 52.3559 42.4374 52.9084V54.1517H41.9538V54.0827Z" fill="#8F8F8F"/>
<path d="M44.1649 53.0468C44.1649 52.5633 44.0267 52.4252 43.7503 52.4252C43.4739 52.4252 43.3357 52.5633 43.3357 53.0468C43.3357 53.5303 43.4739 53.6684 43.7503 53.6684C44.0267 53.7375 44.1649 53.5303 44.1649 53.0468ZM44.7177 53.0468C44.7177 53.7375 44.3722 54.0829 43.8194 54.0829C43.1975 54.0829 42.9211 53.7375 42.9211 53.0468C42.9211 52.4942 43.2666 52.0107 43.8194 52.0107C44.3722 52.0107 44.7177 52.4942 44.7177 53.0468Z" fill="#8F8F8F"/>
<path d="M47.2052 52.5633C47.1361 52.4943 46.9979 52.4943 46.8597 52.4943C46.5833 52.4943 46.4451 52.6324 46.4451 53.1159C46.4451 53.5994 46.5833 53.7376 46.8597 53.7376C46.9979 53.7376 47.1361 53.6685 47.2052 53.5994V52.5633ZM47.2743 52.218C47.2743 52.0798 47.2052 52.0108 47.2052 51.8726V51.251H47.758V54.0138H47.3434L47.2743 53.8757C47.2052 54.0138 46.9979 54.152 46.7215 54.152C46.2378 54.152 45.8923 53.8066 45.8923 53.1159C45.8923 52.4252 46.2378 52.0798 46.7215 52.0798C46.9979 52.0108 47.2052 52.0798 47.2743 52.218Z" fill="#8F8F8F"/>
<path d="M49.0709 52.4252C48.7945 52.4252 48.7254 52.6324 48.7254 52.9087H49.4164C49.4164 52.6324 49.3473 52.4252 49.0709 52.4252ZM48.7254 53.185C48.7254 53.5303 48.9327 53.6684 49.2091 53.6684C49.4164 53.6684 49.6237 53.5994 49.7619 53.5303L49.9001 53.8757C49.7619 53.9447 49.4855 54.0829 49.14 54.0829C48.5181 54.0829 48.1726 53.6685 48.1726 53.0468C48.1726 52.4252 48.449 52.0107 49.0709 52.0107C49.6928 52.0107 49.9001 52.4252 49.9001 52.9777V53.185H48.7254Z" fill="#8F8F8F"/>
<path d="M52.3185 54.0829C51.5584 54.0829 51.1438 53.5303 51.1438 52.6324C51.1438 51.8035 51.5584 51.251 52.3185 51.251C52.664 51.251 53.0095 51.3201 53.2167 51.4582L53.0095 51.8726C52.8713 51.7345 52.5949 51.6654 52.3185 51.6654C51.8348 51.6654 51.6275 52.0108 51.6275 52.6324C51.6275 53.254 51.8348 53.5994 52.3185 53.5994C52.5949 53.5994 52.8713 53.4613 53.0095 53.3231L53.1476 53.7376C53.0094 54.0138 52.7331 54.0829 52.3185 54.0829Z" fill="#8F8F8F"/>
<path d="M53.6313 54.0832V51.3203H54.1841V52.0801C54.1841 52.2182 54.115 52.3564 54.115 52.3564C54.2532 52.2182 54.3914 52.0801 54.6678 52.0801C55.2206 52.0801 55.4279 52.3564 55.4279 52.9089V54.1522H54.8751V52.978C54.8751 52.9089 54.8751 52.909 54.8751 52.8399C54.8751 52.6327 54.7369 52.4945 54.5296 52.4945C54.3914 52.4945 54.2532 52.5636 54.1841 52.6327V54.1522H53.6313V54.0832Z" fill="#8F8F8F"/>
<path d="M55.7733 52.0798V52.4252L55.9806 52.4943V54.0829H56.5334V52.0798H55.7733ZM55.9806 51.7345H56.5334V51.251H55.9806V51.7345Z" fill="#8F8F8F"/>
<path d="M57.0172 53.5303V51.251H57.5699V53.4613C57.5699 53.5994 57.639 53.6685 57.9154 53.6685V54.0138C57.9154 54.0138 57.7772 54.0138 57.639 54.0138C57.1553 54.0829 57.0172 53.8757 57.0172 53.5303Z" fill="#8F8F8F"/>
<path d="M59.021 52.4252C58.7446 52.4252 58.6755 52.6324 58.6755 52.9087H59.3665C59.3665 52.6324 59.2974 52.4252 59.021 52.4252ZM58.6755 53.185C58.6755 53.5303 58.8828 53.6684 59.1592 53.6684C59.3665 53.6684 59.5737 53.5994 59.7119 53.5303L59.781 53.8757C59.6428 53.9447 59.3665 54.0829 59.021 54.0829C58.3991 54.0829 58.0536 53.6685 58.0536 53.0468C58.0536 52.4252 58.33 52.0107 58.9519 52.0107C59.5737 52.0107 59.781 52.4252 59.781 52.9777V53.185H58.6755Z" fill="#8F8F8F"/>
<path d="M1.11661 0.966999H25.8538V56.9148H1.11661V0.966999ZM26.8212 0.966999H62.6832V56.9148H26.8212V0.966999ZM0.149231 0V0.966999V56.9148V57.8818H1.11661H62.6141H63.5815V0H0.149231Z" fill="#8F8F8F"/>
<path d="M14.2453 8.63389C14.3144 8.56482 14.3835 8.49574 14.3144 8.28853C14.2453 8.21946 14.1762 8.21946 14.1762 8.15039C14.7981 8.01225 15.1435 7.11432 15.1435 6.69989C15.489 6.97617 16.18 7.11432 16.7328 6.63082C17.0783 6.28546 17.2165 5.45661 16.6637 4.97311C16.3873 4.76589 15.8345 4.76589 15.489 4.97311C15.4199 4.90404 15.2126 4.83496 15.0745 4.83496C15.0745 4.76589 15.0745 4.35146 14.8672 4.07518C14.5217 3.72982 13.6925 3.72982 13.347 4.07518C12.7251 3.93704 11.8959 4.21332 11.8959 5.18032C11.4122 4.97311 11.2049 4.97311 10.9286 5.04218C10.7213 5.04218 10.3758 5.24939 10.3067 5.38753C10.2376 5.45661 10.2376 5.52568 10.1685 5.59475C10.0994 5.73289 10.0303 5.9401 10.0303 6.14732C10.0303 6.49268 10.2376 6.76896 10.514 6.97618C10.8595 7.18339 11.3431 7.11432 11.4813 7.11432C11.6195 7.11432 11.7577 7.04525 11.8959 6.9071C11.965 6.83803 11.965 6.76896 12.0341 6.76896C12.0341 6.83803 12.0341 7.32153 12.5178 7.59782V7.66689C12.656 8.3576 13.1397 8.21946 13.1397 8.28853C12.9324 8.42667 13.0015 8.56482 13.0706 8.70296C13.347 8.63389 13.6234 8.56482 13.6925 8.56482C13.7616 8.56482 13.9689 8.56482 14.2453 8.63389Z" fill="#8F8F8F"/>
<path d="M15.42 10.6369L14.2453 11.4658L14.6599 12.7781L13.5543 11.9493L12.4487 12.7781L12.8633 11.4658L11.6887 10.6369H13.1397L13.5543 9.32456L13.9689 10.6369H15.42ZM15.7655 10.6369C15.7655 9.94621 16.18 9.46271 16.2491 9.46271C16.3182 9.39363 16.3182 9.32456 16.3182 9.32456C16.3182 9.25549 16.2491 9.25549 16.2491 9.25549C16.0418 9.11735 15.7655 8.97921 15.7655 8.97921C15.7655 8.97921 15.6964 8.97921 15.6964 9.04828C15.6273 9.11735 15.4891 9.25549 15.2127 9.25549C15.1436 9.25549 15.1436 9.25549 15.0745 9.25549C14.9363 9.25549 14.729 9.11735 14.729 9.11735C14.6599 9.04828 14.5908 9.04828 14.5217 9.04828C14.1762 8.91014 13.8307 8.91014 13.7616 8.91014C13.6925 8.91014 13.347 8.91014 13.0015 9.04828C13.0015 9.04828 12.9324 9.04828 12.9324 9.11735L12.5869 9.04828C12.5178 9.04828 12.4487 9.11735 12.3105 9.11735C12.2414 9.11735 12.2414 9.11735 12.1723 9.11735C11.8959 9.11735 11.7578 8.97921 11.6887 8.91014C11.6196 8.91014 11.6196 8.84106 11.6196 8.84106C11.6196 8.84106 11.3432 9.04828 11.205 9.11735C11.205 9.11735 11.1359 9.18642 11.1359 9.25549C11.1359 9.25549 11.1359 9.32456 11.205 9.39364C11.205 9.39364 11.6887 9.94621 11.6887 10.5678C11.6887 10.6369 11.7577 11.0513 11.4123 11.6039C11.4123 11.6039 10.9977 12.2946 11.4123 12.9163C11.4123 12.9163 11.6887 13.4688 12.5869 13.4688C12.656 13.4688 13.347 13.4688 13.5543 13.8833C13.5543 13.8833 13.6925 14.0905 13.6925 14.1596L13.7616 14.2286L13.8307 14.1596C13.8998 14.0905 13.9689 13.8833 13.9689 13.8833C14.1762 13.4688 14.8672 13.4688 14.9363 13.4688C15.8346 13.4688 16.1109 12.9163 16.1109 12.9163C16.5255 12.2946 16.1109 11.6039 16.1109 11.6039C15.6964 11.1204 15.7655 10.706 15.7655 10.6369Z" fill="#8F8F8F"/>
<path d="M17.9766 16.7843C17.9075 16.7153 17.9075 16.508 17.9075 16.508C17.9075 16.3699 17.8384 16.2318 17.7693 16.1627C17.9075 16.0936 18.0457 16.0936 18.1839 16.0245C18.1839 16.439 17.9766 16.7843 17.9766 16.7843ZM16.18 17.2678C16.0418 17.2678 15.9727 16.7843 15.9036 16.439C16.4564 16.3699 17.0092 16.3008 17.4929 16.1627C17.6311 16.5771 17.7002 16.9915 17.7002 16.9915C17.0783 17.6132 16.18 17.2678 16.18 17.2678ZM16.3873 15.1957C16.6637 15.1957 16.9401 15.3338 17.0783 15.472C16.7328 15.541 16.3182 15.6101 15.9036 15.6792C15.9727 15.1957 16.3873 15.1957 16.3873 15.1957ZM15.6963 14.6431C17.0783 14.0905 17.8384 15.0575 17.8384 15.0575C17.9075 15.1266 17.9075 15.1957 17.9766 15.2648C17.7693 15.3338 17.562 15.4029 17.2856 15.472C16.8019 14.9885 16.18 14.9885 16.1109 14.9194C15.7654 14.8503 15.6963 14.6431 15.6963 14.6431ZM14.1071 15.8864C14.3144 15.472 14.7981 15.1266 14.9363 14.9194C15.0054 14.7813 15.2127 14.7813 15.2127 14.7813C15.42 14.7813 15.4891 15.2648 15.4891 15.8173C15.0745 15.8173 14.5908 15.8864 14.1071 15.8864ZM11.8959 15.7483C11.965 15.1957 11.965 14.7122 12.1723 14.7122C12.1723 14.7122 12.3105 14.7122 12.4487 14.8503C12.656 15.0575 13.0706 15.4029 13.2779 15.8173C12.7942 15.8173 12.3796 15.8173 11.8959 15.7483ZM11.2741 14.9194C11.205 14.9194 10.6522 14.9885 10.0994 15.472C9.82299 15.4029 9.5466 15.3338 9.4084 15.2648C9.4775 15.1957 9.4775 15.1266 9.5466 15.0575C9.5466 15.0575 10.3067 14.0905 11.6886 14.6431C11.7577 14.6431 11.6886 14.8503 11.2741 14.9194ZM10.3758 15.541C10.5831 15.4029 10.7904 15.2648 11.0668 15.2648C11.0668 15.2648 11.4814 15.2648 11.5504 15.7483C11.1359 15.6792 10.7213 15.6101 10.3758 15.541ZM11.2741 17.2678C11.2741 17.2678 10.3758 17.6132 9.75389 16.9915C9.75389 16.9915 9.82299 16.5771 9.96119 16.1627C10.4449 16.3008 10.9977 16.3699 11.5504 16.439C11.4814 16.7843 11.4123 17.2678 11.2741 17.2678ZM9.5466 16.439C9.5466 16.439 9.4775 16.6462 9.4775 16.7153C9.4775 16.7153 9.2702 16.3699 9.2702 15.9555C9.4084 16.0245 9.5466 16.0245 9.68479 16.0936C9.68479 16.2318 9.6157 16.3008 9.5466 16.439ZM7.40455 15.8173C7.40455 15.8173 7.33545 15.8864 7.33545 15.8173C6.85176 15.2648 7.54275 14.6431 7.81914 14.9885C7.81914 14.9885 7.54275 14.9885 7.61184 15.1957C7.61184 15.1957 7.61184 15.4029 7.81914 15.4029C7.81914 15.4029 8.16463 15.4029 8.09553 14.9885C8.09553 14.9885 8.02643 14.7813 7.81914 14.7813C7.81914 14.7813 7.26635 14.6431 6.98996 15.1266C6.98996 15.1266 6.92086 15.2648 6.92086 15.4029C6.85176 15.3338 6.78266 15.3338 6.71357 15.2648C6.57537 15.1266 6.43717 14.2287 6.50627 13.7452C7.40455 13.538 7.68094 12.8473 7.68094 12.64C7.88824 12.7091 7.95734 12.9163 7.95734 12.9854C7.95734 13.1235 7.88824 13.2617 7.95734 13.3308C8.02643 13.4689 8.30283 13.607 8.44102 13.6761C8.51012 13.6761 9.13201 14.2287 9.20111 14.2287C9.2702 14.2287 9.3393 14.1596 9.4084 14.1596C9.4084 14.1596 9.4775 14.1596 9.4775 14.2287C9.4775 14.2287 9.5466 14.2978 9.6157 14.2978C9.4775 14.4359 9.20111 14.574 8.92471 14.8503C8.99381 14.9194 8.78652 15.1957 7.40455 15.8173ZM23.5045 16.0936C23.3663 15.8864 22.9517 16.0245 22.9517 16.0245C23.159 15.4029 22.6062 15.2648 22.6062 15.2648C22.3989 15.1957 22.2607 15.2648 22.1916 15.3338C22.1916 15.3338 22.1916 15.3338 22.1225 15.3338C22.0534 15.4029 22.0534 15.472 22.0534 15.541C22.0534 15.6792 22.1916 15.8173 22.3298 15.8173C22.3989 15.8173 22.468 15.8173 22.468 15.7483C22.5371 15.6792 22.5371 15.6101 22.6062 15.541C22.6753 15.6101 22.7444 15.6792 22.7444 15.6792C22.8826 16.2318 22.3298 16.3699 22.3298 16.3699C21.0169 16.7843 20.2568 16.0936 20.2568 16.0936L20.4641 15.9555C20.5332 15.9555 20.6023 15.8864 20.6714 15.8864C20.6714 15.8864 20.6714 15.8864 20.6714 15.9555C20.6714 16.0936 20.8096 16.2318 20.9478 16.2318C21.086 16.2318 21.2242 16.0936 21.2242 15.9555C21.2242 15.8173 21.1551 15.8173 21.1551 15.8173C21.0169 15.6101 20.4641 15.7483 20.4641 15.7483C20.6714 15.3338 20.4641 14.9885 20.4641 14.9885C20.2568 14.505 19.635 14.6431 19.635 14.6431C19.4277 14.7122 19.4277 14.8503 19.4277 14.8503C19.3586 15.2648 19.7041 15.2648 19.7041 15.2648C19.9113 15.2648 19.9113 15.0575 19.9113 15.0575C19.9113 14.8503 19.7041 14.8503 19.7041 14.8503C19.9113 14.4359 20.6023 15.1266 20.1877 15.6792C20.1186 15.7483 20.1186 15.6792 20.1186 15.6792C19.2895 15.2648 18.944 14.9885 18.7367 14.8503C18.7367 14.6431 18.5294 14.505 18.5294 14.4359C18.5294 14.4359 18.6676 14.505 18.7367 14.3668C18.7367 14.2978 18.8058 13.9524 18.8749 13.7452C19.5659 14.0905 20.1877 13.9524 20.3259 13.9524C20.395 13.9524 20.4641 13.8833 20.4641 13.8143C20.4641 13.538 19.7731 11.9493 19.7731 11.3968C20.1186 11.5349 20.3259 11.0514 20.395 10.9133C20.8096 11.1205 21.0169 15.2648 21.3624 15.4029C21.5697 15.472 21.5697 15.1957 21.6388 15.1266C22.1916 13.2617 22.1916 11.4658 22.1916 10.8442C22.1225 9.87719 22.0534 9.04833 21.8461 8.28855C21.7079 7.80505 21.4315 6.83805 20.8096 6.69991C20.5332 6.63084 20.2568 6.90712 20.3259 7.18341C20.3259 7.39062 20.4641 7.52876 20.395 7.73598C20.3259 7.87412 20.2568 8.01226 20.1877 8.15041C20.1186 8.28855 20.2568 8.35762 20.2568 8.56483C20.0495 8.56483 19.9804 8.70298 19.635 8.63391C19.8422 8.56483 19.8422 7.94319 19.5659 7.87412C19.4968 7.87412 19.4968 7.87412 19.4968 7.80505C19.4968 7.80505 19.5659 7.73598 19.635 7.66691C19.7731 7.39062 19.7731 7.11434 19.635 6.90712C19.7731 6.90712 19.8422 6.69991 19.8422 6.56177C19.8422 6.49269 19.8422 6.35455 19.9113 6.28548C19.9113 6.21641 19.9113 6.21641 19.8422 6.14734C19.7731 6.14734 19.7731 6.14734 19.7041 6.21641C19.635 6.35455 19.4968 6.28548 19.5659 6.14734C19.5659 6.07827 19.5659 6.07827 19.4968 6.0092C19.4277 6.0092 19.4277 6.0092 19.4277 6.07827C19.3586 6.21641 19.2204 6.14734 19.2895 6.0092C19.2895 5.94012 19.2895 5.94012 19.2895 5.87105C19.2895 5.87105 19.2204 5.87105 19.2204 5.94012C19.1513 6.07827 19.0131 6.0092 19.0822 5.87105C19.0822 5.80198 19.0822 5.80198 19.0131 5.73291C18.944 5.73291 18.944 5.73291 18.944 5.80198C18.8749 5.94012 18.8058 6.0092 18.7367 6.07827C18.5985 6.07827 18.6676 6.28548 18.6676 6.35455C18.3912 6.28548 18.1839 6.49269 18.1839 6.69991C17.9766 6.69991 17.7693 6.83805 17.7693 7.04527C17.7693 7.18341 17.9075 7.32155 17.9766 7.32155C17.9766 7.32155 17.9766 7.18341 18.0457 7.18341C18.1148 7.18341 18.3221 7.25248 18.3221 7.39062C18.3221 7.52876 18.253 7.73598 18.5985 7.80505C18.5985 7.80505 18.5985 7.87412 18.5985 7.94319C18.4603 7.94319 18.4603 7.94319 18.3221 7.94319C18.1148 8.01226 17.7693 8.08134 17.7002 8.35762C17.7002 8.42669 17.7002 8.49576 17.7002 8.49576C17.7002 8.56483 17.7693 8.56483 17.7693 8.63391L17.7002 8.70298C17.6311 8.77205 17.4238 8.91019 17.2856 8.91019C17.1474 8.91019 16.9401 8.84112 16.871 8.70298C16.6637 8.42669 16.9401 7.87412 16.9401 7.66691C16.9401 7.11434 16.2491 7.45969 16.0418 7.59784C15.7654 7.73598 15.4891 8.01226 15.2818 8.28855C15.1436 8.42669 15.0745 8.63391 15.0054 8.77205H14.9363C15.0745 8.84112 15.2818 8.91019 15.4891 8.91019C15.4891 8.91019 15.8345 8.97926 16.1109 8.77205H16.18C16.2491 8.77205 16.2491 8.77205 16.2491 8.84112C16.2491 8.84112 16.3182 8.84112 16.3182 8.91019L16.3873 8.97926C16.3873 8.97926 16.3873 8.97926 16.4564 9.04833C16.5255 9.04833 16.5255 9.1174 16.5946 9.18648C16.6637 9.25555 16.6637 9.25555 16.7328 9.32462C16.8019 9.39369 16.871 9.39369 16.871 9.39369C16.871 9.39369 16.871 9.39369 16.871 9.46276V9.53183C16.871 9.53183 16.871 9.53183 16.8019 9.6009C16.7328 9.73905 16.5946 9.94626 16.4564 10.2225C16.5946 10.4298 16.8019 10.706 17.0783 10.706C17.2856 10.706 17.4238 10.5679 17.4238 10.4298C17.4238 10.4298 17.562 11.1205 17.7693 11.3277C17.6311 11.3968 17.3547 11.673 17.4929 12.3638C17.3547 12.2256 17.1474 12.0875 17.0092 11.9493C16.9401 11.8112 16.8019 11.4658 16.3873 11.4658C16.4564 11.673 16.5255 11.8112 16.6637 12.0875C16.6637 12.0875 16.871 12.5019 16.8019 13.0545C16.9401 12.9163 16.9401 12.4328 16.9401 12.4328C16.9401 12.4328 16.9401 12.4328 17.0092 12.4328C17.0092 12.4328 17.2165 12.7782 17.4929 12.8473C17.8384 13.4689 18.253 13.8833 18.6676 14.1596C18.6676 14.2978 18.6676 14.7122 18.5985 14.7122C18.253 14.7813 17.9766 14.574 17.7002 14.574H17.6311C16.4564 14.0215 14.8672 15.2648 14.5908 15.472C14.4526 15.6101 14.3144 15.4029 14.3144 15.4029C14.2453 15.2648 14.1071 15.1957 13.9689 15.2648C13.8307 15.2648 13.6925 15.3338 13.6234 15.4029C13.6234 15.4029 13.4852 15.6101 13.347 15.472C13.0706 15.2648 11.6886 14.1596 10.514 14.505C10.514 14.4359 10.3758 14.4359 10.3067 14.3668C10.2376 14.3668 10.0994 14.2978 10.0994 14.2287C9.96119 14.1596 9.75389 14.2287 9.6157 14.1596C9.5466 14.1596 9.4775 14.0905 9.4084 14.0905C9.20111 13.9524 8.99381 13.8143 8.85561 13.6761L8.78652 13.607C8.44102 13.1235 8.44102 13.1235 8.37193 12.9854C8.30283 12.7782 8.44102 12.5019 8.44102 12.2947C8.44102 12.0875 8.44102 12.0875 8.51012 11.9493C9.2702 11.673 9.5466 11.1205 9.75389 10.8442L9.82299 10.706H9.89209C10.1685 10.706 10.3758 10.5679 10.7213 10.5679C10.7213 10.5679 10.7904 10.706 10.9977 10.8442C10.9977 11.0514 10.9977 11.2586 11.0668 11.3968L11.1359 11.4658C11.2741 11.1205 11.3432 10.8442 11.3432 10.706C11.3432 10.706 11.3432 10.706 11.3432 10.637C11.2741 10.2916 11.1359 10.1535 10.9286 10.0844C10.8595 10.0153 10.7904 10.0153 10.7213 9.94626C10.5831 9.87719 10.514 9.80812 10.3758 9.6009L10.4449 9.53183C10.6522 9.32462 10.7904 8.97926 10.8595 8.63391C10.9977 8.42669 11.4814 8.49576 11.6195 8.56483C11.6886 8.56483 11.7577 8.56483 11.7577 8.63391C11.8268 8.63391 11.8268 8.77205 11.8959 8.77205C11.965 8.77205 12.0341 8.77205 12.1032 8.77205C12.1032 8.84112 12.1723 8.84112 12.1723 8.91019C12.1723 8.91019 12.1723 8.97926 12.2414 8.97926C12.4487 8.97926 12.7251 8.84112 12.8633 8.84112C12.7942 8.70298 12.656 8.56483 12.5178 8.56483C12.3796 8.56483 12.3105 8.35762 12.1723 8.35762C12.1032 8.35762 11.965 8.35762 11.965 8.35762C11.6195 8.42669 11.3432 8.28855 11.0668 8.21948C10.7904 8.21948 10.7213 8.42669 10.6522 8.56483C10.5831 8.63391 10.5831 8.70298 10.514 8.77205C10.4449 8.84112 10.3067 8.84112 10.2376 8.91019L10.1685 8.77205C10.1685 8.63391 10.0994 8.56483 10.0303 8.42669C9.89209 8.15041 9.68479 7.94319 9.2702 7.87412C9.20111 7.87412 9.20111 7.87412 9.13201 7.80505C9.06291 7.73598 9.13201 7.73598 9.13201 7.66691C9.2702 7.59784 9.4084 7.59784 9.5466 7.59784C9.82299 7.45969 9.75389 7.18341 9.6157 7.18341C9.4775 7.18341 9.20111 7.11434 9.13201 7.04527C9.06291 6.97619 8.92471 6.76898 8.78652 6.69991C8.64832 6.63084 8.71742 6.42362 8.57922 6.42362C8.51012 6.42362 8.44102 6.42362 8.37193 6.49269C8.37193 6.42362 8.30283 6.21641 8.23373 6.14734C8.16463 6.07827 8.09553 6.14734 8.09553 6.21641C8.09553 6.28548 8.23373 6.35455 8.30283 6.56177C8.30283 6.56177 8.23373 6.56177 8.23373 6.63084C8.23373 6.56177 8.16463 6.42362 8.09553 6.35455C7.81914 6.21641 7.75004 6.28548 7.75004 6.35455C7.75004 6.42362 7.88824 6.49269 7.88824 6.63084L7.81914 6.69991C7.61184 6.63084 7.54275 6.49269 7.54275 6.49269C7.47365 6.49269 7.40455 6.49269 7.47365 6.63084C7.54275 6.76898 7.68094 6.76898 7.75004 6.83805L7.68094 6.90712C7.47365 6.83805 7.40455 6.69991 7.33545 6.69991C7.26635 6.69991 7.19725 6.69991 7.26635 6.83805C7.33545 6.97619 7.61184 7.04527 7.61184 7.04527C7.54275 7.11434 7.54275 7.18341 7.54275 7.18341C7.33545 7.18341 7.05906 7.25248 7.12816 7.45969C7.19725 7.52876 7.40455 7.32155 7.61184 7.45969C7.75004 7.66691 7.95734 7.66691 8.02643 7.73598C8.09553 7.80505 8.09553 7.87412 8.16463 8.01226C8.23373 8.21948 8.37193 8.35762 8.44102 8.49576C8.57922 8.63391 8.64832 8.84112 8.78652 8.97926C8.78652 9.04833 8.78652 9.04833 8.78652 9.1174C8.64832 9.32462 8.23373 9.6009 8.09553 9.73905C7.95734 9.87719 6.36807 11.0514 6.16078 11.604C6.09168 11.7421 6.09168 11.8803 6.09168 12.0184C6.02258 12.0875 5.81529 12.1565 5.74619 12.0875C5.60799 11.9493 5.88439 11.8112 5.81529 11.604C5.81529 11.5349 5.67709 11.4658 5.67709 11.5349C5.2625 11.8112 5.4698 12.2947 5.74619 12.4328C6.02258 12.571 6.02258 12.2256 6.29898 12.3638C6.36807 12.3638 6.85176 12.8473 6.78266 13.1926C6.78266 13.1926 6.78266 13.2617 6.71357 13.2617C6.57537 13.3998 6.43717 13.4689 6.29898 13.607C6.02258 13.7452 6.57537 14.7813 6.50627 15.3338C6.50627 15.541 6.64447 15.541 6.78266 15.8173C6.64447 15.8173 6.57537 15.8173 6.50627 15.9555C6.50627 15.9555 6.43717 16.0245 6.43717 16.0936C6.43717 16.2318 6.57537 16.3699 6.71357 16.3699C6.85176 16.3699 6.98996 16.2318 6.98996 16.0936C6.98996 16.0936 6.98996 16.0936 6.98996 16.0245C7.05906 16.0245 7.12816 16.0245 7.19725 16.0936L7.40455 16.2318C7.40455 16.2318 6.64447 16.9225 5.3316 16.508C5.3316 16.508 4.70971 16.3008 4.91701 15.8173C4.91701 15.8173 4.91701 15.7483 5.05521 15.6792C5.05521 15.7483 5.1243 15.8173 5.1934 15.8864C5.2625 15.8864 5.3316 15.9555 5.3316 15.9555C5.4698 15.9555 5.60799 15.8173 5.60799 15.6792C5.60799 15.6101 5.60799 15.541 5.53889 15.472C5.53889 15.472 5.53889 15.472 5.4698 15.472C5.4007 15.4029 5.2625 15.4029 5.05521 15.4029C5.05521 15.4029 4.50242 15.541 4.70971 16.1627C4.70971 16.1627 4.29512 16.0936 4.15693 16.2318C4.15693 16.2318 4.08783 16.3008 4.08783 16.3699C4.08783 16.439 4.08783 16.439 4.15693 16.508C4.22603 16.5771 4.29512 16.5771 4.36422 16.5771C4.43332 16.5771 4.50242 16.5771 4.57152 16.508C4.57152 16.508 4.64062 16.439 4.70971 16.508C5.53889 17.406 6.98996 17.0606 7.75004 16.439C7.75004 16.439 8.16463 16.0245 8.64832 15.7483C8.85561 15.8173 9.06291 15.8864 9.20111 15.9555C9.20111 16.2318 9.2702 16.6462 9.5466 17.1297C9.5466 17.1297 9.3393 17.5441 8.92471 17.3369C8.92471 17.3369 8.64832 17.1297 8.85561 16.8534C8.85561 16.8534 8.99381 16.7152 9.06291 16.8534C8.99381 16.8534 8.92471 16.9225 8.92471 16.9915C8.92471 17.0606 8.99381 17.1297 9.06291 17.1297C9.13201 17.1297 9.20111 17.0606 9.20111 16.9915C9.20111 16.9225 9.20111 16.7843 9.06291 16.6462C9.06291 16.6462 8.92471 16.508 8.71742 16.5771C8.37193 16.6462 8.23373 17.3369 8.85561 17.6132C8.85561 17.6132 9.3393 17.8204 9.6157 17.475C9.6157 17.475 9.6157 17.406 9.68479 17.5441C10.2376 18.0967 11.4123 17.8895 11.8959 17.5441C11.8959 17.5441 12.0341 17.475 12.1723 17.406C12.1723 17.6132 12.3105 17.7513 12.5178 17.7513C12.7251 17.7513 12.8633 17.6132 12.8633 17.406C12.8633 17.1988 12.7251 17.0606 12.5869 17.0606C12.5869 17.0606 12.3105 16.9915 11.965 17.1987L11.6195 17.406C11.7577 17.1988 11.8268 16.9225 11.8959 16.6462C12.4487 16.7153 12.9324 16.7153 13.4852 16.7843C13.4852 16.9225 13.4852 17.1297 13.4161 17.2678C13.4161 17.2678 13.2088 17.3369 13.2088 17.475C13.2088 17.475 13.2088 17.5441 13.347 17.6822C13.347 17.6822 13.4852 17.8204 13.4852 17.9585C13.4852 17.9585 13.4852 18.0967 13.6925 18.0967C13.6925 18.0967 13.6925 18.0967 13.7616 18.0967C13.7616 18.0967 13.7616 18.0967 13.8307 18.0967C14.038 18.0967 14.038 17.9585 14.038 17.9585C14.1071 17.8204 14.1762 17.6822 14.1762 17.6822C14.3835 17.5441 14.3144 17.475 14.3144 17.475C14.3144 17.3369 14.1071 17.2678 14.1071 17.2678C14.038 17.1297 14.038 16.9225 14.038 16.7843C14.5908 16.7843 15.1436 16.7153 15.6272 16.6462C15.6963 16.9225 15.7654 17.1988 15.9036 17.406L15.5582 17.1987C15.2127 16.9915 14.9363 17.0606 14.9363 17.0606C14.729 17.0606 14.6599 17.2678 14.6599 17.406C14.6599 17.6132 14.7981 17.7513 15.0054 17.7513C15.2127 17.7513 15.3509 17.6132 15.3509 17.406C15.4891 17.475 15.6272 17.5441 15.6272 17.5441C16.1109 17.8895 17.2856 18.0276 17.8384 17.5441C17.9075 17.475 17.9075 17.475 17.9075 17.475C18.1839 17.8204 18.6676 17.6132 18.6676 17.6132C19.2895 17.3369 19.1513 16.6462 18.8058 16.5771C18.5985 16.508 18.4603 16.6462 18.4603 16.6462C18.3221 16.7843 18.3221 16.9225 18.3221 16.9915C18.3221 17.0606 18.3912 17.1297 18.4603 17.1297C18.5294 17.1297 18.5985 17.0606 18.5985 16.9915C18.5985 16.9225 18.5294 16.8534 18.4603 16.8534C18.5294 16.7152 18.6676 16.8534 18.6676 16.8534C18.8749 17.1297 18.5985 17.3369 18.5985 17.3369C18.253 17.5441 17.9766 17.1297 17.9766 17.1297C18.3221 16.6462 18.3221 16.3008 18.3221 15.9555C18.5294 15.8864 18.7367 15.8173 18.8749 15.7483C19.3586 16.0245 19.7731 16.439 19.7731 16.439C20.5332 17.0606 21.9843 17.406 22.8135 16.508C22.8826 16.439 22.9517 16.439 22.9517 16.508C23.0208 16.5771 23.0899 16.5771 23.159 16.5771C23.2281 16.5771 23.2972 16.508 23.3663 16.508C23.3663 16.439 23.4354 16.439 23.4354 16.3699C23.5045 16.1627 23.5045 16.0936 23.5045 16.0936Z" fill="#8F8F8F"/>
<path d="M32.2108 10.1535L32.1417 7.2525C32.0035 7.59786 31.9344 7.80507 31.9344 8.01229L31.4508 10.0844H30.4834L29.9997 8.01229C29.9306 7.80507 29.8615 7.52879 29.7924 7.18343L29.7233 10.0844H29.1014L29.2396 6.63086H30.4143C30.4143 6.63086 30.7598 8.35764 30.9671 9.46278C31.1744 8.35764 31.658 6.63086 31.658 6.63086H32.7636L32.9018 10.0844H32.2108V10.1535Z" fill="#8F8F8F"/>
<path d="M33.4546 7.59759V8.01202L33.731 8.08109V10.0842H34.422V7.59759H33.4546ZM33.731 7.18317H34.422V6.56152H33.731V7.18317Z" fill="#8F8F8F"/>
<path d="M36.564 10.1535V8.63395C36.564 8.28859 36.4258 8.08138 36.0803 8.08138C35.873 8.08138 35.7348 8.15045 35.6657 8.21952V10.0844H34.9748V7.59788H35.4584L35.5966 7.87417C35.7348 7.73602 36.0112 7.52881 36.3567 7.52881C36.9786 7.52881 37.255 7.87417 37.255 8.56488V10.1535H36.564Z" fill="#8F8F8F"/>
<path d="M37.7387 7.59759V8.01202L38.0151 8.08109V10.0842H38.7061V7.59759H37.7387ZM37.946 7.18317H38.637V6.56152H37.946V7.18317Z" fill="#8F8F8F"/>
<path d="M39.8808 8.28861C39.8808 8.70304 40.9863 8.5649 40.9863 9.39376C40.9863 9.87725 40.6409 10.2226 40.019 10.2226C39.7426 10.2226 39.4662 10.1535 39.2589 10.0154L39.3971 9.5319C39.5353 9.60097 39.7426 9.73911 40.019 9.73911C40.2263 9.73911 40.3645 9.60097 40.3645 9.46283C40.3645 8.97933 39.2589 9.18654 39.2589 8.28861C39.2589 7.94326 39.5353 7.5979 40.2263 7.5979C40.5027 7.5979 40.779 7.66697 40.9172 7.73604L40.8481 8.21954C40.7099 8.15047 40.4336 8.0814 40.2263 8.0814C39.9499 8.01233 39.8808 8.15047 39.8808 8.28861Z" fill="#8F8F8F"/>
<path d="M42.3683 10.1536C41.9537 10.1536 41.6082 9.94639 41.6082 9.32474V8.08146H41.2627V7.59796H41.6082V7.18353L42.2992 6.97632V7.59796H42.9902V8.08146H42.2992V9.32474C42.2992 9.53196 42.3683 9.60103 42.5756 9.60103C42.7138 9.60103 42.852 9.53196 42.9902 9.53196L43.0593 10.0155C42.9211 10.0845 42.6447 10.1536 42.3683 10.1536Z" fill="#8F8F8F"/>
<path d="M44.4413 8.0814C44.0958 8.0814 43.9576 8.35769 43.9576 8.70304H44.8559C44.8559 8.35769 44.7868 8.0814 44.4413 8.0814ZM43.9576 9.0484C43.9576 9.46283 44.1649 9.67004 44.5795 9.67004C44.8559 9.67004 45.1323 9.60097 45.3395 9.46283L45.4777 9.94633C45.2704 10.0845 44.925 10.2226 44.5104 10.2226C43.7503 10.2226 43.2666 9.73911 43.2666 8.91026C43.2666 8.15047 43.6121 7.5979 44.4413 7.5979C45.2013 7.5979 45.4777 8.15047 45.4777 8.77211V9.0484H43.9576Z" fill="#8F8F8F"/>
<path d="M47.4816 8.1507C47.4125 8.1507 47.2743 8.08162 47.1361 8.08162C46.9288 8.08162 46.7906 8.15069 46.6524 8.21977V10.0156H45.9614V7.59812H46.4451L46.5142 7.94348C46.5833 7.73627 46.7906 7.52905 47.1361 7.52905C47.2743 7.52905 47.3434 7.52905 47.4125 7.59812L47.4816 8.1507Z" fill="#8F8F8F"/>
<path d="M47.758 7.59759V8.01202L48.0344 8.08109V10.0842H48.7253V7.59759H47.758ZM48.0344 7.18317H48.7253V6.56152H48.0344V7.18317Z" fill="#8F8F8F"/>
<path d="M50.9365 8.84068C50.9365 8.21903 50.7292 8.01182 50.4528 8.01182C50.1764 8.01182 49.9 8.28811 49.9 8.84068C49.9 9.39325 50.0382 9.66953 50.3837 9.66953C50.7292 9.66953 50.9365 9.46232 50.9365 8.84068ZM51.6275 8.84068C51.6275 9.66953 51.2129 10.153 50.4528 10.153C49.6927 10.153 49.2781 9.66953 49.2781 8.84068C49.2781 8.08089 49.6927 7.52832 50.4528 7.52832C51.1438 7.52832 51.6275 8.14996 51.6275 8.84068Z" fill="#8F8F8F"/>
<path d="M54.806 8.21923C54.7369 8.15016 54.5296 8.08109 54.3223 8.08109C53.9768 8.08109 53.7695 8.28831 53.7695 8.90995C53.7695 9.53159 53.9768 9.7388 54.2532 9.7388C54.3914 9.7388 54.5987 9.66973 54.7369 9.53159V8.21923H54.806ZM54.8751 7.80481C54.806 7.66666 54.806 7.52852 54.806 7.32131V6.56152H55.497V10.0842H54.9442L54.8751 9.80788C54.806 9.94602 54.5296 10.1532 54.1841 10.1532C53.6313 10.1532 53.1476 9.7388 53.1476 8.84088C53.1476 8.01202 53.6313 7.52852 54.2532 7.52852C54.5296 7.52852 54.7369 7.66666 54.8751 7.80481Z" fill="#8F8F8F"/>
<path d="M57.0862 8.08116C56.7407 8.08116 56.6025 8.35744 56.6025 8.7028H57.5008C57.5699 8.35744 57.4317 8.08116 57.0862 8.08116ZM56.6716 9.04815C56.6716 9.46258 56.8789 9.6698 57.2935 9.6698C57.5699 9.6698 57.8463 9.60073 58.0536 9.46258L58.1918 9.94608C57.9845 10.0842 57.639 10.2224 57.2244 10.2224C56.4643 10.2224 55.9807 9.73887 55.9807 8.91001C55.9807 8.15023 56.3261 7.59766 57.1553 7.59766C57.9154 7.59766 58.1918 8.15023 58.1918 8.77187V9.04815H56.6716Z" fill="#8F8F8F"/>
<path d="M29.1705 14.9885V11.4658H31.3126V12.0875H29.8615V12.9163H30.9671L30.898 13.538H29.8615V14.3668H31.3126V14.9885H29.1705Z" fill="#8F8F8F"/>
<path d="M33.1782 12.9854C33.1091 12.9163 32.9018 12.8472 32.6945 12.8472C32.349 12.8472 32.1417 13.0544 32.1417 13.6761C32.1417 14.2977 32.349 14.5049 32.6254 14.5049C32.7636 14.5049 32.9709 14.4359 33.1091 14.2977V12.9854H33.1782ZM33.2473 12.64C33.1782 12.5019 33.1782 12.3637 33.1782 12.1565V11.3967H33.8692V14.9194H33.3164L33.2473 14.6431C33.1782 14.7812 32.9018 14.9884 32.5563 14.9884C32.0036 14.9884 31.5199 14.574 31.5199 13.6761C31.5199 12.8472 32.0036 12.3637 32.6254 12.3637C32.9018 12.3637 33.1091 12.5019 33.2473 12.64Z" fill="#8F8F8F"/>
<path d="M36.2186 14.9883L36.0804 14.6429C35.9422 14.781 35.6658 14.9883 35.3203 14.9883C34.6984 14.9883 34.422 14.6429 34.422 13.9522V12.4326H35.113V13.9522C35.113 14.3666 35.2512 14.5048 35.5276 14.5048C35.7349 14.5048 35.8731 14.4357 36.0113 14.3666V12.4326H36.7022V14.9192H36.2186V14.9883Z" fill="#8F8F8F"/>
<path d="M39.1898 14.7813C39.0516 14.8503 38.7061 14.9885 38.3606 14.9885C37.6005 14.9885 37.1859 14.5741 37.1859 13.6761C37.1859 12.8473 37.6696 12.3638 38.3606 12.3638C38.7061 12.3638 38.9825 12.4328 39.1898 12.571L38.9825 13.0545C38.7752 12.9163 38.5679 12.9163 38.3606 12.9163C38.0151 12.9163 37.8078 13.1236 37.8078 13.7452C37.8078 14.2978 38.0151 14.5741 38.3606 14.5741C38.637 14.5741 38.9134 14.505 39.0516 14.3668L39.1898 14.7813Z" fill="#8F8F8F"/>
<path d="M40.9863 13.8833H40.5718C40.2954 13.8833 40.1572 14.0215 40.1572 14.2287C40.1572 14.4359 40.2954 14.5741 40.5027 14.5741C40.6409 14.5741 40.8481 14.505 40.9172 14.4359V13.8833H40.9863ZM41.1936 14.9885L41.1245 14.7122C40.9863 14.9194 40.7099 15.0576 40.3645 15.0576C39.8808 15.0576 39.5353 14.7122 39.5353 14.2287C39.5353 13.7452 39.8808 13.4689 40.5027 13.4689H41.0554V13.3308C41.0554 12.9854 40.8481 12.9163 40.6408 12.9163C40.3645 12.9163 40.0881 12.9854 39.8808 13.0545L39.7426 12.571C40.019 12.4328 40.3645 12.3638 40.7099 12.3638C41.4009 12.3638 41.7464 12.7091 41.7464 13.3308V14.9194H41.1936V14.9885Z" fill="#8F8F8F"/>
<path d="M44.234 14.7813C44.0958 14.8503 43.7503 14.9885 43.4048 14.9885C42.6447 14.9885 42.2301 14.5741 42.2301 13.6761C42.2301 12.8473 42.7138 12.3638 43.4048 12.3638C43.7503 12.3638 44.0267 12.4328 44.234 12.571L44.0267 13.0545C43.8194 12.9163 43.6121 12.9163 43.4048 12.9163C43.0593 12.9163 42.852 13.1236 42.852 13.7452C42.852 14.2978 43.0593 14.5741 43.4048 14.5741C43.6812 14.5741 43.9576 14.505 44.0958 14.3668L44.234 14.7813Z" fill="#8F8F8F"/>
<path d="M44.5795 12.4328V12.8472L44.8559 12.9163V14.9194H45.5468V12.4328H44.5795ZM44.8559 12.0184H45.5468V11.3967H44.8559V12.0184Z" fill="#8F8F8F"/>
<path d="M47.758 13.6758C47.758 13.0542 47.5507 12.847 47.2743 12.847C46.9979 12.847 46.7906 13.0542 46.7906 13.6758C46.7906 14.2284 46.9288 14.5047 47.2743 14.5047C47.6198 14.5047 47.758 14.2975 47.758 13.6758ZM46.6524 12.0872L46.5833 11.6727L47.8962 11.3274L47.9653 11.8109L46.6524 12.0872ZM48.449 13.6758C48.449 14.5047 48.0344 14.9882 47.2743 14.9882C46.5142 14.9882 46.0996 14.5047 46.0996 13.6758C46.0996 12.916 46.5142 12.3635 47.2743 12.3635C48.0344 12.3635 48.449 12.9851 48.449 13.6758Z" fill="#8F8F8F"/>
<path d="M50.5219 14.9885V13.4689C50.5219 13.1236 50.3837 12.9163 50.0382 12.9163C49.8309 12.9163 49.6927 12.9854 49.6236 13.0545V14.9194H48.9326V12.4328H49.4163L49.4854 12.7091C49.6236 12.571 49.9 12.3638 50.2455 12.3638C50.8674 12.3638 51.1438 12.7091 51.1438 13.3998V14.9885H50.5219Z" fill="#8F8F8F"/>
</svg>
