<svg width="88" height="30" viewBox="0 0 88 30" fill="none" xmlns="http://www.w3.org/2000/svg">
<path d="M19.053 3.65158C18.9648 3.78639 18.8767 3.92121 18.7886 4.05603C17.9075 5.2694 17.2026 5.76374 15.6166 4.68519C11.2551 1.76411 4.60271 4.32567 3.63349 11.2913C3.19293 14.3472 6.18872 18.8412 9.31666 19.6501C13.546 20.7736 17.3348 18.8861 18.5683 15.246C18.9208 14.2124 18.8767 13.8079 17.6432 13.8529C15.9691 13.9427 14.2509 13.8079 12.5768 13.8978C11.2111 13.9427 11.5635 12.9541 11.5635 12.235C11.5635 11.516 11.2111 10.5723 12.6208 10.6172C15.3082 10.7071 17.9956 10.6622 20.683 10.6172C21.6963 10.6172 22.0047 11.1116 22.0047 11.9654C22.1368 17.9424 18.5683 22.661 12.3124 22.9307C6.4971 23.2452 1.47476 19.2007 0.549597 13.2237C-0.243404 8.1006 2.97266 2.61796 8.47961 0.910259C12.6208 -0.39299 17.2026 1.1799 19.053 3.65158Z" fill="#9B9B9B"/>
<path d="M73.4176 12.0101C73.4176 15.066 73.3295 18.1668 73.4617 21.2227C73.5057 22.6158 72.8889 22.7057 71.8757 22.6158C70.9945 22.5709 70.2015 22.7956 70.2015 21.3126C70.2896 15.066 70.2896 8.81936 70.2015 2.57275C70.2015 1.08974 70.9505 1.31444 71.8757 1.22456C72.8889 1.17962 73.5057 1.22456 73.4617 2.61769C73.3295 5.76346 73.4176 8.86429 73.4176 12.0101Z" fill="#757575"/>
<path d="M67.9988 10.752C67.9988 10.1678 68.3953 9.26896 67.5582 9.0892C66.633 8.90944 65.2232 8.54993 64.6946 9.26896C64.0778 10.0779 63.9016 9.49366 63.5932 9.3139C62.624 8.81956 61.5226 8.23535 60.4652 8.41511C57.4254 8.95438 54.8702 10.6171 54.1212 14.3921C53.3282 18.6164 56.4562 23.0205 60.8177 22.9755C62.2715 22.9306 63.3729 22.1666 64.6065 21.6723C64.6065 24.9978 64.0338 25.9416 61.6988 26.6156C59.8044 27.1549 58.659 26.0314 57.6016 24.7282C56.6324 23.5598 55.7953 24.863 55.0464 25.1326C54.2534 25.4023 55.0023 26.1663 55.2667 26.5707C56.1478 27.874 57.5576 28.593 58.7911 29.4019C60.1569 29.4019 61.5226 29.4019 62.9324 29.4019C64.5184 28.4582 66.5009 28.0987 67.1617 25.9416C67.5582 24.6383 68.0428 23.3351 67.9988 21.897C67.9988 18.167 68.0428 14.482 67.9988 10.752ZM64.8708 15.8751C64.7386 18.5715 63.461 20.0545 60.9939 20.0095C58.6149 20.0095 57.2492 18.4366 57.2492 15.7403C57.2492 13.1787 59.0114 11.2014 61.2142 11.2912C62.8002 11.3362 65.003 13.0888 64.8708 15.8751Z" fill="#9C9C9C"/>
<path d="M88 13.5381C87.6035 12.8191 87.1629 12.1 86.7664 11.381C85.7972 9.71823 82.8895 8.1004 81.2154 8.41498C76.9861 9.13401 74.8274 12.0551 74.9595 15.83C75.0476 18.8859 76.2812 21.0879 78.9245 22.3013C81.656 23.5596 84.3434 23.2451 86.6343 21.1778C87.0308 20.8183 88.3084 20.3689 87.251 19.5151C86.5902 18.9308 85.9294 17.7175 84.6518 19.0207C82.6693 20.9981 79.8497 20.4588 78.5721 17.9871C81.7 16.6389 84.872 15.2458 88 13.8976C88 13.7628 88 13.628 88 13.5381ZM83.1098 13.2685C81.4357 13.9875 79.7616 14.7515 77.9553 15.5604C78.528 12.0101 80.5986 10.5271 83.1539 11.6057C83.5944 11.7855 84.079 12.0551 84.1231 12.5494C84.1671 13.1786 83.5063 13.0887 83.1098 13.2685Z" fill="#878787"/>
<path d="M45.6625 8.46018C41.6535 8.55006 38.7458 10.9319 38.5696 15.7404C38.4374 19.74 41.5654 22.9757 45.7066 22.9307C49.8919 23.1554 52.7996 19.6052 52.7996 15.9202C52.8436 11.0667 49.3192 8.37031 45.6625 8.46018ZM45.7066 20.0097C43.4157 20.0097 41.7416 18.257 41.6975 15.8752C41.6975 13.2238 43.3717 11.2015 45.6625 11.3363C47.8213 11.4262 49.6275 13.044 49.6275 15.6056C49.5835 18.3469 48.1737 20.0097 45.7066 20.0097Z" fill="#828282"/>
<path d="M30.155 8.415C26.234 8.32512 22.7977 11.8754 22.9739 15.6952C23.1502 19.8297 25.8375 22.9754 30.2872 22.9305C33.5913 23.335 37.292 20.0544 37.292 15.6053C37.248 11.3361 33.8116 8.50488 30.155 8.415ZM34.0759 15.83C34.0759 18.4815 32.6221 20.0094 30.0669 20.0094C27.8201 20.0094 26.1019 18.077 26.1459 15.6053C26.19 13.3584 28.0403 11.2462 30.0669 11.2911C32.1816 11.381 34.2522 12.9539 34.0759 15.83Z" fill="#878787"/>
</svg>
