<svg width="37" height="58" viewBox="0 0 37 58" fill="none" xmlns="http://www.w3.org/2000/svg">
<path d="M10.4392 5.56456C11.0866 5.65761 11.5491 5.28542 11.9191 4.8202C12.289 4.26192 12.659 3.70365 12.9365 3.23842C13.6764 2.12187 14.8788 1.84273 15.9887 2.49405C16.5437 2.77319 17.1911 3.14537 17.7461 3.51756C18.2085 3.79669 18.671 3.79669 19.2259 3.51756C19.7809 3.23842 20.3358 2.86624 20.9833 2.49405C22.1857 1.74969 23.2956 2.02883 24.0355 3.14537C24.4055 3.70365 24.7755 4.16888 25.0529 4.72715C25.4229 5.28542 25.7929 5.56456 26.5328 5.47152C27.1803 5.47152 27.8277 5.47152 28.5676 5.37847C29.8625 5.37847 30.7874 6.30893 30.8799 7.51852C30.8799 8.16984 30.9724 8.82116 31.0649 9.47248C31.1574 10.1238 31.4349 10.496 31.9898 10.7751C32.5448 11.0543 33.1922 11.3334 33.7472 11.6125C34.8571 12.1708 35.3195 13.3804 34.7646 14.4969C34.4871 15.1483 34.2096 15.7996 34.0247 16.3579C33.7472 16.9161 33.8397 17.3814 34.2096 17.8466C34.5796 18.4049 34.9496 18.8701 35.412 19.4284C36.152 20.4519 36.0595 21.7545 35.0421 22.5919C34.5796 22.9641 34.1171 23.4293 33.6547 23.8015C33.0997 24.2667 32.9148 24.825 33.0072 25.4763C33.0997 26.1277 33.2847 26.779 33.2847 27.5233C33.3772 28.7329 32.7298 29.7564 31.5274 29.9425C30.9724 30.0356 30.325 30.2217 29.77 30.3147C29.1226 30.4078 28.6601 30.7799 28.4751 31.4313C28.2902 32.0826 28.0127 32.7339 27.8277 33.2922C27.4577 34.4087 26.3478 34.967 25.2379 34.6879C24.5905 34.5018 23.943 34.3157 23.2956 34.1296C22.6481 33.9435 22.0932 34.0365 21.6307 34.5948C21.1683 35.06 20.7058 35.5253 20.2433 35.8974C19.3184 36.7349 18.116 36.7349 17.1911 35.8974C16.7287 35.4322 16.1737 34.967 15.7112 34.5948C15.2488 34.1296 14.7863 34.0365 14.1389 34.2226C13.4914 34.4087 12.844 34.5948 12.1965 34.7809C10.9941 35.06 9.88424 34.5018 9.51428 33.2922C9.32929 32.6409 9.05182 32.0826 8.86683 31.4313C8.68185 30.7799 8.31188 30.4078 7.66444 30.3147C7.01699 30.2217 6.36955 30.0356 5.8146 29.9425C4.6122 29.6634 3.96476 28.7329 4.05725 27.5233C4.14974 26.872 4.24223 26.2207 4.33472 25.4763C4.42722 24.825 4.33472 24.2667 3.77977 23.8015C3.22482 23.4293 2.76236 22.9641 2.2999 22.4989C1.37498 21.6615 1.19 20.4519 1.92993 19.4284C2.2999 18.8701 2.66987 18.4049 3.13233 17.8466C3.5023 17.3814 3.59479 16.8231 3.31731 16.2648C3.03984 15.6135 2.76236 14.9622 2.57738 14.3109C2.11492 13.2874 2.57738 12.0778 3.5023 11.5195C4.14974 11.1473 4.79718 10.8682 5.44463 10.589C5.99958 10.3099 6.36955 9.84466 6.36955 9.28639C6.18456 8.82116 6.18456 8.16984 6.27706 7.51852C6.27706 6.30893 7.29447 5.37847 8.40437 5.37847H9.51428C9.60677 5.37847 9.79175 5.47152 10.4392 5.56456Z" fill="#F5FAFC"/>
<path d="M9.79176 4.44799C10.5317 4.54104 10.9942 4.16886 11.3641 3.61058C11.7341 3.05231 12.1041 2.40099 12.474 1.84272C13.3065 0.633122 14.5089 0.353985 15.7112 1.09835C16.3587 1.47053 17.0061 1.84272 17.5611 2.12185C18.0235 2.40099 18.5785 2.40099 19.1335 2.12185C19.7809 1.74967 20.3358 1.37749 20.9833 1.09835C22.2782 0.353985 23.4806 0.633122 24.2205 1.84272C24.5905 2.40099 24.9604 2.95926 25.3304 3.61058C25.7004 4.16886 26.1628 4.54104 26.9028 4.44799C27.6427 4.44799 28.2902 4.44799 29.0301 4.35495C30.4175 4.35495 31.3424 5.28541 31.4349 6.68109C31.4349 7.33241 31.5274 8.07678 31.6199 8.7281C31.7124 9.37941 31.9898 9.84464 32.6373 10.1238C33.2847 10.4029 33.9322 10.6821 34.4871 11.0542C35.6895 11.7056 36.152 12.9151 35.597 14.1247C35.3195 14.7761 35.0421 15.5204 34.7646 16.1717C34.4871 16.73 34.5796 17.2883 34.9496 17.7535C35.412 18.3118 35.782 18.8701 36.2445 19.5214C37.0769 20.6379 36.9844 21.9406 35.8745 22.871C35.412 23.3363 34.8571 23.8015 34.3946 24.1737C33.7472 24.6389 33.5622 25.1972 33.7472 26.0346C33.8397 26.779 34.0247 27.4303 34.0247 28.1746C34.1171 29.4773 33.3772 30.5008 32.0823 30.7799C31.4349 30.873 30.7874 31.0591 30.2325 31.2451C29.4926 31.3382 29.0301 31.7104 28.8451 32.4547C28.6601 33.1061 28.3827 33.8504 28.1977 34.4087C27.7352 35.6183 26.6253 36.2696 25.4229 35.8974C24.683 35.7113 24.0355 35.5252 23.3881 35.3392C22.7406 35.1531 22.0932 35.2461 21.6307 35.8044C21.1683 36.2696 20.6133 36.7348 20.1509 37.2001C19.1334 38.1305 17.8386 38.1305 16.9136 37.2001C16.4512 36.7348 15.8962 36.2696 15.3413 35.8044C14.8788 35.3392 14.3239 35.1531 13.6764 35.3392C12.9365 35.5252 12.289 35.8044 11.5491 35.8974C10.2542 36.2696 9.14431 35.5252 8.68185 34.3157C8.49687 33.6643 8.21939 33.013 8.03441 32.3617C7.84943 31.7104 7.38697 31.3382 6.73952 31.1521C6.09208 31.0591 5.35214 30.873 4.7047 30.6869C3.40981 30.4077 2.66987 29.3842 2.85486 28.0816C2.94735 27.3372 3.03984 26.6859 3.13233 25.8485C3.22483 25.1041 3.13233 24.5459 2.48489 24.0806C1.92994 23.6154 1.46748 23.1502 0.912526 22.6849C-0.104886 21.7545 -0.28987 20.4518 0.450066 19.3353C0.912526 18.9631 1.28249 18.4048 1.74495 17.8466C2.11492 17.3813 2.20741 16.8231 1.92994 16.1717C1.65246 15.5204 1.37499 14.7761 1.09751 14.1247C0.63505 13.0082 1.09751 11.7986 2.11492 11.1473C2.76237 10.7751 3.5023 10.496 4.14975 10.1238C4.79719 9.84464 5.07467 9.37941 5.16716 8.7281C5.25965 7.89068 5.25965 7.23936 5.35214 6.495C5.44463 5.28541 6.46205 4.2619 7.66444 4.2619H8.77435C8.95933 4.2619 9.14431 4.35495 9.79176 4.44799ZM30.51 19.3353C30.51 12.543 24.9604 7.05327 18.2085 7.14632C11.6416 7.33241 6.27706 12.8221 6.36955 19.4283C6.46205 26.2207 11.9191 31.6173 18.671 31.5243C25.3304 31.4312 30.51 25.9415 30.51 19.3353Z" fill="#8F8F8F"/>
<path d="M18.486 8.72827C24.313 8.72827 28.9376 13.4736 29.0301 19.2424C29.0301 25.3834 24.313 30.1288 18.2085 30.0357C12.474 29.9427 7.84943 25.1043 7.84943 19.3355C7.84943 13.4736 12.5665 8.72827 18.486 8.72827ZM16.9136 20.6381C15.9887 19.8007 15.0638 18.9633 14.1389 18.2189C13.1215 17.2885 12.9365 17.3815 12.0116 18.312C11.5491 18.7772 11.4566 19.1494 11.8266 19.7077C12.289 20.452 12.844 21.1033 13.3989 21.7547C14.4164 23.0573 15.3413 24.3599 16.3587 25.5695C16.7287 26.0348 17.1911 26.0348 17.4686 25.5695C17.5611 25.4765 17.6536 25.3834 17.7461 25.1974C20.0584 21.9408 22.4632 18.5911 24.7755 15.3345C24.868 15.2415 24.9604 15.0554 25.0529 14.8693C25.2379 14.4041 25.2379 14.1249 24.868 13.8458C24.5905 13.6597 24.4055 13.3806 24.0355 13.2875C23.6656 13.0084 23.3881 13.1014 23.1106 13.3806C22.7406 13.8458 22.2782 14.311 21.9082 14.7762C20.3358 16.6372 18.671 18.5911 16.9136 20.6381Z" fill="#8F8F8F"/>
<path d="M10.3467 52.9246L11.1792 51.1567C10.4392 50.6915 9.23682 50.3193 8.12692 50.3193C6.27708 50.3193 5.16717 51.1567 5.16717 52.5524C5.16717 54.9716 8.77436 54.4133 8.77436 55.3438C8.77436 55.6229 8.58938 55.716 8.21941 55.716C7.47947 55.716 6.27708 55.2508 5.53714 54.5994L4.70471 56.3673C5.62963 57.1117 7.01701 57.4839 8.21941 57.4839C9.79177 57.4839 11.1792 56.8325 11.1792 55.2508C11.1792 52.7385 7.57196 53.2968 7.57196 52.3663C7.57196 52.1803 7.75695 52.0872 8.03442 52.0872C8.49688 52.0872 9.60679 52.4594 10.3467 52.9246ZM15.4338 50.4124V57.3908H21.4458V55.6229H17.7461V54.7855H20.9833V53.0177H17.7461V52.1802H21.3533V50.4124H15.4338ZM29.4001 50.4124H26.1629V57.3908H28.4752V55.5299H29.4001C31.2499 55.5299 32.2673 54.5064 32.2673 52.8316C32.1748 51.3428 31.1574 50.4124 29.4001 50.4124ZM29.2151 53.8551H28.3827V52.1802H29.2151C29.6776 52.1802 29.955 52.4594 29.955 53.0177C30.0475 53.4829 29.77 53.8551 29.2151 53.8551Z" fill="#8F8F8F"/>
<path d="M3.59479 41.8524V47.4352H5.44463V45.5742H7.94191V44.1786H5.44463V43.2481H8.1269V41.8524H3.59479ZM10.8092 42.969C9.32929 42.969 8.31188 43.8064 8.31188 45.2021C8.31188 46.5977 9.2368 47.4352 10.8092 47.4352C12.289 47.4352 13.3064 46.5047 13.3064 45.2021C13.214 43.8994 12.289 42.969 10.8092 42.969ZM10.8092 44.4577C11.1791 44.4577 11.4566 44.8299 11.4566 45.2951C11.4566 45.8534 11.1791 46.1325 10.8092 46.1325C10.4392 46.1325 10.1617 45.7603 10.1617 45.2951C10.1617 44.7368 10.4392 44.4577 10.8092 44.4577ZM16.9136 42.969C16.3587 42.969 15.8962 43.2481 15.6187 43.7133V43.062H13.8614V47.4352H15.6187V45.2951C15.6187 44.8299 15.8037 44.5507 16.1737 44.5507C16.4512 44.5507 16.7287 44.7368 16.7287 45.109V47.3421H18.486V44.5507C18.486 43.6203 17.8386 42.969 16.9136 42.969ZM22.0007 41.4802V43.5272C21.7232 43.155 21.3533 43.062 20.8908 43.062C19.6884 43.062 18.9485 43.8994 18.9485 45.2951C18.9485 46.6908 19.6884 47.5282 20.9833 47.5282C21.4457 47.5282 21.8157 47.3421 22.0932 47.063V47.5282H23.8505V41.5733H22.0007V41.4802ZM21.3533 46.1325C20.9833 46.1325 20.7058 45.7603 20.7058 45.2951C20.7058 44.8299 20.9833 44.4577 21.3533 44.4577C21.7232 44.4577 22.0007 44.8299 22.0007 45.2951C22.0007 45.7603 21.7232 46.1325 21.3533 46.1325ZM26.8103 42.969C25.3304 42.969 24.313 43.8064 24.313 45.2021C24.313 46.5977 25.2379 47.4352 26.8103 47.4352C28.2902 47.4352 29.3076 46.5047 29.3076 45.2021C29.3076 43.8994 28.3826 42.969 26.8103 42.969ZM26.8103 44.4577C27.1802 44.4577 27.4577 44.8299 27.4577 45.2951C27.4577 45.8534 27.1802 46.1325 26.8103 46.1325C26.4403 46.1325 26.1628 45.7603 26.1628 45.2951C26.1628 44.7368 26.4403 44.4577 26.8103 44.4577ZM33.0997 44.6438L33.6547 43.5272C33.0072 43.155 32.3598 42.969 31.6199 42.969C30.4175 42.969 29.6775 43.5272 29.6775 44.4577C29.6775 45.9464 31.8973 45.7603 31.8973 46.1325C31.8973 46.2256 31.8048 46.2256 31.6199 46.2256C31.1574 46.2256 30.6025 46.0395 30.0475 45.6673L29.4925 46.7838C30.14 47.156 30.7874 47.4352 31.6199 47.4352C32.8223 47.4352 33.5622 46.8769 33.5622 45.9464C33.5622 44.4577 31.3424 44.6438 31.3424 44.2716C31.3424 44.1786 31.4349 44.0855 31.6199 44.0855C31.8973 44.1785 32.4523 44.2716 33.0997 44.6438Z" fill="#8F8F8F"/>
</svg>
