<?xml version="1.0" encoding="utf-8"?>
<!-- Generator: Adobe Illustrator 23.0.3, SVG Export Plug-In . SVG Version: 6.00 Build 0)  -->
<svg version="1.1" id="Capa_1" xmlns="http://www.w3.org/2000/svg" xmlns:xlink="http://www.w3.org/1999/xlink" x="0px" y="0px"
	 viewBox="0 0 184.2 176.6" style="enable-background:new 0 0 184.2 176.6;" xml:space="preserve">
<style type="text/css">
	.st0{fill:#EDF9FF;}
	.st1{fill:#DDDBDF;}
	.st2{fill:#EFEEF0;}
	.st3{fill:#CBCBCB;}
	.st4{fill:#F6F6F6;}
	.st5{fill:#F1F1F1;}
	.st6{fill:#B2B2B2;}
	.st7{fill:#333333;}
	.st8{fill:#FFE39E;}
	.st9{fill:#A29FA8;}
	.st10{fill:#1EB5FC;}
	.st11{fill:#1F294C;}
</style>
<path class="st0" d="M128.4,146.6c39.7-24.7,55.4-71.1,35.2-103.6S94.8,4,55.1,28.6C15.4,53.3-0.3,99.7,19.9,132.2
	S88.7,171.2,128.4,146.6z"/>
<path class="st1" d="M137.6,122.7h-26.8c-5.7,0-14.1-18.5-14.1-24.2V50.4c0-5.7,4.7-10.2,10.2-10.2h34.8c5.7,0,10.2,4.7,10.2,10.2
	v48.2C152.1,104.2,143.3,122.7,137.6,122.7z"/>
<path class="st2" d="M136.8,122.7H112c-4.7,0-8.5-3.8-8.5-8.6V56.5c0-4.7,3.8-8.5,8.5-8.5h24.9c4.7,0,8.6,3.8,8.6,8.5v57.6
	C145.4,118.9,141.5,122.7,136.8,122.7z"/>
<path class="st3" d="M149.9,82c1.2,0,2.2-2.8,2.2-6.2c0-3.4-1-6.2-2.2-6.2c-1.2,0-2.2,2.8-2.2,6.2C147.7,79.2,148.7,82,149.9,82z"/>
<path class="st1" d="M156.1,82c3.4,0,6.2-2.8,6.2-6.2c0-3.4-2.8-6.2-6.2-6.2c-3.4,0-6.2,2.8-6.2,6.2C149.9,79.2,152.7,82,156.1,82z"
	/>
<path class="st4" d="M110.1,29.8c-1,0-1.9-0.9-1.9-1.9V9.5c0-1,0.9-1.9,1.9-1.9c1,0,1.9,0.9,1.9,1.9v18.4
	C112.1,28.9,111.3,29.8,110.1,29.8z"/>
<path class="st5" d="M110.8,25.7h-1.2V43h1.2V25.7z"/>
<path class="st4" d="M137.3,29.8c-1,0-1.9-0.9-1.9-1.9V9.5c0-1,0.9-1.9,1.9-1.9c1,0,1.9,0.9,1.9,1.9v18.4
	C139.4,28.9,138.5,29.8,137.3,29.8z"/>
<path class="st5" d="M138,25.7h-1.2V43h1.2V25.7z"/>
<path class="st3" d="M100.2,100.5h-0.4v-9.3l3.9,8.3h41.6l3.9-7.3v8.2h-0.4v-6.3l-3.2,5.8h-42.2l-3.1-6.5V100.5z"/>
<path class="st3" d="M133.6,87.8h-17.9c-2.2,0-4-1.8-4-4v-9.2c0-2.2,1.8-4,4-4h18c2.2,0,4,1.8,4,4v9.3
	C137.6,86.1,135.8,87.8,133.6,87.8z"/>
<path class="st4" d="M118.3,81c0.9,0,1.7-0.8,1.7-1.7c0-0.9-0.8-1.7-1.7-1.7c-0.9,0-1.7,0.8-1.7,1.7C116.6,80.2,117.4,81,118.3,81z"
	/>
<path class="st4" d="M130.7,81c0.9,0,1.7-0.8,1.7-1.7c0-0.9-0.8-1.7-1.7-1.7c-0.9,0-1.7,0.8-1.7,1.7C129.1,80.2,129.8,81,130.7,81z"
	/>
<path class="st1" d="M100,139.4h-8.8c-1.2,0-2.1-0.9-2.1-2.1v-10.6c0-1.2,0.9-2.1,2.1-2.1h8.8c1.2,0,2.1,0.9,2.1,2.1v10.6
	C102.1,138.5,101.2,139.4,100,139.4z"/>
<path class="st1" d="M98.4,144.3H93l-1.9-4.9h9.2L98.4,144.3z"/>
<path class="st1" d="M93,144.3h5.3l3,2.5c0.6,0.5,0.3,1.4-0.5,1.4H90.7c-0.8,0-1.2-1-0.5-1.4L93,144.3z"/>
<path class="st1" d="M98.6,122.7h-6.1c-1.3,0-2.5-1-2.5-2.5v-18.8c0-1.3,1-2.5,2.5-2.5h6.1c1.3,0,2.5,1,2.5,2.5v18.9
	C101.1,121.6,99.9,122.7,98.6,122.7z"/>
<path class="st1" d="M99,122.7h-4.4c-1.2,0-1.9-0.9-1.9-1.9v-17c0-1.2,0.9-1.9,1.9-1.9H99c1.2,0,1.9,0.9,1.9,1.9v17
	C101.1,121.9,100.2,122.7,99,122.7z"/>
<path class="st1" d="M98.7,122.7h-5.2v1.9h5.2V122.7z"/>
<path class="st6" d="M92.1,117.5c0.7,0,1.3-2.5,1.3-5.6s-0.6-5.6-1.3-5.6c-0.7,0-1.3,2.5-1.3,5.6S91.4,117.5,92.1,117.5z"/>
<path class="st1" d="M148.9,139.4h8.8c1.2,0,2.1-0.9,2.1-2.1v-10.6c0-1.2-0.9-2.1-2.1-2.1h-8.8c-1.2,0-2.1,0.9-2.1,2.1v10.6
	C146.8,138.5,147.8,139.4,148.9,139.4z"/>
<path class="st1" d="M150.6,144.3h5.4l1.9-4.9h-9.3L150.6,144.3z"/>
<path class="st1" d="M156,144.3h-5.3l-3,2.5c-0.6,0.5-0.3,1.4,0.5,1.4h10.1c0.8,0,1.2-1,0.5-1.4L156,144.3z"/>
<path class="st1" d="M150.4,122.7h6.1c1.3,0,2.5-1,2.5-2.5v-18.8c0-1.3-1-2.5-2.5-2.5h-6.1c-1.3,0-2.5,1-2.5,2.5v18.9
	C148,121.6,149,122.7,150.4,122.7z"/>
<path class="st1" d="M149.9,122.7h4.4c1.2,0,1.9-0.9,1.9-1.9v-17c0-1.2-0.9-1.9-1.9-1.9h-4.4c-1.2,0-1.9,0.9-1.9,1.9v17
	C148,121.9,148.9,122.7,149.9,122.7z"/>
<path class="st1" d="M150.3,124.7h5.2v-1.9h-5.2V124.7z"/>
<path class="st6" d="M156.8,117.5c0.7,0,1.3-2.5,1.3-5.6s-0.6-5.6-1.3-5.6c-0.7,0-1.3,2.5-1.3,5.6S156.1,117.5,156.8,117.5z"/>
<path class="st1" d="M166.7,90.8l0,3.6l6,0l0-3.6L166.7,90.8z"/>
<path class="st3" d="M99.4,82c1.2,0,2.2-2.8,2.2-6.2c0-3.4-1-6.2-2.2-6.2c-1.2,0-2.2,2.8-2.2,6.2C97.2,79.2,98.2,82,99.4,82z"/>
<path class="st1" d="M93.2,82c3.4,0,6.2-2.8,6.2-6.2c0-3.4-2.8-6.2-6.2-6.2c-3.4,0-6.2,2.8-6.2,6.2C87,79.2,89.7,82,93.2,82z"/>
<path class="st1" d="M168.3,91.5l3.6-0.4c1.8-0.3,3.2-1.9,3-3.8c-0.3-1.8-1.9-3.2-3.8-3l-3.6,0.4c-1.8,0.3-3.2,1.9-3,3.8
	C164.8,90.3,166.5,91.6,168.3,91.5z"/>
<path class="st6" d="M173.5,88.7c0.5-0.1,0.8-0.9,0.6-1.8c-0.2-0.9-0.7-1.6-1.2-1.5c-0.5,0.1-0.8,0.9-0.6,1.8
	C172.5,88.1,173,88.8,173.5,88.7z"/>
<path class="st1" d="M166.9,117.6h5.8c2.2,0,4-1.8,4-4V98.3c0-2.2-1.8-4-4-4h-5.8c-2.2,0-4,1.8-4,4v15.3
	C162.9,115.8,164.7,117.6,166.9,117.6z"/>
<path class="st1" d="M169.7,124.9c2.4,0,4.4-2,4.4-4.4c0-2.4-2-4.4-4.4-4.4c-2.4,0-4.4,2-4.4,4.4
	C165.3,122.9,167.3,124.9,169.7,124.9z"/>
<path class="st1" d="M169.2,133.3c3.4,0,6.1-2.7,6.1-6.1c0-3.4-2.7-6.1-6.1-6.1c-3.4,0-6.1,2.7-6.1,6.1h3.5c0-1.4,1.2-2.6,2.6-2.6
	s2.6,1.2,2.6,2.6c0,1.4-1.2,2.6-2.6,2.6V133.3z"/>
<path class="st6" d="M132.2,111.8l2.5-3.2h0.3v3.2h0.8v0.3h-0.8v1.4h-0.3v-1.4h-2.5V111.8z M134.6,111.7v-2.3c0-0.1,0-0.4,0-0.4
	s-0.1,0.1-0.3,0.4l-1.8,2.3H134.6z"/>
<path class="st6" d="M136.3,113.1c0-1.7,2.6-1.8,2.6-3.4c0-0.5-0.4-1-1.2-1c-0.8,0-1.2,0.6-1.2,0.6l-0.3-0.1c0,0,0.4-0.8,1.4-0.8
	c0.9,0,1.4,0.6,1.4,1.3c0,1.7-2.6,1.8-2.6,3.4h2.6v0.3h-3C136.3,113.2,136.3,113.2,136.3,113.1z"/>
<path class="st1" d="M166,87.4l5.7-0.8c0-0.4-1.6-10.8-10.9-12.7l-1.2,5.6C164.9,80.7,166,87.2,166,87.4z"/>
<path class="st5" d="M7.9,138.5L13,140l-2.3,5.4l-5.1-1.7L7.9,138.5z"/>
<path class="st7" d="M6.2,148.8h13.3c1.3,0,2.1-1.6,1.2-2.6l-0.3-0.3c-0.6-0.8-1.6-1.2-2.6-1.2h-3.8c-0.8,0-1.6-0.4-2.1-0.9v-0.1
	c-0.4-0.4-0.9-0.6-1.4-0.6H6.4c-0.8,0-1.6,0.6-1.6,1.6v2.6C4.8,148.2,5.5,148.8,6.2,148.8z"/>
<path class="st8" d="M27,90.4c0,0-2.2,9.8-7.5,24c-2.7,7.3-8.4,15.2-11.7,24.4L13,140c0,0,9.6-12.4,16.2-24.7
	c5.2-9.8,9.3-20.2,10.1-22.5"/>
<path class="st5" d="M65.6,139.8l5.3-0.8l1,4.9l-5.3,0.6L65.6,139.8z"/>
<path class="st7" d="M66.6,148.3H80c1.3,0,2.1-1.6,1.2-2.6l-0.3-0.3c-0.6-0.8-1.6-1.2-2.6-1.2h-3.8c-0.8,0-1.6-0.4-2.1-0.9v-0.1
	c-0.4-0.4-0.9-0.6-1.4-0.6h-4.3c-0.8,0-1.6,0.6-1.6,1.6v2.6C65.2,147.7,65.8,148.3,66.6,148.3z"/>
<path class="st8" d="M61,87.8c4.7,12.3,7.5,38,9.7,51.2l-5.3,0.8c0,0-11.8-33.8-15.8-47.5"/>
<path class="st9" d="M32.2,72.9c-1.6,5.8-3.6,10.4-6.9,16.6c-0.8,1.4,0.9,2.5,2.3,2.8c11.8,3.6,24,3,32.8,0.1
	c1.6-0.5,2.8-1.7,2.1-3.2c-2.5-5.4-4-8.7-6.3-15.5"/>
<path class="st10" d="M56.1,73.6c0,0-1-19.4,1.4-18.8c1.3,0.4,6.6,9.5,8.2,12.3c0.1,0.3-0.1,0.5-0.4,0.4l-6.9-3.8L56,70
	c3.2,1.8,7.4,3.2,10.6,4.3c3.6,1,6.9-2.3,5.7-5.8c-2.2-6.7-7.1-15.8-7.1-15.8c-2.7-4.9-3.4-8.3-7-10.6c-2.8-1.7-6.1-2.5-9.3-3.1
	c-3.8-0.8-8.9-1.2-12.7-0.8c-4.9,0.4-8.2,10-13.5,18.4c-2.1,3.4-2.2,15.2,15.9,0.3c0,0,0-2.1-1.4-4.3c0,0-2.6,1.9-6,3.4
	c-1.7,0.8,4.1-4.3,4.1-4.3L31.6,75c0,0,4.5,3.8,13.2,3.1C53.5,77.3,56.1,73.6,56.1,73.6z"/>
<path class="st8" d="M48.6,39.9c0.3,1.2,0.8,2.5,3.6,3.8c1.2,0.5,2.2,0.1,2.6-0.1c0.8-0.6,0.5-2.3,1.6-2.6c1.4-0.4,3.5,1.3,4.9,1.8
	c2.7,1,6.2-1,7.6-3.2c2.5-3.9,3.6-8.3,4.9-12.7c0,0,0.8-9.3-12.3-9.7c-13.1-0.4-12.6,14-12,18.1C49.8,38.3,48.3,38.7,48.6,39.9z"/>
<path class="st11" d="M73.9,26c-3.6-0.4-7.6-1.3-10.8,0.4c-1.2,0.6-3.4,9.2-4.9,6.3c-0.4-0.8-0.3-4.4-2.5-5.1
	c-0.9-0.3-2.1,0.3-2.6,1.4c-0.6,1.7-7,25.3-7,25.3c-0.9,3.6-9.8,0.1-6.9-12.3c0.8-3.4,3.8-8.8,5.4-13.3c3-8.2,4.5-16.1,16.5-15
	C68.7,14.5,75.3,18.1,73.9,26z"/>
<path class="st1" d="M62.7,61l-3.7,4.7l2.8,2.2l3.7-4.7L62.7,61z"/>
<path class="st1" d="M62.3,66.3l2.6-2.6c1.3-1.3,3.5-1.3,4.8,0c1.3,1.3,1.3,3.5,0,4.8l-2.6,2.6c-1.3,1.3-3.5,1.3-4.8,0
	C61,70,61,67.8,62.3,66.3z"/>
<path class="st1" d="M69.9,66.4c0.4-0.3,0.2-1.2-0.4-1.9c-0.6-0.7-1.4-1-1.8-0.7c-0.4,0.3-0.2,1.2,0.4,1.9
	C68.7,66.5,69.5,66.8,69.9,66.4z"/>
<path class="st1" d="M41,51.2l3.6-4.5c1.4-1.7,3.9-1.9,5.6-0.6l11.9,9.6c1.7,1.4,1.9,3.9,0.6,5.6l-3.6,4.5c-1.4,1.7-3.9,1.9-5.6,0.6
	l-11.9-9.6C39.8,55.4,39.5,52.9,41,51.2z"/>
<path class="st1" d="M40.6,51.6c2.4,0,4.4-2,4.4-4.4c0-2.4-2-4.4-4.4-4.4c-2.4,0-4.4,2-4.4,4.4C36.2,49.6,38.1,51.6,40.6,51.6z"/>
<path class="st1" d="M31.1,48.1c1.3,1,2.8,1.4,4.4,1.3c1.6-0.1,3.1-1,4-2.2c1-1.3,1.4-2.8,1.3-4.4c-0.1-1.6-1-3.1-2.2-4
	c-1.3-1-2.9-1.4-4.4-1.3c-1.6,0.1-3.1,1-4,2.2l2.7,2.2c0.4-0.5,1-0.9,1.8-0.9c0.6-0.1,1.4,0.1,1.9,0.5s0.9,1,0.9,1.8
	c0.1,0.6-0.1,1.4-0.5,1.9c-0.4,0.5-1,0.9-1.8,0.9c-0.6,0.1-1.4-0.1-1.9-0.5L31.1,48.1z"/>
<path class="st8" d="M57.9,66.1c-1-0.8-1.9-1.7-3-2.5c-0.4-0.3-0.6-0.5-1.2-0.5c-0.5,0-0.8,0.5-0.5,0.9c0-0.5-0.6-0.9-1-0.6
	c-0.4,0.3-0.4,1,0,1.3c0-0.3-0.3-0.4-0.5-0.3c-0.1,0.1-0.3,0.4-0.1,0.5c0.1,0.1,0.3,0.4,0.4,0.5c-0.3,0-0.5,0.4-0.5,0.6
	s0.3,0.5,0.5,0.8c0.8,0.8,1.6,1.7,2.3,2.5c0.4,0.4,0.8,0.8,1.3,1c0.9,0.3,2.3-0.1,2.8-0.9c0.6-1.3,0.8-2.3,0.5-3.5"/>
<path class="st8" d="M40.6,52.3c1.3,0.1,2.6,0.3,3.9,0.4c0.4,0,0.9,0.1,1.2,0.4c0.3,0.4,0.1,1-0.3,1c0.4-0.4,1-0.3,1.2,0.3
	c0.1,0.5-0.4,1-0.9,0.9c0.1-0.1,0.4,0,0.5,0.1c0.1,0.1-0.1,0.4-0.3,0.5c-0.1,0.1-0.4,0.1-0.6,0c0.3,0.1,0.1,0.6-0.1,0.8
	c-0.3,0.1-0.5,0.1-0.9,0.1c-1.2,0-2.2,0-3.4,0c-0.5,0-1.2,0-1.7-0.3c-0.8-0.5-1.7-1.8-1.3-2.6c0.4-1.3,0.9-3.4,3-2.6"/>
</svg>
