<?xml version="1.0" encoding="utf-8"?>
<!-- Generator: Adobe Illustrator 23.0.3, SVG Export Plug-In . SVG Version: 6.00 Build 0)  -->
<svg version="1.1" id="Capa_1" xmlns="http://www.w3.org/2000/svg" xmlns:xlink="http://www.w3.org/1999/xlink" x="0px" y="0px"
	 viewBox="0 0 175 167" style="enable-background:new 0 0 175 167;" xml:space="preserve">
<style type="text/css">
	.st0{fill:#EDF9FF;}
	.st1{fill:#1E120D;}
	.st2{fill:#B2B2B2;}
	.st3{fill:#1A1A1A;}
	.st4{fill:#1EB5FC;}
	.st5{fill:#FFE39E;}
	.st6{fill:#FFFFFF;}
</style>
<path class="st0" d="M124,142.4c39.6-24.6,55.4-71,35.1-103.5C138.9,6.4,90.4,0,50.8,24.6c-39.6,24.6-55.4,71-35.1,103.5
	S84.4,167,124,142.4z"/>
<path class="st1" d="M99.6,84.9c0,16.5-6.9,29.9-15.6,29.9c-8.7,0-15.6-13.4-15.6-29.9c0-16.5,6.5-21.2,15.2-21.2
	S99.6,68.4,99.6,84.9z"/>
<path class="st2" d="M100.5,128.1c-0.9,5.7,5.3,7.1,7.2,7.1c4.9-0.1,8.4-0.6,13,1c4.6,1.8,8.4,6.5,7.4,11.2
	c-0.7,3.1-3.4,5.4-6.3,6.6c-2.9,1.2-6.2,1.3-9.4,1.5c-6.3,0.1-11.2-0.1-17.5-0.9l-7.1-0.4c-5.3,0-10.2,0.7-10.2,0.7
	c-6.3,0.7-8.5,0.7-14.9,0.6c-3.2-0.1-6.5-0.3-9.4-1.5c-2.9-1.2-5.6-3.5-6.3-6.6c-1-4.7,2.8-9.4,7.4-11.2c4.6-1.8,5.6-1.3,10.5-1
	c1.9,0,7.1-1.9,7.1-7.1"/>
<path class="st3" d="M86.6,147.6c0.9-1.5-0.4-3.2-1.5-3.7c-1.2-0.6-2.4-0.4-3.7-0.6c-1.8-0.1-3.7-0.4-5.3-0.9
	c-1.3-0.4-2.6-0.9-4-0.9s-2.9,0.6-3.4,1.9L86.6,147.6z"/>
<path class="st3" d="M90.6,154.4c2.8,0.1,11.6,1,11.6,1c4,0.1,5.9-2.4,6.2-4c0.1-1.6-0.7-3.4-2.2-4c-0.6-0.3-1.3-0.3-2.1-0.3
	c-1.2,0-2.4,0.1-3.5,0.4c-1.5,0.4-2.9,1.2-4.6,0.9c-0.7-0.1-1.5-0.6-2.2-0.7c-1.9-0.6-4.1-0.1-6.2,0.3c0,0,3.2,1.2,3.7,3.2
	C91.8,153.4,90.6,154.4,90.6,154.4z"/>
<path class="st4" d="M97.8,109.5l3.5,21.3c0.4,2.5-1,5-3.5,5.6c-11,2.4-19.9,1.3-24.9,0.1c-2.4-0.6-3.8-2.9-3.2-5.3
	c3.2-13.4,3.1-19.7,3.1-19.7s2.8,6,0.6,11.5c0,0-12.4,2.7-12.4-3.1c0-5.4,2.2-23.3,15.2-24.6c4.3-0.4,11.5,0,15.9,0.3
	c11.6,0.7,17.7,18.3,17.7,23.5c0,5.4-13.8,4.7-11,1.6C99,120.3,97.8,109.5,97.8,109.5z"/>
<path class="st5" d="M73.4,75.8c-0.7,3.2-0.3,7.1,0.1,10.2c0.6,3.4,3.7,6.6,4.6,7.1c2.1,0.9,1,5.2,2.4,6.9c1.3,1.8,5.4,2.2,7.1,0.7
	c1.6-1.5,1.2-3.7,1.2-6c0.1-2.2,3.5-3.1,4.6-7.1c0,0,2.8-14.7-3.2-17.8c-4.4-2.4-7.8-1.8-11.3-1.2C74.3,69.2,73.7,74.9,73.4,75.8z"
	/>
<path class="st1" d="M72.9,83.6c1.6-2.4,3.1-7.9,3.5-10.7c0-0.4,0.1-0.9,0.6-0.9c0.3,0,0.6,0.3,0.7,0.4c1.8,2.1,4.3,3.5,6.9,4.3
	c2.7,0.7,5.4,0.9,8.1,1c0.1,0,0.4,0,0.4,0.1c0.1,0.1,0.1,0.3,0.1,0.4c0.1,2.1,0.3,4,0.4,6c0,0,5-14.3-5.4-17.4C77.8,64,77,68,77,68
	s-5,0.4-5.2,5.6C71.9,78.9,72.9,83.6,72.9,83.6z"/>
<path class="st5" d="M80.6,117.3c0.9-0.6,1.5-1.5,1.9-2.5c0.4-1,0.4-2.1,0.4-3.1c0.1-2.1,0.3-2.2,0.3-4.3c0-0.4,0-0.9,0.3-1.2
	c0.1-0.4,0.6-0.7,0.9-0.7c0.4,0,0.9,0.4,0.7,0.7v13.1c0,1-0.9,1.8-1.8,1.8h-2.7c0,0-1.2-0.3-1.2-2.2C79.6,117,80.6,117.3,80.6,117.3
	z"/>
<path class="st5" d="M89.4,117.3c-0.9-0.6-1.5-1.5-1.9-2.5c-0.4-1-0.3-2.1-0.3-3.1c-0.1-2.1-0.3-2.2-0.3-4.3c0-0.4,0-0.9-0.3-1.2
	c-0.1-0.4-0.6-0.7-0.9-0.7c-0.4,0-0.9,0.4-0.7,0.7v13.1c0,1,0.9,1.8,1.8,1.8h2.6c0,0,1.2-0.3,1.2-2.2
	C90.6,117,89.4,117.3,89.4,117.3z"/>
<path class="st6" d="M99.4,54.3c-2.2-0.5-6.9,0.4-6.9-4.3c0-3,1.7-4,3.9-4.4c1.2-0.1,2.3,0,3.5-0.3c1.2-0.3,2.2-1.2,2.1-2.3
	c-0.1-0.8-1-1.6-0.4-2.5c0.3-0.5,0.9-0.8,1.4-0.8c3.5-0.1,6.9,0,10.4-0.1c1.3-0.1,2.6-0.1,3.9,0.3c1.3,0.4,2.3,1.4,2.6,2.7
	c0.1,1.4-0.8,2.5-0.3,3.9c0.6,1.9,3.6,1.8,5,3.4c1.3,1.4,0.8,3.9-0.5,5.2c-1.4,1.3-3.4,1.9-5.3,1.9c-7.4,0.3-8.5,0-15.5,0.3
	C99.3,57.6,99.4,54.3,99.4,54.3z"/>
</svg>
