<svg width="217" height="208" viewBox="0 0 217 208" fill="none" xmlns="http://www.w3.org/2000/svg">
<path d="M145.155 162.601C184.834 137.937 200.589 91.5414 180.345 58.972C160.101 26.4026 111.523 19.9934 71.8447 44.6565C32.166 69.3196 16.4111 115.716 36.6553 148.285C56.8995 180.854 105.477 187.264 145.155 162.601Z" fill="#EDF9FF"/>
<path d="M154.333 138.718H127.517C121.817 138.718 113.396 120.193 113.396 114.493V66.4322C113.396 60.7322 118.06 56.1981 123.631 56.1981H158.478C164.178 56.1981 168.712 60.8617 168.712 66.4322V114.623C168.842 120.193 160.033 138.718 154.333 138.718Z" fill="#DDDBDF"/>
<path d="M153.555 138.718H128.683C124.019 138.718 120.133 134.962 120.133 130.168V72.5209C120.133 67.8572 123.89 63.9709 128.683 63.9709H153.555C158.219 63.9709 162.105 67.7277 162.105 72.5209V130.168C162.105 134.962 158.219 138.718 153.555 138.718Z" fill="#EFEEF0"/>
<path d="M166.639 98.0412C167.856 98.0412 168.842 95.2573 168.842 91.8231C168.842 88.3889 167.856 85.6049 166.639 85.6049C165.423 85.6049 164.437 88.3889 164.437 91.8231C164.437 95.2573 165.423 98.0412 166.639 98.0412Z" fill="#CBCBCB"/>
<path d="M172.858 98.0412C176.292 98.0412 179.076 95.2572 179.076 91.823C179.076 88.3888 176.292 85.6049 172.858 85.6049C169.423 85.6049 166.639 88.3888 166.639 91.823C166.639 95.2572 169.423 98.0412 172.858 98.0412Z" fill="#DDDBDF"/>
<path d="M126.869 45.8345C125.833 45.8345 124.926 44.9277 124.926 43.8913V25.496C124.926 24.4596 125.833 23.5528 126.869 23.5528C127.906 23.5528 128.812 24.4596 128.812 25.496V43.8913C128.812 44.9277 128.035 45.8345 126.869 45.8345Z" fill="#F6F6F6"/>
<path d="M127.517 41.6891H126.351V59.0482H127.517V41.6891Z" fill="#F1F1F1"/>
<path d="M154.074 45.8345C153.037 45.8345 152.13 44.9277 152.13 43.8913V25.496C152.13 24.4596 153.037 23.5528 154.074 23.5528C155.11 23.5528 156.017 24.4596 156.017 25.496V43.8913C156.146 44.9277 155.239 45.8345 154.074 45.8345Z" fill="#F6F6F6"/>
<path d="M154.721 41.6891H153.555V59.0482H154.721V41.6891Z" fill="#F1F1F1"/>
<path d="M116.894 116.566H116.506V107.239L120.392 115.53H161.976L165.862 108.275V116.437H165.474V110.089L162.235 115.918H120.003L116.894 109.441V116.566Z" fill="#CBCBCB"/>
<path d="M150.317 103.871H132.44C130.237 103.871 128.424 102.057 128.424 99.8548V90.6571C128.424 88.4549 130.237 86.6412 132.44 86.6412H150.446C152.649 86.6412 154.462 88.4549 154.462 90.6571V99.9844C154.333 102.187 152.519 103.871 150.317 103.871Z" fill="#CBCBCB"/>
<path d="M135.03 97.0048C135.961 97.0048 136.715 96.2508 136.715 95.3207C136.715 94.3907 135.961 93.6367 135.03 93.6367C134.1 93.6367 133.346 94.3907 133.346 95.3207C133.346 96.2508 134.1 97.0048 135.03 97.0048Z" fill="#F6F6F6"/>
<path d="M147.467 97.0048C148.397 97.0048 149.151 96.2508 149.151 95.3207C149.151 94.3907 148.397 93.6367 147.467 93.6367C146.537 93.6367 145.783 94.3907 145.783 95.3207C145.783 96.2508 146.537 97.0048 147.467 97.0048Z" fill="#F6F6F6"/>
<path d="M116.765 155.43H107.956C106.79 155.43 105.883 154.523 105.883 153.357V142.734C105.883 141.568 106.79 140.661 107.956 140.661H116.765C117.931 140.661 118.837 141.568 118.837 142.734V153.357C118.837 154.523 117.931 155.43 116.765 155.43Z" fill="#DDDBDF"/>
<path d="M115.081 160.352H109.769L107.826 155.43H117.024L115.081 160.352Z" fill="#DDDBDF"/>
<path d="M109.769 160.352H115.081L118.06 162.814C118.708 163.332 118.319 164.239 117.542 164.239H107.437C106.66 164.239 106.271 163.202 106.919 162.814L109.769 160.352Z" fill="#DDDBDF"/>
<path d="M115.34 138.718H109.251C107.956 138.718 106.79 137.682 106.79 136.257V117.473C106.79 116.178 107.826 115.012 109.251 115.012H115.34C116.635 115.012 117.801 116.048 117.801 117.473V136.387C117.801 137.682 116.635 138.718 115.34 138.718Z" fill="#DDDBDF"/>
<path d="M115.728 138.718H111.324C110.158 138.718 109.381 137.811 109.381 136.775V119.805C109.381 118.639 110.287 117.862 111.324 117.862H115.728C116.894 117.862 117.671 118.768 117.671 119.805V136.775C117.801 137.941 116.894 138.718 115.728 138.718Z" fill="#DDDBDF"/>
<path d="M115.469 138.718H110.287V140.661H115.469V138.718Z" fill="#DDDBDF"/>
<path d="M108.862 133.536C109.578 133.536 110.158 131.042 110.158 127.966C110.158 124.89 109.578 122.396 108.862 122.396C108.147 122.396 107.567 124.89 107.567 127.966C107.567 131.042 108.147 133.536 108.862 133.536Z" fill="#B2B2B2"/>
<path d="M165.603 155.43H174.412C175.578 155.43 176.485 154.523 176.485 153.357V142.734C176.485 141.568 175.578 140.661 174.412 140.661H165.603C164.437 140.661 163.53 141.568 163.53 142.734V153.357C163.53 154.523 164.567 155.43 165.603 155.43Z" fill="#DDDBDF"/>
<path d="M167.287 160.352H172.728L174.671 155.43H165.344L167.287 160.352Z" fill="#DDDBDF"/>
<path d="M172.728 160.352H167.417L164.437 162.814C163.789 163.332 164.178 164.239 164.955 164.239H175.06C175.837 164.239 176.226 163.202 175.578 162.814L172.728 160.352Z" fill="#DDDBDF"/>
<path d="M167.158 138.718H173.246C174.542 138.718 175.708 137.682 175.708 136.257V117.473C175.708 116.178 174.671 115.012 173.246 115.012H167.158C165.862 115.012 164.696 116.048 164.696 117.473V136.387C164.696 137.682 165.733 138.718 167.158 138.718Z" fill="#DDDBDF"/>
<path d="M166.639 138.718H171.044C172.21 138.718 172.987 137.811 172.987 136.775V119.805C172.987 118.639 172.08 117.862 171.044 117.862H166.639C165.474 117.862 164.696 118.768 164.696 119.805V136.775C164.696 137.941 165.603 138.718 166.639 138.718Z" fill="#DDDBDF"/>
<path d="M166.995 140.737L172.177 140.737L172.177 138.794L166.995 138.794L166.995 140.737Z" fill="#DDDBDF"/>
<path d="M173.505 133.536C174.221 133.536 174.801 131.042 174.801 127.966C174.801 124.89 174.221 122.396 173.505 122.396C172.79 122.396 172.21 124.89 172.21 127.966C172.21 131.042 172.79 133.536 173.505 133.536Z" fill="#B2B2B2"/>
<path d="M183.469 106.875L183.448 110.502L189.407 110.536L189.428 106.909L183.469 106.875Z" fill="#DDDBDF"/>
<path d="M116.117 98.0412C117.333 98.0412 118.319 95.2572 118.319 91.823C118.319 88.3888 117.333 85.6049 116.117 85.6049C114.901 85.6049 113.915 88.3888 113.915 91.823C113.915 95.2572 114.901 98.0412 116.117 98.0412Z" fill="#CBCBCB"/>
<path d="M109.899 98.0412C113.333 98.0412 116.117 95.2573 116.117 91.8231C116.117 88.3889 113.333 85.6049 109.899 85.6049C106.465 85.6049 103.681 88.3889 103.681 91.8231C103.681 95.2573 106.465 98.0412 109.899 98.0412Z" fill="#DDDBDF"/>
<path d="M185.035 107.498L188.662 107.109C190.476 106.85 191.901 105.166 191.642 103.353C191.383 101.539 189.698 100.114 187.885 100.373L184.258 100.762C182.444 101.021 181.019 102.705 181.278 104.518C181.537 106.332 183.221 107.628 185.035 107.498Z" fill="#DDDBDF"/>
<path d="M190.235 104.756C190.729 104.671 191 103.859 190.842 102.942C190.684 102.026 190.155 101.352 189.662 101.437C189.168 101.523 188.897 102.335 189.055 103.251C189.213 104.168 189.742 104.842 190.235 104.756Z" fill="#B2B2B2"/>
<path d="M183.61 133.666H189.439C191.642 133.666 193.455 131.852 193.455 129.65V114.364C193.455 112.162 191.642 110.348 189.439 110.348H183.61C181.408 110.348 179.594 112.162 179.594 114.364V129.65C179.594 131.852 181.408 133.666 183.61 133.666Z" fill="#DDDBDF"/>
<path d="M186.46 140.921C188.892 140.921 190.864 138.949 190.864 136.516C190.864 134.084 188.892 132.112 186.46 132.112C184.027 132.112 182.055 134.084 182.055 136.516C182.055 138.949 184.027 140.921 186.46 140.921Z" fill="#DDDBDF"/>
<path d="M185.942 149.341C189.31 149.341 192.03 146.621 192.03 143.252C192.03 139.884 189.31 137.164 185.942 137.164C182.573 137.164 179.853 139.884 179.853 143.252H183.351C183.351 141.827 184.517 140.661 185.942 140.661C187.367 140.661 188.533 141.827 188.533 143.252C188.533 144.677 187.367 145.843 185.942 145.843V149.341Z" fill="#DDDBDF"/>
<path d="M148.892 127.837L151.353 124.599H151.612V127.837H152.389V128.096H151.612V129.521H151.353V128.096H148.892V127.837ZM151.353 127.708V125.376C151.353 125.246 151.353 124.987 151.353 124.987C151.353 124.987 151.224 125.117 151.094 125.376L149.28 127.708H151.353Z" fill="#B2B2B2"/>
<path d="M153.037 129.132C153.037 127.448 155.628 127.318 155.628 125.764C155.628 125.246 155.239 124.728 154.462 124.728C153.685 124.728 153.296 125.375 153.296 125.375L153.037 125.246C153.037 125.246 153.426 124.468 154.462 124.468C155.369 124.468 155.887 125.116 155.887 125.764C155.887 127.448 153.296 127.578 153.296 129.132H155.887V129.391H152.908C153.037 129.262 153.037 129.262 153.037 129.132Z" fill="#B2B2B2"/>
<path d="M182.703 103.482L188.403 102.705C188.403 102.316 186.848 91.9526 177.521 90.0094L176.355 95.5798C181.667 96.7457 182.703 103.223 182.703 103.482Z" fill="#DDDBDF"/>
<path d="M24.6582 154.523L29.7105 156.077L27.3787 161.518L22.3264 159.834L24.6582 154.523Z" fill="#F1F1F1"/>
<path d="M22.9741 164.886H36.3173C37.6127 164.886 38.39 163.332 37.4832 162.295L37.2241 162.036C36.5763 161.259 35.6695 160.87 34.6332 160.87H30.8764C30.0991 160.87 29.3218 160.482 28.8036 159.964V159.834C28.415 159.445 27.8968 159.186 27.3787 159.186H23.1037C22.3264 159.186 21.5491 159.834 21.5491 160.741V163.332C21.5491 164.239 22.1969 164.886 22.9741 164.886Z" fill="#333333"/>
<path d="M43.7013 106.462C43.7013 106.462 41.499 116.307 36.1877 130.427C33.4673 137.682 27.7673 145.584 24.5287 154.782L29.7105 156.077C29.7105 156.077 39.2968 143.641 45.9036 131.334C51.0854 121.489 55.2308 111.125 56.0081 108.793" fill="#FFE39E"/>
<path d="M82.3057 155.818L87.6171 155.041L88.6534 159.964L83.3421 160.611L82.3057 155.818Z" fill="#F1F1F1"/>
<path d="M83.3421 164.368H96.6852C97.9807 164.368 98.7579 162.814 97.8511 161.777L97.592 161.518C96.9443 160.741 96.0375 160.352 95.0011 160.352H91.2443C90.4671 160.352 89.6898 159.964 89.1716 159.445V159.316C88.783 158.927 88.2648 158.668 87.7466 158.668H83.4716C82.6944 158.668 81.9171 159.316 81.9171 160.223V162.814C81.9171 163.72 82.5648 164.368 83.3421 164.368Z" fill="#333333"/>
<path d="M77.7716 103.871C82.4353 116.177 85.2853 141.827 87.4875 155.041L82.1762 155.818C82.1762 155.818 70.3876 122.007 66.3717 108.275" fill="#FFE39E"/>
<path d="M48.8831 88.973C47.3286 94.8025 45.2559 99.3366 42.0172 105.555C41.24 106.98 42.924 108.016 44.349 108.405C56.1376 112.032 68.3149 111.384 77.1239 108.534C78.6785 108.016 79.9739 106.85 79.1966 105.296C76.7353 99.8548 75.1807 96.6162 72.8489 89.7503" fill="#A29FA8"/>
<path d="M72.8489 89.6207C72.8489 89.6207 71.8126 70.189 74.2739 70.8367C75.5694 71.2254 80.8807 80.2935 82.4352 83.1435C82.5648 83.4026 82.3057 83.6617 82.0466 83.5321L75.1807 79.7753L72.7194 85.9935C75.958 87.8071 80.1034 89.2321 83.3421 90.2685C86.9693 91.3048 90.2079 87.9366 89.042 84.4389C86.8398 77.7026 81.9171 68.6345 81.9171 68.6345C79.1966 63.7117 78.5489 60.3436 74.9216 58.0118C72.0716 56.3277 68.833 55.5504 65.5944 54.9027C61.8376 54.1254 56.6558 53.7368 52.899 54.1254C47.9763 54.5141 44.7377 64.1004 39.4263 72.5208C37.3536 75.889 37.2241 87.6776 55.3603 72.7799C55.3603 72.7799 55.3603 70.7072 53.9354 68.5049C53.9354 68.5049 51.3445 70.4481 47.9763 71.8731C46.2922 72.6503 52.1217 67.5981 52.1217 67.5981L48.3649 91.0457C48.3649 91.0457 52.899 94.8025 61.5785 94.1548C70.258 93.3775 72.8489 89.6207 72.8489 89.6207Z" fill="#1EB5FC"/>
<path d="M65.3353 55.9392C65.5944 57.1051 66.1126 58.4005 68.9626 59.696C70.1285 60.2142 71.1648 59.8255 71.5535 59.5664C72.3307 58.9187 72.0716 57.2346 73.108 56.9755C74.533 56.5869 76.6057 58.271 78.0307 58.7892C80.7512 59.8255 84.2489 57.7528 85.6739 55.5505C88.1352 51.6642 89.3011 47.2597 90.5966 42.8551C90.5966 42.8551 91.3738 33.5279 78.2898 33.1393C65.2058 32.7506 65.7239 47.1301 66.2421 51.2755C66.5012 54.3846 65.0762 54.7733 65.3353 55.9392Z" fill="#FFE39E"/>
<path d="M90.5966 42.0778C86.9693 41.6892 82.9534 40.7823 79.8443 42.4664C78.6784 43.1142 76.4762 51.6641 74.9216 48.8141C74.533 48.0369 74.6625 44.4096 72.4603 43.7619C71.5535 43.5028 70.3876 44.021 69.8694 45.1869C69.2217 46.871 62.874 70.4481 62.874 70.4481C61.9671 74.0754 53.0285 70.5777 56.0081 58.1414C56.7853 54.7732 59.7649 49.3323 61.449 44.7982C64.4285 36.6369 65.983 28.7347 77.9012 29.771C85.4148 30.5483 92.0216 34.1756 90.5966 42.0778Z" fill="#1F294C"/>
<path d="M79.4743 77.0285L75.7838 81.7076L78.632 83.9539L82.3224 79.2749L79.4743 77.0285Z" fill="#DDDBDF"/>
<path d="M79.0671 82.3662L81.658 79.7753C82.9534 78.4798 85.1557 78.4798 86.4512 79.7753C87.7466 81.0707 87.7466 83.273 86.4512 84.5685L83.8603 87.1594C82.5648 88.4548 80.3625 88.4548 79.0671 87.1594C77.7717 85.9935 77.7717 83.7912 79.0671 82.3662Z" fill="#DDDBDF"/>
<path d="M86.6399 82.465C87.0144 82.1324 86.8171 81.2991 86.1995 80.6037C85.5818 79.9084 84.7776 79.6143 84.4031 79.9469C84.0287 80.2795 84.2259 81.1128 84.8436 81.8082C85.4613 82.5035 86.2655 82.7976 86.6399 82.465Z" fill="#DDDBDF"/>
<path d="M57.6922 67.2095L61.3194 62.6754C62.7444 60.9913 65.2058 60.7322 66.8899 62.0277L78.808 71.614C80.4921 73.039 80.7512 75.5003 79.4557 77.1844L75.8285 81.7185C74.4035 83.4026 71.9421 83.6617 70.258 82.3662L58.3399 72.7799C56.5263 71.4844 56.2672 68.8935 57.6922 67.2095Z" fill="#DDDBDF"/>
<path d="M57.3035 67.5981C59.7361 67.5981 61.7081 65.6261 61.7081 63.1936C61.7081 60.761 59.7361 58.7891 57.3035 58.7891C54.871 58.7891 52.899 60.761 52.899 63.1936C52.899 65.6261 54.871 67.5981 57.3035 67.5981Z" fill="#DDDBDF"/>
<path d="M47.8468 64.1004C49.1422 65.1368 50.6967 65.5254 52.2513 65.3959C53.8058 65.2663 55.3604 64.3595 56.2672 63.1936C57.3035 61.8981 57.6922 60.3436 57.5626 58.7891C57.4331 57.2345 56.5263 55.68 55.3604 54.7732C54.0649 53.7368 52.5104 53.3482 50.9558 53.4777C49.4013 53.6073 47.8468 54.5141 46.9399 55.68L49.6604 57.8822C50.049 57.3641 50.6967 56.9754 51.474 56.9754C52.1217 56.8459 52.899 57.105 53.4172 57.4936C53.9354 57.8822 54.324 58.53 54.324 59.3072C54.4535 59.955 54.1945 60.7322 53.8058 61.2504C53.4172 61.7686 52.7695 62.1572 51.9922 62.1572C51.3445 62.2868 50.5672 62.0277 50.049 61.639L47.8468 64.1004Z" fill="#DDDBDF"/>
<path d="M74.6625 82.1071C73.6262 81.3298 72.7194 80.423 71.683 79.6457C71.2944 79.3867 71.0353 79.1276 70.5171 79.1276C69.9989 79.1276 69.7398 79.6457 69.9989 80.0344C69.9989 79.5162 69.3512 79.1276 68.9626 79.3866C68.5739 79.6457 68.5739 80.423 68.9626 80.6821C68.9626 80.423 68.7035 80.2935 68.4444 80.423C68.3148 80.5526 68.1853 80.8116 68.3148 80.9412C68.4444 81.0707 68.5739 81.3298 68.7035 81.4594C68.4444 81.4594 68.1853 81.848 68.1853 82.1071C68.1853 82.3662 68.4444 82.6253 68.7035 82.8844C69.4807 83.6616 70.258 84.5684 71.0353 85.3457C71.4239 85.7344 71.8126 86.123 72.3307 86.3821C73.2375 86.6412 74.6625 86.2525 75.1807 85.4753C75.8284 84.1798 75.958 83.1435 75.6989 81.9775" fill="#FFE39E"/>
<path d="M57.3035 68.3753C58.599 68.5049 59.8944 68.6344 61.1899 68.764C61.5785 68.764 62.0967 68.8935 62.3558 69.1526C62.6149 69.5413 62.4853 70.189 62.0967 70.189C62.4853 69.8003 63.1331 69.9299 63.2626 70.4481C63.3921 70.9662 62.874 71.4844 62.3558 71.3549C62.4853 71.2253 62.7444 71.3549 62.874 71.4844C63.0035 71.614 62.7444 71.8731 62.6149 72.0026C62.4853 72.1322 62.2262 72.1322 61.9672 72.0026C62.2262 72.1322 62.0967 72.6503 61.8376 72.7799C61.5785 72.9094 61.3194 72.9094 60.9308 72.9094C59.7649 72.9094 58.7285 72.9094 57.5626 72.9094C57.0444 72.9094 56.3967 72.9094 55.8785 72.6503C55.1013 72.1322 54.1945 70.8367 54.5831 70.0594C54.9717 68.764 55.4899 66.6913 57.5626 67.4685" fill="#FFE39E"/>
</svg>
