<?xml version="1.0" encoding="utf-8"?>
<!-- Generator: Adobe Illustrator 23.0.3, SVG Export Plug-In . SVG Version: 6.00 Build 0)  -->
<svg version="1.1" id="Capa_1" xmlns="http://www.w3.org/2000/svg" xmlns:xlink="http://www.w3.org/1999/xlink" x="0px" y="0px"
	 viewBox="0 0 170.1 163" style="enable-background:new 0 0 170.1 163;" xml:space="preserve">
<style type="text/css">
	.st0{fill:#EDF9FF;}
	.st1{fill:#1EB5FC;}
	.st2{fill:#FFE39E;}
	.st3{fill:#F6F6F6;}
	.st4{fill:#E5E5E5;}
	.st5{fill:#B27D12;}
	.st6{fill:#B2B2B2;}
	.st7{fill:#B7932F;}
	.st8{fill:#1E120D;}
</style>
<g>
	<path class="st0" d="M121.4,139.9c39.3-24.4,54.9-70.4,34.9-102.7C136.2,5,88.1-1.4,48.7,23.1C9.4,47.5-6.2,93.5,13.9,125.7
		C33.9,158,82.1,164.4,121.4,139.9z"/>
	<path d="M126.2,141.8c0.9,0.5,1.3,1.7,1.4,2.3c0.1,0.6-0.1,1.7-0.9,1.9c-0.8,0.4-2.7,0-4,0.6c-2.6,1.3-4.2,1.9-7.1,1.5
		c-0.4,0-0.8-0.1-1.2-0.4c-0.4-0.3-0.6-0.5-0.6-0.9c0-0.6,0.4-1.2,1-1.3c0.6-0.1,1.2-0.3,1.7-0.3c1.5-0.3,3.6-1.5,4.6-2.7
		c0.5-0.5,1.5-1.9,2.2-1.8"/>
	<path d="M143.4,142.3c1.2,0.4,1.7,1.9,1.4,3c-0.3,0.9-1.5,1.4-2.4,1.7c-1.9,0.8-3.3,2.6-5.3,3.2c-0.9,0.3-1.9,0.5-2.8,0.5
		c-0.5,0-1,0-1.4-0.3c-0.4-0.3-0.8-0.6-0.8-1.2c0-0.4,0.3-0.9,0.5-1.2c0.3-0.3,0.8-0.5,1.2-0.6c4.7-2.4,5.6-5.6,7.1-5.3"/>
	<path class="st1" d="M145,77.4c0,0,1.3,5.9,0.8,13.7c-0.1,2.3-1.7,16.2-1.9,23.7c-0.1,9.4,0.6,22.7,0.9,27.7c0,0.9-0.6,1.5-1.4,1.5
		h-2.7c-0.8,0-1.4-0.6-1.4-1.4l-2.3-28.2l0.5-25.9c-0.1-1.3-1.2-2.3-2.4-2.4l-2.7-0.3c-1-0.1-3,0.8-2.8,2.6l-2.6,25.9l0.3,27
		c0,0.8-0.6,1.4-1.4,1.4h-3c-0.8,0-1.3-0.5-1.4-1.3c-0.3-4.4-0.9-16-1-26.6c-0.3-12.4,0.4-33,2.3-37.5"/>
	<path d="M145.4,55.8c-2.2,10-0.5,18.6,0.1,23.1c0.3,1.5-1,2.8-2.6,2.8l-17.6-0.1c-2.2,0-3.5-2.2-2.7-4.2c5.1-14,1.7-24.8,2.1-27.2
		c0.4-2.6,3-5.5,7.3-4.9c4.4,0.6,10.3-0.3,13.5,5.1C146.8,52.6,145.4,55.8,145.4,55.8z"/>
	<path class="st2" d="M124.3,36.9c-0.5-2.2-0.8-4.4-0.4-6.7c0.8-4.6,4.2-6.9,6.5-7.6c3-0.9,7.3,0.4,9.1,3c3.6,5.5,0.9,10.8-0.4,13.6
		c-1,2.1-1.2,3-1.2,5.3c0,0.6,0.1,3.3-1.7,3.7c-1.7,0.4-3.2,0.1-3.7-1.3c-0.5-1.5-0.1-3-2.8-3.3C125.5,42.8,124.9,39.8,124.3,36.9z"
		/>
	<path d="M144.3,48.9c0,0,5.1,5.8,5.3,16.2c0.1,10.4-13.5,1.8-13.5,1.8"/>
	<path d="M126.7,55.9c0,0-11.2,17.2-33,0.5c-0.6-0.5-1-1.4-0.8-2.3l0.6-2.4c0.3-0.8,1.2-1.2,1.8-0.6c3.2,2.7,11.6,8.9,19,6
		c8.7-3.2,9.4-10.1,13.3-11.2"/>
	<path class="st3" d="M133.4,66.1l-3.9-13.9c-0.3-0.9-1.2-1.5-2.1-1.5l-19.6-0.1c-0.8,0-1.3,0.6-1,1.4l4.1,14.1H133.4z"/>
	<path class="st4" d="M111,67.3l29.5,0.1l0-1.4L111,65.9L111,67.3z"/>
	<path class="st2" d="M120.5,67.2c0,0,1.8,1.9,7.2,2.1c5.4,0.1,4.4-2.1,4.4-2.1H120.5z"/>
	<path class="st2" d="M93.8,54.7c-0.4,0.5-1.2,0.8-1.8,0.6c-0.5-0.1-1.5-0.6-2.1-0.8c-0.4-0.1-0.8-0.3-1-0.5c-0.5-0.3-1-0.6-1.4-1.3
		c-0.4-0.6-0.5-1.3-0.4-2.1c0-0.3,0.1-0.4,0.4-0.5c0.1,0,0.1-0.1,0.3-0.1c0-0.1,0-0.1,0-0.3c0-0.4,0.3-0.9,0.6-1
		c0-0.6,0-1.4,0.5-1.8c0.3-0.1,0.5-0.3,0.9-0.3c0.4,0,0.9-0.1,1.2,0.1l0.1,0.1c0.1,0,0.1-0.1,0.1-0.3c0-0.9,0-1.8,0.3-2.7
		c0-0.1,0.1-0.3,0.3-0.4c0.3-0.3,0.8-0.1,0.9,0.3c0.3,0.3,0.3,0.6,0.3,1c0.3,1.9,1.5,4.2,2.2,6c0.3,0.6,0,1.4-0.4,1.9L93.8,54.7z"/>
	<path class="st5" d="M128.3,31.7c1.7,3.3,5.8,5.4,6.7,5.6c0.9,0.3,2.2-6.4,5.1-3c0.6,0.8,0,2.2-0.9,2.8c-0.5,0.3-1.3,0.5-1.5,1
		c-0.1,0.3,0,0.6-0.1,0.9c-1.4,8-2.4,11.8-2.2,17.1c0,0,7.6,1.4,12.7,0c0,0,3.3-31.1-11.2-33.5c-6.3-0.8-13.1,0-13,7.7
		C123.8,30.3,125.2,25.5,128.3,31.7z"/>
	<path d="M43.7,138.5c-0.9,0.5-1.3,1.7-1.4,2.3c-0.1,0.8,0.1,1.7,0.9,1.9c0.8,0.4,2.7,0,4,0.6c2.6,1.3,4.2,1.9,7.1,1.5
		c0.4,0,0.8-0.1,1.2-0.3c0.4-0.3,0.6-0.5,0.6-0.9c0-0.6-0.4-1.2-0.9-1.3c-0.5-0.1-1.2-0.3-1.7-0.3c-1.5-0.3-3.5-1.5-4.6-2.7
		c-0.5-0.5-1.4-1.9-2.2-1.8"/>
	<path d="M26.6,138.9c-1.2,0.4-1.7,1.9-1.4,3c0.3,0.9,1.5,1.4,2.4,1.7c1.9,0.8,3.3,2.6,5.3,3.2c0.9,0.3,1.9,0.5,2.8,0.5
		c0.5,0,1,0,1.4-0.3c0.4-0.3,0.8-0.6,0.9-1.2c0-0.4-0.3-0.9-0.5-1.2c-0.4-0.3-0.8-0.5-1.2-0.6c-4.7-2.4-5.5-5.6-7.1-5.3"/>
	<path class="st1" d="M30.4,41.4C21,44.5,20.1,55.3,20,60.8c-0.1,2.3,2.8,8.9,13.9,5.4"/>
	<path class="st6" d="M25.5,74c0,0-1.3,5.9-0.9,13.7c0.1,2.3,1.7,16.2,1.8,23.7c0.1,9.4-0.8,22.7-1,27.7c0,0.9,0.6,1.5,1.4,1.5h2.7
		c0.8,0,1.4-0.6,1.4-1.4l2.4-28.2l-0.4-25.9c0.1-1.3,1.2-2.3,2.4-2.4l2.7-0.1c1,0,3,0.8,2.8,2.6l2.3,26.1l-0.4,27
		c0,0.8,0.6,1.4,1.4,1.4h3c0.8,0,1.3-0.5,1.4-1.3c0.3-4.4,1-16,1.3-26.6c0.3-12.5-0.3-33.1-2.1-37.5"/>
	<path class="st1" d="M24.7,50.9c2.2,10,0.4,18.6-0.1,23.1c-0.3,1.5,1,2.8,2.6,2.8h17.6c2.2,0,3.6-2.2,2.7-4.2
		c-1.8-4-3.9-7.1-0.5-11c3.5-4.2,1.3-9.6,1.3-9.6s-2.6-4-2.8-6.5c-0.3-2.6-3-5.5-7.3-4.9c-4.4,0.6-10.3-0.4-13.5,5
		C23.3,47.7,24.7,50.9,24.7,50.9z"/>
	<path class="st7" d="M46.3,31.4c0.5-2.2,0.8-4.4,0.5-6.7c-0.6-4.6-4.2-6.9-6.5-7.7c-3-0.9-7.3,0.4-9.1,3c-3.6,5.5-1,10.8,0.4,13.6
		c1,2.1,1.3,3.9,1.3,6c0,0.6-0.1,3.3,1.7,3.7c1.7,0.4,3.2,0.3,3.7-1.3c0.5-1.5-0.1-3.9,2.7-4.2C45.1,37.2,45.6,34.2,46.3,31.4z"/>
	<path class="st8" d="M31.6,35.7c1.4-0.3,1.7-2.7,0.8-3.9c-0.4-0.5-0.8-0.8-1.2-1.3c-0.8-0.8-1.2-1.8-1.3-3c0-0.8,0.1-1.7,0.6-2.3
		c0.5-0.6,1.7-0.8,2.2-0.1c0.5,0.4,0.5,1.2,1,1.5c0.4,0.4,0.9,0.5,1.4,0.6c3.5,0.8,7.3-1,8.9-4.2c0.6,0.4,1.2,1,1.7,1.5
		c0.5,0.5,1.5,0.9,2.1,0.3c0.4-0.4,0.4-0.9,0.4-1.4c0.1-3,0-6.4-2.2-8.5c-1.5-1.5-3.7-1.9-5.9-2.1c-2.3-0.1-5.5,1.2-7.7,1.7
		c-6.4,1.7-6.9,8.1-6.5,10.7C25.7,25.5,25.2,36.7,31.6,35.7z"/>
	<path class="st8" d="M27.8,22.8c-1.4,1.5-3.7,2.2-5.8,1.5c-1.9-0.6-3.5-2.7-3.6-4.7c-0.1-1.5,0.5-3,1.2-4.4
		c0.3-0.4,0.4-0.8,0.8-1.2c1.3-1.7,3.7-2.2,5.8-1.7s3.7,2.1,4.9,3.7"/>
	<path class="st1" d="M42.9,41.4c4.2,3.2,8.5,6.3,12.7,9.5c0.8,0.6,1.7,1.3,2.6,1.5c1,0.4,2.1,0.4,3.2,0.5c3.3,0.1,6.8,0.4,10.1-0.3
		c0.8-0.1,1.8-0.1,2.2,0.5c0.1,0.3,0.1,0.5,0.1,0.8c0,0.8,0,1.2-0.1,1.9c-0.3,0.8-0.8,1.5-1.5,1.7c0,0-14.4,1.7-20.2-2.1
		c-5.8-3.7-6.7-4.4-6.7-4.4"/>
	<path class="st7" d="M70.3,55.3c-0.1-1.2,0.6-2.6,1.2-3.2c0.5-0.6,1.3-1.2,2.2-1.3c0.3,0,0.6,0,0.9,0.1c0.3,0.1,0.5,0.4,0.5,0.6
		s0,1-0.3,1.2C74.2,53,74,52.2,73.9,52c-0.4,0-0.6,0.4-0.8,0.8l1.9-1.7c0.3-0.3,0.5-0.4,0.9-0.5c1-0.3,3.7-1.2,4.1-0.6
		c0,0,0.3,0.4-0.3,0.6c-0.3,0.3-2.1,0.6-2.8,0.9c0,0,0.8-0.4,1.2,0c0.4,0.4,0.3,0.8-0.1,1c0,0,0.5-0.3,0.8,0.1c0.3,0.4-0.5,1-0.5,1
		s0.5-0.4,0.6,0c0.3,0.3,0.1,0.5-0.3,0.9l-1,0.8c0,0-0.4,0.1-0.5,0c0,0-1.7,1.5-3,2.2c-0.1,0.1-0.3,0.1-0.4,0.1
		c-0.9,0.3-2.1-0.1-2.7-0.9C70.7,56.3,70.3,55.8,70.3,55.3z"/>
	<path class="st7" d="M37.2,65.7c0.8,0.4,1.5,0.8,2.2,0.8c0.6,0,1.2-0.3,1.8-0.3c1.4,0,2.6,0.9,3.6,1.9c0.3,0.3,0.5,0.6,0.4,0.9
		c-0.1,0.4-0.6,0.4-1,0.3c-0.5-0.4-1.7-1.3-2.4-1.2c0.9,0.9,2.4,2.1,3.6,2.4c0.9,0.4,1.7-0.1,2.1,0.4c0.3,0.3,0.1,1-0.4,1.2
		c0,0,0.9-0.3,0.9,0.4c0,0.9-2.4,0.6-3.1,0.6c-5.4,0.1-6.5-4.1-9-4.9"/>
</g>
</svg>
