<svg width="191" height="482" viewBox="0 0 191 482" fill="none" xmlns="http://www.w3.org/2000/svg">
<path d="M40.8146 175.937L41.8579 149.074C41.8579 148.292 42.6403 147.509 43.4227 147.509C44.2051 147.509 44.7268 148.292 44.9876 149.074L45.77 175.937V176.198C45.77 177.502 44.7268 178.806 43.4227 178.806C42.1187 178.806 40.8146 177.502 40.8146 175.937C40.8146 176.198 40.8146 176.198 40.8146 175.937Z" fill="#3BD4AE"/>
<path d="M42.6403 161.854C41.3362 161.332 38.4673 159.767 37.1633 158.985M43.9443 158.203C45.2484 157.681 47.8565 156.116 48.8997 155.594L43.9443 158.203Z" stroke="#3BD4AE" stroke-width="1.26" stroke-miterlimit="10" stroke-linecap="round" stroke-linejoin="round"/>
<path d="M51.247 156.116C49.4214 156.116 48.3781 154.29 49.4214 152.725C49.943 151.943 50.9862 150.9 52.2903 150.378C56.2024 148.813 59.8537 149.335 59.8537 149.335C59.8537 149.335 58.2889 152.725 54.8984 155.072C53.5943 155.855 52.2903 156.116 51.247 156.116Z" fill="#3BD4AE"/>
<path d="M45.5092 147.249C45.77 149.857 43.4227 151.682 41.0754 150.639C39.7714 150.118 38.2065 148.813 37.1633 146.988C34.0336 142.032 34.2944 136.555 34.2944 136.555C34.2944 136.555 39.5106 138.12 43.4227 142.293C44.7268 144.119 45.2484 145.945 45.5092 147.249Z" fill="#3BD4AE"/>
<path d="M36.6417 161.333C38.2066 160.55 38.4674 158.464 36.9025 157.421C36.1201 156.899 34.8161 156.377 33.2512 156.377C29.0783 156.377 25.9485 158.464 25.9485 158.464C25.9485 158.464 28.8174 161.072 32.7296 161.594C34.5553 162.115 35.5985 161.854 36.6417 161.333Z" fill="#3BD4AE"/>
<path d="M14.7338 340.508C14.7338 340.508 14.2121 392.148 15.777 459.437L28.035 458.394C28.035 458.394 40.0322 360.59 39.7714 347.55" fill="#FFE29D"/>
<path d="M70.547 338.422C76.0239 368.154 72.1118 427.879 71.5902 458.915L59.3322 458.394C59.3322 458.394 50.4646 375.978 47.0741 343.116" fill="#FFE29D"/>
<path d="M12.9081 305.82C9.25674 319.382 6.38783 332.944 3.25812 345.463C2.4757 348.854 5.3446 350.94 8.73512 351.983C36.1201 360.329 59.0713 356.939 79.4144 350.418C83.0657 349.114 85.9346 346.506 84.3698 342.855C78.632 330.336 78.1104 324.598 72.6334 308.689" fill="#A29FA8"/>
<path d="M16.0378 290.954C7.17027 286.26 1.17166 282.347 0.128424 275.827C-1.69724 263.308 16.2986 236.445 31.4255 235.663C31.4255 235.663 55.9416 235.663 61.6794 235.663C67.1564 235.663 80.4576 239.836 84.109 251.833L94.5413 274.002C94.5413 274.002 112.537 264.091 124.534 258.092C126.882 256.788 129.751 257.831 131.315 259.918L132.88 262.265C134.184 264.612 133.663 267.742 131.315 269.046L97.4102 291.476C95.8454 292.519 93.7589 293.041 91.9333 293.041C88.2819 293.041 84.6306 290.954 82.8049 287.824L68.7212 264.352" fill="#79C5EB"/>
<path d="M20.9932 260.44L12.1257 303.734C11.0824 308.428 14.2121 313.123 18.9067 314.166C39.7714 318.6 56.4632 316.513 65.8524 314.427C70.2861 313.384 73.155 308.95 71.851 304.255C65.8524 279.218 70.2861 255.484 70.2861 255.484" fill="#79C5EB"/>
<path d="M36.3809 238.792C37.9457 240.618 41.8579 242.704 48.3781 242.183C51.247 241.922 52.551 240.357 52.8118 239.314C53.5943 237.488 51.7686 234.619 53.0726 233.054C55.4199 230.968 59.3321 231.75 62.4618 231.489C68.7212 230.707 72.8941 223.404 73.4158 218.188C74.1982 208.799 72.1117 199.149 70.0252 190.021C70.0252 190.021 62.4618 172.025 37.9457 184.022C13.4297 196.019 28.5566 222.1 33.512 229.142C37.1633 234.88 34.816 236.966 36.3809 238.792Z" fill="#FFE29D"/>
<path d="M59.3321 458.394H71.5901L72.6333 471.695H60.1145L59.3321 458.394Z" fill="#F1F1F1"/>
<path d="M15.5162 458.394H27.7742L26.731 471.695H14.473L15.5162 458.394Z" fill="#F1F1F1"/>
<path d="M61.1578 481.084H91.9333C95.063 481.084 96.6279 477.433 94.5414 475.086L94.0198 474.564C92.4549 472.999 90.3685 471.956 88.0212 471.956H79.4145C77.5888 471.956 75.7632 471.174 74.7199 469.87L74.4591 469.609C73.6767 468.566 72.3726 468.044 71.3294 468.044H61.4186C59.593 468.044 58.0281 469.609 58.0281 471.434V477.433C57.7673 479.52 59.3322 481.084 61.1578 481.084Z" fill="#333333"/>
<path d="M16.5594 481.084H47.3349C50.4646 481.084 52.0295 477.433 49.943 475.086L49.4214 474.564C47.8565 472.999 45.7701 471.956 43.4228 471.956H34.8161C32.9904 471.956 31.1648 471.174 30.1215 469.87L29.8607 469.609C29.0783 468.566 27.7742 468.044 26.731 468.044H16.5594C14.7338 468.044 13.1689 469.609 13.1689 471.434V477.433C13.1689 479.52 14.7338 481.084 16.5594 481.084Z" fill="#333333"/>
<path d="M65.07 189.239C59.0713 198.628 41.3363 192.368 40.8147 199.932C40.8147 200.714 41.8579 208.278 39.5107 208.799C37.1634 209.321 36.381 201.497 35.5985 200.975C32.9904 199.932 29.5999 200.975 28.2959 203.583C26.9918 205.931 27.5134 209.321 29.8607 211.147C31.1648 212.19 32.9904 212.712 33.512 214.276C33.7729 215.059 34.5553 216.624 37.1634 233.316C37.1634 233.316 26.4702 235.663 8.73518 234.098C8.73518 234.098 2.73657 174.894 40.8147 173.069C57.2457 173.069 74.4591 177.242 71.5902 198.106C71.3294 198.106 69.5037 182.197 65.07 189.239Z" fill="#867345"/>
<path d="M56.7241 290.694C59.0713 290.433 61.1578 290.433 62.7227 289.65C64.0267 288.868 65.3308 287.564 66.6348 286.781C70.0253 284.956 73.6766 285.477 77.328 286.521C78.1104 286.781 79.4144 287.303 79.4144 288.085C79.4144 289.129 78.3712 289.911 77.328 289.911C75.7631 289.911 71.851 289.129 70.2861 290.172C73.4158 291.215 78.632 291.737 81.7617 291.215C84.3698 290.954 85.4131 288.868 86.9779 289.39C87.7603 289.65 88.5428 291.737 87.4995 292.258C87.4995 292.258 89.3252 290.433 90.1076 292.258C91.1509 294.345 85.4131 296.953 83.8482 297.735C71.5902 304.777 63.5051 296.431 56.7241 297.996C55.9416 298.779 53.0727 296.431 53.0727 294.084C53.0727 291.215 55.9416 289.65 56.7241 290.694Z" fill="#FFE29D"/>
<path d="M125.838 259.657C125.578 256.527 127.664 252.876 128.968 251.05C130.533 249.225 132.359 247.921 134.706 247.66C135.488 247.66 136.271 247.66 137.053 248.181C137.836 248.703 138.357 249.225 138.357 250.007C138.357 250.789 138.357 252.876 137.836 253.137C136.532 253.658 135.749 251.833 135.488 251.05C134.445 251.05 133.663 252.093 133.663 252.876L138.618 248.442C139.401 247.921 140.183 247.399 140.965 247.138C143.574 246.356 150.615 244.008 151.659 245.573C151.659 245.573 152.18 246.616 150.876 247.399C150.094 247.921 145.138 248.964 143.313 249.746C143.313 249.746 145.399 248.703 146.182 249.485C146.964 250.268 146.964 251.572 145.921 252.354C145.921 252.354 147.225 251.572 148.007 252.615C148.79 253.658 146.442 255.484 146.442 255.484C146.442 255.484 147.746 254.702 148.268 255.484C148.79 256.266 148.529 256.788 147.486 257.831L144.617 259.918C144.617 259.918 143.573 260.439 143.052 259.918C143.052 259.918 138.618 264.091 135.228 265.656C134.706 265.916 134.445 265.916 134.184 266.177C131.576 266.96 128.968 265.916 127.143 263.83C126.882 262.787 126.099 261.222 125.838 259.657Z" fill="#FFE29D"/>
<path d="M58.028 221.058C62.201 223.405 67.4172 222.883 71.0685 219.493C71.8509 218.71 70.5469 217.406 69.7645 218.189C66.8956 221.058 62.4618 221.318 59.0713 219.493C57.7672 218.971 56.9848 220.536 58.028 221.058Z" fill="#EF5C54"/>
<path d="M164.699 1.71695C163.395 -0.369524 155.31 2.23857 146.964 7.71556C138.618 13.1926 133.141 19.452 134.445 21.5384L152.441 56.7477C154.006 59.8774 157.918 61.4422 161.309 60.399C165.221 59.095 170.698 56.7477 176.696 52.8355C182.434 49.1842 186.085 45.5329 188.693 42.9248C191.041 40.3167 191.302 36.4046 189.215 33.5357L164.699 1.71695Z" fill="#CBCBCB"/>
<path d="M121.665 39.2737C121.926 42.925 120.361 45.7939 118.275 45.7939C116.188 45.7939 114.363 43.1858 114.363 39.5345C114.102 36.1439 115.667 33.275 117.493 33.275C119.579 33.0142 121.405 35.8831 121.665 39.2737Z" fill="#CBCBCB"/>
<path d="M121.144 41.3597L149.833 45.2718C149.833 45.2718 151.659 38.23 143.574 35.3611L118.797 37.7084L121.144 41.3597Z" fill="#CBCBCB"/>
<path d="M164.699 1.71695C166.003 3.80342 160.526 10.0628 152.18 15.5398C143.834 21.0168 136.01 23.6249 134.445 21.5384C133.141 19.452 138.618 13.1926 146.964 7.71556C155.31 2.23857 163.134 -0.369524 164.699 1.71695Z" fill="#B1B1B1"/>
<path d="M171.48 12.4104C170.698 6.9334 174.871 2.23884 178.261 1.97803C182.173 1.97803 185.303 6.9334 186.607 11.628C187.911 16.5833 188.954 21.7995 183.999 34.0576" stroke="#CBCBCB" stroke-width="2.124" stroke-miterlimit="10"/>
<path d="M156.353 59.3562C156.353 59.3562 164.699 58.313 175.392 51.5319C185.825 44.7509 189.476 38.4915 189.476 38.4915" stroke="#F4F4F4" stroke-width="0.858" stroke-miterlimit="10" stroke-linecap="round" stroke-linejoin="round"/>
<path d="M141.226 37.7087L136.01 38.4912" stroke="#F4F4F4" stroke-width="0.951" stroke-miterlimit="10" stroke-linecap="round" stroke-linejoin="round"/>
<path d="M30.6431 117.777C30.6431 115.43 30.3822 113.083 30.3822 110.735" stroke="#3AB3E5" stroke-width="1.593" stroke-linecap="round" stroke-linejoin="round"/>
<path d="M31.1647 93.2611C31.4255 90.9138 31.6863 88.3057 31.9471 85.9585M71.5901 39.2736C75.763 37.9696 80.4576 37.1871 85.6738 36.6655L71.5901 39.2736ZM35.5984 71.8748C36.3808 69.5275 37.4241 67.441 38.7281 65.3545C40.8146 61.4424 43.6835 57.5303 47.074 53.6181L35.5984 71.8748Z" stroke="#3AB3E5" stroke-width="1.593" stroke-linecap="round" stroke-linejoin="round"/>
<path d="M94.0197 35.8831C96.6278 35.8831 99.2359 35.8831 102.105 35.8831M41.3363 122.211C41.3363 119.603 41.3363 116.734 41.3363 114.126V122.211Z" stroke="#3AB3E5" stroke-width="1.593" stroke-linecap="round" stroke-linejoin="round"/>
<path d="M40.8146 99.2595C40.8146 97.173 40.8146 95.0865 41.0754 93.2609M74.9806 48.4017C78.8928 46.8368 83.0657 45.272 88.0211 44.2288L74.9806 48.4017ZM42.9011 81.0029C43.4227 78.9164 44.2051 77.0907 44.9876 75.2651C46.5524 71.8745 49.1605 67.7016 52.551 63.7894L42.9011 81.0029Z" stroke="#3AB3E5" stroke-width="1.593" stroke-linecap="round" stroke-linejoin="round"/>
<path d="M95.3238 42.6641C97.9318 42.1425 100.54 41.8817 103.409 41.6208M51.7686 125.341C51.7686 122.733 51.5078 119.864 51.5078 117.256L51.7686 125.341Z" stroke="#3AB3E5" stroke-width="1.593" stroke-linecap="round" stroke-linejoin="round"/>
<path d="M51.5078 98.7383C51.7686 94.5654 52.551 90.6533 53.5943 86.7411C54.6375 83.0898 55.6808 79.1777 58.028 75.0047M76.5455 58.0521C79.936 56.2265 83.5873 54.6616 88.0211 52.8359L76.5455 58.0521Z" stroke="#3AB3E5" stroke-width="1.593" stroke-linecap="round" stroke-linejoin="round"/>
<path d="M97.9318 48.6631C100.018 48.4023 102.366 47.8807 104.713 47.6199" stroke="#3AB3E5" stroke-width="1.593" stroke-linecap="round" stroke-linejoin="round"/>
</svg>
