<svg xmlns="http://www.w3.org/2000/svg" viewBox="0 0 30 19"><path d="M19,.75H11A4.75,4.75,0,0,0,6.25,5.49v8A4.75,4.75,0,0,0,11,18.25h8a4.75,4.75,0,0,0,4.74-4.74v-8A4.75,4.75,0,0,0,19,.75ZM15,14.29A4.79,4.79,0,1,1,19.79,9.5,4.8,4.8,0,0,1,15,14.29Zm4.9-8.45a1.41,1.41,0,1,1,1.41-1.41A1.41,1.41,0,0,1,19.9,5.84Z" style="fill:#fff"/><path d="M15,13a3.49,3.49,0,1,1,3.49-3.49A3.49,3.49,0,0,1,15,13Z" style="fill:#fff"/><path d="M19.91,5.21a.81.81,0,1,1,.81-.81A.81.81,0,0,1,19.91,5.21Z" style="fill:#fff"/></svg>