<svg xmlns="http://www.w3.org/2000/svg" viewBox="0 0 30 19"><path d="M25,3.33A8.52,8.52,0,0,1,22.6,4a4.07,4.07,0,0,0,1.8-2.25,8.28,8.28,0,0,1-2.59,1A4.08,4.08,0,0,0,14.75,5.5a4.73,4.73,0,0,0,.09.93A11.6,11.6,0,0,1,6.43,2.16a4.13,4.13,0,0,0-.56,2.06A4.08,4.08,0,0,0,7.69,7.61a4,4,0,0,1-1.85-.5v0a4.1,4.1,0,0,0,3.27,4A4.07,4.07,0,0,1,8,11.3a3.94,3.94,0,0,1-.77-.07,4.13,4.13,0,0,0,3.81,2.84A8.15,8.15,0,0,1,6,15.81a7.78,7.78,0,0,1-1-.05A11.61,11.61,0,0,0,22.92,6c0-.18,0-.35,0-.52A8.22,8.22,0,0,0,25,3.33Z" style="fill:#fff"/></svg>