<svg xmlns="http://www.w3.org/2000/svg" viewBox="0 0 500 160"><path d="M246,49.44l3.72,7.45s-1.91,4.63-8.55,4.63H214.28V41.09S217.2,25.3,231.19,25.3h24.24V42.7a11.56,11.56,0,0,0,3.73,8.86c3.32,2.91,10.56,2.71,10.56,2.71h19.42v7.65H266.6s-8,0-13.38-5.23a14.76,14.76,0,0,1-4.93-11.47c.1-3.82,0-12.18,0-12.18h-16.4a9.72,9.72,0,0,0-7.95,3.43A9.85,9.85,0,0,0,221.13,44v9.76h18.51S242.15,54.37,246,49.44Z" style="fill:#4d4c4c"/><path d="M230.45,36h13.91a0,0,0,0,1,0,0v8.88a5.81,5.81,0,0,1-5.81,5.81H224.65a0,0,0,0,1,0,0V41.77A5.81,5.81,0,0,1,230.45,36Z" style="fill:#4d4c4c"/><path d="M259.26,36h13.91A5.81,5.81,0,0,1,279,41.77v8.88a0,0,0,0,1,0,0H265.06a5.81,5.81,0,0,1-5.81-5.81V36A0,0,0,0,1,259.26,36Z" transform="translate(538.23 86.61) rotate(180)" style="fill:#4d4c4c"/><path d="M289.94,50.65h-7.85V42.8a9.87,9.87,0,0,0-9.86-9.86H258.75V25.1h13.48a17.72,17.72,0,0,1,17.71,17.7Z" style="fill:#4d4c4c"/><path d="M257.85,77.45,254.13,70s1.91-4.63,8.55-4.63h26.86V85.8s-2.92,15.8-16.9,15.8H248.39V84.19a11.55,11.55,0,0,0-3.72-8.85c-3.32-2.92-10.57-2.72-10.57-2.72H214.69V65h22.53s7.95,0,13.38,5.24a14.71,14.71,0,0,1,4.93,11.47c-.1,3.82,0,12.17,0,12.17h16.4a9.72,9.72,0,0,0,7.95-3.42,9.85,9.85,0,0,0,2.82-7.55V73.12H264.19S261.67,72.52,257.85,77.45Z" style="fill:#4d4c4c"/><path d="M265.27,76.24h13.91a0,0,0,0,1,0,0v8.88a5.81,5.81,0,0,1-5.81,5.81H259.46a0,0,0,0,1,0,0V82.05A5.81,5.81,0,0,1,265.27,76.24Z" transform="translate(538.64 167.17) rotate(180)" style="fill:#4d4c4c"/><path d="M224.85,76.24h13.91a5.81,5.81,0,0,1,5.81,5.81v8.88a0,0,0,0,1,0,0H230.65a5.81,5.81,0,0,1-5.81-5.81V76.24A0,0,0,0,1,224.85,76.24Z" style="fill:#4d4c4c"/><path d="M213.88,76.24h7.85v7.85A9.87,9.87,0,0,0,231.59,94h13.48v7.85H231.59a17.74,17.74,0,0,1-17.71-17.71Z" style="fill:#4d4c4c"/><path d="M217.5,130.54v-7.85h4v11.52H209.72a5.6,5.6,0,0,1-1.77-.28c-2.15-.69-6.64-3-6.64-10,0-9.14,7.44-10.75,11.87-10.75s7.44.2,7.74,1.11a19.64,19.64,0,0,1,.16,4.07s-1.61-1.41-6.59-1.36-8.1,1.21-8,6,.9,7,4.37,7.75A14.84,14.84,0,0,0,217.5,130.54Z" style="fill:#4d4c4c"/><path d="M225.5,134.21V113.63h11.72s4.58-.1,4.58,5.64-5.43,5.43-5.43,5.43l5.43,9.51h-5.13l-4.73-9.71v-1.41s5.53.15,5.53-2.92-3.16-3.12-3.16-3.12h-4.48v17.16Z" style="fill:#4d4c4c"/><rect x="244.62" y="113.63" width="4.75" height="20.57" style="fill:#4d4c4c"/><path d="M193.46,113.76h-5.81l-9.43,20.45h5.2l2.8-7.32H194l3,7.32h4.67Zm-5.94,9.63,2.52-5.73,2.51,5.73Z" style="fill:#4d4c4c"/><path d="M284.45,113.31c-6.48,0-11.72,4.83-11.72,10.79s5.24,10.79,11.72,10.79,11.72-4.83,11.72-10.79S290.92,113.31,284.45,113.31Zm0,17.77a7,7,0,1,1,7.05-7A7,7,0,0,1,284.45,131.08Z" style="fill:#4d4c4c"/><path d="M270.35,133.5v-2.41a.5.5,0,0,0-.62-.48,27.31,27.31,0,0,1-5.5.47,7,7,0,0,1-7.06-7c0-3.86,3.18-6.58,7.06-7a36,36,0,0,1,5.75.51.49.49,0,0,0,.55-.39c.16-.75.39-2.26-.11-2.87-.65-.8-5.87-1-6.18-1h0c-6.47,0-11.71,4.83-11.71,10.79a11.07,11.07,0,0,0,11.73,10.79c3.94-.22,5.37-.7,5.86-1A.48.48,0,0,0,270.35,133.5Z" style="fill:#4d4c4c"/><polygon points="299.15 134.13 299.15 113.78 305.74 113.78 310.47 128.67 315.65 113.78 321.78 113.78 321.78 134.13 317.56 134.13 317.56 118.61 312.58 134.13 307.8 134.13 302.92 118.41 302.92 134.13 299.15 134.13" style="fill:#4d4c4c"/></svg>