<svg xmlns="http://www.w3.org/2000/svg" viewBox="0 0 500 160"><path d="M112.79,74.8c-2-2-5.34-5.7-6.52-5-.93.55-2.08,4.48-2.82,6.84a74.36,74.36,0,0,0-3.39,10.63c-.16,1.22-.73,2.86-.84,3.49s-.65,2.18-.8,2.83-1,3.43-.41,4.25c.41.59,1.63.48,2.37.26,2.68-.63,4.35-1.35,7-2.05.42-.23,1-.3,1.37-.48A57.79,57.79,0,0,0,114.08,93c2.54-1.46,7-1.88,7.09-5.71-.86-5-5.4-8.33-8.38-12.49m1.62,13.78c-1.77,1.14-3.81,1.59-5.57,2.74-2,1.11-4.7,2.39-5.23,2s-.21-.9-.08-1.37c1.11-2.62,1-5.72,2.58-8.13.75-1.5,1.58-4.4,2.33-4.43,1-.06,4,3.11,5.32,5.47.49,1.08,1.89,2.46.65,3.71" style="fill:#4d4c4c"/><path d="M146.79,80.76c-3.37-5.09-3.22-11.65-5.8-17.07a54.28,54.28,0,0,0-19.59-16.6c-4.78-3.05-9.85-5.73-15.29-7a58.52,58.52,0,0,0-6.29-.82c-5.52,0-9.52,4.72-12.16,9.12-3.54,6.86-5.14,14.53-8.86,21.34a3.55,3.55,0,0,1-.4,1c-3.24,6.38-6.27,12.85-10.47,18.85-2,3.76-4.38,7.61-4.43,12,.39,4.59,1.18,9.49,5.56,12.25,4,2,8.06,4,12.47,4.76,2.55-.08,4.74,1.09,7.1,1.69,5.66,1.07,12.11.19,17.72-.81,6.46-.9,14,.34,20.3-2,5.12-2.54,10.57-4.29,15.23-8,2.74-3,6.79-5.67,8.28-9.51,1.58-6.7-1-13.3-3.37-19.17m-5.33,13.29c-4.28,7.7-12.65,10-19.41,14-7,3.56-15.08,4.7-22.46,7.41-2.67,1.16-5.87.51-8.88.55A16,16,0,0,1,82,112.5c-4-4.79-4-12.38-2.42-18.29,1.09-3.36,1.32-7.07,2.89-10.22,4.81-10.24,8.12-20.73,14.14-30.43,1.46-2.73,1.84-7.05,5.37-8.14a7.88,7.88,0,0,1,4-.19,46.73,46.73,0,0,1,9.26,5.08c1.9,1.48,15.63,15.59,21.59,24.26,1.47,2.29,2.85,4.79,4.11,7.24a21.36,21.36,0,0,1,1,4.11c.22,1.74,1.58,5.87-.42,8.13M131.39,80.2c-1-5.21-4.84-9.34-8-13.61-4.4-6.14-11.12-9.69-17.16-13.37-1.22-.64-3-1.64-3.88-1.45s-1.07,1-1.36,1.45c-1.73,3.8-3.59,7.57-5.56,11.27-2.13,5.62-3.55,11.64-5.32,17.32-2.65,6-5.45,12.53-4.91,19.26.3,2.71.4,5.68,2.74,7.4,2.82,1.65,6.37,2.06,9.75,2,8.38-.76,17.19-.88,24.09-5.49.4-.23,5.07-4.27,7.73-6.37,1.62-1.52,3.83-3.12,4.19-5.31.29-4.21-1.31-8.8-2.35-13m-7.17,14C116,100.28,107.45,105.36,97.41,107a4.43,4.43,0,0,1-4-1.85c-3-5.45.14-11.69.71-17.33.53-2.7,1.84-5,2.82-7.57l6.85-15.47c1.07-1.94,2.52-4.94,3.79-5.63s3.36,1.69,4.66,2.89l1.86,2.34c2.48,3.46,7.41,10.63,7.41,10.63,2,3.84,4.43,7.55,5.56,11.76a7.55,7.55,0,0,1-2.83,7.49m63.5.45h-4.51a1.47,1.47,0,0,1-1.57-1.13L180,88.88h-9.93L168.5,93.7a1.2,1.2,0,0,1-1.21,1h-4.58a.59.59,0,0,1-.64-.65,1.06,1.06,0,0,1,.08-.48l9.57-25.76a1.34,1.34,0,0,1,1.36-1h4.14a1.38,1.38,0,0,1,1.45.86l9.77,25.61a2.32,2.32,0,0,1,.12.61.75.75,0,0,1-.84.8M175.78,76.13c-.29-.88-.52-1.65-.73-2.33H175c-.21.72-.45,1.52-.73,2.36L171.72,84h6.59Zm32.34,18.53h-3.7c-.84,0-1.16-.45-1.16-1.2V82.76c0-1.69-.44-2.81-2.29-2.81a6.73,6.73,0,0,0-4.1,1.57v12c0,.78-.32,1.18-1.13,1.18H192a1,1,0,0,1-1.13-1.09V76.24c0-.75.29-1.16,1.18-1.16h3.29c.6,0,1.06.17,1.14.84l.08.85a10.25,10.25,0,0,1,6.41-2.25c4.43,0,6.35,2.77,6.35,7.16V93.46c0,.8-.26,1.2-1.16,1.2m13.52,8.79a15.5,15.5,0,0,1-6.2-1.2c-.52-.2-.71-.44-.71-.88a2.84,2.84,0,0,1,.12-.68l.67-2.27c.17-.5.29-.79.61-.79a2.11,2.11,0,0,1,.77.15,12.61,12.61,0,0,0,4.42.93c3.66,0,4.19-1.88,4.19-4.32V92.92a8.66,8.66,0,0,1-4.83,1.82,8.11,8.11,0,0,1-6-2.26,10,10,0,0,1-2.58-7.23c0-5.42,3.14-10.64,9-10.64a6.39,6.39,0,0,1,2.73.59,5.18,5.18,0,0,1,1.93,1.57l.08-.88c0-.54.37-.81,1-.81h3.43c.83,0,1.12.33,1.12,1.13V93.09c0,6.74-2.93,10.36-9.89,10.36m3.87-22.7a4.82,4.82,0,0,0-3.14-1.29,3.61,3.61,0,0,0-2.54,1,6.37,6.37,0,0,0-1.4,4.38A5.57,5.57,0,0,0,219.8,89a3.51,3.51,0,0,0,2.41.89,5.25,5.25,0,0,0,3.3-1.44ZM241,94.66h-3.89A1,1,0,0,1,236,93.57V67.49c0-.81.36-1.06,1-1.12l3.81-.51h.42c.56,0,.83.32.83,1V93.53c0,.77-.4,1.13-1.05,1.13m14.27.53c-6.8,0-10-4.38-10-10.36S249,74.52,255.49,74.52c6.8,0,10,4.38,10,10.36s-3.74,10.31-10.25,10.31m.21-15.93c-3,0-4,2.58-4,5.51s.84,5.66,3.83,5.66,3.93-2.64,3.93-5.58-.85-5.59-3.81-5.59m37.13,15.4h-4.51a1.44,1.44,0,0,1-1.55-1.13l-1.62-4.65H275l-1.6,4.82a1.2,1.2,0,0,1-1.21,1h-4.59a.59.59,0,0,1-.64-.65,1,1,0,0,1,.09-.48l9.56-25.76a1.34,1.34,0,0,1,1.37-1h4.14a1.39,1.39,0,0,1,1.45.86l9.76,25.61a1.76,1.76,0,0,1,.13.61.75.75,0,0,1-.85.8M280.62,76.13l-.72-2.33h-.08c-.21.72-.45,1.52-.72,2.36L276.56,84h6.59Zm44,18.53H321c-.84,0-1.24-.27-1.24-1.18V82.72c0-1.6-.37-2.89-2.18-2.89a6.91,6.91,0,0,0-4.13,1.69v12c0,.86-.36,1.18-1.17,1.18h-3.3c-.84,0-1.24-.27-1.24-1.18V82.72c0-1.6-.35-2.89-2.17-2.89a5.85,5.85,0,0,0-3.81,1.69v12c0,.86-.38,1.18-1.17,1.18h-3.62c-.85,0-1.25-.27-1.25-1.18V76.13a1,1,0,0,1,1.12-1h3.3c.68,0,1.08.24,1.18.84l.06.77a9.06,9.06,0,0,1,5.76-2.17,5.49,5.49,0,0,1,5,2.69,10.05,10.05,0,0,1,7-2.69,6.18,6.18,0,0,1,5.83,3.41c.73,1.62.81,3.42.81,6.27v9.28c0,.86-.36,1.18-1.17,1.18m21.84-8.21H335.15a5,5,0,0,0,5.19,3.94,13.7,13.7,0,0,0,5.07-1,1.07,1.07,0,0,1,.48-.12.65.65,0,0,1,.64.56,24,24,0,0,1,.77,3.12c0,.54-.37.69-.77.9a18.76,18.76,0,0,1-7.27,1.37c-6.4,0-10.45-4-10.45-10.36,0-6.25,4.22-10.35,10.4-10.35a8.32,8.32,0,0,1,6.23,2.57c2,2.13,2.42,4.91,2.42,7.72v.54c0,.94-.45,1.14-1.44,1.14m-7.56-7.31a3.79,3.79,0,0,0-3.63,3.51H342c0-1.74-1-3.51-3.09-3.51m24.64-3.5-.61,3.78c-.07.43-.28.65-.63.65H362A4.16,4.16,0,0,0,361,80a5.28,5.28,0,0,0-3.7,1.57v12a1,1,0,0,1-1.13,1.13h-3.76a1,1,0,0,1-1.14-1.13V76.24c0-.95.48-1.16,1.17-1.16h3.26c.76,0,1.13.21,1.16.81l.07,1.2c1.46-1.74,2.67-2.57,5-2.57a7.37,7.37,0,0,1,1.11.15.56.56,0,0,1,.49.53v.09a1.5,1.5,0,0,1,0,.35m5.86-2.88a3.07,3.07,0,1,1,0-6.12,3.1,3.1,0,0,1,3.22,3.06,3.14,3.14,0,0,1-3.22,3.06m1.89,21.9h-3.62c-.84,0-1.23-.27-1.23-1.18V76.13c0-.81.51-1,1.23-1h3.62c.77,0,1.18.21,1.18,1V93.48a1,1,0,0,1-1.18,1.18M391.91,94a13.42,13.42,0,0,1-6.14,1.21c-6.13,0-9.85-3.66-9.85-10,0-6.51,3.89-10.65,10.29-10.65a13.93,13.93,0,0,1,5.59,1.08.69.69,0,0,1,.51.73,1.32,1.32,0,0,1-.08.44l-.64,2.89c-.07.41-.28.56-.51.56a2.16,2.16,0,0,1-.58-.15A9.89,9.89,0,0,0,387,79.3c-3.13,0-4.83,2.1-4.83,5.55,0,3.65,1.78,5.63,4.55,5.63a9.07,9.07,0,0,0,4-.85,1.42,1.42,0,0,1,.44-.11c.32,0,.48.23.56.51a20.71,20.71,0,0,1,.84,3.22c0,.45-.32.57-.64.73m21.95.68h-2.12c-2.39,0-3.35-.68-3.87-1.85h-.07a8.68,8.68,0,0,1-5.64,2.38c-5.79,0-8.48-4.59-8.48-9.94,0-7.11,4.43-10.73,8.85-10.73a6.06,6.06,0,0,1,4.9,2.25l.12-.88a.9.9,0,0,1,.93-.81h3.6a.88.88,0,0,1,1,1V89.92c0,.39.17.68.61.68H414c.57,0,.85.21.85.8v2.32a.88.88,0,0,1-1,.94M407,80.88a5.36,5.36,0,0,0-3.25-1.37c-2,0-3.81,1.61-3.81,5.34,0,2.49.64,5.46,3.69,5.46A4.91,4.91,0,0,0,407,88.62Zm28.3,13.78h-3.7c-.84,0-1.16-.45-1.16-1.2V82.76c0-1.69-.44-2.81-2.29-2.81a6.75,6.75,0,0,0-4.1,1.57v12c0,.78-.32,1.18-1.12,1.18h-3.78A1,1,0,0,1,418,93.57V76.24c0-.75.28-1.16,1.18-1.16h3.28c.62,0,1.05.17,1.14.84l.08.85a10.31,10.31,0,0,1,6.43-2.25c4.42,0,6.36,2.77,6.36,7.16V93.46c0,.8-.29,1.2-1.18,1.2" style="fill:#4d4c4c"/></svg>