<svg xmlns="http://www.w3.org/2000/svg" viewBox="0 0 500 160"><path d="M278.35,113.79l4-11.45,4,11.45ZM256.77,48c-7.53,0-12.3-5.83-12.3-13.29s4.25-13.28,12.23-13.28c7.79,0,12.37,5.89,12.37,13.28S264.75,48,256.77,48M290.55,95.1h9.86V49.82H289.87V77.17L273.93,51.53a23.77,23.77,0,0,0,6.59-17c0-13.21-9.23-23.36-24-23.36C242.57,11.21,233,21.62,233,34.77c0,9.67,4.79,17.68,13.11,21.31V77c0,5.1-2.49,8.7-7.66,8.7-5.36,0-7.78-3.53-7.78-8.64V55a22.15,22.15,0,0,0,3.44-2.69l-6.41-7.72A13.12,13.12,0,0,1,219.08,48c-7.59,0-12.63-5.83-12.63-13.29S211,21.42,219,21.42a13,13,0,0,1,8.71,3.4l6.47-8.24c-3.59-3.14-8.44-5.37-15.31-5.37C204.42,11.21,195,21.68,195,34.77a23.77,23.77,0,0,0,5,15h-5V95.1h21.26V84.9H205.93v-30a26.06,26.06,0,0,0,13.15,3.26h.68V77c0,6.07,1.68,11.06,5.19,14.39A23.21,23.21,0,0,0,214.75,111c0,14.13,9.49,23.49,23.49,23.49,4.84,0,8.24-1.31,10.4-3v2.23h10.54v-25H241.71v9h6.74V121c-1.38,1.44-4.65,3.47-9.69,3.47-7.19,0-12.62-5.24-12.62-13.42,0-7.78,4.9-13.22,12-13.22a12.25,12.25,0,0,1,10.67,5.57l8.64-6.22a19.17,19.17,0,0,0-5.77-5.94c3.56-3.41,5.35-8.42,5.35-14.25V58.19a27.8,27.8,0,0,0,4.55-.4V95.1h10.53V68.34l13.14,20.13h-8.7l-15.83,45.28h10.73l3.73-10.8h14.26l3.8,10.8h11.58ZM226.85,140h-4.6l-.15.15v2.23l.15.15h4.3l.15.15v1.48l-.15.15h-4.3l-.15.15v4l-.15.15h-1.78l-.15-.15v-10.1l.15-.15h6.68l.15.15v1.48Zm10.25,4.61c0,2.67-1.48,4.16-4.16,4.16s-4.16-1.49-4.16-4.16v-6.24l.15-.15h1.78l.15.15v6.24c0,1.48.6,2.37,2.08,2.37s2.08-.89,2.08-2.37v-6.24l.15-.15H237l.15.15Zm2.53-6.39h2.08l.3.15,4,6.83h.14v-6.83l.15-.15h1.79l.14.15v10.1l-.14.15H246l-.3-.15-4-6.83h-.15v6.83l-.15.15h-1.78l-.15-.15v-10.1ZM254,148.64h-3.27l-.15-.15v-10.1l.15-.15H254c3.71,0,5,1.93,5,5.2S257.75,148.64,254,148.64Zm.15-8.62h-1.34l-.15.15v6.54l.15.15h1.34c2.08,0,2.82-1,2.82-3.42S256.27,140,254.19,140Zm14.41,8.62h-1.34l-.15-.15-.74-1.93-.3-.15h-3.71l-.3.15-.74,1.93-.15.15h-1.33l-.15-.15V147l3.41-8.61.15-.15h1.93l.15.15,3.42,8.61v1.49Zm-4.31-7.73h-.15l-1.33,3.57.15.15h2.52l.15-.15Zm12.33,4.61.15-.15h1.78l.15.15c-.29,2.08-1.93,3.27-4.3,3.27-3.27,0-5.06-2.23-5.06-5.35s1.79-5.35,5.06-5.35c2.37,0,4,1.19,4.3,3.12l-.15.15h-1.78l-.15-.15a2.05,2.05,0,0,0-2.22-1.34c-2.08,0-3,1.49-3,3.57s.9,3.56,3,3.56A2,2,0,0,0,276.62,145.52Zm5.8,3.12h-1.78l-.15-.15v-10.1l.15-.15h1.78l.15.15v10.1Zm7,.15c-3.12,0-5-2.23-5-5.35s1.93-5.35,5-5.35,5.05,2.23,5.05,5.35S292.52,148.79,289.4,148.79Zm0-8.92c-1.93,0-3,1.49-3,3.57s1,3.56,3,3.56,3-1.48,3-3.56S291.33,139.87,289.4,139.87Zm.3-2.67-.3.15h-1.34l-.14-.15v-.3l1.48-1.48.3-.15h1.48l.15.15v.3Zm6.68,1h2.08l.3.15,4,6.83h.15v-6.83l.15-.15h1.78l.15.15v10.1l-.15.15h-2.08l-.29-.15-4-6.83h-.14v6.83l-.15.15h-1.79l-.14-.15v-10.1Z" style="fill:#4d4c4c"/></svg>