<svg xmlns="http://www.w3.org/2000/svg" viewBox="0 0 500 160"><path d="M363.82,40.75c-.66-.66-1.32-1.32-2-2-.12-.11-.28-.26-.41-.25a4.34,4.34,0,0,1-1.73-.44c-1.14-.41-2.32-.73-3.48-1.1l-1.77-.56c-.69-.22-1.38-.46-2.08-.65s-1.66-.4-2.48-.64c-1.72-.53-3.44-1.08-5.15-1.63-1.3-.42-2.59-.85-3.88-1.29-.49-.17-1-.37-1.47-.58-1.29-.54-2.57-1.07-3.84-1.65-1.08-.49-2.13-1-3.19-1.57-.18-.09-.43-.24-.44-.39s.19-.36.36-.46c.64-.42,1.3-.81,2-1.19a20.2,20.2,0,0,0,4.49-3.85,7.87,7.87,0,0,0,2.12-5.25,5.72,5.72,0,0,0-.34-2.59,23.82,23.82,0,0,0-1.17-2.86,9.54,9.54,0,0,0-3.76-3.9,6.85,6.85,0,0,0-2.33-1,11.21,11.21,0,0,0-5.68.47,11.92,11.92,0,0,0-2.3,1.32,8.76,8.76,0,0,0-1.4,1.39,4,4,0,0,0-.82,1.08,13.8,13.8,0,0,0-.69,2.18,9.91,9.91,0,0,0,.47,5.7,22.18,22.18,0,0,0,1.36,3.08,9.11,9.11,0,0,0,2.44,3.14c.47.37.45.6-.08.87-.77.4-1.53.8-2.29,1.18-1,.5-2,1-3,1.48s-2.29,1-3.41,1.61c-1.3.68-2.57,1.44-3.85,2.17-.87.5-1.78.94-2.59,1.52-1.73,1.23-3.4,2.53-5.08,3.82a.72.72,0,0,1-1.07,0c-1.2-1.15-2.37-2.33-3.61-3.44-1-.93-2.15-1.81-3.27-2.66a25.17,25.17,0,0,0-2.14-1.38c-.83-.53-1.64-1.09-2.5-1.56-1.12-.62-2.27-1.18-3.42-1.73-1.43-.69-2.88-1.32-4.31-2a.81.81,0,0,1-.4-.62c0-.2.24-.45.44-.58.69-.46,1.46-.81,2.11-1.33s1.23-1.25,1.88-1.84a4.57,4.57,0,0,0,1.33-2.53,8.35,8.35,0,0,0-.27-5,11.55,11.55,0,0,0-5.63-5.86,8.75,8.75,0,0,0-2.33-.91,15.87,15.87,0,0,0-3-.17,6.91,6.91,0,0,0-5.36,2.32,4.64,4.64,0,0,0-1.24,2.51,12.31,12.31,0,0,0,.53,5.42,11.54,11.54,0,0,0,3.71,5.25c.87.73.84,1-.22,1.41a1.14,1.14,0,0,1-.26.09l-4.91,1.07c-.18,0-.35.12-.52.17-.87.22-1.74.43-2.6.67-.64.19-1.28.39-1.91.62s-1.17.49-1.76.74c-1.2.51-2.44,1-3.6,1.55-1.61.81-3.18,1.7-4.73,2.62-1.25.76-2.46,1.59-3.65,2.44-.81.58-1.57,1.25-2.35,1.88a.76.76,0,0,1-1,.13c-.63-.41-1.24-.84-1.87-1.25-.39-.25-.8-.48-1.2-.73-.56-.35-1.09-.75-1.67-1.06-1.56-.85-3.14-1.69-4.73-2.5-1.44-.74-2.9-1.44-4.36-2.13s-2.71-1.25-4.06-1.88c-.14-.07-.34-.29-.31-.38s.23-.29.38-.38.45-.17.64-.31c.67-.46,1.3-1,2-1.4a9,9,0,0,0,3-3.44,6.23,6.23,0,0,0,.68-3.92,5.35,5.35,0,0,0-.45-2,13.28,13.28,0,0,0-1.27-2.56,16.17,16.17,0,0,0-4.55-4.17,8.12,8.12,0,0,0-3-1,8.37,8.37,0,0,0-4.69.83,8.26,8.26,0,0,0-2.94,2.75,5.76,5.76,0,0,0-1.08,3.27,20.54,20.54,0,0,0,.2,3.6,12.79,12.79,0,0,0,1.13,2.82A15.83,15.83,0,0,0,225,23.45c.36.4.33.65-.16.87s-.94.4-1.41.59c-1,.4-1.91.8-2.87,1.18s-1.94.73-2.91,1.1l-3.15,1.22c-1,.37-1.92.7-2.87,1.08s-1.91.8-2.86,1.22-1.72.76-2.57,1.18-2,1-2.92,1.49c-1.18.64-2.36,1.29-3.51,2a.93.93,0,0,1-.95.1c-1.44-.57-2.88-1.11-4.34-1.63-.56-.2-1.15-.31-1.73-.49-1.26-.39-2.52-.81-3.79-1.2l-4.67-1.35c-.6-.17-1.19-.34-1.78-.53-1-.32-2-.65-3-1a.46.46,0,0,1-.28-.34c0-.13.13-.28.25-.38s.55-.41.8-.65c.53-.5,1.05-1,1.56-1.55a10.06,10.06,0,0,0,2.55-4.19,8.2,8.2,0,0,0,0-4.95,11.28,11.28,0,0,0-2.74-4.47A10.91,10.91,0,0,0,177,9.49a11,11,0,0,0-2.25-.65,8.18,8.18,0,0,0-5.69,1.45,7.1,7.1,0,0,0-2.76,5.09,10.43,10.43,0,0,0,.93,5.94A12.94,12.94,0,0,0,169,24.23a14.34,14.34,0,0,0,3.74,3.37.58.58,0,0,1,.26.47c0,.11-.22.26-.36.33-.46.21-1,.37-1.41.58-.93.44-1.84.95-2.8,1.33-2,.8-4.08,1.55-6.12,2.3-.55.2-1.11.37-1.67.53-.92.27-1.85.52-2.79.77l-2.37.63c-1,.25-2,.53-3.08.75s-1.89.36-2.84.54c-1.27.26-2.52.58-3.8.77-1.54.23-3.09.38-4.63.52a31.61,31.61,0,0,1-3.76.22,1.33,1.33,0,0,0-1.32.54c.64.71,1.23,1.42,1.88,2a10.6,10.6,0,0,0,1.54,1.2,4.86,4.86,0,0,0,1,.43c1,.38,2,.77,3.07,1.13.65.24,1.31.42,2,.65,1.09.39,2.18.81,3.28,1.19s2.15.69,3.21,1l2.17.74c.5.17,1,.34,1.5.48.93.27,1.87.5,2.79.78.51.16.6.49.45,1-.29,1-.55,1.93-.8,2.9s-.41,1.73-.61,2.6-.51,1.94-.72,2.91c-.31,1.41-.58,2.83-.85,4.24-.2,1-.4,2-.55,3-.22,1.52-.39,3-.59,4.56s-.49,3-.65,4.49c-.22,2.11-.39,4.21-.55,6.32-.08,1.08-.08,2.16-.09,3.24,0,1.83,0,3.67,0,5.5a25.73,25.73,0,0,0,1,8,4.08,4.08,0,0,0,1.65,2.2,1.21,1.21,0,0,0,1.46-.19,7.76,7.76,0,0,0,1.5-2.69c.26-.58.44-1.19.67-1.78s.46-1,.64-1.57c.39-1.11.72-2.25,1.1-3.37s.8-2.17,1.18-3.27.72-2.29,1.09-3.42c.18-.54.37-1.07.56-1.6s.47-1.25.7-1.88.38-1.22.61-1.81c.4-1,.81-2,1.27-3.06a16,16,0,0,1,2.24-4.11c.34-.39.57-.39.88,0,1,1.18,2,2.35,2.93,3.55s2,2.61,3.1,3.88c1.46,1.77,3,3.52,4.46,5.26.63.74,1.32,1.42,1.95,2.16,1,1.21,2,2.46,3,3.68s2,2.4,3,3.59c1.3,1.5,2.57,3,3.95,4.47,2.09,2.18,4.26,4.29,6.4,6.42.11.12.23.3.37.31a1.3,1.3,0,0,0,.76-.07c.09,0,.09-.42,0-.61-.18-.51-.41-1-.62-1.51-.35-.84-.69-1.68-1-2.52s-.79-1.72-1.16-2.59c-.54-1.29-1-2.59-1.56-3.89-.71-1.75-1.44-3.49-2.1-5.26-.4-1.07-.71-2.18-1.06-3.26-.17-.52-.35-1-.53-1.55-.24-.71-.5-1.41-.73-2.12-.18-.53-.35-1.06-.49-1.6-.22-.81-.41-1.63-.62-2.44-.25-1-.55-1.92-.76-2.9s-.4-2.07-.58-3.11-.38-2.31-.56-3.46a9.59,9.59,0,0,1-.2-1.29c0-1.49-.06-3,0-4.45,0-.88.15-1.75.25-2.62.05-.45.11-.9.2-1.35a21.68,21.68,0,0,1,.61-2.37,25.71,25.71,0,0,1,1.22-3A31.09,31.09,0,0,1,192,47.74a26.62,26.62,0,0,1,2-2.73A23.34,23.34,0,0,1,198,41.36c1-.75,2-1.49,3.08-2.19a1,1,0,0,1,.73-.05,5.83,5.83,0,0,1,1.14.51c1.26.72,2.56,1.39,3.76,2.21s2.45,1.88,3.66,2.85a1,1,0,0,1,.32.49c.39,1.07.79,2.15,1.13,3.24.29.93.53,1.89.74,2.85s.38,2.07.57,3.12c.29,1.61.57,3.23.86,4.84.09.54.2,1.08.27,1.62.18,1.32.4,2.63.49,4a33.65,33.65,0,0,1,0,3.48c0,.89-.19,1.77-.27,2.66-.12,1.45-.19,2.91-.34,4.36-.18,1.82-.43,3.63-.64,5.44-.06.48-.06,1-.12,1.42-.26,2.12-.56,4.24-.79,6.36-.14,1.21-.2,2.43-.26,3.64-.09,1.59-.2,3.17-.19,4.76a17.71,17.71,0,0,0,.42,2.36,5,5,0,0,0,1.65,3.23,1.05,1.05,0,0,0,1.4.07,5.48,5.48,0,0,0,.56-.52,29.91,29.91,0,0,0,3.58-5.28c.57-1,1.09-1.94,1.63-2.9.27-.48.56-1,.82-1.43.71-1.36,1.4-2.72,2.12-4.07.81-1.54,1.67-3,2.46-4.59,1.16-2.27,2.26-4.57,3.43-6.83.12-.24.46-.38.73-.5.06,0,.31.26.38.44.35.81.62,1.67,1,2.46.68,1.37,1.39,2.72,2.15,4,.84,1.51,1.74,3,2.65,4.46.41.67.91,1.28,1.35,1.92s1,1.6,1.55,2.31c1.06,1.3,2.19,2.54,3.3,3.8.07.08.15.16.22.25a38,38,0,0,0,6.82,6.4c.17.13.45.08.69.11a2.44,2.44,0,0,0-.16-.72c-.32-.55-.72-1-1-1.61-.42-.76-.79-1.55-1.18-2.33-.83-1.66-1.69-3.31-2.49-5-.5-1.06-.9-2.17-1.34-3.27-.21-.52-.4-1-.58-1.58s-.4-1.29-.6-1.93c-.27-.88-.56-1.76-.82-2.64-.21-.68-.4-1.37-.58-2.06-.27-1-.56-2-.76-3-.25-1.27-.44-2.55-.61-3.84-.23-1.8-.52-3.6-.59-5.41a46,46,0,0,1,.25-5.11c.08-1.06.23-2.11.39-3.15s.41-2.38.65-3.56a11.52,11.52,0,0,1,.47-1.62c.42-1.18.84-2.36,1.29-3.52a23.21,23.21,0,0,1,1.16-2.59c.67-1.22,1.37-2.41,2.14-3.56s1.47-2,2.22-3c.12-.16.27-.31.4-.46,1-1.11,1.94-2.22,2.93-3.32a.79.79,0,0,1,1.18-.08c1.43,1.08,2.92,2.09,4.25,3.27a24.33,24.33,0,0,1,4.59,4.86c.2.3.48.55.65.87.57,1.08,1.12,2.17,1.63,3.27.43.92.82,1.86,1.19,2.8.26.68.46,1.38.68,2.07s.5,1.48.67,2.24c.23,1,.39,2,.56,3,.26,1.55.56,3.1.72,4.66a37.65,37.65,0,0,1,.17,4.38,59.11,59.11,0,0,1-.4,8.2c-.15,1-.22,2-.34,3-.05.38-.15.75-.21,1.13-.2,1.37-.35,2.75-.58,4.12s-.56,2.93-.87,4.39c-.22,1.07-.49,2.13-.7,3.21s-.41,2.45-.71,3.65a1.68,1.68,0,0,0,.26,1.55c.57.72,1.2,1.38,1.83,2,.38.4.77.29,1.16,0,1.76-1.42,2.49-3.47,3.33-5.46.26-.63.48-1.29.7-1.94.38-1.12.77-2.24,1.12-3.37.24-.75.42-1.51.62-2.27.16-.56.31-1.12.48-1.67.23-.79.49-1.57.7-2.36.29-1.09.56-2.19.82-3.28.21-.87.42-1.74.61-2.61.23-1,.44-2.1.67-3.15s.47-1.91.64-2.88c.23-1.33.38-2.67.57-4,0,0,0-.08,0-.1s.2-.31.32-.32.25.15.33.27a3.07,3.07,0,0,1,.2.45c.56,1,1.12,2,1.67,2.94.44.77.86,1.56,1.3,2.33s1,1.6,1.4,2.42.82,1.67,1.26,2.48c.65,1.18,1.33,2.35,2,3.52.84,1.45,1.69,2.9,2.52,4.35l1.64,2.85c.51.86,1,1.72,1.56,2.57.37.6.81,1.16,1.19,1.76.76,1.16,1.47,2.35,2.26,3.49,1.1,1.6,2.24,3.18,3.37,4.76.09.11.19.26.31.3s.46.14.6,0a.64.64,0,0,0,.11-.56c-.2-.77-.44-1.53-.66-2.3-.18-.61-.34-1.23-.52-1.84-.24-.82-.53-1.62-.73-2.45s-.35-1.78-.56-2.66c-.39-1.65-.85-3.28-1.21-4.93-.24-1.11-.4-2.23-.55-3.35-.19-1.43-.35-2.87-.53-4.3a28.74,28.74,0,0,1-.36-3.2c0-4-.34-8,.33-11.94.11-.69.14-1.39.27-2.07.2-1,.44-2,.69-2.92.33-1.26.61-2.55,1.06-3.77.51-1.4,1.15-2.76,1.78-4.1A25,25,0,0,1,302.11,48c.65-.83,1.42-1.58,2-2.46a17.09,17.09,0,0,1,2.64-2.92c.43-.43.78-.41,1.14.08.52.73,1,1.47,1.48,2.24.64,1.08,1.26,2.18,1.8,3.31.63,1.29,1.18,2.61,1.75,3.93.22.53.39,1.09.58,1.64.25.74.53,1.47.74,2.22s.41,1.7.61,2.55c.26,1.17.54,2.34.78,3.51a11.92,11.92,0,0,1,.15,1.2c.23,1.69.49,3.39.68,5.09.1.93.09,1.87.15,2.8.08,1.3.26,2.61.26,3.92,0,1.53-.13,3-.21,4.58,0,1-.08,2-.16,3-.11,1.36-.26,2.72-.39,4.08,0,.49,0,1-.1,1.48s-.23,1.21-.28,1.83c-.07.78-.08,1.57-.12,2.35-.06,1.07-.12,2.14-.19,3.21a4.62,4.62,0,0,1-.09.65,3.65,3.65,0,0,0,.48,3.05c.55.71,1.11,1.4,1.68,2.09a.51.51,0,0,0,.88,0c.44-.56.87-1.13,1.26-1.72.86-1.33,1.73-2.66,2.54-4,.71-1.19,1.34-2.43,2-3.64.88-1.6,1.79-3.18,2.66-4.78.94-1.75,1.85-3.52,2.78-5.27.72-1.37,1.48-2.73,2.18-4.11.84-1.68,1.64-3.39,2.45-5.09.58-1.24,1.13-2.48,1.69-3.72.27-.6.52-1.2.82-1.77a.56.56,0,0,1,.5-.22.69.69,0,0,1,.34.43c.09.3.08.62.18.91.21.64.5,1.25.69,1.89.39,1.27.72,2.55,1.09,3.83.16.59.34,1.18.52,1.77.24.82.51,1.63.74,2.46s.42,1.66.64,2.49.5,1.75.72,2.63.39,1.71.6,2.56c.16.69.35,1.37.53,2.06.24,1,.5,1.9.73,2.85s.36,1.75.57,2.62a24.22,24.22,0,0,1,.74,2.84,7.76,7.76,0,0,0,2.41,4.5c.14.14.41.3.54.25a.8.8,0,0,0,.4-.53,30.38,30.38,0,0,0,.38-3.8c0-2.55.08-5.1-.16-7.67s-.13-5-.17-7.57c0-.11,0-.21,0-.32-.14-2-.27-3.93-.4-5.9-.12-1.74-.2-3.49-.34-5.24s-.38-3.59-.57-5.39c-.08-.78-.1-1.57-.21-2.34-.26-1.74-.55-3.46-.84-5.19-.16-1-.34-1.91-.52-2.85-.15-.74-.29-1.47-.47-2.2-.27-1.09-.57-2.18-.86-3.27-.11-.42.06-.59.47-.69.74-.18,1.48-.38,2.2-.62,1.12-.37,2.23-.79,3.35-1.18l5.2-1.81,1.54-.53c.65-.23,1.31-.45,2-.69,1-.37,1.94-.74,2.89-1.15a17.89,17.89,0,0,0,1.68-.88C364.08,41.21,364.05,41,363.82,40.75ZM169.91,23.67a4.3,4.3,0,0,1-.74-1.8,9.58,9.58,0,0,1-.24-2.44,9,9,0,0,1,.76-3.73,5.67,5.67,0,0,1,2.61-2.84,8.85,8.85,0,0,1,4-.87c.58.11,1.69.23,2.76.52a4.6,4.6,0,0,1,3,5.35A11,11,0,0,1,181,20.94a12.65,12.65,0,0,1-3.28,3.85c-.87.63-1.65,1.37-2.53,2a1.14,1.14,0,0,1-1,.12A16,16,0,0,1,169.91,23.67ZM196,38c-.4.32-.88.54-1.24.89-1.21,1.17-2.45,2.33-3.57,3.58a24.81,24.81,0,0,0-2.08,2.88,18.64,18.64,0,0,0-1.48,2.61,31.11,31.11,0,0,0-1.22,3.26,23.83,23.83,0,0,0-.73,2.85c-.17.9-.21,1.82-.29,2.73s-.22,2.06-.21,3.1.17,2.28.26,3.42a.13.13,0,0,0,0,.06c.17,1.56.3,3.12.52,4.67.18,1.25.47,2.47.73,3.7.15.68.34,1.35.51,2,.21.88.38,1.78.64,2.65.35,1.19.77,2.35,1.16,3.53.19.59.35,1.19.56,1.77.43,1.18.87,2.35,1.32,3.52s1,2.63,1.52,3.92c.47,1.11,1,2.19,1.59,3.28.69,1.39,1.4,2.76,2.08,4.15.38.78.7,1.59,1,2.39a1.49,1.49,0,0,1,0,.56c-.17-.06-.4,0-.51-.17-1-.95-1.92-1.9-2.83-2.89s-1.67-1.9-2.51-2.84c-1.51-1.68-3.06-3.34-4.56-5-1-1.17-2-2.4-3-3.58-1.55-1.84-3.14-3.66-4.7-5.49-.69-.8-1.39-1.6-2.05-2.42-1-1.25-2-2.53-2.95-3.79l-.07-.09c-1.2-1.37-2.41-2.74-3.6-4.13-.69-.81-1.33-1.69-2-2.48s-1.05-.83-1.75,0a12.64,12.64,0,0,0-1.3,2.07c-.39.72-.74,1.46-1.07,2.21s-.49,1.25-.73,1.88c-.17.45-.35.91-.52,1.37-.54,1.46-1.11,2.92-1.63,4.39-.39,1.12-.7,2.25-1.08,3.37s-.83,2.21-1.21,3.32-.71,2.22-1.07,3.32c-.19.57-.42,1.13-.63,1.69-.28.72-.54,1.44-.83,2.16a1.85,1.85,0,0,1-.32.38,3.74,3.74,0,0,1-.27-.42.87.87,0,0,1,0-.28h.12c0-2.1,0-4.21,0-6.31.06-1.91.23-3.82.37-5.73.11-1.48.21-3,.38-4.45s.47-3.18.7-4.77c.05-.32.06-.65.11-1,.28-1.66.57-3.31.85-5,.19-1.09.34-2.2.56-3.29s.45-2,.69-3,.4-1.71.61-2.55l1.35-5.42c.19-.74.42-1.47.55-2.23a1.39,1.39,0,0,0-.2-.91c-.56-.76-1.16-1.5-1.78-2.21a1.1,1.1,0,0,0-.71-.31,15.61,15.61,0,0,1-4.12-.82c-1.17-.35-2.35-.66-3.51-1s-2.3-.8-3.45-1.19l-1.9-.64c-.55-.19-1.09-.38-1.63-.59a.35.35,0,0,1-.18-.29.45.45,0,0,1,.28-.29,5.8,5.8,0,0,1,1-.12,29.46,29.46,0,0,0,5.19-.79c.8-.16,1.61-.3,2.41-.49,2-.45,3.94-.9,5.9-1.41,1.53-.4,3-.87,4.54-1.35,1.32-.42,2.61-.9,3.92-1.36,1-.34,1.93-.63,2.85-1,1.32-.59,2.6-1.25,3.87-1.91.65-.34,1.24-.76,1.88-1.1a.93.93,0,0,1,.69-.06c.84.34,1.66.74,2.49,1.11.43.19.85.39,1.29.56,1.61.59,3.2,1.21,4.83,1.75,1.2.41,2.44.71,3.65,1.07.77.23,1.53.49,2.29.73s1.36.43,2,.62,1.37.35,2,.59a.75.75,0,0,1,.41.55A.88.88,0,0,1,196,38Zm28.24-17.07c-.45-1.07-.79-2.18-1.16-3.21.21-1.22.31-2.33.6-3.39a13.86,13.86,0,0,1,1-2,5.25,5.25,0,0,1,2.91-2.44,5.92,5.92,0,0,1,4.74-.28c.56.22,1.14.37,1.71.54A2.33,2.33,0,0,1,236,12.26c0,.36.18.71.24,1.07a2.19,2.19,0,0,1,.05.76,9,9,0,0,1-4.37,6.49c-.92.56-1.8,1.19-2.72,1.74a16,16,0,0,1-1.85.93.73.73,0,0,1-.58,0A4.79,4.79,0,0,1,224.26,20.91ZM249.1,37.19c-.66.69-1.39,1.31-2,2-.94,1.11-1.82,2.28-2.7,3.44A18.08,18.08,0,0,0,243,44.79c-.72,1.29-1.39,2.61-2,3.94-.45,1-.82,1.94-1.19,2.92-.24.66-.43,1.35-.61,2-.27,1-.52,2-.76,3-.08.37-.11.75-.18,1.13a52.46,52.46,0,0,0-.44,10,10.94,10.94,0,0,0,.18,1.4c.2,1.47.38,2.93.61,4.39.17,1.1.36,2.2.59,3.29s.52,2.08.79,3.11c.19.76.37,1.52.58,2.26s.4,1.29.62,1.93.51,1.51.79,2.25.66,1.69,1,2.52.79,1.81,1.2,2.7c.52,1.11,1.05,2.21,1.6,3.3s1.22,2.31,1.83,3.47a1.79,1.79,0,0,1,0,.37c-.5-.41-.91-.69-1.26-1-1.14-1.16-2.31-2.3-3.38-3.52-.86-1-1.56-2.1-2.4-3.11a39.69,39.69,0,0,1-3.41-5.38,34,34,0,0,1-1.6-3.53c-.54-1.21-1.08-2.43-1.6-3.65-.39-.88-.74-1.78-1.12-2.67-.14-.33-.33-.65-.45-1a12.26,12.26,0,0,0-.36-1.22,8.14,8.14,0,0,0-.78-1.3,14.67,14.67,0,0,0-1-1.25.53.53,0,0,0-.89,0A18.67,18.67,0,0,0,228.15,73c-.54.91-1,1.84-1.54,2.77-.42.78-.83,1.57-1.23,2.36l-1.16,2.29c-.56,1.11-1.13,2.2-1.7,3.3-.81,1.56-1.64,3.11-2.44,4.66-.58,1.1-1.11,2.22-1.69,3.31-.44.8-.93,1.57-1.39,2.36s-.79,1.43-1.21,2.13a2.57,2.57,0,0,1-.47.46c-.15-.21-.41-.41-.42-.62A16.07,16.07,0,0,1,215,93.9q.21-2.79.46-5.56c.16-1.67.35-3.33.53-5s.38-3.34.55-5c.13-1.23.14-2.48.36-3.7a45,45,0,0,0,.38-8.75c0-1.84-.27-3.68-.46-5.51-.13-1.25-.31-2.5-.55-3.74-.17-.87-.49-1.71-.73-2.56-.19-.66-.36-1.33-.58-2a15,15,0,0,0-.66-1.73,37.21,37.21,0,0,0-1.69-3.48,36,36,0,0,0-2.52-3.62,11.66,11.66,0,0,0-1.82-1.83c-1.11-.93-2.28-1.8-3.43-2.7a9.31,9.31,0,0,1-1-.78c-.28-.29-.17-.54.2-.72.86-.4,1.71-.85,2.57-1.26,1-.5,2.09-1,3.14-1.48,1.36-.61,2.73-1.19,4.1-1.76.95-.38,1.92-.69,2.86-1.07,1.39-.54,2.76-1.13,4.14-1.66,1-.38,2-.68,3-1.06s1.88-.77,2.82-1.17c.77-.33,1.53-.68,2.3-1a.82.82,0,0,1,.53.05c1.38.56,2.76,1.12,4.11,1.73,2.17,1,4.32,2,6.47,3,1.36.65,2.73,1.31,4.06,2s2.38,1.34,3.57,2c.41.23.82.48,1.24.68S249.51,36.76,249.1,37.19Zm28.81-16.86a3.91,3.91,0,0,1-1.22-1.84,9.41,9.41,0,0,1-.36-5.06,3.53,3.53,0,0,1,2.18-2.8c.4-.16.78-.37,1.17-.55a10.28,10.28,0,0,1,4.8-.45,8.5,8.5,0,0,1,3.33,1.13,2,2,0,0,1,1.28,2,10,10,0,0,1-1.39,4.76A8.74,8.74,0,0,1,284,20.64c-.82.45-1.68.84-2.53,1.25a1.51,1.51,0,0,1-1.57-.13C279.23,21.31,278.55,20.84,277.91,20.33Zm26.45,19.39c-1,1-2.05,1.89-3,2.93A35.81,35.81,0,0,0,299,45.86a30.07,30.07,0,0,0-1.89,3c-.64,1.21-1.16,2.48-1.71,3.73-.25.56-.49,1.13-.71,1.71s-.34,1-.49,1.56c-.21.77-.43,1.54-.59,2.33-.31,1.5-.58,3-.86,4.52a4.1,4.1,0,0,0-.06.49c-.14,1.45-.31,2.9-.41,4.35a27.24,27.24,0,0,0,0,3.13c.08,1.58.25,3.15.36,4.73.07,1,0,2,.17,3,.34,2.33.75,4.65,1.13,7,.2,1.15.38,2.3.63,3.44.2.94.47,1.87.71,2.8.2.76.4,1.52.61,2.27.11.39.25.75.36,1.14a1.33,1.33,0,0,1,.06.59,2.11,2.11,0,0,1-.32.5,2.78,2.78,0,0,1-.42-.42c-.25-.44-.45-.91-.71-1.34-.77-1.29-1.59-2.57-2.36-3.87-1-1.7-1.95-3.42-2.94-5.12-.52-.9-1.09-1.77-1.6-2.68-.71-1.23-1.38-2.48-2.07-3.72-.49-.86-1-1.7-1.49-2.55s-1.06-1.83-1.58-2.75c-.73-1.26-1.46-2.52-2.18-3.78-.53-.92-1-1.85-1.57-2.75-.44-.73-1-1.41-1.44-2.11-.17-.26-.33-.52-.49-.79s-.42-.6-.83-.47-.4.45-.42.84c-.05,1.16-.17,2.32-.3,3.48-.08.78-.2,1.56-.34,2.33-.24,1.31-.52,2.61-.78,3.91-.2,1-.37,2-.6,3.06-.18.82-.43,1.62-.65,2.43s-.44,1.73-.68,2.58c-.18.65-.38,1.29-.58,1.93l-.78,2.38c-.18.54-.34,1.09-.55,1.62a.41.41,0,0,1-.33.21.56.56,0,0,1-.35-.27,2.58,2.58,0,0,1-.08-.67,8,8,0,0,0,.33-1.25c.25-2.24.48-4.47.68-6.71a31.23,31.23,0,0,1,.18-3.21c.29-1.6-.07-3.19,0-4.79a30.27,30.27,0,0,0-.56-5.15c-.18-1.3-.37-2.6-.63-3.89-.17-.85-.44-1.68-.69-2.52s-.38-1.41-.63-2.1c-.4-1.09-.82-2.18-1.27-3.25s-.95-2.16-1.49-3.21c-.47-.9-1-1.77-1.54-2.64s-1-1.51-1.5-2.26c-.09-.12-.16-.25-.25-.36-1.4-1.57-2.76-3.18-4.23-4.67-1.09-1.1-2.34-2-3.51-3.07-.48-.42-.5-.89,0-1.27,1.66-1.19,3.3-2.41,5-3.5,1.33-.85,2.76-1.56,4.17-2.28.84-.43,1.73-.76,2.61-1.12s2-.89,3-1.23,2.4-.71,3.62-1c.87-.23,1.76-.43,2.65-.65s2-.48,3-.75c.79-.22,1.57-.46,2.35-.72A2.63,2.63,0,0,1,284,26a19.69,19.69,0,0,0,3.11,1.57l3.17,1.57c1.1.55,2.22,1.08,3.32,1.67.87.46,1.71,1,2.55,1.49s1.87,1.14,2.75,1.78c1.23.9,2.42,1.87,3.62,2.83.62.5,1.21,1,1.82,1.56S304.85,39.25,304.36,39.72ZM327,24.23a9.19,9.19,0,0,1-1.66-3,8.6,8.6,0,0,1-.43-3,8.84,8.84,0,0,1,1.44-5.06,5.71,5.71,0,0,1,2.34-2.06,10.35,10.35,0,0,1,3.76-1.06,11.76,11.76,0,0,1,3.09.12,2.61,2.61,0,0,1,2.6,2.75c0,.41,0,.81,0,1.41a6,6,0,0,1-1,3.89,9.93,9.93,0,0,1-3.62,3.8c-.66.37-1.22.93-1.87,1.33a18.06,18.06,0,0,1-2.46,1.39C327.93,25.3,327.9,25.26,327,24.23Zm28.8,16.51c-1.5.5-3,1-4.51,1.47-1.11.38-2.21.81-3.33,1.19s-2.3.7-3.44,1.08a26.08,26.08,0,0,0-2.51.92c-.15.07-.24.51-.19.75.16.75.42,1.47.6,2.22.28,1.17.53,2.35.78,3.53.17.82.31,1.64.46,2.47.22,1.18.45,2.37.64,3.56.12.74.18,1.48.27,2.23.17,1.47.36,2.93.5,4.4.2,2,.29,4,.57,5.93.34,2.32.12,4.65.37,6.94.4,3.67.31,7.33.39,11a7.22,7.22,0,0,1-.09,1.31c0,.16-.22.29-.34.44-.14-.15-.34-.28-.39-.46-.19-.75-.31-1.53-.49-2.28-.26-1-.54-2.08-.81-3.12-.19-.76-.38-1.52-.59-2.27-.26-.93-.53-1.85-.79-2.77-.2-.74-.38-1.48-.59-2.21s-.44-1.46-.67-2.18-.4-1.21-.59-1.82c-.35-1.14-.66-2.31-1.06-3.43a20.14,20.14,0,0,0-1.5-3.68,33.63,33.63,0,0,0-2.9-3.76c-.42-.51-.93-.34-1.15.29a48.14,48.14,0,0,1-2.55,6.29c-.6,1.18-1.09,2.43-1.66,3.62-.66,1.38-1.38,2.73-2.05,4.1-.53,1.06-1,2.14-1.54,3.2-.91,1.82-1.82,3.65-2.77,5.45-.81,1.56-1.7,3.09-2.53,4.64-.53,1-1,2-1.55,2.94-.1.2-.32.33-.48.49a5.51,5.51,0,0,1-.37-.61.65.65,0,0,1,0-.28H319a24.78,24.78,0,0,1,0-3.34c.61-4.59.3-9.21.31-13.81a43,43,0,0,0-.47-5.17q-.36-2.85-.85-5.68c-.23-1.33-.54-2.64-.86-4s-.65-2.65-1.06-4c-.33-1.07-.77-2.1-1.18-3.15-.34-.86-.69-1.72-1.06-2.57s-.66-1.49-1-2.21c-.54-1-1.07-2-1.69-3-.76-1.17-1.59-2.3-2.42-3.43-.33-.44-.37-.84.06-1.18.9-.72,1.76-1.49,2.72-2.12,2-1.28,3.95-2.55,6-3.7,2.35-1.31,4.78-2.5,7.19-3.7,1.42-.72,2.88-1.37,4.32-2.05a3.64,3.64,0,0,0,.46-.3,1.16,1.16,0,0,1,1.38.09c1.29.89,2.58,1.79,3.92,2.6a41.42,41.42,0,0,0,3.65,2c1.3.63,2.65,1.18,4,1.76.87.38,1.73.77,2.61,1.11s2.05.73,3.09,1.09c.72.25,1.44.5,2.17.73s1.57.44,2.36.67c1.06.32,2.13.63,3.19,1,.11,0,.27.26.25.35A.58.58,0,0,1,355.75,40.74Z" style="fill:#4f4c4d"/><path d="M358.21,133.41c1.23-.38,1.76-1.23,1.48-2.23a.64.64,0,0,0-1-.44,6.31,6.31,0,0,1-1.17.57,1.08,1.08,0,0,1-.88-.18,2.35,2.35,0,0,1-.57-.92,9.91,9.91,0,0,1-.57-3.93,55.58,55.58,0,0,1,.41-8.75c.11-.82.15-1.64.28-2.45q.36-2.28.78-4.53c.17-.92.38-1.82.61-2.73s.48-1.83.73-2.74c.14-.5.3-1,.45-1.51.21-.75.4-1.51.62-2.26a12.64,12.64,0,0,1,.48-1.51,1.48,1.48,0,0,0-.6-2.16,1.64,1.64,0,0,0-2.28.62,12.46,12.46,0,0,0-1,2.54c-.41,1.74-.71,3.51-1.05,5.27,0,.12-.07.24-.09.37l-.72,3.36a14.19,14.19,0,0,1-.31,1.44c-.1.3-.34.55-.73.35a5.75,5.75,0,0,0-4.44-.11,10.74,10.74,0,0,0-3.33,1.83,37.25,37.25,0,0,0-3.65,3.57c-.75.79-1.4,1.67-2.07,2.53a25.61,25.61,0,0,0-1.68,2.34c-.74,1.23-1.42,2.5-2.1,3.77-.35.66-.62,1.36-.94,2-.11.22-.24.58-.37.58a1.06,1.06,0,0,1-.67-.34,1.05,1.05,0,0,0-1.55-.09,6.35,6.35,0,0,0-.89,1,1.1,1.1,0,0,1-1.77.26,1.67,1.67,0,0,1-.64-1.29,12.78,12.78,0,0,1,0-1.75c.14-1.36.31-2.72.54-4.07.2-1.17.52-2.31.73-3.48a2.77,2.77,0,0,0-.17-2.38.83.83,0,0,1,.16-.78,3.44,3.44,0,0,0,.92-2.8c0-.42-.21-.82-.26-1.23a2.93,2.93,0,0,0-2.89-1.9,18,18,0,0,0-2,.58,12.65,12.65,0,0,0-4.51,2.93c-2.37,2.38-4.95,4.58-6.89,7.37-.78,1.14-1.59,2.27-2.32,3.44a18.36,18.36,0,0,0-2.25,4.6c-.3,1-.56,2.06-.82,3.07.16.64.32,1.19.44,1.75a1.71,1.71,0,0,0,1,1.2,4.19,4.19,0,0,0,3.81-.13,15.49,15.49,0,0,0,2.95-1.77c1.51-1.14,3-2.35,4.4-3.6a19.74,19.74,0,0,0,3.23-3.71.87.87,0,0,1,.57-.22c.07,0,.22.22.23.36.14.92.25,1.84.38,2.76,0,.23.14.45.2.68a4.63,4.63,0,0,0,1.45,2,3.32,3.32,0,0,0,2.25,1,3.46,3.46,0,0,0,3.08-1.36c.11-.15.34-.2.52-.3a6.57,6.57,0,0,1,.26.61c0,.08,0,.18-.05.27a11.92,11.92,0,0,0-.15,1.68,2.53,2.53,0,0,0,2.17,2.37,7.73,7.73,0,0,0,6.1-1.69,54.45,54.45,0,0,0,6.67-6.12c.42-.45.75-1,1.16-1.45.73-.81,1.47-1.59,2.22-2.36a.52.52,0,0,1,.43-.13.47.47,0,0,1,.2.39c0,1.14.06,2.29,0,3.44a8.93,8.93,0,0,0,1.07,4.54C354.76,133.25,356.15,134,358.21,133.41Zm-30.53-19.55c-.17.46-.38.91.05,1.38.09.09,0,.5-.14.63a2,2,0,0,0-.54,1.08,9.36,9.36,0,0,1-.72,2c-1.28,2.57-3.32,4.54-5.23,6.62a34.31,34.31,0,0,1-2.28,2.66c-1.41,1.26-2.92,2.42-4.44,3.54a4.2,4.2,0,0,1-1.61.48.75.75,0,0,1-.83-.83,4.09,4.09,0,0,1,.2-1.4,16.42,16.42,0,0,1,2-3.76c1-1.3,1.82-2.68,2.76-4,.62-.85,1.31-1.66,2-2.47.94-1.12,1.88-2.23,2.86-3.32a16.49,16.49,0,0,1,3.62-3.25c.55-.33,1-.79,1.58-1.14a1.15,1.15,0,0,1,.84-.19c.18.06.23.47.35.74C328,113.08,327.82,113.47,327.68,113.86Zm23.87,6.06a17,17,0,0,1-2.16,2.54c-.82.9-1.56,1.89-2.44,2.73-1.4,1.35-2.83,2.69-4.35,3.91a41.22,41.22,0,0,1-4,2.7,4.67,4.67,0,0,1-1.54.56c-.61.13-.82-.11-.84-.74A5.82,5.82,0,0,1,337,129c.55-1.13,1.15-2.24,1.76-3.34a12.78,12.78,0,0,1,1-1.47c.91-1.25,1.83-2.5,2.77-3.72a39.33,39.33,0,0,1,2.86-3.53,29.72,29.72,0,0,1,3.37-2.75,5.41,5.41,0,0,1,1.38-.63,2,2,0,0,1,2.67,1.7c0,.33,0,.66,0,1A6.12,6.12,0,0,1,351.55,119.92Z" style="fill:#4f4c4d"/><path d="M263.67,131.86a3.34,3.34,0,0,0,2.61.79,3.28,3.28,0,0,0,2.35-1.71.68.68,0,0,0,.09-.55,1.19,1.19,0,0,0-1.88-.45c-.13.11-.24.23-.36.34a.79.79,0,0,1-1.27-.13,4.9,4.9,0,0,1-.75-1.52c-.35-1.76-.64-3.55-.9-5.33-.12-.81-.08-1.65-.16-2.47-.11-1.17-.27-2.34-.39-3.52a5.6,5.6,0,0,0-1.77-3.92,3,3,0,0,0-3-.51,29.25,29.25,0,0,0-2.38,1.91,8.93,8.93,0,0,0-1.06,1.31c-.91,1.17-1.84,2.32-2.71,3.51-.44.59-.77,1.26-1.16,1.88a.44.44,0,0,1-.36.17.4.4,0,0,1-.27-.28,4.15,4.15,0,0,1,.12-.85c0-.15.14-.29.18-.45.31-1.38.62-2.77.91-4.16a1.36,1.36,0,0,0-.06-.63c-.06-.25-.19-.48-.27-.72a1.41,1.41,0,0,0-1.57-1.07,1.8,1.8,0,0,0-1.74,1.34c-.19,1.24-.36,2.48-.53,3.72l.14,0c-.08.77-.14,1.53-.26,2.29-.24,1.46-.5,2.91-.76,4.37-.14.79-.3,1.57-.46,2.36-.06.31-.28.49-.55.34-.44-.24-.73,0-1,.22s-.59.49-.89.72a1.22,1.22,0,0,1-1.74,0,5.94,5.94,0,0,1-1.12-1.78,16,16,0,0,1-.67-4.75c-.06-1.84.12-3.69.2-5.53a3.25,3.25,0,0,1,.11-.42c.25-1.07.5-2.13.73-3.2a2,2,0,0,0,0-.49,1.65,1.65,0,0,0-1.11-1.35,2.31,2.31,0,0,0-2.7,1.86c-.09.6-.13,1.2-.27,1.79a17.79,17.79,0,0,1-.74,2.56,26.81,26.81,0,0,1-1.28,2.71c-.65,1.25-1.29,2.51-2,3.7s-1.7,2.29-2.44,3.49a17.62,17.62,0,0,1-2.88,3.15,2.88,2.88,0,0,1-1,.51.52.52,0,0,1-.73-.38,5.8,5.8,0,0,1-.29-1.72,18.19,18.19,0,0,1,.55-3.51c.59-2.13,1.32-4.23,2-6.35.17-.51.37-1,.57-1.53.4-1,.76-2.12,1.23-3.14a1.52,1.52,0,0,0-.8-2.26,2.32,2.32,0,0,1-.39-.18c-.41-.28-.72-.16-1.07.16-1.31,1.18-1.65,2.84-2.21,4.39a21.09,21.09,0,0,0-.61,2.2c-.41,1.51-.86,3-1.21,4.53-.27,1.17-.42,2.37-.63,3.56a7.27,7.27,0,0,0-.26,1.44,10.48,10.48,0,0,0,.79,3.82,2.3,2.3,0,0,0,2.11,1.48,5.91,5.91,0,0,0,4.09-1.3,13.38,13.38,0,0,0,3.72-4.27c.93-1.69,1.77-3.43,2.65-5.14.06-.11.21-.26.31-.25a.56.56,0,0,1,.38.24,1.47,1.47,0,0,1,.11.48,19.65,19.65,0,0,0,1.63,5.48c1.36,2.43,3.87,3.31,6.31,1.67a.73.73,0,0,1,.54-.13c.1,0,.18.31.17.47,0,.49-.08,1-.08,1.47a1,1,0,0,0,.54,1,1.82,1.82,0,0,0,2.38-.93c.59-1.39,1.11-2.81,1.77-4.17.78-1.58,1.66-3.11,2.51-4.66.23-.41.51-.8.77-1.19.83-1.28,1.62-2.6,2.52-3.83.75-1,1.63-2,2.45-2.94.44-.52.72-.5,1,.14a5.6,5.6,0,0,1,.36,1.35c.16,1.1.3,2.2.41,3.31.1.89.07,1.79.21,2.67.21,1.43.5,2.84.8,4.25a10.27,10.27,0,0,0,.59,2A6.83,6.83,0,0,0,263.67,131.86Z" style="fill:#4f4c4d"/><path d="M218,132a5.39,5.39,0,0,0,3.21-2.05,1,1,0,0,0-.19-1.51,1,1,0,0,0-1.38.13c-.28.26-.53.55-.82.81-.48.44-1.57.49-1.9,0a7.32,7.32,0,0,1-1-1.9,21,21,0,0,1-.54-2.95c-.16-1.15-.29-2.31-.39-3.47-.19-2-.3-4-.57-6a3.05,3.05,0,0,0-.9-1.76,2,2,0,0,0-3,.22,38.61,38.61,0,0,0-2.83,3.42c-.73,1-1.32,2.1-2,3.14-.37.58-.77,1.14-1.18,1.7a24.48,24.48,0,0,0-1.78,2.34c-.78,1.35-2,2.24-3,3.4-.42.5-1,.31-1-.33-.06-1.77-.06-3.54,0-5.31,0-1,.3-2,.26-3a21,21,0,0,0-.51-3.62,2.24,2.24,0,0,0-2.54-1.61,4.36,4.36,0,0,0-2.49,1.48,45.53,45.53,0,0,0-3.65,4.65c-1,1.49-1.89,3.1-2.83,4.66-.09.14-.33.31-.44.28a.54.54,0,0,1-.31-.43,6.25,6.25,0,0,1,.08-1.14c.1-.65.22-1.3.32-1.94.2-1.34.34-2.68.6-4,.17-.87.49-1.71.74-2.57a1.73,1.73,0,0,0-1.61-2.24.61.61,0,0,0-.45.13,9.51,9.51,0,0,0-1.2,1.65,8,8,0,0,0-.53,1.83,23.13,23.13,0,0,0-.68,3.47c-.2,2.9-.26,5.8-.38,8.71h-.07c.09,1,.15,2.11.31,3.15a15.55,15.55,0,0,0,.56,2.21.79.79,0,0,0,.43.39,1.36,1.36,0,0,0,2-.94,15.66,15.66,0,0,1,1.7-4.54c.85-1.56,1.67-3.13,2.52-4.68.44-.82.91-1.62,1.39-2.41s.85-1.37,1.3-2,1.1-1.59,1.68-2.36a.62.62,0,0,1,.54-.23.74.74,0,0,1,.27.54c0,.55,0,1.1,0,1.65-.05,1.25-.13,2.51-.16,3.77s0,2.38,0,3.57c.06,1.38.08,2.77,1.21,3.86a2.55,2.55,0,0,0,2.79.44,8,8,0,0,0,2.4-1.89c.94-1,1.89-2.07,2.8-3.15.53-.62,1-1.32,1.45-2s1.06-1.44,1.57-2.17c.63-.89,1.25-1.78,1.85-2.7q.67-1,1.26-2.1c.23-.43.67-.53.93-.11a2,2,0,0,1,.23.88,7.74,7.74,0,0,1,.06,1.08c0,.54,0,1.09,0,1.64,0,.34-.05.69-.06,1,0,.77-.05,1.54,0,2.3a15.36,15.36,0,0,0,.31,2.44,14.63,14.63,0,0,0,.71,1.87,6.57,6.57,0,0,0,2.91,3.78A3.18,3.18,0,0,0,218,132Z" style="fill:#4f4c4d"/><path d="M306.66,97.7a1.5,1.5,0,0,0-1.9.13,6.31,6.31,0,0,0-1.49,3.3c-.25.93-.38,1.89-.58,2.83-.25,1.14-.53,2.27-.75,3.41s-.39,2.41-.59,3.62a.63.63,0,0,1-1,.54,6.59,6.59,0,0,0-5.46.4,12.28,12.28,0,0,0-3.74,2.75c-.89,1-1.86,1.86-2.78,2.8a7.76,7.76,0,0,0-.74.89c-.86,1.24-1.77,2.45-2.55,3.75-.92,1.51-1.74,3.07-2.54,4.64a16.61,16.61,0,0,0-1,2.52,5.72,5.72,0,0,0-.43,3.49,2.66,2.66,0,0,0,2.51,2.11c.28,0,.55,0,.83,0a6.52,6.52,0,0,0,2.6-.45,17.62,17.62,0,0,0,4.79-3.32,72.45,72.45,0,0,0,7.42-7.85c.11-.14.35-.18.53-.27a5.12,5.12,0,0,1,.12.64c0,.3,0,.61,0,.91s.09.62.08.92a12.37,12.37,0,0,0,1,5.67,3.63,3.63,0,0,0,5.63,1.76,1.38,1.38,0,0,0,.27-2,.63.63,0,0,0-.88-.18c-.32.17-.63.36-.94.56a.77.77,0,0,1-1.21-.27,5.43,5.43,0,0,1-.9-2.79c-.07-2.25,0-4.5,0-6.75,0-.64,0-1.29.07-1.92.1-1,.25-2.06.38-3.09.07-.54.17-1.08.26-1.62.2-1.22.41-2.45.63-3.66s.42-2.19.65-3.27q.19-.91.45-1.8c.23-.83.48-1.64.73-2.46.16-.54.31-1.09.47-1.63.22-.73.39-1.47.68-2.18A1.53,1.53,0,0,0,306.66,97.7Zm-7.55,21.92a12.68,12.68,0,0,1-1.72,2.19c-.75.8-1.4,1.69-2.12,2.51a11.22,11.22,0,0,1-1,.88l-.36.33c-1.24,1.17-2.41,2.41-3.74,3.47a44,44,0,0,1-4.15,2.83,4.71,4.71,0,0,1-1.65.54c-.54.1-.73-.15-.73-.68a6.12,6.12,0,0,1,.8-2.86c.56-1.09,1.12-2.17,1.71-3.24a12.06,12.06,0,0,1,1-1.5c1-1.35,2.08-2.63,3-4a34.59,34.59,0,0,1,4.33-4.72,7.38,7.38,0,0,1,3.32-1.93,2,2,0,0,1,2.25,1.47,8.56,8.56,0,0,1,.23,1.12A7.85,7.85,0,0,1,299.11,119.62Z" style="fill:#4f4c4d"/><path d="M180.57,113.08a4.49,4.49,0,0,0-3.69-2.7,6.92,6.92,0,0,0-2.57.38,6.84,6.84,0,0,0-3,1.84.85.85,0,0,1-.66.23,2.3,2.3,0,0,0-1.95.67,15.54,15.54,0,0,0-1.83,2.44,15.7,15.7,0,0,0-1.14,2.42c-.36.89-.68,1.8-1,2.72s-.58,2-.82,3c-.14.63-.14,1.28-.27,1.91a7.05,7.05,0,0,0,1.28,5.74,4.62,4.62,0,0,0,3.33,2,6.92,6.92,0,0,0,5.76-2.14,18.82,18.82,0,0,0,3.46-3.88c.49-.91,1.16-1.73,1.61-2.66.57-1.19,1-2.45,1.52-3.67a10.66,10.66,0,0,0,.87-4c-.12-.74-.2-1.48-.37-2.2S180.8,113.8,180.57,113.08Zm-2.68,6.64a14.06,14.06,0,0,1-.65,2,23.32,23.32,0,0,1-1.07,2.26c-.52,1-1.07,1.92-1.66,2.84a12.35,12.35,0,0,1-3,3.48,6.5,6.5,0,0,1-2.7,1.12,2.17,2.17,0,0,1-2-1.48,7.81,7.81,0,0,1-.14-4.85,25.08,25.08,0,0,1,.66-2.48,35.64,35.64,0,0,1,1.63-3.2c.29-.51.7-.94,1-1.46.7-1.3,1.89-2.26,2.51-3.64.16-.37.71-.58,1.09-.84a4.22,4.22,0,0,1,2.18-.85,2.21,2.21,0,0,1,2.4,1.88,9.17,9.17,0,0,1,.3,2.32A17.47,17.47,0,0,1,177.89,119.72Z" style="fill:#4f4c4d"/><path d="M150.72,132.86a13.45,13.45,0,0,0,2.71-1.63c1.64-1.4,3.17-2.93,4.71-4.43a11.63,11.63,0,0,0,1.19-1.51.65.65,0,0,0,0-.56c-.51-.93-1.1-1.51-2-.39l-.17.21a12.76,12.76,0,0,1-3.69,3.7,26.8,26.8,0,0,1-3.17,1.79,10.23,10.23,0,0,1-4.57.63,2.62,2.62,0,0,1-2.27-2.47,12.1,12.1,0,0,1,1.55-6.17,33.45,33.45,0,0,1,3.1-5.34,11,11,0,0,1,4.62-4.17,2.68,2.68,0,0,1,3,.33,10.89,10.89,0,0,0,1.4,1.14,1.89,1.89,0,0,0,2.28-.32,2,2,0,0,0-.22-2,7.35,7.35,0,0,0-3.16-1.68,7.09,7.09,0,0,0-4.4.31,12.31,12.31,0,0,0-3.74,2.43,26,26,0,0,0-4.24,5.53,23.7,23.7,0,0,0-2.25,4.61,11.05,11.05,0,0,0-.78,4.06,7,7,0,0,0,.82,3.72,5.68,5.68,0,0,0,5.17,3.1A8.09,8.09,0,0,0,150.72,132.86Z" style="fill:#4f4c4d"/><path d="M279,133a.92.92,0,0,0,0-1.13c-.51-.72-1-.77-1.68-.14a1,1,0,0,1-1.47.13,3.56,3.56,0,0,1-1.35-2.13,19.18,19.18,0,0,1-.57-2.89,28.18,28.18,0,0,1-.06-4.11,29.17,29.17,0,0,1,.6-3.82,20,20,0,0,1,.74-2.39,5.86,5.86,0,0,0,.69-2.56,1.38,1.38,0,0,0-.86-1.24,1.28,1.28,0,0,0-1.53.21,5.89,5.89,0,0,0-1,1.24,13.4,13.4,0,0,0-1.22,4.24c-.35,1.88-.47,3.8-.68,5.71h.17a11.45,11.45,0,0,0,0,2,17.78,17.78,0,0,0,1.68,5.39,5.61,5.61,0,0,0,2.33,2.44A3.36,3.36,0,0,0,279,133Z" style="fill:#4f4c4d"/><path d="M168.25,141a6.08,6.08,0,0,0-1.09.19,1.48,1.48,0,0,1-.64.09c-2.16-.76-3.68-.45-4.89,1.36a2,2,0,0,0-.36,1c-.05,1.2,0,2.41,0,3.62a1,1,0,0,0,.09.43c.83,2.06,2.86,2.84,5.12,1.81.32-.14.54-.12.66.22a3,3,0,0,1-.93,2.34,2.74,2.74,0,0,1-3.23-.19.81.81,0,0,0-.77,0,2.87,2.87,0,0,0-.58.93c0,.05.13.21.23.28A5.62,5.62,0,0,0,165,154a4,4,0,0,0,2.94-1.33,2.6,2.6,0,0,0,.8-2c-.05-1.28,0-2.56,0-3.85h.06c0-1.68,0-3.36,0-5.05C168.78,141.32,168.64,141,168.25,141Zm-1.16,4.51a3,3,0,0,1-1,2.61,2,2,0,0,1-3-.89,5.57,5.57,0,0,1-.07-3.38,2,2,0,0,1,2.08-1.41c1.45.05,1.76,1.21,2,2.58A2,2,0,0,1,167.09,145.54Z" style="fill:#4f4c4d"/><path d="M316.66,143.39c0-.91,0-1.83,0-2.74s0-1.83,0-2.75c0-.22-.15-.57-.31-.62a1.7,1.7,0,0,0-1.08-.08,1.09,1.09,0,0,0-.48.82c-.06.83,0,1.68,0,2.52s-.12.76-.82.63a8.75,8.75,0,0,0-1.9-.19,2.57,2.57,0,0,0-2.52,1.59,5.57,5.57,0,0,0-.47,1.43,22.4,22.4,0,0,0,0,2.84,3.12,3.12,0,0,0,.33,1.42,3.72,3.72,0,0,0,5.05,1.4,1,1,0,0,1,.55,0c.4.08.78.23,1.18.28s.57-.21.57-.61c0-2,0-3.95,0-5.93Zm-1.86,2.14h0a9.6,9.6,0,0,1,0,1.42,1.52,1.52,0,0,1-1.72,1.51h-.17c-1.7,0-1.57-.12-2-1.6a4.36,4.36,0,0,1,.39-3.71,1.29,1.29,0,0,1,.66-.52,2.09,2.09,0,0,1,2.46.49,2.94,2.94,0,0,1,.44,1.2A7,7,0,0,1,314.8,145.53Z" style="fill:#4f4c4d"/><path d="M350.13,142.86a2.45,2.45,0,0,0-1.68-1.66,6.39,6.39,0,0,0-4.74.34c-.51.28-.76.71-.53,1.09a.93.93,0,0,0,1.36.31,3.06,3.06,0,0,1,2-.53,1.91,1.91,0,0,1,1.76.82,2,2,0,0,1,.19,1.23c0,.15-.57.29-.88.31-.71,0-1.43,0-2.14,0a2.87,2.87,0,0,0-1.61.41,2.54,2.54,0,0,0-1.23,2.91,2.7,2.7,0,0,0,1.87,1.81,2.88,2.88,0,0,0,.76.13,11.81,11.81,0,0,0,2.53-.26c.47-.14.77-.28,1.23,0a1.54,1.54,0,0,0,1.08,0c.16,0,.32-.39.33-.61,0-.95,0-1.9,0-2.85C350.29,145.18,350.56,144,350.13,142.86Zm-2.81,5.64a4.36,4.36,0,0,1-2.27-.09,1,1,0,0,1-.76-1,1.27,1.27,0,0,1,.88-1.2c.61-.1,1.23-.14,1.84-.21,0,0,0,0,0,.06h1a.57.57,0,0,1,.62.61A1.81,1.81,0,0,1,347.32,148.5Z" style="fill:#4f4c4d"/><path d="M179.15,146.45V144.3a3,3,0,0,0-2.77-3.27c-1.51-.2-3-.26-4.31.87-.27.23-.37.44-.18.74a1,1,0,0,0,1.43.3,3.43,3.43,0,0,1,3.34-.23,1.36,1.36,0,0,1,.6,1.62c-.14.56-.6.44-1,.45a13.65,13.65,0,0,1-1.81,0,3.07,3.07,0,0,0-2.76,1.36,2.57,2.57,0,0,0,.41,3.19,5,5,0,0,0,4.61.42,1,1,0,0,1,1,0,1.29,1.29,0,0,0,1,.06c.21-.1.36-.53.38-.82.05-.85,0-1.71,0-2.57Zm-2.63,1.93a4.14,4.14,0,0,1-2.58.07,1.07,1.07,0,0,1-.8-1,1,1,0,0,1,.73-1.16c.57-.12,1.15-.14,1.73-.21a.13.13,0,0,1,0,.06h.66c.42,0,.93-.12,1,.54C177.41,147.57,177.15,148.21,176.52,148.38Z" style="fill:#4f4c4d"/><path d="M326.94,144.05A2.66,2.66,0,0,0,325,141.2a6.13,6.13,0,0,0-4.74.36c-.49.28-.71.67-.52,1a1,1,0,0,0,1.46.48,3.73,3.73,0,0,1,1.38-.59,2.2,2.2,0,0,1,2.36.75,2,2,0,0,1,.18,1.29c0,.14-.57.25-.88.29a9.77,9.77,0,0,1-1.21,0h0c-.42,0-.84,0-1.26,0a2.79,2.79,0,0,0-1.83.74,2.65,2.65,0,0,0,.88,4.31A3.37,3.37,0,0,0,322,150a8.88,8.88,0,0,0,2.37-.24c.51-.17.85-.31,1.35,0a1.19,1.19,0,0,0,1,0c.16-.06.25-.45.25-.7C327,147.41,326.89,145.73,326.94,144.05ZM324,148.46a3.79,3.79,0,0,1-2.06,0c-.57-.16-1.06-.56-1.09-1a1.33,1.33,0,0,1,1-1.24,24.24,24.24,0,0,1,3-.1c.46,0,.44.45.44.8A1.5,1.5,0,0,1,324,148.46Z" style="fill:#4f4c4d"/><path d="M214.05,146.19H214V144a2.71,2.71,0,0,0-2.45-2.91A15,15,0,0,0,209,141a2.73,2.73,0,0,0-2,1c-.43.45-.39.85.2,1a2.05,2.05,0,0,0,1-.12c.16,0,.29-.22.46-.28a4.48,4.48,0,0,1,2.85,0,1.07,1.07,0,0,1,.51.52,2.84,2.84,0,0,1,.21.68c.21.67.09.87-.62.9a19.55,19.55,0,0,1-2.42,0,2.73,2.73,0,0,0-2.11.86c-1.41,1.25-1,2.8.24,3.78a5,5,0,0,0,4.5.28,1,1,0,0,1,.59,0c.4.07.79.2,1.19.23s.46-.19.46-.54C214,148.31,214.05,147.25,214.05,146.19Zm-1.75.48a5.13,5.13,0,0,1-.26,1.11,1.14,1.14,0,0,1-.59.61,4.6,4.6,0,0,1-2.65.06c-.54-.16-.76-.43-.76-1.1s.18-1,.73-1.1,1.31-.14,2-.21v0c.35,0,.7,0,1,0S212.38,146.25,212.3,146.67Z" style="fill:#4f4c4d"/><path d="M258.34,141.47a4.06,4.06,0,0,0-5.13.78,3.66,3.66,0,0,0-.85,2.43c0,.56,0,1.13,0,1.69a3.66,3.66,0,0,0,1.68,3.09,5.18,5.18,0,0,0,5.69-.48.55.55,0,0,0,.15-.43,1.05,1.05,0,0,0-1.42-.57,3.09,3.09,0,0,1-1.45.54,2.28,2.28,0,0,1-2.89-1.74c-.14-.51,0-.67.5-.68H257c.8,0,1.61,0,2.42,0,.62,0,.83-.25.87-.86A4.21,4.21,0,0,0,258.34,141.47Zm-.56,3.31h-1.59c-.55,0-1.1,0-1.64,0s-.68-.33-.44-.79c.66-1.22,1.53-1.88,3.05-1.39a1.87,1.87,0,0,1,1.22,1.48C258.43,144.51,258.25,144.77,257.78,144.78Z" style="fill:#4f4c4d"/><path d="M249.67,144.38a4.76,4.76,0,0,0-.56-2,3.77,3.77,0,0,0-4.59-1.1c-.46.17-.73.26-1.17-.1-.26-.21-.81-.11-1.23-.06-.11,0-.26.33-.26.51,0,2.6,0,5.2,0,7.79,0,.15.09.41.16.42a3.72,3.72,0,0,0,1.33,0c.38-.1.43-.52.43-.92,0-1.55,0-3.11,0-4.66a1.67,1.67,0,0,1,.2-.89,2.26,2.26,0,0,1,2.78-.75,1.79,1.79,0,0,1,1.08,1.85c0,1.54,0,3.08,0,4.61,0,.6.33.89.94.88s.91-.29.91-.91v-2.36h0A17.65,17.65,0,0,0,249.67,144.38Z" style="fill:#4f4c4d"/><path d="M292.73,141a4.05,4.05,0,0,0-4,1.22,4.82,4.82,0,0,0-.87,2.07c-.39,1.31.08,2.53.34,3.77a.31.31,0,0,0,.09.14,4.39,4.39,0,0,0,2.83,1.8,4,4,0,0,0,4-1.57,6.26,6.26,0,0,0,.74-3.1,12,12,0,0,0-.42-2.19A3.2,3.2,0,0,0,292.73,141Zm1.33,4.56a6.68,6.68,0,0,1-.35,1.7c-.33,1.07-.68,1.16-2,1.23a2.32,2.32,0,0,1-.38-.06,2,2,0,0,1-1.68-1.81c0-.39,0-.77,0-1.16a3.37,3.37,0,0,1,.48-2.24,2.24,2.24,0,0,1,2.92-.41A3,3,0,0,1,294.06,145.6Z" style="fill:#4f4c4d"/><path d="M239.16,144.58a4,4,0,0,0-3.11-3.58,4.79,4.79,0,0,0-3.41.66,3,3,0,0,0-1.28,2.36c-.06,1,0,2,0,3a2.75,2.75,0,0,0,1.4,2.39,3.92,3.92,0,0,0,1.66.62,5.12,5.12,0,0,0,2.61-.31,3.75,3.75,0,0,0,2.1-2.91c0-.44,0-.88.07-1.32h0Zm-1.9,2.34a1.74,1.74,0,0,1-1.55,1.58c-1.13.08-2.2-.05-2.57-1.58a12.57,12.57,0,0,1-.21-1.39,3.2,3.2,0,0,1,.94-2.65,2.36,2.36,0,0,1,2.35-.23,1.6,1.6,0,0,1,1,1.43A15,15,0,0,1,237.26,146.92Z" style="fill:#4f4c4d"/><path d="M150.63,144.7a4.94,4.94,0,0,0-.47-1.84,3.68,3.68,0,0,0-3.62-1.9,6.13,6.13,0,0,0-1.14.14,3.19,3.19,0,0,0-2.4,2.19,12,12,0,0,0-.22,3,3.76,3.76,0,0,0,6.2,3.09,4.23,4.23,0,0,0,1.29-1.45,11,11,0,0,0,.47-2.39l-.1,0A3.73,3.73,0,0,0,150.63,144.7Zm-2.18,3a1.33,1.33,0,0,1-1.08.72c-.2,0-.4.05-.6.07-1.34.08-2.17-.67-2.34-2.2a4.56,4.56,0,0,1,.29-2.52,2.08,2.08,0,0,1,2.33-1.32,2,2,0,0,1,1.8,1.83,8,8,0,0,1,0,1.2A3.34,3.34,0,0,1,148.45,147.73Z" style="fill:#4f4c4d"/><path d="M190,145a8.1,8.1,0,0,0-.38-2.25,2.5,2.5,0,0,0-2.41-1.67,7.55,7.55,0,0,0-2.42.23c-.42.12-.66.23-1.06-.07a1.68,1.68,0,0,0-1.12-.12c-.42.07-.36.48-.36.81v3.57h0v3.79c0,.62.16.73,1,.7.57,0,.75-.23.73-.78,0-1.32-.11-2.64-.06-3.95a5.85,5.85,0,0,1,.5-1.95,1.23,1.23,0,0,1,.76-.63,5.85,5.85,0,0,1,1.51-.11,1.58,1.58,0,0,1,1.47,1.68c.05,1.67,0,3.33-.06,5,0,.44.15.7.61.73h.66a.66.66,0,0,0,.68-.75C190,147.78,190.05,146.37,190,145Z" style="fill:#4f4c4d"/><path d="M359.12,145.16a7.42,7.42,0,0,0-1.63-.37,20.21,20.21,0,0,1-2.19-.44,1.13,1.13,0,0,1-.56-.82,1,1,0,0,1,.44-.79,3.55,3.55,0,0,1,3.13,0c.86.34,1,.37,1.6-.34.23-.28.19-.53-.09-.69a3.38,3.38,0,0,0-1.19-.52,23.85,23.85,0,0,0-3.27-.08,2.58,2.58,0,0,0-2.26,3.1,1.69,1.69,0,0,0,1.09,1.45,24.16,24.16,0,0,0,2.55.58c.44.08.92,0,1.36.13s.67.56.65,1.06-.18.9-.73,1a5.09,5.09,0,0,1-3.91-.46,1,1,0,0,0-1.32.49c-.23.54.23.7.56.9a6.23,6.23,0,0,0,3.32.72,3.82,3.82,0,0,0,3.64-1.72,1.72,1.72,0,0,0,.28-.74A2.17,2.17,0,0,0,359.12,145.16Z" style="fill:#4f4c4d"/><path d="M269.15,145.41a3.21,3.21,0,0,0-1.66-.63,15.67,15.67,0,0,1-2.54-.35.83.83,0,0,1-.62-1,.93.93,0,0,1,.72-.87,4.13,4.13,0,0,1,3.14.27.63.63,0,0,0,.57,0,5.23,5.23,0,0,0,.69-1s-.15-.18-.26-.24a5.57,5.57,0,0,0-3-.64,4,4,0,0,0-2.47.58,2.52,2.52,0,0,0-1.24,2.39,2.2,2.2,0,0,0,1.45,1.78,8.84,8.84,0,0,0,2.39.51c.39.06.81,0,1.19.1A1,1,0,0,1,268,148a2.1,2.1,0,0,1-1.51.52,3.71,3.71,0,0,1-2.76-.58,1.19,1.19,0,0,0-1.49.46.51.51,0,0,0,.14.46,5.25,5.25,0,0,0,1.53.91,8.28,8.28,0,0,0,4.08.05,2.53,2.53,0,0,0,2-2.39A2.07,2.07,0,0,0,269.15,145.41Z" style="fill:#4f4c4d"/><path d="M284.51,145.21a3,3,0,0,0-1.83-.43,4,4,0,0,1-2.32-.52.92.92,0,0,1,.13-1.61,4.07,4.07,0,0,1,3.39.23.74.74,0,0,0,.68,0,3.44,3.44,0,0,0,.63-.91s-.08-.21-.17-.25a3.17,3.17,0,0,0-1.08-.49,22.46,22.46,0,0,0-2.84-.2,3.1,3.1,0,0,0-2.71,1.77,2.3,2.3,0,0,0,1.22,3,8.32,8.32,0,0,0,3,.49,2.11,2.11,0,0,1,.93.24c.5.22.49.68.44,1.13a.82.82,0,0,1-.74.77,5.52,5.52,0,0,1-2.43.12,3.9,3.9,0,0,1-1.4-.53,1,1,0,0,0-1.38.48c-.18.33,0,.72.52.94a6.86,6.86,0,0,0,3.12.68,5,5,0,0,0,2.7-.57,2.6,2.6,0,0,0,1.39-1.92A2.48,2.48,0,0,0,284.51,145.21Z" style="fill:#4f4c4d"/><path d="M201.93,145.5c.77-.94,1.57-1.87,2.33-2.82.55-.71.28-1.68-.48-1.69-1.81-.05-3.63-.05-5.44,0a.78.78,0,0,0-.59,1.31,1,1,0,0,0,.66.27c1,0,1.94,0,2.91,0a.62.62,0,0,1,.51.29c0,.13-.12.38-.24.53-.28.36-.6.68-.88,1s-.57.76-.87,1.13c-.75.92-1.56,1.79-2.23,2.76a1.79,1.79,0,0,0-.13,1.3c0,.16.57.28.89.3.85,0,1.72,0,2.58,0h0c1,0,1.94,0,2.91,0,.2,0,.52-.15.56-.29a1,1,0,0,0-.12-.79,1.17,1.17,0,0,0-.79-.38c-.87,0-1.75,0-2.63,0a2.4,2.4,0,0,1-.6-.06c-.31-.1-.47-.34-.24-.63C200.65,147,201.3,146.25,201.93,145.5Z" style="fill:#4f4c4d"/><path d="M222.47,141.16a9.93,9.93,0,0,0-2.93,0,3.34,3.34,0,0,0-2.34,1.92,6.44,6.44,0,0,0-.52,2.32,4.18,4.18,0,0,0,4.87,4.69,4.13,4.13,0,0,0,2.28-1,.69.69,0,0,0,.23-.51,1,1,0,0,0-1.44-.59,2.6,2.6,0,0,1-3.82-.66,5.42,5.42,0,0,1-.34-1.53h.06a4,4,0,0,1,0-.6,5.48,5.48,0,0,1,.32-1.59,2.56,2.56,0,0,1,3.72-.64,1,1,0,0,0,1.54-.53A.52.52,0,0,0,224,142,4.41,4.41,0,0,0,222.47,141.16Z" style="fill:#4f4c4d"/><path d="M335.93,141.24a4.32,4.32,0,0,0-3.22,0,1,1,0,0,1-1.06-.07,1.93,1.93,0,0,0-1.24-.06.87.87,0,0,0-.43.68c0,2.12,0,4.24.08,6.36a5.54,5.54,0,0,1,0,.71c-.12.9,0,1.1.92,1.1s1-.15,1-.66c0-1.47-.05-2.93-.08-4.39a2.49,2.49,0,0,1,.37-1.51,2.06,2.06,0,0,1,2.84-.6c.33.24,1.53-.34,1.56-.75a.23.23,0,0,0-.05-.2C336.35,141.62,336.18,141.33,335.93,141.24Z" style="fill:#4f4c4d"/><path d="M159.07,141.18a4.22,4.22,0,0,0-3.16.11.82.82,0,0,1-1-.11,1.61,1.61,0,0,0-1.16-.08c-.14,0-.28.46-.29.71,0,1.21,0,2.41,0,3.62h0c0,1.28,0,2.56,0,3.85,0,.44.17.64.6.66a4,4,0,0,0,.6,0,.67.67,0,0,0,.65-.78c0-1.52-.11-3-.08-4.55a2,2,0,0,1,3.23-1.74c.43.32,1.42-.25,1.45-.8a.3.3,0,0,0-.07-.25C159.57,141.59,159.35,141.26,159.07,141.18Z" style="fill:#4f4c4d"/><path d="M301.43,148.46c-1,0-1.25-.29-1.25-1.3q0-3.3,0-6.59c0-.83,0-1.65,0-2.47a.93.93,0,0,0-.77-1.06,1,1,0,0,0-.91,1v4.83h0v4.73a2.28,2.28,0,0,0,.81,1.77,2.65,2.65,0,0,0,2.1.55c.54,0,.9-.29.9-.68A.83.83,0,0,0,301.43,148.46Z" style="fill:#4f4c4d"/><path d="M194.36,141.1a3.53,3.53,0,0,0-.65,0c-.53,0-.71.3-.7.82,0,2.42,0,4.83,0,7.24,0,.45.18.75.63.78a1.61,1.61,0,0,0,.76,0,.74.74,0,0,0,.41-.51c0-1.39,0-2.78,0-4.17,0-1.19,0-2.38,0-3.56C194.83,141.31,194.69,141.13,194.36,141.1Z" style="fill:#4f4c4d"/><path d="M339.56,141.11a4,4,0,0,0-.77,0,.63.63,0,0,0-.59.72c0,2.12.07,4.24.1,6.36a4.87,4.87,0,0,1-.06.76c-.11.75.11,1,.88,1s.9-.11.9-.62c0-2.54,0-5.09,0-7.63C340,141.33,339.92,141.14,339.56,141.11Z" style="fill:#4f4c4d"/><path d="M306.11,142.05c0-.94-.09-1-1-1-.54,0-.73.3-.73.81q0,3.63,0,7.24c0,.53.2.79.79.82.84,0,1-.07,1-.7v-3.74h0C306.11,144.36,306.1,143.21,306.11,142.05Z" style="fill:#4f4c4d"/><path d="M228.48,141.9c0-.52-.17-.78-.71-.82-.87-.06-1,0-1,.7v3.68c0,1.26,0,2.52,0,3.79,0,.53.2.74.7.7h.39c.5,0,.67-.31.67-.8C228.46,146.73,228.46,144.31,228.48,141.9Z" style="fill:#4f4c4d"/><path d="M274.71,106.33a1.64,1.64,0,0,0,1.7-1.85,1.73,1.73,0,0,0-1.7-1.87,2.18,2.18,0,0,0-2,2A2.1,2.1,0,0,0,274.71,106.33Z" style="fill:#4f4c4d"/><path d="M227.69,137.09c-.8,0-1.18.35-1.17,1.1,0,.6.23.77,1,.77s1.05-.21,1.05-.9S228.4,137.09,227.69,137.09Z" style="fill:#4f4c4d"/><path d="M193.79,137.09c-.68,0-.92.27-.91,1s.33.89,1.15.88.95-.17.93-.86S194.61,137.08,193.79,137.09Z" style="fill:#4f4c4d"/><path d="M305.16,137.09c-.73,0-.94.22-.94,1s.25.91,1.06.91,1-.19,1-.85S305.89,137.09,305.16,137.09Z" style="fill:#4f4c4d"/><path d="M339.22,137.09a1,1,0,0,0-1.08,1.12c0,.49.35.75,1.05.75s1-.15,1-.83A.93.93,0,0,0,339.22,137.09Z" style="fill:#4f4c4d"/></svg>