<svg xmlns="http://www.w3.org/2000/svg" viewBox="0 0 500 160"><path d="M214.1,129.53l-.43,0c-.37.9-.79,1.78-1.1,2.71-1,2.88-.71,3.15,2.32,2.77.17,0,.39,0,.49-.11s.37-.43.32-.58C215.19,132.69,214.64,131.11,214.1,129.53Z" style="fill:#fff"/><path d="M338.06,78.07c-.14,8.14,0,16.29-.05,24.43,0,2.4.77,3.74,3.81,3.83,4.25.13,8.52,0,12.78,0a2.38,2.38,0,0,0,2.54-1.89,10.6,10.6,0,0,0,.41-2.62q0-20,0-39.9h-.08V21.8a4.9,4.9,0,0,0,0-1.15c-.55-2.47-.83-3-3.26-2.95-4.18.08-8.36,0-12.53,0a4.86,4.86,0,0,0-1.61.27c-1.68.62-1.66,2.14-1.66,3.53,0,8.74,0,17.48,0,26.22,0,2.86.05,2.68-2.72,1.89a33.62,33.62,0,0,0-30.36,5.57,8.53,8.53,0,0,1-1.52.73,8.73,8.73,0,0,1-.28-1.58c-.06-8.18-.09-16.36-.15-24.55,0-3.32-.07-6.65-.16-10A2.05,2.05,0,0,0,301,17.63c-4.69,0-9.38,0-14.07,0a2.78,2.78,0,0,0-2,1,5,5,0,0,0-.72,2.71q-.08,24.69,0,49.37a2.62,2.62,0,0,1-1,2.33c-5.9,4.85-12.06,9.31-19.11,12.37-7.37,3.19-14.93,4.21-22.78,2a22.6,22.6,0,0,1-15.63-14.55,33,33,0,0,1-.06-23.49,22.13,22.13,0,0,1,17-14.82,34.81,34.81,0,0,1,24.57,3.79c1.52.83,2,.53,2-1.26,0-4.35,0-8.7,0-13a2.39,2.39,0,0,0-1.74-2.49,45,45,0,0,0-11.71-2.92A52.32,52.32,0,0,0,231.55,21a40.33,40.33,0,0,0-19,13.69,43.57,43.57,0,0,0-8.8,23.3A50,50,0,0,0,206.88,81a36.08,36.08,0,0,0,13.19,17c7.22,5,15.39,7.14,24,7.66a88.92,88.92,0,0,0,12.1-.31,41.2,41.2,0,0,0,14.37-3.8c4-1.87,7.85-4.2,11.78-6.31a12.69,12.69,0,0,1,1.38-.53,7.89,7.89,0,0,1,.34,1.54c0,2.39.07,4.78,0,7.16A2.59,2.59,0,0,0,286,106a7.86,7.86,0,0,0,2.38.32c3.23,0,6.46,0,9.7,0a15.75,15.75,0,0,0,2.92-.16c1.6-.29,2.16-1,2.23-2.63,0-1.28.09-2.56.11-3.83.05-6.61.09-13.22.17-19.83a2.87,2.87,0,0,1,.48-1.77c3.55-3.82,7.31-7.42,12.19-9.53,6.19-2.68,12.19-2.43,17.78,1.58A8.94,8.94,0,0,1,338.06,78.07Z" style="fill:#4d4c4c"/><path d="M142.38,102.32c0,2.33.72,3.09,3,3.09,3.92,0,7.84,0,11.76,0,3.47,0,3.91-.44,4-4v-.13q.06-9.07.11-18.16c0-3.37,0-6.73.1-10.1.05-2.3,1.07-3.3,3.38-3.47.51,0,1,0,1.53,0H177c4.74,0,9.47,0,14.2,0,3.21,0,4-.85,4-4V58.78c0-3-.82-3.81-3.8-3.81-8.36,0-16.71,0-25.07,0a12,12,0,0,1-2.16-.15c-2.08-.4-2.83-1.3-2.88-3.42-.05-2,0-3.92,0-5.89,0-2.67-.08-5.36.05-8,.08-1.82,1.08-2.71,2.92-3a13.51,13.51,0,0,1,1.91-.1H197c1.2,0,2.4,0,3.58-.06,2.09-.17,2.94-.93,3-2.63,0-3.53,0-7.07,0-10.6a2.12,2.12,0,0,0-2.26-2.38c-1.19-.09-2.38-.13-3.57-.13q-25.4,0-50.78,0a7.72,7.72,0,0,0-2.41.17,3.25,3.25,0,0,0-1.69,1.29,4.63,4.63,0,0,0-.42,2.21q0,20,0,40T142.38,102.32Z" style="fill:#4d4c4c"/><path d="M186.13,124.38c-1,0-1.86,0-1.81,1.43.08,2.68,0,5.37,0,8.05a11.43,11.43,0,0,1-.13,1.16l-.33.07c-.23-.33-.47-.65-.68-1-1.65-2.63-3.4-5.2-4.92-7.91a3.32,3.32,0,0,0-3.5-1.85c-1.26.06-1.6.46-1.59,1.66.06,4.43,0,8.86,0,13.3,0,2.55-.47,2.42,2.49,2.44.93,0,1.16-.37,1.15-1.22,0-2.82,0-5.63,0-8.44,0-.33,0-.65.07-1l.31-.11c.19.26.41.5.58.77,1.64,2.63,3.36,5.22,4.89,7.92a3.46,3.46,0,0,0,3.75,2.09c1.19-.12,1.64-.41,1.63-1.65-.05-4.77-.06-9.55,0-14.32C188.1,124.22,187.13,124.4,186.13,124.38Z" style="fill:#4d4c4c"/><path d="M278,124.19c-1.58,0-1.86.23-1.87,1.56,0,2.73,0,5.46,0,8.18,0,.36-.06.72-.08,1.08l-.3.09c-.23-.32-.48-.63-.69-1-1.89-3-3.76-6-5.67-8.94a3.34,3.34,0,0,0-3.58-1c-1.14.35-.9,1.31-.9,2.13,0,4.43,0,8.87,0,13.3,0,2.08,0,2.08,2.14,2.06a2.44,2.44,0,0,1,.38,0c.87.07,1.2-.29,1.19-1.19,0-2.81.07-5.62.12-8.43,0-.35.05-.69.1-1.3a4.73,4.73,0,0,1,.61.65c1.67,2.66,3.46,5.27,4.95,8,1,1.78,2.14,2.56,4.15,2.28.83-.12,1.21-.29,1.2-1.2q0-7.42,0-14.83C279.74,124.41,279.08,124.15,278,124.19Z" style="fill:#4d4c4c"/><path d="M205.36,129.41a6.82,6.82,0,0,0-6.76-5c-2.3,0-4.6,0-6.89,0-1,0-1.27.32-1.25,1.26,0,2.47,0,4.94,0,7.41s0,5,0,7.53c0,.69.13,1.15,1,1.14,2.67,0,5.37.1,8-.1a6.49,6.49,0,0,0,5.7-4.12A11.13,11.13,0,0,0,205.36,129.41Zm-4.69,7.92c-1,1.09-4.54,1.8-5.78,1.08a1.39,1.39,0,0,1-.47-1c-.06-1.45,0-2.89,0-4.34s0-2.9,0-4.35c0-.35.3-1,.5-1,1.93-.12,3.93-.52,5.55,1.06C202.45,130.66,202.57,135.3,200.67,137.33Z" style="fill:#4d4c4c"/><path d="M320,124.21h-1c-1.54,0-1.73.19-1.75,1.79,0,1.15.06,2.3,0,3.45,0,.34-.56.94-.8.91a8.35,8.35,0,0,0-5.84,1.43V126c0-1.59-.15-1.75-1.61-1.76-2.2,0-2.3.06-2.3,1.72,0,4.43,0,8.86,0,13.29,0,2.59,0,2.56,2.58,2.53.95,0,1.45-.26,1.34-1.31-.07-.72.08-1.47,0-2.17-.31-2,.91-3,2.4-3.78,2.26-1.19,4.28.05,4.29,2.55,0,.68,0,1.37,0,2.05,0,2.85,0,2.85,2.85,2.65,0,0,.1,0,.12,0,.31-.32.88-.64.88-1,.06-5.16.05-10.32.05-15.48A1,1,0,0,0,320,124.21Z" style="fill:#4d4c4c"/><path d="M254.46,124c-4.53-.14-8.75,3.62-8.86,9.1a9,9,0,0,0,8.41,9.18c4.87.25,9.19-4.27,9-9.06A8.83,8.83,0,0,0,254.46,124Zm4.62,9.11a5.88,5.88,0,0,1-1.48,4.29c-2.15,2.41-5.13,2.2-7-.48a6.84,6.84,0,0,1,.7-8.36,4,4,0,0,1,6.09.08A6,6,0,0,1,259.08,133.07Z" style="fill:#4d4c4c"/><path d="M168.39,124.18c-1.22,0-1.67.43-1.65,1.64,0,3.24,0,6.48,0,9.72a3,3,0,0,1-1.6,3,3.55,3.55,0,0,1-5.45-3.07q0-4.86,0-9.72c0-1.07-.38-1.61-1.5-1.52a6.93,6.93,0,0,1-1,0c-1-.06-1.47.38-1.44,1.43.05,1.75,0,3.5,0,5.24h.1c0,2-.12,4.1,0,6.13a4.87,4.87,0,0,0,3.72,4.55,15.17,15.17,0,0,0,5.4.48c3.63-.37,5.65-2.85,5.67-6.49,0-3.24,0-6.48,0-9.72C170.67,124.29,170.53,124.25,168.39,124.18Z" style="fill:#4d4c4c"/><path d="M357.74,140.41c-.05-1.06,0-1.94-1.48-1.87-2.08.1-4.18,0-6.26,0-1.21,0-1.74-.5-1.65-1.69,0-.25,0-.51,0-.76,0-1.68.16-1.85,1.79-1.86,1.83,0,3.66,0,5.49,0,.84,0,1.14-.34,1.2-1.11.13-1.62-.16-2-1.83-2s-3.48.12-5.22.17c-1.44,0-1.49-.92-1.45-2s.12-1.87,1.5-1.83c2.08,0,4.17,0,6.26,0,.74,0,1.56.19,1.53-1.09,0-2-.13-2.25-1.56-2.26-3.36,0-6.73,0-10.09,0-1.05,0-1.55.42-1.53,1.53.05,2.39,0,4.77,0,7.16s0,4.85,0,7.28c0,1.11.31,1.61,1.53,1.59,3.44-.07,6.89-.05,10.34,0C357.32,141.76,357.8,141.55,357.74,140.41Z" style="fill:#4d4c4c"/><path d="M304.66,135.27c-1-.69-3.05.08-3.55,1.23a4.12,4.12,0,0,1-6.59,1.39c-2.34-2.22-2.26-7.37.14-9.51,1.79-1.6,4.86-1.47,5.95.47.76,1.36,1.73,1.51,3,1.45s1.52-.29,1.11-1.61c-1.6-5.16-8.36-5.61-11.55-3.68a9,9,0,0,0-4.28,7.43c-.43,5.56,3.36,10.07,8.63,9.94a21,21,0,0,0,3.18-.74,6.6,6.6,0,0,0,4.28-5.15A1.44,1.44,0,0,0,304.66,135.27Z" style="fill:#4d4c4c"/><path d="M237.79,135.12a2.71,2.71,0,0,0-3.5,1.14,3.72,3.72,0,0,1-3.65,2.66,3.76,3.76,0,0,1-4-2.61,16.4,16.4,0,0,1-.59-4.48,4.62,4.62,0,0,1,2.48-4.06,3.69,3.69,0,0,1,5.17,1,2.66,2.66,0,0,0,2.82,1.38c1.61-.08,1.83-.38,1.17-1.92-1.35-3.15-3.86-4.35-7.35-4.28-3.38-.24-5.78,1.56-7.35,4.59a9.82,9.82,0,0,0-.91,5.69c.55,5.21,4.28,8.34,9.51,7.9,3.26-.27,6.23-3,6.53-6A1.34,1.34,0,0,0,237.79,135.12Z" style="fill:#4d4c4c"/><path d="M216.62,126.33c-.72-1.93-.7-1.94-2.9-1.94-1.28-.29-2.14.25-2.56,1.8s-1.16,3.09-1.75,4.64q-1.82,4.81-3.64,9.65c-.2.54-.41,1.06.47,1.24,2,.41,2.91,0,3.65-1.94a3.38,3.38,0,0,0,.27-.58c.22-1,.88-1.34,1.87-1.28a24.25,24.25,0,0,0,3.19,0,2.06,2.06,0,0,1,2.45,1.82c.52,2,.56,2,2.57,2,.26,0,.52,0,.77,0,1.11.09,1.32-.3.92-1.35C220.12,135.71,218.37,131,216.62,126.33Zm-1.24,8.53c-.1.1-.32.09-.49.11-3,.38-3.28.11-2.32-2.77.31-.93.73-1.81,1.1-2.71l.43,0c.54,1.58,1.09,3.16,1.6,4.75C215.75,134.43,215.54,134.71,215.38,134.86Z" style="fill:#4d4c4c"/><path d="M153.19,124.37c-3.19.07-6.38.06-9.58,0-1.09,0-1.38.39-1.36,1.42.06,2.43,0,4.86,0,7.28v6.39c0,2.6,0,2.59,2.63,2.44.82,0,1.23-.34,1.2-1.24,0-1.58,0-3.15,0-4.73,0-.86.34-1.24,1.22-1.22,1.06,0,2.13,0,3.19,0s1.39-.28,1.38-1.32c0-1.76,0-1.84-1.86-1.84h-1.53c-2.47,0-2.44,0-2.4-2.47,0-1.08.44-1.56,1.52-1.54,1.88,0,3.75,0,5.62,0,1,0,1.45-.3,1.39-1.4S154.62,124.34,153.19,124.37Z" style="fill:#4d4c4c"/><path d="M341.84,138.93c-1.88.07-3.76,0-5.63,0-1.71,0-1.75,0-1.75-1.69V127c0-2.82,0-2.82-2.84-2.64-.81.06-1.12.36-1.1,1.19,0,2.51,0,5,0,7.54s.06,4.87,0,7.29c0,1.12.36,1.36,1.39,1.35,3.32-.06,6.65-.06,10,0,1,0,1.26-.33,1.22-1.26S343.07,138.88,341.84,138.93Z" style="fill:#4d4c4c"/><path d="M243.73,133.13c0-2.13,0-4.26,0-6.39,0-2.48.44-2.32-2.43-2.36-1,0-1.41.36-1.4,1.42q.08,7.35,0,14.7c0,1.09.43,1.47,1.44,1.4.38,0,.76,0,1.15-.05.95,0,1.3-.43,1.26-1.43C243.67,138,243.73,135.56,243.73,133.13Z" style="fill:#4d4c4c"/><path d="M327.94,133.18h0c0-2.43,0-4.86,0-7.28,0-1.5,0-1.48-1.92-1.53-1.11,0-1.83.06-1.81,1.53.09,4.77,0,9.54,0,14.31,0,1.69,0,1.69,1.73,1.69.25,0,.51,0,.76,0,1,.06,1.26-.42,1.25-1.33C327.92,138.11,327.94,135.65,327.94,133.18Z" style="fill:#4d4c4c"/><path d="M255.13,122.57a17.23,17.23,0,0,0,2.69-2.3c.49-.47.28-.84-.35-1a8.67,8.67,0,0,0-1.16,0c-1.46-.38-2,.79-2.63,1.88a7.15,7.15,0,0,0-.46,1.42C253.87,122.61,254.67,122.86,255.13,122.57Z" style="fill:#4d4c4c"/></svg>