<svg xmlns="http://www.w3.org/2000/svg" viewBox="0 0 500 160"><path d="M127,65.17v11h26.38c-.81,6.19-2.87,10.72-6,13.91C143.48,94,137.47,98.2,127,98.2A29,29,0,0,1,98,68.85,29,29,0,0,1,127,39.51a28,28,0,0,1,19.87,7.89l7.77-7.76A38.12,38.12,0,0,0,127,28.42c-22.26,0-41,18.13-41,40.38s18.71,40.39,41,40.39c12,0,21.09-4,28.17-11.31,7.27-7.27,9.56-17.54,9.56-25.8a35.74,35.74,0,0,0-.58-6.91Z" style="fill:#4f4c4d"/><path d="M197.68,56.2c-14.4,0-26.16,10.94-26.16,26.07a26.16,26.16,0,0,0,52.32,0C223.84,67.14,212.09,56.2,197.68,56.2Zm0,41.86c-7.9,0-14.72-6.51-14.72-15.79s6.82-15.8,14.72-15.8,14.72,6.42,14.72,15.8S205.58,98.06,197.68,98.06Z" style="fill:#4f4c4d"/><path d="M325.92,62h-.4a18.09,18.09,0,0,0-13.73-5.83c-13,0-24.37,11.35-24.37,26.07s11.36,26.07,24.37,26.07c6.23,0,11.17-2.79,13.73-5.93h.4v3.64c0,10-5.34,15.3-13.91,15.3-7,0-11.35-5-13.15-9.29l-10,4.13A24.84,24.84,0,0,0,312,131.58c13.42,0,24.77-7.9,24.77-27.15V57.54H325.92Zm-13.15,36c-7.89,0-13.91-6.73-13.91-15.79s6-15.8,13.91-15.8,13.91,6.73,13.91,15.89S320.58,98.06,312.77,98.06Z" style="fill:#4f4c4d"/><path d="M256,56.2c-14.4,0-26.16,10.94-26.16,26.07a26.16,26.16,0,0,0,52.32,0C282.17,67.14,270.42,56.2,256,56.2Zm0,41.86c-7.89,0-14.71-6.51-14.71-15.79s6.82-15.8,14.71-15.8,14.72,6.42,14.72,15.8S263.91,98.06,256,98.06Z" style="fill:#4f4c4d"/><path d="M345.75,29.5H357v78.84H345.75Z" style="fill:#4f4c4d"/><path d="M391.79,98.06c-5.83,0-10-2.65-12.65-7.9L414,75.76l-1.17-3C410.68,67,404,56.2,390.53,56.2s-24.59,10.54-24.59,26.07c0,14.62,11,26.07,25.85,26.07A26,26,0,0,0,413.51,96.8l-8.89-5.92c-3,4.31-7,7.18-12.83,7.18ZM391,66c4.63,0,8.57,2.38,9.87,5.74L377.3,81.46C377.3,70.51,385.06,66,391,66Z" style="fill:#4f4c4d"/></svg>