<svg xmlns="http://www.w3.org/2000/svg" viewBox="0 0 500 160"><path d="M246.64,28.71c0,1.73-.82,2.77-2.3,2.77a5.52,5.52,0,0,1-2-.38l.3-1.48A3.4,3.4,0,0,0,244,30c.52,0,.88-.3.88-1.07V22.57h1.72Z" style="fill:#4f4c4d"/><path d="M255.05,28a3.13,3.13,0,0,1-3.3,3.45c-2.3,0-3.3-1.56-3.3-3.45V22.57h1.7v5.35c0,1.28.51,2.12,1.6,2.12s1.57-.84,1.57-2.12V22.57h1.73Z" style="fill:#4f4c4d"/><path d="M261,31.35l-2.73-6.91h-.05l.12,6.91h-1.54V22.57h2.62l2.77,7.05h.05l-.12-7h1.57v8.78Z" style="fill:#4f4c4d"/><path d="M266.39,31.35h-1.67l2.38-8.78h2.84l2.3,8.78h-1.91l-.46-2h-3Zm1.74-7.28-1,3.92h2.39l-.9-3.92Z" style="fill:#4f4c4d"/><path d="M273.26,31.35V22.57h5.4V24H275v2.15h2.82l-.13,1.51H275v2.25h3.69v1.42Z" style="fill:#4f4c4d"/><path d="M282.9,31.48a7.22,7.22,0,0,1-2.85-.48V22.57h2.65c1.87,0,3.07.82,3.07,2.26a1.92,1.92,0,0,1-1.42,1.93v.06a2.09,2.09,0,0,1,1.89,2C286.24,30.41,284.86,31.48,282.9,31.48ZM282.64,24h-.89v2.29h.89c.87,0,1.34-.34,1.34-1.25C284,24.29,283.51,24,282.64,24Zm.28,3.55h-1.17v2.37a3.32,3.32,0,0,0,1.15.21c.84,0,1.54-.42,1.54-1.34S283.91,27.51,282.92,27.51Z" style="fill:#4f4c4d"/><path d="M247.87,42.61l-.13-5.13h0c-.11.64-.22,1.11-.3,1.46l-.86,3.67h-1.74L244,38.94c-.08-.35-.19-.82-.31-1.46h0l-.08,5.13h-1.08l.23-6.08h2s.66,3.06,1,5h0c.41-2,1.2-5,1.2-5h2l.23,6.08Z" style="fill:#4f4c4d"/><path d="M250.29,42.61V39l-.51-.1V38.2h1.68v4.41Zm0-6.21h1.19v1.07h-1.19Z" style="fill:#4f4c4d"/><path d="M255,42.61V40c0-.67-.25-1-.79-1a1.4,1.4,0,0,0-.78.27v3.33h-1.18V38.2H253l.18.5a1.84,1.84,0,0,1,1.4-.59c1.12,0,1.56.65,1.56,1.77v2.73Z" style="fill:#4f4c4d"/><path d="M257.21,42.61V39l-.51-.1V38.2h1.68v4.41Zm0-6.21h1.19v1.07h-1.19Z" style="fill:#4f4c4d"/><path d="M260.18,39.36c0,.68,1.91.48,1.91,1.92,0,.8-.59,1.42-1.74,1.42a2.7,2.7,0,0,1-1.32-.33l.24-.81a2.11,2.11,0,0,0,1.05.3c.38,0,.64-.21.64-.48,0-.8-1.88-.54-1.88-2,0-.65.5-1.23,1.69-1.23a3.73,3.73,0,0,1,1.24.21l-.16.86a2.59,2.59,0,0,0-1.07-.23C260.38,39,260.18,39.11,260.18,39.36Z" style="fill:#4f4c4d"/><path d="M264.36,42.7c-.79,0-1.3-.37-1.3-1.48V39h-.66V38.2h.66v-.77l1.16-.38V38.2h1.18V39h-1.18v2.16c0,.31.15.51.47.51a1.58,1.58,0,0,0,.67-.16l.18.86A2.55,2.55,0,0,1,264.36,42.7Z" style="fill:#4f4c4d"/><path d="M266.79,40.72a1,1,0,0,0,1.14,1.09,3,3,0,0,0,1.3-.37l.22.83a3.71,3.71,0,0,1-1.66.43,2.05,2.05,0,0,1-2.17-2.31c0-1.36.65-2.28,2.07-2.28s1.85,1,1.85,2.09v.52Zm.83-1.75c-.58,0-.83.53-.83,1.05h1.62C268.41,39.46,268.24,39,267.62,39Z" style="fill:#4f4c4d"/><path d="M272.65,39.18a1.88,1.88,0,0,0-.55-.07,1.29,1.29,0,0,0-.8.29v3.21h-1.17V38.2H271l.13.59h0a1.18,1.18,0,0,1,1.05-.67,1.9,1.9,0,0,1,.51.06Z" style="fill:#4f4c4d"/><path d="M273.43,42.61V39l-.52-.1V38.2h1.69v4.41Zm0-6.21h1.19v1.07h-1.19Z" style="fill:#4f4c4d"/><path d="M279.34,40.39c0,1.51-.75,2.31-2.07,2.31s-2.07-.79-2.07-2.31a2.08,2.08,0,1,1,4.14,0Zm-1.2,0c0-1.06-.32-1.43-.87-1.43s-.85.38-.85,1.43.28,1.44.85,1.44S278.14,41.45,278.14,40.39Z" style="fill:#4f4c4d"/><path d="M284.48,38.54a2.78,2.78,0,0,1-.11-.81V36.4h1.17v6.21h-1l-.14-.49a1.43,1.43,0,0,1-1.17.58c-1,0-1.8-.72-1.8-2.3s.83-2.29,1.9-2.29A1.43,1.43,0,0,1,284.48,38.54Zm-.11.67a1.55,1.55,0,0,0-.8-.22c-.56,0-.91.38-.91,1.4s.33,1.45.89,1.45a1.13,1.13,0,0,0,.82-.38Z" style="fill:#4f4c4d"/><path d="M287.32,40.72a1,1,0,0,0,1.14,1.09,2.88,2.88,0,0,0,1.29-.37l.23.83a3.72,3.72,0,0,1-1.67.43,2.05,2.05,0,0,1-2.17-2.31c0-1.36.66-2.28,2.07-2.28s1.86,1,1.86,2.09v.52Zm.83-1.75c-.58,0-.83.53-.83,1.05h1.62C288.94,39.46,288.76,39,288.15,39Z" style="fill:#4f4c4d"/><path d="M242.59,52.61V46.53h3.74v1h-2.56V49h2l-.09,1h-1.87v1.56h2.56v1Z" style="fill:#4f4c4d"/><path d="M249.43,48.54a2.8,2.8,0,0,1-.1-.81V46.4h1.17v6.21h-1l-.13-.49a1.44,1.44,0,0,1-1.17.58c-1,0-1.8-.72-1.8-2.3s.83-2.29,1.9-2.29A1.42,1.42,0,0,1,249.43,48.54Zm-.1.67a1.55,1.55,0,0,0-.8-.22c-.56,0-.91.38-.91,1.4s.33,1.45.89,1.45a1.16,1.16,0,0,0,.82-.38Z" style="fill:#4f4c4d"/><path d="M254.35,52.61l-.18-.54a1.75,1.75,0,0,1-1.38.63c-1.1,0-1.6-.61-1.6-1.83V48.2h1.17v2.68c0,.68.24.92.77.92a1.47,1.47,0,0,0,.8-.26V48.2h1.19v4.41Z" style="fill:#4f4c4d"/><path d="M259.33,52.31a3.4,3.4,0,0,1-1.52.39c-1.31,0-2.1-.75-2.1-2.3a2,2,0,0,1,2.09-2.29,3,3,0,0,1,1.52.36l-.31.8A2.17,2.17,0,0,0,257.9,49c-.61,0-1,.41-1,1.4s.37,1.41,1,1.41a2.5,2.5,0,0,0,1.2-.34Z" style="fill:#4f4c4d"/><path d="M262.54,52.61l-.16-.52a1.61,1.61,0,0,1-1.29.61,1.37,1.37,0,0,1-1.48-1.41c0-.82.61-1.31,1.67-1.31h.93v-.23c0-.56-.33-.74-.78-.74a3.22,3.22,0,0,0-1.32.29l-.3-.83a4.46,4.46,0,0,1,1.74-.36c1.25,0,1.79.57,1.79,1.7v2.8Zm-.33-1.93h-.73c-.49,0-.71.24-.71.57a.59.59,0,0,0,.65.65,1.35,1.35,0,0,0,.79-.3Z" style="fill:#4f4c4d"/><path d="M267.59,52.31a3.35,3.35,0,0,1-1.51.39c-1.32,0-2.11-.75-2.11-2.3a2,2,0,0,1,2.1-2.29,2.91,2.91,0,0,1,1.51.36l-.31.8a2.16,2.16,0,0,0-1.1-.27c-.62,0-1,.41-1,1.4s.37,1.41,1,1.41a2.5,2.5,0,0,0,1.2-.34Z" style="fill:#4f4c4d"/><path d="M268.44,52.61V49l-.51-.1V48.2h1.68v4.41Zm0-6.21h1.18v1.07h-1.18Z" style="fill:#4f4c4d"/><path d="M274.36,50.39c0,1.51-.76,2.31-2.07,2.31s-2.08-.79-2.08-2.31a2.08,2.08,0,1,1,4.15,0Zm-3.16-2.88-.12-.67,2.28-.64.15.86Zm1.95,2.88c0-1.06-.32-1.43-.86-1.43s-.86.38-.86,1.43.28,1.44.86,1.44S273.15,51.45,273.15,50.39Z" style="fill:#4f4c4d"/><path d="M277.32,52.61V50.28c0-.59-.22-.87-.7-.87a1.24,1.24,0,0,0-.69.24v3h-1.05V48.69h.72l.16.45a1.61,1.61,0,0,1,1.24-.53c1,0,1.38.58,1.38,1.58v2.42Z" style="fill:#4f4c4d"/><path d="M248.17,143.92a5.85,5.85,0,0,1-2.62.65c-2.11,0-3.09-1.47-3.09-3.7s1.06-3.58,3.25-3.58a3.9,3.9,0,0,1,2.31.63l-.58,1a3.17,3.17,0,0,0-1.72-.45c-1.26,0-1.83,1-1.83,2.35,0,1.65.61,2.56,1.79,2.56a3.1,3.1,0,0,0,1.23-.25v-1.29h-1l-.07-1h2.3Z" style="fill:#4f4c4d"/><path d="M253.85,141.91c0,1.74-.88,2.66-2.4,2.66s-2.39-.91-2.39-2.66a2.41,2.41,0,1,1,4.79,0m-1.4,0c0-1.23-.36-1.65-1-1.65s-1,.43-1,1.65.32,1.66,1,1.66,1-.44,1-1.66" style="fill:#4f4c4d"/><path d="M256.12,139.89a1.8,1.8,0,0,1,1.35-.62c1.2,0,2.06.85,2.06,2.64s-1,2.66-2.22,2.66a1.68,1.68,0,0,1-1.48-.72l-.25.62h-.72v-7.18h1.36v1.78Zm.1,3.16a1.23,1.23,0,0,0,.92.52c.59,0,1-.43,1-1.66s-.38-1.64-1-1.64a1.41,1.41,0,0,0-.94.4Z" style="fill:#4f4c4d"/><path d="M261,144.47v-4.1l-.58-.12v-.88h1.93v5.1Zm0-7.18h1.37v1.24h-1.37Z" style="fill:#4f4c4d"/><path d="M264.73,142.28a1.16,1.16,0,0,0,1.32,1.26,3.44,3.44,0,0,0,1.48-.44l.26,1a4,4,0,0,1-1.91.51,2.37,2.37,0,0,1-2.52-2.66c0-1.57.75-2.64,2.38-2.64a2.13,2.13,0,0,1,2.16,2.42v.59Zm.95-2c-.67,0-.95.61-.95,1.21h1.86c0-.65-.2-1.21-.91-1.21" style="fill:#4f4c4d"/><path d="M271.82,140.51a2,2,0,0,0-.64-.09,1.45,1.45,0,0,0-.91.35v3.7h-1.35v-5.1h.94c.05.24.11.46.15.69h0a1.36,1.36,0,0,1,1.21-.78,2.34,2.34,0,0,1,.59.07c0,.39,0,.77,0,1.16" style="fill:#4f4c4d"/><path d="M275.8,144.47v-3c0-.77-.29-1.13-.91-1.13a1.7,1.7,0,0,0-.9.31v3.85h-1.36v-5.1h.94l.2.58a2.14,2.14,0,0,1,1.62-.68c1.28,0,1.79.76,1.79,2v3.15Z" style="fill:#4f4c4d"/><path d="M282.87,141.91c0,1.74-.87,2.66-2.39,2.66s-2.39-.91-2.39-2.66a2.4,2.4,0,1,1,4.78,0m-1.39,0c0-1.23-.37-1.65-1-1.65s-1,.43-1,1.65.33,1.66,1,1.66,1-.44,1-1.66" style="fill:#4f4c4d"/><path d="M289.48,139.77a2.92,2.92,0,0,1-.13-.94v-1.54h1.35v7.18h-1.1l-.15-.56a1.67,1.67,0,0,1-1.36.66c-1.15,0-2.08-.83-2.08-2.65s1-2.65,2.2-2.65a1.67,1.67,0,0,1,1.27.5m-.13.77a1.77,1.77,0,0,0-.92-.25c-.65,0-1.05.44-1.05,1.62s.38,1.67,1,1.67a1.33,1.33,0,0,0,.94-.43Z" style="fill:#4f4c4d"/><path d="M293.11,142.28a1.15,1.15,0,0,0,1.31,1.26,3.49,3.49,0,0,0,1.49-.44l.25,1a4,4,0,0,1-1.91.51,2.36,2.36,0,0,1-2.51-2.66c0-1.57.74-2.64,2.38-2.64a2.13,2.13,0,0,1,2.15,2.42v.59Zm.94-2c-.67,0-.94.61-.94,1.21H295c0-.65-.21-1.21-.92-1.21" style="fill:#4f4c4d"/><path d="M302.46,144.57c-2,0-3-1.33-3-3.67,0-2.15,1-3.61,3-3.61a4.36,4.36,0,0,1,2.39.6l-.52,1.08a3,3,0,0,0-1.73-.48c-1.16,0-1.74.86-1.74,2.4s.58,2.49,1.72,2.49a3.21,3.21,0,0,0,1.85-.65l.44,1.09a4.15,4.15,0,0,1-2.41.75" style="fill:#4f4c4d"/><path d="M305.81,144.47v-7.18h1.36v1.89a2.93,2.93,0,0,1-.14.78,1.78,1.78,0,0,1,1.45-.69c1.46,0,1.88.76,1.88,2v3.15H309v-3a.48.48,0,0,0-.08-.31.76.76,0,0,0-.84-.82,1.7,1.7,0,0,0-.89.31v3.85Z" style="fill:#4f4c4d"/><path d="M311.88,144.47v-4.1l-.58-.12v-.88h1.93v5.1Zm0-7.18h1.37v1.24h-1.37Z" style="fill:#4f4c4d"/><path d="M314.47,143.12v-5.83h1.34V143c0,.43.26.49.82.49v1a4.35,4.35,0,0,1-.75.08c-1,0-1.41-.55-1.41-1.45" style="fill:#4f4c4d"/><path d="M318.69,142.28a1.15,1.15,0,0,0,1.31,1.26,3.49,3.49,0,0,0,1.49-.44l.26,1a4.07,4.07,0,0,1-1.91.51,2.37,2.37,0,0,1-2.52-2.66c0-1.57.75-2.64,2.38-2.64s2.15,1.14,2.15,2.42v.59Zm.95-2c-.68,0-.95.61-.95,1.21h1.86c0-.65-.21-1.21-.91-1.21" style="fill:#4f4c4d"/><path d="M328.94,5.68H168.52V154.32h163V5.68ZM171.06,8.22h63.41V151.78H171.06ZM328.94,151.78H237V8.22h91.94Z" style="fill:#4f4c4d"/><path d="M204.75,27.9A.63.63,0,0,0,205,27c-.12-.23-.42-.25-.29-.28,1.62-.38,2.49-2.74,2.44-3.65a3.22,3.22,0,0,0,4.06-.17,2.89,2.89,0,0,0-.2-4.17,2.62,2.62,0,0,0-3,0,1.54,1.54,0,0,0-1.24-.78,3,3,0,0,0-.61-1.92,3.12,3.12,0,0,0-3.92,0A2.76,2.76,0,0,0,198.57,19a4.86,4.86,0,0,0-2.41-.41,2.83,2.83,0,0,0-1.6.92,3.67,3.67,0,0,0-.36.57,2.51,2.51,0,0,0-.28,1.39,2.56,2.56,0,0,0,1.2,2,4.27,4.27,0,0,0,2.49.37,1.88,1.88,0,0,0,1-.56c.11-.11.19-.28.34-.29a2,2,0,0,0,1.29,2.05,1,1,0,0,0,0,.2,1.86,1.86,0,0,0,1.59,1.6.65.65,0,0,0-.18,1,4.44,4.44,0,0,1,3.05,0Z" style="fill:#4f4c4d"/><polygon points="203.05 29.6 202.02 32.99 198.37 32.99 198.38 32.99 201.34 35.11 200.21 38.45 203.05 36.3 205.88 38.45 204.75 35.11 207.71 32.99 207.72 32.99 204.07 32.99 203.05 29.6" style="fill:none"/><path d="M208.6,33a5.1,5.1,0,0,1,1.15-3,.43.43,0,0,0,.13-.36.37.37,0,0,0-.17-.27c-.32-.22-1.06-.67-1.06-.67l-.06-.05h-.06c-.08,0-.14.05-.24.13a1.92,1.92,0,0,1-1.24.44l-.36,0a4,4,0,0,1-.93-.35c-.19-.1-.42-.2-.52-.24l0,0a4.85,4.85,0,0,0-3.95,0l0,0-.24.11-.58.27a3.11,3.11,0,0,1-.63.21l-.36,0a1.92,1.92,0,0,1-1.24-.44c-.1-.08-.16-.13-.24-.13h-.06l0,0s-.75.46-1.07.68a.37.37,0,0,0-.19.28.43.43,0,0,0,.13.36A5.1,5.1,0,0,1,197.86,33a4.55,4.55,0,0,1-.76,2.72,3.19,3.19,0,0,0,3.13,4.81c.18,0,1.88,0,2.46,1.12,0,0,.3.47.4.68l.14.26.12-.26c.12-.21.38-.63.42-.69.58-1.08,2.27-1.11,2.46-1.11a3.19,3.19,0,0,0,3.12-4.81A4.44,4.44,0,0,1,208.6,33Zm-.89,0-3,2.12,1.14,3.34-2.84-2.15-2.84,2.15,1.13-3.34-3-2.12H202l1-3.39,1,3.39h3.64Z" style="fill:#4f4c4d"/><path d="M193.15,49.31a3.87,3.87,0,0,0,3.95.74c.37-.06.56-1.21.66-2.1a34.32,34.32,0,0,1-4.06-.76A9.34,9.34,0,0,0,193.15,49.31Z" style="fill:none"/><path d="M192.72,42.31a.37.37,0,0,0-.18-.11c-.2,0-.34.14-.58.09s-1.85-1.32-2-1.39a5,5,0,0,1-1.2-.94c-.18-.25,0-.56-.07-.86a1.25,1.25,0,0,0-.74-.9,3.89,3.89,0,0,1-3,2.85,7.19,7.19,0,0,0,.44,3.82,1.27,1.27,0,0,1,.57.28,2.45,2.45,0,0,1,.15-.77,1.81,1.81,0,0,1,2.08-.87.88.88,0,0,1,.62.61c.2,1-.63,1.09-.63,1.09-.6,0-.62-.46-.62-.46-.07-.47.6-.49.6-.49-.57-1-2.34.63-1.18,2.06.12.14.23,0,.23,0,3.5-1.73,4.06-2.47,4.06-2.47A15.13,15.13,0,0,1,193,42.55,2.46,2.46,0,0,1,192.72,42.31Z" style="fill:none"/><path d="M209.26,28.36l.21.16Z" style="fill:none"/><path d="M210.39,29.23l-.38-.29.38.29Z" style="fill:none"/><path d="M209.59,28.62l.36.27Z" style="fill:none"/><path d="M192.46,48.71a3.39,3.39,0,0,0,.25-.75,5.5,5.5,0,0,1,.34-.92c-.38-.11-.75-.24-1.12-.36A5,5,0,0,0,192.46,48.71Z" style="fill:none"/><path d="M209,48c.09.89.29,2,.66,2.09a3.85,3.85,0,0,0,3.94-.74A9,9,0,0,0,213,47.2,34.7,34.7,0,0,1,209,48Z" style="fill:none"/><path d="M214,48a3.54,3.54,0,0,0,.26.75,4.94,4.94,0,0,0,.53-2c-.38.12-.74.25-1.12.35A6.57,6.57,0,0,1,214,48Z" style="fill:none"/><path d="M196.59,44.76a2.62,2.62,0,0,0-1.8.74c.87.2,1.9.39,3,.55A1.31,1.31,0,0,0,196.59,44.76Z" style="fill:none"/><path d="M212.52,45.36c.71-.18,1.34-.35,1.83-.51a3.33,3.33,0,0,0-.36-.59,4.86,4.86,0,0,0-5.54-1c-.07,0,.16.59,1.14.81A5.19,5.19,0,0,1,212.52,45.36Z" style="fill:none"/><path d="M210.11,44.76s-1,0-1.23,1.29c1.13-.16,2.17-.34,3-.55A2.63,2.63,0,0,0,210.11,44.76Z" style="fill:none"/><path d="M200.14,43.93a.88.88,0,0,0-.63-.36c-.51,0-.61,1.19-.76,2.61,1.08.12,2.3.2,3.58.23C201.78,45.29,200.58,44.55,200.14,43.93Z" style="fill:none"/><path d="M192.71,44.26a4.57,4.57,0,0,0-.36.58c.5.16,1.13.34,1.83.51A5.26,5.26,0,0,1,197.12,44c1-.22,1.2-.79,1.13-.81A4.87,4.87,0,0,0,192.71,44.26Z" style="fill:none"/><path d="M207.19,43.57a.85.85,0,0,0-.62.36c-.45.62-1.65,1.36-2.2,2.48,1.29,0,2.5-.11,3.59-.23C207.81,44.76,207.71,43.56,207.19,43.57Z" style="fill:none"/><path d="M228.38,47.06c-.37-.45-1.36-.23-1.36-.23a1.45,1.45,0,0,0-.92-2A1.25,1.25,0,0,0,225,45h0v0a.39.39,0,0,0-.1.08.75.75,0,0,0,1,1.14.72.72,0,0,0,.3-.45.73.73,0,0,1,.27.36c.43,1.34-1.08,1.82-1.08,1.82a5.88,5.88,0,0,1-5.36-.72l.58-.31a1.29,1.29,0,0,1,.53-.12.34.34,0,0,0,0,.1.66.66,0,0,0,1.32,0,.62.62,0,0,0-.14-.4c-.39-.59-1.73-.2-1.73-.2a2.42,2.42,0,0,0,0-1.9,1.82,1.82,0,0,0-2.09-.87.91.91,0,0,0-.62.61c-.2,1,.64,1.09.64,1.09.6,0,.61-.46.61-.46.07-.47-.59-.49-.59-.49.56-1,2.33.63,1.17,2.06-.12.14-.23,0-.23,0a23.54,23.54,0,0,1-3.6-2.08c0-.56-.55-.85-.45-1s.37.11.54-.13c.06-.09.19-1,.3-1.62A5.78,5.78,0,0,0,220,42a.41.41,0,0,0,.29-.42c0-.7-1.78-4.8-1.83-6.25.85.42,1.38-.9,1.54-1.3,1.15.52,1.54,11.18,2.43,11.54.44.18.61-.54.65-.68A35.16,35.16,0,0,0,224.46,34a30.12,30.12,0,0,0-.92-6.61c-.36-1.23-1.06-3.74-2.69-4.08a1.14,1.14,0,0,0-1.32,1.18c0,.55.39.82.22,1.36a4.85,4.85,0,0,0-.51,1.14c-.09.4.26.56.15,1-.52-.08-.78.37-1.58.17.52-.25.53-1.75-.12-2-.09,0-.2-.05-.22-.14a1.92,1.92,0,0,0,.31-.44,2,2,0,0,0,.08-1.93c.26,0,.54-.47.58-.86h0s0,0,0,0h0a1.64,1.64,0,0,1,.14-.77.2.2,0,1,0-.36-.17c-.16.34-.54.15-.38-.19a.21.21,0,0,0-.09-.27.2.2,0,0,0-.26.1c-.15.32-.52.14-.37-.18A.2.2,0,0,0,217,21a.2.2,0,0,0-.26.1c-.16.33-.55.15-.39-.18a.22.22,0,0,0-.09-.28.21.21,0,0,0-.26.1,1.72,1.72,0,0,1-.46.65c-.36.06-.27.47-.22.75a1,1,0,0,0-1.2.83h-.08c-.56,0-1.09.3-1.05.81a.91.91,0,0,0,.49.66c.06,0,0-.31.26-.33a.77.77,0,0,1,.71.46c0,.29-.18,1,.73,1.08l0,.28a2.62,2.62,0,0,0-.74,0,2,2,0,0,0-1.55,1,1.16,1.16,0,0,0,0,.43c0,.11.12.26.1.4a.68.68,0,0,1-.18.26,1.77,1.77,0,0,1-1.07.51,1.34,1.34,0,0,1-1-.49c-.57-.78.17-2.12.16-2.62,0-1.33-1.71-.54-2.38-.19a6.72,6.72,0,0,0-2,1.75,5.47,5.47,0,0,0-.78,1.2c0,.07-.09.08-.16.08a4,4,0,0,0,1.41.38,2.26,2.26,0,0,0,1.6-.43.37.37,0,0,1,.23-.08.36.36,0,0,1,.25.11l.19.16.21.16.12.1.36.27.06.05.38.29h0l.34.25h0a.17.17,0,0,1,0,.09.22.22,0,0,1-.06.16,2.41,2.41,0,0,1-.18.22,7.27,7.27,0,0,0-.89,1.51,2.07,2.07,0,0,0,1.6,1.21.83.83,0,0,0,.94-.68l.05,0a13,13,0,0,0,.84,2.22c-.41.19-1,.84-.7,2.62a15.93,15.93,0,0,1-1.26-1,1.9,1.9,0,0,0-1.53-1.32,7.29,7.29,0,0,0,.68,1.5,4.36,4.36,0,0,1,.42,2.43c.43-.43.36-1.62.36-1.62l.09,0c.09,0,.51.82,1.24,1a9.36,9.36,0,0,0,3.05,3.31c0,.39,0,1.33-.22,1.33-.81.18-1.56-.37-2.28-.33l-.12-.06c-3.08-1.48-7.15,1.7-7.82,2.32-.36.33-.77-.12-.77-.12a1,1,0,0,0-.88-.41,1,1,0,0,0-.87.41s-.42.45-.77.12c-.64-.58-4.32-3.43-7.33-2.46,0-.17-.42-.25-.53-.29a3.59,3.59,0,0,1-.6-.33,3.84,3.84,0,0,0-1.23-.11,1.4,1.4,0,0,1-.48-.18,4.65,4.65,0,0,1-1.34-1.09l-.19-.26a1.91,1.91,0,0,1-.34-.64,4.59,4.59,0,0,1,.18-1.83c.06-.45.05-.48.09-1a5.67,5.67,0,0,0,3.14-2.85c0-.06.16-.3.16-.3l.26,0c.76,0,1.28-.42,2.11-.32,0,0,.11.4.66.62a3.26,3.26,0,0,0,.26,1.43l.14.19a5.72,5.72,0,0,0,.47-2,.34.34,0,0,1-.07-.16,1.77,1.77,0,0,0-1-1.42,4.85,4.85,0,0,1-.61-.29,2.14,2.14,0,0,1-.81-.8l.2-.22a4.67,4.67,0,0,0,1-2.29c.41-.55,1.55-.33,2-.26a1,1,0,0,1,.38.13c.13.08.15.27.32.35a1.35,1.35,0,0,0,.6,0,1.16,1.16,0,0,1,.18.33,1.53,1.53,0,0,0,.17.22,4.39,4.39,0,0,0,1.55-.44.35.35,0,0,1-.09-.07,1.76,1.76,0,0,0-.93-.69c-.42-.07-.51-.45-.91-.53a1.65,1.65,0,0,0-.59,0,10.23,10.23,0,0,1-2.36-.28c-.79-.06-.82.48-1.11.93a2.7,2.7,0,0,1-.37.5c-.22.21-.47.22-.74.42l-.12-.33a2.41,2.41,0,0,0-.36-.83,2.83,2.83,0,0,0-1.88-1.43.86.86,0,0,1-.33-.18.16.16,0,0,1,0-.28c.27-.16.74-.1,1-.25.77-.35.5-1,.2-1.06a7,7,0,0,1-1.22-.33c-.18-.12-.51-.7-.81-.84s-.22-.64-.53-.76a1,1,0,0,0-.55.15c0-.11-.09-.74-.44-.94s-.35.08-.34.23.38.31.45.9l-.19.12a1.14,1.14,0,0,0-.4-.77c-.26-.14-.36.08-.34.23s.33.3.43.79l-.22.19c-.51-.14-.65-.49-.78-.51s-.38,0-.26.31a1.2,1.2,0,0,0,.74.49c-.05.06-.09.12-.14.17-.59-.12-.74-.51-.87-.54s-.39.05-.26.32.84.52.91.54a.65.65,0,0,0-.14.41c-.46-.05-1.28.2-1.13.74.15.11.7-.33,1.21-.08.33.51.86.53,1,.63s.22.41.3.65a5.28,5.28,0,0,0,.73,1.2c.28.44.58.89.88,1.27a.81.81,0,0,1,.05.37,11.38,11.38,0,0,1-1.78,1.57c-.42.4-4.42,3.43-4.92,4.76a2.77,2.77,0,0,0-.16,1.07c-.24.13-.78.34-.95.1-.3-.42.3-.75.17-1.16a.32.32,0,0,0-.45-.16,1.34,1.34,0,0,0,.15,2.26c.69.29.79-.46,1.33-.15.13.07,1.39,1.2,1.18,2.09a.67.67,0,0,1-.09.21c-.28.35-.74.61-1.05.94-.66.42.62,3,.51,4.39-.07.51.43.45.74,1.26a.92.92,0,0,0-.78.32.58.58,0,0,0-.13.4.66.66,0,0,0,1.32,0s0-.07,0-.1a1.32,1.32,0,0,1,.53.12l.58.31a5.89,5.89,0,0,1-5.36.72s-1.51-.48-1.09-1.82a.79.79,0,0,1,.28-.36.76.76,0,0,0,.73.59.76.76,0,0,0,.55-1.28l-.11-.08h0a1.23,1.23,0,0,0-1.09-.12,1.45,1.45,0,0,0-.92,2s-1-.22-1.35.23a.54.54,0,0,0-.12.37h0a.81.81,0,0,0,.11.32.57.57,0,0,0,.46.24.59.59,0,0,0,.45-.21h0s.16-.12.34.07c2.2,2.3,5.8,1.35,7.8-.19a12,12,0,0,1,2.33-1.79c.48.2,1,.35,1.49.53a4.77,4.77,0,0,0,.91,2.94,1.07,1.07,0,0,1-1.51.46.78.78,0,0,1-.11-1.19s.4-.33.57.09a.39.39,0,0,0,0,.77.38.38,0,0,0,.38-.37.94.94,0,0,0-.31-.84,1,1,0,0,0-.88-.24c-.83.13-1.31,1.88.35,2.61,0,0,1.29.59,2-.38,0,0,0-.14.25.1,1.37,1.33,4.44,1,5.66,0,0,0,.31-.19.65-.35a1,1,0,1,0,1.12-1,2,2,0,0,0-1.52.36,6.42,6.42,0,0,1-.89.5,5.54,5.54,0,0,0,.65-1.89c1.34.15,2.71.24,4.14.27a4.16,4.16,0,0,1-.24,1.31s-.5.21-.51.56c0,0-.06.26.39.62a2.58,2.58,0,0,1,.42.64s0,.39.56.39h.21c.53,0,.56-.39.56-.39a2.32,2.32,0,0,1,.42-.64c.44-.36.39-.62.39-.62,0-.35-.52-.56-.52-.56a4.15,4.15,0,0,1-.23-1.31q2.13,0,4.14-.27a5.33,5.33,0,0,0,.65,1.89,6.42,6.42,0,0,1-.89-.5,2,2,0,0,0-1.53-.36,1,1,0,0,0,.17,1.9,1,1,0,0,0,1-.93c.34.16.65.35.65.35,1.21.91,4.29,1.29,5.66,0,.25-.24.24-.1.24-.1.67,1,2,.38,2,.38,1.65-.73,1.18-2.48.35-2.61a1,1,0,0,0-.88.24,1,1,0,0,0-.32.84.39.39,0,0,0,.39.37.38.38,0,0,0,.38-.39.38.38,0,0,0-.37-.38c.18-.42.58-.09.58-.09a.79.79,0,0,1-.11,1.19,1.07,1.07,0,0,1-1.51-.46,4.88,4.88,0,0,0,.91-2.93c.5-.18,1-.33,1.49-.54a12,12,0,0,1,2.33,1.79c2,1.54,5.59,2.49,7.8.19.17-.19.29-.12.33-.07h0a.55.55,0,0,0,.44.21.59.59,0,0,0,.47-.24.78.78,0,0,0,.1-.32h0A.56.56,0,0,0,228.38,47.06Zm-41.17-.69s-.11.09-.23,0c-1.16-1.43.61-3,1.18-2.06,0,0-.67,0-.6.49,0,0,0,.49.62.46,0,0,.83-.09.63-1.09a.88.88,0,0,0-.62-.61,1.81,1.81,0,0,0-2.08.87,2.45,2.45,0,0,0-.15.77,1.27,1.27,0,0,0-.57-.28,7.19,7.19,0,0,1-.44-3.82,3.89,3.89,0,0,0,3-2.85,1.25,1.25,0,0,1,.74.9c0,.3-.11.61.07.86a5,5,0,0,0,1.2.94c.12.07,1.76,1.34,2,1.39s.38-.13.58-.09a.37.37,0,0,1,.18.11,2.46,2.46,0,0,0,.29.24,15.13,15.13,0,0,0-1.74,1.35S190.71,44.64,187.21,46.37Zm5.5,1.59a3.39,3.39,0,0,1-.25.75,5,5,0,0,1-.53-2c.37.12.74.25,1.12.36A5.5,5.5,0,0,0,192.71,48Zm4.39,2.09a3.87,3.87,0,0,1-3.95-.74,9.34,9.34,0,0,1,.55-2.12,34.32,34.32,0,0,0,4.06.76C197.66,48.84,197.47,50,197.1,50.05Zm-2.31-4.55a2.62,2.62,0,0,1,1.8-.74,1.31,1.31,0,0,1,1.24,1.29C196.69,45.89,195.66,45.7,194.79,45.5ZM197.12,44a5.26,5.26,0,0,0-2.94,1.33c-.7-.17-1.33-.35-1.83-.51a4.57,4.57,0,0,1,.36-.58,4.87,4.87,0,0,1,5.54-1C198.32,43.23,198.09,43.8,197.12,44Zm1.63,2.16c.15-1.42.25-2.62.76-2.61a.88.88,0,0,1,.63.36c.44.62,1.64,1.36,2.19,2.48C201.05,46.38,199.83,46.3,198.75,46.18Zm5.62.23c.55-1.12,1.75-1.86,2.2-2.48a.85.85,0,0,1,.62-.36c.52,0,.62,1.19.77,2.61C206.87,46.3,205.66,46.38,204.37,46.41Zm4.08-3.2a4.86,4.86,0,0,1,5.54,1,3.33,3.33,0,0,1,.36.59c-.49.16-1.12.33-1.83.51A5.19,5.19,0,0,0,209.59,44C208.61,43.8,208.38,43.23,208.45,43.21Zm1.66,1.55a2.63,2.63,0,0,1,1.81.74c-.87.21-1.91.39-3,.55C209.07,44.74,210.11,44.76,210.11,44.76Zm-.5,5.29c-.37-.06-.57-1.2-.66-2.09A34.7,34.7,0,0,0,213,47.2a9,9,0,0,1,.54,2.11A3.85,3.85,0,0,1,209.61,50.05Zm4.64-1.34A3.54,3.54,0,0,1,214,48a6.57,6.57,0,0,0-.33-.92c.38-.1.74-.23,1.12-.35A4.94,4.94,0,0,1,214.25,48.71Z" style="fill:#4f4c4d"/></svg>