<svg xmlns="http://www.w3.org/2000/svg" viewBox="0 0 500 160"><path d="M189.31,148.07a6.2,6.2,0,0,1-2.79.69c-2.24,0-3.29-1.57-3.29-3.94s1.13-3.81,3.47-3.81a4.14,4.14,0,0,1,2.45.67l-.62,1.09a3.32,3.32,0,0,0-1.82-.47c-1.34,0-2,1-2,2.5,0,1.76.64,2.72,1.9,2.72a3.25,3.25,0,0,0,1.31-.26v-1.38h-1l-.08-1.07h2.45Z" style="fill:#4d4c4c"/><path d="M195.36,145.93c0,1.85-.93,2.83-2.55,2.83s-2.55-1-2.55-2.83a2.56,2.56,0,1,1,5.1,0m-1.49,0c0-1.31-.38-1.77-1.06-1.77s-1.05.47-1.05,1.77.34,1.77,1.05,1.77,1.06-.48,1.06-1.77" style="fill:#4d4c4c"/><path d="M197.78,143.78a1.94,1.94,0,0,1,1.44-.67c1.28,0,2.19.91,2.19,2.82s-1.1,2.83-2.37,2.83a1.8,1.8,0,0,1-1.57-.76l-.26.65h-.78V141h1.45v1.89Zm.1,3.36a1.33,1.33,0,0,0,1,.56c.63,0,1.1-.47,1.1-1.77s-.41-1.75-1.08-1.75a1.57,1.57,0,0,0-1,.43Z" style="fill:#4d4c4c"/><path d="M203,148.65v-4.36l-.62-.14v-.92h2v5.42Zm-.05-7.64h1.46v1.32h-1.46Z" style="fill:#4d4c4c"/><path d="M207,146.32a1.24,1.24,0,0,0,1.4,1.35,3.73,3.73,0,0,0,1.58-.47l.28,1a4.44,4.44,0,0,1-2,.54,2.52,2.52,0,0,1-2.68-2.83c0-1.68.8-2.82,2.54-2.82s2.29,1.22,2.29,2.58v.63Zm1-2.14c-.72,0-1,.65-1,1.29h2c0-.69-.22-1.29-1-1.29" style="fill:#4d4c4c"/><path d="M214.5,144.43a2.61,2.61,0,0,0-.68-.09,1.54,1.54,0,0,0-1,.37v3.94h-1.44v-5.42h1c.06.25.12.48.16.73h0a1.46,1.46,0,0,1,1.3-.83,2.56,2.56,0,0,1,.62.07c0,.41,0,.82,0,1.23" style="fill:#4d4c4c"/><path d="M218.74,148.65v-3.22c0-.82-.32-1.21-1-1.21a1.83,1.83,0,0,0-.95.33v4.1h-1.45v-5.43h1l.22.63a2.24,2.24,0,0,1,1.72-.74c1.37,0,1.91.81,1.91,2.19v3.35Z" style="fill:#4d4c4c"/><path d="M226.27,145.93c0,1.85-.93,2.83-2.55,2.83s-2.55-1-2.55-2.83a2.56,2.56,0,1,1,5.1,0m-1.48,0c0-1.31-.4-1.77-1.07-1.77s-1.05.47-1.05,1.77.34,1.77,1.05,1.77,1.07-.48,1.07-1.77" style="fill:#4d4c4c"/><path d="M233.3,143.65a3.32,3.32,0,0,1-.13-1V141h1.44v7.64h-1.18l-.16-.6a1.76,1.76,0,0,1-1.44.71c-1.23,0-2.22-.88-2.22-2.82s1-2.83,2.34-2.83a1.74,1.74,0,0,1,1.35.54m-.13.82a1.88,1.88,0,0,0-1-.27c-.68,0-1.12.47-1.12,1.73s.42,1.78,1.1,1.78a1.43,1.43,0,0,0,1-.47Z" style="fill:#4d4c4c"/><path d="M237.17,146.32a1.23,1.23,0,0,0,1.39,1.35,3.77,3.77,0,0,0,1.59-.47l.27,1a4.36,4.36,0,0,1-2,.54,2.52,2.52,0,0,1-2.68-2.83c0-1.68.79-2.82,2.53-2.82s2.29,1.22,2.29,2.58v.63Zm1-2.14c-.72,0-1,.65-1,1.29h2c0-.69-.22-1.29-1-1.29" style="fill:#4d4c4c"/><path d="M247.12,148.76c-2.1,0-3.22-1.41-3.22-3.91,0-2.29,1.11-3.84,3.22-3.84a4.69,4.69,0,0,1,2.55.63l-.55,1.15a3.3,3.3,0,0,0-1.84-.51c-1.24,0-1.86.92-1.86,2.56s.62,2.65,1.83,2.65a3.45,3.45,0,0,0,2-.69l.46,1.17a4.47,4.47,0,0,1-2.57.79" style="fill:#4d4c4c"/><path d="M250.69,148.65V141h1.45v2a3.27,3.27,0,0,1-.14.83,1.87,1.87,0,0,1,1.53-.74c1.57,0,2,.81,2,2.19v3.35h-1.47v-3.22a.57.57,0,0,0-.08-.33c-.05-.61-.36-.88-.9-.88a1.8,1.8,0,0,0-1,.33v4.1Z" style="fill:#4d4c4c"/><path d="M257.16,148.65v-4.36l-.62-.14v-.92h2.06v5.42Zm-.05-7.64h1.46v1.32h-1.46Z" style="fill:#4d4c4c"/><path d="M259.92,147.21V141h1.42v6.12c0,.46.28.52.88.52v1a4.47,4.47,0,0,1-.8.09c-1.11,0-1.5-.59-1.5-1.55" style="fill:#4d4c4c"/><path d="M264.41,146.32a1.24,1.24,0,0,0,1.4,1.35,3.77,3.77,0,0,0,1.58-.47l.27,1a4.36,4.36,0,0,1-2,.54,2.52,2.52,0,0,1-2.68-2.83c0-1.68.8-2.82,2.54-2.82s2.29,1.22,2.29,2.58v.63Zm1-2.14c-.72,0-1,.65-1,1.29h2c0-.69-.22-1.29-1-1.29" style="fill:#4d4c4c"/><path d="M275.33.86H104.5V159.14H278V.86ZM107.2,3.56h67.53V156.44H107.2ZM275.33,156.44h-97.9V3.56h97.91Z" style="fill:#4d4c4c"/><path d="M293.5,101.38c0,3,1.54,4.34,3.86,4.34a7.5,7.5,0,0,0,3.78-1.22l.47,1.34a8.75,8.75,0,0,1-4.45,1.35c-3.34,0-5.55-2.22-5.55-6.43,0-3.85,1.89-6.27,5.22-6.27s4.88,2.76,4.88,5.82v1.07Zm3.26-5.45c-2.31,0-3.26,2-3.26,4.14h6.37c0-2.12-.72-4.14-3.11-4.14" style="fill:#4d4c4c"/><path d="M312.27,106.94V99.57c0-2.32-.72-3.59-2.79-3.59a4.54,4.54,0,0,0-3,1.4v9.56H304.6V94.74h1.27l.37,1.44a5.35,5.35,0,0,1,3.84-1.69c2.86,0,4.13,1.72,4.13,4.75v7.7Z" style="fill:#4d4c4c"/><path d="M332.2,99.24v7.7h-1.91V99.57c0-2.32-.67-3.59-2.74-3.59a4.37,4.37,0,0,0-2.94,1.4v9.56h-1.89V94.74H324l.4,1.47a5.15,5.15,0,0,1,3.71-1.72c1.82,0,3,.65,3.59,1.87a5.31,5.31,0,0,1,3.81-1.87c3,0,4.3,1.67,4.3,4.75v7.7h-1.91V99.57c0-2.32-.88-3.59-2.94-3.59a4.36,4.36,0,0,0-2.91,1.4,7.6,7.6,0,0,1,.19,1.86" style="fill:#4d4c4c"/><path d="M350.28,106.94l-.33-1.57a4.81,4.81,0,0,1-3.76,1.82,3.65,3.65,0,0,1-3.93-3.74c0-2.11,1.54-3.48,4.31-3.48h3.16V99c0-2.12-.92-3-2.77-3a9,9,0,0,0-3.68.8l-.5-1.37a10.82,10.82,0,0,1,4.43-.92c2.89,0,4.36,1.49,4.36,4.41v8Zm-.55-5.68h-2.87c-2.06,0-2.76.9-2.76,2.12a2.26,2.26,0,0,0,2.57,2.44,4.3,4.3,0,0,0,3.06-1.52Z" style="fill:#4d4c4c"/><path d="M361,96.38a5,5,0,0,0-1.57-.22,3.91,3.91,0,0,0-2.74,1.32v9.46H354.8V94.74h1.27l.35,1.54a4,4,0,0,1,3.16-1.72,5.73,5.73,0,0,1,1.55.2Z" style="fill:#4d4c4c"/><path d="M371.63,106.12a8.74,8.74,0,0,1-4.06,1.07c-3.08,0-5.32-1.82-5.32-6.35,0-4.13,2.26-6.35,5.32-6.35a7.92,7.92,0,0,1,4,1L371,96.81a6.61,6.61,0,0,0-3.34-.8c-2.19,0-3.53,1.74-3.53,4.83,0,3.43,1.34,4.88,3.53,4.88a6.9,6.9,0,0,0,3.51-1Z" style="fill:#4d4c4c"/><path d="M374.12,106.94V89.76H376v4.9a6.53,6.53,0,0,1-.17,1.55,5,5,0,0,1,3.68-1.72c3,0,4.21,1.67,4.21,4.75v7.7h-1.94V99.57c0-2.27-.9-3.59-2.79-3.59a4.54,4.54,0,0,0-3,1.4v9.56Z" style="fill:#4d4c4c"/><path d="M394.21,106.94l-.33-1.57a4.81,4.81,0,0,1-3.76,1.82,3.65,3.65,0,0,1-3.93-3.74c0-2.11,1.54-3.48,4.31-3.48h3.16V99c0-2.12-.92-3-2.76-3a9,9,0,0,0-3.69.8l-.5-1.37a10.83,10.83,0,0,1,4.44-.92c2.88,0,4.35,1.49,4.35,4.41v8Zm-.55-5.68H390.8c-2.07,0-2.77.9-2.77,2.12a2.26,2.26,0,0,0,2.57,2.44,4.3,4.3,0,0,0,3.06-1.52Z" style="fill:#4d4c4c"/><path d="M305.68,86.64c-9.16,0-14.07-6.07-14.07-16.91,0-10.13,4.86-16.58,14.07-16.58,4.43,0,8.43,1,11.08,2.74L314.35,61a13.6,13.6,0,0,0-8-2.26c-5.39,0-8.09,3.8-8.09,10.94,0,7.52,2.7,11.37,8,11.37a15.1,15.1,0,0,0,8.58-3l2,5.11a19.21,19.21,0,0,1-11.18,3.47" style="fill:#4d4c4c"/><path d="M321.1,86.16V52.91h6.31v8.72a10.18,10.18,0,0,1-.63,3.66,8.4,8.4,0,0,1,6.8-3.23c6.75,0,8.63,3.52,8.63,9.5v14.6H335.8V72.09c0-3.38-1.35-5.21-4.2-5.21a7.3,7.3,0,0,0-4.19,1.45V86.16Z" style="fill:#4d4c4c"/><path d="M349.24,86.16V67.07l-2.75-.57v-4h9V86.16Zm-.19-33.25h6.36v5.73h-6.36Z" style="fill:#4d4c4c"/><path d="M361.29,79.89v-27h6.21V79.56c0,2,1.21,2.26,3.81,2.26v4.44a20,20,0,0,1-3.47.38c-4.82,0-6.55-2.55-6.55-6.75" style="fill:#4d4c4c"/><path d="M380.8,76c0,3.76,2.12,5.83,6.07,5.83a15.89,15.89,0,0,0,6.95-2l1.2,4.44a19.41,19.41,0,0,1-8.92,2.31c-7.27,0-11.61-4.53-11.61-12.34,0-7.27,3.52-12.24,11.08-12.24,7.14,0,9.93,5.3,9.93,11.23V76Zm4.44-9.35c-3.14,0-4.44,2.84-4.44,5.64h8.63c0-3-.92-5.64-4.19-5.64" style="fill:#4d4c4c"/><path d="M143.08,24.52a.67.67,0,0,0,.21-.91c-.12-.25-.45-.27-.31-.3,1.73-.41,2.65-2.93,2.6-3.89a3.45,3.45,0,0,0,4.33-.18,3.08,3.08,0,0,0-.22-4.44,2.8,2.8,0,0,0-3.17,0,1.61,1.61,0,0,0-1.31-.83,3.19,3.19,0,0,0-.66-2,3.31,3.31,0,0,0-4.17,0c-1.74-.44-4,.36-3.88,3.09a5.09,5.09,0,0,0-2.57-.43,3,3,0,0,0-1.71,1,4.39,4.39,0,0,0-.38.6,2.66,2.66,0,0,0-.29,1.48,2.74,2.74,0,0,0,1.27,2.18,4.6,4.6,0,0,0,2.65.39,2,2,0,0,0,1.08-.6c.11-.11.2-.3.36-.3a2.15,2.15,0,0,0,1.37,2.18c0,.06,0,.12,0,.21a2,2,0,0,0,1.7,1.71c-.54.32-.31.8-.19,1a4.7,4.7,0,0,1,3.25,0" style="fill:#4d4c4c"/><path d="M147.18,30a5.41,5.41,0,0,1,1.22-3.22.47.47,0,0,0,.14-.39.36.36,0,0,0-.18-.28c-.35-.24-1.13-.72-1.13-.72l-.06-.05h-.07a.43.43,0,0,0-.25.13,2,2,0,0,1-1.33.48l-.38,0a4.22,4.22,0,0,1-1-.37l-.55-.26,0,0a5.15,5.15,0,0,0-4.21,0l0,0-.25.12-.61.29a3.08,3.08,0,0,1-.67.22l-.39,0a2,2,0,0,1-1.32-.48.48.48,0,0,0-.26-.13h-.06l0,0s-.81.49-1.14.72a.42.42,0,0,0-.2.3.47.47,0,0,0,.14.39A5.45,5.45,0,0,1,135.73,30a4.7,4.7,0,0,1-.8,2.89A3.39,3.39,0,0,0,138.26,38c.2,0,2,0,2.62,1.19,0,0,.32.51.43.73l.14.28.14-.28c.12-.22.4-.68.45-.74.61-1.14,2.41-1.18,2.61-1.18A3.4,3.4,0,0,0,148,32.88a4.66,4.66,0,0,1-.8-2.92m-1,0-3.15,2.26,1.21,3.56-3-2.29-3,2.29,1.21-3.56-3.15-2.26h3.87l1.09-3.61,1.09,3.61h3.88Z" style="fill:#4d4c4c"/><path d="M168.24,44.92c-.4-.48-1.44-.24-1.44-.24a1.55,1.55,0,0,0-1-2.12,1.33,1.33,0,0,0-1.15.12h0a0,0,0,0,1,0,0l-.11.09a.83.83,0,0,0-.23.56.81.81,0,0,0,1.27.66.83.83,0,0,0,.32-.48.8.8,0,0,1,.3.38c.45,1.42-1.16,1.94-1.16,1.94a6.28,6.28,0,0,1-5.71-.77l.62-.33a1.31,1.31,0,0,1,.56-.12s0,.06,0,.1a.71.71,0,0,0,1.41,0,.69.69,0,0,0-.14-.43c-.42-.62-1.85-.21-1.85-.21a2.55,2.55,0,0,0,0-2,1.94,1.94,0,0,0-2.22-.93,1,1,0,0,0-.66.65c-.21,1.07.68,1.16.68,1.16.64,0,.65-.48.65-.48.08-.5-.63-.53-.63-.53.6-1,2.48.67,1.25,2.19-.13.16-.25,0-.25,0A24.15,24.15,0,0,1,154.94,42c-.06-.6-.58-.9-.48-1.06s.4.12.57-.14a16.51,16.51,0,0,0,.33-1.72,6.2,6.2,0,0,0,3.95.51.45.45,0,0,0,.31-.45c0-.74-1.89-5.12-1.94-6.66.91.45,1.47-1,1.63-1.38,1.23.56,1.65,11.91,2.59,12.29.47.19.66-.58.7-.73A37.66,37.66,0,0,0,164.07,31a32.47,32.47,0,0,0-1-7c-.38-1.31-1.12-4-2.86-4.35a1.23,1.23,0,0,0-1.41,1.26c0,.59.42.87.24,1.45a5.26,5.26,0,0,0-.54,1.21c-.1.42.27.59.15,1-.54-.08-.82.4-1.68.18.56-.26.57-1.86-.12-2.14-.1,0-.22-.05-.24-.15A2.14,2.14,0,0,0,157,22a2.11,2.11,0,0,0,.08-2.06c.29,0,.58-.5.62-.92h0v0h0a2.09,2.09,0,0,1,.15-.82.22.22,0,0,0-.09-.29.24.24,0,0,0-.29.11c-.16.36-.57.16-.4-.2a.22.22,0,0,0-.1-.29.22.22,0,0,0-.28.11c-.16.34-.55.15-.39-.2a.21.21,0,0,0-.1-.28.21.21,0,0,0-.28.11c-.16.35-.57.15-.4-.2a.22.22,0,0,0-.1-.29.21.21,0,0,0-.28.11,1.8,1.8,0,0,1-.49.68c-.39.07-.29.51-.24.81a1,1,0,0,0-1.28.88H153c-.59,0-1.16.32-1.11.86a.94.94,0,0,0,.52.7c.06,0,0-.33.28-.35a.84.84,0,0,1,.75.49c.06.31-.19,1,.77,1.15a2.59,2.59,0,0,1,0,.3,2.92,2.92,0,0,0-.78,0,2.1,2.1,0,0,0-1.65,1.05,1.11,1.11,0,0,0,0,.46c0,.12.13.28.11.43a.74.74,0,0,1-.19.27,1.89,1.89,0,0,1-1.14.55,1.4,1.4,0,0,1-1.09-.53c-.62-.82.18-2.25.17-2.78,0-1.42-1.83-.58-2.54-.21A7,7,0,0,0,145,23.49a6.12,6.12,0,0,0-.84,1.28c0,.08-.1.09-.17.09a4.46,4.46,0,0,0,1.51.41,2.41,2.41,0,0,0,1.69-.46.44.44,0,0,1,.25-.09.42.42,0,0,1,.27.12l.2.17.23.17.13.11.37.29.07.05.4.31c.15.11.28.21.37.26h0a.13.13,0,0,1,.06.1.25.25,0,0,1-.06.17l-.2.23a7.79,7.79,0,0,0-.94,1.62,2.17,2.17,0,0,0,1.7,1.28.89.89,0,0,0,1-.73s.05.05.05.06a14.45,14.45,0,0,0,.9,2.37c-.44.2-1.11.89-.74,2.78A16.37,16.37,0,0,1,149.87,33a2,2,0,0,0-1.63-1.41,8.3,8.3,0,0,0,.72,1.61,4.56,4.56,0,0,1,.46,2.58c.45-.46.38-1.72.38-1.72s.08,0,.1,0,.54.87,1.32,1a10.15,10.15,0,0,0,3.24,3.53c0,.41,0,1.41-.23,1.41-.87.19-1.67-.39-2.43-.35l-.13-.06c-3.28-1.58-7.61,1.81-8.33,2.47-.38.35-.82-.13-.82-.13a1.2,1.2,0,0,0-1.86,0s-.44.48-.82.13c-.68-.62-4.6-3.66-7.81-2.63,0-.17-.44-.26-.56-.3a3.65,3.65,0,0,1-.64-.36,4.68,4.68,0,0,0-1.31-.11,1.37,1.37,0,0,1-.51-.19,5,5,0,0,1-1.43-1.16c0-.08-.18-.25-.2-.28a2.05,2.05,0,0,1-.36-.68,4.83,4.83,0,0,1,.19-1.95c.07-.48.05-.51.09-1a6,6,0,0,0,3.34-3,3.1,3.1,0,0,0,.18-.32l.27,0c.82,0,1.36-.45,2.25-.35,0,.05.13.43.7.66a3.62,3.62,0,0,0,.28,1.52,1.92,1.92,0,0,0,.16.21A6,6,0,0,0,135,30a.39.39,0,0,1-.07-.17,1.88,1.88,0,0,0-1.09-1.51,5.51,5.51,0,0,1-.65-.31,2.33,2.33,0,0,1-.86-.85,3,3,0,0,0,.21-.24,5,5,0,0,0,1.06-2.43c.44-.59,1.64-.36,2.1-.28a1.1,1.1,0,0,1,.41.13c.14.09.16.3.35.38a1.48,1.48,0,0,0,.63,0,1.31,1.31,0,0,1,.19.35,1.9,1.9,0,0,0,.19.24,4.61,4.61,0,0,0,1.64-.48.22.22,0,0,1-.09-.07,1.91,1.91,0,0,0-1-.74c-.45-.07-.54-.47-1-.56a1.59,1.59,0,0,0-.62,0,11.49,11.49,0,0,1-2.51-.3c-.85-.06-.88.52-1.18,1a3.1,3.1,0,0,1-.4.52c-.23.23-.5.23-.78.45l-.13-.35a3,3,0,0,0-.38-.89,3,3,0,0,0-2-1.51,1,1,0,0,1-.35-.2.17.17,0,0,1,0-.3c.29-.17.79-.11,1.12-.26.81-.38.53-1.07.21-1.13a7.69,7.69,0,0,1-1.3-.35c-.2-.13-.54-.75-.86-.9s-.24-.68-.57-.81a1.18,1.18,0,0,0-.58.16c0-.12-.1-.78-.47-1s-.37.09-.36.25.4.33.47,1l-.19.13a1.24,1.24,0,0,0-.44-.82c-.27-.16-.37.08-.36.24s.36.31.46.84l-.23.21c-.55-.15-.7-.53-.83-.55s-.41,0-.28.33a1.27,1.27,0,0,0,.79.52l-.15.18c-.63-.12-.79-.54-.93-.57s-.41.05-.28.34.91.55,1,.57a.64.64,0,0,0-.15.44c-.49-.06-1.37.21-1.21.79.17.12.75-.36,1.29-.09a1.91,1.91,0,0,0,1,.67c.2.16.23.44.32.7a6,6,0,0,0,.77,1.28c.3.46.62.94.94,1.34a.81.81,0,0,1,0,.4A12.3,12.3,0,0,1,126,27.34c-.45.42-4.71,3.66-5.24,5.07a2.91,2.91,0,0,0-.17,1.14c-.26.14-.83.37-1,.11-.33-.45.31-.8.17-1.24a.33.33,0,0,0-.47-.17,1.43,1.43,0,0,0,.16,2.41c.73.3.84-.49,1.41-.17.14.08,1.49,1.28,1.26,2.24a1.45,1.45,0,0,1-.09.22c-.3.37-.79.65-1.13,1-.7.44.67,3.24.56,4.67-.08.55.45.49.77,1.34a1,1,0,0,0-.82.34.63.63,0,0,0-.14.43.7.7,0,1,0,1.4,0,.31.31,0,0,0,0-.1,1.33,1.33,0,0,1,.57.12l.61.33a6.25,6.25,0,0,1-5.7.77s-1.61-.52-1.16-1.94a.8.8,0,0,1,.3-.38.77.77,0,0,0,.78.62.8.8,0,0,0,.8-.8.82.82,0,0,0-.22-.56l-.11-.09h0l0,0a1.35,1.35,0,0,0-1.16-.12,1.55,1.55,0,0,0-1,2.12s-1-.24-1.44.24a.55.55,0,0,0-.12.4h0a.84.84,0,0,0,.11.34.6.6,0,0,0,1,0h0c0-.06.17-.13.36.06,2.35,2.45,6.18,1.44,8.3-.2a13.21,13.21,0,0,1,2.49-1.91c.52.22,1.06.38,1.58.57a5.16,5.16,0,0,0,1,3.13,1.14,1.14,0,0,1-1.61.49.83.83,0,0,1-.11-1.26s.43-.36.61.08a.42.42,0,0,0-.39.42.41.41,0,0,0,.41.41.42.42,0,0,0,.41-.39,1,1,0,0,0-.34-.9,1,1,0,0,0-.93-.25c-.89.14-1.4,2,.36,2.77,0,0,1.39.63,2.1-.4,0,0,0-.15.26.11,1.46,1.42,4.73,1,6,0a7.17,7.17,0,0,1,.69-.38,1,1,0,1,0,1.19-1,2.15,2.15,0,0,0-1.62.38,8.11,8.11,0,0,1-.94.54,5.72,5.72,0,0,0,.69-2c1.43.16,2.89.27,4.4.3a3.88,3.88,0,0,1-.25,1.39s-.53.22-.54.6c0,0-.06.27.41.66a2.5,2.5,0,0,1,.45.68s0,.41.6.41h.22c.57,0,.6-.41.6-.41a2.56,2.56,0,0,1,.44-.68c.48-.39.42-.66.42-.66,0-.38-.55-.6-.55-.6a4.38,4.38,0,0,1-.25-1.39c1.52,0,3-.14,4.41-.29a5.74,5.74,0,0,0,.69,2,8.11,8.11,0,0,1-.94-.54,2.17,2.17,0,0,0-1.63-.38,1,1,0,1,0,1.2,1,7.17,7.17,0,0,1,.69.38c1.29,1,4.57,1.38,6,0,.27-.26.26-.11.26-.11.71,1,2.1.4,2.1.4,1.75-.77,1.25-2.63.36-2.77a1.08,1.08,0,0,0-.94.25,1,1,0,0,0-.33.9.42.42,0,0,0,.41.39.41.41,0,0,0,.41-.41.43.43,0,0,0-.39-.42c.18-.44.61-.08.61-.08a.83.83,0,0,1-.12,1.26,1.15,1.15,0,0,1-1.61-.49,5.08,5.08,0,0,0,1-3.12c.54-.19,1.08-.35,1.59-.58a13,13,0,0,1,2.48,1.91c2.13,1.64,6,2.65,8.31.2.19-.19.31-.12.35-.06h0a.6.6,0,0,0,.47.23.61.61,0,0,0,.5-.27.84.84,0,0,0,.11-.34h0a.61.61,0,0,0-.12-.4m-43.84-.74s-.12.11-.24,0c-1.24-1.52.65-3.24,1.25-2.19,0,0-.71,0-.63.53,0,0,0,.51.65.48,0,0,.89-.09.68-1.16a1,1,0,0,0-.66-.65,2,2,0,0,0-2.23.93,2.76,2.76,0,0,0-.15.82,1.35,1.35,0,0,0-.61-.3,7.62,7.62,0,0,1-.47-4.07,4.13,4.13,0,0,0,3.23-3,1.35,1.35,0,0,1,.79.95c0,.32-.12.66.07.92a5.39,5.39,0,0,0,1.28,1c.13.08,1.88,1.43,2.1,1.48s.4-.13.62-.1a.62.62,0,0,1,.19.12,3.36,3.36,0,0,0,.3.26,15.89,15.89,0,0,0-1.84,1.44s-.61.78-4.33,2.62m5.86,1.7a3.34,3.34,0,0,1-.27.79,5.3,5.3,0,0,1-.57-2.15c.4.13.79.27,1.19.38a6.24,6.24,0,0,0-.35,1m4.67,2.22a4.09,4.09,0,0,1-4.2-.78,9.63,9.63,0,0,1,.58-2.26,36.68,36.68,0,0,0,4.32.82c-.1.94-.31,2.16-.7,2.22m-2.46-4.84a2.79,2.79,0,0,1,1.92-.79s1.11,0,1.32,1.38c-1.21-.17-2.31-.37-3.24-.59M135,41.68a5.53,5.53,0,0,0-3.12,1.42c-.75-.18-1.43-.37-2-.54a3.69,3.69,0,0,1,.38-.62,5.17,5.17,0,0,1,5.9-1.12c.07,0-.17.64-1.21.86m1.73,2.3c.16-1.51.27-2.78.82-2.78a.93.93,0,0,1,.66.39c.48.66,1.76,1.44,2.35,2.64-1.37,0-2.67-.12-3.83-.25m6,.25c.59-1.2,1.87-2,2.34-2.64a1,1,0,0,1,.67-.39c.55,0,.66,1.27.81,2.78-1.16.14-2.45.22-3.82.25M147,40.82a5.17,5.17,0,0,1,5.9,1.12,4.22,4.22,0,0,1,.38.63c-.52.16-1.2.35-1.94.54a5.57,5.57,0,0,0-3.13-1.43c-1-.22-1.29-.84-1.21-.86m1.77,1.65a2.79,2.79,0,0,1,1.93.8c-.94.21-2,.41-3.25.58a1.4,1.4,0,0,1,1.32-1.38m-.54,5.63c-.4-.06-.6-1.28-.7-2.22a36.68,36.68,0,0,0,4.32-.81,9.62,9.62,0,0,1,.58,2.25,4.09,4.09,0,0,1-4.2.78m4.94-1.43a3.34,3.34,0,0,1-.27-.79,9.25,9.25,0,0,0-.35-1c.4-.11.79-.25,1.18-.37a5.19,5.19,0,0,1-.56,2.14" style="fill:#4d4c4c"/><path d="M192,28.54l-.19-8h-.06c-.17,1-.34,1.73-.46,2.28L190,28.54h-2.7L186,22.83c-.13-.55-.3-1.27-.48-2.28h-.06l-.12,8h-1.69l.37-9.47h3.15s1,4.77,1.59,7.83h0c.63-3,1.86-7.83,1.86-7.83h3.1l.37,9.47Z" style="fill:#4d4c4c"/><path d="M196.24,28.54V23l-.8-.17V21.67h2.62v6.87Zm-.05-9.67H198v1.66h-1.85Z" style="fill:#4d4c4c"/><path d="M204,28.54V24.46c0-1-.39-1.53-1.23-1.53a2.25,2.25,0,0,0-1.21.42v5.19h-1.83V21.67H201l.28.78a2.85,2.85,0,0,1,2.17-.92c1.74,0,2.43,1,2.43,2.76v4.25Z" style="fill:#4d4c4c"/><path d="M207.92,28.54V23l-.8-.17V21.67h2.62v6.87Zm-.06-9.67h1.85v1.66h-1.85Z" style="fill:#4d4c4c"/><path d="M213,23.48c0,1.06,3,.74,3,3,0,1.25-.93,2.22-2.71,2.22a4.3,4.3,0,0,1-2.06-.51l.38-1.27a3.21,3.21,0,0,0,1.62.47c.61,0,1-.33,1-.75,0-1.24-2.93-.83-2.93-3.17,0-1,.77-1.92,2.62-1.92a5.68,5.68,0,0,1,1.94.33l-.25,1.34a4.13,4.13,0,0,0-1.66-.35c-.63,0-.94.23-.94.63" style="fill:#4d4c4c"/><path d="M220,28.68c-1.22,0-2-.58-2-2.3V23h-1v-1.3h1V20.48l1.81-.59v1.78h1.83V23h-1.83v3.37a.69.69,0,0,0,.73.78,2.46,2.46,0,0,0,1.05-.25l.28,1.35a4,4,0,0,1-1.85.46" style="fill:#4d4c4c"/><path d="M224.19,25.59a1.56,1.56,0,0,0,1.77,1.7,4.71,4.71,0,0,0,2-.57l.35,1.29a5.71,5.71,0,0,1-2.59.67c-2.12,0-3.38-1.32-3.38-3.59s1-3.56,3.22-3.56,2.89,1.54,2.89,3.27v.79Zm1.3-2.71c-.92,0-1.3.82-1.3,1.63h2.52c0-.88-.27-1.63-1.22-1.63" style="fill:#4d4c4c"/><path d="M233.76,23.2a3.15,3.15,0,0,0-.86-.11,1.93,1.93,0,0,0-1.23.46v5h-1.82V21.67h1.27l.2.92h0A1.84,1.84,0,0,1,233,21.54a3.19,3.19,0,0,1,.8.1Z" style="fill:#4d4c4c"/><path d="M235.42,28.54V23l-.79-.17V21.67h2.62v6.87Zm0-9.67h1.85v1.66h-1.85Z" style="fill:#4d4c4c"/><path d="M245.08,25.09c0,2.34-1.17,3.59-3.22,3.59s-3.23-1.24-3.23-3.59c0-2,1.13-3.56,3.23-3.56s3.22,1.54,3.22,3.56m-1.87,0c0-1.65-.5-2.23-1.35-2.23s-1.33.59-1.33,2.23.43,2.24,1.33,2.24,1.35-.6,1.35-2.24" style="fill:#4d4c4c"/><path d="M254,22.2a4,4,0,0,1-.17-1.26V18.87h1.82v9.67h-1.49l-.21-.76a2.21,2.21,0,0,1-1.82.9c-1.55,0-2.8-1.12-2.8-3.58,0-2.27,1.29-3.57,3-3.57a2.24,2.24,0,0,1,1.71.67m-.17,1a2.45,2.45,0,0,0-1.25-.34c-.87,0-1.42.59-1.42,2.19s.52,2.26,1.39,2.26a1.83,1.83,0,0,0,1.28-.59Z" style="fill:#4d4c4c"/><path d="M258.86,25.59a1.56,1.56,0,0,0,1.77,1.7,4.71,4.71,0,0,0,2-.57L263,28a5.71,5.71,0,0,1-2.59.67c-2.12,0-3.38-1.32-3.38-3.59s1-3.56,3.22-3.56,2.89,1.54,2.89,3.27v.79Zm1.3-2.71c-.92,0-1.3.82-1.3,1.63h2.51c0-.88-.26-1.63-1.21-1.63" style="fill:#4d4c4c"/><polygon points="183.81 41.75 183.81 32.28 189.63 32.28 189.63 33.84 185.64 33.84 185.64 36.17 188.69 36.17 188.54 37.8 185.64 37.8 185.64 40.22 189.63 40.22 189.63 41.75 183.81 41.75" style="fill:#4d4c4c"/><path d="M194.91,35.41a4.27,4.27,0,0,1-.17-1.26V32.08h1.82v9.67h-1.48l-.21-.76a2.23,2.23,0,0,1-1.82.9c-1.56,0-2.81-1.12-2.81-3.58,0-2.27,1.29-3.57,3-3.57a2.24,2.24,0,0,1,1.71.67m-.17,1a2.42,2.42,0,0,0-1.25-.34c-.87,0-1.41.59-1.41,2.19s.52,2.26,1.39,2.26a1.82,1.82,0,0,0,1.27-.59Z" style="fill:#4d4c4c"/><path d="M203,41.75l-.28-.84a2.69,2.69,0,0,1-2.14,1c-1.71,0-2.5-1-2.5-2.85V34.88h1.83v4.18c0,1,.37,1.43,1.2,1.43a2.2,2.2,0,0,0,1.23-.41v-5.2h1.87v6.87Z" style="fill:#4d4c4c"/><path d="M211.21,41.29a5.28,5.28,0,0,1-2.35.6c-2.05,0-3.28-1.16-3.28-3.58,0-2.24,1.23-3.57,3.26-3.57a4.63,4.63,0,0,1,2.36.56l-.48,1.25a3.35,3.35,0,0,0-1.72-.42c-.95,0-1.56.64-1.56,2.18S208,40.5,209,40.5a4,4,0,0,0,1.87-.52Z" style="fill:#4d4c4c"/><path d="M216.67,41.75l-.25-.81a2.49,2.49,0,0,1-2,1,2.13,2.13,0,0,1-2.3-2.2c0-1.28.94-2,2.59-2h1.45v-.35c0-.89-.51-1.17-1.21-1.17a5,5,0,0,0-2.06.46l-.46-1.3a7,7,0,0,1,2.71-.56c1.94,0,2.79.9,2.79,2.65v4.36Zm-.52-3H215c-.75,0-1.1.36-1.1.88a.91.91,0,0,0,1,1,2,2,0,0,0,1.22-.46Z" style="fill:#4d4c4c"/><path d="M225,41.29a5.32,5.32,0,0,1-2.35.6c-2,0-3.29-1.16-3.29-3.58,0-2.24,1.24-3.57,3.27-3.57a4.66,4.66,0,0,1,2.36.56l-.48,1.25a3.35,3.35,0,0,0-1.72-.42c-1,0-1.56.64-1.56,2.18s.57,2.19,1.57,2.19a4.08,4.08,0,0,0,1.87-.52Z" style="fill:#4d4c4c"/><path d="M226.76,41.75V36.2L226,36V34.88h2.62v6.87Zm0-9.67h1.85v1.66h-1.85Z" style="fill:#4d4c4c"/><path d="M236.42,38.3c0,2.34-1.18,3.59-3.22,3.59S230,40.66,230,38.3c0-2,1.12-3.56,3.23-3.56s3.22,1.54,3.22,3.56m-4.92-4.49-.18-1.05,3.54-1,.24,1.34Zm3,4.49c0-1.65-.49-2.23-1.34-2.23s-1.34.59-1.34,2.23.44,2.24,1.34,2.24,1.34-.6,1.34-2.24" style="fill:#4d4c4c"/><path d="M242.06,41.75V37.67c0-1-.4-1.53-1.24-1.53a2.22,2.22,0,0,0-1.2.42v5.19h-1.84V34.88H239l.28.78a2.87,2.87,0,0,1,2.18-.92c1.74,0,2.42,1,2.42,2.76v4.25Z" style="fill:#4d4c4c"/></svg>