<svg xmlns="http://www.w3.org/2000/svg" viewBox="0 0 500 160"><path d="M388.66,105a12,12,0,0,0-12-9.28c-.58,0-1.31.19-1.7-.08s-.52-1-.75-1.59q-3.33-8.19-6.67-16.38a2.08,2.08,0,0,0-.66-.84c-3.08-2.4-6.19-4.77-9.28-7.14L348,62.28c-.39-.3-.77-.62-1.27-1,1-.34,1.86-.61,2.71-.93q6.09-2.3,12.16-4.61a.75.75,0,0,1,1,.23,17.48,17.48,0,0,0,2.73,2.58A12,12,0,0,0,384,50.91a11.57,11.57,0,0,0-2.68-10.08,12,12,0,0,0-9-4.25,11.35,11.35,0,0,0-6.74,2A11.81,11.81,0,0,0,360.16,49a.92.92,0,0,1-.71,1.06c-4.58,1.69-9.15,3.42-13.73,5.13l-5.24,2c-1.06-3.1-2.09-6.09-3.1-9.09a.66.66,0,0,1,.18-.5,36.68,36.68,0,0,0,2.87-3.13,13.72,13.72,0,0,0,2.11-12.24A14.52,14.52,0,0,0,314,36a13.8,13.8,0,0,0,3.64,9.7A13.81,13.81,0,0,0,328,50.59c1.21,0,2.43-.08,3.74-.12,1,2.85,2,5.79,3,8.8l-18,6.75c-.76-.72-1.42-1.45-2.19-2a11.88,11.88,0,0,0-10.27-2.4A11.49,11.49,0,0,0,298,65.32a11.93,11.93,0,0,0-3,7.31,12.14,12.14,0,0,0,7.15,11.76,12.72,12.72,0,0,0,5.36,1,11.21,11.21,0,0,0,6.94-2.46A11.77,11.77,0,0,0,319,72.44c0-.63.15-.81.66-1q6.8-2.55,13.58-5.13c.2-.08.42-.12.73-.21v1q.08,11.66.14,23.31c0,6.09.1,12.18.14,18.27,0,1.91,0,3.82,0,5.73,0,.54.11,1.08.18,1.67,1.88-1.43,3.89-.77,5.9-.84Q340.2,89.66,340,64a3.55,3.55,0,0,1,1.09.6c3.61,2.79,7.22,5.6,10.84,8.38,3.34,2.56,6.69,5.09,10,7.65a2,2,0,0,1,.62.79c2.23,5.46,4.43,10.93,6.66,16.39a.54.54,0,0,1-.2.74,12,12,0,0,0-4.23,9.56,11.38,11.38,0,0,0,2.08,6.37,11.71,11.71,0,0,0,8.58,5.26A12.1,12.1,0,0,0,388.66,105Z" style="fill:#4d4c4c"/><path d="M189.46,103.44c-.7-1.25-1.26-2.55-2.69-3.18-.42-.19-1-.57-1.05-.92-.09-.73-.62-.85-1.05-1.14-.69-.45-1.4-.88-2.12-1.28a15.55,15.55,0,0,0-7.93-2.14c-1.24,0-2.49,0-3.73,0a5.7,5.7,0,0,0-1.43.15c-1.77.49-3.54,1-5.29,1.55a9.67,9.67,0,0,0-1.91.87,7.81,7.81,0,0,0-4,5.56,18.51,18.51,0,0,0-.54,3.92c0,1,0,2.08,0,3a5.83,5.83,0,0,0-1-.31c-.47-.07-1,0-1.42-.12s-.87-.33-1.27-.27a28,28,0,0,0-4.08.77,14.55,14.55,0,0,1-3.06.54c-2.21.17-4.41.5-6.62.73a60,60,0,0,1-10.38.18,24.27,24.27,0,0,1-4-.48,14.38,14.38,0,0,1-5.2-2c-.83-.6-1.79-1.13-1.56-2.42.2-1.12.49-2.23.61-3.36a3.87,3.87,0,0,1,1.52-2.83c.12-.09.13-.4.1-.59a1.19,1.19,0,0,1,.68-1.42,2.16,2.16,0,0,0,.7-.54c.75-.89,1.46-1.82,2.23-2.7a17.8,17.8,0,0,1,3.64-3.61,32.22,32.22,0,0,0,3.31-2.67,1.85,1.85,0,0,1,.34-.23c2.62-1.37,5.21-2.79,7.87-4.07a49.11,49.11,0,0,1,4.73-1.82c.82-.29,1.68-.45,2.52-.7a3.85,3.85,0,0,0,.66-.32l-.87-.37c.23-.39.47-.78.7-1.18l-.15-.1.55-.37c-.43-.57-1.16-.89-1.05-1.72.08-.65.16-1.3.25-2a15.4,15.4,0,0,1-1-1.62c-.19-.41-.4-.58-.83-.52-1,.14-2,.21-3,.42-1.17.25-2.31.62-3.46.93-1.8.49-3.64.91-5.05,2.29a1.28,1.28,0,0,1-.43.16,11.75,11.75,0,0,0-1.65.53c-.89.42-1.75.92-2.61,1.4a2.58,2.58,0,0,0-.9.6,4.16,4.16,0,0,1-1.95,1.65,11.87,11.87,0,0,0-2.15,1.44c-.28.19-.68.23-.91.46-1.82,1.84-3.69,3.64-5.4,5.59a32,32,0,0,0-5.74,9.25,16.49,16.49,0,0,0-1.35,6.68c.07,2.26.5,4.51.7,6.77a4.31,4.31,0,0,0,1.1,2.45,4.2,4.2,0,0,1,.76,1c.24.58.75.72,1.22,1a1.64,1.64,0,0,1,.72.73c.24.56.55.75,1.11.42.1.17.25.3.25.43,0,.55.3.75.77.87.19,0,.34.22.53.3a1.71,1.71,0,0,0,.5.1,6.33,6.33,0,0,1,.87,0c.55.12,1.1.28,1.64.44.21.07.41.16.62.25l0,.16h-1.4a24.8,24.8,0,0,0,3.21,1.2c.42.12,1-.12,1.3.1.68.61,1.39.44,2.14.4.36,0,.9,0,1,.15.46.64,1,.43,1.61.39.8,0,1.6-.07,2.4-.15a9.37,9.37,0,0,0,1.08-.21,3.08,3.08,0,0,0,.84.28c1.73,0,3.45,0,5.18,0,.49,0,.66-.22.57-.71l1.61.32,0-.18-.4-.19v-.15l3-.3v-.2c-.3,0-.61-.07-.91-.14-.48-.11-1-.26-1.43-.37-.05,0-.16.11-.22.2s-.16.31-.24.47l-2.06-.44a38.69,38.69,0,0,1,4-.84c1.32-.16,2.68,0,4-.08v-.25l-.91-.17.54-.85.62.17a1.42,1.42,0,0,1,.7-.41c.52.85,1.26.27,1.9.32l-.72-.69.63-.17c1.16-.32,2.34-.56,3.47-1s2-1,2.84-1.36l1.42-1.62c.1.18.13.22.13.26,0,.22.09.45.14.67a9.83,9.83,0,0,0,2.84,5.09c2.8,2.61,6.18,3.41,9.81,3.61a16.43,16.43,0,0,0,5.57-.77c2.14-.63,4.37-1,6.22-2.45,1-.73,2.06-1.29,3-2a19.71,19.71,0,0,0,1.92-1.74,15,15,0,0,0,3-4.56,4.12,4.12,0,0,0,.47-1.34A11.28,11.28,0,0,0,189.46,103.44Zm-5.58,5.42a10.15,10.15,0,0,1-3.89,2.65,55.84,55.84,0,0,1-5.25,2c-3.47,1.06-6.86,1.11-9.89-1.31a1.19,1.19,0,0,1-.41-1.73c.38-.75.76-1.51,1.22-2.23a5.25,5.25,0,0,1,.93-.87c-.09-.2-.16-.39-.25-.61.48-.34.45-.75.32-1.3-.22-.9-.19-1.55,1.08-1.73,1.95-.28,3.86-.85,5.81-1.09a32.3,32.3,0,0,1,4.72-.07,3.93,3.93,0,0,1,1.19.47c.18.08.39.22.55.18a2.78,2.78,0,0,1,2.56,1,11.37,11.37,0,0,1,1.51,1.86A2.06,2.06,0,0,1,183.88,108.86Z" style="fill:#4d4c4c"/><path d="M307.41,109.35a41.13,41.13,0,0,0-8.47-4.55,14.76,14.76,0,0,1-1.56-1l.09-.23a27.61,27.61,0,0,1,4-.44,24.44,24.44,0,0,1,7.28,1.28,1.69,1.69,0,0,0,1-.1c.84-.24,1-1,1.3-1.69a1.68,1.68,0,0,0-.26-2.25,12.46,12.46,0,0,0-6.94-3.83,28,28,0,0,0-6.48-.59,23.33,23.33,0,0,0-6.74.78,3.89,3.89,0,0,0-3,3.36,9.14,9.14,0,0,0,1.39,6,12.86,12.86,0,0,0,5.08,4.32c2,1.06,4.12,1.9,6.17,2.87a10.18,10.18,0,0,1,1.21.81,3,3,0,0,1-.73.34c-1.73.18-3.46.35-5.19.49s-3.57.27-5.35.44a11,11,0,0,0-2.21.41c-1,.32-1,.38-1.67-.51a1.21,1.21,0,0,0-1.08-.55c-2.62,0-5.23-.1-7.85-.21-1.08-.05-2.16-.26-3.24-.4l0-.19c.17-.14.34-.28.51-.4,1.67-1.22,3.35-2.42,5-3.65a1.89,1.89,0,0,0,.62-.7c.47-1.06,1.61-1.83,1.43-3.18.81-1,.56-2.24.62-3.37a7.91,7.91,0,0,0-.57-2.3c-.08-.31-.08-.7-.28-.89a8.82,8.82,0,0,0-1.32-.86c-.14-.23-.22-.59-.44-.7a8,8,0,0,0-4.38-1.16,23.19,23.19,0,0,0-7.65,1.77c-.56.25-1.07.76-1.64.83a6.81,6.81,0,0,0-4.05,2.41,18.1,18.1,0,0,0-4.13,6.61,6.91,6.91,0,0,0-.55,3.4,14.63,14.63,0,0,0,2.39,6,8.73,8.73,0,0,0,3,3,23.52,23.52,0,0,0,7.12,2.23,22.5,22.5,0,0,0,4.16.37c2.08-.11,4.14-.49,6.2-.78a1,1,0,0,0,.6-.41,2,2,0,0,1,1.32-1c1.56-.39,3.26-.5,4.3-2l-1.38-.8c.43-.15.78-.41,1-.32.56.19.69-.13.86-.5a7.08,7.08,0,0,1,.39-.63,11.17,11.17,0,0,1,0,1.32,2.45,2.45,0,0,0,1,2.36,9.62,9.62,0,0,0,4.21,1.3c2.25,0,4.42.65,6.68.61,1.73,0,3.47.43,5.17-.21,1.88-.7,3.76-1.42,5.62-2.19a2.77,2.77,0,0,0,1.67-2,6.24,6.24,0,0,0-.12-3.73A10.89,10.89,0,0,0,307.41,109.35ZM269,110c-.23.13-.48.25-.82.42-.53-1.25-1-2.4-1.49-3.58a.83.83,0,0,1,.22-.66,9.83,9.83,0,0,1,6.26-3.23c.94-.13,1.49.33,2.34.79a11.66,11.66,0,0,1-1.13,1.8A21,21,0,0,1,269,110Z" style="fill:#4d4c4c"/><path d="M256.56,113.73c.37-.66.25-1.2-.26-1.19a33.66,33.66,0,0,0-4.5.23,76.27,76.27,0,0,1-17.07.93l-2.13-.12c1.5-1.1,3-2,4.56-3a3.18,3.18,0,0,1,2.22-.71,15.58,15.58,0,0,0,2.94-.29c3-.25,5.89-1.21,8.92-.46a1.9,1.9,0,0,0,1.41-.49,1.81,1.81,0,0,1,1.41-.51,6.6,6.6,0,0,0,.79,0,20.86,20.86,0,0,0,.33-2.32c0-3.15.06-6.3.08-9.45s.05-6.25.07-9.37c0-2.83,0-5.66,0-8.49a3.38,3.38,0,0,0,0-.55,19.48,19.48,0,0,1-.43-2.38,5.74,5.74,0,0,0-1.8-4.23,1.87,1.87,0,0,0-2-.64,5.34,5.34,0,0,0-3.22,2.92,16.06,16.06,0,0,0-1.08,4.88c-.26,4.35-.32,8.72-.45,13.08-.1,3.19-.18,6.37-.3,9.56a.94.94,0,0,1-.46.72,10.21,10.21,0,0,1-1.66.36,90.83,90.83,0,0,0-11.29,2.45A37.92,37.92,0,0,0,222,109.38a5,5,0,0,0-2.31,3.11c-.1.54-.3,1.06-.37,1.6-.15,1.1-.51,2.24.18,3.28a22,22,0,0,0,1.64,2.2,4.2,4.2,0,0,0,1.32,1.05,26.36,26.36,0,0,0,9.27,2.36,23.94,23.94,0,0,0,3.77-.19,11.84,11.84,0,0,1,1.54-.16,34.68,34.68,0,0,0,6.91-.38c.88-.09,1.76-.27,2.64-.42a5.33,5.33,0,0,0,1.34-.29c2.53-1.23,5-2.5,7.56-3.76.16-.09.37-.17.45-.31a1.28,1.28,0,0,0,.22-.75,1.42,1.42,0,0,1,.47-1.49c.36-.29.7-.6,1.1-1-.31-.11-.51-.16-.7-.25A5.09,5.09,0,0,1,256.56,113.73Z" style="fill:#4d4c4c"/><path d="M157.06,83a3.75,3.75,0,0,0,2.15.45c2.28-.46,4.55-1,6.83-1.45,2.67-.54,5.34-1,8-1.57,1.3-.28,2.56-.72,3.64-1,.2.74.37,1.6.65,2.43a3.7,3.7,0,0,0,4.08,2.09c1.52-.54,3.21-.65,4.42-2.13a19.33,19.33,0,0,1,3.63-2.81c.92,1.44,1.71,3,3.84,3.26.44-.35,1.06-.86,1.67-1.37a5,5,0,0,0,.25,1.34c.5,1,1.55,1.06,2.46,1.2,1.44.22,2.92.24,4.37.39a9.46,9.46,0,0,0,5.59-1.56,1.26,1.26,0,0,0,.44-.59,3.62,3.62,0,0,0-1.07-4c-1.54-1.66-3.63-2.45-5.59-3.43-.31-.15-.6-.32-1-.53a9.48,9.48,0,0,1,5.95.27.94.94,0,0,0,1.23-.41c.21-.47.75-1,.15-1.66a7,7,0,0,0-3.91-2.15,15.08,15.08,0,0,0-6.75,0c-1.39.31-1.8.83-1.9,2.29a4.87,4.87,0,0,0,2.71,4.66c1.26.74,2.62,1.3,3.93,2,.25.13.48.3.71.45l-.05.22-7.62.75c-1-1.66-1.95-3.4-3-5.09a1.55,1.55,0,0,0-1-.73c-1,0-1.11-.8-1.36-1.39a1.42,1.42,0,0,0-1.18-.9,7.24,7.24,0,0,0-3.87.61A19,19,0,0,0,180.8,75c-.93.7-1.91,1.27-2.2,2.56-.45-.61-.8-1.2-1.58-1.23a28.68,28.68,0,0,0-4.23-.21c-3,.32-6,.85-9.06,1.27-.85.12-1.71.15-2.6.23a3.35,3.35,0,0,1,0-.49c.33-3.53.74-7.06,1-10.61.13-2,.64-4-.49-6-.44-.74-1.21-1.57-1.81-1.48a3.69,3.69,0,0,0-1.93,2c-.2,1.79-.36,3.59-.57,5.39-.5,4.49-1,9-1.54,13.47C155.65,81.19,155.52,82.37,157.06,83Zm31.49-6.8c-1.8,1.66-3.68,3-6.23,3C182.68,77.21,186.77,75.2,188.55,76.16Z" style="fill:#4d4c4c"/><path d="M217.16,123.67a14,14,0,0,0,1.08-3.46c.39-3.39.63-6.8.89-10.2a13.05,13.05,0,0,0,0-3.42,26.49,26.49,0,0,0-2.07-6.54,5.9,5.9,0,0,0-1.86-2.29c-1.38-1.05-2.68-.73-4-.11s-2.43,1.29-3.61,2a10,10,0,0,0-2.42,1.76,26,26,0,0,1-6.26,4.92c-.07-.31-.12-.56-.18-.8a7.25,7.25,0,0,0-.46-1.72c-.5-.92-.7-2.06-1.73-2.64a.52.52,0,0,1-.17-.29,1,1,0,0,0-1.21-.74c-.6.16-1.43.42-1.63.88a19.8,19.8,0,0,0-1.4,4.36c-.68,3.56-1.25,7.14-1.77,10.73a7.91,7.91,0,0,0,.75,4.52c1.06-.4,1.41-.2,1.65,1,.31,0,.64,0,1,0s.53-.16.76-.1a2.44,2.44,0,0,0,2.73-1.1,21.28,21.28,0,0,1,1.88-2.79c2.26-2.62,4.59-5.17,6.92-7.73a10.31,10.31,0,0,1,1.87-1.81,21,21,0,0,1,2.88-1.45c.72-.34,1-.19.93.62-.1,2.8-.21,5.59-.37,8.39-.11,2.1-.33,4.19.63,6.2a3.4,3.4,0,0,0,1.2,1.44c.51.35.84,1.11,1.68.73.07,0,.21,0,.31.1A1.48,1.48,0,0,0,217.16,123.67Z" style="fill:#4d4c4c"/><path d="M125.46,129.47l-2.8,6.17-2.83-6.38c-.59,3.05-1.15,5.89-1.71,8.77h1.23c.3-1.59.59-3.14.9-4.86l2.41,5.3L125,133.4l.14,0c.27,1.53.53,3.07.79,4.57h1.23c-.52-2.88-1-5.7-1.53-8.52Z" style="fill:#4d4c4c"/><path d="M294.11,129.7a4.29,4.29,0,1,0,4.35,4.29A4.3,4.3,0,0,0,294.11,129.7Zm-.15,7.39a3.11,3.11,0,0,1,.18-6.22,3.06,3.06,0,0,1,3,3.14A3,3,0,0,1,294,137.09Z" style="fill:#4d4c4c"/><path d="M265.37,129.71a4.28,4.28,0,0,0,0,8.56,4.28,4.28,0,1,0,0-8.56Zm-.11,7.36a3,3,0,0,1-2.88-3.07,3.07,3.07,0,1,1,6.13,0A3,3,0,0,1,265.26,137.07Z" style="fill:#4d4c4c"/><path d="M159.94,129.7a4.39,4.39,0,0,0-4.35,4.25,4.3,4.3,0,0,0,4.3,4.32c2.31,0,4.53-2.13,4.28-4.25C164.41,131.78,162.13,129.7,159.94,129.7Zm-.22,7.39a3.12,3.12,0,0,1-2.88-3.16,3.07,3.07,0,0,1,3.06-3.05,3.11,3.11,0,1,1-.18,6.21Z" style="fill:#4d4c4c"/><path d="M281.26,130.46c-1.38-.8-2.9-.59-4.43-.61v8.21c.91,0,1.73,0,2.55,0a4,4,0,0,0,3.68-2.81A4.19,4.19,0,0,0,281.26,130.46Zm.16,5.24c-.79,1.2-2,1.3-3.35,1.13v-5.78c1.43-.14,2.69.1,3.46,1.39A3,3,0,0,1,281.42,135.7Z" style="fill:#4d4c4c"/><path d="M174.5,134.48a2.4,2.4,0,0,0,1.32-2.75,2,2,0,0,0-1.75-1.69c-.91-.16-1.85-.18-2.81-.27v8.31h1.27v-3.31l.2-.09c.6.88,1.21,1.76,1.81,2.65s.74,1,2,.7c-.8-1.14-1.58-2.25-2.4-3.4C174.29,134.56,174.4,134.53,174.5,134.48Zm-1.94-.86V131c.71,0,1.48-.11,1.86.59a1.65,1.65,0,0,1,0,1.34C174.1,133.71,173.31,133.64,172.56,133.62Z" style="fill:#4d4c4c"/><path d="M219.75,134.48a2.29,2.29,0,0,0,1.42-2.49,2.13,2.13,0,0,0-1.85-2,24.05,24.05,0,0,0-2.73-.26v8.31h1.22v-3.35a1.22,1.22,0,0,1,.56.47,19.37,19.37,0,0,1,1.41,2.11c.45.92,1.15.87,2.05.76-.84-1.18-1.62-2.29-2.43-3.45Zm-1.91-.87v-2.56c1.4-.09,2.07.3,2.09,1.2C219.94,133.3,219.35,133.69,217.84,133.61Z" style="fill:#4d4c4c"/><path d="M227.71,138.06c.57-.13,1.26.36,1.47-.41a2.07,2.07,0,0,1,2.7-1.6.94.94,0,0,0,.41,0c.9-.18,1.35.22,1.65,1.07.38,1.09.48,1.09,1.69.83l-3.87-8.61C230.39,132.3,229.07,135.13,227.71,138.06Zm5.17-3.21h-2.39l1.28-2.71C232.19,133.16,232.53,134,232.88,134.85Z" style="fill:#4d4c4c"/><path d="M202.05,138c1.36.06,1.36.06,1.86-1.07a2.54,2.54,0,0,0,.16-.38.7.7,0,0,1,.82-.53,8.92,8.92,0,0,0,1.79,0c.89-.12,1.31.25,1.61,1.06.39,1.06.45,1,1.68.89l-3.88-8.65C204.72,132.3,203.4,135.14,202.05,138Zm2.78-3.18c.4-.87.79-1.71,1.26-2.7l1.2,2.7Z" style="fill:#4d4c4c"/><path d="M135.64,134.11h3.09v-1.18h-3.09V131h3.22v-1.11h-4.45V138h4.47v-1.16h-3.24Z" style="fill:#4d4c4c"/><path d="M308.76,133.34a13.9,13.9,0,0,1-1.61-.76.81.81,0,0,1-.06-1.42c.63-.52,1.29-.38,2.16.47l.87-.58a2.51,2.51,0,0,0-2-1.33,2.43,2.43,0,0,0-2.54,1.57,2,2,0,0,0,1.14,2.48c.51.29,1.09.47,1.62.74a1.37,1.37,0,0,1,.71,1.68,1.3,1.3,0,0,1-1.33.89c-.68,0-1.08-.33-1.27-1.08,0-.14-.08-.29-.13-.46a7.6,7.6,0,0,1-.79.17.39.39,0,0,0-.36.58,2.54,2.54,0,0,0,1.63,1.81,2.63,2.63,0,0,0,2.59-.38A2.54,2.54,0,0,0,308.76,133.34Z" style="fill:#4d4c4c"/><path d="M194.57,129.91c-.76,0-1.51,0-2.32,0v8.16h1.18v-3.33h.87a2.48,2.48,0,0,0,2.52-2.23A2.41,2.41,0,0,0,194.57,129.91Zm.84,3.05c-.4.72-1.17.66-1.95.57V131c.77-.07,1.55-.07,2,.65A1.53,1.53,0,0,1,195.41,133Z" style="fill:#4d4c4c"/><path d="M250.2,131h1.91v7h1.25v-7h1.8v-1.11h-5Z" style="fill:#4d4c4c"/><path d="M147.26,129.88c0,1.89,0,3.72,0,5.56a3.87,3.87,0,0,1-.12.95A.81.81,0,0,1,146,137a6,6,0,0,1-.6-.2l-.5,1c1.71,1,3.45.24,3.57-1.58.12-2.11,0-4.22,0-6.37Z" style="fill:#4d4c4c"/></svg>