<svg xmlns="http://www.w3.org/2000/svg" viewBox="0 0 500 160"><path d="M63,48.92c-.21-2.35,1.4-3.61,3-4.66a30.53,30.53,0,0,1,12.31-4.21c5.66-.83,10.51,1.28,15.14,4.15a28.75,28.75,0,0,0,7.67,3.8c5.41,1.45,10.44.4,15.27-2.19,2.19-1.17,4.07-2.86,6.42-3.74a35.53,35.53,0,0,1,10.19-2.44c5.1-.32,9.52,1.58,13.72,4.2a35,35,0,0,0,8.48,4.23,11.18,11.18,0,0,0,7,.14,69.35,69.35,0,0,0,13.43-5.62,28,28,0,0,1,6.17-2.8c1.88-.57,3.62.62,4.83,2.35,1,1.38.78,3-.29,4.52s-2.87,2.51-4.51,3.42a82.22,82.22,0,0,1-12.28,5.75A23.4,23.4,0,0,1,164.29,57c-1,.11-1.06.38-.74,1.27,3.14,8.69,6.23,17.4,9.33,26.1,1.11,3.13,2.17,6.27,3.32,9.39a9.45,9.45,0,0,1,.88,2.54,4.77,4.77,0,0,1-3.84,5.34c-1.87.44-4.46-1.11-5.26-3.27-2.22-6-4.39-12-6.58-18.07-.29-.78-.62-1.55-.94-2.31a3.68,3.68,0,0,0-2.2-2c-2.66-1-4.75,0-5.84,2.93-1,2.72-1.94,5.47-2.91,8.21-1.36,3.84-2.71,7.68-4.11,11.5a4.78,4.78,0,0,1-4.43,3.11,4.89,4.89,0,0,1-4.42-3.33q-3.42-9.53-6.87-19c-.58-1.6-1.4-3-3.25-3.48-2.41-.6-4,0-5,2.26-1.28,2.81-2.18,5.78-3.19,8.7-1.4,4-2.81,8-4.28,12a4.61,4.61,0,0,1-8.71-.3c-1.39-3.79-2.71-7.6-4.1-11.38-1-2.83-2.17-5.63-3.18-8.46a4.48,4.48,0,0,0-4.34-3c-1.93-.12-3,1.08-3.76,2.71-1.28,2.87-2.14,5.88-3.2,8.82-1.37,3.79-2.72,7.59-4.08,11.39a4.81,4.81,0,0,1-5.82,3,4.64,4.64,0,0,1-2.86-5.78C75.19,91.92,76.62,88,78,84q3.3-9.39,6.6-18.78c1.54-4.37,3.12-8.73,4.66-13.1.46-1.28.32-1.52-1-2A19.38,19.38,0,0,0,75.87,50c-2.25.71-4.3,1.84-6.45,2.75a4.55,4.55,0,0,1-6.06-1.88A4,4,0,0,1,63,48.92Zm72.13-.09a27.11,27.11,0,0,0-5.12.74c-.79.16-1,.57-.73,1.39,3.88,10.25,7.41,20.63,11.14,30.94.12.34.12.85.59.84s.34-.53.52-.8a2.17,2.17,0,0,0,.17-.42q4.54-12.9,9.11-25.79c.26-.74,0-1-.6-1.27a22.23,22.23,0,0,1-3.8-2A22.54,22.54,0,0,0,135.15,48.83ZM109.68,83a1.76,1.76,0,0,0,.48-1q2.4-6.84,4.81-13.67c1.48-4.18,3-8.36,4.47-12.54.1-.27.34-.57,0-.83s-.43,0-.64.09a29.38,29.38,0,0,1-5.26,1.71,20.15,20.15,0,0,1-11.91.11c-.47-.16-1-.72-1.44-.24s.07,1,.24,1.47q2.83,8,5.7,16c1,2.66,1.87,5.33,2.82,8C109.11,82.46,109.19,82.86,109.68,83Z" style="fill:#4d4c4c"/><path d="M191.7,50.85q0-8,0-16c0-2.88,1.19-4.14,4-4.11,4.6,0,9.2-.21,13.8.22,6.33.58,10.25,4.57,10.66,11a19.76,19.76,0,0,1-.66,7.5,10.21,10.21,0,0,1-7.77,7.16,25.64,25.64,0,0,1-6.17.66c-1.13,0-2.26,0-3.39,0-.9,0-1.28.3-1.27,1.25,0,2.83,0,5.66,0,8.49,0,3.09-1.17,4.23-4.24,4.28-.34,0-.68,0-1,0-2.76-.1-4-1.33-4-4.12s0-5.44,0-8.15ZM201,44c0,1.51,0,3,0,4.52,0,.72.3,1,1,1,1.47,0,2.94,0,4.41-.08a4.08,4.08,0,0,0,3.83-2.38,8,8,0,0,0,.08-6,3.69,3.69,0,0,0-2.44-2.19c-2-.7-4.11-.38-6.18-.42-.67,0-.72.54-.72,1.06C201,41,201,42.49,201,44Z" style="fill:#4d4c4c"/><path d="M360,56.13a19,19,0,0,1-1.4,7.21c-2.4,5.41-6.73,7.82-12.37,8.29a23.65,23.65,0,0,1-6.76-.46c-5.23-1.06-8.33-4.43-9.73-9.35a21.68,21.68,0,0,1,0-12.21c1.7-5.72,5.56-9.18,11.6-10a25.69,25.69,0,0,1,7.78.16c5.87,1,9.57,5.46,10.6,11.23A29.52,29.52,0,0,1,360,56.13Zm-9.56-1c-.06-.89-.07-2.1-.24-3.29a7.53,7.53,0,0,0-1.38-4c-1.36-1.64-3.24-1.78-5.17-1.63A4.37,4.37,0,0,0,339.21,50a24.75,24.75,0,0,0,0,11c.55,2.46,2,3.62,4.58,3.73a13.88,13.88,0,0,0,1.58,0,4.47,4.47,0,0,0,4.44-3.65A24.92,24.92,0,0,0,350.44,55.15Z" style="fill:#4d4c4c"/><path d="M409.72,55.56c0-3.93,0-7.85,0-11.78,0-2.79,1.22-4,4-4s3.29.31,4.08,2.74c.08.27,0,.67.38.77s.54-.34.74-.57c3.34-3.73,10.37-4.39,14.31-1.38a8.48,8.48,0,0,1,2.69,4A13.32,13.32,0,0,1,437,50q0,8.77,0,17.55a4.32,4.32,0,0,1-.6,2c-.9,1.76-3.71,2-6.09,1.49-1.67-.34-2.43-1.52-2.43-3.59,0-5.17,0-10.34,0-15.51a8.63,8.63,0,0,0-.32-2.57,4.2,4.2,0,0,0-6.2-2.53,4.76,4.76,0,0,0-2.68,4.49c.07,5.25,0,10.49,0,15.74,0,3-1.05,4.06-4.08,4.15a10.43,10.43,0,0,1-1.25,0c-2.46-.14-3.57-1.25-3.6-3.71,0-4,0-8,0-12Z" style="fill:#4d4c4c"/><path d="M310.94,57c.14,3.57-.24,7.16.42,10.73.33,1.79-.57,2.88-2.38,3.2a18.52,18.52,0,0,1-3.15.27,2.81,2.81,0,0,1-3.09-2c-.23-.76-.66-.53-1.1-.19-3.25,2.51-6.95,2.76-10.77,2a7.42,7.42,0,0,1-6.09-6.37c-.64-3.66.25-6.82,3.47-9,2.59-1.79,5.61-2.34,8.59-3,1.22-.27,2.44-.51,3.67-.72.79-.13,1-.54,1.05-1.31,0-2.48-.77-3.55-3.19-4a12.8,12.8,0,0,0-6.38.38c-.68.21-1.37.42-2.07.57a2.41,2.41,0,0,1-3.1-1.73,7.78,7.78,0,0,1-.35-1.19c-.4-1.88.14-3,2-3.63a30.47,30.47,0,0,1,12-1.33A15.37,15.37,0,0,1,306.3,41a7.72,7.72,0,0,1,4.46,6.37C311.17,50.55,310.84,53.76,310.94,57Zm-9.39,3.63c0-.72,0-1.44,0-2.15s-.27-.86-.9-.73c-1.47.33-2.95.61-4.41,1a4.78,4.78,0,0,0-2.16,1.18,3,3,0,0,0,.82,4.86,5.72,5.72,0,0,0,4.19,0c2.28-.74,2.46-1,2.46-3.32Z" style="fill:#4d4c4c"/><path d="M253.58,55.51c0-3.93,0-7.85,0-11.78,0-1.44.25-2.8,1.67-3.46a6.12,6.12,0,0,1,5.06-.06,2.89,2.89,0,0,1,1.34,2.14c.08.32,0,.77.39.88s.62-.35.86-.6a11.7,11.7,0,0,1,13-2.07c3.16,1.7,4.3,4.65,4.59,8,.33,3.76.09,7.54.13,11.32q0,3.8,0,7.59c0,2.61-1.1,3.7-3.71,3.83h-.46c-3.75.06-4.74-.9-4.74-4.62q0-7,0-13.93a15.17,15.17,0,0,0-.23-2.93,4.22,4.22,0,0,0-6.62-2.71,4.92,4.92,0,0,0-2.39,4.44c.09,5.18,0,10.35,0,15.52,0,3.15-1.07,4.2-4.23,4.23-.34,0-.69,0-1,0-2.56-.14-3.64-1.21-3.66-3.76C253.56,63.51,253.59,59.51,253.58,55.51Z" style="fill:#4d4c4c"/><path d="M395.34,58.09c-2.22,0-4.45,0-6.68,0-1.1,0-1.35.42-1.31,1.41.12,3.69,1.82,5.41,5.53,5.62a13.52,13.52,0,0,0,5.87-1,15.08,15.08,0,0,1,1.71-.6,2.13,2.13,0,0,1,1.86.15,4.53,4.53,0,0,1,1.88,3.58c.09,1.31-.82,2.06-1.84,2.62a16.56,16.56,0,0,1-4.47,1.59,20.53,20.53,0,0,1-11.18-.41,11.61,11.61,0,0,1-7.52-8.13,23.29,23.29,0,0,1-.53-11.86c1.53-7.29,6.63-11.15,13.27-11.41a14.18,14.18,0,0,1,7.17,1.22,10.12,10.12,0,0,1,5.12,6.33,22.39,22.39,0,0,1,.77,8.19,2.52,2.52,0,0,1-2.85,2.67c-2.26,0-4.53,0-6.8,0ZM392.27,52h3.62c.38,0,.75,0,.94-.45.49-1.24-.36-4-1.56-4.69A5.51,5.51,0,0,0,390,46.7c-1.79.84-2.3,2.49-2.43,4.31-.05.66.23,1,.92,1C389.77,52,391,52,392.27,52Z" style="fill:#4d4c4c"/><path d="M239.67,58.09c-2.23,0-4.46,0-6.68,0-1.26,0-1.43.19-1.37,1.47.16,3.71,1.75,5.29,5.47,5.53a13.85,13.85,0,0,0,6-1c.53-.2,1.06-.41,1.6-.57a2.2,2.2,0,0,1,2,.2,4.53,4.53,0,0,1,1.78,3.64A2.84,2.84,0,0,1,246.5,70a19.11,19.11,0,0,1-6.61,1.91,20.77,20.77,0,0,1-8.3-.58,11.31,11.31,0,0,1-7.88-7.5A23.24,23.24,0,0,1,223.5,49a13.11,13.11,0,0,1,11.83-9.25,14.77,14.77,0,0,1,8,1.14c3.29,1.65,4.82,4.53,5.59,7.94a24.34,24.34,0,0,1,.4,6.54,2.64,2.64,0,0,1-2.94,2.74c-2.22,0-4.45,0-6.68,0ZM236.48,52h3.62c.46,0,.9,0,1.07-.59a4.77,4.77,0,0,0-1.95-4.75,5,5,0,0,0-7.41,4.26c0,.78.26,1.11,1,1.09C234.06,52,235.27,52,236.48,52Z" style="fill:#4d4c4c"/><path d="M329.32,119.51c-.65,1.63-1.31,3.25-2,4.87-.54,1.37-1.05,2.74-1.62,4.1s-1.4,1.75-3.34,1.63c-1.26-.08-1.79-.77-2.1-2-.68-2.66-1.4-5.31-2-8a1.22,1.22,0,0,0-.59-1,27.38,27.38,0,0,0-.52,4.9c-.2,2.29-.31,4.59-.48,6.88a2.29,2.29,0,0,1-1.79,2.2,6.17,6.17,0,0,1-2.8.09,1.9,1.9,0,0,1-1.72-2.27c.12-3.16.31-6.33.51-9.49.18-3,.4-6,.62-9a15.06,15.06,0,0,1,.25-2,2.39,2.39,0,0,1,2.39-2c1.39,0,2.79,0,4.19,0,1.84,0,2.56.62,3,2.42.66,2.63,1.3,5.27,2,7.89.09.34,0,.92.43,1s.53-.56.67-.92c1-2.52,2-5.06,3-7.59.92-2.35,1.53-2.77,4-2.77,1,0,2,0,3.06,0a2.21,2.21,0,0,1,2.37,2.55c-.21,3.8-.51,7.59-.77,11.39-.19,2.67-.39,5.34-.58,8-.08,1.09-.24,2.2-1.41,2.62a4.62,4.62,0,0,1-4.25-.21c-1-.64-.86-1.73-.79-2.78.23-3.23.42-6.47.61-9.71C329.7,120,329.79,119.73,329.32,119.51Z" style="fill:#4d4c4c"/><path d="M315.7,48.92V30.8c0-3.09,1-4.14,4.14-4.2,3.8-.08,4.78.87,4.78,4.67q0,17.65,0,35.33c0,3.77-1,4.74-4.79,4.68-3,0-4.12-1.16-4.12-4.13Q315.7,58,315.7,48.92Z" style="fill:#4d4c4c"/><path d="M365,48.71V31.27c0-4,1.15-5.12,5.17-4.87,2.62.16,3.69,1.23,3.7,3.85,0,6.57,0,13.14,0,19.71,0,5.63,0,11.25,0,16.88,0,3.21-1.07,4.26-4.29,4.3-.3,0-.6,0-.91,0C366,71,365,69.93,365,67.28,365,61.09,365,54.9,365,48.71Z" style="fill:#4d4c4c"/><path d="M297.53,108.42a31.41,31.41,0,0,1,5.18.23,5.24,5.24,0,0,1,4.15,3.45c1.27,3.63,1.2,7.29-1.49,10.19-1.39,1.49-1.28,2.42-.42,3.89s1.4,2.84,2.06,4.28c.77,1.67,0,2.67-1.83,2.87-2.8.3-4.76-.47-5.59-3.4a35.86,35.86,0,0,0-1.62-3.86c-.27-.64-.52-1.3-1.42-1.15s-.64.88-.69,1.44c-.14,1.57-.24,3.15-.4,4.72a2.31,2.31,0,0,1-1.95,2.08,6.43,6.43,0,0,1-2.69.06,2,2,0,0,1-1.94-2.36c.22-3.91.51-7.82.78-11.73.18-2.59.4-5.17.55-7.77.13-2.13.89-2.92,3-2.94C294.55,108.41,295.87,108.42,297.53,108.42Zm-1.13,9.28c.12.53-.31,1.23.33,1.64.95.61,3.18-.1,3.7-1.13,1.23-2.45,0-4.38-2.67-4.36-.76,0-1.12.26-1.15,1C296.56,115.8,296.47,116.74,296.4,117.7Z" style="fill:#4d4c4c"/><path d="M266.21,122.63a19.42,19.42,0,0,1,1.74-9c2.17-4.37,6-6.08,10.76-5.5A7.87,7.87,0,0,1,284,110.5a9.16,9.16,0,0,1,2.17,5.12c.5,4.33.39,8.58-1.6,12.6-2.78,5.62-9.47,7-14.45,4.19-2.34-1.29-3.3-3.64-3.7-6.2A17.59,17.59,0,0,1,266.21,122.63Zm13.31-3.22c0-1,.07-2,0-2.93-.16-2.07-1.26-3.13-3-3a2.7,2.7,0,0,0-2.51,2.24,23.66,23.66,0,0,0-.75,9.83,2.57,2.57,0,0,0,2.22,2.6A2.72,2.72,0,0,0,278.7,126,18.53,18.53,0,0,0,279.52,119.41Z" style="fill:#4d4c4c"/><path d="M348.68,133.74a9.81,9.81,0,0,1-6-1.38c-2.66-1.72-3.14-4.47-3-7.36.13-2.71.38-5.41.59-8.11.15-2.07.29-4.14.49-6.2a2.38,2.38,0,0,1,2.37-2.28c.53,0,1.06,0,1.59,0,2.15,0,2.84,1,2.68,3.2q-.53,6.89-.81,13.77c-.1,2.19,1.44,3.21,3.51,2.5a2.55,2.55,0,0,0,1.72-2.43c.25-2.66.45-5.33.66-8,.17-2.22.3-4.44.48-6.65a2.41,2.41,0,0,1,2.42-2.37c.52,0,1,0,1.58,0,2.09,0,2.88.77,2.71,2.84-.42,5.14-.41,10.31-1.25,15.42-.78,4.78-3.66,6.57-8.07,7.08A16.05,16.05,0,0,1,348.68,133.74Z" style="fill:#4d4c4c"/><path d="M370.72,108.42a33.6,33.6,0,0,1,5.08.21,6,6,0,0,1,5,5.26,14.1,14.1,0,0,1-.31,5.6,7.2,7.2,0,0,1-6.6,5.43,30.07,30.07,0,0,1-3.29,0c-.95,0-1.27.41-1.31,1.27-.06,1.4-.16,2.79-.26,4.18a2.55,2.55,0,0,1-1.65,2.59c-1.46.45-3,.66-4.33-.34a2.17,2.17,0,0,1-.79-2c.26-3.72.51-7.44.77-11.16.19-2.71.42-5.41.58-8.11.13-2.09,1-2.93,3-3C367.89,108.41,369.14,108.42,370.72,108.42ZM369.8,118c.12.37-.26,1,.31,1.35.75.5,3.07,0,3.5-.84a4.15,4.15,0,0,0,.14-3.71c-.55-1.16-1.78-.9-2.82-1-.61,0-.88.27-.91.88C370,115.81,369.88,116.86,369.8,118Z" style="fill:#4d4c4c"/><path d="M255.05,122.44a13.38,13.38,0,0,0,.28,3.44,2.8,2.8,0,0,0,3.16,2.15,10.68,10.68,0,0,0,2.43-.48c1.61-.51,2.55,0,3.2,1.73.59,1.55.19,2.74-1.27,3.39a10.26,10.26,0,0,1-3.11,1,15.11,15.11,0,0,1-5.05-.25c-3.69-.85-5.59-3.27-6.21-6.79a21.69,21.69,0,0,1,.89-11.91c2.17-5.59,6.44-7.1,11.86-6.65a11.1,11.1,0,0,1,2.2.49,2,2,0,0,1,1.21.8c.8,1.26.2,2.42-.4,3.51a2.09,2.09,0,0,1-2.48,1.12l-.44-.12c-3.66-.75-5.06.17-5.9,3.81A22.91,22.91,0,0,0,255.05,122.44Z" style="fill:#4d4c4c"/><path d="M400.14,85.45c0,3.43,0,6.87,0,10.3,0,.91-.05,1.83-1.11,2.1s-1.87.24-2.33-.95c-.25-.64-.7-.18-1,0a6.65,6.65,0,0,1-6.06.69,5,5,0,0,1-3.13-2.77,13.52,13.52,0,0,1,0-11.3,5.94,5.94,0,0,1,5.55-3.48,13.53,13.53,0,0,1,3.05.11c.87.17,1.14-.16,1.11-1-.05-1.36,0-2.72,0-4.08,0-1.86.44-2.4,1.92-2.4s2,.56,2,2.46Zm-3.89,3V85.43c0-2.11-.21-2.34-2.36-2.49-.26,0-.53,0-.79,0-2.15,0-3.18.86-3.61,3a15.6,15.6,0,0,0-.06,5.74c.53,3.09,3.46,4.29,6,2.44a1.7,1.7,0,0,0,.81-1.52C396.23,91.2,396.25,89.84,396.25,88.49Z" style="fill:#4d4c4c"/><path d="M280.26,91.19c0-3.21,0-6.41,0-9.62,0-.93.1-1.79,1.19-2s1.88-.18,2.3,1c.21.61.55.27.86,0a5.5,5.5,0,0,1,3.2-1.28c3.93-.16,6.37,1.79,7,5.68a13.91,13.91,0,0,1-.43,7.38c-1.45,3.71-4.64,5.33-8.94,4.5-1.13-.22-1.42,0-1.35,1.13a27.93,27.93,0,0,1,0,3.17c-.05,1.3-.63,1.82-1.93,1.82s-1.9-.52-1.92-1.83C280.25,97.84,280.26,94.51,280.26,91.19Zm3.85-2.59c0,1.25,0,2.49,0,3.74a1.37,1.37,0,0,0,.66,1.33,4,4,0,0,0,6.1-2.59,15,15,0,0,0,0-5.74A3.51,3.51,0,0,0,285.3,83a2.24,2.24,0,0,0-1.2,2.14C284.15,86.26,284.11,87.43,284.11,88.6Z" style="fill:#4d4c4c"/><path d="M195.83,86.17a13,13,0,0,0,1,5.74,4.36,4.36,0,0,0,3.8,2.61,9.82,9.82,0,0,0,4.76-.73,1.61,1.61,0,1,1,1.4,2.89,11.2,11.2,0,0,1-10.76.06,7.1,7.1,0,0,1-3.42-4.48A20,20,0,0,1,192.4,81c1.48-5.6,6.68-7.18,10.92-6.52a11.06,11.06,0,0,1,2.9.94,1.39,1.39,0,0,1,.78,2c-.37.89-.87,1.51-2,1.15a11.62,11.62,0,0,0-3.3-.74c-3.26,0-5.18,1.58-5.66,4.81A19.43,19.43,0,0,0,195.83,86.17Z" style="fill:#4d4c4c"/><path d="M366.94,89a10.37,10.37,0,0,1,1.39-5.86c2-3.1,5-3.44,8.29-2.94,2.91.44,4.41,2.42,5.15,5.07a13.49,13.49,0,0,1,0,7.16,7.5,7.5,0,0,1-9.49,5.4,6.67,6.67,0,0,1-5.13-5.68A14.46,14.46,0,0,1,366.94,89Zm3.72-.24a11.23,11.23,0,0,0,.66,4.27c.66,1.46,1.65,2,3.61,1.88a2.75,2.75,0,0,0,2.91-2.18,13.88,13.88,0,0,0,.12-7A3.08,3.08,0,0,0,374.58,83a3.29,3.29,0,0,0-3.53,2.69A9.39,9.39,0,0,0,370.66,88.75Z" style="fill:#4d4c4c"/><path d="M404.63,89c.06-2.66.48-5.26,2.49-7.17a7.49,7.49,0,0,1,12.44,3.77,14.4,14.4,0,0,1-.16,7.17c-1.27,4.67-5.67,5.82-9.4,5-3.4-.77-4.88-3.3-5.36-7.61A10.67,10.67,0,0,1,404.63,89Zm11.45.18a15.52,15.52,0,0,0-.32-3.6A3.28,3.28,0,0,0,412.4,83a3.12,3.12,0,0,0-3.52,2.5,14.06,14.06,0,0,0,0,6.94c.45,1.79,1.42,2.46,3.4,2.45s3-.78,3.48-2.54A14,14,0,0,0,416.08,89.22Z" style="fill:#4d4c4c"/><path d="M343.74,89.54a53,53,0,0,0,.25,6.62,1.23,1.23,0,0,1-.92,1.58c-.86.25-1.77.43-2.35-.46-.44-.67-.73-.68-1.41-.28a6.51,6.51,0,0,1-6.28.48c-2.68-1.28-3.23-5.66-1-7.63a6.55,6.55,0,0,1,2.76-1.5c1.06-.26,2.13-.48,3.19-.75.85-.22,2,0,1.93-1.51-.06-1.82-.55-2.6-2-2.92a7.3,7.3,0,0,0-4.2.51,1.42,1.42,0,0,1-2.13-1.23,1.3,1.3,0,0,1,.85-1.54,12.43,12.43,0,0,1,8.2-.45c2.11.63,3,2.32,3.12,4.4C343.82,86.55,343.74,88.25,343.74,89.54Zm-3.84,2.65c0-.62,0-1.11,0-1.6,0-.32-.12-.67-.51-.58-1.5.33-3.08.45-4.37,1.39a2.11,2.11,0,0,0-.66,2.25A1.68,1.68,0,0,0,335.74,95a4.38,4.38,0,0,0,3.64-.74C340.25,93.69,339.78,92.79,339.9,92.19Z" style="fill:#4d4c4c"/><path d="M312.22,89.91a41.58,41.58,0,0,0,.26,6.21,1.21,1.21,0,0,1-.79,1.55c-.89.32-1.89.57-2.48-.32s-1-.61-1.64-.24a6.6,6.6,0,0,1-5.24.7,4.11,4.11,0,0,1-3.14-3.61A4.68,4.68,0,0,1,301,89.48a7.28,7.28,0,0,1,3-1.32c.91-.21,1.84-.38,2.76-.6.73-.18,1.65-.11,1.73-1.24.11-1.6-.42-2.64-1.62-3a6.88,6.88,0,0,0-4.64.37c-1.32.5-2.23-.28-2.09-1.69a1.27,1.27,0,0,1,.95-1.14,12.65,12.65,0,0,1,7.78-.47c2.23.58,3.29,2.23,3.4,5C312.27,86.89,312.22,88.4,312.22,89.91Zm-3.8,2.21c0-.58,0-1,0-1.48s-.17-.71-.61-.62a12.15,12.15,0,0,0-4.09,1.21,2.11,2.11,0,0,0-.88,2.38A1.74,1.74,0,0,0,304.4,95a4.47,4.47,0,0,0,3.52-.84C308.78,93.63,308.29,92.73,308.42,92.12Z" style="fill:#4d4c4c"/><path d="M232.19,89.76c-1.21,0-2.42,0-3.62,0-.83,0-1,.32-1,1.08.23,3.26,2.35,4.75,5.66,3.89a13.22,13.22,0,0,0,1.89-.74c.78-.34,1.46-.34,1.93.51a1.44,1.44,0,0,1-.53,2.05,7.78,7.78,0,0,1-12.42-4.22,12.11,12.11,0,0,1,.87-8.81A7.43,7.43,0,0,1,235.13,81a5.67,5.67,0,0,1,2.17,3.59,13.25,13.25,0,0,1,.23,3.72,1.39,1.39,0,0,1-1.61,1.47C234.68,89.75,233.43,89.76,232.19,89.76Zm-1.35-2.82h2.38c.47,0,.83-.13.83-.68,0-2-.54-3.48-3.07-3.38a3.34,3.34,0,0,0-3.25,3.28c0,.53.22.78.73.78Z" style="fill:#4d4c4c"/><path d="M265.31,89.76c-1.28,0-2.57,0-3.85,0-.71,0-.89.27-.88.93,0,3.22,2.18,4.81,5.54,4.09a11,11,0,0,0,2.21-.85,1.23,1.23,0,0,1,1.76.49,1.36,1.36,0,0,1-.28,1.93c-3.17,2.44-10.65,3-12.39-3.08a13.81,13.81,0,0,1,.18-8.89c1.69-4.49,8.32-6,11.34-2.66,1.83,2,1.77,4.57,1.55,7.07-.06.73-.72,1-1.44,1C267.8,89.75,266.56,89.76,265.31,89.76Zm-1.43-2.82h2.36c.4,0,.74-.06.86-.54a3,3,0,0,0-2-3.46,3.54,3.54,0,0,0-4.35,2.89c-.14.73,0,1.17.88,1.12S263.12,86.94,263.88,86.94Z" style="fill:#4d4c4c"/><path d="M156.25,39.56c-3.37.48-6.67-3.13-6.49-6.56a6.55,6.55,0,0,1,13.09.19C162.94,36.35,159.79,40,156.25,39.56Z" style="fill:#4d4c4c"/><path d="M125,39.53c-3.37.51-6.56-3.18-6.55-6.41s2.93-6.59,6.47-6.48a6.42,6.42,0,0,1,6.56,6.45C131.56,36.54,128.36,39.94,125,39.53Z" style="fill:#4d4c4c"/><path d="M93.85,39.51c-3.32.48-6.5-3.08-6.49-6.43a6.86,6.86,0,0,1,6.47-6.45,6.77,6.77,0,0,1,6.53,6.65C100.33,36.47,96.94,40,93.85,39.51Z" style="fill:#4d4c4c"/><path d="M428.43,98.06a12.57,12.57,0,0,1-4-.73c-1.19-.39-1.56-1-1.27-2s.83-1.25,2.05-.94A12.73,12.73,0,0,0,429,95c1.44-.08,2.21-.62,2.35-1.65S431,91.5,429.62,91a21.34,21.34,0,0,1-4-1.64,4.56,4.56,0,0,1-2.43-4.71,4.82,4.82,0,0,1,3.69-4.38,11.24,11.24,0,0,1,6,.23,1.38,1.38,0,0,1,1.09,2c-.3,1-.82,1.28-2,1a6.94,6.94,0,0,0-3.55-.4c-.82.2-1.5.53-1.6,1.5a1.81,1.81,0,0,0,1.17,2.08c1.08.44,2.14.93,3.24,1.32,3,1.09,4.13,2.65,3.81,5.56-.27,2.41-2.19,4.13-5,4.44C429.56,98,429,98,428.43,98.06Z" style="fill:#4d4c4c"/><path d="M355.45,89.14c0-1.58,0-3.17,0-4.75,0-.73-.13-1.16-1-1.15a1.13,1.13,0,0,1-1.19-1.12c-.09-.71,0-1.6.74-1.7,1.74-.22,1.85-1.52,2.15-2.75A1.68,1.68,0,0,1,358,76.2a1.22,1.22,0,0,1,1.33,1.24,1.64,1.64,0,0,0,0,.22c.12.84-.42,1.92.3,2.47s1.69.13,2.55.15c1.33,0,1.79.42,1.78,1.5a1.29,1.29,0,0,1-1.36,1.46c-.79,0-1.58,0-2.37,0s-.95.24-.94.93c0,2.95,0,5.89,0,8.84,0,1.54,1.07,2.23,2.55,1.69.84-.32,1.6-.65,2.07.46.4,1,0,1.7-1.13,2.22a6.58,6.58,0,0,1-4.75.4,3.48,3.48,0,0,1-2.62-3.67c-.06-1.66,0-3.32,0-5Z" style="fill:#4d4c4c"/><path d="M260.25,26.78a16.66,16.66,0,0,1,4.87.82,7.19,7.19,0,0,0,6.1-.5c1.45-.87,4,.68,4.25,2.39a2,2,0,0,1-.69,1.61A8.15,8.15,0,0,1,269,33.83a17.59,17.59,0,0,1-6.1-1,5.43,5.43,0,0,0-4.88.31c-1.45.89-3.69-.17-4.23-1.82a1.79,1.79,0,0,1,.54-1.85A7.28,7.28,0,0,1,260.25,26.78Z" style="fill:#4d4c4c"/><path d="M241,89a9.89,9.89,0,0,1,1.8-6.29c2.09-2.65,7.24-3.6,10.12-1.86a1.27,1.27,0,0,1,.45,1.86c-.32.71-.79,1.24-1.67.92A7.45,7.45,0,0,0,248.2,83a3.13,3.13,0,0,0-2.83,2.26,11.16,11.16,0,0,0,0,7.22c.7,2,2.24,2.71,4.67,2.33a7.28,7.28,0,0,0,1.93-.63,1.45,1.45,0,0,1,1.36,2.55c-4,2.46-11.07,1.71-12.09-5A14.66,14.66,0,0,1,241,89Z" style="fill:#4d4c4c"/><path d="M211.56,89.05c0-2.27,0-4.53,0-6.79,0-1,.36-1.77,1.45-2s1.73.2,2.1,1.46c.07.25,0,.58.38.63s.42-.26.59-.46a4.47,4.47,0,0,1,4.07-1.77,1.27,1.27,0,0,1,1.35,1.45c0,1.4-.36,2-1.33,2.14l-.22,0c-3.5.23-4.53,1.33-4.54,4.87,0,2.41,0,4.83,0,7.24,0,1.52-.58,2.07-1.93,2.06s-1.89-.63-1.9-2.11C211.55,93.57,211.56,91.31,211.56,89.05Z" style="fill:#4d4c4c"/><path d="M400.17,29.26c0,2.63-.67,3.56-3.12,4.46-2.66,1-5.3,2-8,2.92a8.5,8.5,0,0,1-1.19.35,1.59,1.59,0,0,1-2.18-1.57c-.21-2.14.26-3,2.21-4,3-1.58,6.12-3.11,9.08-4.83,1.81-1.06,3.21-.1,3.16,1.95C400.16,28.8,400.17,29,400.17,29.26Z" style="fill:#4d4c4c"/><path d="M317.06,89.27c0-2.23,0-4.45,0-6.67,0-1,.18-1.9,1.38-2.11s1.75.12,2.17,1.5c.26.87.59.56,1,.11a4.51,4.51,0,0,1,3.84-1.81c1.18,0,1.59.47,1.58,1.57,0,1.49-.42,2.07-1.65,2a4,4,0,0,0-4,2.15,3.52,3.52,0,0,0-.4,1.73c0,2.75,0,5.51,0,8.26,0,1.48-.58,2.09-1.9,2.08s-1.93-.6-1.94-2C317,93.79,317.06,91.53,317.06,89.27Z" style="fill:#4d4c4c"/><path d="M135.15,48.83a22.54,22.54,0,0,1,11.28,3.63,22.23,22.23,0,0,0,3.8,2c.64.26.86.53.6,1.27q-4.59,12.88-9.11,25.79a2.17,2.17,0,0,1-.17.42c-.18.27-.12.79-.52.8s-.47-.5-.59-.84C136.71,71.59,133.18,61.21,129.3,51c-.31-.82-.06-1.23.73-1.39A27.11,27.11,0,0,1,135.15,48.83Z" style="fill:#fff"/><path d="M109.68,83c-.49-.14-.57-.54-.7-.88-1-2.66-1.87-5.33-2.82-8q-2.85-8-5.7-16c-.17-.47-.65-1-.24-1.47s1,.08,1.44.24a20.15,20.15,0,0,0,11.91-.11,29.38,29.38,0,0,0,5.26-1.71c.21-.1.44-.25.64-.09s.07.56,0,.83C118,60,116.45,64.2,115,68.38q-2.41,6.83-4.81,13.67A1.76,1.76,0,0,1,109.68,83Z" style="fill:#fff"/><path d="M201,44c0-1.48,0-2.95,0-4.42,0-.52.05-1.07.72-1.06,2.07,0,4.15-.28,6.18.42a3.69,3.69,0,0,1,2.44,2.19,8,8,0,0,1-.08,6,4.08,4.08,0,0,1-3.83,2.38c-1.47.1-2.94.05-4.41.08-.72,0-1-.31-1-1C201,47,201,45.48,201,44Z" style="fill:#fff"/><path d="M350.44,55.15a24.92,24.92,0,0,1-.63,5.93,4.47,4.47,0,0,1-4.44,3.65,13.88,13.88,0,0,1-1.58,0c-2.54-.11-4-1.27-4.58-3.73a24.75,24.75,0,0,1,0-11,4.37,4.37,0,0,1,4.44-3.79c1.93-.15,3.81,0,5.17,1.63a7.53,7.53,0,0,1,1.38,4C350.37,53.05,350.38,54.26,350.44,55.15Z" style="fill:#fff"/><path d="M301.55,60.6v.79c0,2.35-.18,2.58-2.46,3.32a5.72,5.72,0,0,1-4.19,0,3,3,0,0,1-.82-4.86,4.78,4.78,0,0,1,2.16-1.18c1.46-.34,2.94-.62,4.41-1,.63-.13.93.05.9.73S301.55,59.88,301.55,60.6Z" style="fill:#fff"/><path d="M392.27,52c-1.25,0-2.5,0-3.74,0-.69,0-1-.31-.92-1,.13-1.82.64-3.47,2.43-4.31a5.51,5.51,0,0,1,5.23.13c1.2.67,2.05,3.45,1.56,4.69-.19.47-.56.45-.94.45Z" style="fill:#fff"/><path d="M236.48,52c-1.21,0-2.42,0-3.63,0-.78,0-1.07-.31-1-1.09a5,5,0,0,1,7.41-4.26,4.77,4.77,0,0,1,1.95,4.75c-.17.58-.61.59-1.07.59Z" style="fill:#fff"/><path d="M296.4,117.7c.07-1,.16-1.9.21-2.83,0-.76.39-1,1.15-1,2.7,0,3.9,1.91,2.67,4.36-.52,1-2.75,1.74-3.7,1.13C296.09,118.93,296.52,118.23,296.4,117.7Z" style="fill:#fff"/><path d="M279.52,119.41a18.53,18.53,0,0,1-.82,6.58,2.72,2.72,0,0,1-3.26,2.11,2.57,2.57,0,0,1-2.22-2.6,23.66,23.66,0,0,1,.75-9.83,2.7,2.7,0,0,1,2.51-2.24c1.77-.08,2.87,1,3,3C279.59,117.45,279.52,118.43,279.52,119.41Z" style="fill:#fff"/><path d="M369.8,118c.08-1.17.18-2.22.22-3.27,0-.61.3-.9.91-.88,1,.05,2.27-.21,2.82,1a4.15,4.15,0,0,1-.14,3.71c-.43.82-2.75,1.34-3.5.84C369.54,119,369.92,118.4,369.8,118Z" style="fill:#fff"/><path d="M396.25,88.49c0,1.35,0,2.71,0,4.07a1.7,1.7,0,0,1-.81,1.52c-2.56,1.85-5.49.65-6-2.44a15.6,15.6,0,0,1,.06-5.74c.43-2.12,1.46-3,3.61-3,.26,0,.53,0,.79,0,2.15.15,2.36.38,2.36,2.49Z" style="fill:#fff"/><path d="M284.11,88.6c0-1.17,0-2.34,0-3.5A2.24,2.24,0,0,1,285.3,83a3.51,3.51,0,0,1,5.6,2.38,15,15,0,0,1,0,5.74,4,4,0,0,1-6.1,2.59,1.37,1.37,0,0,1-.66-1.33C284.12,91.09,284.11,89.85,284.11,88.6Z" style="fill:#fff"/><path d="M370.66,88.75a9.39,9.39,0,0,1,.39-3.06A3.29,3.29,0,0,1,374.58,83,3.08,3.08,0,0,1,378,85.68a13.88,13.88,0,0,1-.12,7,2.75,2.75,0,0,1-2.91,2.18c-2,.1-2.95-.42-3.61-1.88A11.23,11.23,0,0,1,370.66,88.75Z" style="fill:#fff"/><path d="M416.08,89.22a14,14,0,0,1-.32,3.14c-.46,1.76-1.51,2.54-3.48,2.54s-2.95-.66-3.4-2.45a14.06,14.06,0,0,1,0-6.94A3.12,3.12,0,0,1,412.4,83a3.28,3.28,0,0,1,3.36,2.61A15.52,15.52,0,0,1,416.08,89.22Z" style="fill:#fff"/><path d="M339.9,92.19c-.12.6.35,1.5-.52,2a4.38,4.38,0,0,1-3.64.74,1.68,1.68,0,0,1-1.38-1.32A2.11,2.11,0,0,1,335,91.4c1.29-.94,2.87-1.06,4.37-1.39.39-.09.5.26.51.58C339.91,91.08,339.9,91.57,339.9,92.19Z" style="fill:#fff"/><path d="M308.42,92.12c-.13.61.36,1.51-.5,2.06a4.47,4.47,0,0,1-3.52.84,1.74,1.74,0,0,1-1.56-1.41,2.11,2.11,0,0,1,.88-2.38A12.15,12.15,0,0,1,307.81,90c.44-.09.6.23.61.62S308.42,91.54,308.42,92.12Z" style="fill:#fff"/><path d="M230.84,86.94h-2.38c-.51,0-.75-.25-.73-.78A3.34,3.34,0,0,1,231,82.88c2.53-.1,3.05,1.42,3.07,3.38,0,.55-.36.69-.83.68Z" style="fill:#fff"/><path d="M263.88,86.94c-.76,0-1.51,0-2.26,0s-1-.39-.88-1.12a3.54,3.54,0,0,1,4.35-2.89,3,3,0,0,1,2,3.46c-.12.48-.46.54-.86.54Z" style="fill:#fff"/></svg>