<svg xmlns="http://www.w3.org/2000/svg" viewBox="0 0 500 160"><polygon points="233.07 80.9 229.5 89.64 231.63 89.64 235.13 85.93 233.07 80.9" style="fill:#4d4c4c"/><path d="M265.75,111.37a17,17,0,0,0-15.25,9.16c-3.31-1.77-4.36-2-7.06-3.74-5.64-3.57-4.5-9.12-1.71-11.13,3.5-2.52,9.34-2,11.34,1.64a5.83,5.83,0,0,1,.38,4H255l1.69-4.11h10.68l.62-1.48-5.31-.82,5.58-13.59h15.67l3.62,8.81-4.86,1.62.53,1.28,12.58-.06-.65-1.57-3.92-.6-14.35-35h-2.68v1.78l.62,1.52-7.81,19-5-12.29a11.82,11.82,0,0,0,6.82-4c3.2-4,2.95-8.85.37-11.88h14V54.25H281.8l-1.35,3.29H265.73l-.82-.36V22.8L270,21.11V19.83H256.48v1.48l5.06.8V44.88L247.23,10h-1.95l-.73,1.78.62,1.52L233.8,41,222,12.24l5.38-.77V10H214.17v1.27l4.52,1.67,13.63,33.28h0l.41,1h0l1.35,3.3-2.42,5.9c-.68-4.92-4.26-9.05-11.83-9.2H204.25V48.7l5.06.8v32l-5.06,1.69v1.28h22.16l.55-1.3-3.3-1,3.86-9.41H243.2l3.61,8.81L242,83.14l.52,1.28,7.08,0v17.55c-6.38-.94-13.13,1.62-13.23,9,.12,7.76,7.3,9.22,12.87,12.55a22.87,22.87,0,0,0,.09,14.35c-3.51,1.05-8.21,0-10.35-3.77a6.49,6.49,0,0,1-.84-4.54h0l-5.66-.84v-32L237.52,95V93.71H224v1.48l5.06.8v32L224,129.66V131h11.44v5.43A17.34,17.34,0,0,0,250.21,140a17.34,17.34,0,0,0,31.1.68C287.56,129,281.19,111.54,265.75,111.37ZM276,72.23l6.78,16.52H269.27ZM265.17,92.49l-4.82,11.75-3,1a14.73,14.73,0,0,0-4.38-2.48V76.41h5.62Zm-1-32.5v0h0c5.53,3.32,4.52,13.7-5.92,13.91h-5.36V58.84C259.4,58.84,261.76,58.56,264.18,60ZM246.44,16.42l6.78,16.52H239.66Zm-25.06,65-4.2,1.4-4.5-.71V69.8c8.45.84,11.93-.81,14.59-2.69ZM222,67.12a33.92,33.92,0,0,1-9.32.65V49.55c6.26,0,10.42-.55,13.26,2.55C229.33,55.79,229.73,65.08,222,67.12Zm6.58,3,6.78-16.52,6.78,16.52Zm7.79-22.92h0l-1.29-3.13,3.53-8.58h15.67c4.44,10.82,2.79,6.8,7.26,17.66v3.35h-17V58l5.06.79V79.38Zm16.06,88.84a20.77,20.77,0,0,1-.33-10.55A7.34,7.34,0,0,1,252.43,136.06Zm14,11a14.15,14.15,0,0,1-13-8.37,9,9,0,0,0,4.39-8.18c-.05-3.47-1.23-6-4.6-8.36,4.16-9,14.31-9.44,20-5.49C284.46,124.46,282,146.86,266.44,147Z" style="fill:#4d4c4c"/></svg>