<svg xmlns="http://www.w3.org/2000/svg" viewBox="0 0 500 160"><path d="M156.06,140.61V127.2h4.07a16.77,16.77,0,0,1,3.16.27,5.51,5.51,0,0,1,2.35.9,4.4,4.4,0,0,1,1.53,1.9,9.25,9.25,0,0,1-.27,6.95,6.3,6.3,0,0,1-2,2.3,7.57,7.57,0,0,1-2.71,1.13,13.26,13.26,0,0,1-2.89.32A14.1,14.1,0,0,1,156.06,140.61Zm-3.7-3.39V145c0,2,0,3.94-.13,5.87s-.14,3.82-.23,5.69c.69-.06,1.43-.09,2.21-.09s1.52,0,2.22.09c-.09-1.87-.18-3.76-.28-5.69s-.09-3.88-.09-5.87v-2.48c.61.06,1.19.1,1.77.13h1.89a22,22,0,0,0,3.71-.36,12.37,12.37,0,0,0,4-1.4,9,9,0,0,0,3.16-2.89,8.19,8.19,0,0,0,1.31-4.83,8,8,0,0,0-.54-3.16,6,6,0,0,0-1.45-2.17,5.89,5.89,0,0,0-1.94-1.31,11.74,11.74,0,0,0-2.21-.68,13.19,13.19,0,0,0-2.08-.27c-.66,0-1.22,0-1.67,0s-.74,0-1.22,0l-1.53.09c-.51,0-1,0-1.54,0s-.95,0-1.31,0c-.72,0-1.46,0-2.21,0l-2.17-.18q.13,3,.23,5.87C152.32,133.29,152.36,135.24,152.36,137.22Z" style="fill:#4d4c4c;fill-rule:evenodd"/><path d="M184.11,138.8l.31-.22c0-.61,0-1.27.05-2a5.18,5.18,0,0,1,.27-1.67,3.53,3.53,0,0,0-.77-.23,4.22,4.22,0,0,0-.67,0q-3.3,0-6,4.87l-.09,0v-1.81c0-.63.11-1.49.23-2.57l-.95.18a8.59,8.59,0,0,1-.86.05c-.33,0-.64,0-.95-.05l-.94-.18c.09,2,.13,3.75.13,5.28s0,2.89,0,4.07v1.44q0,3.84,0,6.5c0,1.75,0,3.14-.13,4.16q.9-.09,1.89-.09c.61,0,1.21,0,1.81.09a25.11,25.11,0,0,1-.18-2.58v-9.61a8.62,8.62,0,0,1,.32-2.44,6.08,6.08,0,0,1,.9-2,4.41,4.41,0,0,1,1.44-1.35,3.85,3.85,0,0,1,2-.5,3.69,3.69,0,0,1,1.31.23A2,2,0,0,1,184.11,138.8Z" style="fill:#4d4c4c;fill-rule:evenodd"/><path d="M188.67,145.89a20.86,20.86,0,0,1,.31-3.66,10.11,10.11,0,0,1,1.18-3.11,6,6,0,0,1,2.17-2.21,7.21,7.21,0,0,1,6.68,0,6.13,6.13,0,0,1,2.17,2.21,9.14,9.14,0,0,1,1.13,3.11,18.79,18.79,0,0,1,0,7.32,9.66,9.66,0,0,1-1.13,3.16,6.8,6.8,0,0,1-8.85,2.17,6.18,6.18,0,0,1-2.17-2.17,10.72,10.72,0,0,1-1.18-3.16A20.69,20.69,0,0,1,188.67,145.89Zm-4,0a13.06,13.06,0,0,0,.94,5.24,10.24,10.24,0,0,0,2.58,3.48,9.39,9.39,0,0,0,3.52,1.85,14.88,14.88,0,0,0,3.93.54,14.66,14.66,0,0,0,3.93-.54,9.54,9.54,0,0,0,3.52-1.85,9.76,9.76,0,0,0,2.53-3.48,12.53,12.53,0,0,0,1-5.24,12.2,12.2,0,0,0-1-5.19,9.26,9.26,0,0,0-2.53-3.48,9.76,9.76,0,0,0-3.52-1.94,12.71,12.71,0,0,0-3.93-.63,12.91,12.91,0,0,0-3.93.63,9.81,9.81,0,0,0-6.1,5.42A12.7,12.7,0,0,0,184.7,145.89Z" style="fill:#4d4c4c;fill-rule:evenodd"/><path d="M215.13,156.55a11.64,11.64,0,0,1,1.45-.09,10.74,10.74,0,0,1,1.4.09q1.94-5.33,4.28-10.66t4.79-10.79a5.34,5.34,0,0,1-1.4.23,5.4,5.4,0,0,1-1.4-.23l-1.67,4.56q-.81,2.29-1.71,4.61c-.58,1.53-1.16,3-1.77,4.47s-1.15,2.74-1.76,4q-2-4.52-3.7-8.8c-1.08-2.9-2.09-5.83-3-8.81l-1,.18c-.33,0-.66.05-1,.05s-.77,0-1.13-.05l-1.13-.18q2.49,5.46,4.56,10.79T215.13,156.55Z" style="fill:#4d4c4c;fill-rule:evenodd"/><path d="M228.82,127.24a2.21,2.21,0,0,0,.67,1.63,2.24,2.24,0,0,0,1.63.68,2.3,2.3,0,0,0,1.62-3.93,2.28,2.28,0,0,0-3.25,0A2.2,2.2,0,0,0,228.82,127.24Zm.63,16.3v4.7q0,2-.09,4.29a39.23,39.23,0,0,1-.28,4q1-.09,2-.09c.66,0,1.34,0,2,.09-.15-1.21-.26-2.55-.32-4s0-2.93,0-4.29v-4.7c0-1.35,0-2.77,0-4.24s.17-2.91.32-4.2a12.26,12.26,0,0,1-2,.23,12.47,12.47,0,0,1-2-.23c.16,1.29.24,2.69.28,4.2S229.45,142.19,229.45,143.54Z" style="fill:#4d4c4c;fill-rule:evenodd"/><path d="M239.65,146.3a18.83,18.83,0,0,1,.36-3.79,11.09,11.09,0,0,1,1.18-3.12,6,6,0,0,1,2-2.08,5.29,5.29,0,0,1,2.85-.77,5.68,5.68,0,0,1,4.92,2.31c1.12,1.5,1.67,3.7,1.67,6.59a15.87,15.87,0,0,1-.41,3.61A10,10,0,0,1,251,152.3a7.46,7.46,0,0,1-2.08,2.31,5.27,5.27,0,0,1-3,.86,6.52,6.52,0,0,1-2.21-.41,4.82,4.82,0,0,1-2-1.45,9.53,9.53,0,0,1-1.45-2.84A15.5,15.5,0,0,1,239.65,146.3Zm12.92,6-.14,4.29c.6-.06,1.18-.09,1.72-.09s1.16,0,1.76.09q0-2.62-.09-5.1c0-1.66,0-3.53,0-5.6s0-4,0-6.37.06-4.58.09-6.77.12-4.2.18-6,.14-3.23.22-4.2l-1.08.18c-.3,0-.62,0-.95,0s-.66,0-1,0l-1-.18c0,.72.05,1.55.05,2.48s0,1.93,0,3,0,2.17,0,3.35,0,2.28,0,3.43v4.42h-.09a7,7,0,0,0-7-4.51,9.28,9.28,0,0,0-3.53.72,8.85,8.85,0,0,0-3.11,2.12,10.79,10.79,0,0,0-2.21,3.52,13.22,13.22,0,0,0-.86,5,14.62,14.62,0,0,0,.77,5.05,10.72,10.72,0,0,0,2.07,3.44,8,8,0,0,0,2.94,1.89,10.16,10.16,0,0,0,3.39.59,8.72,8.72,0,0,0,2.93-.45,7.48,7.48,0,0,0,2.17-1.17,7.67,7.67,0,0,0,1.53-1.54,11.18,11.18,0,0,0,1-1.58Z" style="fill:#4d4c4c;fill-rule:evenodd"/><path d="M268.64,136.09a4.85,4.85,0,0,1,2.85.77,5.2,5.2,0,0,1,1.67,1.94,7.36,7.36,0,0,1,.81,2.53,15.73,15.73,0,0,1,.23,2.58l-3,.09c-1,0-2,0-3,0s-2,0-3,0l-2.89-.09a14,14,0,0,1,.45-2.58,9.85,9.85,0,0,1,1.13-2.53,6.76,6.76,0,0,1,1.9-1.94A5.09,5.09,0,0,1,268.64,136.09Zm-10.43,10.43a11.32,11.32,0,0,0,.77,4.2,10.23,10.23,0,0,0,2.26,3.39,10.61,10.61,0,0,0,3.47,2.17,13.36,13.36,0,0,0,4.48.72,11.28,11.28,0,0,0,4.15-.77,12.4,12.4,0,0,0,3.38-1.85l.28-2.21-.23-.14a8.22,8.22,0,0,1-1.4,1.27,11.19,11.19,0,0,1-1.67,1,13.62,13.62,0,0,1-1.85.67,8,8,0,0,1-1.85.23,8.34,8.34,0,0,1-3.35-.63,7.83,7.83,0,0,1-2.43-1.76,8.09,8.09,0,0,1-1.54-2.67,10.66,10.66,0,0,1-.5-3.3v-.58a3.7,3.7,0,0,1,.05-.68l2.94-.09c1,0,2,0,3,0,1.62,0,3.23,0,4.83,0l4.83.09c0-.3,0-.59,0-.86a6.79,6.79,0,0,0,0-.9,10.78,10.78,0,0,0-.59-3.57,7.48,7.48,0,0,0-1.71-2.89,8.2,8.2,0,0,0-2.94-2,9.85,9.85,0,0,0-4.11-.77q-5.06,0-7.72,3.16T258.21,146.52Z" style="fill:#4d4c4c;fill-rule:evenodd"/><path d="M294.65,143.86v2.76c0,1.74,0,3.44-.13,5.1s-.12,3.26-.18,4.83c.6-.06,1.22-.09,1.85-.09s1.29,0,1.89.09c0-.42-.05-.86-.09-1.31v-4.38c0-1.54,0-3,.09-4.34s.1-2.72.1-4a9.33,9.33,0,0,0-.68-3.84,6,6,0,0,0-4-3.66,9.21,9.21,0,0,0-2.53-.36,7.91,7.91,0,0,0-4.2,1.08,9.13,9.13,0,0,0-3,3h-.09c0-1.2,0-2.41.13-3.61l-1,.18a7.09,7.09,0,0,1-.77.05,12.37,12.37,0,0,1-2-.23q.22,1.93.27,4.2c.06,1.47.09,2.89.09,4.24v4.7q0,2-.09,4.29a39.39,39.39,0,0,1-.27,4c.69-.06,1.37-.09,2-.09s1.34,0,2,.09c-.16-1.21-.26-2.55-.32-4s0-2.93,0-4.29V144.4a9,9,0,0,1,1.44-5.46,5.47,5.47,0,0,1,4.65-1.94,4.22,4.22,0,0,1,3.61,1.76A8.27,8.27,0,0,1,294.65,143.86Z" style="fill:#4d4c4c;fill-rule:evenodd"/><path d="M300.8,145.89a12.7,12.7,0,0,0,.94,5.19,10,10,0,0,0,2.58,3.48,9.8,9.8,0,0,0,3.52,1.9,14.88,14.88,0,0,0,3.93.54,11.24,11.24,0,0,0,4.15-.77,12.32,12.32,0,0,0,3.39-1.85,13.48,13.48,0,0,1,.27-2.21l-.23-.14A8.14,8.14,0,0,1,318,153.3a11.3,11.3,0,0,1-1.68,1,13.62,13.62,0,0,1-1.85.67,8,8,0,0,1-1.85.23,7.17,7.17,0,0,1-5.82-2.35q-2-2.38-2-7a17.07,17.07,0,0,1,.41-3.84,9.45,9.45,0,0,1,1.35-3.12,6.51,6.51,0,0,1,2.39-2,7.66,7.66,0,0,1,3.53-.77,5.29,5.29,0,0,1,2,.36,5.89,5.89,0,0,1,1.63.86,6,6,0,0,1,1.31,1.13,5.61,5.61,0,0,1,.86,1.18h.36c.12-.55.25-1.06.4-1.54s.38-1,.59-1.44a7.41,7.41,0,0,0-2.84-1.36,14.36,14.36,0,0,0-4.43-.63,13.34,13.34,0,0,0-4.24.68,9.93,9.93,0,0,0-6.28,5.51A11.85,11.85,0,0,0,300.8,145.89Z" style="fill:#4d4c4c;fill-rule:evenodd"/><path d="M321.39,127.24a2.18,2.18,0,0,0,.68,1.63,2.21,2.21,0,0,0,1.62.68,2.25,2.25,0,0,0,1.63-.68,2.31,2.31,0,0,0-1.63-3.93,2.32,2.32,0,0,0-2.3,2.3Zm.63,16.3v4.7q0,2-.09,4.29a39.39,39.39,0,0,1-.27,4c.69-.06,1.37-.09,2-.09s1.34,0,2,.09c-.15-1.21-.25-2.55-.31-4s-.05-2.93-.05-4.29v-4.7c0-1.35,0-2.77.05-4.24s.16-2.91.31-4.2a9.07,9.07,0,0,1-4.06,0q.22,1.93.27,4.2C322,140.77,322,142.19,322,143.54Z" style="fill:#4d4c4c;fill-rule:evenodd"/><path d="M340.94,145.3l-.18,6.78a7.05,7.05,0,0,1-2.21,2.21,5.49,5.49,0,0,1-3.12,1,4,4,0,0,1-2.71-1.09,4.05,4.05,0,0,1-1.22-3.2,4.27,4.27,0,0,1,.45-2.08,4.68,4.68,0,0,1,1.27-1.35,7,7,0,0,1,1.81-.86,17.29,17.29,0,0,1,2.07-.5c.69-.15,1.37-.28,2-.4A10.22,10.22,0,0,0,340.94,145.3Zm-11.15-8v2.35h.49a5.31,5.31,0,0,1,2.31-2.26,7.3,7.3,0,0,1,3.38-.82,5,5,0,0,1,2.31.5,4.12,4.12,0,0,1,1.53,1.22,5.06,5.06,0,0,1,.86,1.81,8.52,8.52,0,0,1,.27,2.16,4.39,4.39,0,0,1-.13,1.13,1.43,1.43,0,0,1-.82.73,9.7,9.7,0,0,1-2,.63c-.9.18-2.17.4-3.79.67a9.46,9.46,0,0,0-4.7,2,5.37,5.37,0,0,0-1.67,4.2,5.26,5.26,0,0,0,.5,2.35,6.51,6.51,0,0,0,1.35,1.72,5.27,5.27,0,0,0,1.94,1,7.94,7.94,0,0,0,2.22.32,8.71,8.71,0,0,0,3.88-.77,12.15,12.15,0,0,0,3.2-2.39,3.24,3.24,0,0,0,.91,1.94,3.11,3.11,0,0,0,2.21.72,9.05,9.05,0,0,0,1.63-.13,5.32,5.32,0,0,0,1.26-.36v-1a1.43,1.43,0,0,1-.5.18H346a1.49,1.49,0,0,1-1-.31,2.14,2.14,0,0,1-.5-.77,4.06,4.06,0,0,1-.23-1.08v-1.18c0-1.89,0-3.69.09-5.37s.09-3.43.09-5.15a6.66,6.66,0,0,0-.54-2.71,6.2,6.2,0,0,0-3.79-3.47,8.4,8.4,0,0,0-3-.5,11.72,11.72,0,0,0-3.53.54A12.62,12.62,0,0,0,329.79,137.27Z" style="fill:#4d4c4c;fill-rule:evenodd"/><path d="M231.27,82.94l0-1.12a8,8,0,0,0,6.38-.08,10.46,10.46,0,0,1,7.59,0,10.54,10.54,0,0,0,7.58,0,8.11,8.11,0,0,1,6.43,0,9.12,9.12,0,0,0,6.7,0,6.33,6.33,0,0,1,2.09-.58l-.24,1.35-.15.57a5.88,5.88,0,0,0-1.69.51,9.15,9.15,0,0,1-6.71,0,8.07,8.07,0,0,0-6.43,0,10.54,10.54,0,0,1-7.6,0,10.46,10.46,0,0,0-7.57,0,8.18,8.18,0,0,1-6.44,0Zm28.2-12.23h3l-.22,1a6.82,6.82,0,0,1,1.88.67,6,6,0,0,1,3.2,5.25v.09h2.25v1.7H229.08v-1.7h2.29v-.05a6,6,0,0,1,3.17-5.27,6.57,6.57,0,0,1,1.9-.69l-.23-1h3l-.22,1a6.64,6.64,0,0,1,1.87.67,6,6,0,0,1,3.21,5.25v.09h.52l1-1.36v-7H229.34V67.7h16.57A4,4,0,0,0,247,66h4.49a4.08,4.08,0,0,0,1.09,1.73h15.59a98.81,98.81,0,0,1-13.91-6.53c-.86-.48-1.7-.94-2.54-1.38l.13,1.62h-5.2l.31-3.94a74.91,74.91,0,0,0-17.39-5.73V50.32l0-.43a62.53,62.53,0,0,1,10.19,2.83c.82-.36,3.94-1.75,7.74-3.32l.31-4.22,1.28-1.32.09-.09.08.09,1.28,1.32.21,2.89c5.42-2.16,11.24-4.26,13.54-4.3,4.77-.09,5.48,1.59,5.48,1.59l.13,2.42s-1-2.16-5.51-2.06c-2.41.05-8.23,2.15-13.5,4.26l.13,1.78.47,6.05c.87.46,1.78,1,2.76,1.51a90.59,90.59,0,0,0,15.06,6.93v.4l-.06,1h.57v1.7H252.82l0,7,1,1.37h.76v-.05a6,6,0,0,1,3.17-5.27,6.57,6.57,0,0,1,1.9-.69Zm-28.2,15.68,0-1.11a8,8,0,0,0,6.38-.09,10.46,10.46,0,0,1,7.59,0,10.54,10.54,0,0,0,7.58,0,8.11,8.11,0,0,1,6.43,0,9.12,9.12,0,0,0,6.7,0,6.33,6.33,0,0,1,2.09-.58L267.84,86l-.15.57A6.21,6.21,0,0,0,266,87a9.15,9.15,0,0,1-6.71,0,8.11,8.11,0,0,0-6.43,0,10.54,10.54,0,0,1-7.6,0,10.46,10.46,0,0,0-7.57,0,8.18,8.18,0,0,1-6.44,0ZM247.1,55.61l.3-3.85,0-.33c-2.11.88-3.94,1.68-5.13,2.2C243.94,54.25,245.48,54.87,247.1,55.61Zm18.41,22.15A4.44,4.44,0,0,0,263.24,74a4.63,4.63,0,0,0-4.52,0,4.42,4.42,0,0,0-2.25,3.78Zm-32.3,0h9A4.44,4.44,0,0,0,240,74a4.65,4.65,0,0,0-4.53,0A4.46,4.46,0,0,0,233.21,77.76Zm14-13a6.38,6.38,0,0,0-.45-2l0-.16h5l-.05.16a6.38,6.38,0,0,0-.45,2Z" style="fill:#4d4c4c;fill-rule:evenodd"/><path d="M258.61,14.13l.95-5.41a1.06,1.06,0,0,0-.89-1.14l-.22,0a1.06,1.06,0,0,0-1.2.79l-.72,5.48Zm-33.13,5.33-2.66-4.81a1,1,0,0,1,.47-1.36l.2-.11a1,1,0,0,1,1.39.36l2.47,4.93Zm14.81-5.33-.95-5.41a1.06,1.06,0,0,1,.89-1.14l.22,0a1.05,1.05,0,0,1,1.2.79l.73,5.48Zm33.13,5.33,2.66-4.81a1,1,0,0,0-.47-1.36l-.19-.11a1,1,0,0,0-1.39.36l-2.48,4.93Zm-24,3.39A39.68,39.68,0,0,0,225.19,31l-1.62-2.13c.63-.48,1.83-1.32,2.48-1.76l-9.93-15.23c1.29-.85,2.53-1.59,3.89-2.34l.77,1.42c.71-.39,1.52-.81,2.24-1.17l-.73-1.45c1.29-.65,2.64-1.27,4-1.82l3,7.26a45,45,0,0,1,7-2.3l-1.66-7.7c1.18-.29,2.38-.56,3.59-.78l.31,1.59c.82-.15,1.63-.28,2.46-.4l-.23-1.61c1.43-.21,2.78-.35,4.24-.45l.56,7.81c1.25-.09,2.59-.11,3.86-.11s2.61,0,3.86.11l.56-7.81c1.46.1,2.82.24,4.25.45l-.24,1.61c.83.12,1.65.25,2.46.4L260.65,3c1.21.22,2.41.49,3.6.78l-1.66,7.7a45.74,45.74,0,0,1,7.05,2.3l3-7.26c1.34.55,2.69,1.17,4,1.82l-.73,1.45c.73.36,1.53.78,2.24,1.17l.77-1.42c1.36.75,2.6,1.49,3.89,2.34l-9.93,15.23c.66.44,1.85,1.28,2.49,1.76L273.72,31a39.71,39.71,0,0,0-24.26-8.15Z" style="fill:#4d4c4c;fill-rule:evenodd"/><path d="M257.08,92.15l-.32-.1h-1.62l-.4,0-.49,0a1.52,1.52,0,0,1,0,.6c.57,0,1.05-.06,1.43-.06h.88l-.44.77-.59,1-.66,1.09-.65,1,.24,0,.25,0c.36-.71.74-1.43,1.15-2.15S256.68,92.83,257.08,92.15Zm-14.27.22v3.22c0,.27,0,.55,0,.83l.31,0,.31,0,0-.83V92.76l0-.87-.79.33-.77.33a2,2,0,0,1,.2.26Zm2.44,2.85a1.38,1.38,0,0,0,.11.55,1.24,1.24,0,0,0,.79.64,2.14,2.14,0,0,0,.58.08,1.56,1.56,0,0,0,.57-.1,1.29,1.29,0,0,0,.47-.27,1.36,1.36,0,0,0,.32-.46,1.46,1.46,0,0,0,.12-.6,1.13,1.13,0,0,0-.11-.51.87.87,0,0,0-.26-.33.93.93,0,0,0-.31-.19,1.48,1.48,0,0,0-.28-.09,1.29,1.29,0,0,0,.55-.43,1,1,0,0,0,.2-.59.86.86,0,0,0-.08-.36.9.9,0,0,0-.23-.32,1.2,1.2,0,0,0-.39-.21,1.62,1.62,0,0,0-.57-.09,1.46,1.46,0,0,0-.52.09,1.49,1.49,0,0,0-.39.23,1,1,0,0,0-.25.34.93.93,0,0,0-.09.4.84.84,0,0,0,.07.35,1,1,0,0,0,.17.27,1.43,1.43,0,0,0,.23.2,1.72,1.72,0,0,0,.26.1,1.77,1.77,0,0,0-.74.55A1.32,1.32,0,0,0,245.25,95.22Zm4.89.8a.48.48,0,0,0,0,.2l.06.18.21.06a1.48,1.48,0,0,0,.31,0,1.69,1.69,0,0,0,.82-.2,1.75,1.75,0,0,0,.62-.56,2.48,2.48,0,0,0,.38-.84,3.84,3.84,0,0,0,.14-1,2.55,2.55,0,0,0-.13-.88,1.74,1.74,0,0,0-.32-.59,1.26,1.26,0,0,0-.47-.33,1.56,1.56,0,0,0-.57-.11,1.51,1.51,0,0,0-.61.12,1.31,1.31,0,0,0-.46.3,1.23,1.23,0,0,0-.3.44,1.47,1.47,0,0,0-.1.56,1.34,1.34,0,0,0,.34,1,1.31,1.31,0,0,0,1,.33,1.11,1.11,0,0,0,.65-.17,1.14,1.14,0,0,0,.42-.45,3.6,3.6,0,0,1-.06.8,2.77,2.77,0,0,1-.24.72,1.42,1.42,0,0,1-.42.52,1,1,0,0,1-.61.2.85.85,0,0,1-.35-.08A1,1,0,0,1,250.14,96Zm23.34-36.24a3.43,3.43,0,0,0,3.23-2.05s0-.06,0-.23l-1.92-2.29.49-.6s0-.06-.12-.26h-3.35c-.09,0-.16.08-.12.26l.49.6-1.92,2.29s0,.09,0,.23A3.42,3.42,0,0,0,273.48,59.78Zm-48,21.79a3.46,3.46,0,0,0,3.24-2.06s0-.05,0-.23L226.74,77l.49-.61s0-.06-.11-.25h-3.36c-.09,0-.15.07-.11.25l.49.61-1.92,2.28s-.05.09,0,.23A3.45,3.45,0,0,0,225.45,81.57Zm0-21.79a3.45,3.45,0,0,0,3.24-2.05s0-.06,0-.23l-1.92-2.29.49-.6s0-.06-.11-.26h-3.36c-.09,0-.15.08-.11.26l.49.6-1.92,2.29s-.05.09,0,.23A3.42,3.42,0,0,0,225.45,59.78Zm0-23.5a3.46,3.46,0,0,0,3.24-2.06s0,0,0-.23l-1.92-2.28.49-.61s0-.06-.11-.25h-3.36c-.09,0-.15.07-.11.25l.49.61L222.22,34s-.05.09,0,.23A3.45,3.45,0,0,0,225.45,36.28Zm24,0a3.45,3.45,0,0,0,3.24-2.06s0,0,0-.23l-1.91-2.28.48-.61s0-.06-.11-.25h-3.36c-.08,0-.15.07-.11.25l.49.61L246.23,34s0,.09,0,.23A3.44,3.44,0,0,0,249.46,36.28Zm24,0a3.43,3.43,0,0,0,3.23-2.06s0,0,0-.23l-1.92-2.28.49-.61s0-.06-.12-.25h-3.35c-.09,0-.16.07-.12.25l.49.61L270.24,34s0,.09,0,.23A3.45,3.45,0,0,0,273.48,36.28Zm0,45.29a3.43,3.43,0,0,0,3.23-2.06s0-.05,0-.23L274.77,77l.49-.61s0-.06-.12-.25h-3.35c-.09,0-.16.07-.12.25l.49.61-1.92,2.28s0,.09,0,.23a3.43,3.43,0,0,0,3.23,2.06Zm-24-43.21H230.24V75.6a9.8,9.8,0,0,0,2.56,6.61c2.59,2.87,7.87,7,16.66,7.19,8.8-.21,14.06-4.32,16.65-7.19a9.8,9.8,0,0,0,2.56-6.61V38.36Zm0-9.6h28.8V78.32a14.73,14.73,0,0,1-3.84,9.92c-3.88,4.31-11.77,10.48-25,10.78-13.19-.3-21.11-6.47-25-10.78a14.73,14.73,0,0,1-3.84-9.92V28.76Zm-2,64.25a1.12,1.12,0,0,1,0,.32.73.73,0,0,1-.35.46.79.79,0,0,1-.32.06.81.81,0,0,1-.33-.06.67.67,0,0,1-.22-.19.66.66,0,0,1-.12-.27,1.12,1.12,0,0,1,0-.32,1.15,1.15,0,0,1,0-.33.57.57,0,0,1,.12-.26.57.57,0,0,1,.22-.19.67.67,0,0,1,.33-.07.66.66,0,0,1,.32.07.57.57,0,0,1,.22.19.58.58,0,0,1,.13.26A1.15,1.15,0,0,1,247.45,93Zm.17,2.17a1.58,1.58,0,0,1-.06.45,1,1,0,0,1-.18.35.81.81,0,0,1-.28.24.9.9,0,0,1-.74,0,1,1,0,0,1-.29-.24,1.43,1.43,0,0,1-.18-.35,1.58,1.58,0,0,1-.06-.45,1.3,1.3,0,0,1,.24-.8.92.92,0,0,1,.29-.23.9.9,0,0,1,.74,0,.79.79,0,0,1,.28.23,1,1,0,0,1,.18.36A1.51,1.51,0,0,1,247.62,95.18Zm4.49-2a1.84,1.84,0,0,1-.07.47,1.17,1.17,0,0,1-.18.39.89.89,0,0,1-.3.28.75.75,0,0,1-.4.11.76.76,0,0,1-.6-.25,1.27,1.27,0,0,1-.22-.83,1.46,1.46,0,0,1,.24-.88.78.78,0,0,1,.65-.32.76.76,0,0,1,.63.29A1.07,1.07,0,0,1,252.11,93.19Z" style="fill:#4d4c4c;fill-rule:evenodd"/></svg>