<svg xmlns="http://www.w3.org/2000/svg" viewBox="0 0 500 160"><title>cdc_logos-colab-web</title><path d="M135.34,82.88a6.47,6.47,0,0,0,5.78,3c2.54,0,3.43-1.19,3.43-2.28,0-2-2.58-2.51-5.78-3.7s-5.58-3-5.58-6.67c0-4.12,3.57-6.5,7.66-6.5a9,9,0,0,1,7.66,3.76l-3.4,2.58A4.93,4.93,0,0,0,141,71.33c-1.71,0-2.77.79-2.77,1.88,0,1.91,1.82,2,5.55,3.43,4.16,1.59,5.87,3.53,5.87,6.83,0,4.06-2.7,7-8.55,7-5,0-8-2.32-9.44-5.09Z" style="fill:#4d4c4c"/><path d="M160.68,67.13h4.53l9.5,23H169.3l-1.55-3.86h-9.61l-1.55,3.86h-5.41Zm5.61,15.09L163,73.87l-3.37,8.35Z" style="fill:#4d4c4c"/><path d="M178.27,67.13h4.52l11,14.3V67.13h4.91v23h-4.15L183.19,75.45V90.14h-4.92Z" style="fill:#4d4c4c"/><path d="M208.46,71.76h-6.24V67.13h17.47v4.63h-6.14V90.14h-5.09Z" style="fill:#4d4c4c"/><path d="M223.31,67.13h5.08v23h-5.08Z" style="fill:#4d4c4c"/><path d="M241.63,67.13h4.52l9.51,23h-5.42l-1.55-3.86h-9.6l-1.56,3.86h-5.41Zm5.61,15.09-3.33-8.35-3.37,8.35Z" style="fill:#4d4c4c"/><path d="M268.85,66.77a12.23,12.23,0,0,1,8.91,3.73l-3.43,3a7.65,7.65,0,0,0-5.48-2.12,7.25,7.25,0,1,0,0,14.49,7.36,7.36,0,0,0,5-1.78V81h-6V76.51h10.79v9.31a12.18,12.18,0,0,1-9.77,4.69c-6.83,0-12.38-5-12.38-11.85S262,66.77,268.85,66.77Z" style="fill:#4d4c4c"/><path d="M294.33,66.77a11.92,11.92,0,1,1-12.28,11.92A12,12,0,0,1,294.33,66.77Zm0,19.21a7.3,7.3,0,1,0-7.2-7.29A7.19,7.19,0,0,0,294.33,86Z" style="fill:#4d4c4c"/><path d="M134.32,99.45h2.4v21.39h-2.4Z" style="fill:#4d4c4c"/><path d="M142.21,99.45h2.27v17.34c0,1.69.49,2.39,1.94,2.39a6.52,6.52,0,0,0,1.1-.06v1.93a2.92,2.92,0,0,1-1.41.25c-1.53,0-3.9-.37-3.9-4.36Z" style="fill:#4d4c4c"/><path d="M150,105.37h2.27v9.39c0,2.58,1.44,4.21,3.84,4.21a4.09,4.09,0,0,0,4.2-4.36v-9.24h2.27v11.88c0,1.35.31,1.93,1.17,1.93a7.18,7.18,0,0,0,.8-.06v1.72a3.06,3.06,0,0,1-1.45.24,2.46,2.46,0,0,1-1.9-.7,3,3,0,0,1-.7-1.54c-.71,1.08-2.24,2.24-4.95,2.24-3.43,0-5.55-2.36-5.55-5.83Z" style="fill:#4d4c4c"/><path d="M168.46,116.76c.37,1.16,1.59,2.33,3.9,2.33,2.85,0,3.4-1.47,3.4-2.36,0-1.69-1.44-2.27-3.86-3.23s-4.21-2-4.21-4.51,1.93-4.08,4.67-4.08a4.69,4.69,0,0,1,4.48,2.67l-1.84,1a2.69,2.69,0,0,0-2.61-1.53c-1.38,0-2.43.7-2.43,2s1.35,2,3.38,2.8c3,1.13,4.7,2.45,4.7,4.94,0,2.21-1.75,4.48-5.68,4.48-2.86,0-5.19-1.29-5.84-3.72Z" style="fill:#4d4c4c"/><path d="M182.18,107.49h-1.81v-2.12h1.81V99.45h2.27v5.92H188v2.12h-3.59v9c0,2,.68,2.67,2.15,2.67a8.58,8.58,0,0,0,1.44-.09v2a4.5,4.5,0,0,1-1.72.25c-1.75,0-4.14-.61-4.14-4.79Z" style="fill:#4d4c4c"/><path d="M191.42,105.37h2.27V108a5,5,0,0,1,4.76-2.85,8,8,0,0,1,1,.06v2.45a6.74,6.74,0,0,0-1.54-.15,4.1,4.1,0,0,0-4.17,4.36v9h-2.27Z" style="fill:#4d4c4c"/><path d="M201.21,113.17c0-5,3.32-8.26,7.74-8.26s7.12,3.44,7.12,7.7c0,0,0,.53,0,1H203.48c.13,3.4,2.27,5.58,5.53,5.58a5.87,5.87,0,0,0,4.75-2.15l1.51,1.48a7.79,7.79,0,0,1-6.26,2.73c-4.61,0-7.8-3.13-7.8-7.95Zm12.43-1.57A4.65,4.65,0,0,0,209,107a5.15,5.15,0,0,0-5.31,4.57Z" style="fill:#4d4c4c"/><path d="M234.06,99.45h2.21L244.43,113l8.17-13.56h2.18v21.39h-2.37V104.17l-8,13.08-8-13v16.64h-2.36Z" style="fill:#4d4c4c"/><path d="M259.93,105.37h2.28v9.39c0,2.58,1.44,4.21,3.83,4.21a4.09,4.09,0,0,0,4.21-4.36v-9.24h2.27v11.88c0,1.35.31,1.93,1.17,1.93a7,7,0,0,0,.79-.06v1.72a3,3,0,0,1-1.44.24,2.44,2.44,0,0,1-1.9-.7,3,3,0,0,1-.71-1.54c-.7,1.08-2.24,2.24-4.94,2.24-3.44,0-5.56-2.36-5.56-5.83Z" style="fill:#4d4c4c"/><path d="M277.68,105.37H280V108a5.16,5.16,0,0,1,4.88-2.85c3.5,0,5.65,2.36,5.65,5.83v6.38c0,1.2.15,1.63,1.07,1.63a3.8,3.8,0,0,0,.58-.06v1.87a2.75,2.75,0,0,1-1,.15c-1.16,0-2.95-.31-2.95-3.44v-6c0-2.58-1.5-4.21-3.95-4.21a4.13,4.13,0,0,0-4.3,4.36v9.24h-2.27Z" style="fill:#4d4c4c"/><path d="M295.08,101.26a1.54,1.54,0,1,1,3.07,0,1.54,1.54,0,0,1-3.07,0Zm.4,4.11h2.27v12.16c0,1.13.28,1.62,1.17,1.62a7.36,7.36,0,0,0,.8-.06V121a3.34,3.34,0,0,1-1.45.25c-1.1,0-2.79-.31-2.79-3.29Z" style="fill:#4d4c4c"/><path d="M310,104.91a8,8,0,0,1,5.86,2.33l-1.38,1.6A6.1,6.1,0,0,0,310,107a6.08,6.08,0,0,0,0,12.15,6.1,6.1,0,0,0,4.48-1.81l1.38,1.6A8,8,0,0,1,310,121.3a8.2,8.2,0,1,1,0-16.39Z" style="fill:#4d4c4c"/><path d="M318.69,101.26a1.54,1.54,0,1,1,1.53,1.53A1.54,1.54,0,0,1,318.69,101.26Zm.4,4.11h2.27v12.16c0,1.13.28,1.62,1.16,1.62a7,7,0,0,0,.8-.06V121a3.32,3.32,0,0,1-1.44.25c-1.1,0-2.79-.31-2.79-3.29Z" style="fill:#4d4c4c"/><path d="M326.33,105.37h2.27v2.3a6,6,0,0,1,5.5-2.76,8.2,8.2,0,0,1,0,16.39,6,6,0,0,1-5.5-2.76v8.22h-2.27Zm7.77,13.81c3.19,0,5.55-2.61,5.55-6.07S337.29,107,334.1,107a6.08,6.08,0,0,0,0,12.15Z" style="fill:#4d4c4c"/><path d="M352.67,104.91a6,6,0,0,1,5.49,2.76v-2.3h2.27v12c0,1.35.31,1.94,1.17,1.94a7.2,7.2,0,0,0,.8-.07V121a3.32,3.32,0,0,1-1.44.25,2.75,2.75,0,0,1-1.63-.43,3,3,0,0,1-1.05-2.21,6.29,6.29,0,0,1-5.61,2.73,8.2,8.2,0,0,1,0-16.39Zm0,14.27a6.08,6.08,0,0,0,0-12.15c-3.19,0-5.56,2.61-5.56,6.08S349.48,119.18,352.67,119.18Z" style="fill:#4d4c4c"/><path d="M365.62,99.45h2.28v17.34c0,1.69.49,2.39,1.93,2.39a6.52,6.52,0,0,0,1.1-.06v1.93a2.92,2.92,0,0,1-1.41.25c-1.53,0-3.9-.37-3.9-4.36Z" style="fill:#4d4c4c"/><path d="M373.05,101.26a1.54,1.54,0,1,1,1.54,1.53A1.55,1.55,0,0,1,373.05,101.26Zm.4,4.11h2.27v12.16c0,1.13.28,1.62,1.17,1.62a7.36,7.36,0,0,0,.8-.06V121a3.37,3.37,0,0,1-1.45.25c-1.1,0-2.79-.31-2.79-3.29Z" style="fill:#4d4c4c"/><path d="M387.54,104.91a6,6,0,0,1,5.49,2.76V99.45h2.28v17.92c0,1.35.3,1.94,1.16,1.94a7,7,0,0,0,.8-.07V121a3.32,3.32,0,0,1-1.44.25,2.76,2.76,0,0,1-1.63-.43,2.93,2.93,0,0,1-1-2.21,6.32,6.32,0,0,1-5.62,2.73,8.2,8.2,0,0,1,0-16.39Zm0,14.27a6.08,6.08,0,0,0,0-12.15c-3.19,0-5.55,2.61-5.55,6.08S384.35,119.18,387.54,119.18Z" style="fill:#4d4c4c"/><path d="M407.16,104.91a6,6,0,0,1,5.49,2.76v-2.3h2.27v12c0,1.35.31,1.94,1.17,1.94a7.41,7.41,0,0,0,.8-.07V121a3.37,3.37,0,0,1-1.45.25,2.78,2.78,0,0,1-1.63-.43,3,3,0,0,1-1-2.21,6.31,6.31,0,0,1-5.61,2.73,8.2,8.2,0,0,1,0-16.39Zm0,14.27a6.08,6.08,0,0,0,0-12.15c-3.2,0-5.56,2.61-5.56,6.08S404,119.18,407.16,119.18Z" style="fill:#4d4c4c"/><path d="M426.77,104.91a6,6,0,0,1,5.5,2.76V99.45h2.27v17.92c0,1.35.3,1.94,1.16,1.94a7,7,0,0,0,.8-.07V121a3.32,3.32,0,0,1-1.44.25,2.76,2.76,0,0,1-1.63-.43,2.93,2.93,0,0,1-1-2.21,6.32,6.32,0,0,1-5.62,2.73,8.2,8.2,0,0,1,0-16.39Zm0,14.27a6.08,6.08,0,0,0,0-12.15c-3.19,0-5.56,2.61-5.56,6.08S423.58,119.18,426.77,119.18Z" style="fill:#4d4c4c"/><path d="M65.74,100.13a24.48,24.48,0,1,0,49,0V62.2h-49Zm34,12.58c-.37.08-5.43,0-5.43,0,.11-1.49,1-2,2.23-2.39.55-.18,4.31-1.11,3.88-2.95a5.77,5.77,0,0,1-6.67-6.19,5.19,5.19,0,0,0-2.83,6c-3.52,0-2,5.54-5.59,5.48-1,0-5.22,0-5.22,0a3.06,3.06,0,0,1,2.63-3.13c.63-.18,3.87.15,4.21-1.48.27-1.28-.09-3.45-2-3.39a10.29,10.29,0,0,1,5.87-8.63,9.21,9.21,0,0,1-5.67-5.45,10.5,10.5,0,0,0,3.65.64,9.94,9.94,0,0,0,6.31-2.1,10.74,10.74,0,0,0,4.47,6.72c-.74,3.11-.8,6.66,1.92,10C101.59,108.93,102.19,112.22,99.73,112.71ZM75.2,94.2a10.28,10.28,0,0,0,2.47-3.75,4.38,4.38,0,0,1,3.6-2.39A8.15,8.15,0,0,0,83.76,90a12.35,12.35,0,0,0,.76,1.93s-2.11.33-4.36.92C77.75,93.47,75.26,94.18,75.2,94.2Zm24-11.85c0-2.69,1.61-6.44,4.3-6.43a3.6,3.6,0,0,1,3.53,3.67,20.93,20.93,0,0,1-2.22,10.94,5.05,5.05,0,0,1-1.09-3.41,2.58,2.58,0,0,1,1.8-2.67,17,17,0,0,0,.29-4.81,2.34,2.34,0,0,0-2.31-2.46c-2.17,0-3.06,3.37-3.06,4.91a10.87,10.87,0,0,1,1.79,6.59,9.91,9.91,0,0,1-2.43,6,9.22,9.22,0,0,1-1-.86A8.92,8.92,0,0,0,101,87.59,10,10,0,0,0,99.22,82.35Zm-1-1.58a9.43,9.43,0,0,1-9.38,9.38c-5.15,0-7.82-3.63-12.37-9.18a10.49,10.49,0,0,1,8.68,2.32s2.65-1.49,3.74-2.23c0,0-.42-.62-.37-.77s.3-.22.65-.42c1.36-.79.79-2.47-.41-2.23a7.86,7.86,0,0,0-1.24.49,5.52,5.52,0,0,1-1.18-2.24c.11-.24,2-1,2.63-1.74A17.11,17.11,0,0,1,92.05,72,9.3,9.3,0,0,1,98.21,80.77ZM84.9,78.86c.25-.25,1.06.68,1.62.62s.92-.59,1.45-.84a2.45,2.45,0,0,1,1-.24.33.33,0,0,1,.33.33.29.29,0,0,1-.2.32,5.33,5.33,0,0,0-1.12.41c-.45.26-.87,1.08-1.81,1S84.54,79.23,84.9,78.86Zm5.68-12.35a4.32,4.32,0,0,1,.76-.06,5.7,5.7,0,0,1,.78.11,5.26,5.26,0,0,1-.13.73,4.78,4.78,0,0,1-.28.68L80.59,76.55l-1-1.52ZM78.37,75.42a2.58,2.58,0,0,1,1.17,2.14c0,1.16-2.34,2.16-3.25,2.16A.72.72,0,0,1,75.5,79C75.5,77.88,78.15,75.42,78.37,75.42ZM73.9,87.64a2.76,2.76,0,0,1,2.33,2.92C76,91.9,74.32,93.4,74,93.14S73.19,87.53,73.9,87.64Z" style="fill:#4d4c4c"/><path d="M84.82,46.2a51.85,51.85,0,0,0-16.76,4.68l3.07,6.59a44.41,44.41,0,0,1,14.45-4,46.05,46.05,0,0,1,4.69-.25,44.28,44.28,0,0,1,19,4.31l3.06-6.58a51.51,51.51,0,0,0-22.09-5A52.35,52.35,0,0,0,84.82,46.2Z" style="fill:#4d4c4c"/><path d="M90.22,39.83a3.3,3.3,0,1,0-3.29-3.3A3.29,3.29,0,0,0,90.22,39.83Z" style="fill:#4d4c4c"/><path d="M78.92,41a3.3,3.3,0,1,0-3.87-2.6A3.31,3.31,0,0,0,78.92,41Z" style="fill:#4d4c4c"/><path d="M101.52,40.94a3.29,3.29,0,1,0-2.58-3.88A3.28,3.28,0,0,0,101.52,40.94Z" style="fill:#4d4c4c"/><path d="M68.06,44.24a3.3,3.3,0,1,0-4.31-1.79A3.3,3.3,0,0,0,68.06,44.24Z" style="fill:#4d4c4c"/><path d="M114.91,38.15a3.29,3.29,0,1,0,1.78,4.31A3.29,3.29,0,0,0,114.91,38.15Z" style="fill:#4d4c4c"/><path d="M74.67,46.47a2.4,2.4,0,1,0-3-1.59A2.4,2.4,0,0,0,74.67,46.47Z" style="fill:#4d4c4c"/><path d="M85,44.42a2.4,2.4,0,1,0-2.63-2.15A2.4,2.4,0,0,0,85,44.42Z" style="fill:#4d4c4c"/><path d="M95.48,44.42a2.4,2.4,0,1,0-2.17-2.62A2.4,2.4,0,0,0,95.48,44.42Z" style="fill:#4d4c4c"/><path d="M104.17,43.48a2.4,2.4,0,1,0,3-1.61A2.4,2.4,0,0,0,104.17,43.48Z" style="fill:#4d4c4c"/></svg>