<svg xmlns="http://www.w3.org/2000/svg" viewBox="0 0 500 160"><path d="M140.32,125.82H113.66V44.59h26.66Z" style="fill:#4d4c4c"/><path d="M167.91,44.59H194.6v81.15H167.91Z" style="fill:#4d4c4c"/><path d="M31.66,99.08v26.64H5V99.08Z" style="fill:#4d4c4c"/><path d="M59.35,99H86v26.72H59.35Z" style="fill:#4d4c4c"/><path d="M59.29,71.32V44.68H86V71.32Z" style="fill:#4d4c4c"/><path d="M31.59,71.37H5V44.65H31.59Z" style="fill:#4d4c4c"/><path d="M307.46,92.4v33.06h-6.69V104.62l-.39-.12-8.44,13.73-8.34-13.57-.31,0v20.81h-6.67V92.42c2.31,0,4.56-.07,6.79.07.45,0,1,.78,1.27,1.31,2.42,4.1,4.79,8.23,7.34,12.62,1.2-2,2.27-3.88,3.33-5.71,1.38-2.37,2.69-4.79,4.16-7.1a2.88,2.88,0,0,1,1.9-1.16C303.36,92.3,305.33,92.4,307.46,92.4Z" style="fill:#4d4c4c"/><path d="M466.08,44.82c1.88,0,3.61-.1,5.32,0A2.63,2.63,0,0,1,473,46c4.11,5.72,8.16,11.48,12.23,17.23.37.52.75,1,1.43,2V45h6.66V78.08c-1.7,0-3.47.09-5.22-.06-.49,0-1-.77-1.35-1.27-4.17-5.83-8.3-11.67-12.44-17.52a5.85,5.85,0,0,0-1.57-1.63V78h-6.67Z" style="fill:#4d4c4c"/><path d="M284.73,78V44.83c1.92,0,3.81-.09,5.68.05.5,0,1,.69,1.39,1.18q6.13,8.59,12.22,17.23c.36.5.75,1,1.42,1.85V45h6.62V78.07c-1.75,0-3.52.1-5.27-.06-.48,0-1-.78-1.34-1.29-4.16-5.82-8.29-11.67-12.43-17.5-.4-.57-.82-1.14-1.56-2.17V78Z" style="fill:#4d4c4c"/><path d="M427.58,59.87a15.83,15.83,0,0,1,9.33-14c6-2.88,11.93-2.35,17.15,1.81,5.8,4.62,7.42,10.95,5.81,18-1.54,6.75-5.8,11.1-12.66,12.59C436.78,80.56,427.52,72.54,427.58,59.87Zm7.08,1.86c0,.28,0,.94.13,1.59a9.56,9.56,0,0,0,8.54,8.53c4.53.34,8.34-2.48,9.59-7.18a11.44,11.44,0,0,0-1.56-9.75,8.87,8.87,0,0,0-14.3-.7A11.13,11.13,0,0,0,434.66,61.73Z" style="fill:#4d4c4c"/><path d="M319.26,45.18c5.32,0,10.57-.56,15.65.13,8,1.08,13.07,8.24,12.79,16.85C347.45,70.31,341.8,77,334,77.75c-4.82.46-9.72.09-14.7.09Zm6.78,26c2.59,0,5.14.39,7.53-.08,5.63-1.1,8.53-7.42,6.41-13.52-2-5.64-6.68-7.1-13.94-6Z" style="fill:#4d4c4c"/><path d="M455.94,92.4l-12.55,14.08,13.15,19.13c-2.8,0-5.27,0-7.73-.06-.43,0-.9-.69-1.22-1.15-2.57-3.74-5.1-7.5-7.65-11.25-.33-.48-.68-1-1.1-1.53-2.11,2-4.21,3.7-3.73,7a50.46,50.46,0,0,1,.06,6.86h-6.66v-33h6.59v13.86l.61.42a8.39,8.39,0,0,1,.78-1.34c3.42-4,6.82-8,10.33-11.89a3.83,3.83,0,0,1,2.38-1.12C451.26,92.29,453.33,92.4,455.94,92.4Z" style="fill:#4d4c4c"/><path d="M271.52,44.89h6.59a7.06,7.06,0,0,1,.19,1.18c0,6.32.05,12.65-.09,19a19.06,19.06,0,0,1-1,5.58,10.38,10.38,0,0,1-8.76,7.49,23.55,23.55,0,0,1-8.12-.18c-5.32-1.16-8.61-5.75-8.82-12.24-.22-6.85-.05-13.71-.05-20.72h6.74v4.42c0,4.65,0,9.3,0,14a15.87,15.87,0,0,0,.25,2.84c.8,4,3.19,5.88,7.18,5.6,3.4-.24,5.69-2.65,5.84-6.5s.07-7.87.09-11.81Z" style="fill:#4d4c4c"/><path d="M333.1,92.48h6.62a12.38,12.38,0,0,1,.15,1.35c0,6.09.08,12.18-.06,18.26a20.41,20.41,0,0,1-1,6c-2,6-7.76,9-14.68,8-6.57-1-10.52-4.86-10.94-11.9s-.09-14.3-.09-21.59h6.67V94.4c0,5.43,0,10.86,0,16.29a16.86,16.86,0,0,0,.41,3.89c.79,3.21,3.07,4.87,6.41,4.83a5.9,5.9,0,0,0,6.14-4.92,17.19,17.19,0,0,0,.36-3.72C333.12,104.75,333.1,98.73,333.1,92.48Z" style="fill:#4d4c4c"/><path d="M494,96.24l-3.17,5c-2.52-1-4.84-2-7.25-2.72a4.22,4.22,0,0,0-3,.23,3.85,3.85,0,0,0-2,2.39,3.58,3.58,0,0,0,1.41,2.73,16,16,0,0,0,3.95,1.57c1.74.61,3.55,1.07,5.23,1.81,4.37,1.92,6.11,5,5.73,9.66a9.35,9.35,0,0,1-7.1,8.66c-5.67,1.68-12.93-.29-17.29-4.8l3.52-4.53c2.95,1.21,5.56,2.45,8.29,3.33a5.48,5.48,0,0,0,3.65-.29,4.67,4.67,0,0,0,2.12-2.51,2.31,2.31,0,0,0-1.58-2.86c-1.64-.69-3.35-1.23-5-1.82-1.18-.41-2.4-.73-3.56-1.19-4.68-1.86-6.5-4.72-6.22-9.67a9.53,9.53,0,0,1,7.36-8.85C484,91,490.48,92.67,494,96.24Z" style="fill:#4d4c4c"/><path d="M343,120.81l3.63-4.65c2.83,1.19,5.43,2.44,8.14,3.34a5.69,5.69,0,0,0,3.66-.23,4.66,4.66,0,0,0,2.2-2.44c.49-1.32-.35-2.46-1.62-3s-2.89-1.1-4.35-1.61-2.85-.85-4.23-1.4c-4.6-1.83-6.47-4.76-6.17-9.53a9.29,9.29,0,0,1,7.28-8.88c5.53-1.39,10.45.06,15,3.68l-3.36,5.25c-2.12-1-4.05-1.87-6-2.7a5.19,5.19,0,0,0-1.58-.28c-2.3-.24-4.14.69-4.56,2.28-.46,1.75.48,3.08,3,4,2,.71,4.11,1.22,6.12,1.94,5.64,2,7.77,5.17,7.27,10.6-.44,4.85-3.72,8.1-9.26,8.81C352.37,126.69,347.4,124.76,343,120.81Z" style="fill:#4d4c4c"/><path d="M408.93,49.34l-4.26,5.28c-.72-.56-1.35-1.08-2-1.56-6.07-4.47-13.69-1.43-14.7,6a15.22,15.22,0,0,0,.72,7c2.09,5.76,8.5,7.56,13.55,4.09.88-.61,1.67-1.33,2.65-2.11,1.37,1.5,2.73,3,4.21,4.56a14.82,14.82,0,0,1-9.71,5.8c-9.09,1.38-16.59-4.07-18.48-13.4s3.32-18.25,11.86-20.29C398.86,43.29,404.34,44.59,408.93,49.34Z" style="fill:#4d4c4c"/><path d="M222.19,44.89h23.34v6.5h-3.9c-3.64,0-7.28.07-10.92,0-1.54,0-2,.5-1.87,2,.11,1.65,0,3.31,0,5.18h14.71v6.68H228.92V78h-6.73Z" style="fill:#4d4c4c"/><path d="M425.3,125.63c-2.32,0-4.34.09-6.34-.07-.46,0-1-.85-1.26-1.42-2.68-7-5.3-13.92-7.94-20.88-.25-.66-.53-1.31-.93-2.3l-4.12,10.75c-1.56,4.12-3.17,8.23-4.63,12.39a2,2,0,0,1-2.35,1.56c-1.6-.09-3.21,0-5.1,0,.27-.78.44-1.37.67-1.94,3.94-10,7.91-19.94,11.81-29.93a2.19,2.19,0,0,1,2.45-1.67c4.5.09,4.5,0,6.18,4.26l10.8,27.25Z" style="fill:#4d4c4c"/><path d="M364,53.37l-7,18.39c-.67,1.78-1.3,3.59-2.08,5.33a1.94,1.94,0,0,1-1.38,1c-1.85.11-3.7,0-5.74,0,.24-.74.41-1.34.64-1.93,3.94-10,7.93-19.94,11.81-29.94a2.29,2.29,0,0,1,2.59-1.73c4.38.09,4.38,0,6,4.07l10.93,27.6c.21.54.38,1.1.66,1.91-2.27,0-4.33.09-6.38-.07-.44,0-1-.91-1.19-1.49-2.77-7.18-5.48-14.37-8.22-21.56C364.53,54.57,364.36,54.2,364,53.37Z" style="fill:#4d4c4c"/><path d="M385.77,125.53H379V99.14h-9.32V92.5h25.34V99h-9.28Z" style="fill:#4d4c4c"/><path d="M460.33,92.49H467v33h-6.62Z" style="fill:#4d4c4c"/><path d="M422.1,78h-6.56V45h6.56Z" style="fill:#4d4c4c"/><path d="M452.65,36.57c-2,1.84-3.52,3.78-5.51,5-1.36.81-3.34.57-5,.81l-.27-.54c1.56-2.62,3.11-5.25,4.76-8Z" style="fill:#4d4c4c"/><path d="M227.53,116.75l1.32,1.55,1.13-1.88c1.18,1.48-1.54,3.56,1.34,4.41l-.69.58-1.84-.81c-2,1.23-3.48,1.25-4.44,0s-.65-2.73,1.08-4.38c-.6-1.41-1.06-3,.72-3.8a2.69,2.69,0,0,1,2.47.58C229.85,114.47,228.81,115.69,227.53,116.75Zm.65,2.71-1.9-2.29c-1.21.7-1.68,1.62-.92,2.67S227.1,120.45,228.18,119.46Zm-2-3.89,1.17.26a18.34,18.34,0,0,0,.36-2.18,8.58,8.58,0,0,0-1.17-.26Z" style="fill:#4d4c4c"/><path d="M238.61,96.57c1.85.19,3.84-.67,5.1,1,.5.67.22,1.91.36,2.91.05,1.19.59,2.67.07,3.49-1.26,2-3.51,1-5.53,1.25Zm1,7.83c1.42-.4,2.55-.68,3.64-1.1a1.87,1.87,0,0,0-.07-1.21c-1.14-.35-2.32-.56-3.57-.83Zm0-3.72a31.85,31.85,0,0,0,3.22-1.12c.16-.07.11-1.17,0-1.22a31.62,31.62,0,0,0-3.18-.77Z" style="fill:#4d4c4c"/><path d="M243.13,115.77c-.69,1.07-1.38,2.14-2.2,3.43-.79-1.24-1.47-2.32-2.35-3.73-.13,2.22-.23,4.12-.33,6l-.69-.08v-8.58c2.08.55,1.94,3,3.38,4,1.42-1,1.34-3.38,3.35-4,.6,3.1.35,7.89-.64,8.86v-5.73Z" style="fill:#4d4c4c"/><path d="M262.13,97.4a18.4,18.4,0,0,1-1.92.34c-.76.06-1.52,0-2.41,0v2.44l3.86.3,0,.78-3.81.25V104h4.5a6.13,6.13,0,0,1-.68,1.21c-.13.13-.46,0-.69.06-4.43.28-4.43.28-4.43-4.13,0-5.13,0-5.13,5.41-4.39C262,97,262.07,97.18,262.13,97.4Z" style="fill:#4d4c4c"/><path d="M250.08,102l1.84,3-.3.38a6.39,6.39,0,0,1-1.3-.9c-.47-.53-.7-1.29-1.21-1.75a2.78,2.78,0,0,0-1.69-.57c-.18,0-.46.79-.56,1.25a17.23,17.23,0,0,0-.17,2c-1.07-.88-1.29-3.73-.87-8.43,2.32-.77,4.77-.38,5.55.89S251.76,100.41,250.08,102Zm-3.12-.76a29.21,29.21,0,0,0,3.47-1.32c.18-.09.06-1.44-.17-1.53a23.18,23.18,0,0,0-3.3-.77Z" style="fill:#4d4c4c"/><path d="M260.6,121.43c-2.67.24-2.12-4.22-5.16-3-.06,1-.12,2-.19,3-1.09-.51-1.35-3.61-.84-8.52a16.07,16.07,0,0,1,3.8.08,3.24,3.24,0,0,1,1.94,1.76c.52,1.39-.16,2.55-1.63,3.27Zm-4.87-7.76-.55.57c.24.94.19,2.31.79,2.69s1.87-.1,2.76-.45c.27-.11.43-1.43.28-1.51A30.24,30.24,0,0,0,255.73,113.67Z" style="fill:#4d4c4c"/><path d="M229.05,100.56c.63,3.26,0,4.45-2.32,4.77s-4.12-1.39-4.29-4c-.12-1.75.31-3.51,2-4.27,1-.47,2.45-.2,3.68-.11.25,0,.44.74.65,1.14a5.92,5.92,0,0,0-1.18-.13c-1,.07-2.52-.15-2.86.38a5.88,5.88,0,0,0-.84,3.73c.1.78,1.23,1.75,2.09,2,1.57.5,2.35-.53,2-2.37l-2-.43C226.7,100.35,226.7,100.35,229.05,100.56Z" style="fill:#4d4c4c"/><path d="M253.26,121.49c-1.91-.09-1.66-2.53-3.84-2.41-2,.12-2.22,1.85-3.44,2.5l-.43-.32c1-2.66,2.08-5.33,3.19-8,.06-.15,1.19-.11,1.27.08C251.11,116,252.12,118.61,253.26,121.49ZM248,118h2.76c-.45-1.17-.84-2.17-1.36-3.49C248.84,115.79,248.46,116.76,248,118Z" style="fill:#4d4c4c"/><path d="M230,105q1.53-3.9,3.07-7.78c.35-.89,1-1,1.36-.17,1.12,2.6,2.1,5.27,3.25,8.22-1.94-.15-1.66-2.58-3.86-2.47s-2.15,2-3.45,2.55Zm5.21-3.2-1.48-3.46c-.53,1.39-.91,2.36-1.34,3.46Z" style="fill:#4d4c4c"/><path d="M261.14,112.73c2.5.53,2.37,2.8,3.69,3.75,1.39-.83,1.24-3.15,3.56-3.78-1.24,3.12-4,5.29-2.85,8.84l-.88,0a23,23,0,0,0-.86-4.18A36.57,36.57,0,0,0,261.14,112.73Z" style="fill:#4d4c4c"/><path d="M264,105.25V96.7l.64,0c.7,2.3,0,4.8.43,7.38,1,0,2,0,3,0,.3,0,.58.37.87.57-.29.21-.57.57-.87.59C266.71,105.28,265.41,105.25,264,105.25Z" style="fill:#4d4c4c"/><path d="M254.42,105.35c-1.19-1.09-1.18-7.81,0-8.85Z" style="fill:#4d4c4c"/></svg>