<svg xmlns="http://www.w3.org/2000/svg" viewBox="0 0 500 160"><title>probono</title><path d="M131.45,90.49a9.88,9.88,0,0,0,6.44-2q2.46-2,2.46-6.16t-2.46-6.16a9.88,9.88,0,0,0-6.44-2H118.36V90.49Zm.84-19.58a15,15,0,0,1,4.87.75,10.28,10.28,0,0,1,3.75,2.24,9.81,9.81,0,0,1,2.4,3.61,14.19,14.19,0,0,1,0,9.62,9.81,9.81,0,0,1-2.4,3.61A10.28,10.28,0,0,1,137.16,93a14.94,14.94,0,0,1-4.87.76H118.36v17.12h-3.81V70.91Z" style="fill:#4f4c4d"/><path d="M167.82,89.87a10,10,0,0,0,3.3-.53,8.06,8.06,0,0,0,2.75-1.54,7.6,7.6,0,0,0,1.87-2.43,7.28,7.28,0,0,0,.7-3.27,7.88,7.88,0,0,0-2.12-5.82q-2.13-2.13-6.5-2.13H153.61V89.87Zm.28-19a17.33,17.33,0,0,1,4.67.61,11.28,11.28,0,0,1,3.86,1.87,9.19,9.19,0,0,1,2.64,3.25,10.47,10.47,0,0,1,1,4.67,11.28,11.28,0,0,1-2,6.61,9,9,0,0,1-5.82,3.58v.11a9,9,0,0,1,3.24,1,6.61,6.61,0,0,1,2.1,1.93A8.17,8.17,0,0,1,179,97.29a19.64,19.64,0,0,1,.47,3.33c0,.67.08,1.49.11,2.46s.11,2,.23,2.94a17.93,17.93,0,0,0,.53,2.79,5.37,5.37,0,0,0,1,2h-4.2a5,5,0,0,1-.53-1.37,12.8,12.8,0,0,1-.28-1.68c-.06-.58-.1-1.15-.14-1.71s-.07-1-.11-1.45q-.12-2.13-.36-4.23a11.64,11.64,0,0,0-1.07-3.75A6.63,6.63,0,0,0,172.27,94a7.06,7.06,0,0,0-4.22-.89H153.61v17.74H149.8V70.91Z" style="fill:#4f4c4d"/><path d="M189.67,97.29a17.26,17.26,0,0,0,2.69,5.65,13.55,13.55,0,0,0,4.67,4,14.38,14.38,0,0,0,6.83,1.51,14.23,14.23,0,0,0,6.8-1.51,13.63,13.63,0,0,0,4.64-4A17,17,0,0,0,218,97.29a24.12,24.12,0,0,0,0-12.84,17.13,17.13,0,0,0-2.68-5.63,13.63,13.63,0,0,0-4.64-4,14.35,14.35,0,0,0-6.8-1.51A14.5,14.5,0,0,0,197,74.82a13.55,13.55,0,0,0-4.67,4,17.35,17.35,0,0,0-2.69,5.63,24.12,24.12,0,0,0,0,12.84M186.18,83a19.55,19.55,0,0,1,3.52-6.63,17.12,17.12,0,0,1,5.9-4.59,18.84,18.84,0,0,1,8.26-1.7,18.63,18.63,0,0,1,8.22,1.7A17.14,17.14,0,0,1,218,76.36,19.74,19.74,0,0,1,221.49,83a27.19,27.19,0,0,1,0,15.78,19.41,19.41,0,0,1-3.53,6.6,17.07,17.07,0,0,1-5.88,4.56,18.63,18.63,0,0,1-8.22,1.71,18.84,18.84,0,0,1-8.26-1.71,17,17,0,0,1-5.9-4.56,19.22,19.22,0,0,1-3.52-6.6,27,27,0,0,1,0-15.78" style="fill:#4f4c4d"/><path d="M261,107.61a21.66,21.66,0,0,0,4-.36,9.1,9.1,0,0,0,3.36-1.32,6.72,6.72,0,0,0,2.3-2.54,8.68,8.68,0,0,0,.83-4,6.62,6.62,0,0,0-2.71-5.79q-2.72-1.93-7.81-1.94H248v16Zm0-19.19a13.41,13.41,0,0,0,4-.53,8.33,8.33,0,0,0,2.8-1.46,6,6,0,0,0,1.67-2.15,6.18,6.18,0,0,0,.56-2.63q0-7.5-9-7.5H248V88.42Zm0-17.51a24,24,0,0,1,4.85.47A12,12,0,0,1,270,73a8.64,8.64,0,0,1,2.82,3,9.3,9.3,0,0,1,1.07,4.67,9.6,9.6,0,0,1-.5,3,9.45,9.45,0,0,1-1.43,2.68,9.22,9.22,0,0,1-2.18,2,8.27,8.27,0,0,1-2.83,1.17v.11a9.49,9.49,0,0,1,6.16,3.16,9.78,9.78,0,0,1,2.29,6.58,16.06,16.06,0,0,1-.17,2.15,10.23,10.23,0,0,1-.67,2.47,11.07,11.07,0,0,1-1.45,2.49,8.82,8.82,0,0,1-2.55,2.15,15.42,15.42,0,0,1-3.92,1.51,23,23,0,0,1-5.57.59H244.15V70.91Z" style="fill:#4f4c4d"/><path d="M284,97.29a17.26,17.26,0,0,0,2.69,5.65,13.55,13.55,0,0,0,4.67,4,14.38,14.38,0,0,0,6.83,1.51,14.2,14.2,0,0,0,6.8-1.51,13.63,13.63,0,0,0,4.64-4,17.26,17.26,0,0,0,2.69-5.65,24.39,24.39,0,0,0,0-12.84,17.35,17.35,0,0,0-2.69-5.63,13.63,13.63,0,0,0-4.64-4,14.32,14.32,0,0,0-6.8-1.51,14.5,14.5,0,0,0-6.83,1.51,13.55,13.55,0,0,0-4.67,4A17.35,17.35,0,0,0,284,84.45a24.39,24.39,0,0,0,0,12.84M280.52,83A19.72,19.72,0,0,1,284,76.36,17,17,0,0,1,290,71.77a20.8,20.8,0,0,1,16.47,0,17,17,0,0,1,5.88,4.59A19.74,19.74,0,0,1,315.83,83a27.19,27.19,0,0,1,0,15.78,19.41,19.41,0,0,1-3.53,6.6,17,17,0,0,1-5.88,4.56,20.68,20.68,0,0,1-16.47,0,16.9,16.9,0,0,1-5.91-4.56,19.39,19.39,0,0,1-3.52-6.6,27,27,0,0,1,0-15.78" style="fill:#4f4c4d"/><polygon points="327.13 70.91 350.4 104.7 350.52 104.7 350.52 70.91 354.32 70.91 354.32 110.86 350.07 110.86 326.79 77.06 326.68 77.06 326.68 110.86 322.88 110.86 322.88 70.91 327.13 70.91" style="fill:#4f4c4d"/><path d="M364.87,97.29a17.06,17.06,0,0,0,2.69,5.65,13.55,13.55,0,0,0,4.67,4,14.35,14.35,0,0,0,6.83,1.51,14.19,14.19,0,0,0,6.79-1.51,13.57,13.57,0,0,0,4.65-4,17,17,0,0,0,2.68-5.65,24.12,24.12,0,0,0,0-12.84,17.13,17.13,0,0,0-2.68-5.63,13.57,13.57,0,0,0-4.65-4,14.3,14.3,0,0,0-6.79-1.51,14.47,14.47,0,0,0-6.83,1.51,13.55,13.55,0,0,0-4.67,4,17.15,17.15,0,0,0-2.69,5.63,24.12,24.12,0,0,0,0,12.84M361.37,83a19.74,19.74,0,0,1,3.53-6.63,17,17,0,0,1,5.9-4.59,18.84,18.84,0,0,1,8.26-1.7,18.63,18.63,0,0,1,8.22,1.7,17.14,17.14,0,0,1,5.88,4.59A19.72,19.72,0,0,1,396.68,83a27,27,0,0,1,0,15.78,19.39,19.39,0,0,1-3.52,6.6,17.07,17.07,0,0,1-5.88,4.56,18.63,18.63,0,0,1-8.22,1.71,18.84,18.84,0,0,1-8.26-1.71,17,17,0,0,1-5.9-4.56,19.41,19.41,0,0,1-3.53-6.6,27.19,27.19,0,0,1,0-15.78" style="fill:#4f4c4d"/><polygon points="133.82 27.07 133.82 29.45 118.03 29.45 118.03 40.03 132.06 40.03 132.06 42.41 118.03 42.41 118.03 56.36 115.24 56.36 115.24 27.07 133.82 27.07" style="fill:#4f4c4d"/><path d="M151.54,56.36V52.54h-.08a7.37,7.37,0,0,1-3,3.26,8.39,8.39,0,0,1-4.32,1.13,9.67,9.67,0,0,1-3.43-.55,5.69,5.69,0,0,1-2.29-1.58,6.54,6.54,0,0,1-1.3-2.5,12.8,12.8,0,0,1-.41-3.37V35.19h2.59V49a6.87,6.87,0,0,0,1.33,4.35c.83,1,2.28,1.48,4.33,1.48a5.44,5.44,0,0,0,2.87-.72,6.09,6.09,0,0,0,2-1.91A8.41,8.41,0,0,0,151,49.45a13.28,13.28,0,0,0,.37-3.14V35.19h2.59V56.36Z" style="fill:#4f4c4d"/><path d="M161.34,35.19v3.65h.08a6.2,6.2,0,0,1,2.63-3.09,7.69,7.69,0,0,1,4.14-1.17,10.48,10.48,0,0,1,3.71.57,5.89,5.89,0,0,1,2.4,1.62,6,6,0,0,1,1.27,2.57,14.17,14.17,0,0,1,.37,3.4V56.36h-2.58V43.15a11.83,11.83,0,0,0-.25-2.52,5.24,5.24,0,0,0-.86-2,4,4,0,0,0-1.66-1.35,6.1,6.1,0,0,0-2.61-.5,6.54,6.54,0,0,0-2.76.56,6,6,0,0,0-2.05,1.51,7.21,7.21,0,0,0-1.32,2.3,9.56,9.56,0,0,0-.51,2.89V56.36h-2.58V35.19Z" style="fill:#4f4c4d"/><path d="M182.89,49a8.84,8.84,0,0,0,1.24,2.89A6.65,6.65,0,0,0,186.28,54a5.94,5.94,0,0,0,3.15.8,7,7,0,0,0,3.47-.8,6.83,6.83,0,0,0,2.29-2.07A8.32,8.32,0,0,0,196.47,49a13.82,13.82,0,0,0,0-6.52,8.28,8.28,0,0,0-1.28-2.9,6.61,6.61,0,0,0-5.76-2.87,5.94,5.94,0,0,0-3.15.8,6.76,6.76,0,0,0-2.15,2.07,8.81,8.81,0,0,0-1.24,2.9,13.82,13.82,0,0,0,0,6.52m14.17,7.32v-4H197a6,6,0,0,1-1.21,1.88A7.79,7.79,0,0,1,194,55.68a9.48,9.48,0,0,1-2.2.92,8.5,8.5,0,0,1-2.32.33,9.35,9.35,0,0,1-4.2-.88,8.35,8.35,0,0,1-3-2.42,10.48,10.48,0,0,1-1.77-3.57,16.39,16.39,0,0,1,0-8.57,10.48,10.48,0,0,1,1.77-3.57,8.62,8.62,0,0,1,3-2.44,9.22,9.22,0,0,1,4.2-.9,9.89,9.89,0,0,1,2.32.28,8.08,8.08,0,0,1,2.12.89,7.55,7.55,0,0,1,1.74,1.45,6.47,6.47,0,0,1,1.17,2h.08V27.07h2.58V56.36Z" style="fill:#4f4c4d"/><path d="M217.82,44.79a1.52,1.52,0,0,1-.95.66,9.85,9.85,0,0,1-1.23.28c-1.09.2-2.22.37-3.38.52a18.73,18.73,0,0,0-3.18.67,6.24,6.24,0,0,0-2.36,1.3,3.1,3.1,0,0,0-.92,2.4,3.78,3.78,0,0,0,.39,1.74,4.28,4.28,0,0,0,1,1.31,4.6,4.6,0,0,0,1.52.84,5.64,5.64,0,0,0,1.76.29,9,9,0,0,0,2.84-.45A7,7,0,0,0,215.7,53a6.38,6.38,0,0,0,1.6-2.1,6.28,6.28,0,0,0,.6-2.79V44.79ZM204.9,38.47a6,6,0,0,1,1.78-2.21A7.5,7.5,0,0,1,209.33,35a13,13,0,0,1,3.36-.41,14.65,14.65,0,0,1,2.79.27,6.71,6.71,0,0,1,2.5,1,5.48,5.48,0,0,1,1.81,2.07,7.57,7.57,0,0,1,.69,3.47V52.63A1.37,1.37,0,0,0,222,54.19a2,2,0,0,0,.82-.17v2.17c-.3.06-.57.1-.8.13s-.53,0-.88,0a3.87,3.87,0,0,1-1.58-.27,2,2,0,0,1-.92-.76,2.88,2.88,0,0,1-.44-1.17,11.27,11.27,0,0,1-.1-1.49H218a17.7,17.7,0,0,1-1.41,1.82,7.17,7.17,0,0,1-1.6,1.33,7.25,7.25,0,0,1-2,.82,10.6,10.6,0,0,1-2.69.29,10.72,10.72,0,0,1-2.77-.35,6.08,6.08,0,0,1-2.25-1.11,5.15,5.15,0,0,1-1.52-1.92,6.43,6.43,0,0,1-.56-2.77,5.47,5.47,0,0,1,1-3.47,6.16,6.16,0,0,1,2.6-1.9,14.88,14.88,0,0,1,3.65-.93c1.36-.18,2.73-.35,4.13-.51.54,0,1-.12,1.43-.2a2.61,2.61,0,0,0,1-.44,2,2,0,0,0,.63-.84,3.6,3.6,0,0,0,.23-1.39,4.81,4.81,0,0,0-.43-2.15,3.51,3.51,0,0,0-1.19-1.34,4.94,4.94,0,0,0-1.77-.67,11.24,11.24,0,0,0-2.15-.19,6.52,6.52,0,0,0-4,1.17,4.59,4.59,0,0,0-1.64,3.75h-2.58a8.6,8.6,0,0,1,.78-3.2" style="fill:#4f4c4d"/><path d="M238.61,38.11a5.61,5.61,0,0,0-4-1.36,6.53,6.53,0,0,0-3.24.78,7.14,7.14,0,0,0-2.32,2,9.33,9.33,0,0,0-1.39,2.89,11.86,11.86,0,0,0,0,6.61A9.33,9.33,0,0,0,229,52,7.14,7.14,0,0,0,231.35,54a6.53,6.53,0,0,0,3.24.78,5.77,5.77,0,0,0,2.26-.45,6.12,6.12,0,0,0,1.88-1.25,6.59,6.59,0,0,0,1.35-1.91,7,7,0,0,0,.66-2.42h2.58a9.75,9.75,0,0,1-2.82,6,8.35,8.35,0,0,1-5.91,2.15,9.83,9.83,0,0,1-4.28-.88,9,9,0,0,1-3.14-2.4,10.41,10.41,0,0,1-1.93-3.55,14.5,14.5,0,0,1,0-8.65,10.51,10.51,0,0,1,1.93-3.55,9.22,9.22,0,0,1,3.14-2.42,9.69,9.69,0,0,1,4.28-.9,9.21,9.21,0,0,1,5.76,1.8,7.74,7.74,0,0,1,2.81,5.46h-2.58a7.09,7.09,0,0,0-2-3.73" style="fill:#4f4c4d"/><path d="M249.56,56.36H247V35.19h2.58Zm0-25.14H247V27.07h2.58Z" style="fill:#4f4c4d"/><path d="M261,32.24l4.31-5.78h3.2l-5.41,5.78Zm-.82,5.29a7.12,7.12,0,0,0-2.31,2,9.35,9.35,0,0,0-1.4,2.89,11.86,11.86,0,0,0,0,6.61,9.35,9.35,0,0,0,1.4,2.89A7,7,0,0,0,260.22,54a7.12,7.12,0,0,0,6.48,0A7,7,0,0,0,269,52a9.11,9.11,0,0,0,1.39-2.89,11.62,11.62,0,0,0,0-6.61A9.11,9.11,0,0,0,269,39.58a7.16,7.16,0,0,0-2.32-2,7.12,7.12,0,0,0-6.48,0m7.53-2.05a9.41,9.41,0,0,1,3.14,2.42,10.51,10.51,0,0,1,1.93,3.55,14.71,14.71,0,0,1,0,8.65,10.41,10.41,0,0,1-1.93,3.55,9.23,9.23,0,0,1-3.14,2.4,10.87,10.87,0,0,1-8.57,0,9.14,9.14,0,0,1-3.14-2.4,10.41,10.41,0,0,1-1.93-3.55,14.71,14.71,0,0,1,0-8.65A10.51,10.51,0,0,1,256,37.9a9.31,9.31,0,0,1,3.14-2.42,10.65,10.65,0,0,1,8.57,0" style="fill:#4f4c4d"/><path d="M279.87,35.19v3.65H280a6.23,6.23,0,0,1,2.62-3.09,7.72,7.72,0,0,1,4.15-1.17,10.52,10.52,0,0,1,3.71.57,5.89,5.89,0,0,1,2.4,1.62,6.15,6.15,0,0,1,1.27,2.57,14.17,14.17,0,0,1,.37,3.4V56.36h-2.59V43.15a11.85,11.85,0,0,0-.24-2.52,5.4,5.4,0,0,0-.86-2,4,4,0,0,0-1.66-1.35,6.1,6.1,0,0,0-2.61-.5,6.59,6.59,0,0,0-2.77.56,6.07,6.07,0,0,0-2.05,1.51,7.19,7.19,0,0,0-1.31,2.3,9.56,9.56,0,0,0-.51,2.89V56.36h-2.59V35.19Z" style="fill:#4f4c4d"/><path d="M115.43,122.89h5.25v1h-4.09v2.61h3.9v1h-3.9v2.79h4.19v1h-5.35Z" style="fill:#4f4c4d"/><path d="M122.68,122.9h1.09v8.36h-1.09Z" style="fill:#4f4c4d"/><path d="M134.14,125.15a1.58,1.58,0,0,0-1.8-1.45c-2,0-2.38,2.06-2.38,3.45,0,1.58.45,3.28,2.36,3.28a1.79,1.79,0,0,0,1.36-.5,1.69,1.69,0,0,0,.41-.88h1.27c-.17,1.65-1.69,2.33-3.13,2.33-2.94,0-3.51-2.59-3.51-4.21,0-1.77.68-4.4,3.66-4.4,1.18,0,2.85.48,3,2.38Z" style="fill:#4f4c4d"/><path d="M139.36,125.29a2.74,2.74,0,0,1,2.85,3,2.83,2.83,0,0,1-2.94,3.11,2.73,2.73,0,0,1-2.86-3A2.81,2.81,0,0,1,139.36,125.29Zm-.07,5.35c.82,0,1.76-.59,1.76-2.34,0-1.45-.67-2.21-1.69-2.21-.69,0-1.82.44-1.82,2.26C137.54,129.54,138.05,130.64,139.29,130.64Z" style="fill:#4f4c4d"/><path d="M143.91,126.22l0-.78H145v.84a2,2,0,0,1,1.85-1,1.85,1.85,0,0,1,1.9,1.09,2.07,2.07,0,0,1,2-1.09,1.93,1.93,0,0,1,2.13,2.06v3.91h-1.1v-3.74a1.38,1.38,0,0,0-.2-.88,1.31,1.31,0,0,0-1.11-.51,1.48,1.48,0,0,0-1.24.62,2.35,2.35,0,0,0-.26,1.25v3.26h-1.1v-3.85a1.18,1.18,0,0,0-1.27-1.28,1.6,1.6,0,0,0-1.28.64A2.06,2.06,0,0,0,145,128v3.31h-1.1Z" style="fill:#4f4c4d"/><path d="M154.83,126.39c0-.26,0-.4,0-1h1.1l0,1a2.25,2.25,0,0,1,2-1.06c1.25,0,2.44.86,2.44,3s-1.26,3.12-2.65,3.12a2,2,0,0,1-1.79-.87v2.88h-1.07Zm2.67,4.29a1.49,1.49,0,0,0,1.23-.57,3.25,3.25,0,0,0,.48-1.82c0-1-.31-2.13-1.6-2.13-1.74,0-1.74,1.84-1.74,2.36C155.87,129.23,156,130.68,157.5,130.68Z" style="fill:#4f4c4d"/><path d="M162,126.62a11.51,11.51,0,0,0-.06-1.18h1.11l0,1.12a1.55,1.55,0,0,1,1.39-1.14,3.41,3.41,0,0,1,.75,0v1.07a.53.53,0,0,0-.2,0h-.32c-1.28,0-1.59.77-1.59,1.76v3.1H162Z" style="fill:#4f4c4d"/><path d="M169,125.29a2.74,2.74,0,0,1,2.85,3,2.83,2.83,0,0,1-2.94,3.11,2.74,2.74,0,0,1-2.86-3A2.81,2.81,0,0,1,169,125.29Zm-.07,5.35c.83,0,1.76-.59,1.76-2.34,0-1.45-.67-2.21-1.69-2.21-.69,0-1.82.44-1.82,2.26C167.16,129.54,167.67,130.64,168.91,130.64Z" style="fill:#4f4c4d"/><path d="M173.53,126.22l0-.78h1.1v.84a2,2,0,0,1,1.85-1,1.85,1.85,0,0,1,1.9,1.09,2.08,2.08,0,0,1,2-1.09,1.93,1.93,0,0,1,2.13,2.06v3.91h-1.1v-3.74a1.38,1.38,0,0,0-.2-.88,1.31,1.31,0,0,0-1.11-.51,1.48,1.48,0,0,0-1.24.62,2.35,2.35,0,0,0-.26,1.25v3.26h-1.1v-3.85a1.18,1.18,0,0,0-1.27-1.28,1.6,1.6,0,0,0-1.28.64,2.06,2.06,0,0,0-.25,1.18v3.31h-1.1Z" style="fill:#4f4c4d"/><path d="M184.38,122.91h1.31v1.19h-1.31Zm.11,2.53h1.09v5.82h-1.09Z" style="fill:#4f4c4d"/><path d="M188.33,129.53c0,.44.22,1.05,1.28,1.05a1.2,1.2,0,0,0,1-.37.92.92,0,0,0,.18-.54c0-.57-.4-.67-1.27-.87-1.22-.28-2.24-.52-2.24-1.74s.93-1.76,2.27-1.76a2.37,2.37,0,0,1,2.1.9,1.89,1.89,0,0,1,.15.85h-1.11c0-.88-.73-1-1.13-1-.16,0-1.18,0-1.18.83,0,.54.52.66.82.74,1.61.39,2,.48,2.31.8a1.48,1.48,0,0,1,.44,1.08,1.75,1.75,0,0,1-.79,1.47,3.19,3.19,0,0,1-1.72.4c-1.19,0-2.29-.49-2.28-1.89Z" style="fill:#4f4c4d"/><path d="M196,125.29a2.74,2.74,0,0,1,2.85,3,2.83,2.83,0,0,1-2.94,3.11,2.74,2.74,0,0,1-2.87-3A2.82,2.82,0,0,1,196,125.29Zm-.07,5.35c.82,0,1.76-.59,1.76-2.34,0-1.45-.67-2.21-1.69-2.21-.7,0-1.82.44-1.82,2.26C194.21,129.54,194.72,130.64,196,130.64Z" style="fill:#4f4c4d"/><path d="M207.84,122.9h1.09v7.43c0,.13,0,.63,0,.93h-1.09l0-.93a1.71,1.71,0,0,1-.53.61,2.57,2.57,0,0,1-1.43.43c-.78,0-2.51-.4-2.51-3,0-2.22,1.27-3.18,2.63-3.18a1.86,1.86,0,0,1,1.81,1Zm-.4,3.74a1.6,1.6,0,0,0-1.28-.59c-1.6,0-1.6,1.94-1.6,2.33,0,1,.27,2.23,1.6,2.23,1.72,0,1.72-1.89,1.72-2.34A2.54,2.54,0,0,0,207.44,126.64Z" style="fill:#4f4c4d"/><path d="M211.55,128.54c0,1.21.48,2.1,1.67,2.1a1.26,1.26,0,0,0,1.37-1.2h1.09a2,2,0,0,1-.5,1.21,2.5,2.5,0,0,1-2,.78c-1.83,0-2.7-1.14-2.7-3a3,3,0,0,1,1.15-2.73,2.76,2.76,0,0,1,1.59-.43c2.61,0,2.55,2.3,2.53,3.25Zm3.07-.76c0-.56-.09-1.72-1.43-1.72a1.56,1.56,0,0,0-1.59,1.72Z" style="fill:#4f4c4d"/><path d="M220.58,122.9h1.09v8.36h-1.09Z" style="fill:#4f4c4d"/><path d="M226.31,125.29a2.74,2.74,0,0,1,2.85,3,2.83,2.83,0,0,1-2.94,3.11,2.74,2.74,0,0,1-2.87-3A2.82,2.82,0,0,1,226.31,125.29Zm-.07,5.35c.82,0,1.76-.59,1.76-2.34,0-1.45-.67-2.21-1.69-2.21-.69,0-1.82.44-1.82,2.26C224.49,129.54,225,130.64,226.24,130.64Z" style="fill:#4f4c4d"/><path d="M231.49,129.53c0,.44.22,1.05,1.28,1.05a1.19,1.19,0,0,0,1-.37.92.92,0,0,0,.18-.54c0-.57-.4-.67-1.27-.87-1.22-.28-2.24-.52-2.24-1.74s.93-1.76,2.27-1.76a2.37,2.37,0,0,1,2.1.9,1.89,1.89,0,0,1,.15.85h-1.11c0-.88-.73-1-1.13-1-.16,0-1.18,0-1.18.83,0,.54.52.66.83.74,1.61.39,2,.48,2.3.8a1.44,1.44,0,0,1,.44,1.08,1.75,1.75,0,0,1-.79,1.47,3.19,3.19,0,0,1-1.72.4c-1.19,0-2.29-.49-2.27-1.89Z" style="fill:#4f4c4d"/><path d="M241.92,122.89h1.24l3.38,8.37h-1.26l-.91-2.18h-3.88l-.9,2.18h-1.2Zm-1.06,5.25H244l-1.55-4.1Z" style="fill:#4f4c4d"/><path d="M248.77,126.28a2,2,0,0,1,1.9-1,2.38,2.38,0,0,1,1.84.74,3,3,0,0,1,.69,2.19,3.35,3.35,0,0,1-.56,2.12,2.46,2.46,0,0,1-2,1,2.35,2.35,0,0,1-1.3-.37,2,2,0,0,1-.57-.59l0,.88h-1.05l0-1v-7.32h1.09Zm1.65-.25c-1.67,0-1.67,2-1.67,2.32s0,2.2,1.62,2.2c1.34,0,1.68-1.31,1.68-2.26C252.05,127.71,251.93,126,250.42,126Z" style="fill:#4f4c4d"/><path d="M257.29,125.29a2.74,2.74,0,0,1,2.85,3,2.83,2.83,0,0,1-2.94,3.11,2.74,2.74,0,0,1-2.87-3A2.82,2.82,0,0,1,257.29,125.29Zm-.07,5.35c.82,0,1.76-.59,1.76-2.34,0-1.45-.67-2.21-1.69-2.21-.7,0-1.82.44-1.82,2.26C255.47,129.54,256,130.64,257.22,130.64Z" style="fill:#4f4c4d"/><path d="M262.89,131.71c.05.65.32,1.14,1.36,1.14,1.51,0,1.54-1.11,1.54-2.68a2,2,0,0,1-1.92,1,2.22,2.22,0,0,1-1.78-.72,3.23,3.23,0,0,1-.66-2.14c0-2,1.16-2.93,2.58-2.93a2.07,2.07,0,0,1,1.84.88v-.8h1.05l0,1v3.64a5.38,5.38,0,0,1-.28,2.41,2.56,2.56,0,0,1-2.42,1.05c-2.33,0-2.4-1.09-2.45-1.88Zm2.54-2c.23-.3.39-.61.39-1.67a1.93,1.93,0,0,0-.45-1.45,1.72,1.72,0,0,0-1.25-.51c-1.38,0-1.57,1.39-1.57,2.14s.27,2.07,1.6,2.07A1.47,1.47,0,0,0,265.43,129.76Z" style="fill:#4f4c4d"/><path d="M272.25,131.26a3.19,3.19,0,0,1-.11-.87,1.88,1.88,0,0,1-1.79,1.05c-1.34,0-2.06-.75-2.06-1.71a1.94,1.94,0,0,1,1-1.71,4.53,4.53,0,0,1,2-.38c.28,0,.45,0,.79,0,0-.71,0-1-.21-1.28a1.32,1.32,0,0,0-1-.38c-1.1,0-1.16.75-1.17,1h-1.09a1.86,1.86,0,0,1,.41-1.1,2.61,2.61,0,0,1,1.88-.63,2.34,2.34,0,0,1,2.06.86,1.69,1.69,0,0,1,.2.89l-.05,2.79a13.57,13.57,0,0,0,.09,1.46Zm-.76-2.87c-.44,0-2.09,0-2.09,1.19,0,.37.23,1,1.2,1a1.39,1.39,0,0,0,1.24-.62,2.65,2.65,0,0,0,.28-1.53A5.41,5.41,0,0,0,271.49,128.39Z" style="fill:#4f4c4d"/><path d="M279.18,122.9h1.09v7.43c0,.13,0,.63.05.93h-1.09l0-.93a1.66,1.66,0,0,1-.52.61,2.58,2.58,0,0,1-1.44.43c-.77,0-2.5-.4-2.5-3,0-2.22,1.26-3.18,2.63-3.18a1.87,1.87,0,0,1,1.81,1Zm-.41,3.74a1.58,1.58,0,0,0-1.27-.59c-1.6,0-1.6,1.94-1.6,2.33,0,1,.27,2.23,1.6,2.23,1.72,0,1.72-1.89,1.72-2.34A2.48,2.48,0,0,0,278.77,126.64Z" style="fill:#4f4c4d"/><path d="M284.76,125.29a2.74,2.74,0,0,1,2.85,3,2.83,2.83,0,0,1-2.95,3.11,2.74,2.74,0,0,1-2.86-3A2.82,2.82,0,0,1,284.76,125.29Zm-.07,5.35c.82,0,1.76-.59,1.76-2.34,0-1.45-.67-2.21-1.69-2.21-.7,0-1.82.44-1.82,2.26C282.94,129.54,283.45,130.64,284.69,130.64Z" style="fill:#4f4c4d"/><path d="M289.94,129.53c0,.44.22,1.05,1.27,1.05a1.18,1.18,0,0,0,1-.37.87.87,0,0,0,.19-.54c0-.57-.41-.67-1.27-.87-1.22-.28-2.24-.52-2.24-1.74s.93-1.76,2.27-1.76a2.37,2.37,0,0,1,2.1.9,1.89,1.89,0,0,1,.15.85h-1.11c0-.88-.73-1-1.13-1-.16,0-1.18,0-1.18.83,0,.54.52.66.82.74,1.61.39,2,.48,2.31.8a1.48,1.48,0,0,1,.44,1.08,1.75,1.75,0,0,1-.79,1.47,3.21,3.21,0,0,1-1.73.4c-1.18,0-2.28-.49-2.27-1.89Z" style="fill:#4f4c4d"/><path d="M301.65,127.3a1.16,1.16,0,0,0-1.16-1.21c-1.51,0-1.51,1.75-1.51,2.19,0,1.19.29,2.3,1.45,2.3a1.2,1.2,0,0,0,1.26-1.26h1.11a2.21,2.21,0,0,1-2.36,2.09,2.6,2.6,0,0,1-1.91-.76,3.12,3.12,0,0,1-.7-2.22c0-2.42,1.49-3.14,2.65-3.14a2.34,2.34,0,0,1,1.78.72,2,2,0,0,1,.49,1.29Z" style="fill:#4f4c4d"/><path d="M306.66,125.29a2.74,2.74,0,0,1,2.85,3,2.83,2.83,0,0,1-2.95,3.11,2.74,2.74,0,0,1-2.86-3A2.82,2.82,0,0,1,306.66,125.29Zm-.07,5.35c.82,0,1.76-.59,1.76-2.34,0-1.45-.67-2.21-1.69-2.21-.7,0-1.82.44-1.82,2.26C304.84,129.54,305.35,130.64,306.59,130.64Z" style="fill:#4f4c4d"/><path d="M311.25,126.11v-.67h1.09v.94a1.87,1.87,0,0,1,1.86-1.06,1.94,1.94,0,0,1,2.11,2v4H315.2v-3.7a1.35,1.35,0,0,0-.31-1,1.52,1.52,0,0,0-1-.39,1.55,1.55,0,0,0-1.52,1.74v3.35h-1.09Z" style="fill:#4f4c4d"/><path d="M321.54,122.9h1.09v8.36h-1.09Z" style="fill:#4f4c4d"/><path d="M328.29,131.26a3.19,3.19,0,0,1-.11-.87,1.87,1.87,0,0,1-1.79,1.05c-1.33,0-2.05-.75-2.05-1.71a1.91,1.91,0,0,1,1-1.71,4.47,4.47,0,0,1,2-.38c.28,0,.46,0,.79,0,0-.71,0-1-.21-1.28a1.32,1.32,0,0,0-1-.38c-1.11,0-1.16.75-1.18,1h-1.09a1.86,1.86,0,0,1,.41-1.1,2.61,2.61,0,0,1,1.88-.63,2.34,2.34,0,0,1,2.06.86,1.69,1.69,0,0,1,.2.89l-.05,2.79a13.57,13.57,0,0,0,.09,1.46Zm-.75-2.87c-.44,0-2.1,0-2.1,1.19,0,.37.23,1,1.2,1a1.39,1.39,0,0,0,1.24-.62,2.65,2.65,0,0,0,.28-1.53A5.23,5.23,0,0,0,327.54,128.39Z" style="fill:#4f4c4d"/><path d="M339.45,125.15a1.58,1.58,0,0,0-1.8-1.45c-2,0-2.38,2.06-2.38,3.45,0,1.58.45,3.28,2.36,3.28a1.79,1.79,0,0,0,1.36-.5,1.69,1.69,0,0,0,.41-.88h1.27c-.17,1.65-1.69,2.33-3.13,2.33-2.94,0-3.51-2.59-3.51-4.21,0-1.77.68-4.4,3.66-4.4,1.18,0,2.85.48,3,2.38Z" style="fill:#4f4c4d"/><path d="M344.67,125.29a2.74,2.74,0,0,1,2.85,3,2.83,2.83,0,0,1-2.94,3.11,2.74,2.74,0,0,1-2.87-3A2.82,2.82,0,0,1,344.67,125.29Zm-.07,5.35c.83,0,1.76-.59,1.76-2.34,0-1.45-.67-2.21-1.69-2.21-.69,0-1.82.44-1.82,2.26C342.85,129.54,343.36,130.64,344.6,130.64Z" style="fill:#4f4c4d"/><path d="M349.22,126.22l0-.78h1.11v.84a2,2,0,0,1,1.84-1,1.85,1.85,0,0,1,1.9,1.09,2.08,2.08,0,0,1,2-1.09,1.93,1.93,0,0,1,2.13,2.06v3.91H357v-3.74a1.38,1.38,0,0,0-.2-.88,1.31,1.31,0,0,0-1.11-.51,1.48,1.48,0,0,0-1.24.62,2.35,2.35,0,0,0-.26,1.25v3.26h-1.1v-3.85a1.18,1.18,0,0,0-1.27-1.28,1.6,1.6,0,0,0-1.28.64,2.06,2.06,0,0,0-.25,1.18v3.31h-1.1Z" style="fill:#4f4c4d"/><path d="M361.17,125.44v3.74c0,.57.13,1.29,1.24,1.29a1.6,1.6,0,0,0,1.37-.65,1.91,1.91,0,0,0,.24-1.09v-3.29h1.13v4.73c0,.11,0,.76,0,1.09H364l0-1a1.81,1.81,0,0,1-1.85,1.05,1.86,1.86,0,0,1-2.11-2v-3.9Z" style="fill:#4f4c4d"/><path d="M367.29,126.11v-.67h1.09v.94a1.89,1.89,0,0,1,1.87-1.06,1.94,1.94,0,0,1,2.1,2v4h-1.11v-3.7a1.31,1.31,0,0,0-.31-1,1.52,1.52,0,0,0-1-.39,1.55,1.55,0,0,0-1.52,1.74v3.35h-1.09Z" style="fill:#4f4c4d"/><path d="M374.23,122.91h1.31v1.19h-1.31Zm.12,2.53h1.09v5.82h-1.09Z" style="fill:#4f4c4d"/><path d="M381.59,122.9h1.09v7.43c0,.13,0,.63.05.93h-1.09l0-.93a1.77,1.77,0,0,1-.52.61,2.63,2.63,0,0,1-1.44.43c-.78,0-2.5-.4-2.5-3,0-2.22,1.26-3.18,2.63-3.18a1.84,1.84,0,0,1,1.8,1Zm-.4,3.74a1.58,1.58,0,0,0-1.28-.59c-1.59,0-1.59,1.94-1.59,2.33,0,1,.26,2.23,1.59,2.23,1.72,0,1.72-1.89,1.72-2.34A2.54,2.54,0,0,0,381.19,126.64Z" style="fill:#4f4c4d"/><path d="M388.19,131.26a3.19,3.19,0,0,1-.1-.87,1.88,1.88,0,0,1-1.8,1.05c-1.33,0-2.05-.75-2.05-1.71a1.91,1.91,0,0,1,1-1.71,4.49,4.49,0,0,1,2-.38c.27,0,.45,0,.79,0,0-.71,0-1-.21-1.28a1.35,1.35,0,0,0-1-.38c-1.1,0-1.16.75-1.17,1h-1.09a1.84,1.84,0,0,1,.4-1.1,2.62,2.62,0,0,1,1.88-.63,2.33,2.33,0,0,1,2.06.86,1.69,1.69,0,0,1,.2.89l-.05,2.79a14.6,14.6,0,0,0,.1,1.46Zm-.75-2.87c-.44,0-2.1,0-2.1,1.19,0,.37.23,1,1.21,1a1.42,1.42,0,0,0,1.24-.62,2.82,2.82,0,0,0,.28-1.53A5.57,5.57,0,0,0,387.44,128.39Z" style="fill:#4f4c4d"/><path d="M395.12,122.9h1.09v7.43c0,.13,0,.63.05.93h-1.09l0-.93a1.66,1.66,0,0,1-.52.61,2.63,2.63,0,0,1-1.44.43c-.78,0-2.5-.4-2.5-3,0-2.22,1.26-3.18,2.63-3.18a1.85,1.85,0,0,1,1.8,1Zm-.4,3.74a1.58,1.58,0,0,0-1.28-.59c-1.6,0-1.6,1.94-1.6,2.33,0,1,.27,2.23,1.6,2.23,1.72,0,1.72-1.89,1.72-2.34A2.54,2.54,0,0,0,394.72,126.64Z" style="fill:#4f4c4d"/><rect x="94.77" y="26.41" width="8.05" height="21.11" style="fill:#a3a3a3"/><rect x="94.77" y="110.14" width="8.05" height="21.11" style="fill:#4f4c4d"/><rect x="94.77" y="67.92" width="8.05" height="21.11" style="fill:#777677"/><rect x="94.77" y="47.06" width="8.05" height="21.11" style="fill:#8e8e8e"/><rect x="94.77" y="89.03" width="8.05" height="21.11" style="fill:#605f60"/></svg>