<svg xmlns="http://www.w3.org/2000/svg" viewBox="0 0 500 160"><path d="M274.37,34.93c-.88-.1-2.06-.2-3.23-.35-1.61-.21-3.23-.42-4.84-.69-1-.17-1.93-.46-2.89-.7L258.52,32c-.43-.11-.84-.28-1.26-.41-.7-.22-1.41-.45-2.12-.64s-.76-.32-.72-.94c.1-1.33.24-2.67.36-4,0-.34.08-.68.11-1,.09-1,.19-2,.28-3.05a7,7,0,0,0,0-.79,30,30,0,0,1,.27-3.54c.1-1,.19-1.92.35-2.89a15.33,15.33,0,0,1,3.83-8,11,11,0,0,1,3.05-2.43,9.17,9.17,0,0,1,3.77-1,15.82,15.82,0,0,1,4.84.57,6.66,6.66,0,0,1,4.82,4.56,7.24,7.24,0,0,1,.34,2,9.21,9.21,0,0,1-1,4.74c-.15.31-.34.6-.51.89a1.8,1.8,0,0,0-.06.22.81.81,0,0,0,.22,0c.43-.1.86-.24,1.3-.33a9.2,9.2,0,0,1,5.34.57,9.76,9.76,0,0,1,4.24,2.93,6.61,6.61,0,0,1,1.33,2.91A9.33,9.33,0,0,1,286,28.93a11.73,11.73,0,0,1-4,3.91,12.66,12.66,0,0,1-5.13,1.93C276.1,34.86,275.38,34.86,274.37,34.93Z" style="fill:#4d4c4c"/><path d="M267.63,39.81c-.12,1.6-.24,3-.34,4.32,0,.53,0,1.06,0,1.58-.06.89-.16,1.78-.24,2.67a5.11,5.11,0,0,0-.05.55c-.06,1.26-.13,2.52-.17,3.78a.85.85,0,0,1-.58.84c-2,.88-4,1.76-6,2.7-1,.46-1.89,1-2.84,1.55s-2.16,1.23-3.29,1.74a3.44,3.44,0,0,1-2.82.32,14.09,14.09,0,0,1-1.52-.83c-1.6-.9-3.21-1.8-4.82-2.72-.73-.41-1.43-.87-2.16-1.3s-1.57-.95-2.36-1.41a1.05,1.05,0,0,1-.6-1.21c.23-1.9.34-3.82.52-5.73.12-1.33.29-2.65.41-4,0-.68,0-1.37,0-2.05a3.09,3.09,0,0,1,1.6-2.79,55,55,0,0,1,5.14-2.6,9.75,9.75,0,0,0,.9-.49c1.2-.71,2.38-1.44,3.58-2.15a2.68,2.68,0,0,1,2.42-.2c1.93.71,3.89,1.35,5.84,2q3.15,1.05,6.31,2.07a.89.89,0,0,1,.69.77C267.39,38.16,267.53,39.1,267.63,39.81Z" style="fill:#4d4c4c"/><path d="M251.72,72c0-.52,0-1.05,0-1.58a18,18,0,0,1,.63-4.67c.25-1.1.46-2.22.65-3.33a2.74,2.74,0,0,1,1.23-1.58,15.05,15.05,0,0,1,3.53-1.91c1-.47,2-.91,3-1.34s1.77-.67,2.64-1a11.3,11.3,0,0,0,1.57-.75,1.24,1.24,0,0,1,1.2-.12,27.61,27.61,0,0,1,3.09,1.37c2.91,1.7,5.78,3.47,8.67,5.2a1.54,1.54,0,0,1,.7,1,7.28,7.28,0,0,1,.14,2.59,38.17,38.17,0,0,0-.43,5.33c.07,1,.2,1.94.25,2.91a18.59,18.59,0,0,1,0,2.36,1.37,1.37,0,0,1-1,1.12c-1.28.51-2.57,1-3.85,1.44s-2.72,1-4.06,1.54c-1.91.81-3.81,1.68-5.71,2.52a1.39,1.39,0,0,1-1.62-.14c-.2-.17-.52-.2-.76-.34s-.3-.33-.48-.45c-.49-.31-1-.61-1.49-.89-1-.57-2-1.13-3-1.68-1.46-.79-2.92-1.59-4.39-2.35a1.1,1.1,0,0,1-.67-1.2c.09-1.34.14-2.67.21-4Z" style="fill:#4d4c4c"/><path d="M252.85,27c0,.87,0,1.74,0,2.61a.83.83,0,0,1-.59.89c-1.63.73-3.22,1.55-4.84,2.29-2,.92-4,1.8-6.07,2.69-.79.35-1.61.64-2.39,1a3,3,0,0,1-3.06-.15c-2.37-1.42-4.79-2.77-7.18-4.16-.86-.5-1.71-1-2.56-1.56-.57-.35-.54-.35-.47-1a19.47,19.47,0,0,0,.19-2.28,44.25,44.25,0,0,1,.31-4.88c.15-1.23.22-2.46.36-3.69a5.16,5.16,0,0,1,2.21-3.92c.73-.5,1.42-1.08,2.17-1.57.5-.33,1.07-.56,1.6-.86,1.43-.79,2.84-1.6,4.28-2.38.5-.28,1-.52,1.56-.76a1.2,1.2,0,0,1,1.13.06c1.53.82,3.08,1.61,4.61,2.43s3.06,1.55,4.52,2.44c1.07.65,2,1.5,3,2.24.66.47.62,1.2.68,1.85.16,1.65.25,3.3.35,5,.08,1.23.15,2.46.23,3.7Z" style="fill:#4d4c4c"/><path d="M210.73,51.64c.07-.73.17-2.07.35-3.39.27-2.08.59-4.16.9-6.24.06-.41.11-.83.15-1.25a.82.82,0,0,1,.55-.71c.4-.19.83-.34,1.22-.55,1.43-.73,2.86-1.46,4.28-2.22.39-.21.73-.52,1.11-.74.69-.4,1.41-.76,2.1-1.16.89-.51,1.77-1,2.65-1.57a1.49,1.49,0,0,1,1.56-.14c1.08.54,2.2,1,3.26,1.58,1.32.71,2.6,1.48,3.89,2.24s2.34,1.4,3.51,2.1a2.18,2.18,0,0,0,.41.24c.62.13.74.6.8,1.12v.16c.06,2.1.11,4.2.17,6.31s.09,4.46.18,6.68a.66.66,0,0,1-.47.77c-.92.38-1.83.79-2.76,1.19l-7,3c-1.63.7-3.25,1.39-4.86,2.11a1.42,1.42,0,0,1-1.29-.08c-1-.48-1.94-1-2.86-1.53-1.56-1-3.09-2-4.63-3-.52-.34-1-.73-1.57-1C211.07,54.77,210.63,53.64,210.73,51.64Z" style="fill:#4d4c4c"/><path d="M241.92,120.24c-.73-.07-1.47-.1-2.19-.23s-.94-.61-.39-1.14a2.81,2.81,0,0,0,.83-2.29c0-1.55,0-3.11,0-4.67a2,2,0,0,0-1.65-2,7.52,7.52,0,0,0-1.41-.16,2,2,0,0,0-2,1.56,10.8,10.8,0,0,0-.29,5.44,3.17,3.17,0,0,0,.75,1.64,8.3,8.3,0,0,1,.61.82c.24.36.19.57-.21.74a2.42,2.42,0,0,1-.84.21c-1,0-2,0-2.92,0h-.16c-1-.15-1.29-.65-.75-1.52a4.68,4.68,0,0,0,.78-2.91c-.1-1.31-.12-2.63-.19-3.94a1.76,1.76,0,0,0-1.84-1.76,4.28,4.28,0,0,0-2.63.67,2.1,2.1,0,0,0-.87,1.36,18.23,18.23,0,0,0-.33,4.48,2.83,2.83,0,0,0,.77,2c.31.32.6.66.89,1s.28.55-.16.72a4.34,4.34,0,0,1-1.44.35c-1.05,0-2.1-.07-3.15-.13a1.94,1.94,0,0,1-.54-.13c-.67-.23-.76-.45-.37-1a8.45,8.45,0,0,0,1.32-2.5,7.79,7.79,0,0,0,.13-4.12,2.31,2.31,0,0,0-.94-1.4c-.61-.42-.66-.62-.2-1.21a5.42,5.42,0,0,1,2.63-1.77,1.14,1.14,0,0,1,1.15.36,1.31,1.31,0,0,0,1.66.15,16.89,16.89,0,0,1,2.39-.93,2.59,2.59,0,0,1,2,.17,8.42,8.42,0,0,1,1.1.62,2,2,0,0,0,2.1.11c.53-.24,1-.5,1.57-.75a3.06,3.06,0,0,1,2.3-.24,6.88,6.88,0,0,1,2.3,1.18,1.78,1.78,0,0,1,.35.42,5.35,5.35,0,0,1,.93,3.28c-.05,1,0,2.11,0,3.16a6.14,6.14,0,0,0,.19,1.72,5.3,5.3,0,0,0,.83,1.32,2.37,2.37,0,0,0,.27.28c.39.45.34.68-.2.85a3.45,3.45,0,0,1-.78.14c-.47,0-.95,0-1.42,0A.17.17,0,0,0,241.92,120.24Z" style="fill:#4d4c4c"/><path d="M233.5,75v-.87A3.08,3.08,0,0,1,235,71.37a8.84,8.84,0,0,1,5-1.53h1.58a1.19,1.19,0,0,0,1.26-1q.24-1.44.45-2.88a1.3,1.3,0,0,0-.91-1.47A9.17,9.17,0,0,1,241.2,64c-.5-.27-.54-.63-.1-1a3.74,3.74,0,0,1,3.4-.7,1.51,1.51,0,0,1,1.05,1.51c0,.47-.07.94-.1,1.41,0,.1,0,.21,0,.31,0,1.1.09,2.2.12,3.29,0,.87,0,1.74,0,2.61,0,1,.15,2,.15,3.07s-.1,1.83-.14,2.75a3.37,3.37,0,0,0,0,.55.92.92,0,0,0,.9.92,4.72,4.72,0,0,1,1.07.21.55.55,0,0,1,.24,1,4.52,4.52,0,0,1-3.14,1.63.92.92,0,0,1-.38-.11A6.17,6.17,0,0,0,240,81.1a4.62,4.62,0,0,1-2.85-.28,12.67,12.67,0,0,1-2-1,2.67,2.67,0,0,1-1.41-2.07c-.11-.91-.25-1.81-.38-2.72Zm9.51.3h0a15.31,15.31,0,0,0,0-1.66,2.25,2.25,0,0,0-1.36-2.14,4.62,4.62,0,0,0-2.94-.07,2.69,2.69,0,0,0-1.77,1.34,3.67,3.67,0,0,0-.37,1.83,19.23,19.23,0,0,0,.16,2.51,2.24,2.24,0,0,0,2.26,2.2c.52,0,1,0,1.56,0A2.41,2.41,0,0,0,243,76.9C243,76.37,243,75.84,243,75.32Z" style="fill:#4d4c4c"/><path d="M239.73,104.15l-2.95-.46a.75.75,0,0,1-.37-.13c-.18-.16-.42-.34-.48-.56s.27-.33.44-.48a3.58,3.58,0,0,1,.46-.29c.69-.46.79-.81.44-1.59-.1-.24-.23-.47-.35-.71-.37-.81-.81-1.6-1.11-2.44a2.72,2.72,0,0,0-2.5-2,9.54,9.54,0,0,0-2.2.13A2.51,2.51,0,0,0,229.35,97q-.33.58-.6,1.2c-.25.58-.48,1.16-.72,1.74a1.75,1.75,0,0,0,.32,1.84l.75.91c.39.46.34.64-.25.8l-.32,0a17.65,17.65,0,0,1-4.47-.34c-.26-.06-.67-.2-.71-.38-.09-.38.34-.46.61-.6s.53-.22.8-.34A3.76,3.76,0,0,0,227,99.32a16.09,16.09,0,0,1,.93-2.51,19.05,19.05,0,0,0,1.43-3.91,16.88,16.88,0,0,1,.93-2.33c.51-1.44,1-2.89,1.46-4.34A1.55,1.55,0,0,1,233.4,85a1.21,1.21,0,0,1,1,.55c.35.59.67,1.2,1,1.81a12.21,12.21,0,0,0,.51,1.23A24,24,0,0,1,238,94.22a5.22,5.22,0,0,0,.48,1.25,20.74,20.74,0,0,1,1.95,4.55,4,4,0,0,0,1.71,2.29,1.8,1.8,0,0,1,.37.3c.49.46.47.78-.17,1.06a5.79,5.79,0,0,1-1.36.35,7.87,7.87,0,0,1-1.19,0S239.74,104.11,239.73,104.15Zm-7.23-9.63v0c.34-.06.68-.09,1-.18a1.29,1.29,0,0,0,1-1.74A10.17,10.17,0,0,0,233,89.89c-.33-.49-.63-.53-.91,0a9.5,9.5,0,0,0-1.2,3.3,1.12,1.12,0,0,0,1.2,1.33C232.23,94.53,232.36,94.52,232.5,94.52Z" style="fill:#4d4c4c"/><path d="M226.24,131.23a5.74,5.74,0,0,1,4.86-5.89,7.75,7.75,0,0,1,4.11.21,6.39,6.39,0,0,1,3,2.1,8.8,8.8,0,0,1,1,1.49,5,5,0,0,1-.14,4.91,7.45,7.45,0,0,1-3.29,3.5,5.76,5.76,0,0,1-3.06.48,12.21,12.21,0,0,1-2.16-.46c-2.49-.75-3.73-2.62-4.32-5A6,6,0,0,1,226.24,131.23ZM233.8,127h-.47a3.56,3.56,0,0,0-3.22,2.59,7.78,7.78,0,0,0-.07,3.59,3.77,3.77,0,0,0,2.19,2.82c1.78.74,3.89.22,4.37-1.93a9.87,9.87,0,0,0,.13-4.68A2.81,2.81,0,0,0,233.8,127Z" style="fill:#4d4c4c"/><path d="M268.39,115.4c0,.39,0,.94,0,1.49a1.54,1.54,0,0,0,.23.65c.32.45.68.87,1,1.31s.34.72-.25.94a5.56,5.56,0,0,1-1.6.37c-.84.06-1.69,0-2.53,0a1.67,1.67,0,0,1-.32,0c-.56-.12-.71-.45-.35-.9a6.75,6.75,0,0,1,1-1,1,1,0,0,0,.38-.9c-.1-1.73-.19-3.46-.28-5.19a6.26,6.26,0,0,0,0-.87c-.25-1.35-.86-1.92-2.21-1.74-.26,0-.52.1-.77.15a2.84,2.84,0,0,0-2.5,2.73c-.14,1.09-.31,2.17-.46,3.26,0,.1,0,.21,0,.31a2.13,2.13,0,0,0,1,2.23,4.21,4.21,0,0,1,.71.62c.23.25.16.48-.11.67a.61.61,0,0,1-.14.07,6.5,6.5,0,0,1-4.24.28c-.71-.22-.78-.46-.43-1.1a10.47,10.47,0,0,0,1-1.8,7,7,0,0,0-.14-4.79c-.2-.51-.44-1-.67-1.51-.43-1-.38-1.4.41-2.1a6.3,6.3,0,0,1,1.52-1,1.26,1.26,0,0,1,1.64.54c.43.67.66.77,1.43.51a22.35,22.35,0,0,0,2.53-.9,2.69,2.69,0,0,1,3.33,1,3.38,3.38,0,0,1,.75,2.19C268.22,112.4,268.33,113.82,268.39,115.4Z" style="fill:#4d4c4c"/><path d="M249.56,120.25a5.37,5.37,0,0,1-2.45-.54,3.78,3.78,0,0,1-1.68-1.7,9.17,9.17,0,0,1-.9-5.43,6.56,6.56,0,0,1,.88-2.83,5,5,0,0,1,5.36-2.14,9.76,9.76,0,0,1,2.87,1.08,3,3,0,0,1,1.75,2.69,1.45,1.45,0,0,1-1.5,1.5c-1,0-2-.15-3.07-.21-.73,0-1.47-.09-2.2-.08a1,1,0,0,0-1.07.89,2.31,2.31,0,0,0,.65,2.35c.31.28.47.7.76,1a2.58,2.58,0,0,0,3.21.69c.66-.31,1.36-.55,2.05-.82a2,2,0,0,1,.53-.15c.59-.06.91.3.75.87a2,2,0,0,1-.5.86,6.85,6.85,0,0,1-3.41,1.72C250.92,120.12,250.24,120.17,249.56,120.25Zm.12-8.71a3.47,3.47,0,0,0,1.94-.7c.57-.46.5-.83-.17-1.17a2.85,2.85,0,0,0-2.48.21,1.57,1.57,0,0,0-.45.31c-.38.34-.36.72.07,1A8.36,8.36,0,0,0,249.68,111.54Z" style="fill:#4d4c4c"/><path d="M222.32,74.91a22.83,22.83,0,0,1,.49-2.62,4.59,4.59,0,0,1,3.91-3.44,6.63,6.63,0,0,1,4.46.89A4.54,4.54,0,0,1,233,71.32a2.06,2.06,0,0,1,.38,1.56,1.39,1.39,0,0,1-1.34,1.23,12,12,0,0,1-1.58,0c-1.12-.08-2.25-.24-3.38-.26-1.67,0-1.89,1.06-1.54,2.21a5.37,5.37,0,0,0,2.16,2.75,2.18,2.18,0,0,0,2.18.15c.66-.27,1.31-.57,2-.82a2.55,2.55,0,0,1,.91-.19c.68,0,.91.34.64,1a3.38,3.38,0,0,1-1.48,1.49,10.42,10.42,0,0,1-3.36,1.08,6.3,6.3,0,0,1-3.17-.37,3.7,3.7,0,0,1-2.31-2.44A12.46,12.46,0,0,1,222.32,74.91Zm5.43-2.15a2.89,2.89,0,0,0,1.9-.72c.5-.5.43-1-.27-1.15a3.09,3.09,0,0,0-2.84.49c-.43.36-.41.83.09,1.08A5.76,5.76,0,0,0,227.75,72.76Z" style="fill:#4d4c4c"/><path d="M245.69,125a12.69,12.69,0,0,1,1.48.17,1.64,1.64,0,0,1,1.21,1.87,2.73,2.73,0,0,1-.38,1c-.25.4-.55.44-.95.17s-1-.75-1.43-1.11a1.62,1.62,0,0,0-1.76-.1,1.8,1.8,0,0,0-.8,2,1.56,1.56,0,0,0,1.3.92,13.58,13.58,0,0,0,1.8.2,3.44,3.44,0,0,1,3.07,2,5.1,5.1,0,0,1,.62,3,3.14,3.14,0,0,1-2,2.62A5.83,5.83,0,0,1,245,138c-.94-.06-1.88-.15-2.82-.3-2.15-.35-2.26-2.22-1.54-3.53.32-.57,1-.52,1.45.06s.81,1,1.2,1.56a1.81,1.81,0,0,0,1.72.91,2.14,2.14,0,0,0,1.63-1.64,1.83,1.83,0,0,0-.57-1.72,6.11,6.11,0,0,0-2-1.3c-.7-.3-1.38-.65-2.08-1-2.14-1-1.94-3.43-.63-4.76a3.49,3.49,0,0,1,1.73-.9C244.05,125.22,244.94,125.13,245.69,125Z" style="fill:#4d4c4c"/><path d="M222,138.07a3.55,3.55,0,0,1-2.31-.91,18.07,18.07,0,0,1-1.29-1.7.94.94,0,0,1-.13-.44c-.06-.92-.11-1.84-.17-2.76-.08-1.36-.19-2.72-.25-4.08a1.42,1.42,0,0,0-.89-1.28,5.86,5.86,0,0,0-.57-.26c-.73-.3-.81-.55-.22-1.12.78-.78,1.61-1.51,2.42-2.26.21-.19.4-.42.62-.6.49-.4.78-.35,1.18.14a8.24,8.24,0,0,0,2.84,2.33c.29.14.72.4.74.63s-.49.36-.77.52A13.48,13.48,0,0,0,222,127a2.76,2.76,0,0,0-1.33,2.44,16.86,16.86,0,0,0,.49,4.69,1.64,1.64,0,0,0,2.05,1.32,20.28,20.28,0,0,1,2.21,0,1.06,1.06,0,0,1,.45.13c.38.19.46.46.16.75a9.38,9.38,0,0,1-1.37,1.05A6.9,6.9,0,0,1,222,138.07Z" style="fill:#4d4c4c"/><path d="M246.8,104c-.55,0-1.11,0-1.66,0a2.51,2.51,0,0,1-.62-.07c-.68-.2-.75-.5-.23-1a3.45,3.45,0,0,0,1.27-2.92,8.78,8.78,0,0,1,.1-1.25c0-.27,0-.53,0-.79-.05-1.92-.1-3.84-.14-5.76,0-1.16,0-2.32,0-3.48a2.9,2.9,0,0,0-.78-2.08c-.79-.9-.75-1.07.37-1.53a8.82,8.82,0,0,1,1.81-.56c1.06-.18,1.7.24,1.62,1.31-.06.87-.09,1.74-.21,2.59a12.53,12.53,0,0,0,0,3.46,6.85,6.85,0,0,1,0,.79c0,2.42,0,4.85,0,7.27a3.47,3.47,0,0,0,.79,2.4c.09.1.16.22.24.32.58.75.41,1.17-.57,1.26-.68.06-1.37,0-2.06,0Z" style="fill:#4d4c4c"/><path d="M216.7,76.65a9.06,9.06,0,0,0,.22,1.22,2.27,2.27,0,0,0,1.61,1.78,3.57,3.57,0,0,1,.93.43,2.66,2.66,0,0,1,.48.47c-.17.15-.33.37-.53.43-.57.17-1.17.29-1.76.42a9.29,9.29,0,0,1-3.75-.15c-.69-.13-.81-.36-.42-.94a9,9,0,0,0,1.36-3.5,5.56,5.56,0,0,0-.12-2.4A3.86,3.86,0,0,0,213,72.2c-.13-.09-.28-.15-.41-.24-.29-.2-.38-.43-.1-.71.47-.46.93-.93,1.4-1.38s.72-.62,1.08-.92c.67-.57,1.15-.48,1.58.29a5.89,5.89,0,0,0,.32.54c.48.73.79.77,1.46.24.41-.33.83-.65,1.26-1a1.66,1.66,0,0,1,1.91-.27,2,2,0,0,1,1.06,1.82c0,1.27-.55,1.78-1.82,1.55-.49-.09-1-.18-1.48-.24a1.77,1.77,0,0,0-1.92,1.3A13.3,13.3,0,0,0,216.7,76.65Z" style="fill:#4d4c4c"/><path d="M255.58,94.83c-.07,1.76-.14,3.52-.2,5.27A2.56,2.56,0,0,0,256,102a10.87,10.87,0,0,0,.91.74,7.68,7.68,0,0,1,.59.69,3.3,3.3,0,0,1-.76.36,9.14,9.14,0,0,1-1.63.23c-.87,0-1.74,0-2.61,0a2.64,2.64,0,0,1-.63-.06c-.42-.12-.5-.42-.22-.76.1-.12.22-.23.33-.34a4.42,4.42,0,0,0,1.31-3.19,12.4,12.4,0,0,0-1.05-5.06c-.13-.32-.22-.65-.37-1a1.06,1.06,0,0,1,.31-1.4,12.82,12.82,0,0,1,2-1.43c.63-.34,1.12-.43,1.27.6a8.08,8.08,0,0,1,.1.86c0,.84,0,1.68,0,2.53Z" style="fill:#4d4c4c"/><path d="M219.35,87c.07,1.13.16,2.25.21,3.38a7.74,7.74,0,0,1-.12,1.17c-.1.91,0,1.09.9,1.37.57.19.66.5.21.86a2.16,2.16,0,0,1-2.31.59,3.63,3.63,0,0,0-2.09-.07A3.62,3.62,0,0,1,212.87,93a1.14,1.14,0,0,1-.26-.64,18.73,18.73,0,0,1-.16-2.12,1.86,1.86,0,0,1,1.12-1.76,6.14,6.14,0,0,1,3-.71c1,0,1,0,1.23-1,.07-.43.11-.88.14-1.32a.59.59,0,0,0-.49-.7,1.4,1.4,0,0,1-.43-.2c-.14-.09-.4-.26-.38-.33a.94.94,0,0,1,.38-.54,3.69,3.69,0,0,1,1.2-.32c.79,0,1.15.36,1.16,1.15s0,1.69,0,2.53Zm-5,3.83h0a8.68,8.68,0,0,0,0,1,1.55,1.55,0,0,0,1.37,1.41c.82.11,1.83-.29,2-.89a4,4,0,0,0-.06-2.93,1.27,1.27,0,0,0-.69-.68,2.74,2.74,0,0,0-1.93.16,1.2,1.2,0,0,0-.74,1.2C214.36,90.33,214.35,90.57,214.35,90.81Z" style="fill:#4d4c4c"/><path d="M274.85,152.16v-3.72c0-.82.07-.88.92-.89h.16c.89,0,.94.07,1.15.94s.5,1.87.76,2.81a.68.68,0,0,0,.13.18,1.89,1.89,0,0,0,0-.23c0-1.05,0-2.11,0-3.16,0-.36.12-.49.42-.52a5.21,5.21,0,0,1,.79,0c.21,0,.29.15.3.38,0,2.39.06,4.79.1,7.18v.48c0,1.1-.08,1.16-1.16,1.13a.69.69,0,0,1-.75-.63c-.32-1.27-.68-2.54-1-3.81,0-.15-.07-.31-.12-.46s-.09-.11-.13-.17-.12.16-.12.24c0,.37,0,.73,0,1.1,0,.79,0,1.57,0,2.35,0,.32,0,.63,0,.95s-.1.38-.35.41h-.23c-.84,0-.9,0-.91-.85Z" style="fill:#4d4c4c"/><path d="M260.24,152.11c0-1.37,0-2.74,0-4.11,0-.33.13-.43.41-.44H261c1.18,0,1.22,0,1.53,1.12.25.93.48,1.87.74,2.8a1.39,1.39,0,0,0,.18.31c0-.1,0-.21,0-.31v-3.15a.72.72,0,0,1,1.42-.28,2,2,0,0,1,0,.55v7.19a5,5,0,0,1,0,.55c0,.1-.06.27-.11.28a8.48,8.48,0,0,1-1.23.09c-.29,0-.35-.26-.42-.5-.18-.69-.4-1.37-.58-2-.24-.86-.45-1.72-.67-2.58a.81.81,0,0,0-.1-.18,1.85,1.85,0,0,0,0,.23c0,1.39,0,2.79,0,4.19,0,.91-.23,1.09-1.14.91-.25,0-.34-.16-.34-.43,0-1.39,0-2.79,0-4.18Z" style="fill:#4d4c4c"/><path d="M247.46,152.11V156c0,.71,0,.73-.7.75-.87,0-.85,0-1.08-.87-.38-1.47-.81-2.94-1.22-4.41,0-.07-.06-.14-.08-.21a.75.75,0,0,0-.08.24c0,1.48,0,3,0,4.43,0,.78-.12.88-.86.82a.53.53,0,0,1-.57-.6v-7.5c0-.21,0-.42,0-.63a.34.34,0,0,1,.41-.37l1.26.08c.28,0,.38.17.45.44.27,1.15.58,2.29.87,3.43a.81.81,0,0,0,.1.21.83.83,0,0,0,.06-.21c0-.74,0-1.47,0-2.21a8.42,8.42,0,0,1,0-.87c.07-.81.08-.81.87-.81.53,0,.54,0,.55.55Z" style="fill:#4d4c4c"/><path d="M222.9,152.15c0-1.29,0-2.58,0-3.87,0-.61,0-.61.61-.59h1.9a1.58,1.58,0,0,1,1.78,1.81c0,.44,0,.9,0,1.34a2.54,2.54,0,0,1-.32,1c-.17.27-.24.44,0,.68a1.8,1.8,0,0,1,.37,1.25,7.84,7.84,0,0,0,.17,2.51.42.42,0,0,1,0,.28,7.35,7.35,0,0,1-1.23.09c-.29,0-.34-.3-.34-.55,0-.63,0-1.27,0-1.9a1.83,1.83,0,0,0-.35-.92.74.74,0,0,0-.63-.16c-.11,0-.24.31-.24.49,0,.79,0,1.58,0,2.37,0,.27,0,.61-.3.65a3.19,3.19,0,0,1-1.15-.06c-.08,0-.13-.37-.13-.57C222.89,154.74,222.9,153.45,222.9,152.15Zm1.59-1.74h0V151a.75.75,0,0,0,0,.15c0,.43.24.57.62.37a1.07,1.07,0,0,0,.47-.47,2,2,0,0,0-.05-1.67c-.12-.34-.46-.3-.74-.26s-.3.25-.3.47S224.49,150.15,224.49,150.41Z" style="fill:#4d4c4c"/><path d="M259.5,152.26c0,.79,0,1.58,0,2.37a2,2,0,0,1-2.28,2.18,1.91,1.91,0,0,1-2.15-2.08c0-1.74-.06-3.48,0-5.21a2,2,0,0,1,2.18-2c1.23.05,1.78.46,2,1.15a3.91,3.91,0,0,1,.2,1.23C259.52,150.68,259.5,151.47,259.5,152.26Zm-1.6,0v-2a3.65,3.65,0,0,0,0-.47c-.05-.44-.29-.72-.59-.73s-.57.26-.63.69a1.62,1.62,0,0,0,0,.31v4a7,7,0,0,0,.08.79c0,.26.12.52.48.51a.62.62,0,0,0,.65-.47,2,2,0,0,0,0-.55Z" style="fill:#4d4c4c"/><path d="M284.82,152.2v-2.53a2,2,0,0,1,1.17-2,2.51,2.51,0,0,1,2.61.36,2.23,2.23,0,0,1,.65,1.8c.06,1.58,0,3.16,0,4.74a2.49,2.49,0,0,1-.09.46c-.15.62-.26,1.3-1,1.51a3,3,0,0,1-2.59-.15,1.71,1.71,0,0,1-.79-1.54c0-.89,0-1.78,0-2.68Zm2.85,0c0-.7,0-1.41,0-2.12a2.15,2.15,0,0,0-.08-.62.54.54,0,0,0-.66-.42,1.11,1.11,0,0,0-.48.54,1.38,1.38,0,0,0,0,.54c0,.9,0,1.79,0,2.68,0,.63,0,1.26,0,1.89,0,.32.1.57.48.6a.57.57,0,0,0,.66-.42,2.82,2.82,0,0,0,.1-.7C287.68,153.52,287.67,152.86,287.67,152.2Z" style="fill:#4d4c4c"/><path d="M237.79,152.22c0-.84,0-1.68,0-2.53a2.18,2.18,0,0,1,3.38-1.88,1.57,1.57,0,0,1,.9,1.21c.06.55.14,1.1.15,1.65,0,1.18,0,2.36,0,3.55a6.68,6.68,0,0,1-.26,1.46,1.29,1.29,0,0,1-.9.92,3.16,3.16,0,0,1-2.38-.11,1.85,1.85,0,0,1-.88-1.75C237.76,153.9,237.79,153.06,237.79,152.22Zm1.58-.05h0v2.53c0,.32.11.57.49.59a.63.63,0,0,0,.72-.47,2,2,0,0,0,0-.55c0-.76,0-1.53,0-2.29s0-1.48,0-2.21A.73.73,0,0,0,240,149c-.34,0-.57.29-.58.79C239.36,150.59,239.37,151.38,239.37,152.17Z" style="fill:#4d4c4c"/><path d="M223.84,86.69l1.61.33a2,2,0,0,1,1.21,1,.91.91,0,0,1-.62,1.45,23.14,23.14,0,0,1-2.34.34,1.13,1.13,0,0,0-1,.5.88.88,0,0,0,.27,1.07,5.37,5.37,0,0,0,1.11,1,1.19,1.19,0,0,0,1.35,0,11.88,11.88,0,0,1,1.28-.79c.19-.1.51-.19.64-.1s.17.44.13.64a1.24,1.24,0,0,1-.35.68,5.15,5.15,0,0,1-3,1.47,2.34,2.34,0,0,1-2.39-1.08,6.22,6.22,0,0,1-1.06-3.19A3,3,0,0,1,223.84,86.69Z" style="fill:#4d4c4c"/><path d="M222.11,152.18c0,.93,0,1.85,0,2.77a1.69,1.69,0,0,1-1.79,1.78,2.59,2.59,0,0,1-1.61-.24,1.81,1.81,0,0,1-.87-1.51c0-1.84,0-3.69,0-5.53a1.9,1.9,0,0,1,2-1.91,2.45,2.45,0,0,1,1.38.26,1.81,1.81,0,0,1,.93,1.7c0,.44,0,.89,0,1.34v1.34Zm-1.44,0c0-.68,0-1.36,0-2a1.56,1.56,0,0,0-.08-.61c-.12-.25-.25-.56-.62-.51a.63.63,0,0,0-.55.59,3.88,3.88,0,0,0-.06,1.63,5,5,0,0,1,0,1.09c0,.81,0,1.62.06,2.42a.52.52,0,0,0,.53.57.61.61,0,0,0,.67-.53,2.22,2.22,0,0,0,.07-.63C220.68,153.49,220.67,152.83,220.67,152.17Z" style="fill:#4d4c4c"/><path d="M229.9,147.69h.58c.73-.05.76-.06.9.68.25,1.42.47,2.84.7,4.27.19,1.14.37,2.28.55,3.42.1.59.07.64-.52.67h-.39a.55.55,0,0,1-.67-.51L231,156c-.07-.26-.08-.7-.23-.76a2.44,2.44,0,0,0-1.08,0c-.14,0-.3.21-.37.36a2.34,2.34,0,0,0-.08.54c-.09.53-.21.63-.72.65-.74,0-.85-.09-.73-.85.2-1.25.42-2.49.62-3.73s.34-2.29.52-3.43c0-.1,0-.21.05-.31C229.15,147.64,229.15,147.64,229.9,147.69Zm.74,5.68-.46-3.07a.5.5,0,0,0-.1-.17c0,.05,0,.1,0,.15-.14,1-.28,2-.43,3-.05.35.15.41.41.41S230.63,153.76,230.64,153.37Z" style="fill:#4d4c4c"/><path d="M250.14,152.25c0-.85,0-1.69,0-2.53a2,2,0,0,1,1.16-2c1.25-.51,2.9-.18,3.13,1.43.05.39.11.78.13,1.17s-.19.53-.54.54h-.4c-.49,0-.6-.13-.64-.61a2.68,2.68,0,0,0,0-.7c-.07-.2-.25-.46-.42-.5a.74.74,0,0,0-.57.29,1.23,1.23,0,0,0-.22.65c0,1.51,0,3,0,4.51a1.94,1.94,0,0,0,0,.24.6.6,0,0,0,.6.53.57.57,0,0,0,.6-.52,8.33,8.33,0,0,0,0-.87c0-.61.06-.65.7-.66.11,0,.21,0,.32,0a.5.5,0,0,1,.56.52,4.59,4.59,0,0,1-.33,2.17,1.35,1.35,0,0,1-1,.78,6.2,6.2,0,0,1-1.49.05,1.9,1.9,0,0,1-1.57-1.89c0-.45,0-.9,0-1.35Z" style="fill:#4d4c4c"/><path d="M214.35,152.13c0,.71,0,1.42,0,2.13a1.93,1.93,0,0,0,.22.73.52.52,0,0,0,.66.28c.29-.07.36-.29.36-.54s0-.58,0-.87c0-.49.13-.58.62-.62.79-.06.94.07.95.84a3.6,3.6,0,0,1-.24,1.62,1.56,1.56,0,0,1-1.52,1q-.44,0-.87,0a1.66,1.66,0,0,1-1.64-1.49,35.42,35.42,0,0,1-.14-5.35,3.69,3.69,0,0,1,.31-1.3,1.61,1.61,0,0,1,.51-.68,2.19,2.19,0,0,1,3.46,1.27c0,.16.08.31.11.46.15,1,0,1.14-1,1.08-.53,0-.56-.06-.6-.6a1.79,1.79,0,0,0,0-.62,1,1,0,0,0-.47-.48c-.26-.12-.46.09-.56.31a4.58,4.58,0,0,0-.19.75v2Z" style="fill:#4d4c4c"/><path d="M270.23,152.15c0-1.37,0-2.74,0-4.11,0-.36.11-.48.43-.49h3c.4,0,.57.22.57.6v.56c0,.29-.17.42-.46.42-.45,0-.89,0-1.34,0s-.6.13-.58.55,0,.79,0,1.18.16.49.48.48.53,0,.8,0c.49,0,.58.13.62.62.06.81-.08,1-.92,1s-1,0-1,.93c0,1.44-.12,1.27,1.26,1.29.16,0,.32,0,.48,0,.52,0,.61.13.64.68,0,.83,0,.9-.86.9s-1.69,0-2.53,0c-.62,0-.61,0-.6-.62,0-1.32,0-2.64,0-4Z" style="fill:#4d4c4c"/><path d="M235,147.7c.56,0,1.11,0,1.67,0,.36,0,.56.15.52.51a5.87,5.87,0,0,1-.24,1.47c-.68,1.76-1.42,3.5-2.16,5.24-.1.26,0,.36.21.36.53,0,1.06,0,1.59,0s.61.09.6.75,0,.67-.6.67c-1,0-2,0-3,0-.55,0-.61-.11-.68-.64a4.57,4.57,0,0,1,.64-2.17c.52-1.31,1.12-2.6,1.68-3.9.05-.12.08-.25.13-.37.13-.35,0-.5-.36-.5h-1.19c-.63,0-.72-.12-.74-.75s0-.71.68-.69H235Z" style="fill:#4d4c4c"/><path d="M266.76,153c0-1.08,0-2.16,0-3.24,0-.58,0-.58-.55-.64-.28,0-.72,0-.78-.19a3,3,0,0,1-.1-1.16c0-.08.23-.21.36-.21,1.19,0,2.38,0,3.56,0a.49.49,0,0,1,.54.54,5,5,0,0,1,0,.55c0,.49-.06.51-.56.5h-.47a.37.37,0,0,0-.39.41v.55c0,1.85,0,3.69,0,5.54,0,.21,0,.42,0,.63a.45.45,0,0,1-.46.45,5,5,0,0,1-.55,0c-.59,0-.59,0-.58-.63,0-1,0-2.06,0-3.09Z" style="fill:#4d4c4c"/><path d="M281.35,152.93c0-1.05,0-2.11,0-3.16,0-.59,0-.58-.63-.64-.25,0-.66-.07-.7-.19a2.15,2.15,0,0,1,0-1.07c0-.14.38-.29.58-.3,1.11,0,2.22,0,3.32,0a.43.43,0,0,1,.48.49c0,.16,0,.32,0,.47,0,.55-.06.59-.58.62h-.24c-.58,0-.61,0-.61.65,0,2.16,0,4.32.06,6.47,0,.08,0,.18,0,.23-.32.42-.77.2-1.17.23a.38.38,0,0,1-.47-.4c0-.18,0-.36,0-.55Z" style="fill:#4d4c4c"/><path d="M252,129.2a2,2,0,0,1-2.11-2,2.07,2.07,0,0,1,2.08-2.13,2,2,0,0,1,2.14,2.05A2,2,0,0,1,252,129.2Z" style="fill:#4d4c4c"/><path d="M253.74,85.19a1.5,1.5,0,0,1,1.33,1.5,1.24,1.24,0,0,1-1.22,1.19,1.51,1.51,0,0,1-1.33-1.5A1.22,1.22,0,0,1,253.74,85.19Z" style="fill:#4d4c4c"/><path d="M239.85,147.43l-.53-.15a3.69,3.69,0,0,1,.19-.56,2.27,2.27,0,0,1,.3-.46,1.32,1.32,0,0,1,1.6-.58c.22.06.32.19.14.4a14.31,14.31,0,0,1-1.05,1.15C240.35,147.37,240.07,147.37,239.85,147.43Z" style="fill:#4d4c4c"/></svg>