<svg xmlns="http://www.w3.org/2000/svg" viewBox="0 0 500 160"><path d="M133.53,21V47.35h-2.07a32.85,32.85,0,0,0-3.63-12.07,18.8,18.8,0,0,0-7.44-7.13,20.54,20.54,0,0,0-10-2.64,13.64,13.64,0,0,0-9.66,3.56,10.87,10.87,0,0,0-3.82,8.12,9.61,9.61,0,0,0,2.42,6.34q3.48,4.22,16.56,11.23,10.66,5.73,14.57,8.79a21.4,21.4,0,0,1,6,7.21,19,19,0,0,1,2.1,8.7,19.69,19.69,0,0,1-6.71,14.91q-6.7,6.25-17.26,6.26a36.13,36.13,0,0,1-6.23-.51,64.14,64.14,0,0,1-7.22-2.05q-5.47-1.77-6.93-1.77a2.94,2.94,0,0,0-2.22.85,6.71,6.71,0,0,0-1.2,3.48H88.73V74.52h2.08c1,5.47,2.28,9.55,3.93,12.27a18.78,18.78,0,0,0,7.55,6.76,23.37,23.37,0,0,0,11.14,2.7q7,0,11.09-3.71a11.49,11.49,0,0,0,4.07-8.76,11.87,11.87,0,0,0-1.54-5.67,17,17,0,0,0-4.8-5.33,139.08,139.08,0,0,0-12-7.16,116.5,116.5,0,0,1-13.9-8.73,23.5,23.5,0,0,1-6.26-7.18A17.88,17.88,0,0,1,88,41.06a18.72,18.72,0,0,1,6.29-14.12q6.28-5.93,16-5.92a32.1,32.1,0,0,1,12.85,3,13.23,13.23,0,0,0,4.44,1.41,3.33,3.33,0,0,0,2.39-.88,7,7,0,0,0,1.49-3.5Z" style="fill:#4d4c4c"/><path d="M157,66.83q-.06,11.44,5.56,18t13.19,6.51a14.33,14.33,0,0,0,8.79-2.78q3.72-2.77,6.26-9.52l1.74,1.13a26.81,26.81,0,0,1-6.85,14,18.31,18.31,0,0,1-14.21,6.32,20.76,20.76,0,0,1-15.86-7.22Q149,86,149,73.85q0-13.2,6.76-20.58a22.06,22.06,0,0,1,17-7.38A19,19,0,0,1,187,51.59q5.57,5.69,5.56,15.24Zm0-3.26h23.8a21.78,21.78,0,0,0-1.18-7,11.17,11.17,0,0,0-4.18-4.94,10.53,10.53,0,0,0-5.81-1.8,11.59,11.59,0,0,0-8.34,3.62Q157.62,57.12,157,63.57Z" style="fill:#4d4c4c"/><path d="M214.43,45.94V57.51q6.47-11.57,13.25-11.57a7.23,7.23,0,0,1,5.11,1.88,5.79,5.79,0,0,1,2,4.35,5.11,5.11,0,0,1-1.46,3.71,4.66,4.66,0,0,1-3.48,1.52,7.44,7.44,0,0,1-4.41-1.94c-1.62-1.29-2.83-1.94-3.62-1.94a3.37,3.37,0,0,0-2.19,1.13,27.09,27.09,0,0,0-5.22,7.58V86.87a15.27,15.27,0,0,0,1.07,6.46,5.77,5.77,0,0,0,2.58,2.52,11.28,11.28,0,0,0,5.34,1v2H197.08v-2a11,11,0,0,0,5.84-1.23,4.8,4.8,0,0,0,2-2.86,29.63,29.63,0,0,0,.28-5.45V67.39a83.81,83.81,0,0,0-.36-10.69,4.22,4.22,0,0,0-1.35-2.5,3.77,3.77,0,0,0-2.45-.79,11.22,11.22,0,0,0-3.93.84l-.56-2,15.56-6.29Z" style="fill:#4d4c4c"/><path d="M303.31,21l1.74,25.88h-1.74q-3.48-11.62-9.94-16.73a24.2,24.2,0,0,0-15.5-5.11,25.25,25.25,0,0,0-13.7,3.84q-6.12,3.85-9.62,12.27T251,62.11A44.42,44.42,0,0,0,254.35,80a24.75,24.75,0,0,0,10,11.62,28.58,28.58,0,0,0,15.18,4,26.28,26.28,0,0,0,13.08-3.18q5.67-3.17,12.47-12.6L306.79,81q-5.73,10.17-13.36,14.88a33.81,33.81,0,0,1-18.14,4.72q-18.92,0-29.3-14Q238.24,76.15,238.24,62a43.61,43.61,0,0,1,5.11-20.94,36.93,36.93,0,0,1,14.06-14.79A38,38,0,0,1,277,21a35.81,35.81,0,0,1,16.28,4,8.82,8.82,0,0,0,3.37,1.23,3.67,3.67,0,0,0,2.63-1.06A8.7,8.7,0,0,0,301.34,21Z" style="fill:#4d4c4c"/><path d="M339.52,45.94a22.81,22.81,0,0,1,18.75,8.87,27.24,27.24,0,0,1,6,17.41,32.92,32.92,0,0,1-3.31,14,23.57,23.57,0,0,1-22.07,14.26,21.79,21.79,0,0,1-18.47-9.27,28.72,28.72,0,0,1-5.78-17.51,31.08,31.08,0,0,1,3.51-14.07,23.44,23.44,0,0,1,21.36-13.67Zm-1.74,3.65a11.68,11.68,0,0,0-6,1.77,12.45,12.45,0,0,0-4.86,6.21A29.9,29.9,0,0,0,325.09,69q0,11.24,4.46,19.37t11.77,8.14a10.94,10.94,0,0,0,9-4.49q3.54-4.49,3.53-15.44,0-13.7-5.89-21.56A12.17,12.17,0,0,0,337.78,49.59Z" style="fill:#4d4c4c"/><path d="M386.9,45.94V57.51q6.47-11.57,13.25-11.57a7.23,7.23,0,0,1,5.11,1.88,5.79,5.79,0,0,1,2,4.35,5.14,5.14,0,0,1-1.45,3.71,4.7,4.7,0,0,1-3.49,1.52,7.39,7.39,0,0,1-4.4-1.94c-1.63-1.29-2.84-1.94-3.63-1.94a3.33,3.33,0,0,0-2.18,1.13,26.87,26.87,0,0,0-5.23,7.58V86.87A15.27,15.27,0,0,0,388,93.33a5.83,5.83,0,0,0,2.58,2.52,11.31,11.31,0,0,0,5.34,1v2H369.55v-2a11,11,0,0,0,5.84-1.23,4.8,4.8,0,0,0,2-2.86,28.68,28.68,0,0,0,.28-5.45V67.39q0-9-.37-10.69a4.16,4.16,0,0,0-1.34-2.5,3.76,3.76,0,0,0-2.44-.79,11.13,11.13,0,0,0-3.94.84l-.56-2,15.55-6.29Z" style="fill:#4d4c4c"/><path d="M101.1,113.07v6.66h-.53a8.28,8.28,0,0,0-.92-3,4.75,4.75,0,0,0-1.88-1.81,5.21,5.21,0,0,0-2.52-.66,3.46,3.46,0,0,0-2.45.9,2.74,2.74,0,0,0-1,2,2.39,2.39,0,0,0,.61,1.6,15.61,15.61,0,0,0,4.19,2.84,28.68,28.68,0,0,1,3.68,2.23,5.28,5.28,0,0,1,1.52,1.82,4.85,4.85,0,0,1,.53,2.2,5,5,0,0,1-1.69,3.77,6.15,6.15,0,0,1-4.37,1.58,9.72,9.72,0,0,1-1.57-.12,15.84,15.84,0,0,1-1.83-.52,8.18,8.18,0,0,0-1.75-.45.73.73,0,0,0-.56.21,1.75,1.75,0,0,0-.31.88h-.53v-6.6h.53a9.54,9.54,0,0,0,1,3.1,4.88,4.88,0,0,0,1.91,1.72,6,6,0,0,0,2.82.68,4,4,0,0,0,2.81-.94,2.91,2.91,0,0,0,1-2.21,3,3,0,0,0-.39-1.44,4.48,4.48,0,0,0-1.22-1.35c-.37-.28-1.38-.89-3-1.81a29.08,29.08,0,0,1-3.52-2.21,5.93,5.93,0,0,1-1.58-1.81,4.53,4.53,0,0,1-.54-2.19,4.74,4.74,0,0,1,1.59-3.57,5.67,5.67,0,0,1,4-1.5,8.16,8.16,0,0,1,3.25.75,3.29,3.29,0,0,0,1.12.36.81.81,0,0,0,.6-.22,1.69,1.69,0,0,0,.38-.89Z" style="fill:#4d4c4c"/><path d="M107,124.66a6.7,6.7,0,0,0,1.4,4.54,4.29,4.29,0,0,0,3.34,1.65,3.66,3.66,0,0,0,2.23-.71,5.25,5.25,0,0,0,1.58-2.4l.44.28a6.73,6.73,0,0,1-1.74,3.54,4.6,4.6,0,0,1-3.59,1.6,5.26,5.26,0,0,1-4-1.82,7,7,0,0,1-1.67-4.91,7.37,7.37,0,0,1,1.72-5.2,5.54,5.54,0,0,1,4.29-1.87,4.8,4.8,0,0,1,3.59,1.44,5.28,5.28,0,0,1,1.41,3.86Zm0-.83h6a5.68,5.68,0,0,0-.3-1.76,2.88,2.88,0,0,0-1.06-1.25,2.67,2.67,0,0,0-1.47-.45,2.9,2.9,0,0,0-2.1.91A4,4,0,0,0,107,123.83Z" style="fill:#4d4c4c"/><path d="M121.55,119.38v2.92q1.64-2.92,3.36-2.92a1.82,1.82,0,0,1,1.29.47,1.48,1.48,0,0,1,.51,1.1,1.34,1.34,0,0,1-.37.94,1.2,1.2,0,0,1-.88.38,1.87,1.87,0,0,1-1.12-.49,1.88,1.88,0,0,0-.91-.49.83.83,0,0,0-.55.29,6.69,6.69,0,0,0-1.33,1.91v6.24a3.82,3.82,0,0,0,.28,1.63,1.44,1.44,0,0,0,.65.64,2.87,2.87,0,0,0,1.35.25v.51h-6.66v-.51a2.73,2.73,0,0,0,1.47-.31,1.17,1.17,0,0,0,.5-.72,7.18,7.18,0,0,0,.07-1.38v-5a21.54,21.54,0,0,0-.09-2.71,1.13,1.13,0,0,0-.34-.63,1,1,0,0,0-.62-.2,2.66,2.66,0,0,0-1,.22L117,121l3.93-1.59Z" style="fill:#4d4c4c"/><path d="M126.76,119.76h6.12v.52h-.39a1.22,1.22,0,0,0-.85.27,1,1,0,0,0-.29.73,3,3,0,0,0,.3,1.18l3,7.18,3-7.45A3.55,3.55,0,0,0,138,121a.52.52,0,0,0-.11-.33.81.81,0,0,0-.4-.29,4,4,0,0,0-1-.08v-.52h4.24v.52a1.87,1.87,0,0,0-1,.3,3.65,3.65,0,0,0-.89,1.42l-4.62,11.16h-.58l-4.64-11a4.23,4.23,0,0,0-.6-1.1,2.25,2.25,0,0,0-.72-.56,3.57,3.57,0,0,0-1-.25Z" style="fill:#4d4c4c"/><path d="M146.46,119.38v10.45a5.06,5.06,0,0,0,.17,1.62,1.25,1.25,0,0,0,.53.6,2.69,2.69,0,0,0,1.27.2v.51h-6.32v-.51a3,3,0,0,0,1.28-.18,1.27,1.27,0,0,0,.52-.61,4.57,4.57,0,0,0,.19-1.63v-5a17,17,0,0,0-.13-2.74,1.1,1.1,0,0,0-.31-.63.87.87,0,0,0-.58-.18,2.7,2.7,0,0,0-1,.22l-.2-.51,3.92-1.59Zm-1.18-6.8a1.4,1.4,0,0,1,1,.41,1.45,1.45,0,0,1-1,2.47,1.4,1.4,0,0,1-1-.43,1.36,1.36,0,0,1-.43-1,1.42,1.42,0,0,1,1.45-1.43Z" style="fill:#4d4c4c"/><path d="M161.09,127.82a7,7,0,0,1-2.05,4,4.91,4.91,0,0,1-7.26-.48,7.29,7.29,0,0,1-1.65-5,6.93,6.93,0,0,1,1.83-5,5.83,5.83,0,0,1,4.38-1.91,4.82,4.82,0,0,1,3.15,1,2.82,2.82,0,0,1,1.23,2.11,1.15,1.15,0,0,1-.34.87,1.36,1.36,0,0,1-1,.34,1.53,1.53,0,0,1-1.27-.54,2.35,2.35,0,0,1-.32-1.14,1.87,1.87,0,0,0-.57-1.28,2.07,2.07,0,0,0-1.38-.42,2.79,2.79,0,0,0-2.28,1,5.57,5.57,0,0,0-1.16,3.68,7.42,7.42,0,0,0,1.15,4.1,3.51,3.51,0,0,0,3.09,1.79,3.73,3.73,0,0,0,2.49-.95,6.45,6.45,0,0,0,1.52-2.38Z" style="fill:#4d4c4c"/><path d="M167.44,119.38v10.45a4.7,4.7,0,0,0,.18,1.62,1.2,1.2,0,0,0,.53.6,2.66,2.66,0,0,0,1.26.2v.51H163.1v-.51a3,3,0,0,0,1.27-.18,1.27,1.27,0,0,0,.52-.61,4.51,4.51,0,0,0,.2-1.63v-5a18.37,18.37,0,0,0-.13-2.74,1.1,1.1,0,0,0-.32-.63.86.86,0,0,0-.58-.18,2.65,2.65,0,0,0-1,.22l-.2-.51,3.92-1.59Zm-1.18-6.8a1.44,1.44,0,0,1,1,2.45,1.4,1.4,0,0,1-1,.43,1.41,1.41,0,0,1-1-.43,1.4,1.4,0,0,1-.43-1,1.43,1.43,0,0,1,.42-1A1.4,1.4,0,0,1,166.26,112.58Z" style="fill:#4d4c4c"/><path d="M177.39,119.38a5.77,5.77,0,0,1,4.75,2.24,6.89,6.89,0,0,1,1.51,4.4,8.31,8.31,0,0,1-.83,3.54,6,6,0,0,1-5.58,3.6,5.5,5.5,0,0,1-4.67-2.34,7.24,7.24,0,0,1-1.47-4.43,7.91,7.91,0,0,1,.89-3.56,5.92,5.92,0,0,1,5.4-3.45Zm-.44.92a3,3,0,0,0-1.51.45,3.19,3.19,0,0,0-1.23,1.56,7.62,7.62,0,0,0-.47,2.89,10.11,10.11,0,0,0,1.13,4.9,3.37,3.37,0,0,0,3,2.05,2.76,2.76,0,0,0,2.27-1.13,6.45,6.45,0,0,0,.89-3.91,8.86,8.86,0,0,0-1.49-5.45A3.05,3.05,0,0,0,177,120.3Z" style="fill:#4d4c4c"/><path d="M194,119.38v4.43h-.47a5.74,5.74,0,0,0-1.38-2.84,3.11,3.11,0,0,0-2.16-.76,2.37,2.37,0,0,0-1.6.53,1.51,1.51,0,0,0-.61,1.16,2.15,2.15,0,0,0,.45,1.37A5.15,5.15,0,0,0,190,124.5l2.08,1q2.88,1.41,2.88,3.7a3.53,3.53,0,0,1-1.34,2.87,4.69,4.69,0,0,1-3,1.08,10.44,10.44,0,0,1-2.72-.42,2.7,2.7,0,0,0-.77-.15.57.57,0,0,0-.51.37h-.47v-4.64h.47a5.26,5.26,0,0,0,1.52,3,3.64,3.64,0,0,0,2.51,1,2.27,2.27,0,0,0,1.6-.57,1.84,1.84,0,0,0,.62-1.39,2.18,2.18,0,0,0-.69-1.64,11.9,11.9,0,0,0-2.75-1.69,8.19,8.19,0,0,1-2.7-1.85,3.23,3.23,0,0,1-.64-2,3.6,3.6,0,0,1,1.1-2.68,3.92,3.92,0,0,1,2.85-1.08,6.58,6.58,0,0,1,1.86.32,4.56,4.56,0,0,0,1,.22.58.58,0,0,0,.35-.1,1.53,1.53,0,0,0,.3-.44Z" style="fill:#4d4c4c"/><path d="M220.76,113.07l.43,6.55h-.43a8.24,8.24,0,0,0-2.52-4.23,6.13,6.13,0,0,0-3.92-1.3,6.37,6.37,0,0,0-3.46,1,6.45,6.45,0,0,0-2.44,3.1,13.83,13.83,0,0,0-.88,5.29,11.34,11.34,0,0,0,.83,4.53,6.24,6.24,0,0,0,2.53,2.94,7.24,7.24,0,0,0,3.83,1,6.6,6.6,0,0,0,3.31-.8,10.69,10.69,0,0,0,3.15-3.18l.44.28a10.08,10.08,0,0,1-3.37,3.76,8.53,8.53,0,0,1-4.59,1.19,8.67,8.67,0,0,1-7.41-3.55,10.11,10.11,0,0,1-2-6.21,11.05,11.05,0,0,1,1.29-5.3,9.37,9.37,0,0,1,3.56-3.74,9.57,9.57,0,0,1,4.95-1.33,9,9,0,0,1,4.11,1,2.27,2.27,0,0,0,.85.32.94.94,0,0,0,.67-.27,2.25,2.25,0,0,0,.53-1.07Z" style="fill:#4d4c4c"/><path d="M229.91,119.38a5.74,5.74,0,0,1,4.74,2.24,6.84,6.84,0,0,1,1.52,4.4,8.31,8.31,0,0,1-.83,3.54,6,6,0,0,1-5.58,3.6,5.5,5.5,0,0,1-4.67-2.34,7.24,7.24,0,0,1-1.47-4.43,7.91,7.91,0,0,1,.89-3.56,5.89,5.89,0,0,1,5.4-3.45Zm-.44.92a3,3,0,0,0-1.51.45,3.13,3.13,0,0,0-1.23,1.56,7.62,7.62,0,0,0-.47,2.89,10.11,10.11,0,0,0,1.13,4.9,3.37,3.37,0,0,0,3,2.05,2.77,2.77,0,0,0,2.27-1.13,6.52,6.52,0,0,0,.89-3.91,8.86,8.86,0,0,0-1.49-5.45A3.06,3.06,0,0,0,229.47,120.3Z" style="fill:#4d4c4c"/><path d="M241.89,119.38v2.92q1.63-2.92,3.36-2.92a1.82,1.82,0,0,1,1.29.47,1.48,1.48,0,0,1,.51,1.1,1.3,1.3,0,0,1-.37.94,1.2,1.2,0,0,1-.88.38,1.84,1.84,0,0,1-1.11-.49,1.94,1.94,0,0,0-.92-.49.83.83,0,0,0-.55.29,6.69,6.69,0,0,0-1.33,1.91v6.24a3.82,3.82,0,0,0,.28,1.63,1.44,1.44,0,0,0,.65.64,2.87,2.87,0,0,0,1.35.25v.51h-6.66v-.51a2.73,2.73,0,0,0,1.47-.31,1.17,1.17,0,0,0,.5-.72,7.18,7.18,0,0,0,.07-1.38v-5a21.54,21.54,0,0,0-.09-2.71,1.07,1.07,0,0,0-.34-.63,1,1,0,0,0-.62-.2,2.66,2.66,0,0,0-1,.22l-.14-.51,3.93-1.59Z" style="fill:#4d4c4c"/><path d="M246.84,121.05l4-1.62h.54v3a7.39,7.39,0,0,1,2-2.41,3.74,3.74,0,0,1,2.14-.68,4.13,4.13,0,0,1,3.27,1.53,7.25,7.25,0,0,1,1.6,4.88,8.17,8.17,0,0,1-1.93,5.57,5.13,5.13,0,0,1-4,1.8,5,5,0,0,1-1.81-.3,4.09,4.09,0,0,1-1.28-.85v4a5.62,5.62,0,0,0,.16,1.7,1.21,1.21,0,0,0,.57.57,3.34,3.34,0,0,0,1.47.22V139h-6.82v-.52h.36a2.58,2.58,0,0,0,1.34-.3,1,1,0,0,0,.41-.5,6.1,6.1,0,0,0,.15-1.77v-12.3a7.09,7.09,0,0,0-.11-1.6,1,1,0,0,0-.36-.51,1.14,1.14,0,0,0-.68-.17,2.36,2.36,0,0,0-.86.2Zm4.54,2.26v4.85a10.07,10.07,0,0,0,.13,2.08,2.57,2.57,0,0,0,1,1.44,3,3,0,0,0,2,.63,2.8,2.8,0,0,0,2.3-1.11,6.36,6.36,0,0,0,1.15-4.07,7.05,7.05,0,0,0-1.31-4.59,2.7,2.7,0,0,0-2.15-1.11,3,3,0,0,0-1.35.34A8.24,8.24,0,0,0,251.38,123.31Z" style="fill:#4d4c4c"/><path d="M268.67,119.38a5.77,5.77,0,0,1,4.75,2.24,6.89,6.89,0,0,1,1.51,4.4,8.46,8.46,0,0,1-.83,3.54,6,6,0,0,1-5.59,3.6,5.53,5.53,0,0,1-4.67-2.34,7.29,7.29,0,0,1-1.46-4.43,7.91,7.91,0,0,1,.89-3.56,5.92,5.92,0,0,1,5.4-3.45Zm-.44.92a3,3,0,0,0-1.51.45,3.08,3.08,0,0,0-1.23,1.56,7.62,7.62,0,0,0-.47,2.89,10.11,10.11,0,0,0,1.13,4.9,3.36,3.36,0,0,0,3,2.05A2.76,2.76,0,0,0,271.4,131a6.45,6.45,0,0,0,.89-3.91,8.86,8.86,0,0,0-1.49-5.45A3.06,3.06,0,0,0,268.23,120.3Z" style="fill:#4d4c4c"/><path d="M280.66,119.38v2.92q1.62-2.92,3.35-2.92a1.8,1.8,0,0,1,1.29.47,1.48,1.48,0,0,1,.51,1.1,1.3,1.3,0,0,1-.37.94,1.2,1.2,0,0,1-.88.38,1.84,1.84,0,0,1-1.11-.49,1.94,1.94,0,0,0-.92-.49.83.83,0,0,0-.55.29,6.5,6.5,0,0,0-1.32,1.91v6.24a4,4,0,0,0,.26,1.63,1.57,1.57,0,0,0,.66.64,2.87,2.87,0,0,0,1.35.25v.51h-6.66v-.51a2.79,2.79,0,0,0,1.48-.31,1.2,1.2,0,0,0,.49-.72,7.18,7.18,0,0,0,.07-1.38v-5a21.54,21.54,0,0,0-.09-2.71,1.13,1.13,0,0,0-.34-.63,1,1,0,0,0-.62-.2,2.66,2.66,0,0,0-1,.22l-.14-.51,3.93-1.59Z" style="fill:#4d4c4c"/><path d="M293.9,130.89a21.35,21.35,0,0,1-2.51,1.79,4,4,0,0,1-1.63.35,2.9,2.9,0,0,1-2.22-.92,3.34,3.34,0,0,1-.88-2.43,3,3,0,0,1,.43-1.64,5.61,5.61,0,0,1,2-1.82,31,31,0,0,1,4.79-2.07v-.52a4.23,4.23,0,0,0-.61-2.66,2.24,2.24,0,0,0-1.8-.73,2,2,0,0,0-1.42.48,1.46,1.46,0,0,0-.54,1.11l0,.82a1.37,1.37,0,0,1-.34,1,1.12,1.12,0,0,1-.87.36,1.09,1.09,0,0,1-.86-.37,1.46,1.46,0,0,1-.33-1,2.88,2.88,0,0,1,1.25-2.24,5.39,5.39,0,0,1,3.5-1,6,6,0,0,1,2.84.58,2.65,2.65,0,0,1,1.24,1.37,7.88,7.88,0,0,1,.25,2.5v4.42a18.71,18.71,0,0,0,.08,2.28.92.92,0,0,0,.23.56.57.57,0,0,0,.38.14.71.71,0,0,0,.39-.1,8.42,8.42,0,0,0,1.15-1v.79q-1.59,2.13-3,2.13a1.38,1.38,0,0,1-1.11-.48A2.57,2.57,0,0,1,293.9,130.89Zm0-.92v-5a27.85,27.85,0,0,0-2.77,1.21,4.91,4.91,0,0,0-1.6,1.3,2.57,2.57,0,0,0-.48,1.5,2.41,2.41,0,0,0,.61,1.69,1.83,1.83,0,0,0,1.4.68A5.19,5.19,0,0,0,293.9,130Z" style="fill:#4d4c4c"/><path d="M303.22,115.49v4.27h3v1h-3v8.44a2.83,2.83,0,0,0,.36,1.7,1.16,1.16,0,0,0,.93.44,1.68,1.68,0,0,0,.91-.29,1.86,1.86,0,0,0,.68-.86h.55a4.41,4.41,0,0,1-1.4,2.09,3,3,0,0,1-1.88.71,2.5,2.5,0,0,1-1.27-.36,2.24,2.24,0,0,1-.93-1,5.44,5.44,0,0,1-.3-2.08v-8.75h-2.06v-.47a5.29,5.29,0,0,0,1.6-1,8.51,8.51,0,0,0,1.46-1.77,16.14,16.14,0,0,0,.91-2Z" style="fill:#4d4c4c"/><path d="M312,119.38v10.45a4.78,4.78,0,0,0,.17,1.62,1.2,1.2,0,0,0,.53.6,2.69,2.69,0,0,0,1.27.2v.51h-6.32v-.51a3,3,0,0,0,1.28-.18,1.27,1.27,0,0,0,.52-.61,4.82,4.82,0,0,0,.19-1.63v-5a18.37,18.37,0,0,0-.13-2.74,1.16,1.16,0,0,0-.31-.63.89.89,0,0,0-.59-.18,2.7,2.7,0,0,0-1,.22l-.2-.51,3.92-1.59Zm-1.19-6.8a1.44,1.44,0,0,1,1,2.45,1.4,1.4,0,0,1-1,.43,1.43,1.43,0,0,1-1-.43,1.43,1.43,0,0,1,1-2.45Z" style="fill:#4d4c4c"/><path d="M314.93,119.76h6.12v.52h-.4a1.18,1.18,0,0,0-.84.27.93.93,0,0,0-.3.73,3,3,0,0,0,.3,1.18l3,7.18,3-7.45a3.55,3.55,0,0,0,.33-1.21.52.52,0,0,0-.11-.33.81.81,0,0,0-.4-.29,4,4,0,0,0-1-.08v-.52H329v.52a1.88,1.88,0,0,0-1,.3A3.77,3.77,0,0,0,327,122l-4.61,11.16h-.59l-4.64-11a4.23,4.23,0,0,0-.6-1.1,2.14,2.14,0,0,0-.72-.56,3.46,3.46,0,0,0-.95-.25Z" style="fill:#4d4c4c"/><path d="M336.5,119.38a5.77,5.77,0,0,1,4.74,2.24,6.9,6.9,0,0,1,1.52,4.4,8.33,8.33,0,0,1-.84,3.54,6,6,0,0,1-5.58,3.6,5.5,5.5,0,0,1-4.67-2.34,7.29,7.29,0,0,1-1.46-4.43,7.9,7.9,0,0,1,.88-3.56,5.92,5.92,0,0,1,5.41-3.45Zm-.44.92a3,3,0,0,0-1.52.45,3.12,3.12,0,0,0-1.22,1.56,7.43,7.43,0,0,0-.47,2.89,10,10,0,0,0,1.13,4.9,3.35,3.35,0,0,0,3,2.05,2.75,2.75,0,0,0,2.27-1.13,6.44,6.44,0,0,0,.9-3.91,8.93,8.93,0,0,0-1.49-5.45A3.08,3.08,0,0,0,336.06,120.3Z" style="fill:#4d4c4c"/><path d="M353.08,119.38v4.43h-.47a5.74,5.74,0,0,0-1.38-2.84,3.09,3.09,0,0,0-2.15-.76,2.38,2.38,0,0,0-1.61.53,1.51,1.51,0,0,0-.61,1.16,2.15,2.15,0,0,0,.45,1.37,5.15,5.15,0,0,0,1.79,1.23l2.08,1q2.88,1.41,2.88,3.7a3.53,3.53,0,0,1-1.34,2.87,4.69,4.69,0,0,1-3,1.08,10.44,10.44,0,0,1-2.72-.42,2.7,2.7,0,0,0-.77-.15.57.57,0,0,0-.51.37h-.47v-4.64h.47a5.33,5.33,0,0,0,1.52,3,3.66,3.66,0,0,0,2.51,1,2.27,2.27,0,0,0,1.6-.57,1.84,1.84,0,0,0,.62-1.39,2.18,2.18,0,0,0-.69-1.64,11.9,11.9,0,0,0-2.75-1.69,8.19,8.19,0,0,1-2.7-1.85,3.23,3.23,0,0,1-.64-2,3.6,3.6,0,0,1,1.1-2.68,3.92,3.92,0,0,1,2.85-1.08,6.58,6.58,0,0,1,1.86.32,4.69,4.69,0,0,0,1,.22.58.58,0,0,0,.35-.1,1.35,1.35,0,0,0,.3-.44Z" style="fill:#4d4c4c"/><path d="M375.68,113.07v6.66h-.52a8.28,8.28,0,0,0-.92-3,4.82,4.82,0,0,0-1.88-1.81,5.25,5.25,0,0,0-2.53-.66,3.44,3.44,0,0,0-2.44.9,2.75,2.75,0,0,0-1,2,2.44,2.44,0,0,0,.61,1.6,15.79,15.79,0,0,0,4.19,2.84,29,29,0,0,1,3.69,2.23,5.39,5.39,0,0,1,1.52,1.82,4.85,4.85,0,0,1,.53,2.2,5,5,0,0,1-1.7,3.77,6.1,6.1,0,0,1-4.36,1.58,9.85,9.85,0,0,1-1.58-.12,16.49,16.49,0,0,1-1.82-.52,8.2,8.2,0,0,0-1.76-.45.76.76,0,0,0-.56.21,1.76,1.76,0,0,0-.3.88h-.53v-6.6h.53a9.07,9.07,0,0,0,1,3.1,4.88,4.88,0,0,0,1.91,1.72,6,6,0,0,0,2.82.68,4,4,0,0,0,2.8-.94,2.88,2.88,0,0,0,1-2.21,3,3,0,0,0-.39-1.44,4.31,4.31,0,0,0-1.21-1.35,35.27,35.27,0,0,0-3-1.81,28.77,28.77,0,0,1-3.51-2.21,5.8,5.8,0,0,1-1.58-1.81,4.53,4.53,0,0,1-.54-2.19,4.74,4.74,0,0,1,1.59-3.57,5.64,5.64,0,0,1,4-1.5,8.17,8.17,0,0,1,3.26.75,3.29,3.29,0,0,0,1.12.36.82.82,0,0,0,.6-.22,1.77,1.77,0,0,0,.38-.89Z" style="fill:#4d4c4c"/><path d="M382.15,130a1.52,1.52,0,0,1,1.13.46,1.55,1.55,0,0,1,.45,1.12,1.58,1.58,0,1,1-2.69-1.13A1.54,1.54,0,0,1,382.15,130Z" style="fill:#4d4c4c"/><path d="M399.1,126.32h-7.46l-1.31,3a4.76,4.76,0,0,0-.48,1.67,1,1,0,0,0,.42.78,3.73,3.73,0,0,0,1.81.43v.52H386v-.52a3.23,3.23,0,0,0,1.56-.56,8.53,8.53,0,0,0,1.6-2.76L396,113.07h.49l6.71,16a7.17,7.17,0,0,0,1.46,2.5,3,3,0,0,0,1.84.65v.52h-7.59v-.52a2.94,2.94,0,0,0,1.55-.38,1,1,0,0,0,.41-.8,5.84,5.84,0,0,0-.57-2Zm-.4-1-3.27-7.78-3.35,7.78Z" style="fill:#4d4c4c"/><path d="M410.42,130a1.52,1.52,0,0,1,1.13.46,1.55,1.55,0,0,1,.45,1.12,1.58,1.58,0,1,1-2.69-1.13A1.54,1.54,0,0,1,410.42,130Z" style="fill:#4d4c4c"/></svg>