<svg xmlns="http://www.w3.org/2000/svg" viewBox="0 0 283.46 283.46"><title>1</title><rect x="-0.28" y="-0.41" width="284.03" height="284.28" style="fill:#fff"/><path d="M52.59,282.22H231V259.79s-4-38.63-42.3-44.14H154.11l-13,30.91-10.95-30H95.25S68,213.81,53,252.8C53,252.8,52.22,281.85,52.59,282.22Z" style="fill:#00dcb4"/><path d="M198.45,140.09c0,35.72-29.13,64.68-56.51,64.68-28.26,0-56.51-29-56.51-64.68,0-18.61,2-40.24,12.39-53.22,9.57-11.94,26.82-16,43.53-16.15,16.12-.14,33.17,5.56,43.24,17.88C195.24,101.61,198.45,121.74,198.45,140.09Z" style="fill:#fcdfdd"/><path d="M77.46,125.77s-9.51.15-7.2,14,11.38,12.54,11.38,12.54a17.3,17.3,0,0,0,6.06-2.88s-2-11.24,0-19.75A11.8,11.8,0,0,0,77.46,125.77Z" style="fill:#fcdfdd"/><path d="M206.22,125.17s9.51.14,7.2,14S202,151.69,202,151.69A17.41,17.41,0,0,1,196,148.8s2-11.24,0-19.74A11.79,11.79,0,0,1,206.22,125.17Z" style="fill:#fcdfdd"/><path d="M130.18,192.94h23.93v23.93l-13,29.69-10.95-30S130.61,192.51,130.18,192.94Z" style="fill:#fcdfdd"/><line x1="81.28" y1="245.44" x2="81.28" y2="282.96" style="fill:none;stroke:#99f1e1;stroke-linecap:round;stroke-miterlimit:10;stroke-width:1.7696982716015446px"/><line x1="202.12" y1="244.96" x2="202.12" y2="282.48" style="fill:none;stroke:#99f1e1;stroke-linecap:round;stroke-miterlimit:10;stroke-width:1.7696982716015446px"/><line x1="141.05" y1="245.95" x2="141.05" y2="283.46" style="fill:none;stroke:#99f1e1;stroke-linecap:round;stroke-miterlimit:10;stroke-width:1.7696982716015446px"/><path d="M161.36,137.37a4.73,4.73,0,0,1,6.66,0,2.93,2.93,0,1,0,4.14-4.14,10.57,10.57,0,0,0-14.94,0,2.93,2.93,0,0,0,4.14,4.14Z" style="fill:#1d1d1b"/><path d="M115,137.71a4.73,4.73,0,0,1,6.66,0,2.93,2.93,0,0,0,4.14-4.14,10.59,10.59,0,0,0-14.94,0,2.93,2.93,0,0,0,4.14,4.14Z" style="fill:#1d1d1b"/><path d="M103.88,128.38s4.53-7.25,11.41-8,11.37-.2,14.19.69" style="fill:none;stroke:#472a26;stroke-linecap:round;stroke-miterlimit:10;stroke-width:5.3090948148046335px"/><path d="M140.07,181.49c-9.4,0-13.44-6.42-14.25-9.81a2.65,2.65,0,0,1,5.15-1.27c.17.61,1.76,5.77,9.1,5.77,7.79,0,9.71-5.61,9.73-5.66a2.66,2.66,0,0,1,5,1.65C154.72,172.55,151.66,181.49,140.07,181.49Z" style="fill:#f79e98"/><path d="M179.44,129s-4.52-7.25-11.41-8-11.37-.2-14.19.69" style="fill:none;stroke:#472a26;stroke-linecap:round;stroke-miterlimit:10;stroke-width:5.3090948148046335px"/><path d="M94,147.12s1.48,4,1.19,6a3.34,3.34,0,0,1-4.14,2.59c-1.48-.57-5.11-3.77-4.77-6.35s2.7-3.16,2.1-8.06.52-10.69-2.1-11.69-6.47.74-6.77-3a62.64,62.64,0,0,1,.59-14.13c.89-6.92-3.84-8.36.6-14.7s6.21-7.78,6.5-10.95-1.77-5.19,1.48-9.81,2.07-8.64,8-9.51,3.55-1.44,6.81-4.9,5.61-2.88,9.16-3.75.59-3.46,3.26-6,8.57-2,6.8-1.73-4.44,5.19-2.37,5.19-.29-.58,3.85-2.6,5.91-2.88,7.39-3.17,1.48-7.2,10.35-5.19,8.28,3.17,14.19,4,9.47.58,10.65,3.17,4.14,3.46,6.51,4,4.43,2.3,4.14,6.34-3.55,5.19,2.07,4.32,8.28,1.44,9.76,3.75.59,3.17,4.14,7.21,1.47,2.88,2.36,8.36,1.18,7.49,2.66,11.53.89,6.34.89,9.51,2.37,3.75,1.18,6.63-2.36.58-2.66,5.48-1.18,6.63,2.66,8.36,5.33,2.31,4.73,5.19-2.07,1.15-4.73,3.46-3.25,1.73-3.25,4.61,2.66,6.55.15,7.45-4.59,4.66-6.36,4.66-2.07-.58-1.18-5.19,1.77-8.36,1.18-13.26-7.39-8.65-7.1-13.84,3.55-16.14,2.66-20.76S181,84.56,178.31,84s-4.73.87-9.16,1.73-6.81,2.6-9.76,0-3.26-5.19-7.1-3.17-4.14,6.63-9.76,5.77-8-1.73-9.46-4.62-3.55-4.32-6.51-3.17a25.39,25.39,0,0,0-7.39,4.9c-2.37,2-6.51,1.16-8.58,2.89s-6.8,4.61-9.16,2.88-1.48-6.92-2.37-1.73-5.91,6.63-5.91,12.4.88,16.43.88,20.46-1.77,12.4-.88,15.28S94,147.12,94,147.12Z" style="fill:#472a26"/></svg>