<svg xmlns="http://www.w3.org/2000/svg" viewBox="0 0 283.46 283.46"><title>2</title><rect x="-0.28" y="-0.41" width="284.03" height="284.28" style="fill:#fff"/><path d="M52.36,282.22H231.2V259.73s-4-38.72-42.4-44.25H154.14l-13,31-11-30.06h-35s-27.29-2.78-42.41,36.31C52.73,252.72,52,281.85,52.36,282.22Z" style="fill:#f47d75"/><path d="M198.42,139.53c0,39-25.36,64.4-56.65,64.4s-56.65-25.42-56.65-64.4c0-19.24,2.79-41.31,12.72-55.06,10.18-14.11,27.7-19.65,43.54-19.65,15.65,0,31.66,6.52,42,20.33S198.42,120,198.42,139.53Z" style="fill:#fcdfdd"/><path d="M77.3,126.26s-9.54.14-7.22,14,11.41,12.57,11.41,12.57A17.51,17.51,0,0,0,87.56,150s-2-11.27,0-19.8A11.82,11.82,0,0,0,77.3,126.26Z" style="fill:#fcdfdd"/><path d="M206.38,125.65s9.53.15,7.22,14-11.41,12.57-11.41,12.57a17.22,17.22,0,0,1-6.07-2.89s2-11.27,0-19.79A11.81,11.81,0,0,1,206.38,125.65Z" style="fill:#fcdfdd"/><path d="M130.15,192.71h24v24l-13,29.77-11-30.06S130.58,192.28,130.15,192.71Z" style="fill:#fcdfdd"/><line x1="81.13" y1="245.34" x2="81.13" y2="282.96" style="fill:none;stroke:#fff;stroke-linecap:round;stroke-miterlimit:10;stroke-width:1.5763403833848115px"/><line x1="202.27" y1="244.86" x2="202.27" y2="282.47" style="fill:none;stroke:#fff;stroke-linecap:round;stroke-miterlimit:10;stroke-width:1.5763403833848115px"/><line x1="141.05" y1="245.85" x2="141.05" y2="283.46" style="fill:none;stroke:#fff;stroke-linecap:round;stroke-miterlimit:10;stroke-width:1.5763403833848115px"/><path d="M161.41,137.89a4.73,4.73,0,0,1,6.68,0,2.92,2.92,0,0,0,2.07.86,2.94,2.94,0,0,0,2.08-5,10.6,10.6,0,0,0-15,0,2.93,2.93,0,1,0,4.15,4.15Z" style="fill:#1d1d1b"/><path d="M114.94,138.23a4.73,4.73,0,0,1,6.68,0,2.92,2.92,0,0,0,2.07.86,2.94,2.94,0,0,0,2.08-5,10.6,10.6,0,0,0-15,0,2.93,2.93,0,0,0,4.15,4.15Z" style="fill:#1d1d1b"/><path d="M102.89,128a14.87,14.87,0,0,1,10.13-6.3c7-1,11.38-.51,14.23.31" style="fill:none;stroke:#1d1d1b;stroke-linecap:round;stroke-miterlimit:10;stroke-width:5.322477377776516px"/><path d="M177.85,126.83a14.84,14.84,0,0,0-10-6.43c-7-1.08-11.37-.66-14.24.12" style="fill:none;stroke:#1d1d1b;stroke-linecap:round;stroke-miterlimit:10;stroke-width:5.322477377776516px"/><line x1="107.91" y1="241.66" x2="111.38" y2="244.41" style="fill:none;stroke:#fff;stroke-linecap:round;stroke-miterlimit:10;stroke-width:4.435397814813763px"/><line x1="95.38" y1="253.29" x2="92.35" y2="257.19" style="fill:none;stroke:#fff;stroke-linecap:round;stroke-miterlimit:10;stroke-width:4.435397814813763px"/><line x1="117.88" y1="260.74" x2="121.35" y2="263.48" style="fill:none;stroke:#fff;stroke-linecap:round;stroke-miterlimit:10;stroke-width:4.435397814813763px"/><line x1="104.49" y1="269.76" x2="101.45" y2="273.66" style="fill:none;stroke:#fff;stroke-linecap:round;stroke-miterlimit:10;stroke-width:4.435397814813763px"/><line x1="108.8" y1="225.19" x2="112.27" y2="227.94" style="fill:none;stroke:#fff;stroke-linecap:round;stroke-miterlimit:10;stroke-width:4.435397814813763px"/><line x1="94.54" y1="231.03" x2="91.51" y2="234.93" style="fill:none;stroke:#fff;stroke-linecap:round;stroke-miterlimit:10;stroke-width:4.435397814813763px"/><line x1="127.13" y1="240.51" x2="130.6" y2="243.25" style="fill:none;stroke:#fff;stroke-linecap:round;stroke-miterlimit:10;stroke-width:4.435397814813763px"/><line x1="67.82" y1="243.01" x2="64.79" y2="246.91" style="fill:none;stroke:#fff;stroke-linecap:round;stroke-miterlimit:10;stroke-width:4.435397814813763px"/><line x1="69.68" y1="257.78" x2="73.15" y2="260.53" style="fill:none;stroke:#fff;stroke-linecap:round;stroke-miterlimit:10;stroke-width:4.435397814813763px"/><line x1="63.05" y1="268.61" x2="60.02" y2="272.51" style="fill:none;stroke:#fff;stroke-linecap:round;stroke-miterlimit:10;stroke-width:4.435397814813763px"/><line x1="175.05" y1="240.86" x2="171.58" y2="243.61" style="fill:none;stroke:#fff;stroke-linecap:round;stroke-miterlimit:10;stroke-width:4.435397814813763px"/><line x1="187.58" y1="252.48" x2="190.61" y2="256.38" style="fill:none;stroke:#fff;stroke-linecap:round;stroke-miterlimit:10;stroke-width:4.435397814813763px"/><line x1="165.08" y1="259.94" x2="161.61" y2="262.68" style="fill:none;stroke:#fff;stroke-linecap:round;stroke-miterlimit:10;stroke-width:4.435397814813763px"/><line x1="178.48" y1="268.96" x2="181.51" y2="272.86" style="fill:none;stroke:#fff;stroke-linecap:round;stroke-miterlimit:10;stroke-width:4.435397814813763px"/><line x1="174.16" y1="224.39" x2="170.69" y2="227.13" style="fill:none;stroke:#fff;stroke-linecap:round;stroke-miterlimit:10;stroke-width:4.435397814813763px"/><line x1="188.42" y1="230.23" x2="191.46" y2="234.13" style="fill:none;stroke:#fff;stroke-linecap:round;stroke-miterlimit:10;stroke-width:4.435397814813763px"/><line x1="155.83" y1="239.71" x2="152.37" y2="242.45" style="fill:none;stroke:#fff;stroke-linecap:round;stroke-miterlimit:10;stroke-width:4.435397814813763px"/><line x1="215.14" y1="242.21" x2="218.18" y2="246.11" style="fill:none;stroke:#fff;stroke-linecap:round;stroke-miterlimit:10;stroke-width:4.435397814813763px"/><line x1="213.28" y1="256.98" x2="209.81" y2="259.73" style="fill:none;stroke:#fff;stroke-linecap:round;stroke-miterlimit:10;stroke-width:4.435397814813763px"/><line x1="219.91" y1="267.8" x2="222.95" y2="271.7" style="fill:none;stroke:#fff;stroke-linecap:round;stroke-miterlimit:10;stroke-width:4.435397814813763px"/><path d="M131.56,179.19s4.9,2.93,9.25,2.93a23.34,23.34,0,0,0,9.05-2.35" style="fill:none;stroke:#f9beba;stroke-linecap:round;stroke-miterlimit:10;stroke-width:5.322477377776516px"/><path d="M117.49,72.15s5.78-.38,8.09,3.47,3.08,4.62,6.16,5.78,6.17,2.7,8.87.77a43.41,43.41,0,0,1,8.47-4.62c3.47-1.54,1.93-4.63,5.4-5s9.25-1.16,12.33.77,7.71,4.24,10.4,8.09,5.4,10.4,7.32,12.33,4.24,4.24,2.7,6.94-2.69,4.9-1.53,8.75.38,3.18,2.31,7.81a30.45,30.45,0,0,1,2.69,11.18c0,2.7.38,9.64.38,9.64s-.12,4.85,1.16,5c1.79.22,2.71-4,2.71-7s2.31-5.3,3.46-9.54.29-6.93-.86-12.71-.69-10-3-15-3.08-8.09-1.92-10.79,2.31-6.93-.77-11.17-8.87-6.94-12.72-7.71-6.55-2.7-4.62-4.62,5-1.55,5-2.7-.77-5.4-3.46-3.85a36.14,36.14,0,0,0-6.55,4.62c-1.16,1.16-5-.39-5.78-2.31s-.77-5.78-5.4-6.94-3.85,1.93-8.86-2.7-3.08-10.4-6.17-9.24-4.62,4.23-3.47,6.16,5,5.78,1.55,5.4-7.71-1.16-8.87-3.09-5.78-5.78-9.24-5-6.56,5.4-6.17,7.33-2.31,5.39-5.39,6.16-9.25.39-10,2.7-5,6.16-6.17,8.48-4.62,8.09-6.16,10.4-5,8.09-5,11.94,1.92,7.33,2.31,11.56-1.93,10.79-1.93,14.26.81,8,.68,10.88,1.35,8,2.89,10.69.82,8.77,2.89,8.38.86-1.82.86-4.9-.77-11.18.77-17.34,5-10,3.86-14.64-3.47-6.94-2.7-10.41S94,91,97.83,86.41s7.71-9.25,12-10.79A59.74,59.74,0,0,0,117.49,72.15Z" style="fill:#1d1d1b"/></svg>