<svg xmlns="http://www.w3.org/2000/svg" viewBox="0 0 283.46 283.46"><title>7</title><rect x="-0.28" y="-0.41" width="284.03" height="284.28" style="fill:#fff"/><path d="M94,150.64s90.35-2.06,91.65-3.69,9.34,15.74,9.67,19.33-7.06,45.91-7.06,45.91l-11.51,6.08s-38.75.13-49.3,1.31c-11.73,1.3-30-.66-30-.66Z" style="fill:#472b27"/><path d="M182.16,137.58c0,34.44-8.47,58.56-40.4,58.54-30.62,0-48.87-23.89-48.87-58.32s18-66.35,46.68-66.35S182.16,103.15,182.16,137.58Z" style="fill:#fcdfdd"/><path d="M87.74,127.34s-9.68.14-7.33,14.22S92,154.31,92,154.31a17.76,17.76,0,0,0,6.16-2.93s-2.06-11.44,0-20.09A12,12,0,0,0,87.74,127.34Z" style="fill:#fcdfdd"/><path d="M130,193.22h24.34v24.34L152.51,247l-24.11,1L130,217.26S130.42,192.78,130,193.22Z" style="fill:#fcdfdd"/><path d="M160.82,139.37a4.79,4.79,0,0,1,6.77,0,3,3,0,0,0,4.21-4.21,10.75,10.75,0,0,0-15.19,0,3,3,0,0,0,4.21,4.21Z" style="fill:#1e1e1c"/><path d="M115.73,139.37a4.79,4.79,0,0,1,6.77,0,3,3,0,0,0,4.21-4.21,10.75,10.75,0,0,0-15.19,0,3,3,0,1,0,4.21,4.21Z" style="fill:#1e1e1c"/><path d="M108.54,133.85a3.54,3.54,0,0,0,2.57,3.39.68.68,0,0,0,.36-1.3,2.17,2.17,0,0,1-1.58-2.09.68.68,0,0,0-1.35,0Z" style="fill:#1e1e1c"/><path d="M110.11,131.8a3.56,3.56,0,0,0,2.57,3.39.67.67,0,0,0,.36-1.3,2.18,2.18,0,0,1-1.58-2.09.68.68,0,0,0-1.35,0Z" style="fill:#1e1e1c"/><path d="M172.82,133.72a2.17,2.17,0,0,1-1.57,2.1.67.67,0,0,0,.36,1.3,3.54,3.54,0,0,0,2.56-3.4.68.68,0,0,0-1.35,0Z" style="fill:#1e1e1c"/><path d="M171.25,131.67a2.18,2.18,0,0,1-1.58,2.1.67.67,0,0,0,.36,1.3,3.55,3.55,0,0,0,2.57-3.4.68.68,0,0,0-1.35,0Z" style="fill:#1e1e1c"/><path d="M141,180.57c-9.57,0-13.67-6.82-14.5-10.42a2.82,2.82,0,0,1,2-3.4,2.68,2.68,0,0,1,3.25,2.05c.17.65,1.79,6.13,9.26,6.13,7.92,0,9.88-6,9.89-6a2.69,2.69,0,0,1,3.41-1.81,2.86,2.86,0,0,1,1.73,3.56C155.87,171.07,152.76,180.57,141,180.57Z" style="fill:#f15d53"/><path d="M187.62,127.89s9.67.15,7.33,14.22-11.59,12.76-11.59,12.76a17.67,17.67,0,0,1-6.15-2.93s2-11.44,0-20.09A12,12,0,0,1,187.62,127.89Z" style="fill:#fcdfdd"/><path d="M51.36,283.24H232.81V260.42s-4.12-39.28-43-44.89l-34.94-.05s-4.54,11.44-13.06,11.24c-8.12-.19-11.86-10.51-11.86-10.51l-35.16.27s-33.82,2.52-43,36.83C49.8,260.54,51,282.87,51.36,283.24Z" style="fill:#00dcb4"/><path d="M83.43,285.28a.9.9,0,0,1-.9-.83L79.65,245.9a.9.9,0,0,1,.83-1,.92.92,0,0,1,1,.84l2.88,38.55a.9.9,0,0,1-.83,1Z" style="fill:#fff"/><path d="M199.83,284.7h-.08a.89.89,0,0,1-.81-1l3.62-38.45a.87.87,0,0,1,1-.81.89.89,0,0,1,.81,1l-3.62,38.45A.9.9,0,0,1,199.83,284.7Z" style="fill:#fff"/><path d="M156.09,73.64s1-1.3-2.39-3.91c-3.23-2.45-6-1.5-11.62-2.93-5.13-1.3-13.33-.32-20.17,2.28-5.28,2-8.54,1.63-13,5.54s-8.54,6.84-12.64,13-9.16,13.88-11.21,20.72-1.3,18.07-4.34,25.63c-3.18,7.91.9,21.94.22,29.76s1.51,25.45,1.3,27.15c-.44,3.47,1.7,7.92,2.39,14.77s1,9.33,4.78,14.55,4.34,5.86,6.73,7.16,5.16,5.38,6.95,6.52c1.4.89,5.12,4.45,7.17,4.13s6.36-.11,5-1.09-1.51-1.3-3.91-4.56-1.89-6.19-3.25-9.77c-.93-2.42-1-5.8-1.53-7.61-.23-.81-1.3-6.95.66-8.68,1.24-1.1.9-4.24.21-9.13s3.19-5.62,1.82-8.88-6.83-10.75-7.52-20.2-5.81-17.59-5.12-19.22,1.81-12.4,4.78-16.29c2.74-3.58,4.79-4.56,8.21-11.73s9.22-15.19,10.87-22.72c1.52-7,5.42-10.75,10.2-14.33s12.19-1.09,16.29-1.74,7.75-4.21,8.43-5.19A7.46,7.46,0,0,0,156.09,73.64Z" style="fill:#472b27"/><path d="M142.48,82.11c2.4,1,9.6,2.94,13.72,5.22s9.6,2.6,11.66,5.86,5.83,9.77,7.2,12.71,8.23,23.45,8.57,28-1.81,12.92-1.47,15.2,1.82,9.23,1.47,13.46-6.17,16.62-5.14,23.14.69,14.66.34,21.82-.68,16.29-1.37,19.88-5.14,9.45-4.8,11.4,7.2,0,9.6-5.21-1.37,9.12-.34,10.1,1.71-2.94,3.09-7.82,5.14-3.91,7.54-13,4.28-19.71,3.94-27.07c-.32-7.16,1-13.68.33-21.17-.51-5.89-1.53-16.92-2.21-21.16s-2.4-27.36-3.43-32.25-7.55-29-8.92-30.3-11.31-13.36-15.77-15-8.58-6.51-12.69-4.56-12.35,3.91-12.69,6.52A5.19,5.19,0,0,0,142.48,82.11Z" style="fill:#472b27"/></svg>