<svg xmlns="http://www.w3.org/2000/svg" viewBox="0 0 283.46 283.46"><title>8</title><rect x="-0.28" y="-0.41" width="284.03" height="284.28" style="fill:#fff"/><path d="M51.36,283.86H232.8V261s-4.11-39.28-43-44.89H154.61l-13.19,31.44L130.28,217.1H94.75S66,214.55,50.66,254.21C50.66,254.21,51,283.49,51.36,283.86Z" style="fill:#f15d53"/><path d="M199.72,139.3c0,36.33-29.64,65.79-57.48,65.79-28.75,0-57.48-29.46-57.48-65.79,0-18.93,5-42.15,15.55-55.35C110,71.8,124.76,62.8,141.76,62.65c16.4-.14,32.17,9.95,42.41,22.47C195,98.35,199.72,120.63,199.72,139.3Z" style="fill:#fad7ca"/><path d="M76.66,124.73S67,124.88,69.33,139s11.58,12.76,11.58,12.76a17.76,17.76,0,0,0,6.16-2.93s-2.06-11.44,0-20.09A12,12,0,0,0,76.66,124.73Z" style="fill:#fad7ca"/><path d="M207.61,124.12s9.68.14,7.33,14.22-11.58,12.75-11.58,12.75a17.76,17.76,0,0,1-6.16-2.93s2.06-11.43,0-20.08A12,12,0,0,1,207.61,124.12Z" style="fill:#fad7ca"/><path d="M130.28,193.06h24.33v24.33l-13.19,30.2L130.28,217.1S130.72,192.62,130.28,193.06Z" style="fill:#fad7ca"/><path d="M80.54,285.41a.8.8,0,0,1-.8-.8V246.45a.8.8,0,0,1,1.6,0v38.16A.8.8,0,0,1,80.54,285.41Z" style="fill:#fff"/><path d="M203.45,284.92a.8.8,0,0,1-.8-.8V246a.8.8,0,1,1,1.6,0v38.16A.8.8,0,0,1,203.45,284.92Z" style="fill:#fff"/><path d="M162,136.53a4.82,4.82,0,0,1,6.78,0,3,3,0,1,0,4.2-4.21,10.75,10.75,0,0,0-15.19,0,3,3,0,1,0,4.21,4.21Z" style="fill:#1d1e1b"/><path d="M114.85,136.88a4.79,4.79,0,0,1,6.77,0,3,3,0,0,0,4.21-4.21,10.75,10.75,0,0,0-15.19,0,3,3,0,0,0,4.21,4.21Z" style="fill:#1d1e1b"/><path d="M103.11,123.48A14.88,14.88,0,0,1,114,118.57c7.07-.07,11.34,1,14.07,2.18" style="fill:none;stroke:#1d1d1b;stroke-linecap:round;stroke-miterlimit:10;stroke-width:5.32247734069824px"/><path d="M179.88,124.75a14.89,14.89,0,0,0-10.3-5.94c-7.05-.74-11.4-.1-14.22.81" style="fill:none;stroke:#1d1d1b;stroke-linecap:round;stroke-miterlimit:10;stroke-width:5.32247734069824px"/><path d="M188.48,129.77c-2.54-5-9.26-6.27-19.27-6.62-9.19-.33-20.06.64-23.07,3.14a8.23,8.23,0,0,0-2.17,3.38,10.81,10.81,0,0,0-6-.18,8.12,8.12,0,0,0-2.1-3.2c-3-2.5-13.88-3.47-23.07-3.14-10,.35-16.73,1.59-19.27,6.62-2.39,4.73.63,12.25,2,14.46,2.18,3.51,9,5.9,11.51,6.31a39.15,39.15,0,0,0,5.74.31c2.7,0,6.24-.11,10.82-.33,9.12-.44,11.92-5.76,12.41-6.88a19.56,19.56,0,0,0,2.77-10,4.69,4.69,0,0,1,4.46.38,20,20,0,0,0,2.78,9.63c.49,1.12,3.29,6.44,12.41,6.88,4.59.22,8.12.33,10.82.33a39.15,39.15,0,0,0,5.74-.31c2.49-.41,9.33-2.8,11.51-6.31C187.85,142,190.88,134.5,188.48,129.77ZM130.8,141.83l-.14.3s-1.33,3.48-7.41,3.77c-3,.15-12.16.59-15.12.1-1.95-.32-6.6-2.27-7.59-3.87-1.4-2.24-3.15-8-1.82-10.59.81-1.61,2.65-3.36,14.31-3.78,10.68-.38,17.61,1.09,18.82,1.79C132.68,130.41,134.74,134.73,130.8,141.83Zm50.66.3c-1,1.6-5.65,3.55-7.6,3.87-3,.49-12.11.05-15.12-.1-5.83-.28-7.28-3.44-7.41-3.77l-.14-.3c-3.94-7.1-1.88-11.42-1.05-12.28,1.21-.7,8.14-2.17,18.83-1.79,11.65.42,13.49,2.17,14.3,3.78C184.6,134.16,182.85,139.89,181.46,142.13Z" style="fill:#472b27"/><path d="M125.14,79.27a66.48,66.48,0,0,0,11.73,2.61c5.87.65,10.6.74,14.34,0,1.63-.33,5.86-4.24,13.68-3.59s9.75,3,10.75,3.91c2.93,2.61,3.26,9.12,5.87,12.38s9.12,14.34,9.77,16.29,2,13,2,15-.66,5.86,0,8.47a34.77,34.77,0,0,0,2.93,6.59s.85-9.33,2.75-14.81-3.08-14.59-3.08-17.19a19.3,19.3,0,0,0-1.3-6.52c-.65-2-2-7.82-3.26-9.77S190,90,189.33,86.11s-3.91-5.86-3.26-7.82a25.22,25.22,0,0,0,.65-5.86s1.3-3.26-1.3-4.56-5.87-.66-6.52-2.61-6.52-6.52-6.52-6.52l-5.86-4.56s-5.21-2-7.17-2-5.86,2.6-8.47,2.6-5.21-1.3-8.47-1.3-7.17,0-9.12-.65-11.73.65-11.73.65l-10.42,4.56s-5.87-1.3-7.17,2,0,10.42-2.61,12.38-5.86,7.16-5.86,9.12S92.89,87.41,92.24,90s-2.61,6.52-2.61,8.47-3.25,4.56-3.91,7.17.66,9.12.66,9.12l-1.54,11.33,2.23,2.58,0,5,.65,4.88,1.95,2.28,3.88-11.07-2.57-15,5.21-10.43c1.3-2.6,2.61-6.51,3.91-9.77s-2.68-6.4,2.28-10.1,6.73-6.29,10.1-6.84C115.6,77.13,124.49,78,125.14,79.27Z" style="fill:#472b27"/><path d="M139.89,182.62c-5.22,0-9.87-3.34-10.07-3.49a2.7,2.7,0,0,1,3.17-4.37s3.46,2.46,6.9,2.46c3.88,0,9-2.15,9-2.17a2.7,2.7,0,0,1,2.12,5C150.79,180.13,144.88,182.62,139.89,182.62Z" style="fill:#f2ae9c"/><path d="M86.18,145.39a3.51,3.51,0,0,0-.17.78c-.06.78-.19,2.37-.29,2.82-.78,3.85.66,8.47,1.31,10.42s3.26,5.54,3.58,7.82,2.28,5.87,2.93,7.5,2.5,3.36,3.48,5.32,2.71,2.49,4,4.78,5.21,3.9,7.16,7.16,5.76,3.59,6.41,6.19,5.65,5.22,7.93,6.84,5.54,2.28,7.17,3.91,4.56-1.19,7.16.76,7.71.76,10.32-.54,7.49-.76,11.08-1.09,5.75-1.95,8-4.56,5.76-4,7.39-6.29,2.93-5.43,5.21-7.06,3.8-2.28,5.43-5.22,2.72-7,5.32-8.9,4.56-7.49,5.21-9.12,2.85-9.7,2.85-9.7,1.53-7.24,1.15-7.9c-.82-1.38-2.69-8.55-2.69-8.55l-2.93-7.65s1.46,8.55,2.11,10.5-.24,7.82-.24,8.8a62.47,62.47,0,0,1-1.55,7.65c-.32,1-1.95,5.54-1.95,5.54s-2.61,5.22-2.61,6.19-2.28,3.26-2.61,4.24-5.21,6.84-6.51,7.82-5.54,3.91-5.54,3.91-5.86,4.88-5.86,5.86-5.76,2.61-6.09,3.91-9,5.32-9,5.32-5.65,1.41-6.3.11a32.74,32.74,0,0,0-3.69-4.45,16.72,16.72,0,0,1,0-4.24c.25-1.23,1.12-3.78,1.52-4.94a1.09,1.09,0,0,0-.24-1.14,4.45,4.45,0,0,0-3.13-1.41,26.64,26.64,0,0,0-4.41.49,1.27,1.27,0,0,0-1,1c-.22,1-.45,2.75.21,3.62a17.73,17.73,0,0,1,1.85,4s.32,3.26-1,3.91-4.24,2.82-6.52,2.17-7.16-2.82-8.79-4.45-6.3-3.15-6.63-4.78-3.26-3.15-3.58-4.45-5.32-2.39-5.32-3.69-1.85-2.07-2.83-2.72-3.15-1.84-3.8-4.12-4.88-6.52-5.21-8.8-2.82-7.82-3.15-8.8-2.06-7.6-2.39-9.88,1.63-8.8.65-9.77a24.64,24.64,0,0,1-2.11-2.61S86.71,143.83,86.18,145.39Z" style="fill:#472b27"/><path d="M132.64,164.25s-3.91.65-5,1.95-5.21,2.17-6.3,3.69-4.12,3.48-4.56,4.78-2.6,4.78-2.6,5.65-1.09,5.43-1.09,6.3,2.17,2.39,2.17,2.39,2-9.13,2.83-10.65a6.85,6.85,0,0,1,3.91-3.47c2-.65,7.81-2.83,9.33-3s3.26-.22,3.91-.44,3.7-1.73,3.7-1.73a22.85,22.85,0,0,1,0-3.91C139.15,165.11,132.64,164.25,132.64,164.25Z" style="fill:#472b27"/><path d="M147.35,164.25s3.91.65,5,1.95,5.22,2.17,6.3,3.69,4.13,3.48,4.56,4.78,2.61,4.78,2.61,5.65,1.09,5.43,1.09,6.3-2.18,2.39-2.18,2.39-1.95-9.13-2.82-10.65a6.88,6.88,0,0,0-3.91-3.47c-2-.65-7.82-2.83-9.34-3s-3.26-.22-3.91-.44-3.69-1.73-3.69-1.73a22.85,22.85,0,0,0,0-3.91C140.83,165.11,147.35,164.25,147.35,164.25Z" style="fill:#472b27"/></svg>