<svg xmlns="http://www.w3.org/2000/svg" viewBox="0 0 283.46 283.46"><title>6</title><rect x="-0.28" y="-0.41" width="284.03" height="284.28" style="fill:#fff"/><path d="M81.16,146.71s104.36,1.95,110.55-1.31,5.43,55.39,5.43,55.39l-8.47,31.27L147,241.19,91.91,235,87,217.73,80.51,163Z" style="fill:#664735"/><path d="M189.33,137.56c0,34.44-21.83,58.67-47.81,58.36-20.93-.24-49.93-23.14-49.93-57.57s21.28-67.11,49.93-67.11S189.33,103.13,189.33,137.56Z" style="fill:#fcdfdd"/><path d="M87.74,125.79s-9.68.15-7.33,14.22S92,152.77,92,152.77a17.76,17.76,0,0,0,6.16-2.93s-2.06-11.44,0-20.09A12,12,0,0,0,87.74,125.79Z" style="fill:#fcdfdd"/><path d="M195.56,127.64s9.67.15,7.33,14.23-11.58,12.75-11.58,12.75a17.68,17.68,0,0,1-6.16-2.93s2-11.44,0-20.09A12,12,0,0,1,195.56,127.64Z" style="fill:#fcdfdd"/><path d="M130,191.68h24.34V216l-1.81,29.4-24.11,1L130,215.72S130.42,191.24,130,191.68Z" style="fill:#fcdfdd"/><path d="M51.06,282.49H232.51V259.67s-4.12-39.29-43-44.9l-34.94-.05s-3.28,28-11.8,27.77c-8.12-.19-13.12-27-13.12-27l-35.16.27s-27.69-2.82-43,36.84C51.44,252.56,50.69,282.11,51.06,282.49Z" style="fill:#00dcb4"/><line x1="80.24" y1="245.07" x2="83.13" y2="283.62" style="fill:none;stroke:#fff;stroke-linecap:round;stroke-miterlimit:10;stroke-width:1.8px"/><line x1="203.15" y1="244.58" x2="199.53" y2="283.04" style="fill:none;stroke:#fff;stroke-linecap:round;stroke-miterlimit:10;stroke-width:1.8px"/><path d="M160.82,137.83a4.79,4.79,0,0,1,6.77,0,3,3,0,0,0,4.21-4.21,10.75,10.75,0,0,0-15.19,0,3,3,0,1,0,4.21,4.21Z" style="fill:#1e1e1c"/><path d="M115.73,137.83a4.79,4.79,0,0,1,6.77,0,3,3,0,1,0,4.21-4.21,10.75,10.75,0,0,0-15.19,0,3,3,0,1,0,4.21,4.21Z" style="fill:#1e1e1c"/><path d="M108.54,132.3a3.55,3.55,0,0,0,2.57,3.4.68.68,0,0,0,.36-1.3,2.18,2.18,0,0,1-1.58-2.1.68.68,0,0,0-1.35,0Z" style="fill:#1e1e1c"/><path d="M110.11,130.25a3.56,3.56,0,0,0,2.57,3.4.67.67,0,0,0,.36-1.3,2.19,2.19,0,0,1-1.58-2.1.68.68,0,0,0-1.35,0Z" style="fill:#1e1e1c"/><path d="M172.82,132.18a2.15,2.15,0,0,1-1.57,2.09.68.68,0,0,0,.36,1.31,3.56,3.56,0,0,0,2.56-3.4.68.68,0,0,0-1.35,0Z" style="fill:#1e1e1c"/><path d="M171.25,130.13a2.18,2.18,0,0,1-1.58,2.1.67.67,0,0,0,.36,1.3,3.55,3.55,0,0,0,2.57-3.4.68.68,0,0,0-1.35,0Z" style="fill:#1e1e1c"/><path d="M141,179c-9.57,0-13.67-6.82-14.5-10.43a2.83,2.83,0,0,1,2-3.4,2.69,2.69,0,0,1,3.25,2.06c.17.65,1.79,6.13,9.26,6.13,7.92,0,9.88-6,9.89-6a2.69,2.69,0,0,1,3.41-1.8,2.85,2.85,0,0,1,1.73,3.56C155.87,169.53,152.76,179,141,179Z" style="fill:#f15d53"/><path d="M160.33,72.1s-3.91-5.86-10.75-7.49S141.43,62,133.29,63.3,119,63,115.37,66.24s-2.93-.65-8.47,3.91S99.73,73.4,94.85,81.22,89,91,86.38,95.88s-2.28,2.28-5.54,9.45-2.61,13-1.63,21.18.32,12.7.65,16-.33,6.52-2,11.08-2.94,4.89-2,10.1,2.28,2.28.65,9.77-3.26,5.22-.65,13,4.89,10.43,4.89,14.34a16.17,16.17,0,0,1-3.59,9.77c-2,2.61-5.86,3.91-5.21,6.19s2.66,1.36,1.36,4-4,3.85-2.66,4.83,2.6,1,3.91,1.3a6.2,6.2,0,0,1,2.44,2A11,11,0,0,0,79.88,231c.9.43,2.09-.24,2.59,1.74.65,2.6,1.46,2.1,3.09,2.2,1.47.08,1.22-.74,3.18-.74a7.84,7.84,0,0,1,3.58.74,10.24,10.24,0,0,0,3,.43c1-.24,4.05-1.68,4.47-3.12.57-2-6.57-13.52-6.57-21s-2-20.52-2-26.06-4.88-18.9-5.21-26.39,1.63-15.31,2-19.22-1.19-10.32-2-17.27c-.58-5.27,9.45-12.38,10.43-14.66s.65-2,6.19-6.84,6.08-11.08,11.94-14,7.06-4.45,13.9-4.78,11-2.71,15.2-.43,16,3.58,16,3.58a43.61,43.61,0,0,0,.65-6.51Z" style="fill:#664735"/><path d="M197.8,127.16c-.16-.58,0-6.33-1.09-9.77-1.52-5-1.63-7.5-2.61-11.73s-1.52-9-3.47-13.25a52.82,52.82,0,0,0-6.73-10.86c-2-2.28-3.26-3-6.52-6.3s-9.15-4.57-10.43-5C165,69.6,160,71.78,160,71.78a68.43,68.43,0,0,0,.33,7.16c.33,2-1,6.19-1,6.19s7.5,4.24,9.78,5.87a45.73,45.73,0,0,1,9.44,10.75c2.61,4.23,4.24,6.84,4.24,8.79a35.81,35.81,0,0,1-.72,5.25,4.27,4.27,0,0,0,.25,2.47,64.26,64.26,0,0,1,2.75,7.92c1,3.91,1.3,8.8,2,11.73a20.2,20.2,0,0,0,4,7.77.33.33,0,0,0,.06.1c1.27,1.9,3.84,6.89,3.55,8.75-.43,2.77-5.37,9.77-5,16.61s-5.54,14-4.89,16.62.33,9.12-.32,14.33a79.55,79.55,0,0,1-3.26,13.36c-.65,2-3.91,5.86-3.26,8.8s.33,3.91,3.59,3.25,6.19,0,9.44,0,1.78-.92,4.24-2.77c2.61-1.95,1.47,0,4.4-.32s6.68-2.77,8-4.07,1.14-3.1,1.14-7.5c0-4.12.16-7.82-1.14-10.75s-3.75-10.91-4.07-14.82-1-6.68-.65-9.61A49.79,49.79,0,0,0,201.38,163c-1.3-4.56,1.2-5.61.49-10.27s-2.12-8.3-2.44-10.91.16-9-.49-10.91C198.49,129.57,198.13,128.42,197.8,127.16Z" style="fill:#664735"/><path d="M94.32,135.1s-2,.82-2.12-.49-.16-3.25-.49-5.05-1.47-3.25-2.44-2.93-2.35,2.7-2.35,2.7l-1.13.56s-3.53-13.68-2.06-15.64,8.79-10.91,8.79-10.91l8-4.73s.81,1.31.32,2-1.46,3.58-2.12,5.05-2.28,5-1.95,6.51-.33,3.91-.81,6-1.47,3.75-1.31,6.68S94.32,135.1,94.32,135.1Z" style="fill:#664735"/><path d="M91.91,149.31s-8.14.66-7.49,10.1,5.56,12.71,8.15,13,5.53-.33,6.84-2.94" style="fill:none;stroke:#d1c22f;stroke-miterlimit:10;stroke-width:1.7999999523162842px"/><path d="M96.42,233.59a22.74,22.74,0,0,0,6.57-.93c4.13-1.08,2.93-1.68,6.41-1.9s7.82,1.3,6.08-2.82-6.52-2-6.3-10-5.86-12.17-7.17-19.33-9.34-23.24-9.34-23.24a66.67,66.67,0,0,0-7.16.87c-1.52.43.87,27.15.87,27.15Z" style="fill:#664735"/><path d="M189.65,151.68a9.84,9.84,0,0,1,7.66,11.07c-.86,9.43-5.62,12.06-8.31,12.46s-6.74-.54-8-3.17" style="fill:none;stroke:#d1c22f;stroke-miterlimit:10;stroke-width:1.7999999523162842px"/></svg>