<svg xmlns="http://www.w3.org/2000/svg" viewBox="0 0 283.46 283.46"><rect x="-0.28" y="-0.41" width="284.03" height="284.28" style="fill:#fff"/><path d="M90.85,153.36c-.54,3.26-3.23,6.74-6.16,11.44s0,12.31,1.76,13.48,3.43,7.4,2.34,11.73c-.58,2.35-1.46,1.17-1.75,4.11-.53,5.25-2.94,10,1.75,11.73s1.76,4.69,7.63,1.75,5.28,2.35,8.79,2.94,2.35-1.76,7-4.69,2.93,2.93,10,2.93,8.83-1,11.73-1.76a10.52,10.52,0,0,1,2.93-.59c15.81-.93,12.32,4.11,23.46,2.35s10-10,16.42-4.69,10.55-2.94,11.73-9.39,1.17-19.94,1.17-22.87-17-11.73-17-11.73Z" style="fill:#1d1e1b"/><path d="M197.09,135.47c0,34.44-32.84,64.9-54.54,64.71-25.22-.23-52.48-30.27-52.48-64.71s20.43-62.22,52.17-62.22S197.09,101,197.09,135.47Z" style="fill:#fad7ca"/><path d="M85.66,129.87S76,130,78.33,144.09s11.59,12.76,11.59,12.76a17.58,17.58,0,0,0,6.15-2.94s-2-11.43,0-20.08A12,12,0,0,0,85.66,129.87Z" style="fill:#fad7ca"/><path d="M201.32,128.36s9.68.14,7.33,14.22-11.58,12.75-11.58,12.75a17.68,17.68,0,0,1-6.16-2.93s2.05-11.44,0-20.09A12,12,0,0,1,201.32,128.36Z" style="fill:#fcdfdd"/><path d="M130.28,191.89h24.34v24.34l-13.2,30.2-11.14-30.49S130.72,191.45,130.28,191.89Z" style="fill:#fad7ca"/><path d="M51.36,282.7H232.81V259.88s-4.12-39.28-43-44.89l-34.94-.06s-4.54,11.44-13.06,11.24c-8.12-.19-11.86-10.5-11.86-10.5l-35.16.27s-33.82,2.51-43,36.83C49.8,260,51,282.33,51.36,282.7Z" style="fill:#d1c22d"/><path d="M83.43,284.74a.9.9,0,0,1-.9-.83l-2.88-38.55a.9.9,0,0,1,.83-1,.91.91,0,0,1,1,.83l2.88,38.55a.9.9,0,0,1-.83,1Z" style="fill:#feeb34"/><path d="M199.83,284.15h-.08a.9.9,0,0,1-.81-1l3.62-38.46a.88.88,0,0,1,1-.81.9.9,0,0,1,.81,1l-3.62,38.46A.9.9,0,0,1,199.83,284.15Z" style="fill:#feeb34"/><path d="M127,132a10.76,10.76,0,0,0-13.66-1.26h0a2.16,2.16,0,0,1-1.57-2.09.68.68,0,0,0-1.35,0,3.53,3.53,0,0,0,1.76,3,3.59,3.59,0,0,0-.36.32,2.88,2.88,0,0,0-.46.61,2.16,2.16,0,0,1-1.17-1.92.68.68,0,0,0-1.35,0,3.52,3.52,0,0,0,2.12,3.22,3,3,0,0,0,5.07,2.3,4.8,4.8,0,0,1,6.77,0A3,3,0,0,0,127,132Z" style="fill:#1d1e1b"/><path d="M174.47,130.6a.68.68,0,0,0-1.35,0,2.18,2.18,0,0,1-.81,1.69,2.65,2.65,0,0,0-.21-.26c-.22-.22-.45-.42-.68-.62a3.54,3.54,0,0,0,1.48-2.86.68.68,0,0,0-1.35,0,2.16,2.16,0,0,1-1.32,2A10.76,10.76,0,0,0,156.91,132a3,3,0,0,0,4.21,4.21,4.8,4.8,0,0,1,6.77,0,3,3,0,0,0,5-2.72A3.54,3.54,0,0,0,174.47,130.6Z" style="fill:#1d1e1b"/><path d="M142.55,180.1c-9.56,0-13.66-6.82-14.5-10.42a2.84,2.84,0,0,1,2-3.4,2.7,2.7,0,0,1,3.25,2.06c.16.65,1.79,6.13,9.25,6.13,7.92,0,9.88-6,9.9-6a2.67,2.67,0,0,1,3.41-1.8,2.84,2.84,0,0,1,1.72,3.55C157.46,170.61,154.35,180.1,142.55,180.1Z" style="fill:#f15d53"/><path d="M120.46,85s7-3.52,13.49-2.93,7.62,2.93,12.9,3.52S151,83.87,158.58,85s11.14,3.52,12.9,4.11,2.35-1.76,1.76,10,1.76,31.66,4.69,36.94,5.87,16.42,6.45,23.46-2.34,14.07-4.1,22.28-5.87,17.59-3.52,22.29-1.76,15.83-2.35,18.17,4.69,6.46,7,4.11,5.86-8.8,11.14-7.62,5.28,4.69,10,4.69S216.05,217,213.7,212.3s-6.45-11.73-5.27-14.08-2.94-7-1.18-12.31,9.39-17,8.8-24-7-33.42-6.45-39.29-5.28-19.94-6.45-24-14.08-25.22-19.94-27-24-9.38-31.67-8.79-29.91,2.93-31.66,7.62a21.05,21.05,0,0,1-4.11,7s-2.93-2.93-6.45.58-8.21,7-10.56,13.49-7,18.77-7,22.87S90,129.61,90,129.61s1.76,11.14,4.1,10.56,5.28-7,5.28-10.56,1.17-14.66,2.93-18.77,5.28-15.83,8.21-18.76S119.88,84.46,120.46,85Z" style="fill:#1d1e1b"/></svg>