<svg xmlns="http://www.w3.org/2000/svg" viewBox="0 0 283.46 283.46"><rect x="-0.28" y="-0.41" width="284.03" height="284.28" style="fill:#fff"/><path d="M147.18,197.43l-.41,29.86,50.41.8.41-74.05s-7,5.17-17.22,18.31S147.18,197.43,147.18,197.43Z" style="fill:#563b2f"/><path d="M95.54,148.76s-6.37,58.61-7.76,64.08S85,232.78,85,232.78l.56,9s15.31-9,22.27-10.55,29.51-2,29.51-2l.84-30.49s-27.84-18.38-30.07-32.45-4.24-15.15-4.24-15.15Z" style="fill:#563b2f"/><path d="M197.69,136c0,34.43-22.63,59.23-54.38,59.23S90.67,170.39,90.67,136s20.43-62.22,52.18-62.22S197.69,101.53,197.69,136Z" style="fill:#fce2d7"/><path d="M89,130.36s-9.68.15-7.33,14.22,11.58,12.75,11.58,12.75a17.67,17.67,0,0,0,6.15-2.93s-2.05-11.43,0-20.08A12,12,0,0,0,89,130.36Z" style="fill:#fce2d7"/><path d="M199.22,128.84s9.68.15,7.33,14.22S195,155.82,195,155.82a17.68,17.68,0,0,1-6.16-2.93s2.05-11.44,0-20.09A12,12,0,0,1,199.22,128.84Z" style="fill:#fce2d7"/><path d="M130.88,192.38h24.34v24.34L142,246.92l-11.14-30.5S131.32,191.94,130.88,192.38Z" style="fill:#fce2d7"/><path d="M52,283.19H233.41V260.37s-4.11-39.28-43-44.9l-34.95-.05s-4.54,11.44-13.06,11.24c-8.12-.19-11.86-10.5-11.86-10.5l-35.16.26s-27.68-2.82-43,36.84C52.34,253.26,51.59,282.81,52,283.19Z" style="fill:#00dcb4"/><path d="M84,285.23a.9.9,0,0,1-.9-.84l-2.88-38.55a.9.9,0,1,1,1.79-.13l2.89,38.55a.9.9,0,0,1-.83,1Z" style="fill:#66ead2"/><path d="M200.44,284.64h-.09a.9.9,0,0,1-.81-1l3.62-38.46a.89.89,0,0,1,1-.81.9.9,0,0,1,.81,1l-3.62,38.46A.89.89,0,0,1,200.44,284.64Z" style="fill:#66ead2"/><path d="M127.61,136.12A10.76,10.76,0,0,0,114,134.85h0a2.18,2.18,0,0,1-1.57-2.09.68.68,0,0,0-1.35,0,3.5,3.5,0,0,0,1.76,3c-.12.11-.25.21-.36.33a2.72,2.72,0,0,0-.46.61,2.16,2.16,0,0,1-1.17-1.92.68.68,0,0,0-1.35,0,3.53,3.53,0,0,0,2.12,3.22,3,3,0,0,0,5.07,2.3,4.79,4.79,0,0,1,6.77,0,3,3,0,1,0,4.21-4.21Z" style="fill:#1d1e1b"/><path d="M175.08,134.68a.68.68,0,0,0-1.35,0,2.16,2.16,0,0,1-.82,1.69c-.07-.08-.13-.17-.21-.25s-.45-.42-.68-.62a3.56,3.56,0,0,0,1.48-2.87.68.68,0,0,0-1.35,0,2.17,2.17,0,0,1-1.32,2,10.76,10.76,0,0,0-13.32,1.49,3,3,0,0,0,4.21,4.21,4.79,4.79,0,0,1,6.77,0,3,3,0,0,0,5-2.72A3.55,3.55,0,0,0,175.08,134.68Z" style="fill:#1d1e1b"/><path d="M143.16,179.69c-9.57,0-13.67-6.82-14.5-10.42a2.82,2.82,0,0,1,2-3.4,2.69,2.69,0,0,1,3.25,2c.17.65,1.79,6.13,9.26,6.13,7.92,0,9.87-6,9.89-6a2.69,2.69,0,0,1,3.41-1.81,2.85,2.85,0,0,1,1.72,3.56C158.06,170.19,155,179.69,143.16,179.69Z" style="fill:#f15d53"/><path d="M149.53,80.25S113.17,106.84,110.82,110s-6.64,8.6-6.64,11.34-3.13,14.86-3.52,23.85-5.87,15.64-3.13,29.32,7,15.25,3.13,24.63-2,11.73-5.47,20.72-2.35,16-1.18,21.5,3.13,12.51-.78,14.08-9.77-.39-9.77-2,2.73-2.73,4.69-1.95,3.13-1.57,2.34-3.91-1.95-5.48-3.12-5.48-5.48,2.35-7,7.82-3.13,10.56-6.26,10.17-8.21-.78-8.21-5.08-1.56-6.65-4.69-6.26-7.82,3.52-9.77,1.17-2-6.64,1.17-10.55,5.08-8.21,9-11.34S71.34,217.08,76,209.66s7.43-18,8.21-22.68-2-10.95-2-16-4.69-9.77-1.17-18.37,6.26-18.38,8.21-23.46,4.3-21.89,7-28.15S108.09,77.52,114,74.39s11.34-6.65,14.47-7.82,11.72-4.69,15.24-4.3a57,57,0,0,1,6.65,1.17s5.86-1.95,8.6-.78,9.77,2.74,15.25,7,21.5,15.24,24.24,28.54,3.12,50.43,4.69,57.07,6.64,12.12,6.64,21.12-3.12,18.37-1.95,23.84.39,10.95,1.56,17.2,8.6,2,10.95,6.26,3.52,13.68,3.13,17.2-12.12,15.64-14.08,11.34,2.35-7.82-.39-9.77-9.38-.4-9.38,2.34,1.17,7-4.69,5.87-14.47-4.7-15.25-6.65-1.95-8.6,0-13.29a44.06,44.06,0,0,0,3.52-19.16c-.39-7.82,3.13-20.72,4.3-27.76s5.86-16.42,5.86-22.28-1.56-19.55-1.95-26.19-1.56-18-4.3-22.29S177.28,99.8,172.2,96.67,149.53,80.64,149.53,80.25Z" style="fill:#563b2f"/></svg>