<svg xmlns="http://www.w3.org/2000/svg" viewBox="0 0 283.46 283.46"><rect x="-0.28" y="-0.41" width="284.03" height="284.28" style="fill:#fff"/><path d="M147.53,198.16l2.25,8.75,47.08.8-2.25-52.94s-6.51,5.17-16.08,18.31S147.53,198.16,147.53,198.16Z" style="fill:#1e1e1c"/><path d="M78.69,149.49s-5,45.54-6.93,51,20.22,10.2,30.11,10.55c10.94.39,39.48-.78,39.48-.78l-2.81-10.78s-39.09-18.38-42.22-32.45-5.95-15.15-5.95-15.15Z" style="fill:#1e1e1c"/><path d="M194.91,137.56c0,34.44-21.22,58.36-53,58.36s-55.32-23.14-55.32-57.57,23.58-67.11,55.32-67.11S194.91,103.13,194.91,137.56Z" style="fill:#fcdfdd"/><path d="M81.76,127.86s-9.67.14-7.33,14.22S86,154.83,86,154.83a17.68,17.68,0,0,0,6.16-2.93s-2-11.44,0-20.09A12,12,0,0,0,81.76,127.86Z" style="fill:#fcdfdd"/><path d="M200.12,126.34s9.68.15,7.33,14.22-11.58,12.76-11.58,12.76a17.59,17.59,0,0,1-6.16-2.94s2-11.43,0-20.08A12,12,0,0,1,200.12,126.34Z" style="fill:#fcdfdd"/><path d="M130,191.68h24.34V216l-13.2,30.2L130,215.72S130.42,191.24,130,191.68Z" style="fill:#fcdfdd"/><path d="M51.06,282.49H232.51V259.67s-4.12-39.29-43-44.9l-34.94-.05S150,226.16,141.48,226c-8.12-.19-11.86-10.51-11.86-10.51l-35.16.27s-27.69-2.82-43,36.84C51.44,252.56,50.69,282.11,51.06,282.49Z" style="fill:#f47d75"/><line x1="80.24" y1="245.07" x2="83.13" y2="283.62" style="fill:none;stroke:#f15d53;stroke-linecap:round;stroke-miterlimit:10;stroke-width:1.8px"/><line x1="203.15" y1="244.58" x2="199.53" y2="283.04" style="fill:none;stroke:#f15d53;stroke-linecap:round;stroke-miterlimit:10;stroke-width:1.8px"/><path d="M160.82,137.83a4.79,4.79,0,0,1,6.77,0,3,3,0,0,0,4.21-4.21,10.75,10.75,0,0,0-15.19,0,3,3,0,1,0,4.21,4.21Z" style="fill:#1e1e1c"/><path d="M115.73,137.83a4.79,4.79,0,0,1,6.77,0,3,3,0,1,0,4.21-4.21,10.75,10.75,0,0,0-15.19,0,3,3,0,1,0,4.21,4.21Z" style="fill:#1e1e1c"/><path d="M108.54,132.3a3.55,3.55,0,0,0,2.57,3.4.68.68,0,0,0,.36-1.3,2.18,2.18,0,0,1-1.58-2.1.68.68,0,0,0-1.35,0Z" style="fill:#1e1e1c"/><path d="M110.11,130.25a3.56,3.56,0,0,0,2.57,3.4.67.67,0,0,0,.36-1.3,2.19,2.19,0,0,1-1.58-2.1.68.68,0,0,0-1.35,0Z" style="fill:#1e1e1c"/><path d="M172.82,132.18a2.15,2.15,0,0,1-1.57,2.09.68.68,0,0,0,.36,1.31,3.56,3.56,0,0,0,2.56-3.4.68.68,0,0,0-1.35,0Z" style="fill:#1e1e1c"/><path d="M171.25,130.13a2.18,2.18,0,0,1-1.58,2.1.67.67,0,0,0,.36,1.3,3.55,3.55,0,0,0,2.57-3.4.68.68,0,0,0-1.35,0Z" style="fill:#1e1e1c"/><path d="M191.07,127.15c-2.65-6.78-9.62-8.44-20-8.92-9.54-.45-20.84.87-24,4.23a11.91,11.91,0,0,0-2.25,4.55,8.86,8.86,0,0,0-6.25-.24,11.57,11.57,0,0,0-2.18-4.31c-3.12-3.36-14.41-4.67-24-4.23-10.4.48-17.37,2.14-20,8.92-2.49,6.37.65,16.5,2.08,19.48,2.26,4.72,9.37,7.94,12,8.49a30.57,30.57,0,0,0,6,.42c2.81,0,6.48-.15,11.24-.45,9.47-.59,12.37-7.75,12.88-9.25a32.8,32.8,0,0,0,2.88-13.5,3.94,3.94,0,0,1,4.63.52,33.2,33.2,0,0,0,2.89,13c.51,1.5,3.41,8.66,12.89,9.25,4.76.3,8.43.45,11.23.45a30.5,30.5,0,0,0,6-.42c2.58-.55,9.69-3.77,12-8.49C190.41,143.65,193.55,133.52,191.07,127.15ZM131.16,143.4l-.14.39c0,.05-1.39,4.69-7.7,5.09-3.12.19-12.63.79-15.7.13-2-.43-6.85-3.06-7.89-5.21-1.44-3-3.26-10.73-1.88-14.27.84-2.17,2.75-4.53,14.85-5.09,11.1-.51,18.3,1.47,19.55,2.42C133.11,128,135.25,133.82,131.16,143.4Zm52.61.4c-1,2.16-5.86,4.78-7.89,5.21-3.07.66-12.58.06-15.7-.13-6.06-.38-7.56-4.64-7.7-5.09l-.14-.39c-4.09-9.58-2-15.39-1.09-16.54,1.25-1,8.45-2.93,19.55-2.42,12.1.56,14,2.92,14.86,5.09C187,133.07,185.22,140.78,183.77,143.8Z" style="fill:#412175;stroke:#412175;stroke-miterlimit:10;stroke-width:1.0199181424955581px"/><path d="M141,179c-9.57,0-13.67-6.82-14.5-10.43a2.83,2.83,0,0,1,2-3.4,2.69,2.69,0,0,1,3.25,2.06c.17.65,1.79,6.13,9.26,6.13,7.92,0,9.88-6,9.89-6a2.69,2.69,0,0,1,3.41-1.8,2.85,2.85,0,0,1,1.73,3.56C155.87,169.53,152.76,179,141,179Z" style="fill:#f15d53"/><path d="M132.16,57.27s0-5.28,2.94-5.86,10.55-2.35,14.07-1.18S165.59,55.51,172,60.79,190.22,77.8,195.5,93s9.38,27,10.55,36.36,4.11,17.59,3.52,19.94.59,12.9.59,17.59.59,10.56,0,15.84.59,12.31,1.17,16.42a79.27,79.27,0,0,1,.59,9.38s.29,3.42,3.32,4.49c1.19.43.2,1.47-.1,1.57-2.76.92-4.1-.34-5-.2a4.9,4.9,0,0,0-4.11,4.69,14.07,14.07,0,0,1-1,3.23c-.25.54-3.13,3.23-2,6.74s-2.34,5.87-1.76,8.8-1.17,7-2.93,7-6.45-2.93-7.62-3.52c-.88-.44-1.18-3.52,0-10s-1.76-27,.58-42.81,2.94-18.77,2.35-25.8-2.45-32.44-7.09-36.16-8.74-9-12.85-13.69-12.31-12.9-15.25-16.42S152.1,86,146.24,85.42s-10.56,1.17-12.32.59-1.17-2.35-4.1-3.52,0,3.52-3.52,4.69S115.75,93,112.81,95.39s-5.86,3.52-10.55,10-7,11.14-8.21,15.25-5.87,10-5.87,10a7.47,7.47,0,0,0-6.42-2.71c-4.13.37-1.2-17.22.56-21.92S89.94,86,94.63,80.73s8.21-14.66,12.91-18.18,8.79-9.38,14.66-10S132.16,57.27,132.16,57.27Z" style="fill:#1e1e1c"/></svg>