<svg xmlns="http://www.w3.org/2000/svg" viewBox="0 0 283.46 283.46"><rect x="-0.28" y="-0.41" width="284.03" height="284.28" style="fill:#fff"/><path d="M94.77,154c-.53,4.25-3.22,8.8-6.15,14.92s0,16.07,1.75,17.6,3.43,9.65,2.35,15.31c-.59,3.06-1.47,1.53-1.76,5.35-.52,6.86-2.93,13,1.76,15.31s1.76,6.12,7.62,2.29,5.28,3.06,8.8,3.83,2.35-2.3,7-6.12,2.93,3.82,10,3.82S135,225,137.87,224a8.61,8.61,0,0,1,2.94-.77c15.8-1.21,12.31,5.36,23.45,3.06s10-13,16.42-6.12,23.1-1.52,24.27-9.93-1.47-57.77-1.47-57.77l-26.68.88Z" style="fill:#1d1e1b"/><path d="M201,136.09c0,34.44-32.85,64.9-54.54,64.71C121.26,200.57,94,170.53,94,136.09s20.44-62.22,52.18-62.22S201,101.66,201,136.09Z" style="fill:#fad7ca"/><path d="M89.59,130.49s-9.68.15-7.33,14.22,11.58,12.76,11.58,12.76a17.59,17.59,0,0,0,6.16-2.94s-2-11.43,0-20.08A12,12,0,0,0,89.59,130.49Z" style="fill:#fad7ca"/><path d="M205.24,129s9.68.14,7.33,14.22S201,156,201,156a17.67,17.67,0,0,1-6.15-2.93s2-11.44,0-20.09A12,12,0,0,1,205.24,129Z" style="fill:#fad7ca"/><path d="M134.21,192.51h24.33v24.34l-13.19,30.2-11.14-30.49S134.65,192.07,134.21,192.51Z" style="fill:#fad7ca"/><path d="M55.29,283.32H236.73V260.5s-4.11-39.28-43-44.89l-34.94-.06S154.22,227,145.7,226.79c-8.11-.19-11.86-10.5-11.86-10.5l-35.16.27s-33.82,2.51-43,36.83C53.72,260.62,54.91,283,55.29,283.32Z" style="fill:#d1c22d"/><path d="M87.35,285.36a.89.89,0,0,1-.89-.83L83.57,246a.91.91,0,0,1,.83-1,.92.92,0,0,1,1,.83l2.88,38.55a.9.9,0,0,1-.83,1Z" style="fill:#feeb34"/><path d="M203.76,284.77h-.09a.91.91,0,0,1-.81-1l3.62-38.46a.89.89,0,0,1,1-.81.91.91,0,0,1,.82,1L204.65,284A.89.89,0,0,1,203.76,284.77Z" style="fill:#feeb34"/><path d="M130.93,132.65a10.75,10.75,0,0,0-13.65-1.26h0a2.17,2.17,0,0,1-1.58-2.09.68.68,0,0,0-1.35,0,3.55,3.55,0,0,0,1.76,3c-.12.1-.24.2-.36.32a3,3,0,0,0-.46.61,2.18,2.18,0,0,1-1.17-1.92.68.68,0,0,0-1.35,0,3.54,3.54,0,0,0,2.13,3.22,2.93,2.93,0,0,0,.85,2.3,3,3,0,0,0,4.21,0,4.79,4.79,0,0,1,6.77,0,3,3,0,0,0,4.21-4.21Z" style="fill:#1d1e1b"/><path d="M178.4,131.22a.68.68,0,0,0-1.35,0,2.16,2.16,0,0,1-.82,1.69,1.64,1.64,0,0,0-.2-.26c-.22-.22-.46-.42-.69-.62a3.51,3.51,0,0,0,1.48-2.86.68.68,0,0,0-1.35,0,2.14,2.14,0,0,1-1.32,2,10.77,10.77,0,0,0-13.32,1.49,3,3,0,0,0,4.22,4.21,4.79,4.79,0,0,1,6.77,0,3,3,0,0,0,5-2.72A3.52,3.52,0,0,0,178.4,131.22Z" style="fill:#1d1e1b"/><path d="M146.48,180.72c-9.57,0-13.67-6.82-14.5-10.42a2.82,2.82,0,0,1,2-3.4,2.69,2.69,0,0,1,3.25,2.06c.17.65,1.79,6.13,9.26,6.13,7.92,0,9.88-6,9.89-6a2.68,2.68,0,0,1,3.41-1.8,2.84,2.84,0,0,1,1.73,3.55C161.38,171.23,158.27,180.72,146.48,180.72Z" style="fill:#f15d53"/><path d="M165,83.86a54,54,0,0,1-5.48,2.35C149.57,90,144.26,88,139,90.9s-10-.59-15.84,8.21-16.42,10-19.35,18.18,1.76,13.78,1.76,24.92-5.57,12.32-3.22,21.11,6.45,10,5.86,18.77-3.52,8.21,1.17,12.9.88,6.74,1.47,9.67,4.69,5.87,4.1,10.56,0,3.52,5.87,8.21,5.28,7.62,4.1,11.73-1.17,8.21.59,11.14-5.28.59-4.11,5.28,6.46,8.8,3.52,10.55-.58,7-2.34,8.21-5.28,5.28-10,1.18,2.34-5.28-4.69-4.11-11.14,4.69-12.9-.58-7.63-4.7-7.63-4.7-13.49,2.35-11.73-4.69-1.17-12.9-9.38-15.24-9.38-2.35-7.62-9.39-2.35-4.1-4.69-11.73,1.76-8.79,2.93-18.17S52.77,185.9,54,183s2.93-2.94,7-11.14,6.45-11.73,5.28-19.36-4.1-13.48,1.17-19.35,6.45-14.66,6.45-14.66A13.16,13.16,0,0,1,71.54,105C74.47,96.76,75.06,87.38,82.68,85S98.51,76.24,105,72.13s10-6.45,18.76-9.38,9.38-7.62,18.77-5.86,16.42,5.86,18.18,8.21,14.07,4.69,17,7.62S190,85.62,190,85.62s12.9,9.19,12.9,17.4,4.1,15,5.86,19.15.78,10.17,2,17.21-1.57,6.45,3.12,16.42,1.37,16,1.37,24.82-1.76,15.83.59,21.11S214,205.84,214,215.22s0,13.49-1.17,20.53.58,11.72-1.76,15.83-11.14,1.76-15.84,4.1-8.79,8.21-15.24,6.45-8.8-.58-5.87-9.38a159.76,159.76,0,0,1,9.39-21.7c2.93-5.86,11.14-10,11.72-22.28s.59-16.42,1.18-28.15S202,164.71,201,156s-6.59-13.23-6.15-23-.74-13.88-3.08-20.92-3.52-8.8-8.21-13.49S165,83.86,165,83.86Z" style="fill:#1d1e1b"/></svg>