<svg xmlns="http://www.w3.org/2000/svg" viewBox="0 0 280 280"><rect x="-0.5" y="-0.63" width="280.62" height="280.61" style="fill:#fff"/><path d="M143.59,197.75l-.38,29.54,46.56.78.38-73.25s-6.43,5.12-15.9,18.12S143.59,197.75,143.59,197.75Z" style="fill:#472b27"/><path d="M75.49,149.6s-8.85,58-10.78,63.39-3.87,19.72-3.87,19.72l.77,8.9s21.27-8.9,30.94-10.44,41-1.94,41-1.94l1.16-30.16S96,180.89,92.94,167s-5.89-15-5.89-15Z" style="fill:#472b27"/><path d="M194.92,133.87c0,34.06-30.77,62.53-56.88,63.11s-56.83-29-56.83-63.11S106.66,72.2,138.06,72.2,194.92,99.81,194.92,133.87Z" style="fill:#fce2d7"/><path d="M195.61,126.71s9.57.14,7.25,14.06-11.46,12.62-11.46,12.62a17.52,17.52,0,0,1-6.09-2.9s2-11.31,0-19.87A11.86,11.86,0,0,1,195.61,126.71Z" style="fill:#fce2d7"/><path d="M126.23,189.56H150.3v24.07L137.25,243.5l-11-30.16S126.66,189.12,126.23,189.56Z" style="fill:#fce2d7"/><path d="M48.16,279.38H227.64V256.8s-4.07-38.85-42.55-44.4H150.3s-4.27,11.26-12.7,11.06c-8-.18-11.37-10.12-11.37-10.12H91.09s-27.38-2.79-42.56,36.43C48.53,249.77,47.79,279,48.16,279.38Z" style="fill:#c85048"/><path d="M79.88,279.61a.88.88,0,0,1-.88-.82l-2.86-36.35a.89.89,0,0,1,.82-.95.9.9,0,0,1,1,.82l2.85,36.35a.88.88,0,0,1-.82.95Z" style="fill:#f79e98"/><path d="M195,279.92h-.09a.89.89,0,0,1-.8-1l3.58-37.15a.87.87,0,0,1,1-.8.89.89,0,0,1,.8,1l-3.58,37.15A.88.88,0,0,1,195,279.92Z" style="fill:#f79e98"/><path d="M138,177.14c-9.46,0-13.52-6.46-14.34-9.87a2.67,2.67,0,0,1,5.19-1.27c.16.61,1.77,5.8,9.15,5.8,7.84,0,9.77-5.64,9.79-5.7a2.67,2.67,0,0,1,5.08,1.66C152.7,168.15,149.63,177.14,138,177.14Z" style="fill:#f15d53"/><path d="M123,133.9a10.64,10.64,0,0,0-13.51-1.25h0a2.16,2.16,0,0,1-1.56-2.07.67.67,0,0,0-1.33,0,3.48,3.48,0,0,0,1.74,3l-.36.32a3.31,3.31,0,0,0-.45.61,2.18,2.18,0,0,1-1.16-1.91.67.67,0,0,0-1.33,0,3.51,3.51,0,0,0,2.1,3.2,2.93,2.93,0,0,0,5,2.27,4.74,4.74,0,0,1,6.7,0A2.95,2.95,0,1,0,123,133.9Z" style="fill:#1d1e1b"/><path d="M169.94,132.48a.67.67,0,0,0-1.33,0,2.15,2.15,0,0,1-.81,1.68,2.65,2.65,0,0,0-.21-.26c-.21-.21-.44-.41-.67-.61a3.5,3.5,0,0,0,1.46-2.83.67.67,0,0,0-1.33,0,2.13,2.13,0,0,1-1.31,2,10.64,10.64,0,0,0-13.17,1.47,2.95,2.95,0,1,0,4.16,4.17,4.74,4.74,0,0,1,6.7,0,3,3,0,0,0,4.17,0,2.93,2.93,0,0,0,.79-2.69A3.49,3.49,0,0,0,169.94,132.48Z" style="fill:#1d1e1b"/><path d="M182.28,127c-2.38-5.74-8.65-7.15-18-7.55-8.59-.38-18.75.74-21.56,3.58a9.74,9.74,0,0,0-2,3.85,8.41,8.41,0,0,0-5.62-.2,9.61,9.61,0,0,0-2-3.65c-2.81-2.84-13-4-21.56-3.58-9.36.4-15.63,1.81-18,7.55-2.24,5.4.59,14,1.87,16.49,2,4,8.43,6.72,10.76,7.19a29,29,0,0,0,5.36.35c2.53,0,5.83-.12,10.11-.37,8.53-.5,11.14-6.57,11.6-7.84a26.27,26.27,0,0,0,2.59-11.42,3.72,3.72,0,0,1,4.17.43,26.76,26.76,0,0,0,2.6,11c.46,1.27,3.07,7.34,11.6,7.84,4.28.25,7.58.37,10.11.37a29,29,0,0,0,5.36-.35c2.33-.47,8.72-3.19,10.76-7.19C181.69,141,184.52,132.43,182.28,127Zm-53.91,13.76-.13.33s-1.25,4-6.93,4.31c-2.81.16-11.36.66-14.13.11-1.82-.36-6.16-2.59-7.09-4.41-1.31-2.56-2.94-9.09-1.7-12.08.76-1.84,2.48-3.83,13.37-4.31,10-.43,16.46,1.24,17.59,2C130.13,127.76,132.05,132.68,128.37,140.79Zm47.34.34c-.93,1.82-5.27,4.05-7.09,4.41-2.77.55-11.32.05-14.13-.11-5.46-.33-6.81-3.93-6.93-4.31l-.13-.33c-3.68-8.11-1.76-13-1-14,1.13-.8,7.6-2.47,17.59-2,10.89.48,12.61,2.47,13.37,4.31C178.65,132,177,138.57,175.71,141.13Z" style="fill:#1d1e1b"/><path d="M154.19,83.28s-42.93,19.34-46,21.27S106.43,107.26,101,120,94.83,157,96,172s10.63,48.15,6.77,62.46S99.49,259,94.25,260.4c-8.12,2.12-22.5,3.54-30.74,1.93-7.93-1.55-12.77-7.15-12-10.64a202.61,202.61,0,0,1,7.54-27.26c4.16-11.16,13.15-51,14.31-56.84s3.09-35.58,5-42.54,9.4-26,12-32.1c3.48-8.12,18.18-20.3,24-21.46s14.5-6.19,24.75-4.64c9.37,1.41,19.63,3.68,20.11,7.92.19,1.75,2.32.39,3.48,1.17s13.14,3.86,16.24,10.44,13.53,26.29,15.47,34,1.16,15.85,4.25,27.84,1.55,7,5,25.91S212.58,209.74,213,221s1.93,35.58,1.16,37.9-8.87,4.64-15.08,5.22-18.56-1-21.27-5.61c-2-3.38,3.87-9.28,5.41-17.79s2.32-27.45,1.94-39.44-2.32-45.25-1.94-47.57,2.9-21.27,1-27.07S173.21,97.53,169.85,94.3a123.08,123.08,0,0,0-12.57-9.86Z" style="fill:#472b27"/></svg>