<svg xmlns="http://www.w3.org/2000/svg" viewBox="0 0 283.46 283.46"><rect x="-0.28" y="-0.41" width="284.03" height="284.28" style="fill:#fff"/><path d="M182,155.52l-90.58-1.19s2.73,29.32.39,38.71-.39,15.24-2.35,26.58-.39,24.63-.39,24.63,91,3.93,92.53,3.93,21.12-2.35,16.42-13.29-5.86-50.44-7.81-59a138.32,138.32,0,0,1-2.51-19.95Z" style="fill:#563b2f"/><path d="M90.11,138.71c0,34.43,26.5,59.38,49.83,59.4,27.12,0,51-26.53,51-61s-17.33-61.62-49.07-61.62S90.11,104.28,90.11,138.71Z" style="fill:#fcdfdd"/><path d="M196.3,131.86s9.68.15,7.33,14.22-11.58,12.76-11.58,12.76a17.59,17.59,0,0,1-6.16-2.94s2.05-11.43,0-20.08A12,12,0,0,1,196.3,131.86Z" style="fill:#fcdfdd"/><path d="M153.48,192.08H129.15v24.34l13.19,30.2,11.14-30.49S153,191.64,153.48,192.08Z" style="fill:#fcdfdd"/><path d="M232.4,282.89H51V260.07s4.11-39.28,43-44.89l34.94-.06s4.54,11.44,13.07,11.24c8.11-.19,11.85-10.5,11.85-10.5l35.17.27s27.68-2.83,43,36.83C232,253,232.78,282.52,232.4,282.89Z" style="fill:#00dcb4"/><path d="M200.34,284.93a.89.89,0,0,0,.89-.83l2.89-38.55a.9.9,0,0,0-1.8-.14L199.44,284a.9.9,0,0,0,.83,1Z" style="fill:#ccf8f0"/><path d="M83.93,284.34H84a.91.91,0,0,0,.81-1L81.21,244.9a.89.89,0,0,0-1-.81.91.91,0,0,0-.82,1L83,283.53A.89.89,0,0,0,83.93,284.34Z" style="fill:#ccf8f0"/><path d="M122.64,141.83a4.79,4.79,0,0,0-6.77,0,3,3,0,1,1-4.21-4.21,10.76,10.76,0,0,1,15.2,0,3,3,0,1,1-4.22,4.21Z" style="fill:#1e1e1c"/><path d="M167.74,141.83a4.79,4.79,0,0,0-6.77,0,3,3,0,0,1-4.21-4.21,10.75,10.75,0,0,1,15.19,0,3,3,0,1,1-4.21,4.21Z" style="fill:#1e1e1c"/><path d="M173.58,136.31A2.18,2.18,0,0,1,172,138.4a.67.67,0,0,0,.36,1.3,3.56,3.56,0,0,0,2.57-3.39.68.68,0,0,0-1.35,0Z" style="fill:#1e1e1c"/><path d="M172,134.26a2.17,2.17,0,0,1-1.58,2.09.67.67,0,0,0,.36,1.3,3.54,3.54,0,0,0,2.57-3.39.68.68,0,0,0-1.35,0Z" style="fill:#1e1e1c"/><path d="M109.29,136.18a3.55,3.55,0,0,0,2.57,3.4.67.67,0,0,0,.36-1.3,2.18,2.18,0,0,1-1.58-2.1.68.68,0,0,0-1.35,0Z" style="fill:#1e1e1c"/><path d="M110.87,134.14a3.53,3.53,0,0,0,2.56,3.39.67.67,0,0,0,.36-1.3,2.18,2.18,0,0,1-1.57-2.09.68.68,0,0,0-1.35,0Z" style="fill:#1e1e1c"/><path d="M141.21,180.19c9.57,0,13.67-6.82,14.5-10.42a2.82,2.82,0,0,0-2-3.4,2.69,2.69,0,0,0-3.25,2.06c-.17.65-1.79,6.13-9.26,6.13-7.92,0-9.88-6-9.9-6a2.67,2.67,0,0,0-3.4-1.8,2.84,2.84,0,0,0-1.73,3.55C126.31,170.7,129.42,180.19,141.21,180.19Z" style="fill:#f15d53"/><path d="M190.64,169.89c.09-2.7,0-12,.06-14.53a1.54,1.54,0,0,1,0-.3,2.15,2.15,0,0,1,4.3,0s.67,8.66.67,14.44.06,7-1.5,8.5c-.46.44-1.45.72-2.53-.36S190.53,173.52,190.64,169.89Z" style="fill:#1eb5fc"/><path d="M87.92,169c-.09-2.94,0-11.72,0-14.53a1.63,1.63,0,0,0,0-.31,2.15,2.15,0,0,0-4.3,0s-.66,8.66-.66,14.44-.06,7,1.5,8.5c.46.45,1.44.73,2.53-.36S88,172.59,87.92,169Z" style="fill:#1eb5fc"/><path d="M105.72,77.21s2.35-11.15,15.83-14.66,28.74-2.35,35.19,1.17,19.87,11.71,23.63,16.44c2.09,2.64,7.78,9.71,11.24,17.11,3.68,7.9,5.1,16.18,6,19.71,1.83,7,4.69,18.31,5.87,24.76s.15,8,1.33,18,0,21.89-1.18,28.34-1.17,5.86-.58,14.66-2.35,18.18,4.1,25.8,12.9,7.63,14.08,14.66,2.34,11.73-1.18,14.66-2.93,11.15-2.34,14.66-2.93,7-7.63,4.7.59,2.93-8.79,2.93-6.45-3.52-8.8-3.52-3.52-2.93-5.28-4.11-10-2.34-6.45,6.46-1.76,5.27-6.45,4.69-5.86-6.45-8.79-4.69-4.7-2.35-2.94-7.63-.58-8.79-.58-19.94,3.69-15.64,5.31-25.91c1.47-9.28,7.36-43,9.78-51.14,2.12-7.16,6.64-11.63,7-20.69.19-4.73-4.41-11.33-2-16.94,2.28-5.22.16-24-2.77-29.32s-8.5-15-12.54-16.46-11.87-6.59-14.8-6-7.63,1.76-11.73,2.35-7-.59-10,1.17-5.43,3.2-8.95,3.79-8.06,2-9.81,1.41-4.7-1.76-5.87-3.52-2.34-6.45-2.34-6.45Z" style="fill:#563b2f"/><path d="M96.64,131.47c-1.08,2.76-1.1,6.05-2.15,9.35s.48,11.84,1.65,15.75a70.42,70.42,0,0,1,2.54,18c0,6.45-3.51,11.14-1.17,19.35s6.45,7.63,6.45,20.53-2.34,38.52-2.34,44.39,4.1,9.38,2.93,13.49-5.87,7.62-5.87,7.62-1.76-5.28-5.27-4.11-7.63-3.6-11.15-2.42-7,6.53-11.72,4.77-3.52-9.38-1.76-12.9,7.62-4.11,2.93-15.25-4.11-33.83-1.17-42.63,6.25-18.57,5.66-28.54-1-15.22.21-24-.13-16.61,2.61-22.48c2.13-4.57,1.63-8.86,4.56-15.31s3.29-7.43,5-15.64,5.61-13.85,8-15.54a12,12,0,0,1,6.74-2.2l2.34,6.45,5.87,3.52s-4.7,5.27-6.46,7-3.25,6.48-4.42,11.76,1.25,8.75.49,11.89C100.71,126.35,97.4,129.53,96.64,131.47Z" style="fill:#593f30"/><path d="M84.9,130s-10.27.26-7.33,14.22c2.32,11,11.44,12.22,13.07,12.22,1.16,0,3.15-1,5.64-3,0,0-4.33-10.79-2.28-19.44C94,134,91.64,129.29,84.9,130Z" style="fill:#fcdfdd"/></svg>