<svg xmlns="http://www.w3.org/2000/svg" viewBox="0 0 283.46 283.46"><rect x="-0.36" y="-0.21" width="284.03" height="284.28" style="fill:#fff"/><path d="M51.06,283.28H232.51V260.46s-4.12-39.29-43-44.9H154.32L141.12,247,130,216.51H94.46s-27.69-2.82-43,36.84C51.44,253.35,50.69,282.9,51.06,283.28Z" style="fill:#dadada"/><path d="M199.25,136.3c0,36.33-25.74,65.79-57.48,65.79S84.29,172.63,84.29,136.3c0-19.46,4.48-43,16.22-55C110.68,70.84,127,70.51,141.77,70.51,173.51,70.51,199.25,100,199.25,136.3Z" style="fill:#f9cebc"/><path d="M76.36,128.65s-9.67.14-7.33,14.22,11.58,12.75,11.58,12.75a17.68,17.68,0,0,0,6.16-2.93s-2-11.43,0-20.08A12,12,0,0,0,76.36,128.65Z" style="fill:#f9cebc"/><path d="M207.32,128s9.68.15,7.33,14.22S203.07,155,203.07,155a17.68,17.68,0,0,1-6.16-2.93s2.05-11.44,0-20.09A12,12,0,0,1,207.32,128Z" style="fill:#f9cebc"/><path d="M130,192.47h24.34v24.34L141.12,247,130,216.51S130.42,192,130,192.47Z" style="fill:#f9cebc"/><path d="M80.24,284.83a.8.8,0,0,1-.8-.8V245.87a.8.8,0,1,1,1.6,0V284A.8.8,0,0,1,80.24,284.83Z" style="fill:#fff"/><path d="M203.15,284.34a.8.8,0,0,1-.8-.8V245.38a.8.8,0,0,1,1.6,0v38.16A.8.8,0,0,1,203.15,284.34Z" style="fill:#fff"/><path d="M141,285.34a.8.8,0,0,1-.8-.8V246.38a.8.8,0,1,1,1.6,0v38.16A.8.8,0,0,1,141,285.34Z" style="fill:#fff"/><path d="M161.7,140.45a4.79,4.79,0,0,1,6.77,0,3,3,0,0,0,4.21-4.21,10.75,10.75,0,0,0-15.19,0,3,3,0,0,0,4.21,4.21Z" style="fill:#1d1e1b"/><path d="M114.55,140.79a4.8,4.8,0,0,1,6.77,0,3,3,0,0,0,2.11.88,3,3,0,0,0,2.1-5.09,10.77,10.77,0,0,0-15.19,0,3,3,0,1,0,4.21,4.21Z" style="fill:#1d1e1b"/><path d="M128.67,124.42a2.7,2.7,0,0,1-1.57-.51c-2.77-2-7-3.58-12.47-4.73-4.79-1-11.36,2.18-13.49,3.49a2.7,2.7,0,0,1-2.83-4.6c.38-.23,9.57-5.81,17.43-4.18,6.33,1.32,11.08,3.17,14.51,5.64a2.7,2.7,0,0,1-1.58,4.89Z" style="fill:#1d1e1b"/><path d="M152.93,124.42a2.7,2.7,0,0,1-1.58-4.89c3.43-2.47,8.17-4.32,14.51-5.64,8-1.67,16.1,4.47,16.44,4.74A2.7,2.7,0,1,1,179,122.9c-.11-.07-6.49-4.88-12-3.72s-9.69,2.74-12.46,4.73A2.72,2.72,0,0,1,152.93,124.42Z" style="fill:#1d1e1b"/><path d="M139.89,182.62c-5.22,0-9.87-3.34-10.07-3.49a2.7,2.7,0,0,1,3.17-4.37s3.46,2.46,6.9,2.46c3.88,0,9-2.15,9-2.17a2.7,2.7,0,0,1,2.12,5C150.79,180.13,144.88,182.62,139.89,182.62Z" style="fill:#f2ae9c"/><path d="M87.21,139.53S81.35,127,81,125.46s-.78-23.85,2.35-28.15S93.47,76.59,98.16,75s6.26-5.08,6.26-6.64-6.65-4.69,2-7.82,16.42-5.87,25.8-6.26,27.76-.78,38.71,6.26S193.26,76,198.24,86.36c4.18,8.67,6.16,20.92,7.33,28.34s-1.46,12.81-3.81,14.37-5.08,3.42-5.86,7.33-1.56,6.65-1.56,6.65A43.25,43.25,0,0,1,190,131.42c-1.56-7-13.29-29-18.76-33.72S161.1,86.36,151.72,82.06s-19.15-9.77-23.85-7.82a39,39,0,0,1-15.63,2.35c-3.52-.39-9.78,4.3-12.12,10.16s-1.18,13.29-.79,16.42-2,5.08-4.3,7.82S90.34,121.55,90,125.06,87.21,139.53,87.21,139.53Z" style="fill:#1d1e1b"/><path d="M188.48,129.77c-2.54-5-9.26-6.27-19.27-6.62-9.19-.33-20.06.64-23.07,3.14a8.23,8.23,0,0,0-2.17,3.38,10.81,10.81,0,0,0-6-.18,8.12,8.12,0,0,0-2.1-3.2c-3-2.5-13.88-3.47-23.07-3.14-10,.35-16.73,1.59-19.27,6.62-2.39,4.73.63,12.25,2,14.46,2.18,3.51,9,5.9,11.51,6.31a39.15,39.15,0,0,0,5.74.31c2.7,0,6.24-.11,10.82-.33,9.12-.44,11.92-5.76,12.41-6.88a19.56,19.56,0,0,0,2.77-10,4.69,4.69,0,0,1,4.46.38,20,20,0,0,0,2.78,9.63c.49,1.12,3.29,6.44,12.41,6.88,4.59.22,8.12.33,10.82.33a39.15,39.15,0,0,0,5.74-.31c2.49-.41,9.33-2.8,11.51-6.31C187.85,142,190.88,134.5,188.48,129.77ZM130.8,141.83l-.14.3s-1.33,3.48-7.41,3.77c-3,.15-12.16.59-15.12.1-1.95-.32-6.6-2.27-7.59-3.87-1.4-2.24-3.15-8-1.82-10.59.81-1.61,2.65-3.36,14.31-3.78,10.68-.38,17.61,1.09,18.82,1.79C132.68,130.41,134.74,134.73,130.8,141.83Zm50.66.3c-1,1.6-5.65,3.55-7.6,3.87-3,.49-12.11.05-15.12-.1-5.83-.28-7.28-3.44-7.41-3.77l-.14-.3c-3.94-7.1-1.88-11.42-1.05-12.28,1.21-.7,8.14-2.17,18.83-1.79,11.65.42,13.49,2.17,14.3,3.78C184.6,134.16,182.85,139.89,181.46,142.13Z" style="fill:#472b27"/></svg>