<svg xmlns="http://www.w3.org/2000/svg" viewBox="0 0 283.46 283.46"><rect x="-0.28" y="-0.41" width="284.03" height="284.28" style="fill:#fff"/><path d="M51.36,283.86H232.8V261s-4.11-39.28-43-44.89H154.61l-13.19,31.44L130.28,217.1H94.75S66,214.55,50.66,254.21C50.66,254.21,51,283.49,51.36,283.86Z" style="fill:#00dcb4"/><path d="M199.72,139.3c0,36.33-29.64,65.79-57.48,65.79-28.75,0-57.48-29.46-57.48-65.79,0-18.93,5-42.15,15.55-55.35C110,71.8,124.65,68.89,141.64,68.74c16.4-.14,32.29,3.86,42.53,16.38C195,98.35,199.72,120.63,199.72,139.3Z" style="fill:#fad7ca"/><path d="M76.66,124.73S67,124.88,69.33,139s11.58,12.76,11.58,12.76a17.76,17.76,0,0,0,6.16-2.93s-2.06-11.44,0-20.09A12,12,0,0,0,76.66,124.73Z" style="fill:#fad7ca"/><path d="M207.61,124.12s9.68.14,7.33,14.22-11.58,12.75-11.58,12.75a17.76,17.76,0,0,1-6.16-2.93s2.06-11.43,0-20.08A12,12,0,0,1,207.61,124.12Z" style="fill:#fad7ca"/><path d="M130.28,193.06h24.33v24.33l-13.19,30.2L130.28,217.1S130.72,192.62,130.28,193.06Z" style="fill:#fad7ca"/><path d="M80.54,285.41a.8.8,0,0,1-.8-.8V246.45a.8.8,0,0,1,1.6,0v38.16A.8.8,0,0,1,80.54,285.41Z" style="fill:#fff"/><path d="M203.45,284.92a.8.8,0,0,1-.8-.8V246a.8.8,0,1,1,1.6,0v38.16A.8.8,0,0,1,203.45,284.92Z" style="fill:#fff"/><path d="M141.33,285.93a.8.8,0,0,1-.8-.8V247a.8.8,0,0,1,1.6,0v38.16A.8.8,0,0,1,141.33,285.93Z" style="fill:#fff"/><path d="M162,136.53a4.82,4.82,0,0,1,6.78,0,3,3,0,1,0,4.2-4.21,10.75,10.75,0,0,0-15.19,0,3,3,0,1,0,4.21,4.21Z" style="fill:#1d1e1b"/><path d="M114.85,136.88a4.79,4.79,0,0,1,6.77,0,3,3,0,0,0,4.21-4.21,10.75,10.75,0,0,0-15.19,0,3,3,0,0,0,4.21,4.21Z" style="fill:#1d1e1b"/><path d="M100.79,124.78a2.59,2.59,0,0,1-1.43-.28,2.69,2.69,0,0,1-1.2-3.62,13.06,13.06,0,0,1,6.12-5.79,27.74,27.74,0,0,1,11.28-2,30.69,30.69,0,0,1,10.73,1.9,22.56,22.56,0,0,0,2.22.69,2.7,2.7,0,1,1-1.2,5.26,28.34,28.34,0,0,1-2.77-.84,25.21,25.21,0,0,0-9-1.61,22.31,22.31,0,0,0-9.21,1.63,7.94,7.94,0,0,0-3.34,3.22A2.68,2.68,0,0,1,100.79,124.78Z" style="fill:#1d1e1b"/><path d="M140.93,185.32c-9.57,0-13.67-6.53-14.5-10a2.7,2.7,0,0,1,5.24-1.28c.17.62,1.79,5.87,9.26,5.87,7.91,0,9.87-5.71,9.89-5.76a2.7,2.7,0,1,1,5.13,1.67C155.83,176.22,152.72,185.32,140.93,185.32Z" style="fill:#f79e98"/><path d="M181.29,125.09a2.73,2.73,0,0,1-2.16-1.52,7.71,7.71,0,0,0-3.27-3.31,22.29,22.29,0,0,0-9.17-1.83,25,25,0,0,0-9,1.41c-.94.29-1.83.57-2.79.77a2.7,2.7,0,1,1-1.08-5.29c.68-.14,1.41-.37,2.24-.63A30.35,30.35,0,0,1,166.78,113,27.9,27.9,0,0,1,178,115.31a13,13,0,0,1,6,5.93,2.7,2.7,0,0,1-2.71,3.85Z" style="fill:#1d1e1b"/><path d="M189.18,126.15c-2.57-6.78-9.37-8.44-19.5-8.92-9.3-.45-20.31.87-23.35,4.23a12.08,12.08,0,0,0-2.2,4.55,8.43,8.43,0,0,0-6.09-.24,11.68,11.68,0,0,0-2.12-4.31c-3-3.36-14-4.67-23.35-4.23-10.13.48-16.93,2.14-19.5,8.92-2.42,6.37.64,16.51,2,19.48,2.2,4.72,9.13,7.94,11.64,8.49a29.1,29.1,0,0,0,5.81.42c2.74,0,6.31-.15,11-.45a13.71,13.71,0,0,0,12.56-9.25,33.49,33.49,0,0,0,2.8-13.5,3.77,3.77,0,0,1,4.52.52,33.82,33.82,0,0,0,2.81,13,13.71,13.71,0,0,0,12.56,9.25c4.64.3,8.21.45,10.95.45a28.91,28.91,0,0,0,5.8-.42c2.52-.55,9.45-3.77,11.65-8.49C188.54,142.66,191.6,132.52,189.18,126.15ZM130.81,142.4l-.14.4s-1.35,4.68-7.5,5.08c-3,.19-12.31.79-15.31.13-2-.43-6.67-3-7.68-5.21-1.41-3-3.18-10.73-1.84-14.27.82-2.17,2.69-4.52,14.48-5.08,10.81-.52,17.83,1.46,19.05,2.41C132.71,127,134.79,132.83,130.81,142.4Zm51.26.4c-1,2.16-5.71,4.78-7.69,5.21-3,.66-12.25.06-15.3-.13-5.9-.38-7.36-4.64-7.5-5.08l-.14-.4c-4-9.58-1.9-15.39-1.06-16.54,1.22-1,8.23-2.93,19.05-2.41,11.79.56,13.66,2.91,14.48,5.08C185.25,132.07,183.48,139.78,182.07,142.8Z" style="fill:#1d1e1b"/><path d="M127.51,77.77a29.75,29.75,0,0,0-5.28.59c-2.93.58-6.15,0-8.5,2.64s-6.45,2.64-8.21,5-3.81,6.74-5.57,10.85-4.69,12-5.28,16.13c-.37,2.59-1,10.26-2.64,12.31-2,2.53-5.88,8-6.16,1.76-.88-19.64.88-29.32,3.23-39.29.67-2.86-2-9.38,1.47-11.14S96.43,65.46,97,62.52s5.86-1.76,9.38-5.27a35.48,35.48,0,0,1,12.31-7.63c3.52-1.17,8.21-1.76,12.32,0s1.76,1.76,7.62,0,10.56-2.34,15.84,1.18,7.29,2.71,10.55,5.27c4.11,3.23,9.38,5.87,11.73,10s7.92,5.57,8.8,9.39c.8,3.47,0,8.21,2.34,10.55s2.93,5.87,3.52,7.62,2.35,7,2.93,10,3.52,10,3.52,12.32,1.47,10.26,1.47,10.26-1.76,7.92-3.52,6.74c-2-1.34-2.93-4.39-2.93-10.26s-2.64-10.26-6.16-15.54S180.29,96,180.29,93s-2.35-7-7-9.38-9.38-6.46-12.31-5.87-7-2.34-10.56-2.34-12.31,0-14.07-.59S127.51,77.77,127.51,77.77Z" style="fill:#1d1e1b"/><path d="M91.15,169.25s12.74,19.81,15.1,22.29a62.6,62.6,0,0,0,12.32,9.67,42.19,42.19,0,0,0,16.71,5c5.84.55,12.41,1.39,18.62-.44,6.45-1.91,13-5,16.61-7.58,4.11-2.93,8.89-8.25,11.34-11.14,3.57-4.2,13-21.44,13.69-23.06a77.58,77.58,0,0,0,3.51-16,29.87,29.87,0,0,0-.73-7L196.56,133l-.44,4.55s-1.17,14.66-2.93,18.18S187,169,185.13,171.6c-1.54,2.12-5.13,5.13-8.8,8.5-3.45,3.18-4.69,3.23-8.06,6.6-3.71,3.71-9.24,5.57-11.44,6.74-1.87,1-5.47,4.5-8.4,4.35l1.41-6.4a73.12,73.12,0,0,1-8.65.73,66.86,66.86,0,0,1-9.67-.88c-.44-.14,1.46,6.55.88,6.55-1.76,0-11.78-5.52-15.74-8.6-3.73-2.9-4-5.13-7.48-8.5a98.59,98.59,0,0,1-11.28-12.9c-2.35-3.52-7.63-17.3-12.17-18.33C84.69,149.23,85.29,149.9,91.15,169.25Z" style="fill:#1d1e1b"/></svg>