<svg xmlns="http://www.w3.org/2000/svg" viewBox="0 0 283.46 283.46"><title>1</title><rect x="-0.28" y="-0.41" width="284.03" height="284.28" style="fill:#fff"/><path d="M51.36,283.86H232.8V261s-4.11-39.28-43-44.89H154.61l-13.19,31.44L130.28,217.1H94.75S66,214.55,50.66,254.21C50.66,254.21,51,283.49,51.36,283.86Z" style="fill:#f15d53"/><path d="M199.72,139.3c0,36.33-29.64,65.79-57.48,65.79-28.75,0-57.48-29.46-57.48-65.79,0-18.93,5-42.15,15.55-55.35C110,71.8,124.65,68.89,141.64,68.74c16.4-.14,32.29,3.86,42.53,16.38C195,98.35,199.72,120.63,199.72,139.3Z" style="fill:#fad7ca"/><path d="M76.66,124.73S67,124.88,69.33,139s11.58,12.76,11.58,12.76a17.76,17.76,0,0,0,6.16-2.93s-2.06-11.44,0-20.09A12,12,0,0,0,76.66,124.73Z" style="fill:#fad7ca"/><path d="M207.61,124.12s9.68.14,7.33,14.22-11.58,12.75-11.58,12.75a17.76,17.76,0,0,1-6.16-2.93s2.06-11.43,0-20.08A12,12,0,0,1,207.61,124.12Z" style="fill:#fad7ca"/><path d="M130.28,193.06h24.33v24.33l-13.19,30.2L130.28,217.1S130.72,192.62,130.28,193.06Z" style="fill:#fad7ca"/><path d="M80.54,285.41a.8.8,0,0,1-.8-.8V246.45a.8.8,0,0,1,1.6,0v38.16A.8.8,0,0,1,80.54,285.41Z" style="fill:#fff"/><path d="M203.45,284.92a.8.8,0,0,1-.8-.8V246a.8.8,0,1,1,1.6,0v38.16A.8.8,0,0,1,203.45,284.92Z" style="fill:#fff"/><path d="M141.33,285.93a.8.8,0,0,1-.8-.8V247a.8.8,0,0,1,1.6,0v38.16A.8.8,0,0,1,141.33,285.93Z" style="fill:#fff"/><path d="M162,136.53a4.82,4.82,0,0,1,6.78,0,3,3,0,1,0,4.2-4.21,10.75,10.75,0,0,0-15.19,0,3,3,0,1,0,4.21,4.21Z" style="fill:#1d1e1b"/><path d="M114.85,136.88a4.79,4.79,0,0,1,6.77,0,3,3,0,0,0,4.21-4.21,10.75,10.75,0,0,0-15.19,0,3,3,0,0,0,4.21,4.21Z" style="fill:#1d1e1b"/><path d="M89.44,83.34s-.38-2.61,3.59-1.79c4.82,1,4.14.89,7.28,2.4s.86,4.77.53,6.4a19.85,19.85,0,0,0,0,7.81c.66,4.24.66,8.48,1.31,9.45s-3.59,6.52-4.89,12.06S94,134.33,94,139.87a108.9,108.9,0,0,0,.65,11.07,3.31,3.31,0,0,1-2.28,1.31c-1.3,0-2.79-20.72-5.3-23.56a11.4,11.4,0,0,0-5.45-3.48s1.63-2.94,1.63-11.73-2-12.71.33-17.92S89,85,89.44,83.34Z" style="fill:#282828"/><path d="M103.45,83.83s0-1.3,4.89-5.21,8.47-6.84,17.92-4.89,14.33,3.26,19.54,8.8,15,8.79,19.88,10.1,9.44,3.25,14.66,5.21,13,6.51,15,11.08,2.61,6.19,2.61,7.16c0,0,2.28,1.63,1.63-6.19A92.86,92.86,0,0,0,196,91c-1.31-4.24-2.94-5.87-7.82-11.41s-7.82-10.75-9.45-12.38-3.59-1.95-4.89-4.23-8.47-6.19-12.38-7.17-13-6.19-21.17-5.21-10.1.32-13,1-13.68,3.91-16.29,6.51-3.25,4.24-8.14,6.19-8.47,2.28-9.12,5.21-2.28,4.89-2.94,6.85a54.48,54.48,0,0,0-1.3,6.51s2.28-1.63,6.52.33S102.47,85.13,103.45,83.83Z" style="fill:#282828"/><path d="M189.46,138.4s-.33,3.58,1,5.86,2.93,2.28,2.6-.65,0-3.26.33-8.14,5.3-5.11,5-7.66,1.63-1.63,1.63-2.93,1.3-18.24-.33-17.27-6.68-8-7.65-9.93-8.47-5.22-10.43-5.22-3.58,3.91-3.58,3.91,4.88,5.54,6.51,8.47,3.91,11.41,3.91,14.34.65,11.4.65,13S189.46,138.4,189.46,138.4Z" style="fill:#282828"/><path d="M126.94,168.31a3,3,0,0,1,3.83,2c0,.06,2.22,6.68,11.13,6.68,8.4,0,10.22-6.09,10.41-6.81A3,3,0,0,1,156,167.9a3.14,3.14,0,0,1,2.24,3.78c-.94,4-5.55,11.58-16.31,11.58-13.26,0-16.76-10.55-16.9-11A3.14,3.14,0,0,1,126.94,168.31Z" style="fill:#f79e98"/><path d="M103.46,128a14.87,14.87,0,0,1,10.12-6.3c7-1,11.38-.5,14.24.31" style="fill:none;stroke:#1d1d1b;stroke-linecap:round;stroke-miterlimit:10;stroke-width:5.322477377776516px"/><path d="M179.72,127.28a14.84,14.84,0,0,0-10-6.43c-7-1.08-11.38-.66-14.24.12" style="fill:none;stroke:#1d1d1b;stroke-linecap:round;stroke-miterlimit:10;stroke-width:5.322477377776516px"/></svg>