<svg xmlns="http://www.w3.org/2000/svg" viewBox="0 0 283.46 283.46"><rect x="-0.28" y="-0.41" width="284.03" height="284.28" style="fill:#fff"/><path d="M51.36,284.13H232.8V261.31s-4.11-39.28-43-44.9H154.61l-13.19,31.45-11.14-30.5H94.75S66,214.82,50.66,254.47C50.66,254.47,51,283.76,51.36,284.13Z" style="fill:#412175;stroke:#412175;stroke-miterlimit:10;stroke-width:0.9px"/><path d="M199.72,139.57c0,36.33-29.64,65.78-57.48,65.78-28.75,0-57.48-29.45-57.48-65.78,0-18.93,5-42.15,15.55-55.36,9.73-12.14,24.34-15,41.33-15.2,16.4-.15,32.29,3.85,42.53,16.38C195,98.62,199.72,120.9,199.72,139.57Z" style="fill:#fad7ca"/><path d="M76.66,125s-9.68.15-7.33,14.22S80.91,152,80.91,152A17.76,17.76,0,0,0,87.07,149S85,137.61,87.07,129A12,12,0,0,0,76.66,125Z" style="fill:#fad7ca"/><path d="M207.61,124.38s9.68.15,7.33,14.22-11.58,12.76-11.58,12.76a17.76,17.76,0,0,1-6.16-2.93s2.06-11.44,0-20.09A12,12,0,0,1,207.61,124.38Z" style="fill:#fad7ca"/><path d="M130.28,193.32h24.33v24.34l-13.19,30.2-11.14-30.5S130.72,192.88,130.28,193.32Z" style="fill:#fad7ca"/><path d="M80.54,285.68a.8.8,0,0,1-.8-.8V246.72a.8.8,0,1,1,1.6,0v38.16A.8.8,0,0,1,80.54,285.68Z" style="fill:#5f4189"/><path d="M203.45,285.19a.8.8,0,0,1-.8-.8V246.23a.8.8,0,1,1,1.6,0v38.16A.8.8,0,0,1,203.45,285.19Z" style="fill:#5f4189"/><path d="M141.33,286.19a.8.8,0,0,1-.8-.8V247.23a.8.8,0,1,1,1.6,0v38.16A.8.8,0,0,1,141.33,286.19Z" style="fill:#5f4189"/><path d="M162,136.8a4.8,4.8,0,0,1,6.78,0,3,3,0,1,0,4.2-4.21,10.75,10.75,0,0,0-15.19,0A3,3,0,0,0,162,136.8Z" style="fill:#1d1e1b"/><path d="M114.85,137.14a4.8,4.8,0,0,1,6.77,0,3,3,0,0,0,4.21,0,3,3,0,0,0,0-4.21,10.77,10.77,0,0,0-15.19,0,3,3,0,0,0,4.21,4.21Z" style="fill:#1d1e1b"/><path d="M100.31,123.94a2.7,2.7,0,0,1-2.3-4.11,13,13,0,0,1,6.57-5.27A27.62,27.62,0,0,1,116,113.47a30.33,30.33,0,0,1,10.53,2.77,23.05,23.05,0,0,0,2.17.86,2.7,2.7,0,1,1-1.63,5.15,28,28,0,0,1-2.7-1.06,24.9,24.9,0,0,0-8.84-2.34,22.13,22.13,0,0,0-9.31.86,7.8,7.8,0,0,0-3.59,2.94A2.71,2.71,0,0,1,100.31,123.94Z" style="fill:#1d1e1b"/><path d="M140.93,185.58c-9.57,0-13.67-6.53-14.5-10a2.7,2.7,0,0,1,5.24-1.29c.17.63,1.79,5.87,9.26,5.87,7.91,0,9.87-5.7,9.89-5.76A2.7,2.7,0,1,1,156,176.1C155.83,176.49,152.72,185.58,140.93,185.58Z" style="fill:#f79e98"/><path d="M181.92,123.94a2.68,2.68,0,0,1-2.3-1.28,7.84,7.84,0,0,0-3.6-3,22.47,22.47,0,0,0-9.31-.86,25,25,0,0,0-8.85,2.34,26.8,26.8,0,0,1-2.69,1.06,2.7,2.7,0,1,1-1.63-5.15,23,23,0,0,0,2.16-.86,30.4,30.4,0,0,1,10.53-2.77,27.67,27.67,0,0,1,11.42,1.09,13,13,0,0,1,6.57,5.27,2.69,2.69,0,0,1-.9,3.71A2.66,2.66,0,0,1,181.92,123.94Z" style="fill:#1d1e1b"/><path d="M127.87,73.07a36.09,36.09,0,0,0,7.63,2.54,31.87,31.87,0,0,0,10.55,0c3.52-.78,4.69-2.15,7.24-2.15a24.77,24.77,0,0,1,10.16,2.74c2.54,1.56,7.23,3.32,9.58,3.13s5.86,2.34,7.82,5.27,5.47,6.26,5.86,8.8-.19,5.87.2,7.82,5.08,9,6.06,13.49,1.17,15.24,1.37,16.22a1.33,1.33,0,0,0,2.54-.19c.58-1.57,3.12-4.11,3.12-6.45s-2.54-28-3.32-30.3-12.31-20.72-15.83-23.07-6.06-6.84-10.36-8.79-13.1-7.24-15.44-7.82a54.29,54.29,0,0,0-10.76-1c-1.56.19-3.91-.2-6.45,0a82.1,82.1,0,0,0-12.12,2,69.35,69.35,0,0,0-9.38,3.91c-2,1.18-10.55,8.21-11.53,9.58s-6.06,4.89-6.65,6.65-5.08,11.92-6.06,15S86.82,103,86.63,105.72s-2.93,16.22-2.35,18,1.76,7.43,2.94,10.36,1.56,4.69,2.54,4.5A2.57,2.57,0,0,0,91.91,136c0-1.56-.2-8.79,0-11.33s-.39-10.56.19-13.69,5.67-15.44,6.06-18.18,5.28-11.72,8.6-13.48,7.24-2,9.78-3.52S126.9,72.49,127.87,73.07Z" style="fill:#1d1e1b"/><path d="M200.66,146.22a2.2,2.2,0,0,0-.67,1.89c.13,1.21.22,1.8.67,1.57.24-.12.36,0,1.22.18A2.9,2.9,0,0,1,204,153.1c-.22,1.7-.4,3-2,3.64s-4.49.25-4.74.75a27.24,27.24,0,0,0-.93,3.2c.43.43,1.21.81,2.93.86a8.4,8.4,0,0,0,5.26-1.35c1.39-1,2.92-4.27,3.06-6.83s-1.62-5.67-3.24-6.48S201.2,145.81,200.66,146.22Z" style="fill:#dadada"/><path d="M125,164.19a21.82,21.82,0,0,0-3.58,2.7,2.25,2.25,0,0,0,3.18,3.18l.65-.58.34-.28.17-.13c-.15.1-.15.11,0,0,.5-.37,1-.71,1.54-1a2.25,2.25,0,1,0-2.27-3.88Z" style="fill:#1d1e1b"/><path d="M155.08,168.32q.79.48,1.53,1c.3.22-.22-.18.06,0l.34.27c.25.21.49.43.73.65a2.25,2.25,0,0,0,3.18-3.18,21.88,21.88,0,0,0-3.57-2.7,2.25,2.25,0,1,0-2.27,3.89Z" style="fill:#1d1e1b"/><path d="M176.9,188.45c-.78-.2-6.94,1.56-9,2.73s-14.76,6.06-16.42,6.65-3.23,1.07-3-1.37-1.47-2-1.47-2H142.2l-4.75.05s-1.66-.49-1.46,1.95-1.37,2-3,1.37-14.57-5-16.62-6.16-8-3.42-8.8-3.22a2.41,2.41,0,0,0-1.27,1.17s16,17.2,33.72,17c.59,0,1.76-.09,2.35-.1,20-.17,35.83-17,35.83-17A2.41,2.41,0,0,0,176.9,188.45Z" style="fill:#1d1e1b"/></svg>