<svg xmlns="http://www.w3.org/2000/svg" viewBox="0 0 283.46 283.46"><rect x="-0.28" y="-0.41" width="284.03" height="284.28" style="fill:#fff"/><path d="M147.56,201.8l-.41,29.86,50.41.79.4-74s-7,5.18-17.21,18.32S147.56,201.8,147.56,201.8Z" style="fill:#472b27"/><path d="M95.92,153.12s-6.37,58.61-7.76,64.09-2.79,19.94-2.79,19.94l.56,9s15.31-9,22.27-10.56,29.51-2,29.51-2l.83-30.5s-27.83-18.37-30.06-32.45-4.24-15.15-4.24-15.15Z" style="fill:#472b27"/><path d="M196.79,137.09c0,34.44-23.1,62.47-54.85,62.47s-52.17-28-52.17-62.47,20.43-62.22,52.17-62.22S196.79,102.66,196.79,137.09Z" style="fill:#fce2d7"/><path d="M85.36,131.49s-9.67.15-7.33,14.22,11.58,12.76,11.58,12.76a17.59,17.59,0,0,0,6.16-2.94s-2-11.43,0-20.08A12,12,0,0,0,85.36,131.49Z" style="fill:#fce2d7"/><path d="M201,130s9.68.14,7.33,14.22S196.77,157,196.77,157a17.68,17.68,0,0,1-6.16-2.93s2-11.44,0-20.09A12,12,0,0,1,201,130Z" style="fill:#fcdfdd"/><path d="M130,193.51h24.34v24.34l-13.2,30.2L130,217.56S130.42,193.07,130,193.51Z" style="fill:#fce2d7"/><path d="M51.06,284.32H232.51V261.5s-4.12-39.28-43-44.89l-34.94-.05S150,228,141.48,227.79c-8.12-.19-11.86-10.5-11.86-10.5l-35.16.27s-27.69-2.82-43,36.83C51.44,254.39,50.69,284,51.06,284.32Z" style="fill:#f15d53"/><path d="M83.13,286.26a.8.8,0,0,1-.8-.74L79.45,247a.8.8,0,0,1,.73-.86.81.81,0,0,1,.86.74l2.88,38.55a.8.8,0,0,1-.73.86Z" style="fill:#f9beba"/><path d="M199.53,285.67h-.07a.8.8,0,0,1-.72-.87l3.62-38.46a.8.8,0,1,1,1.59.15L200.33,285A.8.8,0,0,1,199.53,285.67Z" style="fill:#f9beba"/><path d="M126.71,137.25A10.76,10.76,0,0,0,113.05,136h0a2.16,2.16,0,0,1-1.57-2.09.68.68,0,0,0-1.35,0,3.55,3.55,0,0,0,1.75,3l-.35.32a2.88,2.88,0,0,0-.46.61,2.16,2.16,0,0,1-1.17-1.92.68.68,0,0,0-1.35,0,3.52,3.52,0,0,0,2.12,3.22,3,3,0,0,0,5.07,2.3,4.8,4.8,0,0,1,6.77,0,3,3,0,1,0,4.21-4.21Z" style="fill:#1d1e1b"/><path d="M174.17,135.82a.68.68,0,0,0-1.35,0,2.18,2.18,0,0,1-.81,1.69,2.65,2.65,0,0,0-.21-.26c-.22-.22-.45-.42-.68-.62a3.54,3.54,0,0,0,1.48-2.86.68.68,0,0,0-1.35,0,2.16,2.16,0,0,1-1.32,2,10.76,10.76,0,0,0-13.32,1.49,3,3,0,1,0,4.21,4.21,4.8,4.8,0,0,1,6.77,0,3,3,0,0,0,5-2.72A3.54,3.54,0,0,0,174.17,135.82Z" style="fill:#1d1e1b"/><path d="M131.11,82.56S137,107.19,147,114.81,166,116.54,168.21,128s3.87,18.18,5.67,26.25,3.4,21.63,4.65,22.48,2.43,6.12,5.95,11.39,2.93,7,1.76,15.25-7.63,7.62-10,14.07-6.45,13.49-4.69,18.77,9.81,13.68,11.06,8,5.36-8.6,9.46-5.08,16.07.59,15.66-6.15,4.87-5,6.62-9.09a15.47,15.47,0,0,0,0-13.49c-2.34-5.28-7-7.63-2.93-14.66s2.93-8.21,4.69-17.6,9.39-9.38,8.8-15.83-7.62-11.14-7.62-17.59-3.52-12.9-6.45-21.7-7.63-9.38-8.21-14.07-8.8-6.45-12.32-15.84-11.73-19.35-16.42-20.52-14.07-9.38-20.52-9.38-18.18,0-19.94,2.93-5.87-1.76-8.8,0-11.14,4.1-14.66,8.79S99.45,91.35,97.69,97.22s-6.45,14.66-7,20.52-4.15,14.9-6.18,19.48-8.94,7.3-5.78,15.9,2.58,11.54,2.58,18-2.94,10.55,2.34,17S93,199.26,88.3,202.19,76.58,201,76,205.12s-1.76,10,4.69,12.9,4.1,7.62,8.8,10,6.64.78,11.92,4.3,12.51,5.87,13.29-1.17c1.23-11.08-4.69-6.65-2.34-15.44s4.69-12.91.58-22.29-8.79-18.76-9.38-28.15-1.76-17.59,0-26.39.59-16.42,5.28-25.21,2.93-18.18,6.45-21.11S126.42,80.21,131.11,82.56Z" style="fill:#472b27"/><path d="M142.25,184.42c-9.56,0-13.66-6.81-14.5-10.42a2.84,2.84,0,0,1,2-3.4,2.7,2.7,0,0,1,3.25,2.06c.16.65,1.79,6.13,9.25,6.13,7.92,0,9.88-6,9.9-6a2.67,2.67,0,0,1,3.41-1.8,2.84,2.84,0,0,1,1.72,3.55C157.16,174.93,154.05,184.42,142.25,184.42Z" style="fill:#f15d53"/></svg>